solid OpenSCAD_Model
  facet normal 0 0 -1
    outer loop
      vertex -5 0 0
      vertex -4.97261 0.522642 0
      vertex -4.97261 -0.522642 0
    endloop
  endfacet
  facet normal 0 0 -1
    outer loop
      vertex -4.97261 -0.522642 0
      vertex -4.97261 0.522642 0
      vertex -4.89074 1.03956 0
    endloop
  endfacet
  facet normal 0 0 -1
    outer loop
      vertex -4.97261 -0.522642 0
      vertex -4.89074 1.03956 0
      vertex -4.75528 1.54508 0
    endloop
  endfacet
  facet normal 0 0 -1
    outer loop
      vertex -4.97261 -0.522642 0
      vertex -4.75528 1.54508 0
      vertex -4.56773 2.03368 0
    endloop
  endfacet
  facet normal 0 0 -1
    outer loop
      vertex -4.97261 -0.522642 0
      vertex -4.56773 2.03368 0
      vertex -4.33013 2.5 0
    endloop
  endfacet
  facet normal 0 0 -1
    outer loop
      vertex -4.97261 -0.522642 0
      vertex -4.33013 2.5 0
      vertex -4.04508 2.93893 0
    endloop
  endfacet
  facet normal 0 0 -1
    outer loop
      vertex -4.97261 -0.522642 0
      vertex -4.04508 2.93893 0
      vertex -3.71572 3.34565 0
    endloop
  endfacet
  facet normal 0 0 -1
    outer loop
      vertex -4.97261 -0.522642 0
      vertex -3.71572 3.34565 0
      vertex -3.34565 3.71572 0
    endloop
  endfacet
  facet normal 0 0 -1
    outer loop
      vertex -4.97261 -0.522642 0
      vertex -3.34565 3.71572 0
      vertex -2.93893 4.04508 0
    endloop
  endfacet
  facet normal 0 0 -1
    outer loop
      vertex -4.97261 -0.522642 0
      vertex -2.93893 4.04508 0
      vertex -2.5 4.33013 0
    endloop
  endfacet
  facet normal 0 0 -1
    outer loop
      vertex -4.97261 -0.522642 0
      vertex -2.5 4.33013 0
      vertex -2.03368 4.56773 0
    endloop
  endfacet
  facet normal 0 0 -1
    outer loop
      vertex -4.97261 -0.522642 0
      vertex -2.03368 4.56773 0
      vertex -1.54508 4.75528 0
    endloop
  endfacet
  facet normal 0 0 -1
    outer loop
      vertex -4.97261 -0.522642 0
      vertex -1.54508 4.75528 0
      vertex -1.03956 4.89074 0
    endloop
  endfacet
  facet normal 0 0 -1
    outer loop
      vertex -4.97261 -0.522642 0
      vertex -1.03956 4.89074 0
      vertex -0.522642 4.97261 0
    endloop
  endfacet
  facet normal 0 0 -1
    outer loop
      vertex -4.97261 -0.522642 0
      vertex -0.522642 4.97261 0
      vertex 0 5 0
    endloop
  endfacet
  facet normal 0 0 -1
    outer loop
      vertex -4.97261 -0.522642 0
      vertex 0 5 0
      vertex 0.522642 4.97261 0
    endloop
  endfacet
  facet normal 0 0 -1
    outer loop
      vertex -4.97261 -0.522642 0
      vertex 0.522642 4.97261 0
      vertex 1.03956 4.89074 0
    endloop
  endfacet
  facet normal 0 0 -1
    outer loop
      vertex -4.97261 -0.522642 0
      vertex 1.03956 4.89074 0
      vertex 1.54508 4.75528 0
    endloop
  endfacet
  facet normal 0 0 -1
    outer loop
      vertex -4.97261 -0.522642 0
      vertex 1.54508 4.75528 0
      vertex 2.03368 4.56773 0
    endloop
  endfacet
  facet normal 0 0 -1
    outer loop
      vertex -4.97261 -0.522642 0
      vertex 2.03368 4.56773 0
      vertex 2.5 4.33013 0
    endloop
  endfacet
  facet normal 0 0 -1
    outer loop
      vertex -0.235189 2.23767 0
      vertex 2.5 4.33013 0
      vertex 2.93893 4.04508 0
    endloop
  endfacet
  facet normal 0 0 -1
    outer loop
      vertex 0.235189 2.23767 0
      vertex 2.93893 4.04508 0
      vertex 3.34565 3.71572 0
    endloop
  endfacet
  facet normal 0 0 -1
    outer loop
      vertex 0.695288 2.13988 0
      vertex 3.34565 3.71572 0
      vertex 3.71572 3.34565 0
    endloop
  endfacet
  facet normal 0 0 -1
    outer loop
      vertex 1.125 1.94856 0
      vertex 3.71572 3.34565 0
      vertex 4.04508 2.93893 0
    endloop
  endfacet
  facet normal 0 0 -1
    outer loop
      vertex 1.50554 1.67208 0
      vertex 4.04508 2.93893 0
      vertex 4.33013 2.5 0
    endloop
  endfacet
  facet normal 0 0 -1
    outer loop
      vertex 1.82029 1.32252 0
      vertex 4.33013 2.5 0
      vertex 4.56773 2.03368 0
    endloop
  endfacet
  facet normal 0 0 -1
    outer loop
      vertex 2.05548 0.915157 0
      vertex 4.75528 1.54508 0
      vertex 4.89074 1.03956 0
    endloop
  endfacet
  facet normal 0 0 -1
    outer loop
      vertex 2.20083 0.467801 0
      vertex 4.89074 1.03956 0
      vertex 4.97261 0.522642 0
    endloop
  endfacet
  facet normal 0 0 -1
    outer loop
      vertex 2.25 0 0
      vertex 4.97261 0.522642 0
      vertex 5 0 0
    endloop
  endfacet
  facet normal 0 0 -1
    outer loop
      vertex 2.20083 -0.467801 0
      vertex 5 0 0
      vertex 4.97261 -0.522642 0
    endloop
  endfacet
  facet normal 0 0 -1
    outer loop
      vertex 2.05548 -0.915157 0
      vertex 4.89074 -1.03956 0
      vertex 4.75528 -1.54508 0
    endloop
  endfacet
  facet normal 0 0 -1
    outer loop
      vertex 1.82029 -1.32252 0
      vertex 4.75528 -1.54508 0
      vertex 4.56773 -2.03368 0
    endloop
  endfacet
  facet normal 0 0 -1
    outer loop
      vertex 1.50554 -1.67208 0
      vertex 4.56773 -2.03368 0
      vertex 4.33013 -2.5 0
    endloop
  endfacet
  facet normal 0 0 -1
    outer loop
      vertex 1.125 -1.94856 0
      vertex 4.33013 -2.5 0
      vertex 4.04508 -2.93893 0
    endloop
  endfacet
  facet normal 0 0 -1
    outer loop
      vertex 0.695288 -2.13988 0
      vertex 4.04508 -2.93893 0
      vertex 3.71572 -3.34565 0
    endloop
  endfacet
  facet normal 0 0 -1
    outer loop
      vertex 0.235189 -2.23767 0
      vertex 3.71572 -3.34565 0
      vertex 3.34565 -3.71572 0
    endloop
  endfacet
  facet normal 0 0 -1
    outer loop
      vertex -4.97261 -0.522642 0
      vertex 3.34565 -3.71572 0
      vertex 2.93893 -4.04508 0
    endloop
  endfacet
  facet normal 0 0 -1
    outer loop
      vertex -4.97261 -0.522642 0
      vertex 2.93893 -4.04508 0
      vertex 2.5 -4.33013 0
    endloop
  endfacet
  facet normal 0 0 -1
    outer loop
      vertex -4.97261 -0.522642 0
      vertex 2.5 -4.33013 0
      vertex 2.03368 -4.56773 0
    endloop
  endfacet
  facet normal 0 0 -1
    outer loop
      vertex -4.97261 -0.522642 0
      vertex 2.03368 -4.56773 0
      vertex 1.54508 -4.75528 0
    endloop
  endfacet
  facet normal 0 0 -1
    outer loop
      vertex -4.97261 -0.522642 0
      vertex 1.54508 -4.75528 0
      vertex 1.03956 -4.89074 0
    endloop
  endfacet
  facet normal 0 0 -1
    outer loop
      vertex -4.97261 -0.522642 0
      vertex 1.03956 -4.89074 0
      vertex 0.522642 -4.97261 0
    endloop
  endfacet
  facet normal 0 0 -1
    outer loop
      vertex -4.97261 -0.522642 0
      vertex 0.522642 -4.97261 0
      vertex 0 -5 0
    endloop
  endfacet
  facet normal 0 0 -1
    outer loop
      vertex -4.97261 -0.522642 0
      vertex 0 -5 0
      vertex -0.522642 -4.97261 0
    endloop
  endfacet
  facet normal 0 0 -1
    outer loop
      vertex -4.97261 -0.522642 0
      vertex -0.522642 -4.97261 0
      vertex -1.03956 -4.89074 0
    endloop
  endfacet
  facet normal 0 0 -1
    outer loop
      vertex -4.97261 -0.522642 0
      vertex -1.03956 -4.89074 0
      vertex -1.54508 -4.75528 0
    endloop
  endfacet
  facet normal 0 0 -1
    outer loop
      vertex -4.97261 -0.522642 0
      vertex -1.54508 -4.75528 0
      vertex -2.03368 -4.56773 0
    endloop
  endfacet
  facet normal 0 0 -1
    outer loop
      vertex -4.97261 -0.522642 0
      vertex -2.03368 -4.56773 0
      vertex -2.5 -4.33013 0
    endloop
  endfacet
  facet normal 0 0 -1
    outer loop
      vertex -4.97261 -0.522642 0
      vertex -2.5 -4.33013 0
      vertex -2.93893 -4.04508 0
    endloop
  endfacet
  facet normal 0 0 -1
    outer loop
      vertex -4.97261 -0.522642 0
      vertex -2.93893 -4.04508 0
      vertex -3.34565 -3.71572 0
    endloop
  endfacet
  facet normal 0 0 -1
    outer loop
      vertex -4.97261 -0.522642 0
      vertex -3.34565 -3.71572 0
      vertex -3.71572 -3.34565 0
    endloop
  endfacet
  facet normal 0 0 -1
    outer loop
      vertex -4.97261 -0.522642 0
      vertex -3.71572 -3.34565 0
      vertex -4.04508 -2.93893 0
    endloop
  endfacet
  facet normal 0 0 -1
    outer loop
      vertex -4.97261 -0.522642 0
      vertex -4.04508 -2.93893 0
      vertex -4.33013 -2.5 0
    endloop
  endfacet
  facet normal 0 0 -1
    outer loop
      vertex -4.97261 -0.522642 0
      vertex -4.33013 -2.5 0
      vertex -4.56773 -2.03368 0
    endloop
  endfacet
  facet normal 0 0 -1
    outer loop
      vertex -4.97261 -0.522642 0
      vertex -4.56773 -2.03368 0
      vertex -4.75528 -1.54508 0
    endloop
  endfacet
  facet normal 0 0 -1
    outer loop
      vertex -4.97261 -0.522642 0
      vertex -4.75528 -1.54508 0
      vertex -4.89074 -1.03956 0
    endloop
  endfacet
  facet normal 0 0 -1
    outer loop
      vertex -2.20083 -0.467801 0
      vertex -4.97261 -0.522642 0
      vertex -2.25 0 0
    endloop
  endfacet
  facet normal 0 0 -1
    outer loop
      vertex -2.05548 -0.915157 0
      vertex -4.97261 -0.522642 0
      vertex -2.20083 -0.467801 0
    endloop
  endfacet
  facet normal 0 0 -1
    outer loop
      vertex -1.82029 -1.32252 0
      vertex -4.97261 -0.522642 0
      vertex -2.05548 -0.915157 0
    endloop
  endfacet
  facet normal 0 0 -1
    outer loop
      vertex -1.50554 -1.67208 0
      vertex -4.97261 -0.522642 0
      vertex -1.82029 -1.32252 0
    endloop
  endfacet
  facet normal 0 0 -1
    outer loop
      vertex -0.235189 -2.23767 0
      vertex 3.34565 -3.71572 0
      vertex -0.695288 -2.13988 0
    endloop
  endfacet
  facet normal 0 0 -1
    outer loop
      vertex -4.97261 -0.522642 0
      vertex -1.50554 -1.67208 0
      vertex -1.125 -1.94856 0
    endloop
  endfacet
  facet normal 0 0 -1
    outer loop
      vertex -4.97261 -0.522642 0
      vertex -1.125 -1.94856 0
      vertex -0.695288 -2.13988 0
    endloop
  endfacet
  facet normal 0 0 -1
    outer loop
      vertex -4.97261 -0.522642 0
      vertex -0.695288 -2.13988 0
      vertex 3.34565 -3.71572 0
    endloop
  endfacet
  facet normal 0 0 -1
    outer loop
      vertex 0.235189 -2.23767 0
      vertex 3.34565 -3.71572 0
      vertex -0.235189 -2.23767 0
    endloop
  endfacet
  facet normal 0 0 -1
    outer loop
      vertex 0.695288 -2.13988 0
      vertex 3.71572 -3.34565 0
      vertex 0.235189 -2.23767 0
    endloop
  endfacet
  facet normal 0 0 -1
    outer loop
      vertex 1.50554 -1.67208 0
      vertex 4.33013 -2.5 0
      vertex 1.125 -1.94856 0
    endloop
  endfacet
  facet normal 0 0 -1
    outer loop
      vertex 1.125 -1.94856 0
      vertex 4.04508 -2.93893 0
      vertex 0.695288 -2.13988 0
    endloop
  endfacet
  facet normal 0 0 -1
    outer loop
      vertex 2.05548 -0.915157 0
      vertex 4.75528 -1.54508 0
      vertex 1.82029 -1.32252 0
    endloop
  endfacet
  facet normal 0 0 -1
    outer loop
      vertex 1.82029 -1.32252 0
      vertex 4.56773 -2.03368 0
      vertex 1.50554 -1.67208 0
    endloop
  endfacet
  facet normal 0 0 -1
    outer loop
      vertex 2.25 0 0
      vertex 5 0 0
      vertex 2.20083 -0.467801 0
    endloop
  endfacet
  facet normal 0 0 -1
    outer loop
      vertex 2.20083 -0.467801 0
      vertex 4.89074 -1.03956 0
      vertex 2.05548 -0.915157 0
    endloop
  endfacet
  facet normal 0 0 -1
    outer loop
      vertex 2.20083 -0.467801 0
      vertex 4.97261 -0.522642 0
      vertex 4.89074 -1.03956 0
    endloop
  endfacet
  facet normal 0 0 -1
    outer loop
      vertex 1.82029 1.32252 0
      vertex 4.75528 1.54508 0
      vertex 2.05548 0.915157 0
    endloop
  endfacet
  facet normal 0 0 -1
    outer loop
      vertex 2.05548 0.915157 0
      vertex 4.89074 1.03956 0
      vertex 2.20083 0.467801 0
    endloop
  endfacet
  facet normal 0 0 -1
    outer loop
      vertex 2.20083 0.467801 0
      vertex 4.97261 0.522642 0
      vertex 2.25 0 0
    endloop
  endfacet
  facet normal 0 0 -1
    outer loop
      vertex -2.20083 0.467801 0
      vertex -4.97261 -0.522642 0
      vertex -2.05548 0.915157 0
    endloop
  endfacet
  facet normal 0 0 -1
    outer loop
      vertex 0.695288 2.13988 0
      vertex 3.71572 3.34565 0
      vertex 1.125 1.94856 0
    endloop
  endfacet
  facet normal 0 0 -1
    outer loop
      vertex 0.235189 2.23767 0
      vertex 3.34565 3.71572 0
      vertex 0.695288 2.13988 0
    endloop
  endfacet
  facet normal 0 0 -1
    outer loop
      vertex -0.235189 2.23767 0
      vertex 2.93893 4.04508 0
      vertex 0.235189 2.23767 0
    endloop
  endfacet
  facet normal 0 0 -1
    outer loop
      vertex -0.695288 2.13988 0
      vertex 2.5 4.33013 0
      vertex -0.235189 2.23767 0
    endloop
  endfacet
  facet normal 0 0 -1
    outer loop
      vertex -1.82029 1.32252 0
      vertex -4.97261 -0.522642 0
      vertex -1.50554 1.67208 0
    endloop
  endfacet
  facet normal 0 0 -1
    outer loop
      vertex -1.125 1.94856 0
      vertex 2.5 4.33013 0
      vertex -0.695288 2.13988 0
    endloop
  endfacet
  facet normal 0 0 -1
    outer loop
      vertex -4.97261 -0.522642 0
      vertex 2.5 4.33013 0
      vertex -1.125 1.94856 0
    endloop
  endfacet
  facet normal 0 0 -1
    outer loop
      vertex -4.97261 -0.522642 0
      vertex -1.125 1.94856 0
      vertex -1.50554 1.67208 0
    endloop
  endfacet
  facet normal 0 0 -1
    outer loop
      vertex -2.05548 0.915157 0
      vertex -4.97261 -0.522642 0
      vertex -1.82029 1.32252 0
    endloop
  endfacet
  facet normal 0 0 -1
    outer loop
      vertex -2.25 0 0
      vertex -4.97261 -0.522642 0
      vertex -2.20083 0.467801 0
    endloop
  endfacet
  facet normal 0 0 -1
    outer loop
      vertex 1.125 1.94856 0
      vertex 4.04508 2.93893 0
      vertex 1.50554 1.67208 0
    endloop
  endfacet
  facet normal 0 0 -1
    outer loop
      vertex 1.82029 1.32252 0
      vertex 4.56773 2.03368 0
      vertex 4.75528 1.54508 0
    endloop
  endfacet
  facet normal 0 0 -1
    outer loop
      vertex 1.50554 1.67208 0
      vertex 4.33013 2.5 0
      vertex 1.82029 1.32252 0
    endloop
  endfacet
  facet normal -0.998629 0.0523369 0
    outer loop
      vertex -5 0 0
      vertex -5 0 5.5
      vertex -4.97261 0.522642 0
    endloop
  endfacet
  facet normal -0.998629 0.0523369 0
    outer loop
      vertex -4.97261 0.522642 0
      vertex -5 0 5.5
      vertex -4.97261 0.522642 5.5
    endloop
  endfacet
  facet normal -0.998629 -0.0523369 0
    outer loop
      vertex -5 0 0
      vertex -4.97261 -0.522642 0
      vertex -5 0 5.5
    endloop
  endfacet
  facet normal -0.998629 -0.0523369 0
    outer loop
      vertex -5 0 5.5
      vertex -4.97261 -0.522642 0
      vertex -4.97261 -0.522642 5.5
    endloop
  endfacet
  facet normal -0.987688 -0.156434 0
    outer loop
      vertex -4.97261 -0.522642 0
      vertex -4.89074 -1.03956 0
      vertex -4.97261 -0.522642 5.5
    endloop
  endfacet
  facet normal -0.987688 -0.156434 0
    outer loop
      vertex -4.97261 -0.522642 5.5
      vertex -4.89074 -1.03956 0
      vertex -4.89074 -1.03956 5.5
    endloop
  endfacet
  facet normal -0.965926 -0.258818 0
    outer loop
      vertex -4.89074 -1.03956 0
      vertex -4.75528 -1.54508 0
      vertex -4.89074 -1.03956 5.5
    endloop
  endfacet
  facet normal -0.965926 -0.258818 0
    outer loop
      vertex -4.89074 -1.03956 5.5
      vertex -4.75528 -1.54508 0
      vertex -4.75528 -1.54508 5.5
    endloop
  endfacet
  facet normal -0.93358 -0.358369 0
    outer loop
      vertex -4.75528 -1.54508 0
      vertex -4.56773 -2.03368 0
      vertex -4.75528 -1.54508 5.5
    endloop
  endfacet
  facet normal -0.93358 -0.358369 0
    outer loop
      vertex -4.75528 -1.54508 5.5
      vertex -4.56773 -2.03368 0
      vertex -4.56773 -2.03368 5.5
    endloop
  endfacet
  facet normal -0.891007 -0.45399 0
    outer loop
      vertex -4.56773 -2.03368 0
      vertex -4.33013 -2.5 0
      vertex -4.56773 -2.03368 5.5
    endloop
  endfacet
  facet normal -0.891007 -0.45399 0
    outer loop
      vertex -4.56773 -2.03368 5.5
      vertex -4.33013 -2.5 0
      vertex -4.33013 -2.5 5.5
    endloop
  endfacet
  facet normal -0.83867 -0.544639 0
    outer loop
      vertex -4.33013 -2.5 0
      vertex -4.04508 -2.93893 0
      vertex -4.33013 -2.5 5.5
    endloop
  endfacet
  facet normal -0.83867 -0.544639 0
    outer loop
      vertex -4.33013 -2.5 5.5
      vertex -4.04508 -2.93893 0
      vertex -4.04508 -2.93893 5.5
    endloop
  endfacet
  facet normal -0.777146 -0.62932 0
    outer loop
      vertex -4.04508 -2.93893 0
      vertex -3.71572 -3.34565 0
      vertex -4.04508 -2.93893 5.5
    endloop
  endfacet
  facet normal -0.777146 -0.62932 0
    outer loop
      vertex -4.04508 -2.93893 5.5
      vertex -3.71572 -3.34565 0
      vertex -3.71572 -3.34565 5.5
    endloop
  endfacet
  facet normal -0.707107 -0.707107 0
    outer loop
      vertex -3.71572 -3.34565 5.5
      vertex -3.71572 -3.34565 0
      vertex -3.34565 -3.71572 0
    endloop
  endfacet
  facet normal -0.707107 -0.707107 0
    outer loop
      vertex -3.34565 -3.71572 5.5
      vertex -3.71572 -3.34565 5.5
      vertex -3.34565 -3.71572 0
    endloop
  endfacet
  facet normal -0.62932 -0.777146 0
    outer loop
      vertex -3.34565 -3.71572 5.5
      vertex -3.34565 -3.71572 0
      vertex -2.93893 -4.04508 0
    endloop
  endfacet
  facet normal -0.62932 -0.777146 0
    outer loop
      vertex -2.93893 -4.04508 5.5
      vertex -3.34565 -3.71572 5.5
      vertex -2.93893 -4.04508 0
    endloop
  endfacet
  facet normal -0.544639 -0.83867 0
    outer loop
      vertex -2.93893 -4.04508 5.5
      vertex -2.93893 -4.04508 0
      vertex -2.5 -4.33013 0
    endloop
  endfacet
  facet normal -0.544639 -0.83867 0
    outer loop
      vertex -2.5 -4.33013 5.5
      vertex -2.93893 -4.04508 5.5
      vertex -2.5 -4.33013 0
    endloop
  endfacet
  facet normal -0.45399 -0.891007 0
    outer loop
      vertex -2.5 -4.33013 5.5
      vertex -2.5 -4.33013 0
      vertex -2.03368 -4.56773 0
    endloop
  endfacet
  facet normal -0.45399 -0.891007 0
    outer loop
      vertex -2.03368 -4.56773 5.5
      vertex -2.5 -4.33013 5.5
      vertex -2.03368 -4.56773 0
    endloop
  endfacet
  facet normal -0.358369 -0.93358 0
    outer loop
      vertex -2.03368 -4.56773 5.5
      vertex -2.03368 -4.56773 0
      vertex -1.54508 -4.75528 0
    endloop
  endfacet
  facet normal -0.358369 -0.93358 0
    outer loop
      vertex -1.54508 -4.75528 5.5
      vertex -2.03368 -4.56773 5.5
      vertex -1.54508 -4.75528 0
    endloop
  endfacet
  facet normal -0.258818 -0.965926 0
    outer loop
      vertex -1.54508 -4.75528 5.5
      vertex -1.54508 -4.75528 0
      vertex -1.03956 -4.89074 0
    endloop
  endfacet
  facet normal -0.258818 -0.965926 0
    outer loop
      vertex -1.03956 -4.89074 5.5
      vertex -1.54508 -4.75528 5.5
      vertex -1.03956 -4.89074 0
    endloop
  endfacet
  facet normal -0.156434 -0.987688 0
    outer loop
      vertex -1.03956 -4.89074 5.5
      vertex -1.03956 -4.89074 0
      vertex -0.522642 -4.97261 0
    endloop
  endfacet
  facet normal -0.156434 -0.987688 0
    outer loop
      vertex -0.522642 -4.97261 5.5
      vertex -1.03956 -4.89074 5.5
      vertex -0.522642 -4.97261 0
    endloop
  endfacet
  facet normal -0.0523369 -0.998629 0
    outer loop
      vertex -0.522642 -4.97261 5.5
      vertex -0.522642 -4.97261 0
      vertex 0 -5 0
    endloop
  endfacet
  facet normal -0.0523369 -0.998629 0
    outer loop
      vertex 0 -5 5.5
      vertex -0.522642 -4.97261 5.5
      vertex 0 -5 0
    endloop
  endfacet
  facet normal 0.0523369 -0.998629 0
    outer loop
      vertex 0 -5 5.5
      vertex 0 -5 0
      vertex 0.522642 -4.97261 0
    endloop
  endfacet
  facet normal 0.0523369 -0.998629 0
    outer loop
      vertex 0.522642 -4.97261 5.5
      vertex 0 -5 5.5
      vertex 0.522642 -4.97261 0
    endloop
  endfacet
  facet normal 0.156434 -0.987688 0
    outer loop
      vertex 0.522642 -4.97261 5.5
      vertex 0.522642 -4.97261 0
      vertex 1.03956 -4.89074 0
    endloop
  endfacet
  facet normal 0.156434 -0.987688 0
    outer loop
      vertex 1.03956 -4.89074 5.5
      vertex 0.522642 -4.97261 5.5
      vertex 1.03956 -4.89074 0
    endloop
  endfacet
  facet normal 0.258818 -0.965926 0
    outer loop
      vertex 1.03956 -4.89074 5.5
      vertex 1.03956 -4.89074 0
      vertex 1.54508 -4.75528 0
    endloop
  endfacet
  facet normal 0.258818 -0.965926 0
    outer loop
      vertex 1.54508 -4.75528 5.5
      vertex 1.03956 -4.89074 5.5
      vertex 1.54508 -4.75528 0
    endloop
  endfacet
  facet normal 0.358369 -0.93358 0
    outer loop
      vertex 1.54508 -4.75528 5.5
      vertex 1.54508 -4.75528 0
      vertex 2.03368 -4.56773 0
    endloop
  endfacet
  facet normal 0.358369 -0.93358 0
    outer loop
      vertex 2.03368 -4.56773 5.5
      vertex 1.54508 -4.75528 5.5
      vertex 2.03368 -4.56773 0
    endloop
  endfacet
  facet normal 0.45399 -0.891007 0
    outer loop
      vertex 2.03368 -4.56773 5.5
      vertex 2.03368 -4.56773 0
      vertex 2.5 -4.33013 0
    endloop
  endfacet
  facet normal 0.45399 -0.891007 0
    outer loop
      vertex 2.5 -4.33013 5.5
      vertex 2.03368 -4.56773 5.5
      vertex 2.5 -4.33013 0
    endloop
  endfacet
  facet normal 0.544639 -0.83867 0
    outer loop
      vertex 2.5 -4.33013 5.5
      vertex 2.5 -4.33013 0
      vertex 2.93893 -4.04508 0
    endloop
  endfacet
  facet normal 0.544639 -0.83867 0
    outer loop
      vertex 2.93893 -4.04508 5.5
      vertex 2.5 -4.33013 5.5
      vertex 2.93893 -4.04508 0
    endloop
  endfacet
  facet normal 0.62932 -0.777146 0
    outer loop
      vertex 2.93893 -4.04508 5.5
      vertex 2.93893 -4.04508 0
      vertex 3.34565 -3.71572 0
    endloop
  endfacet
  facet normal 0.62932 -0.777146 0
    outer loop
      vertex 3.34565 -3.71572 5.5
      vertex 2.93893 -4.04508 5.5
      vertex 3.34565 -3.71572 0
    endloop
  endfacet
  facet normal 0.707107 -0.707107 0
    outer loop
      vertex 3.34565 -3.71572 5.5
      vertex 3.34565 -3.71572 0
      vertex 3.71572 -3.34565 0
    endloop
  endfacet
  facet normal 0.707107 -0.707107 0
    outer loop
      vertex 3.71572 -3.34565 5.5
      vertex 3.34565 -3.71572 5.5
      vertex 3.71572 -3.34565 0
    endloop
  endfacet
  facet normal 0.777146 -0.62932 0
    outer loop
      vertex 3.71572 -3.34565 5.5
      vertex 3.71572 -3.34565 0
      vertex 4.04508 -2.93893 0
    endloop
  endfacet
  facet normal 0.777146 -0.62932 0
    outer loop
      vertex 4.04508 -2.93893 5.5
      vertex 3.71572 -3.34565 5.5
      vertex 4.04508 -2.93893 0
    endloop
  endfacet
  facet normal 0.83867 -0.544639 0
    outer loop
      vertex 4.04508 -2.93893 5.5
      vertex 4.04508 -2.93893 0
      vertex 4.33013 -2.5 0
    endloop
  endfacet
  facet normal 0.83867 -0.544639 0
    outer loop
      vertex 4.33013 -2.5 5.5
      vertex 4.04508 -2.93893 5.5
      vertex 4.33013 -2.5 0
    endloop
  endfacet
  facet normal 0.891007 -0.45399 0
    outer loop
      vertex 4.33013 -2.5 5.5
      vertex 4.33013 -2.5 0
      vertex 4.56773 -2.03368 0
    endloop
  endfacet
  facet normal 0.891007 -0.45399 0
    outer loop
      vertex 4.56773 -2.03368 5.5
      vertex 4.33013 -2.5 5.5
      vertex 4.56773 -2.03368 0
    endloop
  endfacet
  facet normal 0.93358 -0.358369 0
    outer loop
      vertex 4.56773 -2.03368 5.5
      vertex 4.56773 -2.03368 0
      vertex 4.75528 -1.54508 0
    endloop
  endfacet
  facet normal 0.93358 -0.358369 0
    outer loop
      vertex 4.75528 -1.54508 5.5
      vertex 4.56773 -2.03368 5.5
      vertex 4.75528 -1.54508 0
    endloop
  endfacet
  facet normal 0.965926 -0.258818 0
    outer loop
      vertex 4.75528 -1.54508 5.5
      vertex 4.75528 -1.54508 0
      vertex 4.89074 -1.03956 0
    endloop
  endfacet
  facet normal 0.965926 -0.258818 0
    outer loop
      vertex 4.89074 -1.03956 5.5
      vertex 4.75528 -1.54508 5.5
      vertex 4.89074 -1.03956 0
    endloop
  endfacet
  facet normal 0.987688 -0.156434 0
    outer loop
      vertex 4.89074 -1.03956 5.5
      vertex 4.89074 -1.03956 0
      vertex 4.97261 -0.522642 0
    endloop
  endfacet
  facet normal 0.987688 -0.156434 0
    outer loop
      vertex 4.97261 -0.522642 5.5
      vertex 4.89074 -1.03956 5.5
      vertex 4.97261 -0.522642 0
    endloop
  endfacet
  facet normal 0.998629 -0.0523369 0
    outer loop
      vertex 4.97261 -0.522642 5.5
      vertex 4.97261 -0.522642 0
      vertex 5 0 0
    endloop
  endfacet
  facet normal 0.998629 -0.0523369 0
    outer loop
      vertex 5 0 5.5
      vertex 4.97261 -0.522642 5.5
      vertex 5 0 0
    endloop
  endfacet
  facet normal 0.998629 0.0523369 0
    outer loop
      vertex 5 0 0
      vertex 4.97261 0.522642 0
      vertex 4.97261 0.522642 5.5
    endloop
  endfacet
  facet normal 0.998629 0.0523369 0
    outer loop
      vertex 5 0 5.5
      vertex 5 0 0
      vertex 4.97261 0.522642 5.5
    endloop
  endfacet
  facet normal 0.987688 0.156434 0
    outer loop
      vertex 4.97261 0.522642 0
      vertex 4.89074 1.03956 0
      vertex 4.89074 1.03956 5.5
    endloop
  endfacet
  facet normal 0.987688 0.156434 0
    outer loop
      vertex 4.97261 0.522642 5.5
      vertex 4.97261 0.522642 0
      vertex 4.89074 1.03956 5.5
    endloop
  endfacet
  facet normal 0.965926 0.258818 0
    outer loop
      vertex 4.89074 1.03956 0
      vertex 4.75528 1.54508 0
      vertex 4.75528 1.54508 5.5
    endloop
  endfacet
  facet normal 0.965926 0.258818 0
    outer loop
      vertex 4.89074 1.03956 5.5
      vertex 4.89074 1.03956 0
      vertex 4.75528 1.54508 5.5
    endloop
  endfacet
  facet normal 0.93358 0.358369 0
    outer loop
      vertex 4.75528 1.54508 0
      vertex 4.56773 2.03368 0
      vertex 4.56773 2.03368 5.5
    endloop
  endfacet
  facet normal 0.93358 0.358369 0
    outer loop
      vertex 4.75528 1.54508 5.5
      vertex 4.75528 1.54508 0
      vertex 4.56773 2.03368 5.5
    endloop
  endfacet
  facet normal 0.891007 0.45399 0
    outer loop
      vertex 4.56773 2.03368 0
      vertex 4.33013 2.5 0
      vertex 4.33013 2.5 5.5
    endloop
  endfacet
  facet normal 0.891007 0.45399 0
    outer loop
      vertex 4.56773 2.03368 5.5
      vertex 4.56773 2.03368 0
      vertex 4.33013 2.5 5.5
    endloop
  endfacet
  facet normal 0.83867 0.544639 0
    outer loop
      vertex 4.33013 2.5 0
      vertex 4.04508 2.93893 0
      vertex 4.04508 2.93893 5.5
    endloop
  endfacet
  facet normal 0.83867 0.544639 0
    outer loop
      vertex 4.33013 2.5 5.5
      vertex 4.33013 2.5 0
      vertex 4.04508 2.93893 5.5
    endloop
  endfacet
  facet normal 0.777146 0.62932 0
    outer loop
      vertex 4.04508 2.93893 0
      vertex 3.71572 3.34565 0
      vertex 3.71572 3.34565 5.5
    endloop
  endfacet
  facet normal 0.777146 0.62932 0
    outer loop
      vertex 4.04508 2.93893 5.5
      vertex 4.04508 2.93893 0
      vertex 3.71572 3.34565 5.5
    endloop
  endfacet
  facet normal 0.707107 0.707107 0
    outer loop
      vertex 3.34565 3.71572 0
      vertex 3.34565 3.71572 5.5
      vertex 3.71572 3.34565 0
    endloop
  endfacet
  facet normal 0.707107 0.707107 0
    outer loop
      vertex 3.71572 3.34565 0
      vertex 3.34565 3.71572 5.5
      vertex 3.71572 3.34565 5.5
    endloop
  endfacet
  facet normal 0.62932 0.777146 0
    outer loop
      vertex 2.93893 4.04508 0
      vertex 2.93893 4.04508 5.5
      vertex 3.34565 3.71572 0
    endloop
  endfacet
  facet normal 0.62932 0.777146 0
    outer loop
      vertex 3.34565 3.71572 0
      vertex 2.93893 4.04508 5.5
      vertex 3.34565 3.71572 5.5
    endloop
  endfacet
  facet normal 0.544639 0.83867 0
    outer loop
      vertex 2.5 4.33013 0
      vertex 2.5 4.33013 5.5
      vertex 2.93893 4.04508 0
    endloop
  endfacet
  facet normal 0.544639 0.83867 0
    outer loop
      vertex 2.93893 4.04508 0
      vertex 2.5 4.33013 5.5
      vertex 2.93893 4.04508 5.5
    endloop
  endfacet
  facet normal 0.45399 0.891007 0
    outer loop
      vertex 2.03368 4.56773 0
      vertex 2.03368 4.56773 5.5
      vertex 2.5 4.33013 0
    endloop
  endfacet
  facet normal 0.45399 0.891007 0
    outer loop
      vertex 2.5 4.33013 0
      vertex 2.03368 4.56773 5.5
      vertex 2.5 4.33013 5.5
    endloop
  endfacet
  facet normal 0.358369 0.93358 0
    outer loop
      vertex 1.54508 4.75528 0
      vertex 1.54508 4.75528 5.5
      vertex 2.03368 4.56773 0
    endloop
  endfacet
  facet normal 0.358369 0.93358 0
    outer loop
      vertex 2.03368 4.56773 0
      vertex 1.54508 4.75528 5.5
      vertex 2.03368 4.56773 5.5
    endloop
  endfacet
  facet normal 0.258818 0.965926 0
    outer loop
      vertex 1.03956 4.89074 0
      vertex 1.03956 4.89074 5.5
      vertex 1.54508 4.75528 0
    endloop
  endfacet
  facet normal 0.258818 0.965926 0
    outer loop
      vertex 1.54508 4.75528 0
      vertex 1.03956 4.89074 5.5
      vertex 1.54508 4.75528 5.5
    endloop
  endfacet
  facet normal 0.156434 0.987688 0
    outer loop
      vertex 0.522642 4.97261 0
      vertex 0.522642 4.97261 5.5
      vertex 1.03956 4.89074 0
    endloop
  endfacet
  facet normal 0.156434 0.987688 0
    outer loop
      vertex 1.03956 4.89074 0
      vertex 0.522642 4.97261 5.5
      vertex 1.03956 4.89074 5.5
    endloop
  endfacet
  facet normal 0.0523369 0.998629 0
    outer loop
      vertex 0 5 0
      vertex 0 5 5.5
      vertex 0.522642 4.97261 0
    endloop
  endfacet
  facet normal 0.0523369 0.998629 0
    outer loop
      vertex 0.522642 4.97261 0
      vertex 0 5 5.5
      vertex 0.522642 4.97261 5.5
    endloop
  endfacet
  facet normal -0.0523369 0.998629 0
    outer loop
      vertex -0.522642 4.97261 0
      vertex -0.522642 4.97261 5.5
      vertex 0 5 0
    endloop
  endfacet
  facet normal -0.0523369 0.998629 0
    outer loop
      vertex 0 5 0
      vertex -0.522642 4.97261 5.5
      vertex 0 5 5.5
    endloop
  endfacet
  facet normal -0.156434 0.987688 0
    outer loop
      vertex -1.03956 4.89074 0
      vertex -1.03956 4.89074 5.5
      vertex -0.522642 4.97261 0
    endloop
  endfacet
  facet normal -0.156434 0.987688 0
    outer loop
      vertex -0.522642 4.97261 0
      vertex -1.03956 4.89074 5.5
      vertex -0.522642 4.97261 5.5
    endloop
  endfacet
  facet normal -0.258818 0.965926 0
    outer loop
      vertex -1.54508 4.75528 0
      vertex -1.54508 4.75528 5.5
      vertex -1.03956 4.89074 0
    endloop
  endfacet
  facet normal -0.258818 0.965926 0
    outer loop
      vertex -1.03956 4.89074 0
      vertex -1.54508 4.75528 5.5
      vertex -1.03956 4.89074 5.5
    endloop
  endfacet
  facet normal -0.358369 0.93358 0
    outer loop
      vertex -2.03368 4.56773 0
      vertex -2.03368 4.56773 5.5
      vertex -1.54508 4.75528 0
    endloop
  endfacet
  facet normal -0.358369 0.93358 0
    outer loop
      vertex -1.54508 4.75528 0
      vertex -2.03368 4.56773 5.5
      vertex -1.54508 4.75528 5.5
    endloop
  endfacet
  facet normal -0.45399 0.891007 0
    outer loop
      vertex -2.5 4.33013 0
      vertex -2.5 4.33013 5.5
      vertex -2.03368 4.56773 0
    endloop
  endfacet
  facet normal -0.45399 0.891007 0
    outer loop
      vertex -2.03368 4.56773 0
      vertex -2.5 4.33013 5.5
      vertex -2.03368 4.56773 5.5
    endloop
  endfacet
  facet normal -0.544639 0.83867 0
    outer loop
      vertex -2.93893 4.04508 0
      vertex -2.93893 4.04508 5.5
      vertex -2.5 4.33013 0
    endloop
  endfacet
  facet normal -0.544639 0.83867 0
    outer loop
      vertex -2.5 4.33013 0
      vertex -2.93893 4.04508 5.5
      vertex -2.5 4.33013 5.5
    endloop
  endfacet
  facet normal -0.62932 0.777146 0
    outer loop
      vertex -3.34565 3.71572 0
      vertex -3.34565 3.71572 5.5
      vertex -2.93893 4.04508 0
    endloop
  endfacet
  facet normal -0.62932 0.777146 0
    outer loop
      vertex -2.93893 4.04508 0
      vertex -3.34565 3.71572 5.5
      vertex -2.93893 4.04508 5.5
    endloop
  endfacet
  facet normal -0.707107 0.707107 0
    outer loop
      vertex -3.71572 3.34565 0
      vertex -3.71572 3.34565 5.5
      vertex -3.34565 3.71572 0
    endloop
  endfacet
  facet normal -0.707107 0.707107 0
    outer loop
      vertex -3.34565 3.71572 0
      vertex -3.71572 3.34565 5.5
      vertex -3.34565 3.71572 5.5
    endloop
  endfacet
  facet normal -0.777146 0.62932 0
    outer loop
      vertex -4.04508 2.93893 0
      vertex -4.04508 2.93893 5.5
      vertex -3.71572 3.34565 0
    endloop
  endfacet
  facet normal -0.777146 0.62932 0
    outer loop
      vertex -3.71572 3.34565 0
      vertex -4.04508 2.93893 5.5
      vertex -3.71572 3.34565 5.5
    endloop
  endfacet
  facet normal -0.83867 0.544639 0
    outer loop
      vertex -4.33013 2.5 0
      vertex -4.33013 2.5 5.5
      vertex -4.04508 2.93893 0
    endloop
  endfacet
  facet normal -0.83867 0.544639 0
    outer loop
      vertex -4.04508 2.93893 0
      vertex -4.33013 2.5 5.5
      vertex -4.04508 2.93893 5.5
    endloop
  endfacet
  facet normal -0.891007 0.45399 0
    outer loop
      vertex -4.56773 2.03368 0
      vertex -4.56773 2.03368 5.5
      vertex -4.33013 2.5 0
    endloop
  endfacet
  facet normal -0.891007 0.45399 0
    outer loop
      vertex -4.33013 2.5 0
      vertex -4.56773 2.03368 5.5
      vertex -4.33013 2.5 5.5
    endloop
  endfacet
  facet normal -0.93358 0.358369 0
    outer loop
      vertex -4.75528 1.54508 0
      vertex -4.75528 1.54508 5.5
      vertex -4.56773 2.03368 0
    endloop
  endfacet
  facet normal -0.93358 0.358369 0
    outer loop
      vertex -4.56773 2.03368 0
      vertex -4.75528 1.54508 5.5
      vertex -4.56773 2.03368 5.5
    endloop
  endfacet
  facet normal -0.965926 0.258818 0
    outer loop
      vertex -4.89074 1.03956 0
      vertex -4.89074 1.03956 5.5
      vertex -4.75528 1.54508 0
    endloop
  endfacet
  facet normal -0.965926 0.258818 0
    outer loop
      vertex -4.75528 1.54508 0
      vertex -4.89074 1.03956 5.5
      vertex -4.75528 1.54508 5.5
    endloop
  endfacet
  facet normal -0.987688 0.156434 0
    outer loop
      vertex -4.97261 0.522642 0
      vertex -4.97261 0.522642 5.5
      vertex -4.89074 1.03956 0
    endloop
  endfacet
  facet normal -0.987688 0.156434 0
    outer loop
      vertex -4.89074 1.03956 0
      vertex -4.97261 0.522642 5.5
      vertex -4.89074 1.03956 5.5
    endloop
  endfacet
  facet normal 0.994522 0.104529 0
    outer loop
      vertex -2.25 0 2
      vertex -2.20083 -0.467801 2
      vertex -2.20083 -0.467801 0
    endloop
  endfacet
  facet normal 0.994522 0.104529 0
    outer loop
      vertex -2.25 0 0
      vertex -2.25 0 2
      vertex -2.20083 -0.467801 0
    endloop
  endfacet
  facet normal 0.994522 -0.104529 0
    outer loop
      vertex -2.20083 0.467801 0
      vertex -2.20083 0.467801 2
      vertex -2.25 0 2
    endloop
  endfacet
  facet normal 0.994522 -0.104529 0
    outer loop
      vertex -2.25 0 0
      vertex -2.20083 0.467801 0
      vertex -2.25 0 2
    endloop
  endfacet
  facet normal 0.951056 -0.309017 0
    outer loop
      vertex -2.05548 0.915157 0
      vertex -2.05548 0.915157 2
      vertex -2.20083 0.467801 2
    endloop
  endfacet
  facet normal 0.951056 -0.309017 0
    outer loop
      vertex -2.20083 0.467801 0
      vertex -2.05548 0.915157 0
      vertex -2.20083 0.467801 2
    endloop
  endfacet
  facet normal 0.866026 -0.499999 0
    outer loop
      vertex -1.82029 1.32252 0
      vertex -1.82029 1.32252 2
      vertex -2.05548 0.915157 2
    endloop
  endfacet
  facet normal 0.866026 -0.499999 0
    outer loop
      vertex -2.05548 0.915157 0
      vertex -1.82029 1.32252 0
      vertex -2.05548 0.915157 2
    endloop
  endfacet
  facet normal 0.743145 -0.66913 0
    outer loop
      vertex -1.50554 1.67208 0
      vertex -1.50554 1.67208 2
      vertex -1.82029 1.32252 2
    endloop
  endfacet
  facet normal 0.743145 -0.66913 0
    outer loop
      vertex -1.82029 1.32252 0
      vertex -1.50554 1.67208 0
      vertex -1.82029 1.32252 2
    endloop
  endfacet
  facet normal 0.587785 -0.809017 0
    outer loop
      vertex -1.125 1.94856 0
      vertex -1.125 1.94856 2
      vertex -1.50554 1.67208 2
    endloop
  endfacet
  facet normal 0.587785 -0.809017 0
    outer loop
      vertex -1.50554 1.67208 0
      vertex -1.125 1.94856 0
      vertex -1.50554 1.67208 2
    endloop
  endfacet
  facet normal 0.406736 -0.913546 0
    outer loop
      vertex -0.695288 2.13988 0
      vertex -0.695288 2.13988 2
      vertex -1.125 1.94856 2
    endloop
  endfacet
  facet normal 0.406736 -0.913546 0
    outer loop
      vertex -1.125 1.94856 0
      vertex -0.695288 2.13988 0
      vertex -1.125 1.94856 2
    endloop
  endfacet
  facet normal 0.207912 -0.978148 0
    outer loop
      vertex -0.235189 2.23767 0
      vertex -0.235189 2.23767 2
      vertex -0.695288 2.13988 2
    endloop
  endfacet
  facet normal 0.207912 -0.978148 0
    outer loop
      vertex -0.695288 2.13988 0
      vertex -0.235189 2.23767 0
      vertex -0.695288 2.13988 2
    endloop
  endfacet
  facet normal 0 -1 0
    outer loop
      vertex 0.235189 2.23767 0
      vertex 0.235189 2.23767 2
      vertex -0.235189 2.23767 2
    endloop
  endfacet
  facet normal 0 -1 0
    outer loop
      vertex -0.235189 2.23767 0
      vertex 0.235189 2.23767 0
      vertex -0.235189 2.23767 2
    endloop
  endfacet
  facet normal -0.207912 -0.978148 0
    outer loop
      vertex 0.695288 2.13988 0
      vertex 0.695288 2.13988 2
      vertex 0.235189 2.23767 2
    endloop
  endfacet
  facet normal -0.207912 -0.978148 0
    outer loop
      vertex 0.235189 2.23767 0
      vertex 0.695288 2.13988 0
      vertex 0.235189 2.23767 2
    endloop
  endfacet
  facet normal -0.406736 -0.913546 0
    outer loop
      vertex 1.125 1.94856 0
      vertex 1.125 1.94856 2
      vertex 0.695288 2.13988 2
    endloop
  endfacet
  facet normal -0.406736 -0.913546 0
    outer loop
      vertex 0.695288 2.13988 0
      vertex 1.125 1.94856 0
      vertex 0.695288 2.13988 2
    endloop
  endfacet
  facet normal -0.587785 -0.809017 0
    outer loop
      vertex 1.50554 1.67208 0
      vertex 1.50554 1.67208 2
      vertex 1.125 1.94856 2
    endloop
  endfacet
  facet normal -0.587785 -0.809017 0
    outer loop
      vertex 1.125 1.94856 0
      vertex 1.50554 1.67208 0
      vertex 1.125 1.94856 2
    endloop
  endfacet
  facet normal -0.743145 -0.66913 0
    outer loop
      vertex 1.82029 1.32252 2
      vertex 1.50554 1.67208 2
      vertex 1.82029 1.32252 0
    endloop
  endfacet
  facet normal -0.743145 -0.66913 0
    outer loop
      vertex 1.82029 1.32252 0
      vertex 1.50554 1.67208 2
      vertex 1.50554 1.67208 0
    endloop
  endfacet
  facet normal -0.866026 -0.499999 0
    outer loop
      vertex 2.05548 0.915157 2
      vertex 1.82029 1.32252 2
      vertex 2.05548 0.915157 0
    endloop
  endfacet
  facet normal -0.866026 -0.499999 0
    outer loop
      vertex 2.05548 0.915157 0
      vertex 1.82029 1.32252 2
      vertex 1.82029 1.32252 0
    endloop
  endfacet
  facet normal -0.951056 -0.309017 0
    outer loop
      vertex 2.20083 0.467801 2
      vertex 2.05548 0.915157 2
      vertex 2.20083 0.467801 0
    endloop
  endfacet
  facet normal -0.951056 -0.309017 0
    outer loop
      vertex 2.20083 0.467801 0
      vertex 2.05548 0.915157 2
      vertex 2.05548 0.915157 0
    endloop
  endfacet
  facet normal -0.994522 -0.104529 0
    outer loop
      vertex 2.25 0 2
      vertex 2.20083 0.467801 2
      vertex 2.25 0 0
    endloop
  endfacet
  facet normal -0.994522 -0.104529 0
    outer loop
      vertex 2.25 0 0
      vertex 2.20083 0.467801 2
      vertex 2.20083 0.467801 0
    endloop
  endfacet
  facet normal -0.994522 0.104529 0
    outer loop
      vertex 2.25 0 2
      vertex 2.25 0 0
      vertex 2.20083 -0.467801 2
    endloop
  endfacet
  facet normal -0.994522 0.104529 0
    outer loop
      vertex 2.20083 -0.467801 2
      vertex 2.25 0 0
      vertex 2.20083 -0.467801 0
    endloop
  endfacet
  facet normal -0.951056 0.309017 0
    outer loop
      vertex 2.20083 -0.467801 2
      vertex 2.20083 -0.467801 0
      vertex 2.05548 -0.915157 2
    endloop
  endfacet
  facet normal -0.951056 0.309017 0
    outer loop
      vertex 2.05548 -0.915157 2
      vertex 2.20083 -0.467801 0
      vertex 2.05548 -0.915157 0
    endloop
  endfacet
  facet normal -0.866026 0.499999 0
    outer loop
      vertex 2.05548 -0.915157 2
      vertex 2.05548 -0.915157 0
      vertex 1.82029 -1.32252 2
    endloop
  endfacet
  facet normal -0.866026 0.499999 0
    outer loop
      vertex 1.82029 -1.32252 2
      vertex 2.05548 -0.915157 0
      vertex 1.82029 -1.32252 0
    endloop
  endfacet
  facet normal -0.743145 0.66913 0
    outer loop
      vertex 1.82029 -1.32252 2
      vertex 1.82029 -1.32252 0
      vertex 1.50554 -1.67208 2
    endloop
  endfacet
  facet normal -0.743145 0.66913 0
    outer loop
      vertex 1.50554 -1.67208 2
      vertex 1.82029 -1.32252 0
      vertex 1.50554 -1.67208 0
    endloop
  endfacet
  facet normal -0.587785 0.809017 0
    outer loop
      vertex 1.50554 -1.67208 2
      vertex 1.50554 -1.67208 0
      vertex 1.125 -1.94856 2
    endloop
  endfacet
  facet normal -0.587785 0.809017 0
    outer loop
      vertex 1.125 -1.94856 2
      vertex 1.50554 -1.67208 0
      vertex 1.125 -1.94856 0
    endloop
  endfacet
  facet normal -0.406736 0.913546 0
    outer loop
      vertex 1.125 -1.94856 2
      vertex 1.125 -1.94856 0
      vertex 0.695288 -2.13988 2
    endloop
  endfacet
  facet normal -0.406736 0.913546 0
    outer loop
      vertex 0.695288 -2.13988 2
      vertex 1.125 -1.94856 0
      vertex 0.695288 -2.13988 0
    endloop
  endfacet
  facet normal -0.207912 0.978148 0
    outer loop
      vertex 0.695288 -2.13988 2
      vertex 0.695288 -2.13988 0
      vertex 0.235189 -2.23767 2
    endloop
  endfacet
  facet normal -0.207912 0.978148 0
    outer loop
      vertex 0.235189 -2.23767 2
      vertex 0.695288 -2.13988 0
      vertex 0.235189 -2.23767 0
    endloop
  endfacet
  facet normal 0 1 0
    outer loop
      vertex 0.235189 -2.23767 2
      vertex 0.235189 -2.23767 0
      vertex -0.235189 -2.23767 2
    endloop
  endfacet
  facet normal 0 1 0
    outer loop
      vertex -0.235189 -2.23767 2
      vertex 0.235189 -2.23767 0
      vertex -0.235189 -2.23767 0
    endloop
  endfacet
  facet normal 0.207912 0.978148 0
    outer loop
      vertex -0.235189 -2.23767 2
      vertex -0.235189 -2.23767 0
      vertex -0.695288 -2.13988 2
    endloop
  endfacet
  facet normal 0.207912 0.978148 0
    outer loop
      vertex -0.695288 -2.13988 2
      vertex -0.235189 -2.23767 0
      vertex -0.695288 -2.13988 0
    endloop
  endfacet
  facet normal 0.406736 0.913546 0
    outer loop
      vertex -0.695288 -2.13988 2
      vertex -0.695288 -2.13988 0
      vertex -1.125 -1.94856 2
    endloop
  endfacet
  facet normal 0.406736 0.913546 0
    outer loop
      vertex -1.125 -1.94856 2
      vertex -0.695288 -2.13988 0
      vertex -1.125 -1.94856 0
    endloop
  endfacet
  facet normal 0.587785 0.809017 0
    outer loop
      vertex -1.125 -1.94856 2
      vertex -1.125 -1.94856 0
      vertex -1.50554 -1.67208 2
    endloop
  endfacet
  facet normal 0.587785 0.809017 0
    outer loop
      vertex -1.50554 -1.67208 2
      vertex -1.125 -1.94856 0
      vertex -1.50554 -1.67208 0
    endloop
  endfacet
  facet normal 0.743145 0.66913 0
    outer loop
      vertex -1.82029 -1.32252 2
      vertex -1.50554 -1.67208 2
      vertex -1.50554 -1.67208 0
    endloop
  endfacet
  facet normal 0.743145 0.66913 0
    outer loop
      vertex -1.82029 -1.32252 0
      vertex -1.82029 -1.32252 2
      vertex -1.50554 -1.67208 0
    endloop
  endfacet
  facet normal 0.866026 0.499999 0
    outer loop
      vertex -2.05548 -0.915157 2
      vertex -1.82029 -1.32252 2
      vertex -1.82029 -1.32252 0
    endloop
  endfacet
  facet normal 0.866026 0.499999 0
    outer loop
      vertex -2.05548 -0.915157 0
      vertex -2.05548 -0.915157 2
      vertex -1.82029 -1.32252 0
    endloop
  endfacet
  facet normal 0.951056 0.309017 0
    outer loop
      vertex -2.20083 -0.467801 2
      vertex -2.05548 -0.915157 2
      vertex -2.05548 -0.915157 0
    endloop
  endfacet
  facet normal 0.951056 0.309017 0
    outer loop
      vertex -2.20083 -0.467801 0
      vertex -2.20083 -0.467801 2
      vertex -2.05548 -0.915157 0
    endloop
  endfacet
  facet normal 0 0 1
    outer loop
      vertex -4.97261 0.522642 5.5
      vertex -5 0 5.5
      vertex -4.97261 -0.522642 5.5
    endloop
  endfacet
  facet normal 0 0 1
    outer loop
      vertex -4.75528 -1.54508 5.5
      vertex -4.97261 0.522642 5.5
      vertex -4.89074 -1.03956 5.5
    endloop
  endfacet
  facet normal 0 0 1
    outer loop
      vertex -4.89074 -1.03956 5.5
      vertex -4.97261 0.522642 5.5
      vertex -4.97261 -0.522642 5.5
    endloop
  endfacet
  facet normal 0 0 1
    outer loop
      vertex -4.56773 -2.03368 5.5
      vertex -4.97261 0.522642 5.5
      vertex -4.75528 -1.54508 5.5
    endloop
  endfacet
  facet normal 0 0 1
    outer loop
      vertex -4.33013 -2.5 5.5
      vertex -4.97261 0.522642 5.5
      vertex -4.56773 -2.03368 5.5
    endloop
  endfacet
  facet normal 0 0 1
    outer loop
      vertex -4.04508 -2.93893 5.5
      vertex -4.97261 0.522642 5.5
      vertex -4.33013 -2.5 5.5
    endloop
  endfacet
  facet normal 0 0 1
    outer loop
      vertex -3.71572 -3.34565 5.5
      vertex -4.97261 0.522642 5.5
      vertex -4.04508 -2.93893 5.5
    endloop
  endfacet
  facet normal 0 0 1
    outer loop
      vertex -3.34565 -3.71572 5.5
      vertex -4.97261 0.522642 5.5
      vertex -3.71572 -3.34565 5.5
    endloop
  endfacet
  facet normal 0 0 1
    outer loop
      vertex -2.93893 -4.04508 5.5
      vertex -4.97261 0.522642 5.5
      vertex -3.34565 -3.71572 5.5
    endloop
  endfacet
  facet normal 0 0 1
    outer loop
      vertex -2.5 -4.33013 5.5
      vertex -4.97261 0.522642 5.5
      vertex -2.93893 -4.04508 5.5
    endloop
  endfacet
  facet normal 0 0 1
    outer loop
      vertex -2.03368 -4.56773 5.5
      vertex -4.97261 0.522642 5.5
      vertex -2.5 -4.33013 5.5
    endloop
  endfacet
  facet normal 0 0 1
    outer loop
      vertex -1.54508 -4.75528 5.5
      vertex -4.97261 0.522642 5.5
      vertex -2.03368 -4.56773 5.5
    endloop
  endfacet
  facet normal 0 0 1
    outer loop
      vertex -1.03956 -4.89074 5.5
      vertex -4.97261 0.522642 5.5
      vertex -1.54508 -4.75528 5.5
    endloop
  endfacet
  facet normal 0 0 1
    outer loop
      vertex -0.522642 -4.97261 5.5
      vertex -4.97261 0.522642 5.5
      vertex -1.03956 -4.89074 5.5
    endloop
  endfacet
  facet normal 0 0 1
    outer loop
      vertex 0 -5 5.5
      vertex -4.97261 0.522642 5.5
      vertex -0.522642 -4.97261 5.5
    endloop
  endfacet
  facet normal 0 0 1
    outer loop
      vertex 0.522642 -4.97261 5.5
      vertex -4.97261 0.522642 5.5
      vertex 0 -5 5.5
    endloop
  endfacet
  facet normal 0 0 1
    outer loop
      vertex 1.03956 -4.89074 5.5
      vertex -4.97261 0.522642 5.5
      vertex 0.522642 -4.97261 5.5
    endloop
  endfacet
  facet normal 0 0 1
    outer loop
      vertex 1.54508 -4.75528 5.5
      vertex -4.97261 0.522642 5.5
      vertex 1.03956 -4.89074 5.5
    endloop
  endfacet
  facet normal 0 0 1
    outer loop
      vertex 2.03368 -4.56773 5.5
      vertex -4.97261 0.522642 5.5
      vertex 1.54508 -4.75528 5.5
    endloop
  endfacet
  facet normal 0 0 1
    outer loop
      vertex -1.46946 -2.02254 5.5
      vertex -4.97261 0.522642 5.5
      vertex 2.03368 -4.56773 5.5
    endloop
  endfacet
  facet normal 0 0 1
    outer loop
      vertex -1.46946 -2.02254 5.5
      vertex -1.67283 -1.85786 5.5
      vertex -4.97261 0.522642 5.5
    endloop
  endfacet
  facet normal 0 0 1
    outer loop
      vertex -0.261321 -2.4863 5.5
      vertex -0.519779 -2.44537 5.5
      vertex 2.5 -4.33013 5.5
    endloop
  endfacet
  facet normal 0 0 1
    outer loop
      vertex 0.261321 -2.4863 5.5
      vertex 0 -2.5 5.5
      vertex 2.93893 -4.04508 5.5
    endloop
  endfacet
  facet normal 0 0 1
    outer loop
      vertex 0.772542 -2.37764 5.5
      vertex 0.519779 -2.44537 5.5
      vertex 3.34565 -3.71572 5.5
    endloop
  endfacet
  facet normal 0 0 1
    outer loop
      vertex 1.85786 -1.67283 5.5
      vertex 1.67283 -1.85786 5.5
      vertex 4.33013 -2.5 5.5
    endloop
  endfacet
  facet normal 0 0 1
    outer loop
      vertex 2.28386 -1.01684 5.5
      vertex 2.16506 -1.25 5.5
      vertex 4.75528 -1.54508 5.5
    endloop
  endfacet
  facet normal 0 0 1
    outer loop
      vertex -2.44537 0.519779 5.5
      vertex -2.37764 0.772542 5.5
      vertex -4.97261 0.522642 5.5
    endloop
  endfacet
  facet normal 0 0 1
    outer loop
      vertex 2.28386 1.01684 5.5
      vertex 2.37764 0.772542 5.5
      vertex 4.89074 1.03956 5.5
    endloop
  endfacet
  facet normal 0 0 1
    outer loop
      vertex 0 2.5 5.5
      vertex 0.261321 2.4863 5.5
      vertex 3.34565 3.71572 5.5
    endloop
  endfacet
  facet normal 0 0 1
    outer loop
      vertex 1.85786 1.67283 5.5
      vertex 2.02254 1.46946 5.5
      vertex 4.56773 2.03368 5.5
    endloop
  endfacet
  facet normal 0 0 1
    outer loop
      vertex -0.772542 2.37764 5.5
      vertex -0.519779 2.44537 5.5
      vertex 2.93893 4.04508 5.5
    endloop
  endfacet
  facet normal 0 0 1
    outer loop
      vertex 2.03368 4.56773 5.5
      vertex -4.97261 0.522642 5.5
      vertex 2.5 4.33013 5.5
    endloop
  endfacet
  facet normal 0 0 1
    outer loop
      vertex 1.54508 4.75528 5.5
      vertex -4.97261 0.522642 5.5
      vertex 2.03368 4.56773 5.5
    endloop
  endfacet
  facet normal 0 0 1
    outer loop
      vertex 1.03956 4.89074 5.5
      vertex -4.97261 0.522642 5.5
      vertex 1.54508 4.75528 5.5
    endloop
  endfacet
  facet normal 0 0 1
    outer loop
      vertex 0.522642 4.97261 5.5
      vertex -4.97261 0.522642 5.5
      vertex 1.03956 4.89074 5.5
    endloop
  endfacet
  facet normal 0 0 1
    outer loop
      vertex 0 5 5.5
      vertex -4.97261 0.522642 5.5
      vertex 0.522642 4.97261 5.5
    endloop
  endfacet
  facet normal 0 0 1
    outer loop
      vertex -0.522642 4.97261 5.5
      vertex -4.97261 0.522642 5.5
      vertex 0 5 5.5
    endloop
  endfacet
  facet normal 0 0 1
    outer loop
      vertex -1.03956 4.89074 5.5
      vertex -4.97261 0.522642 5.5
      vertex -0.522642 4.97261 5.5
    endloop
  endfacet
  facet normal 0 0 1
    outer loop
      vertex -1.54508 4.75528 5.5
      vertex -4.97261 0.522642 5.5
      vertex -1.03956 4.89074 5.5
    endloop
  endfacet
  facet normal 0 0 1
    outer loop
      vertex -2.03368 4.56773 5.5
      vertex -4.97261 0.522642 5.5
      vertex -1.54508 4.75528 5.5
    endloop
  endfacet
  facet normal 0 0 1
    outer loop
      vertex -2.5 4.33013 5.5
      vertex -4.97261 0.522642 5.5
      vertex -2.03368 4.56773 5.5
    endloop
  endfacet
  facet normal 0 0 1
    outer loop
      vertex -2.93893 4.04508 5.5
      vertex -4.97261 0.522642 5.5
      vertex -2.5 4.33013 5.5
    endloop
  endfacet
  facet normal 0 0 1
    outer loop
      vertex -3.34565 3.71572 5.5
      vertex -4.97261 0.522642 5.5
      vertex -2.93893 4.04508 5.5
    endloop
  endfacet
  facet normal 0 0 1
    outer loop
      vertex -3.71572 3.34565 5.5
      vertex -4.97261 0.522642 5.5
      vertex -3.34565 3.71572 5.5
    endloop
  endfacet
  facet normal 0 0 1
    outer loop
      vertex -4.04508 2.93893 5.5
      vertex -4.97261 0.522642 5.5
      vertex -3.71572 3.34565 5.5
    endloop
  endfacet
  facet normal 0 0 1
    outer loop
      vertex -4.33013 2.5 5.5
      vertex -4.97261 0.522642 5.5
      vertex -4.04508 2.93893 5.5
    endloop
  endfacet
  facet normal 0 0 1
    outer loop
      vertex -4.56773 2.03368 5.5
      vertex -4.97261 0.522642 5.5
      vertex -4.33013 2.5 5.5
    endloop
  endfacet
  facet normal 0 0 1
    outer loop
      vertex -4.75528 1.54508 5.5
      vertex -4.97261 0.522642 5.5
      vertex -4.56773 2.03368 5.5
    endloop
  endfacet
  facet normal 0 0 1
    outer loop
      vertex -4.89074 1.03956 5.5
      vertex -4.97261 0.522642 5.5
      vertex -4.75528 1.54508 5.5
    endloop
  endfacet
  facet normal 0 0 1
    outer loop
      vertex 1.67283 -1.85786 5.5
      vertex 1.46946 -2.02254 5.5
      vertex 4.04508 -2.93893 5.5
    endloop
  endfacet
  facet normal 0 0 1
    outer loop
      vertex 2.16506 -1.25 5.5
      vertex 2.02254 -1.46946 5.5
      vertex 4.56773 -2.03368 5.5
    endloop
  endfacet
  facet normal 0 0 1
    outer loop
      vertex 2.4863 -0.261321 5.5
      vertex 2.44537 -0.519779 5.5
      vertex 4.97261 -0.522642 5.5
    endloop
  endfacet
  facet normal 0 0 1
    outer loop
      vertex -2.37764 0.772542 5.5
      vertex -2.28386 1.01684 5.5
      vertex -4.97261 0.522642 5.5
    endloop
  endfacet
  facet normal 0 0 1
    outer loop
      vertex -2.16506 1.25 5.5
      vertex -2.02254 1.46946 5.5
      vertex -4.97261 0.522642 5.5
    endloop
  endfacet
  facet normal 0 0 1
    outer loop
      vertex 2.02254 1.46946 5.5
      vertex 2.16506 1.25 5.5
      vertex 4.75528 1.54508 5.5
    endloop
  endfacet
  facet normal 0 0 1
    outer loop
      vertex -2.02254 1.46946 5.5
      vertex -1.85786 1.67283 5.5
      vertex -4.97261 0.522642 5.5
    endloop
  endfacet
  facet normal 0 0 1
    outer loop
      vertex 1.46946 2.02254 5.5
      vertex 1.67283 1.85786 5.5
      vertex 4.33013 2.5 5.5
    endloop
  endfacet
  facet normal 0 0 1
    outer loop
      vertex -1.85786 1.67283 5.5
      vertex -1.67283 1.85786 5.5
      vertex -4.97261 0.522642 5.5
    endloop
  endfacet
  facet normal 0 0 1
    outer loop
      vertex 1.01684 2.28386 5.5
      vertex 1.25 2.16506 5.5
      vertex 4.04508 2.93893 5.5
    endloop
  endfacet
  facet normal 0 0 1
    outer loop
      vertex -1.25 2.16506 5.5
      vertex -1.01684 2.28386 5.5
      vertex -4.97261 0.522642 5.5
    endloop
  endfacet
  facet normal 0 0 1
    outer loop
      vertex 0.519779 2.44537 5.5
      vertex 0.772542 2.37764 5.5
      vertex 3.71572 3.34565 5.5
    endloop
  endfacet
  facet normal 0 0 1
    outer loop
      vertex -1.46946 2.02254 5.5
      vertex -4.97261 0.522642 5.5
      vertex -1.67283 1.85786 5.5
    endloop
  endfacet
  facet normal 0 0 1
    outer loop
      vertex -1.25 2.16506 5.5
      vertex -4.97261 0.522642 5.5
      vertex -1.46946 2.02254 5.5
    endloop
  endfacet
  facet normal 0 0 1
    outer loop
      vertex -1.01684 2.28386 5.5
      vertex -0.772542 2.37764 5.5
      vertex 2.93893 4.04508 5.5
    endloop
  endfacet
  facet normal 0 0 1
    outer loop
      vertex 2.5 4.33013 5.5
      vertex -1.01684 2.28386 5.5
      vertex 2.93893 4.04508 5.5
    endloop
  endfacet
  facet normal 0 0 1
    outer loop
      vertex 2.5 4.33013 5.5
      vertex -4.97261 0.522642 5.5
      vertex -1.01684 2.28386 5.5
    endloop
  endfacet
  facet normal 0 0 1
    outer loop
      vertex -0.519779 2.44537 5.5
      vertex -0.261321 2.4863 5.5
      vertex 2.93893 4.04508 5.5
    endloop
  endfacet
  facet normal 0 0 1
    outer loop
      vertex 2.93893 4.04508 5.5
      vertex -0.261321 2.4863 5.5
      vertex 3.34565 3.71572 5.5
    endloop
  endfacet
  facet normal 0 0 1
    outer loop
      vertex -0.261321 2.4863 5.5
      vertex 0 2.5 5.5
      vertex 3.34565 3.71572 5.5
    endloop
  endfacet
  facet normal 0 0 1
    outer loop
      vertex 3.34565 3.71572 5.5
      vertex 0.261321 2.4863 5.5
      vertex 3.71572 3.34565 5.5
    endloop
  endfacet
  facet normal 0 0 1
    outer loop
      vertex 0.261321 2.4863 5.5
      vertex 0.519779 2.44537 5.5
      vertex 3.71572 3.34565 5.5
    endloop
  endfacet
  facet normal 0 0 1
    outer loop
      vertex 3.71572 3.34565 5.5
      vertex 0.772542 2.37764 5.5
      vertex 4.04508 2.93893 5.5
    endloop
  endfacet
  facet normal 0 0 1
    outer loop
      vertex 0.772542 2.37764 5.5
      vertex 1.01684 2.28386 5.5
      vertex 4.04508 2.93893 5.5
    endloop
  endfacet
  facet normal 0 0 1
    outer loop
      vertex 4.04508 2.93893 5.5
      vertex 1.25 2.16506 5.5
      vertex 4.33013 2.5 5.5
    endloop
  endfacet
  facet normal 0 0 1
    outer loop
      vertex 1.25 2.16506 5.5
      vertex 1.46946 2.02254 5.5
      vertex 4.33013 2.5 5.5
    endloop
  endfacet
  facet normal 0 0 1
    outer loop
      vertex 4.33013 2.5 5.5
      vertex 1.67283 1.85786 5.5
      vertex 4.56773 2.03368 5.5
    endloop
  endfacet
  facet normal 0 0 1
    outer loop
      vertex 1.67283 1.85786 5.5
      vertex 1.85786 1.67283 5.5
      vertex 4.56773 2.03368 5.5
    endloop
  endfacet
  facet normal 0 0 1
    outer loop
      vertex 4.56773 2.03368 5.5
      vertex 2.02254 1.46946 5.5
      vertex 4.75528 1.54508 5.5
    endloop
  endfacet
  facet normal 0 0 1
    outer loop
      vertex -2.28386 1.01684 5.5
      vertex -2.16506 1.25 5.5
      vertex -4.97261 0.522642 5.5
    endloop
  endfacet
  facet normal 0 0 1
    outer loop
      vertex 4.75528 1.54508 5.5
      vertex 2.16506 1.25 5.5
      vertex 4.89074 1.03956 5.5
    endloop
  endfacet
  facet normal 0 0 1
    outer loop
      vertex 2.16506 1.25 5.5
      vertex 2.28386 1.01684 5.5
      vertex 4.89074 1.03956 5.5
    endloop
  endfacet
  facet normal 0 0 1
    outer loop
      vertex 4.89074 1.03956 5.5
      vertex 2.37764 0.772542 5.5
      vertex 4.97261 0.522642 5.5
    endloop
  endfacet
  facet normal 0 0 1
    outer loop
      vertex 2.37764 0.772542 5.5
      vertex 2.44537 0.519779 5.5
      vertex 4.97261 0.522642 5.5
    endloop
  endfacet
  facet normal 0 0 1
    outer loop
      vertex 4.97261 0.522642 5.5
      vertex 2.44537 0.519779 5.5
      vertex 5 0 5.5
    endloop
  endfacet
  facet normal 0 0 1
    outer loop
      vertex 2.44537 0.519779 5.5
      vertex 2.4863 0.261321 5.5
      vertex 5 0 5.5
    endloop
  endfacet
  facet normal 0 0 1
    outer loop
      vertex 5 0 5.5
      vertex 2.5 0 5.5
      vertex 4.97261 -0.522642 5.5
    endloop
  endfacet
  facet normal 0 0 1
    outer loop
      vertex 2.44537 -0.519779 5.5
      vertex 2.37764 -0.772542 5.5
      vertex 4.89074 -1.03956 5.5
    endloop
  endfacet
  facet normal 0 0 1
    outer loop
      vertex 2.5 0 5.5
      vertex 2.4863 -0.261321 5.5
      vertex 4.97261 -0.522642 5.5
    endloop
  endfacet
  facet normal 0 0 1
    outer loop
      vertex 2.4863 0.261321 5.5
      vertex 2.5 0 5.5
      vertex 5 0 5.5
    endloop
  endfacet
  facet normal 0 0 1
    outer loop
      vertex 4.97261 -0.522642 5.5
      vertex 2.44537 -0.519779 5.5
      vertex 4.89074 -1.03956 5.5
    endloop
  endfacet
  facet normal 0 0 1
    outer loop
      vertex 4.89074 -1.03956 5.5
      vertex 2.37764 -0.772542 5.5
      vertex 4.75528 -1.54508 5.5
    endloop
  endfacet
  facet normal 0 0 1
    outer loop
      vertex 2.37764 -0.772542 5.5
      vertex 2.28386 -1.01684 5.5
      vertex 4.75528 -1.54508 5.5
    endloop
  endfacet
  facet normal 0 0 1
    outer loop
      vertex 4.75528 -1.54508 5.5
      vertex 2.16506 -1.25 5.5
      vertex 4.56773 -2.03368 5.5
    endloop
  endfacet
  facet normal 0 0 1
    outer loop
      vertex -2.5 0 5.5
      vertex -2.4863 0.261321 5.5
      vertex -4.97261 0.522642 5.5
    endloop
  endfacet
  facet normal 0 0 1
    outer loop
      vertex 4.56773 -2.03368 5.5
      vertex 2.02254 -1.46946 5.5
      vertex 4.33013 -2.5 5.5
    endloop
  endfacet
  facet normal 0 0 1
    outer loop
      vertex 2.02254 -1.46946 5.5
      vertex 1.85786 -1.67283 5.5
      vertex 4.33013 -2.5 5.5
    endloop
  endfacet
  facet normal 0 0 1
    outer loop
      vertex 4.33013 -2.5 5.5
      vertex 1.67283 -1.85786 5.5
      vertex 4.04508 -2.93893 5.5
    endloop
  endfacet
  facet normal 0 0 1
    outer loop
      vertex -2.02254 -1.46946 5.5
      vertex -2.16506 -1.25 5.5
      vertex -4.97261 0.522642 5.5
    endloop
  endfacet
  facet normal 0 0 1
    outer loop
      vertex 4.04508 -2.93893 5.5
      vertex 1.46946 -2.02254 5.5
      vertex 3.71572 -3.34565 5.5
    endloop
  endfacet
  facet normal 0 0 1
    outer loop
      vertex -2.4863 -0.261321 5.5
      vertex -2.5 0 5.5
      vertex -4.97261 0.522642 5.5
    endloop
  endfacet
  facet normal 0 0 1
    outer loop
      vertex 1.46946 -2.02254 5.5
      vertex 1.25 -2.16506 5.5
      vertex 3.71572 -3.34565 5.5
    endloop
  endfacet
  facet normal 0 0 1
    outer loop
      vertex 3.71572 -3.34565 5.5
      vertex 1.01684 -2.28386 5.5
      vertex 3.34565 -3.71572 5.5
    endloop
  endfacet
  facet normal 0 0 1
    outer loop
      vertex 1.01684 -2.28386 5.5
      vertex 0.772542 -2.37764 5.5
      vertex 3.34565 -3.71572 5.5
    endloop
  endfacet
  facet normal 0 0 1
    outer loop
      vertex 3.34565 -3.71572 5.5
      vertex 0.519779 -2.44537 5.5
      vertex 2.93893 -4.04508 5.5
    endloop
  endfacet
  facet normal 0 0 1
    outer loop
      vertex 0.519779 -2.44537 5.5
      vertex 0.261321 -2.4863 5.5
      vertex 2.93893 -4.04508 5.5
    endloop
  endfacet
  facet normal 0 0 1
    outer loop
      vertex 2.93893 -4.04508 5.5
      vertex 0 -2.5 5.5
      vertex 2.5 -4.33013 5.5
    endloop
  endfacet
  facet normal 0 0 1
    outer loop
      vertex 0 -2.5 5.5
      vertex -0.261321 -2.4863 5.5
      vertex 2.5 -4.33013 5.5
    endloop
  endfacet
  facet normal 0 0 1
    outer loop
      vertex 2.5 -4.33013 5.5
      vertex -0.519779 -2.44537 5.5
      vertex 2.03368 -4.56773 5.5
    endloop
  endfacet
  facet normal 0 0 1
    outer loop
      vertex -0.519779 -2.44537 5.5
      vertex -0.772542 -2.37764 5.5
      vertex 2.03368 -4.56773 5.5
    endloop
  endfacet
  facet normal 0 0 1
    outer loop
      vertex -0.772542 -2.37764 5.5
      vertex -1.01684 -2.28386 5.5
      vertex 2.03368 -4.56773 5.5
    endloop
  endfacet
  facet normal 0 0 1
    outer loop
      vertex -1.01684 -2.28386 5.5
      vertex -1.25 -2.16506 5.5
      vertex 2.03368 -4.56773 5.5
    endloop
  endfacet
  facet normal 0 0 1
    outer loop
      vertex -1.25 -2.16506 5.5
      vertex -1.46946 -2.02254 5.5
      vertex 2.03368 -4.56773 5.5
    endloop
  endfacet
  facet normal 0 0 1
    outer loop
      vertex -1.67283 -1.85786 5.5
      vertex -1.85786 -1.67283 5.5
      vertex -4.97261 0.522642 5.5
    endloop
  endfacet
  facet normal 0 0 1
    outer loop
      vertex -1.85786 -1.67283 5.5
      vertex -2.02254 -1.46946 5.5
      vertex -4.97261 0.522642 5.5
    endloop
  endfacet
  facet normal 0 0 1
    outer loop
      vertex -2.16506 -1.25 5.5
      vertex -2.28386 -1.01684 5.5
      vertex -4.97261 0.522642 5.5
    endloop
  endfacet
  facet normal 0 0 1
    outer loop
      vertex -2.28386 -1.01684 5.5
      vertex -2.37764 -0.772542 5.5
      vertex -4.97261 0.522642 5.5
    endloop
  endfacet
  facet normal 0 0 1
    outer loop
      vertex -2.37764 -0.772542 5.5
      vertex -2.44537 -0.519779 5.5
      vertex -4.97261 0.522642 5.5
    endloop
  endfacet
  facet normal 0 0 1
    outer loop
      vertex -2.4863 0.261321 5.5
      vertex -2.44537 0.519779 5.5
      vertex -4.97261 0.522642 5.5
    endloop
  endfacet
  facet normal 0 0 1
    outer loop
      vertex 1.25 -2.16506 5.5
      vertex 1.01684 -2.28386 5.5
      vertex 3.71572 -3.34565 5.5
    endloop
  endfacet
  facet normal 0 0 1
    outer loop
      vertex -2.44537 -0.519779 5.5
      vertex -2.4863 -0.261321 5.5
      vertex -4.97261 0.522642 5.5
    endloop
  endfacet
  facet normal 0 0 -1
    outer loop
      vertex -2.05548 0.915157 2
      vertex -1.82029 1.32252 2
      vertex -2.20083 0.467801 2
    endloop
  endfacet
  facet normal 0 0 -1
    outer loop
      vertex -2.20083 0.467801 2
      vertex -1.82029 1.32252 2
      vertex -1.50554 1.67208 2
    endloop
  endfacet
  facet normal 0 0 -1
    outer loop
      vertex -2.20083 0.467801 2
      vertex -1.50554 1.67208 2
      vertex -1.125 1.94856 2
    endloop
  endfacet
  facet normal 0 0 -1
    outer loop
      vertex -2.20083 0.467801 2
      vertex -1.125 1.94856 2
      vertex -0.695288 2.13988 2
    endloop
  endfacet
  facet normal 0 0 -1
    outer loop
      vertex -2.20083 0.467801 2
      vertex -0.695288 2.13988 2
      vertex -0.235189 2.23767 2
    endloop
  endfacet
  facet normal 0 0 -1
    outer loop
      vertex -2.20083 0.467801 2
      vertex -0.235189 2.23767 2
      vertex 0.235189 2.23767 2
    endloop
  endfacet
  facet normal 0 0 -1
    outer loop
      vertex -2.20083 0.467801 2
      vertex 0.235189 2.23767 2
      vertex 0.695288 2.13988 2
    endloop
  endfacet
  facet normal 0 0 -1
    outer loop
      vertex -2.20083 0.467801 2
      vertex 0.695288 2.13988 2
      vertex 1.125 1.94856 2
    endloop
  endfacet
  facet normal 0 0 -1
    outer loop
      vertex -2.20083 0.467801 2
      vertex 1.125 1.94856 2
      vertex 1.50554 1.67208 2
    endloop
  endfacet
  facet normal 0 0 -1
    outer loop
      vertex -2.20083 0.467801 2
      vertex 1.50554 1.67208 2
      vertex 1.82029 1.32252 2
    endloop
  endfacet
  facet normal 0 0 -1
    outer loop
      vertex -2.20083 0.467801 2
      vertex 1.82029 1.32252 2
      vertex 2.05548 0.915157 2
    endloop
  endfacet
  facet normal 0 0 -1
    outer loop
      vertex -2.20083 0.467801 2
      vertex 2.05548 0.915157 2
      vertex 2.20083 0.467801 2
    endloop
  endfacet
  facet normal 0 0 -1
    outer loop
      vertex -2.20083 0.467801 2
      vertex 2.20083 0.467801 2
      vertex 2.25 0 2
    endloop
  endfacet
  facet normal 0 0 -1
    outer loop
      vertex -2.20083 0.467801 2
      vertex 2.25 0 2
      vertex 2.20083 -0.467801 2
    endloop
  endfacet
  facet normal 0 0 -1
    outer loop
      vertex -2.20083 0.467801 2
      vertex 2.20083 -0.467801 2
      vertex 2.05548 -0.915157 2
    endloop
  endfacet
  facet normal 0 0 -1
    outer loop
      vertex -2.20083 0.467801 2
      vertex 2.05548 -0.915157 2
      vertex 1.82029 -1.32252 2
    endloop
  endfacet
  facet normal 0 0 -1
    outer loop
      vertex -2.20083 0.467801 2
      vertex 1.82029 -1.32252 2
      vertex 1.50554 -1.67208 2
    endloop
  endfacet
  facet normal 0 0 -1
    outer loop
      vertex -2.20083 0.467801 2
      vertex 1.50554 -1.67208 2
      vertex 1.125 -1.94856 2
    endloop
  endfacet
  facet normal 0 0 -1
    outer loop
      vertex -2.20083 0.467801 2
      vertex 1.125 -1.94856 2
      vertex 0.695288 -2.13988 2
    endloop
  endfacet
  facet normal 0 0 -1
    outer loop
      vertex -2.20083 0.467801 2
      vertex 0.695288 -2.13988 2
      vertex 0.235189 -2.23767 2
    endloop
  endfacet
  facet normal 0 0 -1
    outer loop
      vertex -2.20083 0.467801 2
      vertex 0.235189 -2.23767 2
      vertex -0.235189 -2.23767 2
    endloop
  endfacet
  facet normal 0 0 -1
    outer loop
      vertex -2.20083 0.467801 2
      vertex -0.235189 -2.23767 2
      vertex -0.695288 -2.13988 2
    endloop
  endfacet
  facet normal 0 0 -1
    outer loop
      vertex -2.20083 0.467801 2
      vertex -0.695288 -2.13988 2
      vertex -1.125 -1.94856 2
    endloop
  endfacet
  facet normal 0 0 -1
    outer loop
      vertex -2.20083 0.467801 2
      vertex -1.125 -1.94856 2
      vertex -1.50554 -1.67208 2
    endloop
  endfacet
  facet normal 0 0 -1
    outer loop
      vertex -2.20083 0.467801 2
      vertex -1.50554 -1.67208 2
      vertex -1.82029 -1.32252 2
    endloop
  endfacet
  facet normal 0 0 -1
    outer loop
      vertex -2.20083 0.467801 2
      vertex -1.82029 -1.32252 2
      vertex -2.05548 -0.915157 2
    endloop
  endfacet
  facet normal 0 0 -1
    outer loop
      vertex -2.20083 0.467801 2
      vertex -2.05548 -0.915157 2
      vertex -2.20083 -0.467801 2
    endloop
  endfacet
  facet normal 0 0 -1
    outer loop
      vertex -2.20083 0.467801 2
      vertex -2.20083 -0.467801 2
      vertex -2.25 0 2
    endloop
  endfacet
  facet normal -0.987688 -0.156435 0
    outer loop
      vertex -2.4863 -0.261321 5.5
      vertex -2.44537 -0.519779 5.5
      vertex -2.4863 -0.261321 10
    endloop
  endfacet
  facet normal -0.987688 -0.156435 0
    outer loop
      vertex -2.4863 -0.261321 10
      vertex -2.44537 -0.519779 5.5
      vertex -2.44537 -0.519779 10
    endloop
  endfacet
  facet normal -0.99863 -0.052335 0
    outer loop
      vertex -2.5 0 5.5
      vertex -2.4863 -0.261321 5.5
      vertex -2.5 0 10
    endloop
  endfacet
  facet normal -0.99863 -0.052335 0
    outer loop
      vertex -2.5 0 10
      vertex -2.4863 -0.261321 5.5
      vertex -2.4863 -0.261321 10
    endloop
  endfacet
  facet normal -0.965925 -0.25882 0
    outer loop
      vertex -2.44537 -0.519779 5.5
      vertex -2.37764 -0.772542 5.5
      vertex -2.44537 -0.519779 10
    endloop
  endfacet
  facet normal -0.965925 -0.25882 0
    outer loop
      vertex -2.44537 -0.519779 10
      vertex -2.37764 -0.772542 5.5
      vertex -2.37764 -0.772542 10
    endloop
  endfacet
  facet normal -0.933582 -0.358365 0
    outer loop
      vertex -2.37764 -0.772542 5.5
      vertex -2.28386 -1.01684 5.5
      vertex -2.37764 -0.772542 10
    endloop
  endfacet
  facet normal -0.933582 -0.358365 0
    outer loop
      vertex -2.37764 -0.772542 10
      vertex -2.28386 -1.01684 5.5
      vertex -2.28386 -1.01684 10
    endloop
  endfacet
  facet normal -0.891006 -0.453991 0
    outer loop
      vertex -2.28386 -1.01684 5.5
      vertex -2.16506 -1.25 5.5
      vertex -2.28386 -1.01684 10
    endloop
  endfacet
  facet normal -0.891006 -0.453991 0
    outer loop
      vertex -2.28386 -1.01684 10
      vertex -2.16506 -1.25 5.5
      vertex -2.16506 -1.25 10
    endloop
  endfacet
  facet normal -0.838669 -0.544642 0
    outer loop
      vertex -2.16506 -1.25 5.5
      vertex -2.02254 -1.46946 5.5
      vertex -2.16506 -1.25 10
    endloop
  endfacet
  facet normal -0.838669 -0.544642 0
    outer loop
      vertex -2.16506 -1.25 10
      vertex -2.02254 -1.46946 5.5
      vertex -2.02254 -1.46946 10
    endloop
  endfacet
  facet normal -0.777148 -0.629318 0
    outer loop
      vertex -2.02254 -1.46946 5.5
      vertex -1.85786 -1.67283 5.5
      vertex -2.02254 -1.46946 10
    endloop
  endfacet
  facet normal -0.777148 -0.629318 0
    outer loop
      vertex -2.02254 -1.46946 10
      vertex -1.85786 -1.67283 5.5
      vertex -1.85786 -1.67283 10
    endloop
  endfacet
  facet normal -0.707107 -0.707107 0
    outer loop
      vertex -1.85786 -1.67283 10
      vertex -1.85786 -1.67283 5.5
      vertex -1.67283 -1.85786 5.5
    endloop
  endfacet
  facet normal -0.707107 -0.707107 0
    outer loop
      vertex -1.67283 -1.85786 10
      vertex -1.85786 -1.67283 10
      vertex -1.67283 -1.85786 5.5
    endloop
  endfacet
  facet normal -0.629318 -0.777148 0
    outer loop
      vertex -1.67283 -1.85786 10
      vertex -1.67283 -1.85786 5.5
      vertex -1.46946 -2.02254 5.5
    endloop
  endfacet
  facet normal -0.629318 -0.777148 0
    outer loop
      vertex -1.46946 -2.02254 10
      vertex -1.67283 -1.85786 10
      vertex -1.46946 -2.02254 5.5
    endloop
  endfacet
  facet normal -0.544642 -0.838669 0
    outer loop
      vertex -1.46946 -2.02254 10
      vertex -1.46946 -2.02254 5.5
      vertex -1.25 -2.16506 5.5
    endloop
  endfacet
  facet normal -0.544642 -0.838669 0
    outer loop
      vertex -1.25 -2.16506 10
      vertex -1.46946 -2.02254 10
      vertex -1.25 -2.16506 5.5
    endloop
  endfacet
  facet normal -0.453991 -0.891006 0
    outer loop
      vertex -1.25 -2.16506 10
      vertex -1.25 -2.16506 5.5
      vertex -1.01684 -2.28386 5.5
    endloop
  endfacet
  facet normal -0.453991 -0.891006 0
    outer loop
      vertex -1.01684 -2.28386 10
      vertex -1.25 -2.16506 10
      vertex -1.01684 -2.28386 5.5
    endloop
  endfacet
  facet normal -0.358365 -0.933582 0
    outer loop
      vertex -1.01684 -2.28386 10
      vertex -1.01684 -2.28386 5.5
      vertex -0.772542 -2.37764 5.5
    endloop
  endfacet
  facet normal -0.358365 -0.933582 0
    outer loop
      vertex -0.772542 -2.37764 10
      vertex -1.01684 -2.28386 10
      vertex -0.772542 -2.37764 5.5
    endloop
  endfacet
  facet normal -0.25882 -0.965925 0
    outer loop
      vertex -0.772542 -2.37764 10
      vertex -0.772542 -2.37764 5.5
      vertex -0.519779 -2.44537 5.5
    endloop
  endfacet
  facet normal -0.25882 -0.965925 0
    outer loop
      vertex -0.519779 -2.44537 10
      vertex -0.772542 -2.37764 10
      vertex -0.519779 -2.44537 5.5
    endloop
  endfacet
  facet normal -0.156435 -0.987688 0
    outer loop
      vertex -0.519779 -2.44537 10
      vertex -0.519779 -2.44537 5.5
      vertex -0.261321 -2.4863 5.5
    endloop
  endfacet
  facet normal -0.156435 -0.987688 0
    outer loop
      vertex -0.261321 -2.4863 10
      vertex -0.519779 -2.44537 10
      vertex -0.261321 -2.4863 5.5
    endloop
  endfacet
  facet normal -0.052335 -0.99863 0
    outer loop
      vertex -0.261321 -2.4863 10
      vertex -0.261321 -2.4863 5.5
      vertex 0 -2.5 5.5
    endloop
  endfacet
  facet normal -0.052335 -0.99863 0
    outer loop
      vertex 0 -2.5 10
      vertex -0.261321 -2.4863 10
      vertex 0 -2.5 5.5
    endloop
  endfacet
  facet normal 0.052335 -0.99863 0
    outer loop
      vertex 0 -2.5 10
      vertex 0 -2.5 5.5
      vertex 0.261321 -2.4863 5.5
    endloop
  endfacet
  facet normal 0.052335 -0.99863 0
    outer loop
      vertex 0.261321 -2.4863 10
      vertex 0 -2.5 10
      vertex 0.261321 -2.4863 5.5
    endloop
  endfacet
  facet normal 0.156435 -0.987688 0
    outer loop
      vertex 0.261321 -2.4863 10
      vertex 0.261321 -2.4863 5.5
      vertex 0.519779 -2.44537 5.5
    endloop
  endfacet
  facet normal 0.156435 -0.987688 0
    outer loop
      vertex 0.519779 -2.44537 10
      vertex 0.261321 -2.4863 10
      vertex 0.519779 -2.44537 5.5
    endloop
  endfacet
  facet normal 0.25882 -0.965925 0
    outer loop
      vertex 0.519779 -2.44537 10
      vertex 0.519779 -2.44537 5.5
      vertex 0.772542 -2.37764 5.5
    endloop
  endfacet
  facet normal 0.25882 -0.965925 0
    outer loop
      vertex 0.772542 -2.37764 10
      vertex 0.519779 -2.44537 10
      vertex 0.772542 -2.37764 5.5
    endloop
  endfacet
  facet normal 0.358365 -0.933582 0
    outer loop
      vertex 0.772542 -2.37764 10
      vertex 0.772542 -2.37764 5.5
      vertex 1.01684 -2.28386 5.5
    endloop
  endfacet
  facet normal 0.358365 -0.933582 0
    outer loop
      vertex 1.01684 -2.28386 10
      vertex 0.772542 -2.37764 10
      vertex 1.01684 -2.28386 5.5
    endloop
  endfacet
  facet normal 0.453991 -0.891006 0
    outer loop
      vertex 1.01684 -2.28386 10
      vertex 1.01684 -2.28386 5.5
      vertex 1.25 -2.16506 5.5
    endloop
  endfacet
  facet normal 0.453991 -0.891006 0
    outer loop
      vertex 1.25 -2.16506 10
      vertex 1.01684 -2.28386 10
      vertex 1.25 -2.16506 5.5
    endloop
  endfacet
  facet normal 0.544642 -0.838669 0
    outer loop
      vertex 1.25 -2.16506 10
      vertex 1.25 -2.16506 5.5
      vertex 1.46946 -2.02254 5.5
    endloop
  endfacet
  facet normal 0.544642 -0.838669 0
    outer loop
      vertex 1.46946 -2.02254 10
      vertex 1.25 -2.16506 10
      vertex 1.46946 -2.02254 5.5
    endloop
  endfacet
  facet normal 0.629318 -0.777148 0
    outer loop
      vertex 1.46946 -2.02254 10
      vertex 1.46946 -2.02254 5.5
      vertex 1.67283 -1.85786 5.5
    endloop
  endfacet
  facet normal 0.629318 -0.777148 0
    outer loop
      vertex 1.67283 -1.85786 10
      vertex 1.46946 -2.02254 10
      vertex 1.67283 -1.85786 5.5
    endloop
  endfacet
  facet normal 0.707107 -0.707107 0
    outer loop
      vertex 1.67283 -1.85786 10
      vertex 1.67283 -1.85786 5.5
      vertex 1.85786 -1.67283 5.5
    endloop
  endfacet
  facet normal 0.707107 -0.707107 0
    outer loop
      vertex 1.85786 -1.67283 10
      vertex 1.67283 -1.85786 10
      vertex 1.85786 -1.67283 5.5
    endloop
  endfacet
  facet normal 0.777148 -0.629318 0
    outer loop
      vertex 1.85786 -1.67283 10
      vertex 1.85786 -1.67283 5.5
      vertex 2.02254 -1.46946 5.5
    endloop
  endfacet
  facet normal 0.777148 -0.629318 0
    outer loop
      vertex 2.02254 -1.46946 10
      vertex 1.85786 -1.67283 10
      vertex 2.02254 -1.46946 5.5
    endloop
  endfacet
  facet normal 0.838669 -0.544642 0
    outer loop
      vertex 2.02254 -1.46946 10
      vertex 2.02254 -1.46946 5.5
      vertex 2.16506 -1.25 5.5
    endloop
  endfacet
  facet normal 0.838669 -0.544642 0
    outer loop
      vertex 2.16506 -1.25 10
      vertex 2.02254 -1.46946 10
      vertex 2.16506 -1.25 5.5
    endloop
  endfacet
  facet normal 0.891006 -0.453991 0
    outer loop
      vertex 2.16506 -1.25 10
      vertex 2.16506 -1.25 5.5
      vertex 2.28386 -1.01684 5.5
    endloop
  endfacet
  facet normal 0.891006 -0.453991 0
    outer loop
      vertex 2.28386 -1.01684 10
      vertex 2.16506 -1.25 10
      vertex 2.28386 -1.01684 5.5
    endloop
  endfacet
  facet normal 0.933582 -0.358365 0
    outer loop
      vertex 2.28386 -1.01684 10
      vertex 2.28386 -1.01684 5.5
      vertex 2.37764 -0.772542 5.5
    endloop
  endfacet
  facet normal 0.933582 -0.358365 0
    outer loop
      vertex 2.37764 -0.772542 10
      vertex 2.28386 -1.01684 10
      vertex 2.37764 -0.772542 5.5
    endloop
  endfacet
  facet normal 0.965925 -0.25882 0
    outer loop
      vertex 2.37764 -0.772542 10
      vertex 2.37764 -0.772542 5.5
      vertex 2.44537 -0.519779 5.5
    endloop
  endfacet
  facet normal 0.965925 -0.25882 0
    outer loop
      vertex 2.44537 -0.519779 10
      vertex 2.37764 -0.772542 10
      vertex 2.44537 -0.519779 5.5
    endloop
  endfacet
  facet normal 0.987688 -0.156435 0
    outer loop
      vertex 2.44537 -0.519779 10
      vertex 2.44537 -0.519779 5.5
      vertex 2.4863 -0.261321 5.5
    endloop
  endfacet
  facet normal 0.987688 -0.156435 0
    outer loop
      vertex 2.4863 -0.261321 10
      vertex 2.44537 -0.519779 10
      vertex 2.4863 -0.261321 5.5
    endloop
  endfacet
  facet normal 0.99863 -0.052335 0
    outer loop
      vertex 2.4863 -0.261321 10
      vertex 2.4863 -0.261321 5.5
      vertex 2.5 0 5.5
    endloop
  endfacet
  facet normal 0.99863 -0.052335 0
    outer loop
      vertex 2.5 0 10
      vertex 2.4863 -0.261321 10
      vertex 2.5 0 5.5
    endloop
  endfacet
  facet normal 0.99863 0.052335 0
    outer loop
      vertex 2.5 0 5.5
      vertex 2.4863 0.261321 5.5
      vertex 2.4863 0.261321 10
    endloop
  endfacet
  facet normal 0.99863 0.052335 0
    outer loop
      vertex 2.5 0 10
      vertex 2.5 0 5.5
      vertex 2.4863 0.261321 10
    endloop
  endfacet
  facet normal 0.987688 0.156435 0
    outer loop
      vertex 2.4863 0.261321 5.5
      vertex 2.44537 0.519779 5.5
      vertex 2.44537 0.519779 10
    endloop
  endfacet
  facet normal 0.987688 0.156435 0
    outer loop
      vertex 2.4863 0.261321 10
      vertex 2.4863 0.261321 5.5
      vertex 2.44537 0.519779 10
    endloop
  endfacet
  facet normal 0.965925 0.25882 0
    outer loop
      vertex 2.44537 0.519779 5.5
      vertex 2.37764 0.772542 5.5
      vertex 2.37764 0.772542 10
    endloop
  endfacet
  facet normal 0.965925 0.25882 0
    outer loop
      vertex 2.44537 0.519779 10
      vertex 2.44537 0.519779 5.5
      vertex 2.37764 0.772542 10
    endloop
  endfacet
  facet normal 0.933582 0.358365 0
    outer loop
      vertex 2.37764 0.772542 5.5
      vertex 2.28386 1.01684 5.5
      vertex 2.28386 1.01684 10
    endloop
  endfacet
  facet normal 0.933582 0.358365 0
    outer loop
      vertex 2.37764 0.772542 10
      vertex 2.37764 0.772542 5.5
      vertex 2.28386 1.01684 10
    endloop
  endfacet
  facet normal 0.891006 0.453991 0
    outer loop
      vertex 2.28386 1.01684 5.5
      vertex 2.16506 1.25 5.5
      vertex 2.16506 1.25 10
    endloop
  endfacet
  facet normal 0.891006 0.453991 0
    outer loop
      vertex 2.28386 1.01684 10
      vertex 2.28386 1.01684 5.5
      vertex 2.16506 1.25 10
    endloop
  endfacet
  facet normal 0.838669 0.544642 0
    outer loop
      vertex 2.16506 1.25 5.5
      vertex 2.02254 1.46946 5.5
      vertex 2.02254 1.46946 10
    endloop
  endfacet
  facet normal 0.838669 0.544642 0
    outer loop
      vertex 2.16506 1.25 10
      vertex 2.16506 1.25 5.5
      vertex 2.02254 1.46946 10
    endloop
  endfacet
  facet normal 0.777148 0.629318 0
    outer loop
      vertex 2.02254 1.46946 5.5
      vertex 1.85786 1.67283 5.5
      vertex 1.85786 1.67283 10
    endloop
  endfacet
  facet normal 0.777148 0.629318 0
    outer loop
      vertex 2.02254 1.46946 10
      vertex 2.02254 1.46946 5.5
      vertex 1.85786 1.67283 10
    endloop
  endfacet
  facet normal 0.707107 0.707107 0
    outer loop
      vertex 1.67283 1.85786 5.5
      vertex 1.67283 1.85786 10
      vertex 1.85786 1.67283 5.5
    endloop
  endfacet
  facet normal 0.707107 0.707107 0
    outer loop
      vertex 1.85786 1.67283 5.5
      vertex 1.67283 1.85786 10
      vertex 1.85786 1.67283 10
    endloop
  endfacet
  facet normal 0.629318 0.777148 0
    outer loop
      vertex 1.46946 2.02254 5.5
      vertex 1.46946 2.02254 10
      vertex 1.67283 1.85786 5.5
    endloop
  endfacet
  facet normal 0.629318 0.777148 0
    outer loop
      vertex 1.67283 1.85786 5.5
      vertex 1.46946 2.02254 10
      vertex 1.67283 1.85786 10
    endloop
  endfacet
  facet normal 0.544642 0.838669 0
    outer loop
      vertex 1.25 2.16506 5.5
      vertex 1.25 2.16506 10
      vertex 1.46946 2.02254 5.5
    endloop
  endfacet
  facet normal 0.544642 0.838669 0
    outer loop
      vertex 1.46946 2.02254 5.5
      vertex 1.25 2.16506 10
      vertex 1.46946 2.02254 10
    endloop
  endfacet
  facet normal 0.453991 0.891006 0
    outer loop
      vertex 1.01684 2.28386 5.5
      vertex 1.01684 2.28386 10
      vertex 1.25 2.16506 5.5
    endloop
  endfacet
  facet normal 0.453991 0.891006 0
    outer loop
      vertex 1.25 2.16506 5.5
      vertex 1.01684 2.28386 10
      vertex 1.25 2.16506 10
    endloop
  endfacet
  facet normal 0.358365 0.933582 0
    outer loop
      vertex 0.772542 2.37764 5.5
      vertex 0.772542 2.37764 10
      vertex 1.01684 2.28386 5.5
    endloop
  endfacet
  facet normal 0.358365 0.933582 0
    outer loop
      vertex 1.01684 2.28386 5.5
      vertex 0.772542 2.37764 10
      vertex 1.01684 2.28386 10
    endloop
  endfacet
  facet normal 0.25882 0.965925 0
    outer loop
      vertex 0.519779 2.44537 5.5
      vertex 0.519779 2.44537 10
      vertex 0.772542 2.37764 5.5
    endloop
  endfacet
  facet normal 0.25882 0.965925 0
    outer loop
      vertex 0.772542 2.37764 5.5
      vertex 0.519779 2.44537 10
      vertex 0.772542 2.37764 10
    endloop
  endfacet
  facet normal 0.156435 0.987688 0
    outer loop
      vertex 0.261321 2.4863 5.5
      vertex 0.261321 2.4863 10
      vertex 0.519779 2.44537 5.5
    endloop
  endfacet
  facet normal 0.156435 0.987688 0
    outer loop
      vertex 0.519779 2.44537 5.5
      vertex 0.261321 2.4863 10
      vertex 0.519779 2.44537 10
    endloop
  endfacet
  facet normal 0.052335 0.99863 0
    outer loop
      vertex 0 2.5 5.5
      vertex 0 2.5 10
      vertex 0.261321 2.4863 5.5
    endloop
  endfacet
  facet normal 0.052335 0.99863 0
    outer loop
      vertex 0.261321 2.4863 5.5
      vertex 0 2.5 10
      vertex 0.261321 2.4863 10
    endloop
  endfacet
  facet normal -0.052335 0.99863 0
    outer loop
      vertex -0.261321 2.4863 5.5
      vertex -0.261321 2.4863 10
      vertex 0 2.5 5.5
    endloop
  endfacet
  facet normal -0.052335 0.99863 0
    outer loop
      vertex 0 2.5 5.5
      vertex -0.261321 2.4863 10
      vertex 0 2.5 10
    endloop
  endfacet
  facet normal -0.156435 0.987688 0
    outer loop
      vertex -0.519779 2.44537 5.5
      vertex -0.519779 2.44537 10
      vertex -0.261321 2.4863 5.5
    endloop
  endfacet
  facet normal -0.156435 0.987688 0
    outer loop
      vertex -0.261321 2.4863 5.5
      vertex -0.519779 2.44537 10
      vertex -0.261321 2.4863 10
    endloop
  endfacet
  facet normal -0.25882 0.965925 0
    outer loop
      vertex -0.772542 2.37764 5.5
      vertex -0.772542 2.37764 10
      vertex -0.519779 2.44537 5.5
    endloop
  endfacet
  facet normal -0.25882 0.965925 0
    outer loop
      vertex -0.519779 2.44537 5.5
      vertex -0.772542 2.37764 10
      vertex -0.519779 2.44537 10
    endloop
  endfacet
  facet normal -0.358365 0.933582 0
    outer loop
      vertex -1.01684 2.28386 5.5
      vertex -1.01684 2.28386 10
      vertex -0.772542 2.37764 5.5
    endloop
  endfacet
  facet normal -0.358365 0.933582 0
    outer loop
      vertex -0.772542 2.37764 5.5
      vertex -1.01684 2.28386 10
      vertex -0.772542 2.37764 10
    endloop
  endfacet
  facet normal -0.453991 0.891006 0
    outer loop
      vertex -1.25 2.16506 5.5
      vertex -1.25 2.16506 10
      vertex -1.01684 2.28386 5.5
    endloop
  endfacet
  facet normal -0.453991 0.891006 0
    outer loop
      vertex -1.01684 2.28386 5.5
      vertex -1.25 2.16506 10
      vertex -1.01684 2.28386 10
    endloop
  endfacet
  facet normal -0.544642 0.838669 0
    outer loop
      vertex -1.46946 2.02254 5.5
      vertex -1.46946 2.02254 10
      vertex -1.25 2.16506 5.5
    endloop
  endfacet
  facet normal -0.544642 0.838669 0
    outer loop
      vertex -1.25 2.16506 5.5
      vertex -1.46946 2.02254 10
      vertex -1.25 2.16506 10
    endloop
  endfacet
  facet normal -0.629318 0.777148 0
    outer loop
      vertex -1.67283 1.85786 5.5
      vertex -1.67283 1.85786 10
      vertex -1.46946 2.02254 5.5
    endloop
  endfacet
  facet normal -0.629318 0.777148 0
    outer loop
      vertex -1.46946 2.02254 5.5
      vertex -1.67283 1.85786 10
      vertex -1.46946 2.02254 10
    endloop
  endfacet
  facet normal -0.707107 0.707107 0
    outer loop
      vertex -1.85786 1.67283 5.5
      vertex -1.85786 1.67283 10
      vertex -1.67283 1.85786 5.5
    endloop
  endfacet
  facet normal -0.707107 0.707107 0
    outer loop
      vertex -1.67283 1.85786 5.5
      vertex -1.85786 1.67283 10
      vertex -1.67283 1.85786 10
    endloop
  endfacet
  facet normal -0.777148 0.629318 0
    outer loop
      vertex -2.02254 1.46946 5.5
      vertex -2.02254 1.46946 10
      vertex -1.85786 1.67283 5.5
    endloop
  endfacet
  facet normal -0.777148 0.629318 0
    outer loop
      vertex -1.85786 1.67283 5.5
      vertex -2.02254 1.46946 10
      vertex -1.85786 1.67283 10
    endloop
  endfacet
  facet normal -0.838669 0.544642 0
    outer loop
      vertex -2.16506 1.25 5.5
      vertex -2.16506 1.25 10
      vertex -2.02254 1.46946 5.5
    endloop
  endfacet
  facet normal -0.838669 0.544642 0
    outer loop
      vertex -2.02254 1.46946 5.5
      vertex -2.16506 1.25 10
      vertex -2.02254 1.46946 10
    endloop
  endfacet
  facet normal -0.891006 0.453991 0
    outer loop
      vertex -2.28386 1.01684 5.5
      vertex -2.28386 1.01684 10
      vertex -2.16506 1.25 5.5
    endloop
  endfacet
  facet normal -0.891006 0.453991 0
    outer loop
      vertex -2.16506 1.25 5.5
      vertex -2.28386 1.01684 10
      vertex -2.16506 1.25 10
    endloop
  endfacet
  facet normal -0.933582 0.358365 0
    outer loop
      vertex -2.37764 0.772542 5.5
      vertex -2.37764 0.772542 10
      vertex -2.28386 1.01684 5.5
    endloop
  endfacet
  facet normal -0.933582 0.358365 0
    outer loop
      vertex -2.28386 1.01684 5.5
      vertex -2.37764 0.772542 10
      vertex -2.28386 1.01684 10
    endloop
  endfacet
  facet normal -0.965925 0.25882 0
    outer loop
      vertex -2.44537 0.519779 5.5
      vertex -2.44537 0.519779 10
      vertex -2.37764 0.772542 5.5
    endloop
  endfacet
  facet normal -0.965925 0.25882 0
    outer loop
      vertex -2.37764 0.772542 5.5
      vertex -2.44537 0.519779 10
      vertex -2.37764 0.772542 10
    endloop
  endfacet
  facet normal -0.987688 0.156435 0
    outer loop
      vertex -2.4863 0.261321 5.5
      vertex -2.4863 0.261321 10
      vertex -2.44537 0.519779 5.5
    endloop
  endfacet
  facet normal -0.987688 0.156435 0
    outer loop
      vertex -2.44537 0.519779 5.5
      vertex -2.4863 0.261321 10
      vertex -2.44537 0.519779 10
    endloop
  endfacet
  facet normal -0.99863 0.052335 0
    outer loop
      vertex -2.5 0 5.5
      vertex -2.5 0 10
      vertex -2.4863 0.261321 5.5
    endloop
  endfacet
  facet normal -0.99863 0.052335 0
    outer loop
      vertex -2.4863 0.261321 5.5
      vertex -2.5 0 10
      vertex -2.4863 0.261321 10
    endloop
  endfacet
  facet normal 0 0 1
    outer loop
      vertex -2.4863 0.261321 10
      vertex -2.5 0 10
      vertex -2.4863 -0.261321 10
    endloop
  endfacet
  facet normal 0 0 1
    outer loop
      vertex -2.37764 -0.772542 10
      vertex -2.4863 0.261321 10
      vertex -2.44537 -0.519779 10
    endloop
  endfacet
  facet normal 0 0 1
    outer loop
      vertex -2.44537 -0.519779 10
      vertex -2.4863 0.261321 10
      vertex -2.4863 -0.261321 10
    endloop
  endfacet
  facet normal 0 0 1
    outer loop
      vertex -2.28386 -1.01684 10
      vertex -2.4863 0.261321 10
      vertex -2.37764 -0.772542 10
    endloop
  endfacet
  facet normal 0 0 1
    outer loop
      vertex -2.16506 -1.25 10
      vertex -2.4863 0.261321 10
      vertex -2.28386 -1.01684 10
    endloop
  endfacet
  facet normal 0 0 1
    outer loop
      vertex -2.02254 -1.46946 10
      vertex -2.4863 0.261321 10
      vertex -2.16506 -1.25 10
    endloop
  endfacet
  facet normal 0 0 1
    outer loop
      vertex -1.85786 -1.67283 10
      vertex -2.4863 0.261321 10
      vertex -2.02254 -1.46946 10
    endloop
  endfacet
  facet normal 0 0 1
    outer loop
      vertex -1.67283 -1.85786 10
      vertex -2.4863 0.261321 10
      vertex -1.85786 -1.67283 10
    endloop
  endfacet
  facet normal 0 0 1
    outer loop
      vertex -1.46946 -2.02254 10
      vertex -2.4863 0.261321 10
      vertex -1.67283 -1.85786 10
    endloop
  endfacet
  facet normal 0 0 1
    outer loop
      vertex -1.25 -2.16506 10
      vertex -2.4863 0.261321 10
      vertex -1.46946 -2.02254 10
    endloop
  endfacet
  facet normal 0 0 1
    outer loop
      vertex -1.01684 -2.28386 10
      vertex -2.4863 0.261321 10
      vertex -1.25 -2.16506 10
    endloop
  endfacet
  facet normal 0 0 1
    outer loop
      vertex -0.772542 -2.37764 10
      vertex -2.4863 0.261321 10
      vertex -1.01684 -2.28386 10
    endloop
  endfacet
  facet normal 0 0 1
    outer loop
      vertex -0.519779 -2.44537 10
      vertex -2.4863 0.261321 10
      vertex -0.772542 -2.37764 10
    endloop
  endfacet
  facet normal 0 0 1
    outer loop
      vertex -0.261321 -2.4863 10
      vertex -2.4863 0.261321 10
      vertex -0.519779 -2.44537 10
    endloop
  endfacet
  facet normal 0 0 1
    outer loop
      vertex 0 -2.5 10
      vertex -2.4863 0.261321 10
      vertex -0.261321 -2.4863 10
    endloop
  endfacet
  facet normal 0 0 1
    outer loop
      vertex 0.261321 -2.4863 10
      vertex -2.4863 0.261321 10
      vertex 0 -2.5 10
    endloop
  endfacet
  facet normal 0 0 1
    outer loop
      vertex 0.519779 -2.44537 10
      vertex -2.4863 0.261321 10
      vertex 0.261321 -2.4863 10
    endloop
  endfacet
  facet normal 0 0 1
    outer loop
      vertex 0.772542 -2.37764 10
      vertex -2.4863 0.261321 10
      vertex 0.519779 -2.44537 10
    endloop
  endfacet
  facet normal 0 0 1
    outer loop
      vertex 1.01684 -2.28386 10
      vertex -2.4863 0.261321 10
      vertex 0.772542 -2.37764 10
    endloop
  endfacet
  facet normal 0 0 1
    outer loop
      vertex 1.25 -2.16506 10
      vertex -2.4863 0.261321 10
      vertex 1.01684 -2.28386 10
    endloop
  endfacet
  facet normal 0 0 1
    outer loop
      vertex 1.46946 -2.02254 10
      vertex -2.4863 0.261321 10
      vertex 1.25 -2.16506 10
    endloop
  endfacet
  facet normal 0 0 1
    outer loop
      vertex 1.67283 -1.85786 10
      vertex -2.4863 0.261321 10
      vertex 1.46946 -2.02254 10
    endloop
  endfacet
  facet normal 0 0 1
    outer loop
      vertex 1.85786 -1.67283 10
      vertex -2.4863 0.261321 10
      vertex 1.67283 -1.85786 10
    endloop
  endfacet
  facet normal 0 0 1
    outer loop
      vertex 2.02254 -1.46946 10
      vertex -2.4863 0.261321 10
      vertex 1.85786 -1.67283 10
    endloop
  endfacet
  facet normal 0 0 1
    outer loop
      vertex 2.16506 -1.25 10
      vertex -2.4863 0.261321 10
      vertex 2.02254 -1.46946 10
    endloop
  endfacet
  facet normal 0 0 1
    outer loop
      vertex 2.28386 -1.01684 10
      vertex -2.4863 0.261321 10
      vertex 2.16506 -1.25 10
    endloop
  endfacet
  facet normal 0 0 1
    outer loop
      vertex 2.37764 -0.772542 10
      vertex -2.4863 0.261321 10
      vertex 2.28386 -1.01684 10
    endloop
  endfacet
  facet normal 0 0 1
    outer loop
      vertex 2.44537 -0.519779 10
      vertex -2.4863 0.261321 10
      vertex 2.37764 -0.772542 10
    endloop
  endfacet
  facet normal 0 0 1
    outer loop
      vertex 2.4863 -0.261321 10
      vertex -2.4863 0.261321 10
      vertex 2.44537 -0.519779 10
    endloop
  endfacet
  facet normal 0 0 1
    outer loop
      vertex 2.5 0 10
      vertex -2.4863 0.261321 10
      vertex 2.4863 -0.261321 10
    endloop
  endfacet
  facet normal 0 0 1
    outer loop
      vertex 2.4863 0.261321 10
      vertex -2.4863 0.261321 10
      vertex 2.5 0 10
    endloop
  endfacet
  facet normal 0 0 1
    outer loop
      vertex 2.44537 0.519779 10
      vertex -2.4863 0.261321 10
      vertex 2.4863 0.261321 10
    endloop
  endfacet
  facet normal 0 0 1
    outer loop
      vertex 2.37764 0.772542 10
      vertex -2.4863 0.261321 10
      vertex 2.44537 0.519779 10
    endloop
  endfacet
  facet normal 0 0 1
    outer loop
      vertex 2.28386 1.01684 10
      vertex -2.4863 0.261321 10
      vertex 2.37764 0.772542 10
    endloop
  endfacet
  facet normal 0 0 1
    outer loop
      vertex 2.16506 1.25 10
      vertex -2.4863 0.261321 10
      vertex 2.28386 1.01684 10
    endloop
  endfacet
  facet normal 0 0 1
    outer loop
      vertex 2.02254 1.46946 10
      vertex -2.4863 0.261321 10
      vertex 2.16506 1.25 10
    endloop
  endfacet
  facet normal 0 0 1
    outer loop
      vertex 1.85786 1.67283 10
      vertex -2.4863 0.261321 10
      vertex 2.02254 1.46946 10
    endloop
  endfacet
  facet normal 0 0 1
    outer loop
      vertex 1.67283 1.85786 10
      vertex -2.4863 0.261321 10
      vertex 1.85786 1.67283 10
    endloop
  endfacet
  facet normal 0 0 1
    outer loop
      vertex 1.46946 2.02254 10
      vertex -2.4863 0.261321 10
      vertex 1.67283 1.85786 10
    endloop
  endfacet
  facet normal 0 0 1
    outer loop
      vertex 1.25 2.16506 10
      vertex -2.4863 0.261321 10
      vertex 1.46946 2.02254 10
    endloop
  endfacet
  facet normal 0 0 1
    outer loop
      vertex 1.01684 2.28386 10
      vertex -2.4863 0.261321 10
      vertex 1.25 2.16506 10
    endloop
  endfacet
  facet normal 0 0 1
    outer loop
      vertex 0.772542 2.37764 10
      vertex -2.4863 0.261321 10
      vertex 1.01684 2.28386 10
    endloop
  endfacet
  facet normal 0 0 1
    outer loop
      vertex 0.519779 2.44537 10
      vertex -2.4863 0.261321 10
      vertex 0.772542 2.37764 10
    endloop
  endfacet
  facet normal 0 0 1
    outer loop
      vertex 0.261321 2.4863 10
      vertex -2.4863 0.261321 10
      vertex 0.519779 2.44537 10
    endloop
  endfacet
  facet normal 0 0 1
    outer loop
      vertex 0 2.5 10
      vertex -2.4863 0.261321 10
      vertex 0.261321 2.4863 10
    endloop
  endfacet
  facet normal 0 0 1
    outer loop
      vertex -0.261321 2.4863 10
      vertex -2.4863 0.261321 10
      vertex 0 2.5 10
    endloop
  endfacet
  facet normal 0 0 1
    outer loop
      vertex -0.519779 2.44537 10
      vertex -2.4863 0.261321 10
      vertex -0.261321 2.4863 10
    endloop
  endfacet
  facet normal 0 0 1
    outer loop
      vertex -0.772542 2.37764 10
      vertex -2.4863 0.261321 10
      vertex -0.519779 2.44537 10
    endloop
  endfacet
  facet normal 0 0 1
    outer loop
      vertex -1.01684 2.28386 10
      vertex -2.4863 0.261321 10
      vertex -0.772542 2.37764 10
    endloop
  endfacet
  facet normal 0 0 1
    outer loop
      vertex -1.25 2.16506 10
      vertex -2.4863 0.261321 10
      vertex -1.01684 2.28386 10
    endloop
  endfacet
  facet normal 0 0 1
    outer loop
      vertex -1.46946 2.02254 10
      vertex -2.4863 0.261321 10
      vertex -1.25 2.16506 10
    endloop
  endfacet
  facet normal 0 0 1
    outer loop
      vertex -1.67283 1.85786 10
      vertex -2.4863 0.261321 10
      vertex -1.46946 2.02254 10
    endloop
  endfacet
  facet normal 0 0 1
    outer loop
      vertex -1.85786 1.67283 10
      vertex -2.4863 0.261321 10
      vertex -1.67283 1.85786 10
    endloop
  endfacet
  facet normal 0 0 1
    outer loop
      vertex -2.02254 1.46946 10
      vertex -2.4863 0.261321 10
      vertex -1.85786 1.67283 10
    endloop
  endfacet
  facet normal 0 0 1
    outer loop
      vertex -2.16506 1.25 10
      vertex -2.4863 0.261321 10
      vertex -2.02254 1.46946 10
    endloop
  endfacet
  facet normal 0 0 1
    outer loop
      vertex -2.28386 1.01684 10
      vertex -2.4863 0.261321 10
      vertex -2.16506 1.25 10
    endloop
  endfacet
  facet normal 0 0 1
    outer loop
      vertex -2.37764 0.772542 10
      vertex -2.4863 0.261321 10
      vertex -2.28386 1.01684 10
    endloop
  endfacet
  facet normal 0 0 1
    outer loop
      vertex -2.44537 0.519779 10
      vertex -2.4863 0.261321 10
      vertex -2.37764 0.772542 10
    endloop
  endfacet
endsolid OpenSCAD_Model
