solid OpenSCAD_Model
  facet normal -1 0 0
    outer loop
      vertex 0 0 0
      vertex 0 0 2
      vertex 0 62.5 0
    endloop
  endfacet
  facet normal -1 0 0
    outer loop
      vertex 0 62.5 0
      vertex 0 0 2
      vertex 0 62.5 2
    endloop
  endfacet
  facet normal 0 -1 0
    outer loop
      vertex 0 0 2
      vertex 0 0 0
      vertex 43.5 0 0
    endloop
  endfacet
  facet normal 0 -1 0
    outer loop
      vertex 43.5 0 2
      vertex 0 0 2
      vertex 43.5 0 0
    endloop
  endfacet
  facet normal 0 0 -1
    outer loop
      vertex 12.5 33.5 0
      vertex 0 62.5 0
      vertex 43.5 0 0
    endloop
  endfacet
  facet normal 0 0 -1
    outer loop
      vertex 43.5 0 0
      vertex 0 62.5 0
      vertex 43.5 62.5 0
    endloop
  endfacet
  facet normal 0 0 -1
    outer loop
      vertex 0 0 0
      vertex 0 62.5 0
      vertex 9 33.5 0
    endloop
  endfacet
  facet normal 0 0 -1
    outer loop
      vertex 0 0 0
      vertex 9 33.5 0
      vertex 9 25 0
    endloop
  endfacet
  facet normal 0 0 -1
    outer loop
      vertex 0 0 0
      vertex 9 25 0
      vertex 43.5 0 0
    endloop
  endfacet
  facet normal 0 0 -1
    outer loop
      vertex 9 25 0
      vertex 12.5 25 0
      vertex 43.5 0 0
    endloop
  endfacet
  facet normal 0 0 -1
    outer loop
      vertex 9 33.5 0
      vertex 0 62.5 0
      vertex 12.5 33.5 0
    endloop
  endfacet
  facet normal 0 0 -1
    outer loop
      vertex 12.5 33.5 0
      vertex 43.5 0 0
      vertex 12.5 25 0
    endloop
  endfacet
  facet normal 0 1 0
    outer loop
      vertex 0 62.5 0
      vertex 0 62.5 2
      vertex 43.5 62.5 0
    endloop
  endfacet
  facet normal 0 1 0
    outer loop
      vertex 43.5 62.5 0
      vertex 0 62.5 2
      vertex 43.5 62.5 2
    endloop
  endfacet
  facet normal 0 0 1
    outer loop
      vertex 9 25 2
      vertex 0 0 2
      vertex 43.5 0 2
    endloop
  endfacet
  facet normal 0 0 1
    outer loop
      vertex 43.5 62.5 2
      vertex 0 62.5 2
      vertex 43.5 0 2
    endloop
  endfacet
  facet normal 0 0 1
    outer loop
      vertex 12.5 25 2
      vertex 9 25 2
      vertex 43.5 0 2
    endloop
  endfacet
  facet normal 0 0 1
    outer loop
      vertex 0 62.5 2
      vertex 0 0 2
      vertex 9 25 2
    endloop
  endfacet
  facet normal 0 0 1
    outer loop
      vertex 0 62.5 2
      vertex 9 25 2
      vertex 9 33.5 2
    endloop
  endfacet
  facet normal 0 0 1
    outer loop
      vertex 0 62.5 2
      vertex 12.5 33.5 2
      vertex 43.5 0 2
    endloop
  endfacet
  facet normal 0 0 1
    outer loop
      vertex 0 62.5 2
      vertex 9 33.5 2
      vertex 12.5 33.5 2
    endloop
  endfacet
  facet normal 0 0 1
    outer loop
      vertex 12.5 33.5 2
      vertex 12.5 25 2
      vertex 43.5 0 2
    endloop
  endfacet
  facet normal 1 0 0
    outer loop
      vertex 43.5 0 2
      vertex 43.5 0 0
      vertex 43.5 62.5 0
    endloop
  endfacet
  facet normal 1 0 0
    outer loop
      vertex 43.5 62.5 2
      vertex 43.5 0 2
      vertex 43.5 62.5 0
    endloop
  endfacet
  facet normal 1 0 0
    outer loop
      vertex 9 33.5 0
      vertex 9 33.5 2
      vertex 9 25 2
    endloop
  endfacet
  facet normal 1 0 0
    outer loop
      vertex 9 25 0
      vertex 9 33.5 0
      vertex 9 25 2
    endloop
  endfacet
  facet normal 0 -1 0
    outer loop
      vertex 12.5 33.5 0
      vertex 12.5 33.5 2
      vertex 9 33.5 2
    endloop
  endfacet
  facet normal 0 -1 0
    outer loop
      vertex 9 33.5 0
      vertex 12.5 33.5 0
      vertex 9 33.5 2
    endloop
  endfacet
  facet normal -1 0 0
    outer loop
      vertex 12.5 33.5 2
      vertex 12.5 33.5 0
      vertex 12.5 25 2
    endloop
  endfacet
  facet normal -1 0 0
    outer loop
      vertex 12.5 25 2
      vertex 12.5 33.5 0
      vertex 12.5 25 0
    endloop
  endfacet
  facet normal 0 1 0
    outer loop
      vertex 12.5 25 2
      vertex 12.5 25 0
      vertex 9 25 2
    endloop
  endfacet
  facet normal 0 1 0
    outer loop
      vertex 9 25 2
      vertex 12.5 25 0
      vertex 9 25 0
    endloop
  endfacet
endsolid OpenSCAD_Model
