G75*
%MOIN*%
%OFA0B0*%
%FSLAX25Y25*%
%IPPOS*%
%LPD*%
%AMOC8*
5,1,8,0,0,1.08239X$1,22.5*
%
%ADD10C,0.00000*%
%ADD11C,0.01000*%
%ADD12C,0.00600*%
%ADD13C,0.00800*%
%ADD14C,0.01200*%
%ADD15C,0.00500*%
%ADD16C,0.00945*%
D10*
X0017291Y0035785D02*
X0017291Y0088285D01*
X0039291Y0088285D01*
X0039291Y0113285D01*
X0017291Y0113285D01*
X0017291Y0185785D01*
X0202291Y0185785D01*
X0202291Y0035785D01*
X0017291Y0035785D01*
X0020992Y0045785D02*
X0020994Y0045943D01*
X0021000Y0046101D01*
X0021010Y0046259D01*
X0021024Y0046417D01*
X0021042Y0046574D01*
X0021063Y0046731D01*
X0021089Y0046887D01*
X0021119Y0047043D01*
X0021152Y0047198D01*
X0021190Y0047351D01*
X0021231Y0047504D01*
X0021276Y0047656D01*
X0021325Y0047807D01*
X0021378Y0047956D01*
X0021434Y0048104D01*
X0021494Y0048250D01*
X0021558Y0048395D01*
X0021626Y0048538D01*
X0021697Y0048680D01*
X0021771Y0048820D01*
X0021849Y0048957D01*
X0021931Y0049093D01*
X0022015Y0049227D01*
X0022104Y0049358D01*
X0022195Y0049487D01*
X0022290Y0049614D01*
X0022387Y0049739D01*
X0022488Y0049861D01*
X0022592Y0049980D01*
X0022699Y0050097D01*
X0022809Y0050211D01*
X0022922Y0050322D01*
X0023037Y0050431D01*
X0023155Y0050536D01*
X0023276Y0050638D01*
X0023399Y0050738D01*
X0023525Y0050834D01*
X0023653Y0050927D01*
X0023783Y0051017D01*
X0023916Y0051103D01*
X0024051Y0051187D01*
X0024187Y0051266D01*
X0024326Y0051343D01*
X0024467Y0051415D01*
X0024609Y0051485D01*
X0024753Y0051550D01*
X0024899Y0051612D01*
X0025046Y0051670D01*
X0025195Y0051725D01*
X0025345Y0051776D01*
X0025496Y0051823D01*
X0025648Y0051866D01*
X0025801Y0051905D01*
X0025956Y0051941D01*
X0026111Y0051972D01*
X0026267Y0052000D01*
X0026423Y0052024D01*
X0026580Y0052044D01*
X0026738Y0052060D01*
X0026895Y0052072D01*
X0027054Y0052080D01*
X0027212Y0052084D01*
X0027370Y0052084D01*
X0027528Y0052080D01*
X0027687Y0052072D01*
X0027844Y0052060D01*
X0028002Y0052044D01*
X0028159Y0052024D01*
X0028315Y0052000D01*
X0028471Y0051972D01*
X0028626Y0051941D01*
X0028781Y0051905D01*
X0028934Y0051866D01*
X0029086Y0051823D01*
X0029237Y0051776D01*
X0029387Y0051725D01*
X0029536Y0051670D01*
X0029683Y0051612D01*
X0029829Y0051550D01*
X0029973Y0051485D01*
X0030115Y0051415D01*
X0030256Y0051343D01*
X0030395Y0051266D01*
X0030531Y0051187D01*
X0030666Y0051103D01*
X0030799Y0051017D01*
X0030929Y0050927D01*
X0031057Y0050834D01*
X0031183Y0050738D01*
X0031306Y0050638D01*
X0031427Y0050536D01*
X0031545Y0050431D01*
X0031660Y0050322D01*
X0031773Y0050211D01*
X0031883Y0050097D01*
X0031990Y0049980D01*
X0032094Y0049861D01*
X0032195Y0049739D01*
X0032292Y0049614D01*
X0032387Y0049487D01*
X0032478Y0049358D01*
X0032567Y0049227D01*
X0032651Y0049093D01*
X0032733Y0048957D01*
X0032811Y0048820D01*
X0032885Y0048680D01*
X0032956Y0048538D01*
X0033024Y0048395D01*
X0033088Y0048250D01*
X0033148Y0048104D01*
X0033204Y0047956D01*
X0033257Y0047807D01*
X0033306Y0047656D01*
X0033351Y0047504D01*
X0033392Y0047351D01*
X0033430Y0047198D01*
X0033463Y0047043D01*
X0033493Y0046887D01*
X0033519Y0046731D01*
X0033540Y0046574D01*
X0033558Y0046417D01*
X0033572Y0046259D01*
X0033582Y0046101D01*
X0033588Y0045943D01*
X0033590Y0045785D01*
X0033588Y0045627D01*
X0033582Y0045469D01*
X0033572Y0045311D01*
X0033558Y0045153D01*
X0033540Y0044996D01*
X0033519Y0044839D01*
X0033493Y0044683D01*
X0033463Y0044527D01*
X0033430Y0044372D01*
X0033392Y0044219D01*
X0033351Y0044066D01*
X0033306Y0043914D01*
X0033257Y0043763D01*
X0033204Y0043614D01*
X0033148Y0043466D01*
X0033088Y0043320D01*
X0033024Y0043175D01*
X0032956Y0043032D01*
X0032885Y0042890D01*
X0032811Y0042750D01*
X0032733Y0042613D01*
X0032651Y0042477D01*
X0032567Y0042343D01*
X0032478Y0042212D01*
X0032387Y0042083D01*
X0032292Y0041956D01*
X0032195Y0041831D01*
X0032094Y0041709D01*
X0031990Y0041590D01*
X0031883Y0041473D01*
X0031773Y0041359D01*
X0031660Y0041248D01*
X0031545Y0041139D01*
X0031427Y0041034D01*
X0031306Y0040932D01*
X0031183Y0040832D01*
X0031057Y0040736D01*
X0030929Y0040643D01*
X0030799Y0040553D01*
X0030666Y0040467D01*
X0030531Y0040383D01*
X0030395Y0040304D01*
X0030256Y0040227D01*
X0030115Y0040155D01*
X0029973Y0040085D01*
X0029829Y0040020D01*
X0029683Y0039958D01*
X0029536Y0039900D01*
X0029387Y0039845D01*
X0029237Y0039794D01*
X0029086Y0039747D01*
X0028934Y0039704D01*
X0028781Y0039665D01*
X0028626Y0039629D01*
X0028471Y0039598D01*
X0028315Y0039570D01*
X0028159Y0039546D01*
X0028002Y0039526D01*
X0027844Y0039510D01*
X0027687Y0039498D01*
X0027528Y0039490D01*
X0027370Y0039486D01*
X0027212Y0039486D01*
X0027054Y0039490D01*
X0026895Y0039498D01*
X0026738Y0039510D01*
X0026580Y0039526D01*
X0026423Y0039546D01*
X0026267Y0039570D01*
X0026111Y0039598D01*
X0025956Y0039629D01*
X0025801Y0039665D01*
X0025648Y0039704D01*
X0025496Y0039747D01*
X0025345Y0039794D01*
X0025195Y0039845D01*
X0025046Y0039900D01*
X0024899Y0039958D01*
X0024753Y0040020D01*
X0024609Y0040085D01*
X0024467Y0040155D01*
X0024326Y0040227D01*
X0024187Y0040304D01*
X0024051Y0040383D01*
X0023916Y0040467D01*
X0023783Y0040553D01*
X0023653Y0040643D01*
X0023525Y0040736D01*
X0023399Y0040832D01*
X0023276Y0040932D01*
X0023155Y0041034D01*
X0023037Y0041139D01*
X0022922Y0041248D01*
X0022809Y0041359D01*
X0022699Y0041473D01*
X0022592Y0041590D01*
X0022488Y0041709D01*
X0022387Y0041831D01*
X0022290Y0041956D01*
X0022195Y0042083D01*
X0022104Y0042212D01*
X0022015Y0042343D01*
X0021931Y0042477D01*
X0021849Y0042613D01*
X0021771Y0042750D01*
X0021697Y0042890D01*
X0021626Y0043032D01*
X0021558Y0043175D01*
X0021494Y0043320D01*
X0021434Y0043466D01*
X0021378Y0043614D01*
X0021325Y0043763D01*
X0021276Y0043914D01*
X0021231Y0044066D01*
X0021190Y0044219D01*
X0021152Y0044372D01*
X0021119Y0044527D01*
X0021089Y0044683D01*
X0021063Y0044839D01*
X0021042Y0044996D01*
X0021024Y0045153D01*
X0021010Y0045311D01*
X0021000Y0045469D01*
X0020994Y0045627D01*
X0020992Y0045785D01*
X0020402Y0070785D02*
X0020404Y0070862D01*
X0020410Y0070938D01*
X0020420Y0071014D01*
X0020434Y0071089D01*
X0020451Y0071164D01*
X0020473Y0071237D01*
X0020498Y0071310D01*
X0020528Y0071381D01*
X0020560Y0071450D01*
X0020597Y0071517D01*
X0020636Y0071583D01*
X0020679Y0071646D01*
X0020726Y0071707D01*
X0020775Y0071766D01*
X0020828Y0071822D01*
X0020883Y0071875D01*
X0020941Y0071925D01*
X0021001Y0071972D01*
X0021064Y0072016D01*
X0021129Y0072057D01*
X0021196Y0072094D01*
X0021265Y0072128D01*
X0021335Y0072158D01*
X0021407Y0072184D01*
X0021481Y0072206D01*
X0021555Y0072225D01*
X0021630Y0072240D01*
X0021706Y0072251D01*
X0021782Y0072258D01*
X0021859Y0072261D01*
X0021935Y0072260D01*
X0022012Y0072255D01*
X0022088Y0072246D01*
X0022164Y0072233D01*
X0022238Y0072216D01*
X0022312Y0072196D01*
X0022385Y0072171D01*
X0022456Y0072143D01*
X0022526Y0072111D01*
X0022594Y0072076D01*
X0022660Y0072037D01*
X0022724Y0071995D01*
X0022785Y0071949D01*
X0022845Y0071900D01*
X0022901Y0071849D01*
X0022955Y0071794D01*
X0023006Y0071737D01*
X0023054Y0071677D01*
X0023099Y0071615D01*
X0023140Y0071550D01*
X0023178Y0071484D01*
X0023213Y0071416D01*
X0023243Y0071345D01*
X0023271Y0071274D01*
X0023294Y0071201D01*
X0023314Y0071127D01*
X0023330Y0071052D01*
X0023342Y0070976D01*
X0023350Y0070900D01*
X0023354Y0070823D01*
X0023354Y0070747D01*
X0023350Y0070670D01*
X0023342Y0070594D01*
X0023330Y0070518D01*
X0023314Y0070443D01*
X0023294Y0070369D01*
X0023271Y0070296D01*
X0023243Y0070225D01*
X0023213Y0070154D01*
X0023178Y0070086D01*
X0023140Y0070020D01*
X0023099Y0069955D01*
X0023054Y0069893D01*
X0023006Y0069833D01*
X0022955Y0069776D01*
X0022901Y0069721D01*
X0022845Y0069670D01*
X0022785Y0069621D01*
X0022724Y0069575D01*
X0022660Y0069533D01*
X0022594Y0069494D01*
X0022526Y0069459D01*
X0022456Y0069427D01*
X0022385Y0069399D01*
X0022312Y0069374D01*
X0022238Y0069354D01*
X0022164Y0069337D01*
X0022088Y0069324D01*
X0022012Y0069315D01*
X0021935Y0069310D01*
X0021859Y0069309D01*
X0021782Y0069312D01*
X0021706Y0069319D01*
X0021630Y0069330D01*
X0021555Y0069345D01*
X0021481Y0069364D01*
X0021407Y0069386D01*
X0021335Y0069412D01*
X0021265Y0069442D01*
X0021196Y0069476D01*
X0021129Y0069513D01*
X0021064Y0069554D01*
X0021001Y0069598D01*
X0020941Y0069645D01*
X0020883Y0069695D01*
X0020828Y0069748D01*
X0020775Y0069804D01*
X0020726Y0069863D01*
X0020679Y0069924D01*
X0020636Y0069987D01*
X0020597Y0070053D01*
X0020560Y0070120D01*
X0020528Y0070189D01*
X0020498Y0070260D01*
X0020473Y0070333D01*
X0020451Y0070406D01*
X0020434Y0070481D01*
X0020420Y0070556D01*
X0020410Y0070632D01*
X0020404Y0070708D01*
X0020402Y0070785D01*
X0031229Y0070785D02*
X0031231Y0070862D01*
X0031237Y0070938D01*
X0031247Y0071014D01*
X0031261Y0071089D01*
X0031278Y0071164D01*
X0031300Y0071237D01*
X0031325Y0071310D01*
X0031355Y0071381D01*
X0031387Y0071450D01*
X0031424Y0071517D01*
X0031463Y0071583D01*
X0031506Y0071646D01*
X0031553Y0071707D01*
X0031602Y0071766D01*
X0031655Y0071822D01*
X0031710Y0071875D01*
X0031768Y0071925D01*
X0031828Y0071972D01*
X0031891Y0072016D01*
X0031956Y0072057D01*
X0032023Y0072094D01*
X0032092Y0072128D01*
X0032162Y0072158D01*
X0032234Y0072184D01*
X0032308Y0072206D01*
X0032382Y0072225D01*
X0032457Y0072240D01*
X0032533Y0072251D01*
X0032609Y0072258D01*
X0032686Y0072261D01*
X0032762Y0072260D01*
X0032839Y0072255D01*
X0032915Y0072246D01*
X0032991Y0072233D01*
X0033065Y0072216D01*
X0033139Y0072196D01*
X0033212Y0072171D01*
X0033283Y0072143D01*
X0033353Y0072111D01*
X0033421Y0072076D01*
X0033487Y0072037D01*
X0033551Y0071995D01*
X0033612Y0071949D01*
X0033672Y0071900D01*
X0033728Y0071849D01*
X0033782Y0071794D01*
X0033833Y0071737D01*
X0033881Y0071677D01*
X0033926Y0071615D01*
X0033967Y0071550D01*
X0034005Y0071484D01*
X0034040Y0071416D01*
X0034070Y0071345D01*
X0034098Y0071274D01*
X0034121Y0071201D01*
X0034141Y0071127D01*
X0034157Y0071052D01*
X0034169Y0070976D01*
X0034177Y0070900D01*
X0034181Y0070823D01*
X0034181Y0070747D01*
X0034177Y0070670D01*
X0034169Y0070594D01*
X0034157Y0070518D01*
X0034141Y0070443D01*
X0034121Y0070369D01*
X0034098Y0070296D01*
X0034070Y0070225D01*
X0034040Y0070154D01*
X0034005Y0070086D01*
X0033967Y0070020D01*
X0033926Y0069955D01*
X0033881Y0069893D01*
X0033833Y0069833D01*
X0033782Y0069776D01*
X0033728Y0069721D01*
X0033672Y0069670D01*
X0033612Y0069621D01*
X0033551Y0069575D01*
X0033487Y0069533D01*
X0033421Y0069494D01*
X0033353Y0069459D01*
X0033283Y0069427D01*
X0033212Y0069399D01*
X0033139Y0069374D01*
X0033065Y0069354D01*
X0032991Y0069337D01*
X0032915Y0069324D01*
X0032839Y0069315D01*
X0032762Y0069310D01*
X0032686Y0069309D01*
X0032609Y0069312D01*
X0032533Y0069319D01*
X0032457Y0069330D01*
X0032382Y0069345D01*
X0032308Y0069364D01*
X0032234Y0069386D01*
X0032162Y0069412D01*
X0032092Y0069442D01*
X0032023Y0069476D01*
X0031956Y0069513D01*
X0031891Y0069554D01*
X0031828Y0069598D01*
X0031768Y0069645D01*
X0031710Y0069695D01*
X0031655Y0069748D01*
X0031602Y0069804D01*
X0031553Y0069863D01*
X0031506Y0069924D01*
X0031463Y0069987D01*
X0031424Y0070053D01*
X0031387Y0070120D01*
X0031355Y0070189D01*
X0031325Y0070260D01*
X0031300Y0070333D01*
X0031278Y0070406D01*
X0031261Y0070481D01*
X0031247Y0070556D01*
X0031237Y0070632D01*
X0031231Y0070708D01*
X0031229Y0070785D01*
X0020992Y0175785D02*
X0020994Y0175943D01*
X0021000Y0176101D01*
X0021010Y0176259D01*
X0021024Y0176417D01*
X0021042Y0176574D01*
X0021063Y0176731D01*
X0021089Y0176887D01*
X0021119Y0177043D01*
X0021152Y0177198D01*
X0021190Y0177351D01*
X0021231Y0177504D01*
X0021276Y0177656D01*
X0021325Y0177807D01*
X0021378Y0177956D01*
X0021434Y0178104D01*
X0021494Y0178250D01*
X0021558Y0178395D01*
X0021626Y0178538D01*
X0021697Y0178680D01*
X0021771Y0178820D01*
X0021849Y0178957D01*
X0021931Y0179093D01*
X0022015Y0179227D01*
X0022104Y0179358D01*
X0022195Y0179487D01*
X0022290Y0179614D01*
X0022387Y0179739D01*
X0022488Y0179861D01*
X0022592Y0179980D01*
X0022699Y0180097D01*
X0022809Y0180211D01*
X0022922Y0180322D01*
X0023037Y0180431D01*
X0023155Y0180536D01*
X0023276Y0180638D01*
X0023399Y0180738D01*
X0023525Y0180834D01*
X0023653Y0180927D01*
X0023783Y0181017D01*
X0023916Y0181103D01*
X0024051Y0181187D01*
X0024187Y0181266D01*
X0024326Y0181343D01*
X0024467Y0181415D01*
X0024609Y0181485D01*
X0024753Y0181550D01*
X0024899Y0181612D01*
X0025046Y0181670D01*
X0025195Y0181725D01*
X0025345Y0181776D01*
X0025496Y0181823D01*
X0025648Y0181866D01*
X0025801Y0181905D01*
X0025956Y0181941D01*
X0026111Y0181972D01*
X0026267Y0182000D01*
X0026423Y0182024D01*
X0026580Y0182044D01*
X0026738Y0182060D01*
X0026895Y0182072D01*
X0027054Y0182080D01*
X0027212Y0182084D01*
X0027370Y0182084D01*
X0027528Y0182080D01*
X0027687Y0182072D01*
X0027844Y0182060D01*
X0028002Y0182044D01*
X0028159Y0182024D01*
X0028315Y0182000D01*
X0028471Y0181972D01*
X0028626Y0181941D01*
X0028781Y0181905D01*
X0028934Y0181866D01*
X0029086Y0181823D01*
X0029237Y0181776D01*
X0029387Y0181725D01*
X0029536Y0181670D01*
X0029683Y0181612D01*
X0029829Y0181550D01*
X0029973Y0181485D01*
X0030115Y0181415D01*
X0030256Y0181343D01*
X0030395Y0181266D01*
X0030531Y0181187D01*
X0030666Y0181103D01*
X0030799Y0181017D01*
X0030929Y0180927D01*
X0031057Y0180834D01*
X0031183Y0180738D01*
X0031306Y0180638D01*
X0031427Y0180536D01*
X0031545Y0180431D01*
X0031660Y0180322D01*
X0031773Y0180211D01*
X0031883Y0180097D01*
X0031990Y0179980D01*
X0032094Y0179861D01*
X0032195Y0179739D01*
X0032292Y0179614D01*
X0032387Y0179487D01*
X0032478Y0179358D01*
X0032567Y0179227D01*
X0032651Y0179093D01*
X0032733Y0178957D01*
X0032811Y0178820D01*
X0032885Y0178680D01*
X0032956Y0178538D01*
X0033024Y0178395D01*
X0033088Y0178250D01*
X0033148Y0178104D01*
X0033204Y0177956D01*
X0033257Y0177807D01*
X0033306Y0177656D01*
X0033351Y0177504D01*
X0033392Y0177351D01*
X0033430Y0177198D01*
X0033463Y0177043D01*
X0033493Y0176887D01*
X0033519Y0176731D01*
X0033540Y0176574D01*
X0033558Y0176417D01*
X0033572Y0176259D01*
X0033582Y0176101D01*
X0033588Y0175943D01*
X0033590Y0175785D01*
X0033588Y0175627D01*
X0033582Y0175469D01*
X0033572Y0175311D01*
X0033558Y0175153D01*
X0033540Y0174996D01*
X0033519Y0174839D01*
X0033493Y0174683D01*
X0033463Y0174527D01*
X0033430Y0174372D01*
X0033392Y0174219D01*
X0033351Y0174066D01*
X0033306Y0173914D01*
X0033257Y0173763D01*
X0033204Y0173614D01*
X0033148Y0173466D01*
X0033088Y0173320D01*
X0033024Y0173175D01*
X0032956Y0173032D01*
X0032885Y0172890D01*
X0032811Y0172750D01*
X0032733Y0172613D01*
X0032651Y0172477D01*
X0032567Y0172343D01*
X0032478Y0172212D01*
X0032387Y0172083D01*
X0032292Y0171956D01*
X0032195Y0171831D01*
X0032094Y0171709D01*
X0031990Y0171590D01*
X0031883Y0171473D01*
X0031773Y0171359D01*
X0031660Y0171248D01*
X0031545Y0171139D01*
X0031427Y0171034D01*
X0031306Y0170932D01*
X0031183Y0170832D01*
X0031057Y0170736D01*
X0030929Y0170643D01*
X0030799Y0170553D01*
X0030666Y0170467D01*
X0030531Y0170383D01*
X0030395Y0170304D01*
X0030256Y0170227D01*
X0030115Y0170155D01*
X0029973Y0170085D01*
X0029829Y0170020D01*
X0029683Y0169958D01*
X0029536Y0169900D01*
X0029387Y0169845D01*
X0029237Y0169794D01*
X0029086Y0169747D01*
X0028934Y0169704D01*
X0028781Y0169665D01*
X0028626Y0169629D01*
X0028471Y0169598D01*
X0028315Y0169570D01*
X0028159Y0169546D01*
X0028002Y0169526D01*
X0027844Y0169510D01*
X0027687Y0169498D01*
X0027528Y0169490D01*
X0027370Y0169486D01*
X0027212Y0169486D01*
X0027054Y0169490D01*
X0026895Y0169498D01*
X0026738Y0169510D01*
X0026580Y0169526D01*
X0026423Y0169546D01*
X0026267Y0169570D01*
X0026111Y0169598D01*
X0025956Y0169629D01*
X0025801Y0169665D01*
X0025648Y0169704D01*
X0025496Y0169747D01*
X0025345Y0169794D01*
X0025195Y0169845D01*
X0025046Y0169900D01*
X0024899Y0169958D01*
X0024753Y0170020D01*
X0024609Y0170085D01*
X0024467Y0170155D01*
X0024326Y0170227D01*
X0024187Y0170304D01*
X0024051Y0170383D01*
X0023916Y0170467D01*
X0023783Y0170553D01*
X0023653Y0170643D01*
X0023525Y0170736D01*
X0023399Y0170832D01*
X0023276Y0170932D01*
X0023155Y0171034D01*
X0023037Y0171139D01*
X0022922Y0171248D01*
X0022809Y0171359D01*
X0022699Y0171473D01*
X0022592Y0171590D01*
X0022488Y0171709D01*
X0022387Y0171831D01*
X0022290Y0171956D01*
X0022195Y0172083D01*
X0022104Y0172212D01*
X0022015Y0172343D01*
X0021931Y0172477D01*
X0021849Y0172613D01*
X0021771Y0172750D01*
X0021697Y0172890D01*
X0021626Y0173032D01*
X0021558Y0173175D01*
X0021494Y0173320D01*
X0021434Y0173466D01*
X0021378Y0173614D01*
X0021325Y0173763D01*
X0021276Y0173914D01*
X0021231Y0174066D01*
X0021190Y0174219D01*
X0021152Y0174372D01*
X0021119Y0174527D01*
X0021089Y0174683D01*
X0021063Y0174839D01*
X0021042Y0174996D01*
X0021024Y0175153D01*
X0021010Y0175311D01*
X0021000Y0175469D01*
X0020994Y0175627D01*
X0020992Y0175785D01*
X0185992Y0175785D02*
X0185994Y0175943D01*
X0186000Y0176101D01*
X0186010Y0176259D01*
X0186024Y0176417D01*
X0186042Y0176574D01*
X0186063Y0176731D01*
X0186089Y0176887D01*
X0186119Y0177043D01*
X0186152Y0177198D01*
X0186190Y0177351D01*
X0186231Y0177504D01*
X0186276Y0177656D01*
X0186325Y0177807D01*
X0186378Y0177956D01*
X0186434Y0178104D01*
X0186494Y0178250D01*
X0186558Y0178395D01*
X0186626Y0178538D01*
X0186697Y0178680D01*
X0186771Y0178820D01*
X0186849Y0178957D01*
X0186931Y0179093D01*
X0187015Y0179227D01*
X0187104Y0179358D01*
X0187195Y0179487D01*
X0187290Y0179614D01*
X0187387Y0179739D01*
X0187488Y0179861D01*
X0187592Y0179980D01*
X0187699Y0180097D01*
X0187809Y0180211D01*
X0187922Y0180322D01*
X0188037Y0180431D01*
X0188155Y0180536D01*
X0188276Y0180638D01*
X0188399Y0180738D01*
X0188525Y0180834D01*
X0188653Y0180927D01*
X0188783Y0181017D01*
X0188916Y0181103D01*
X0189051Y0181187D01*
X0189187Y0181266D01*
X0189326Y0181343D01*
X0189467Y0181415D01*
X0189609Y0181485D01*
X0189753Y0181550D01*
X0189899Y0181612D01*
X0190046Y0181670D01*
X0190195Y0181725D01*
X0190345Y0181776D01*
X0190496Y0181823D01*
X0190648Y0181866D01*
X0190801Y0181905D01*
X0190956Y0181941D01*
X0191111Y0181972D01*
X0191267Y0182000D01*
X0191423Y0182024D01*
X0191580Y0182044D01*
X0191738Y0182060D01*
X0191895Y0182072D01*
X0192054Y0182080D01*
X0192212Y0182084D01*
X0192370Y0182084D01*
X0192528Y0182080D01*
X0192687Y0182072D01*
X0192844Y0182060D01*
X0193002Y0182044D01*
X0193159Y0182024D01*
X0193315Y0182000D01*
X0193471Y0181972D01*
X0193626Y0181941D01*
X0193781Y0181905D01*
X0193934Y0181866D01*
X0194086Y0181823D01*
X0194237Y0181776D01*
X0194387Y0181725D01*
X0194536Y0181670D01*
X0194683Y0181612D01*
X0194829Y0181550D01*
X0194973Y0181485D01*
X0195115Y0181415D01*
X0195256Y0181343D01*
X0195395Y0181266D01*
X0195531Y0181187D01*
X0195666Y0181103D01*
X0195799Y0181017D01*
X0195929Y0180927D01*
X0196057Y0180834D01*
X0196183Y0180738D01*
X0196306Y0180638D01*
X0196427Y0180536D01*
X0196545Y0180431D01*
X0196660Y0180322D01*
X0196773Y0180211D01*
X0196883Y0180097D01*
X0196990Y0179980D01*
X0197094Y0179861D01*
X0197195Y0179739D01*
X0197292Y0179614D01*
X0197387Y0179487D01*
X0197478Y0179358D01*
X0197567Y0179227D01*
X0197651Y0179093D01*
X0197733Y0178957D01*
X0197811Y0178820D01*
X0197885Y0178680D01*
X0197956Y0178538D01*
X0198024Y0178395D01*
X0198088Y0178250D01*
X0198148Y0178104D01*
X0198204Y0177956D01*
X0198257Y0177807D01*
X0198306Y0177656D01*
X0198351Y0177504D01*
X0198392Y0177351D01*
X0198430Y0177198D01*
X0198463Y0177043D01*
X0198493Y0176887D01*
X0198519Y0176731D01*
X0198540Y0176574D01*
X0198558Y0176417D01*
X0198572Y0176259D01*
X0198582Y0176101D01*
X0198588Y0175943D01*
X0198590Y0175785D01*
X0198588Y0175627D01*
X0198582Y0175469D01*
X0198572Y0175311D01*
X0198558Y0175153D01*
X0198540Y0174996D01*
X0198519Y0174839D01*
X0198493Y0174683D01*
X0198463Y0174527D01*
X0198430Y0174372D01*
X0198392Y0174219D01*
X0198351Y0174066D01*
X0198306Y0173914D01*
X0198257Y0173763D01*
X0198204Y0173614D01*
X0198148Y0173466D01*
X0198088Y0173320D01*
X0198024Y0173175D01*
X0197956Y0173032D01*
X0197885Y0172890D01*
X0197811Y0172750D01*
X0197733Y0172613D01*
X0197651Y0172477D01*
X0197567Y0172343D01*
X0197478Y0172212D01*
X0197387Y0172083D01*
X0197292Y0171956D01*
X0197195Y0171831D01*
X0197094Y0171709D01*
X0196990Y0171590D01*
X0196883Y0171473D01*
X0196773Y0171359D01*
X0196660Y0171248D01*
X0196545Y0171139D01*
X0196427Y0171034D01*
X0196306Y0170932D01*
X0196183Y0170832D01*
X0196057Y0170736D01*
X0195929Y0170643D01*
X0195799Y0170553D01*
X0195666Y0170467D01*
X0195531Y0170383D01*
X0195395Y0170304D01*
X0195256Y0170227D01*
X0195115Y0170155D01*
X0194973Y0170085D01*
X0194829Y0170020D01*
X0194683Y0169958D01*
X0194536Y0169900D01*
X0194387Y0169845D01*
X0194237Y0169794D01*
X0194086Y0169747D01*
X0193934Y0169704D01*
X0193781Y0169665D01*
X0193626Y0169629D01*
X0193471Y0169598D01*
X0193315Y0169570D01*
X0193159Y0169546D01*
X0193002Y0169526D01*
X0192844Y0169510D01*
X0192687Y0169498D01*
X0192528Y0169490D01*
X0192370Y0169486D01*
X0192212Y0169486D01*
X0192054Y0169490D01*
X0191895Y0169498D01*
X0191738Y0169510D01*
X0191580Y0169526D01*
X0191423Y0169546D01*
X0191267Y0169570D01*
X0191111Y0169598D01*
X0190956Y0169629D01*
X0190801Y0169665D01*
X0190648Y0169704D01*
X0190496Y0169747D01*
X0190345Y0169794D01*
X0190195Y0169845D01*
X0190046Y0169900D01*
X0189899Y0169958D01*
X0189753Y0170020D01*
X0189609Y0170085D01*
X0189467Y0170155D01*
X0189326Y0170227D01*
X0189187Y0170304D01*
X0189051Y0170383D01*
X0188916Y0170467D01*
X0188783Y0170553D01*
X0188653Y0170643D01*
X0188525Y0170736D01*
X0188399Y0170832D01*
X0188276Y0170932D01*
X0188155Y0171034D01*
X0188037Y0171139D01*
X0187922Y0171248D01*
X0187809Y0171359D01*
X0187699Y0171473D01*
X0187592Y0171590D01*
X0187488Y0171709D01*
X0187387Y0171831D01*
X0187290Y0171956D01*
X0187195Y0172083D01*
X0187104Y0172212D01*
X0187015Y0172343D01*
X0186931Y0172477D01*
X0186849Y0172613D01*
X0186771Y0172750D01*
X0186697Y0172890D01*
X0186626Y0173032D01*
X0186558Y0173175D01*
X0186494Y0173320D01*
X0186434Y0173466D01*
X0186378Y0173614D01*
X0186325Y0173763D01*
X0186276Y0173914D01*
X0186231Y0174066D01*
X0186190Y0174219D01*
X0186152Y0174372D01*
X0186119Y0174527D01*
X0186089Y0174683D01*
X0186063Y0174839D01*
X0186042Y0174996D01*
X0186024Y0175153D01*
X0186010Y0175311D01*
X0186000Y0175469D01*
X0185994Y0175627D01*
X0185992Y0175785D01*
X0185992Y0045785D02*
X0185994Y0045943D01*
X0186000Y0046101D01*
X0186010Y0046259D01*
X0186024Y0046417D01*
X0186042Y0046574D01*
X0186063Y0046731D01*
X0186089Y0046887D01*
X0186119Y0047043D01*
X0186152Y0047198D01*
X0186190Y0047351D01*
X0186231Y0047504D01*
X0186276Y0047656D01*
X0186325Y0047807D01*
X0186378Y0047956D01*
X0186434Y0048104D01*
X0186494Y0048250D01*
X0186558Y0048395D01*
X0186626Y0048538D01*
X0186697Y0048680D01*
X0186771Y0048820D01*
X0186849Y0048957D01*
X0186931Y0049093D01*
X0187015Y0049227D01*
X0187104Y0049358D01*
X0187195Y0049487D01*
X0187290Y0049614D01*
X0187387Y0049739D01*
X0187488Y0049861D01*
X0187592Y0049980D01*
X0187699Y0050097D01*
X0187809Y0050211D01*
X0187922Y0050322D01*
X0188037Y0050431D01*
X0188155Y0050536D01*
X0188276Y0050638D01*
X0188399Y0050738D01*
X0188525Y0050834D01*
X0188653Y0050927D01*
X0188783Y0051017D01*
X0188916Y0051103D01*
X0189051Y0051187D01*
X0189187Y0051266D01*
X0189326Y0051343D01*
X0189467Y0051415D01*
X0189609Y0051485D01*
X0189753Y0051550D01*
X0189899Y0051612D01*
X0190046Y0051670D01*
X0190195Y0051725D01*
X0190345Y0051776D01*
X0190496Y0051823D01*
X0190648Y0051866D01*
X0190801Y0051905D01*
X0190956Y0051941D01*
X0191111Y0051972D01*
X0191267Y0052000D01*
X0191423Y0052024D01*
X0191580Y0052044D01*
X0191738Y0052060D01*
X0191895Y0052072D01*
X0192054Y0052080D01*
X0192212Y0052084D01*
X0192370Y0052084D01*
X0192528Y0052080D01*
X0192687Y0052072D01*
X0192844Y0052060D01*
X0193002Y0052044D01*
X0193159Y0052024D01*
X0193315Y0052000D01*
X0193471Y0051972D01*
X0193626Y0051941D01*
X0193781Y0051905D01*
X0193934Y0051866D01*
X0194086Y0051823D01*
X0194237Y0051776D01*
X0194387Y0051725D01*
X0194536Y0051670D01*
X0194683Y0051612D01*
X0194829Y0051550D01*
X0194973Y0051485D01*
X0195115Y0051415D01*
X0195256Y0051343D01*
X0195395Y0051266D01*
X0195531Y0051187D01*
X0195666Y0051103D01*
X0195799Y0051017D01*
X0195929Y0050927D01*
X0196057Y0050834D01*
X0196183Y0050738D01*
X0196306Y0050638D01*
X0196427Y0050536D01*
X0196545Y0050431D01*
X0196660Y0050322D01*
X0196773Y0050211D01*
X0196883Y0050097D01*
X0196990Y0049980D01*
X0197094Y0049861D01*
X0197195Y0049739D01*
X0197292Y0049614D01*
X0197387Y0049487D01*
X0197478Y0049358D01*
X0197567Y0049227D01*
X0197651Y0049093D01*
X0197733Y0048957D01*
X0197811Y0048820D01*
X0197885Y0048680D01*
X0197956Y0048538D01*
X0198024Y0048395D01*
X0198088Y0048250D01*
X0198148Y0048104D01*
X0198204Y0047956D01*
X0198257Y0047807D01*
X0198306Y0047656D01*
X0198351Y0047504D01*
X0198392Y0047351D01*
X0198430Y0047198D01*
X0198463Y0047043D01*
X0198493Y0046887D01*
X0198519Y0046731D01*
X0198540Y0046574D01*
X0198558Y0046417D01*
X0198572Y0046259D01*
X0198582Y0046101D01*
X0198588Y0045943D01*
X0198590Y0045785D01*
X0198588Y0045627D01*
X0198582Y0045469D01*
X0198572Y0045311D01*
X0198558Y0045153D01*
X0198540Y0044996D01*
X0198519Y0044839D01*
X0198493Y0044683D01*
X0198463Y0044527D01*
X0198430Y0044372D01*
X0198392Y0044219D01*
X0198351Y0044066D01*
X0198306Y0043914D01*
X0198257Y0043763D01*
X0198204Y0043614D01*
X0198148Y0043466D01*
X0198088Y0043320D01*
X0198024Y0043175D01*
X0197956Y0043032D01*
X0197885Y0042890D01*
X0197811Y0042750D01*
X0197733Y0042613D01*
X0197651Y0042477D01*
X0197567Y0042343D01*
X0197478Y0042212D01*
X0197387Y0042083D01*
X0197292Y0041956D01*
X0197195Y0041831D01*
X0197094Y0041709D01*
X0196990Y0041590D01*
X0196883Y0041473D01*
X0196773Y0041359D01*
X0196660Y0041248D01*
X0196545Y0041139D01*
X0196427Y0041034D01*
X0196306Y0040932D01*
X0196183Y0040832D01*
X0196057Y0040736D01*
X0195929Y0040643D01*
X0195799Y0040553D01*
X0195666Y0040467D01*
X0195531Y0040383D01*
X0195395Y0040304D01*
X0195256Y0040227D01*
X0195115Y0040155D01*
X0194973Y0040085D01*
X0194829Y0040020D01*
X0194683Y0039958D01*
X0194536Y0039900D01*
X0194387Y0039845D01*
X0194237Y0039794D01*
X0194086Y0039747D01*
X0193934Y0039704D01*
X0193781Y0039665D01*
X0193626Y0039629D01*
X0193471Y0039598D01*
X0193315Y0039570D01*
X0193159Y0039546D01*
X0193002Y0039526D01*
X0192844Y0039510D01*
X0192687Y0039498D01*
X0192528Y0039490D01*
X0192370Y0039486D01*
X0192212Y0039486D01*
X0192054Y0039490D01*
X0191895Y0039498D01*
X0191738Y0039510D01*
X0191580Y0039526D01*
X0191423Y0039546D01*
X0191267Y0039570D01*
X0191111Y0039598D01*
X0190956Y0039629D01*
X0190801Y0039665D01*
X0190648Y0039704D01*
X0190496Y0039747D01*
X0190345Y0039794D01*
X0190195Y0039845D01*
X0190046Y0039900D01*
X0189899Y0039958D01*
X0189753Y0040020D01*
X0189609Y0040085D01*
X0189467Y0040155D01*
X0189326Y0040227D01*
X0189187Y0040304D01*
X0189051Y0040383D01*
X0188916Y0040467D01*
X0188783Y0040553D01*
X0188653Y0040643D01*
X0188525Y0040736D01*
X0188399Y0040832D01*
X0188276Y0040932D01*
X0188155Y0041034D01*
X0188037Y0041139D01*
X0187922Y0041248D01*
X0187809Y0041359D01*
X0187699Y0041473D01*
X0187592Y0041590D01*
X0187488Y0041709D01*
X0187387Y0041831D01*
X0187290Y0041956D01*
X0187195Y0042083D01*
X0187104Y0042212D01*
X0187015Y0042343D01*
X0186931Y0042477D01*
X0186849Y0042613D01*
X0186771Y0042750D01*
X0186697Y0042890D01*
X0186626Y0043032D01*
X0186558Y0043175D01*
X0186494Y0043320D01*
X0186434Y0043466D01*
X0186378Y0043614D01*
X0186325Y0043763D01*
X0186276Y0043914D01*
X0186231Y0044066D01*
X0186190Y0044219D01*
X0186152Y0044372D01*
X0186119Y0044527D01*
X0186089Y0044683D01*
X0186063Y0044839D01*
X0186042Y0044996D01*
X0186024Y0045153D01*
X0186010Y0045311D01*
X0186000Y0045469D01*
X0185994Y0045627D01*
X0185992Y0045785D01*
D11*
X0161923Y0172285D02*
X0162857Y0173219D01*
X0162857Y0176956D01*
X0163791Y0176022D02*
X0161923Y0176022D01*
X0159740Y0176956D02*
X0159740Y0173219D01*
X0158806Y0172285D01*
X0156938Y0172285D01*
X0156003Y0173219D01*
X0153663Y0173219D02*
X0152729Y0174153D01*
X0149926Y0174153D01*
X0149926Y0175088D02*
X0149926Y0172285D01*
X0152729Y0172285D01*
X0153663Y0173219D01*
X0152729Y0176022D02*
X0150860Y0176022D01*
X0149926Y0175088D01*
X0147586Y0176022D02*
X0146651Y0176022D01*
X0145717Y0175088D01*
X0144783Y0176022D01*
X0143849Y0175088D01*
X0143849Y0172285D01*
X0145717Y0172285D02*
X0145717Y0175088D01*
X0147586Y0176022D02*
X0147586Y0172285D01*
X0141508Y0175088D02*
X0137772Y0175088D01*
X0135431Y0177890D02*
X0133563Y0176022D01*
X0131695Y0177890D01*
X0131695Y0172285D01*
X0129354Y0172285D02*
X0127486Y0172285D01*
X0128420Y0172285D02*
X0128420Y0176022D01*
X0129354Y0176022D01*
X0128420Y0177890D02*
X0128420Y0178824D01*
X0125302Y0176022D02*
X0122500Y0176022D01*
X0121566Y0175088D01*
X0121566Y0172285D01*
X0119225Y0172285D02*
X0117357Y0172285D01*
X0118291Y0172285D02*
X0118291Y0176022D01*
X0119225Y0176022D01*
X0118291Y0177890D02*
X0118291Y0178824D01*
X0125302Y0176022D02*
X0125302Y0172285D01*
X0135431Y0172285D02*
X0135431Y0177890D01*
X0156003Y0176956D02*
X0156938Y0177890D01*
X0158806Y0177890D01*
X0159740Y0176956D01*
D12*
X0157353Y0155988D02*
X0156218Y0154854D01*
X0156218Y0153719D01*
X0157353Y0152585D01*
X0158767Y0152585D02*
X0160469Y0152585D01*
X0161036Y0153152D01*
X0161036Y0154287D01*
X0160469Y0154854D01*
X0158767Y0154854D01*
X0162357Y0155988D02*
X0163491Y0154854D01*
X0163491Y0153719D01*
X0162357Y0152585D01*
X0151214Y0152585D02*
X0148946Y0154854D01*
X0148946Y0155421D01*
X0149513Y0155988D01*
X0150647Y0155988D01*
X0151214Y0155421D01*
X0151214Y0152585D02*
X0148946Y0152585D01*
X0147531Y0153152D02*
X0145262Y0155421D01*
X0145262Y0153152D01*
X0145830Y0152585D01*
X0146964Y0152585D01*
X0147531Y0153152D01*
X0147531Y0155421D01*
X0146964Y0155988D01*
X0145830Y0155988D01*
X0145262Y0155421D01*
X0143848Y0155421D02*
X0143281Y0155988D01*
X0142146Y0155988D01*
X0141579Y0155421D01*
X0141579Y0154854D01*
X0143848Y0152585D01*
X0141579Y0152585D01*
X0140165Y0153152D02*
X0137896Y0155421D01*
X0137896Y0153152D01*
X0138463Y0152585D01*
X0139598Y0152585D01*
X0140165Y0153152D01*
X0140165Y0155421D01*
X0139598Y0155988D01*
X0138463Y0155988D01*
X0137896Y0155421D01*
X0132798Y0154287D02*
X0132798Y0153152D01*
X0132231Y0152585D01*
X0130530Y0152585D01*
X0130530Y0155988D01*
X0130530Y0154854D02*
X0132231Y0154854D01*
X0132798Y0154287D01*
X0129115Y0153152D02*
X0128548Y0153719D01*
X0126847Y0153719D01*
X0126847Y0154287D02*
X0126847Y0152585D01*
X0128548Y0152585D01*
X0129115Y0153152D01*
X0128548Y0154854D02*
X0127414Y0154854D01*
X0126847Y0154287D01*
X0125432Y0154854D02*
X0125432Y0152585D01*
X0123164Y0152585D02*
X0123164Y0154287D01*
X0123731Y0154854D01*
X0125432Y0154854D01*
X0120615Y0154854D02*
X0120615Y0152018D01*
X0121182Y0151451D01*
X0121749Y0151451D01*
X0119294Y0153152D02*
X0119294Y0154854D01*
X0119294Y0153152D02*
X0118726Y0152585D01*
X0117025Y0152585D01*
X0117025Y0154854D01*
X0115610Y0155988D02*
X0115043Y0155988D01*
X0115043Y0152585D01*
X0115610Y0152585D02*
X0114476Y0152585D01*
X0113155Y0152585D02*
X0112021Y0152585D01*
X0112588Y0152585D02*
X0112588Y0154854D01*
X0113155Y0154854D01*
X0112588Y0155988D02*
X0112588Y0156555D01*
X0110700Y0154287D02*
X0110700Y0153152D01*
X0110132Y0152585D01*
X0108998Y0152585D01*
X0108431Y0153152D01*
X0108431Y0154287D01*
X0108998Y0154854D01*
X0110132Y0154854D01*
X0110700Y0154287D01*
X0107016Y0154287D02*
X0107016Y0153152D01*
X0106449Y0152585D01*
X0104748Y0152585D01*
X0104748Y0155988D01*
X0104748Y0154854D02*
X0106449Y0154854D01*
X0107016Y0154287D01*
X0103333Y0154287D02*
X0103333Y0153152D01*
X0102766Y0152585D01*
X0101632Y0152585D01*
X0101065Y0153719D02*
X0103333Y0153719D01*
X0103333Y0154287D02*
X0102766Y0154854D01*
X0101632Y0154854D01*
X0101065Y0154287D01*
X0101065Y0153719D01*
X0099650Y0154287D02*
X0099083Y0154854D01*
X0097382Y0154854D01*
X0097949Y0153719D02*
X0097382Y0153152D01*
X0097949Y0152585D01*
X0099650Y0152585D01*
X0099083Y0153719D02*
X0099650Y0154287D01*
X0099083Y0153719D02*
X0097949Y0153719D01*
X0095967Y0152585D02*
X0094833Y0152585D01*
X0095400Y0152585D02*
X0095400Y0154854D01*
X0095967Y0154854D01*
X0095400Y0155988D02*
X0095400Y0156555D01*
X0093512Y0154287D02*
X0093512Y0153152D01*
X0092944Y0152585D01*
X0091243Y0152585D01*
X0091243Y0152018D02*
X0091243Y0154854D01*
X0092944Y0154854D01*
X0093512Y0154287D01*
X0092377Y0151451D02*
X0091810Y0151451D01*
X0091243Y0152018D01*
X0089828Y0152585D02*
X0089828Y0154854D01*
X0088127Y0154854D01*
X0087560Y0154287D01*
X0087560Y0152585D01*
X0086145Y0152585D02*
X0084444Y0152585D01*
X0083877Y0153152D01*
X0084444Y0153719D01*
X0085578Y0153719D01*
X0086145Y0154287D01*
X0085578Y0154854D01*
X0083877Y0154854D01*
X0081895Y0153152D02*
X0081895Y0152585D01*
X0081328Y0152585D01*
X0081328Y0153152D01*
X0081895Y0153152D01*
X0081328Y0152585D02*
X0082462Y0151451D01*
X0076324Y0152585D02*
X0074055Y0152585D01*
X0072640Y0152585D02*
X0070372Y0152585D01*
X0068957Y0153152D02*
X0068390Y0152585D01*
X0067256Y0152585D01*
X0066689Y0153152D01*
X0068957Y0153152D02*
X0068957Y0155421D01*
X0068390Y0155988D01*
X0067256Y0155988D01*
X0066689Y0155421D01*
X0072640Y0155988D02*
X0072640Y0152585D01*
X0076324Y0152585D02*
X0076324Y0155988D01*
X0071817Y0113392D02*
X0071817Y0111123D01*
X0071817Y0112258D02*
X0075219Y0112258D01*
X0074085Y0111123D01*
X0075219Y0109709D02*
X0071817Y0109709D01*
X0071817Y0107440D02*
X0075219Y0107440D01*
X0074085Y0108575D01*
X0075219Y0109709D01*
X0120615Y0155988D02*
X0120615Y0156555D01*
D13*
X0119476Y0164685D02*
X0116673Y0164685D01*
X0116673Y0167488D02*
X0116673Y0168188D01*
X0117374Y0168889D01*
X0118775Y0168889D01*
X0119476Y0168188D01*
X0116673Y0167488D02*
X0119476Y0164685D01*
X0125881Y0167488D02*
X0127282Y0164685D01*
X0128683Y0167488D01*
X0130485Y0166787D02*
X0130485Y0166086D01*
X0133287Y0166086D01*
X0133287Y0165386D02*
X0133287Y0166787D01*
X0132587Y0167488D01*
X0131186Y0167488D01*
X0130485Y0166787D01*
X0131186Y0164685D02*
X0132587Y0164685D01*
X0133287Y0165386D01*
X0135089Y0164685D02*
X0136490Y0166086D01*
X0135790Y0166086D02*
X0137891Y0166086D01*
X0137891Y0164685D02*
X0137891Y0168889D01*
X0135790Y0168889D01*
X0135089Y0168188D01*
X0135089Y0166787D01*
X0135790Y0166086D01*
X0093891Y0175386D02*
X0093191Y0174685D01*
X0091790Y0174685D01*
X0091089Y0175386D01*
X0091089Y0176787D01*
X0092490Y0176787D01*
X0091089Y0178188D02*
X0091790Y0178889D01*
X0093191Y0178889D01*
X0093891Y0178188D01*
X0093891Y0175386D01*
X0089287Y0174685D02*
X0089287Y0178889D01*
X0086485Y0174685D01*
X0086485Y0178889D01*
X0084683Y0178889D02*
X0082582Y0178889D01*
X0081881Y0178188D01*
X0081881Y0175386D01*
X0082582Y0174685D01*
X0084683Y0174685D01*
X0084683Y0178889D01*
X0057391Y0178889D02*
X0057391Y0176787D01*
X0055990Y0177488D01*
X0055290Y0177488D01*
X0054589Y0176787D01*
X0054589Y0175386D01*
X0055290Y0174685D01*
X0056691Y0174685D01*
X0057391Y0175386D01*
X0057391Y0178889D02*
X0054589Y0178889D01*
X0052787Y0178889D02*
X0052787Y0176086D01*
X0051386Y0174685D01*
X0049985Y0176086D01*
X0049985Y0178889D01*
X0051892Y0065884D02*
X0054694Y0065884D01*
X0055395Y0065183D01*
X0055395Y0063081D01*
X0051191Y0063081D01*
X0051191Y0065183D01*
X0051892Y0065884D01*
X0051191Y0061280D02*
X0055395Y0061280D01*
X0055395Y0058477D02*
X0051191Y0061280D01*
X0051191Y0058477D02*
X0055395Y0058477D01*
X0054694Y0056676D02*
X0055395Y0055975D01*
X0055395Y0054574D01*
X0054694Y0053873D01*
X0051892Y0053873D01*
X0051191Y0054574D01*
X0051191Y0055975D01*
X0051892Y0056676D01*
X0053293Y0056676D01*
X0053293Y0055275D01*
X0045395Y0054678D02*
X0045395Y0056079D01*
X0044694Y0056780D01*
X0043994Y0056780D01*
X0043293Y0056079D01*
X0042593Y0056780D01*
X0041892Y0056780D01*
X0041191Y0056079D01*
X0041191Y0054678D01*
X0041892Y0053977D01*
X0043293Y0055378D02*
X0043293Y0056079D01*
X0044694Y0053977D02*
X0045395Y0054678D01*
X0045395Y0058581D02*
X0042593Y0058581D01*
X0041191Y0059982D01*
X0042593Y0061384D01*
X0045395Y0061384D01*
X0061191Y0060579D02*
X0061191Y0059178D01*
X0061892Y0058477D01*
X0064694Y0058477D01*
X0065395Y0059178D01*
X0065395Y0060579D01*
X0064694Y0061280D01*
X0065395Y0063081D02*
X0061191Y0063081D01*
X0061191Y0065884D01*
X0061892Y0061280D02*
X0061191Y0060579D01*
X0061892Y0056676D02*
X0061191Y0055975D01*
X0061191Y0054574D01*
X0061892Y0053873D01*
X0063293Y0054574D02*
X0063293Y0055975D01*
X0062593Y0056676D01*
X0061892Y0056676D01*
X0063293Y0054574D02*
X0063994Y0053873D01*
X0064694Y0053873D01*
X0065395Y0054574D01*
X0065395Y0055975D01*
X0064694Y0056676D01*
X0071191Y0055975D02*
X0071191Y0054574D01*
X0071892Y0053873D01*
X0073293Y0054574D02*
X0073293Y0055975D01*
X0072593Y0056676D01*
X0071892Y0056676D01*
X0071191Y0055975D01*
X0073293Y0054574D02*
X0073994Y0053873D01*
X0074694Y0053873D01*
X0075395Y0054574D01*
X0075395Y0055975D01*
X0074694Y0056676D01*
X0075395Y0058477D02*
X0075395Y0060579D01*
X0074694Y0061280D01*
X0071892Y0061280D01*
X0071191Y0060579D01*
X0071191Y0058477D01*
X0075395Y0058477D01*
X0073994Y0063081D02*
X0075395Y0064482D01*
X0073994Y0065884D01*
X0071191Y0065884D01*
X0073293Y0065884D02*
X0073293Y0063081D01*
X0073994Y0063081D02*
X0071191Y0063081D01*
D14*
X0067291Y0051785D02*
X0057791Y0051785D01*
X0057791Y0040285D01*
X0067291Y0040285D01*
X0067291Y0051785D01*
X0077791Y0051785D01*
X0077791Y0040285D01*
X0067291Y0040285D01*
X0057791Y0040285D02*
X0047291Y0040285D01*
X0047291Y0051785D01*
X0037791Y0051785D01*
X0037791Y0040285D01*
X0047291Y0040285D01*
X0047291Y0051785D02*
X0057791Y0051785D01*
X0059791Y0170785D02*
X0059791Y0182785D01*
X0069791Y0182785D01*
X0069791Y0170785D01*
X0059791Y0170785D01*
X0069791Y0170785D02*
X0079791Y0170785D01*
X0079791Y0182785D01*
X0069791Y0182785D01*
D15*
X0077980Y0146218D02*
X0078768Y0146218D01*
X0077980Y0146218D02*
X0077980Y0075352D01*
X0078571Y0075352D01*
X0175028Y0075352D02*
X0201602Y0075352D01*
X0201602Y0146218D01*
X0175028Y0146218D01*
D16*
X0172390Y0071021D02*
X0172392Y0071064D01*
X0172398Y0071106D01*
X0172408Y0071148D01*
X0172421Y0071189D01*
X0172438Y0071229D01*
X0172459Y0071266D01*
X0172483Y0071302D01*
X0172510Y0071335D01*
X0172540Y0071366D01*
X0172573Y0071394D01*
X0172608Y0071419D01*
X0172645Y0071440D01*
X0172684Y0071458D01*
X0172724Y0071472D01*
X0172766Y0071483D01*
X0172808Y0071490D01*
X0172851Y0071493D01*
X0172894Y0071492D01*
X0172937Y0071487D01*
X0172979Y0071478D01*
X0173020Y0071466D01*
X0173060Y0071450D01*
X0173098Y0071430D01*
X0173134Y0071407D01*
X0173168Y0071380D01*
X0173200Y0071351D01*
X0173228Y0071319D01*
X0173254Y0071284D01*
X0173276Y0071248D01*
X0173295Y0071209D01*
X0173310Y0071169D01*
X0173322Y0071128D01*
X0173330Y0071085D01*
X0173334Y0071042D01*
X0173334Y0071000D01*
X0173330Y0070957D01*
X0173322Y0070914D01*
X0173310Y0070873D01*
X0173295Y0070833D01*
X0173276Y0070794D01*
X0173254Y0070758D01*
X0173228Y0070723D01*
X0173200Y0070691D01*
X0173168Y0070662D01*
X0173134Y0070635D01*
X0173098Y0070612D01*
X0173060Y0070592D01*
X0173020Y0070576D01*
X0172979Y0070564D01*
X0172937Y0070555D01*
X0172894Y0070550D01*
X0172851Y0070549D01*
X0172808Y0070552D01*
X0172766Y0070559D01*
X0172724Y0070570D01*
X0172684Y0070584D01*
X0172645Y0070602D01*
X0172608Y0070623D01*
X0172573Y0070648D01*
X0172540Y0070676D01*
X0172510Y0070707D01*
X0172483Y0070740D01*
X0172459Y0070776D01*
X0172438Y0070813D01*
X0172421Y0070853D01*
X0172408Y0070894D01*
X0172398Y0070936D01*
X0172392Y0070978D01*
X0172390Y0071021D01*
M02*
