%
M48
M72
T01C0.01181
T02C0.02953
T03C0.03150
T04C0.12598
%
T01
X57000Y100000
X50000Y100000
X55000Y115000
X40000Y97000
X45000Y36000
X54500Y28500
X15500Y92500
X23500Y89500
X15500Y125500
X15500Y117500
X52500Y49000
X90000Y20500
X152500Y47000
X34500Y32000
X35500Y46500
X96500Y102000
X85000Y102000
X102500Y73000
X91000Y86000
X120500Y100000
X146000Y98500
X146000Y88000
X148000Y119500
X146000Y144500
X74500Y82000
X49500Y84000
X13000Y85000
X43000Y89000
X74500Y60500
X55000Y60500
X75000Y47000
X89500Y49500
X126000Y58000
X119500Y31500
X100000Y31500
X121500Y20000
X156000Y12000
X140500Y4000
X127000Y8500
X68500Y11500
X22000Y24000
X22000Y41000
X74500Y121000
X86000Y121000
X121000Y125000
X101500Y144500
X156000Y133500
X40000Y105000
X89000Y75000
X94500Y116000
X24000Y134500
X135020Y132980
X140000Y129500
X68000Y126500
X68000Y136500
X68000Y100000
X33500Y108500
X39000Y52500
X79500Y49500
X150000Y35000
X122500Y52500
X112500Y62500
X121000Y9500
X109000Y84000
X131500Y86000
X125500Y31500
X130000Y47000
X138500Y74500
X113000Y69500
X89000Y68500
X74500Y73500
X24000Y48000
X94000Y145000
X145000Y47000
X71500Y28000
X49500Y90000
X93000Y63500
X103500Y85500
X105000Y62500
X98500Y79500
X144000Y62000
X135000Y6000
X141500Y78500
X135000Y34500
X110000Y76500
X139000Y14000
X144000Y54500
X142500Y82500
X139000Y34500
X110000Y80000
X126000Y125000
X111000Y88000
X138000Y88000
X107500Y100000
X107500Y88000
T02
X15413Y35000
X4587Y35000
T03
X55000Y10000
X47500Y141000
X57500Y141000
X25000Y10000
X35000Y10000
X45000Y10000
X30000Y55000
X30000Y65000
X30000Y75000
T04
X10000Y10000
X10000Y140000
X175000Y10000
X175000Y140000
M30
