G75*
%MOIN*%
%OFA0B0*%
%FSLAX25Y25*%
%IPPOS*%
%LPD*%
%AMOC8*
5,1,8,0,0,1.08239X$1,22.5*
%
%ADD10C,0.00000*%
%ADD11C,0.01831*%
%ADD12R,0.15748X0.15748*%
%ADD13C,0.05150*%
%ADD14C,0.04362*%
%ADD15C,0.01000*%
%ADD16C,0.02381*%
%ADD17C,0.00800*%
%ADD18C,0.02400*%
%ADD19C,0.01600*%
%ADD20C,0.01200*%
D10*
X0005343Y0035785D02*
X0185343Y0035785D01*
X0185441Y0035787D01*
X0185539Y0035793D01*
X0185637Y0035802D01*
X0185734Y0035816D01*
X0185831Y0035833D01*
X0185927Y0035854D01*
X0186022Y0035879D01*
X0186116Y0035907D01*
X0186208Y0035940D01*
X0186300Y0035975D01*
X0186390Y0036015D01*
X0186478Y0036057D01*
X0186565Y0036104D01*
X0186649Y0036153D01*
X0186732Y0036206D01*
X0186812Y0036262D01*
X0186891Y0036322D01*
X0186967Y0036384D01*
X0187040Y0036449D01*
X0187111Y0036517D01*
X0187179Y0036588D01*
X0187244Y0036661D01*
X0187306Y0036737D01*
X0187366Y0036816D01*
X0187422Y0036896D01*
X0187475Y0036979D01*
X0187524Y0037063D01*
X0187571Y0037150D01*
X0187613Y0037238D01*
X0187653Y0037328D01*
X0187688Y0037420D01*
X0187721Y0037512D01*
X0187749Y0037606D01*
X0187774Y0037701D01*
X0187795Y0037797D01*
X0187812Y0037894D01*
X0187826Y0037991D01*
X0187835Y0038089D01*
X0187841Y0038187D01*
X0187843Y0038285D01*
X0187843Y0183285D01*
X0187841Y0183383D01*
X0187835Y0183481D01*
X0187826Y0183579D01*
X0187812Y0183676D01*
X0187795Y0183773D01*
X0187774Y0183869D01*
X0187749Y0183964D01*
X0187721Y0184058D01*
X0187688Y0184150D01*
X0187653Y0184242D01*
X0187613Y0184332D01*
X0187571Y0184420D01*
X0187524Y0184507D01*
X0187475Y0184591D01*
X0187422Y0184674D01*
X0187366Y0184754D01*
X0187306Y0184833D01*
X0187244Y0184909D01*
X0187179Y0184982D01*
X0187111Y0185053D01*
X0187040Y0185121D01*
X0186967Y0185186D01*
X0186891Y0185248D01*
X0186812Y0185308D01*
X0186732Y0185364D01*
X0186649Y0185417D01*
X0186565Y0185466D01*
X0186478Y0185513D01*
X0186390Y0185555D01*
X0186300Y0185595D01*
X0186208Y0185630D01*
X0186116Y0185663D01*
X0186022Y0185691D01*
X0185927Y0185716D01*
X0185831Y0185737D01*
X0185734Y0185754D01*
X0185637Y0185768D01*
X0185539Y0185777D01*
X0185441Y0185783D01*
X0185343Y0185785D01*
X0005343Y0185785D01*
X0005245Y0185783D01*
X0005147Y0185777D01*
X0005049Y0185768D01*
X0004952Y0185754D01*
X0004855Y0185737D01*
X0004759Y0185716D01*
X0004664Y0185691D01*
X0004570Y0185663D01*
X0004478Y0185630D01*
X0004386Y0185595D01*
X0004296Y0185555D01*
X0004208Y0185513D01*
X0004121Y0185466D01*
X0004037Y0185417D01*
X0003954Y0185364D01*
X0003874Y0185308D01*
X0003795Y0185248D01*
X0003719Y0185186D01*
X0003646Y0185121D01*
X0003575Y0185053D01*
X0003507Y0184982D01*
X0003442Y0184909D01*
X0003380Y0184833D01*
X0003320Y0184754D01*
X0003264Y0184674D01*
X0003211Y0184591D01*
X0003162Y0184507D01*
X0003115Y0184420D01*
X0003073Y0184332D01*
X0003033Y0184242D01*
X0002998Y0184150D01*
X0002965Y0184058D01*
X0002937Y0183964D01*
X0002912Y0183869D01*
X0002891Y0183773D01*
X0002874Y0183676D01*
X0002860Y0183579D01*
X0002851Y0183481D01*
X0002845Y0183383D01*
X0002843Y0183285D01*
X0002843Y0038285D01*
X0002845Y0038187D01*
X0002851Y0038089D01*
X0002860Y0037991D01*
X0002874Y0037894D01*
X0002891Y0037797D01*
X0002912Y0037701D01*
X0002937Y0037606D01*
X0002965Y0037512D01*
X0002998Y0037420D01*
X0003033Y0037328D01*
X0003073Y0037238D01*
X0003115Y0037150D01*
X0003162Y0037063D01*
X0003211Y0036979D01*
X0003264Y0036896D01*
X0003320Y0036816D01*
X0003380Y0036737D01*
X0003442Y0036661D01*
X0003507Y0036588D01*
X0003575Y0036517D01*
X0003646Y0036449D01*
X0003719Y0036384D01*
X0003795Y0036322D01*
X0003874Y0036262D01*
X0003954Y0036206D01*
X0004037Y0036153D01*
X0004121Y0036104D01*
X0004208Y0036057D01*
X0004296Y0036015D01*
X0004386Y0035975D01*
X0004478Y0035940D01*
X0004570Y0035907D01*
X0004664Y0035879D01*
X0004759Y0035854D01*
X0004855Y0035833D01*
X0004952Y0035816D01*
X0005049Y0035802D01*
X0005147Y0035793D01*
X0005245Y0035787D01*
X0005343Y0035785D01*
X0006544Y0045785D02*
X0006546Y0045943D01*
X0006552Y0046101D01*
X0006562Y0046259D01*
X0006576Y0046417D01*
X0006594Y0046574D01*
X0006615Y0046731D01*
X0006641Y0046887D01*
X0006671Y0047043D01*
X0006704Y0047198D01*
X0006742Y0047351D01*
X0006783Y0047504D01*
X0006828Y0047656D01*
X0006877Y0047807D01*
X0006930Y0047956D01*
X0006986Y0048104D01*
X0007046Y0048250D01*
X0007110Y0048395D01*
X0007178Y0048538D01*
X0007249Y0048680D01*
X0007323Y0048820D01*
X0007401Y0048957D01*
X0007483Y0049093D01*
X0007567Y0049227D01*
X0007656Y0049358D01*
X0007747Y0049487D01*
X0007842Y0049614D01*
X0007939Y0049739D01*
X0008040Y0049861D01*
X0008144Y0049980D01*
X0008251Y0050097D01*
X0008361Y0050211D01*
X0008474Y0050322D01*
X0008589Y0050431D01*
X0008707Y0050536D01*
X0008828Y0050638D01*
X0008951Y0050738D01*
X0009077Y0050834D01*
X0009205Y0050927D01*
X0009335Y0051017D01*
X0009468Y0051103D01*
X0009603Y0051187D01*
X0009739Y0051266D01*
X0009878Y0051343D01*
X0010019Y0051415D01*
X0010161Y0051485D01*
X0010305Y0051550D01*
X0010451Y0051612D01*
X0010598Y0051670D01*
X0010747Y0051725D01*
X0010897Y0051776D01*
X0011048Y0051823D01*
X0011200Y0051866D01*
X0011353Y0051905D01*
X0011508Y0051941D01*
X0011663Y0051972D01*
X0011819Y0052000D01*
X0011975Y0052024D01*
X0012132Y0052044D01*
X0012290Y0052060D01*
X0012447Y0052072D01*
X0012606Y0052080D01*
X0012764Y0052084D01*
X0012922Y0052084D01*
X0013080Y0052080D01*
X0013239Y0052072D01*
X0013396Y0052060D01*
X0013554Y0052044D01*
X0013711Y0052024D01*
X0013867Y0052000D01*
X0014023Y0051972D01*
X0014178Y0051941D01*
X0014333Y0051905D01*
X0014486Y0051866D01*
X0014638Y0051823D01*
X0014789Y0051776D01*
X0014939Y0051725D01*
X0015088Y0051670D01*
X0015235Y0051612D01*
X0015381Y0051550D01*
X0015525Y0051485D01*
X0015667Y0051415D01*
X0015808Y0051343D01*
X0015947Y0051266D01*
X0016083Y0051187D01*
X0016218Y0051103D01*
X0016351Y0051017D01*
X0016481Y0050927D01*
X0016609Y0050834D01*
X0016735Y0050738D01*
X0016858Y0050638D01*
X0016979Y0050536D01*
X0017097Y0050431D01*
X0017212Y0050322D01*
X0017325Y0050211D01*
X0017435Y0050097D01*
X0017542Y0049980D01*
X0017646Y0049861D01*
X0017747Y0049739D01*
X0017844Y0049614D01*
X0017939Y0049487D01*
X0018030Y0049358D01*
X0018119Y0049227D01*
X0018203Y0049093D01*
X0018285Y0048957D01*
X0018363Y0048820D01*
X0018437Y0048680D01*
X0018508Y0048538D01*
X0018576Y0048395D01*
X0018640Y0048250D01*
X0018700Y0048104D01*
X0018756Y0047956D01*
X0018809Y0047807D01*
X0018858Y0047656D01*
X0018903Y0047504D01*
X0018944Y0047351D01*
X0018982Y0047198D01*
X0019015Y0047043D01*
X0019045Y0046887D01*
X0019071Y0046731D01*
X0019092Y0046574D01*
X0019110Y0046417D01*
X0019124Y0046259D01*
X0019134Y0046101D01*
X0019140Y0045943D01*
X0019142Y0045785D01*
X0019140Y0045627D01*
X0019134Y0045469D01*
X0019124Y0045311D01*
X0019110Y0045153D01*
X0019092Y0044996D01*
X0019071Y0044839D01*
X0019045Y0044683D01*
X0019015Y0044527D01*
X0018982Y0044372D01*
X0018944Y0044219D01*
X0018903Y0044066D01*
X0018858Y0043914D01*
X0018809Y0043763D01*
X0018756Y0043614D01*
X0018700Y0043466D01*
X0018640Y0043320D01*
X0018576Y0043175D01*
X0018508Y0043032D01*
X0018437Y0042890D01*
X0018363Y0042750D01*
X0018285Y0042613D01*
X0018203Y0042477D01*
X0018119Y0042343D01*
X0018030Y0042212D01*
X0017939Y0042083D01*
X0017844Y0041956D01*
X0017747Y0041831D01*
X0017646Y0041709D01*
X0017542Y0041590D01*
X0017435Y0041473D01*
X0017325Y0041359D01*
X0017212Y0041248D01*
X0017097Y0041139D01*
X0016979Y0041034D01*
X0016858Y0040932D01*
X0016735Y0040832D01*
X0016609Y0040736D01*
X0016481Y0040643D01*
X0016351Y0040553D01*
X0016218Y0040467D01*
X0016083Y0040383D01*
X0015947Y0040304D01*
X0015808Y0040227D01*
X0015667Y0040155D01*
X0015525Y0040085D01*
X0015381Y0040020D01*
X0015235Y0039958D01*
X0015088Y0039900D01*
X0014939Y0039845D01*
X0014789Y0039794D01*
X0014638Y0039747D01*
X0014486Y0039704D01*
X0014333Y0039665D01*
X0014178Y0039629D01*
X0014023Y0039598D01*
X0013867Y0039570D01*
X0013711Y0039546D01*
X0013554Y0039526D01*
X0013396Y0039510D01*
X0013239Y0039498D01*
X0013080Y0039490D01*
X0012922Y0039486D01*
X0012764Y0039486D01*
X0012606Y0039490D01*
X0012447Y0039498D01*
X0012290Y0039510D01*
X0012132Y0039526D01*
X0011975Y0039546D01*
X0011819Y0039570D01*
X0011663Y0039598D01*
X0011508Y0039629D01*
X0011353Y0039665D01*
X0011200Y0039704D01*
X0011048Y0039747D01*
X0010897Y0039794D01*
X0010747Y0039845D01*
X0010598Y0039900D01*
X0010451Y0039958D01*
X0010305Y0040020D01*
X0010161Y0040085D01*
X0010019Y0040155D01*
X0009878Y0040227D01*
X0009739Y0040304D01*
X0009603Y0040383D01*
X0009468Y0040467D01*
X0009335Y0040553D01*
X0009205Y0040643D01*
X0009077Y0040736D01*
X0008951Y0040832D01*
X0008828Y0040932D01*
X0008707Y0041034D01*
X0008589Y0041139D01*
X0008474Y0041248D01*
X0008361Y0041359D01*
X0008251Y0041473D01*
X0008144Y0041590D01*
X0008040Y0041709D01*
X0007939Y0041831D01*
X0007842Y0041956D01*
X0007747Y0042083D01*
X0007656Y0042212D01*
X0007567Y0042343D01*
X0007483Y0042477D01*
X0007401Y0042613D01*
X0007323Y0042750D01*
X0007249Y0042890D01*
X0007178Y0043032D01*
X0007110Y0043175D01*
X0007046Y0043320D01*
X0006986Y0043466D01*
X0006930Y0043614D01*
X0006877Y0043763D01*
X0006828Y0043914D01*
X0006783Y0044066D01*
X0006742Y0044219D01*
X0006704Y0044372D01*
X0006671Y0044527D01*
X0006641Y0044683D01*
X0006615Y0044839D01*
X0006594Y0044996D01*
X0006576Y0045153D01*
X0006562Y0045311D01*
X0006552Y0045469D01*
X0006546Y0045627D01*
X0006544Y0045785D01*
X0005953Y0070785D02*
X0005955Y0070862D01*
X0005961Y0070938D01*
X0005971Y0071014D01*
X0005985Y0071089D01*
X0006002Y0071164D01*
X0006024Y0071237D01*
X0006049Y0071310D01*
X0006079Y0071381D01*
X0006111Y0071450D01*
X0006148Y0071517D01*
X0006187Y0071583D01*
X0006230Y0071646D01*
X0006277Y0071707D01*
X0006326Y0071766D01*
X0006379Y0071822D01*
X0006434Y0071875D01*
X0006492Y0071925D01*
X0006552Y0071972D01*
X0006615Y0072016D01*
X0006680Y0072057D01*
X0006747Y0072094D01*
X0006816Y0072128D01*
X0006886Y0072158D01*
X0006958Y0072184D01*
X0007032Y0072206D01*
X0007106Y0072225D01*
X0007181Y0072240D01*
X0007257Y0072251D01*
X0007333Y0072258D01*
X0007410Y0072261D01*
X0007486Y0072260D01*
X0007563Y0072255D01*
X0007639Y0072246D01*
X0007715Y0072233D01*
X0007789Y0072216D01*
X0007863Y0072196D01*
X0007936Y0072171D01*
X0008007Y0072143D01*
X0008077Y0072111D01*
X0008145Y0072076D01*
X0008211Y0072037D01*
X0008275Y0071995D01*
X0008336Y0071949D01*
X0008396Y0071900D01*
X0008452Y0071849D01*
X0008506Y0071794D01*
X0008557Y0071737D01*
X0008605Y0071677D01*
X0008650Y0071615D01*
X0008691Y0071550D01*
X0008729Y0071484D01*
X0008764Y0071416D01*
X0008794Y0071345D01*
X0008822Y0071274D01*
X0008845Y0071201D01*
X0008865Y0071127D01*
X0008881Y0071052D01*
X0008893Y0070976D01*
X0008901Y0070900D01*
X0008905Y0070823D01*
X0008905Y0070747D01*
X0008901Y0070670D01*
X0008893Y0070594D01*
X0008881Y0070518D01*
X0008865Y0070443D01*
X0008845Y0070369D01*
X0008822Y0070296D01*
X0008794Y0070225D01*
X0008764Y0070154D01*
X0008729Y0070086D01*
X0008691Y0070020D01*
X0008650Y0069955D01*
X0008605Y0069893D01*
X0008557Y0069833D01*
X0008506Y0069776D01*
X0008452Y0069721D01*
X0008396Y0069670D01*
X0008336Y0069621D01*
X0008275Y0069575D01*
X0008211Y0069533D01*
X0008145Y0069494D01*
X0008077Y0069459D01*
X0008007Y0069427D01*
X0007936Y0069399D01*
X0007863Y0069374D01*
X0007789Y0069354D01*
X0007715Y0069337D01*
X0007639Y0069324D01*
X0007563Y0069315D01*
X0007486Y0069310D01*
X0007410Y0069309D01*
X0007333Y0069312D01*
X0007257Y0069319D01*
X0007181Y0069330D01*
X0007106Y0069345D01*
X0007032Y0069364D01*
X0006958Y0069386D01*
X0006886Y0069412D01*
X0006816Y0069442D01*
X0006747Y0069476D01*
X0006680Y0069513D01*
X0006615Y0069554D01*
X0006552Y0069598D01*
X0006492Y0069645D01*
X0006434Y0069695D01*
X0006379Y0069748D01*
X0006326Y0069804D01*
X0006277Y0069863D01*
X0006230Y0069924D01*
X0006187Y0069987D01*
X0006148Y0070053D01*
X0006111Y0070120D01*
X0006079Y0070189D01*
X0006049Y0070260D01*
X0006024Y0070333D01*
X0006002Y0070406D01*
X0005985Y0070481D01*
X0005971Y0070556D01*
X0005961Y0070632D01*
X0005955Y0070708D01*
X0005953Y0070785D01*
X0016780Y0070785D02*
X0016782Y0070862D01*
X0016788Y0070938D01*
X0016798Y0071014D01*
X0016812Y0071089D01*
X0016829Y0071164D01*
X0016851Y0071237D01*
X0016876Y0071310D01*
X0016906Y0071381D01*
X0016938Y0071450D01*
X0016975Y0071517D01*
X0017014Y0071583D01*
X0017057Y0071646D01*
X0017104Y0071707D01*
X0017153Y0071766D01*
X0017206Y0071822D01*
X0017261Y0071875D01*
X0017319Y0071925D01*
X0017379Y0071972D01*
X0017442Y0072016D01*
X0017507Y0072057D01*
X0017574Y0072094D01*
X0017643Y0072128D01*
X0017713Y0072158D01*
X0017785Y0072184D01*
X0017859Y0072206D01*
X0017933Y0072225D01*
X0018008Y0072240D01*
X0018084Y0072251D01*
X0018160Y0072258D01*
X0018237Y0072261D01*
X0018313Y0072260D01*
X0018390Y0072255D01*
X0018466Y0072246D01*
X0018542Y0072233D01*
X0018616Y0072216D01*
X0018690Y0072196D01*
X0018763Y0072171D01*
X0018834Y0072143D01*
X0018904Y0072111D01*
X0018972Y0072076D01*
X0019038Y0072037D01*
X0019102Y0071995D01*
X0019163Y0071949D01*
X0019223Y0071900D01*
X0019279Y0071849D01*
X0019333Y0071794D01*
X0019384Y0071737D01*
X0019432Y0071677D01*
X0019477Y0071615D01*
X0019518Y0071550D01*
X0019556Y0071484D01*
X0019591Y0071416D01*
X0019621Y0071345D01*
X0019649Y0071274D01*
X0019672Y0071201D01*
X0019692Y0071127D01*
X0019708Y0071052D01*
X0019720Y0070976D01*
X0019728Y0070900D01*
X0019732Y0070823D01*
X0019732Y0070747D01*
X0019728Y0070670D01*
X0019720Y0070594D01*
X0019708Y0070518D01*
X0019692Y0070443D01*
X0019672Y0070369D01*
X0019649Y0070296D01*
X0019621Y0070225D01*
X0019591Y0070154D01*
X0019556Y0070086D01*
X0019518Y0070020D01*
X0019477Y0069955D01*
X0019432Y0069893D01*
X0019384Y0069833D01*
X0019333Y0069776D01*
X0019279Y0069721D01*
X0019223Y0069670D01*
X0019163Y0069621D01*
X0019102Y0069575D01*
X0019038Y0069533D01*
X0018972Y0069494D01*
X0018904Y0069459D01*
X0018834Y0069427D01*
X0018763Y0069399D01*
X0018690Y0069374D01*
X0018616Y0069354D01*
X0018542Y0069337D01*
X0018466Y0069324D01*
X0018390Y0069315D01*
X0018313Y0069310D01*
X0018237Y0069309D01*
X0018160Y0069312D01*
X0018084Y0069319D01*
X0018008Y0069330D01*
X0017933Y0069345D01*
X0017859Y0069364D01*
X0017785Y0069386D01*
X0017713Y0069412D01*
X0017643Y0069442D01*
X0017574Y0069476D01*
X0017507Y0069513D01*
X0017442Y0069554D01*
X0017379Y0069598D01*
X0017319Y0069645D01*
X0017261Y0069695D01*
X0017206Y0069748D01*
X0017153Y0069804D01*
X0017104Y0069863D01*
X0017057Y0069924D01*
X0017014Y0069987D01*
X0016975Y0070053D01*
X0016938Y0070120D01*
X0016906Y0070189D01*
X0016876Y0070260D01*
X0016851Y0070333D01*
X0016829Y0070406D01*
X0016812Y0070481D01*
X0016798Y0070556D01*
X0016788Y0070632D01*
X0016782Y0070708D01*
X0016780Y0070785D01*
X0026051Y0124407D02*
X0026053Y0124478D01*
X0026059Y0124549D01*
X0026069Y0124620D01*
X0026083Y0124689D01*
X0026100Y0124758D01*
X0026122Y0124826D01*
X0026147Y0124893D01*
X0026176Y0124958D01*
X0026208Y0125021D01*
X0026244Y0125083D01*
X0026283Y0125142D01*
X0026326Y0125199D01*
X0026371Y0125254D01*
X0026420Y0125306D01*
X0026471Y0125355D01*
X0026525Y0125401D01*
X0026582Y0125445D01*
X0026640Y0125485D01*
X0026701Y0125521D01*
X0026764Y0125555D01*
X0026829Y0125584D01*
X0026895Y0125610D01*
X0026963Y0125633D01*
X0027031Y0125651D01*
X0027101Y0125666D01*
X0027171Y0125677D01*
X0027242Y0125684D01*
X0027313Y0125687D01*
X0027384Y0125686D01*
X0027455Y0125681D01*
X0027526Y0125672D01*
X0027596Y0125659D01*
X0027665Y0125643D01*
X0027733Y0125622D01*
X0027800Y0125598D01*
X0027866Y0125570D01*
X0027929Y0125538D01*
X0027991Y0125503D01*
X0028051Y0125465D01*
X0028109Y0125423D01*
X0028164Y0125379D01*
X0028217Y0125331D01*
X0028267Y0125280D01*
X0028314Y0125227D01*
X0028358Y0125171D01*
X0028399Y0125113D01*
X0028437Y0125052D01*
X0028471Y0124990D01*
X0028501Y0124925D01*
X0028528Y0124860D01*
X0028552Y0124792D01*
X0028571Y0124724D01*
X0028587Y0124655D01*
X0028599Y0124584D01*
X0028607Y0124514D01*
X0028611Y0124443D01*
X0028611Y0124371D01*
X0028607Y0124300D01*
X0028599Y0124230D01*
X0028587Y0124159D01*
X0028571Y0124090D01*
X0028552Y0124022D01*
X0028528Y0123954D01*
X0028501Y0123889D01*
X0028471Y0123824D01*
X0028437Y0123762D01*
X0028399Y0123701D01*
X0028358Y0123643D01*
X0028314Y0123587D01*
X0028267Y0123534D01*
X0028217Y0123483D01*
X0028164Y0123435D01*
X0028109Y0123391D01*
X0028051Y0123349D01*
X0027991Y0123311D01*
X0027929Y0123276D01*
X0027866Y0123244D01*
X0027800Y0123216D01*
X0027733Y0123192D01*
X0027665Y0123171D01*
X0027596Y0123155D01*
X0027526Y0123142D01*
X0027455Y0123133D01*
X0027384Y0123128D01*
X0027313Y0123127D01*
X0027242Y0123130D01*
X0027171Y0123137D01*
X0027101Y0123148D01*
X0027031Y0123163D01*
X0026963Y0123181D01*
X0026895Y0123204D01*
X0026829Y0123230D01*
X0026764Y0123259D01*
X0026701Y0123293D01*
X0026640Y0123329D01*
X0026582Y0123369D01*
X0026525Y0123413D01*
X0026471Y0123459D01*
X0026420Y0123508D01*
X0026371Y0123560D01*
X0026326Y0123615D01*
X0026283Y0123672D01*
X0026244Y0123731D01*
X0026208Y0123793D01*
X0026176Y0123856D01*
X0026147Y0123921D01*
X0026122Y0123988D01*
X0026100Y0124056D01*
X0026083Y0124125D01*
X0026069Y0124194D01*
X0026059Y0124265D01*
X0026053Y0124336D01*
X0026051Y0124407D01*
X0026051Y0147163D02*
X0026053Y0147234D01*
X0026059Y0147305D01*
X0026069Y0147376D01*
X0026083Y0147445D01*
X0026100Y0147514D01*
X0026122Y0147582D01*
X0026147Y0147649D01*
X0026176Y0147714D01*
X0026208Y0147777D01*
X0026244Y0147839D01*
X0026283Y0147898D01*
X0026326Y0147955D01*
X0026371Y0148010D01*
X0026420Y0148062D01*
X0026471Y0148111D01*
X0026525Y0148157D01*
X0026582Y0148201D01*
X0026640Y0148241D01*
X0026701Y0148277D01*
X0026764Y0148311D01*
X0026829Y0148340D01*
X0026895Y0148366D01*
X0026963Y0148389D01*
X0027031Y0148407D01*
X0027101Y0148422D01*
X0027171Y0148433D01*
X0027242Y0148440D01*
X0027313Y0148443D01*
X0027384Y0148442D01*
X0027455Y0148437D01*
X0027526Y0148428D01*
X0027596Y0148415D01*
X0027665Y0148399D01*
X0027733Y0148378D01*
X0027800Y0148354D01*
X0027866Y0148326D01*
X0027929Y0148294D01*
X0027991Y0148259D01*
X0028051Y0148221D01*
X0028109Y0148179D01*
X0028164Y0148135D01*
X0028217Y0148087D01*
X0028267Y0148036D01*
X0028314Y0147983D01*
X0028358Y0147927D01*
X0028399Y0147869D01*
X0028437Y0147808D01*
X0028471Y0147746D01*
X0028501Y0147681D01*
X0028528Y0147616D01*
X0028552Y0147548D01*
X0028571Y0147480D01*
X0028587Y0147411D01*
X0028599Y0147340D01*
X0028607Y0147270D01*
X0028611Y0147199D01*
X0028611Y0147127D01*
X0028607Y0147056D01*
X0028599Y0146986D01*
X0028587Y0146915D01*
X0028571Y0146846D01*
X0028552Y0146778D01*
X0028528Y0146710D01*
X0028501Y0146645D01*
X0028471Y0146580D01*
X0028437Y0146518D01*
X0028399Y0146457D01*
X0028358Y0146399D01*
X0028314Y0146343D01*
X0028267Y0146290D01*
X0028217Y0146239D01*
X0028164Y0146191D01*
X0028109Y0146147D01*
X0028051Y0146105D01*
X0027991Y0146067D01*
X0027929Y0146032D01*
X0027866Y0146000D01*
X0027800Y0145972D01*
X0027733Y0145948D01*
X0027665Y0145927D01*
X0027596Y0145911D01*
X0027526Y0145898D01*
X0027455Y0145889D01*
X0027384Y0145884D01*
X0027313Y0145883D01*
X0027242Y0145886D01*
X0027171Y0145893D01*
X0027101Y0145904D01*
X0027031Y0145919D01*
X0026963Y0145937D01*
X0026895Y0145960D01*
X0026829Y0145986D01*
X0026764Y0146015D01*
X0026701Y0146049D01*
X0026640Y0146085D01*
X0026582Y0146125D01*
X0026525Y0146169D01*
X0026471Y0146215D01*
X0026420Y0146264D01*
X0026371Y0146316D01*
X0026326Y0146371D01*
X0026283Y0146428D01*
X0026244Y0146487D01*
X0026208Y0146549D01*
X0026176Y0146612D01*
X0026147Y0146677D01*
X0026122Y0146744D01*
X0026100Y0146812D01*
X0026083Y0146881D01*
X0026069Y0146950D01*
X0026059Y0147021D01*
X0026053Y0147092D01*
X0026051Y0147163D01*
X0006544Y0175785D02*
X0006546Y0175943D01*
X0006552Y0176101D01*
X0006562Y0176259D01*
X0006576Y0176417D01*
X0006594Y0176574D01*
X0006615Y0176731D01*
X0006641Y0176887D01*
X0006671Y0177043D01*
X0006704Y0177198D01*
X0006742Y0177351D01*
X0006783Y0177504D01*
X0006828Y0177656D01*
X0006877Y0177807D01*
X0006930Y0177956D01*
X0006986Y0178104D01*
X0007046Y0178250D01*
X0007110Y0178395D01*
X0007178Y0178538D01*
X0007249Y0178680D01*
X0007323Y0178820D01*
X0007401Y0178957D01*
X0007483Y0179093D01*
X0007567Y0179227D01*
X0007656Y0179358D01*
X0007747Y0179487D01*
X0007842Y0179614D01*
X0007939Y0179739D01*
X0008040Y0179861D01*
X0008144Y0179980D01*
X0008251Y0180097D01*
X0008361Y0180211D01*
X0008474Y0180322D01*
X0008589Y0180431D01*
X0008707Y0180536D01*
X0008828Y0180638D01*
X0008951Y0180738D01*
X0009077Y0180834D01*
X0009205Y0180927D01*
X0009335Y0181017D01*
X0009468Y0181103D01*
X0009603Y0181187D01*
X0009739Y0181266D01*
X0009878Y0181343D01*
X0010019Y0181415D01*
X0010161Y0181485D01*
X0010305Y0181550D01*
X0010451Y0181612D01*
X0010598Y0181670D01*
X0010747Y0181725D01*
X0010897Y0181776D01*
X0011048Y0181823D01*
X0011200Y0181866D01*
X0011353Y0181905D01*
X0011508Y0181941D01*
X0011663Y0181972D01*
X0011819Y0182000D01*
X0011975Y0182024D01*
X0012132Y0182044D01*
X0012290Y0182060D01*
X0012447Y0182072D01*
X0012606Y0182080D01*
X0012764Y0182084D01*
X0012922Y0182084D01*
X0013080Y0182080D01*
X0013239Y0182072D01*
X0013396Y0182060D01*
X0013554Y0182044D01*
X0013711Y0182024D01*
X0013867Y0182000D01*
X0014023Y0181972D01*
X0014178Y0181941D01*
X0014333Y0181905D01*
X0014486Y0181866D01*
X0014638Y0181823D01*
X0014789Y0181776D01*
X0014939Y0181725D01*
X0015088Y0181670D01*
X0015235Y0181612D01*
X0015381Y0181550D01*
X0015525Y0181485D01*
X0015667Y0181415D01*
X0015808Y0181343D01*
X0015947Y0181266D01*
X0016083Y0181187D01*
X0016218Y0181103D01*
X0016351Y0181017D01*
X0016481Y0180927D01*
X0016609Y0180834D01*
X0016735Y0180738D01*
X0016858Y0180638D01*
X0016979Y0180536D01*
X0017097Y0180431D01*
X0017212Y0180322D01*
X0017325Y0180211D01*
X0017435Y0180097D01*
X0017542Y0179980D01*
X0017646Y0179861D01*
X0017747Y0179739D01*
X0017844Y0179614D01*
X0017939Y0179487D01*
X0018030Y0179358D01*
X0018119Y0179227D01*
X0018203Y0179093D01*
X0018285Y0178957D01*
X0018363Y0178820D01*
X0018437Y0178680D01*
X0018508Y0178538D01*
X0018576Y0178395D01*
X0018640Y0178250D01*
X0018700Y0178104D01*
X0018756Y0177956D01*
X0018809Y0177807D01*
X0018858Y0177656D01*
X0018903Y0177504D01*
X0018944Y0177351D01*
X0018982Y0177198D01*
X0019015Y0177043D01*
X0019045Y0176887D01*
X0019071Y0176731D01*
X0019092Y0176574D01*
X0019110Y0176417D01*
X0019124Y0176259D01*
X0019134Y0176101D01*
X0019140Y0175943D01*
X0019142Y0175785D01*
X0019140Y0175627D01*
X0019134Y0175469D01*
X0019124Y0175311D01*
X0019110Y0175153D01*
X0019092Y0174996D01*
X0019071Y0174839D01*
X0019045Y0174683D01*
X0019015Y0174527D01*
X0018982Y0174372D01*
X0018944Y0174219D01*
X0018903Y0174066D01*
X0018858Y0173914D01*
X0018809Y0173763D01*
X0018756Y0173614D01*
X0018700Y0173466D01*
X0018640Y0173320D01*
X0018576Y0173175D01*
X0018508Y0173032D01*
X0018437Y0172890D01*
X0018363Y0172750D01*
X0018285Y0172613D01*
X0018203Y0172477D01*
X0018119Y0172343D01*
X0018030Y0172212D01*
X0017939Y0172083D01*
X0017844Y0171956D01*
X0017747Y0171831D01*
X0017646Y0171709D01*
X0017542Y0171590D01*
X0017435Y0171473D01*
X0017325Y0171359D01*
X0017212Y0171248D01*
X0017097Y0171139D01*
X0016979Y0171034D01*
X0016858Y0170932D01*
X0016735Y0170832D01*
X0016609Y0170736D01*
X0016481Y0170643D01*
X0016351Y0170553D01*
X0016218Y0170467D01*
X0016083Y0170383D01*
X0015947Y0170304D01*
X0015808Y0170227D01*
X0015667Y0170155D01*
X0015525Y0170085D01*
X0015381Y0170020D01*
X0015235Y0169958D01*
X0015088Y0169900D01*
X0014939Y0169845D01*
X0014789Y0169794D01*
X0014638Y0169747D01*
X0014486Y0169704D01*
X0014333Y0169665D01*
X0014178Y0169629D01*
X0014023Y0169598D01*
X0013867Y0169570D01*
X0013711Y0169546D01*
X0013554Y0169526D01*
X0013396Y0169510D01*
X0013239Y0169498D01*
X0013080Y0169490D01*
X0012922Y0169486D01*
X0012764Y0169486D01*
X0012606Y0169490D01*
X0012447Y0169498D01*
X0012290Y0169510D01*
X0012132Y0169526D01*
X0011975Y0169546D01*
X0011819Y0169570D01*
X0011663Y0169598D01*
X0011508Y0169629D01*
X0011353Y0169665D01*
X0011200Y0169704D01*
X0011048Y0169747D01*
X0010897Y0169794D01*
X0010747Y0169845D01*
X0010598Y0169900D01*
X0010451Y0169958D01*
X0010305Y0170020D01*
X0010161Y0170085D01*
X0010019Y0170155D01*
X0009878Y0170227D01*
X0009739Y0170304D01*
X0009603Y0170383D01*
X0009468Y0170467D01*
X0009335Y0170553D01*
X0009205Y0170643D01*
X0009077Y0170736D01*
X0008951Y0170832D01*
X0008828Y0170932D01*
X0008707Y0171034D01*
X0008589Y0171139D01*
X0008474Y0171248D01*
X0008361Y0171359D01*
X0008251Y0171473D01*
X0008144Y0171590D01*
X0008040Y0171709D01*
X0007939Y0171831D01*
X0007842Y0171956D01*
X0007747Y0172083D01*
X0007656Y0172212D01*
X0007567Y0172343D01*
X0007483Y0172477D01*
X0007401Y0172613D01*
X0007323Y0172750D01*
X0007249Y0172890D01*
X0007178Y0173032D01*
X0007110Y0173175D01*
X0007046Y0173320D01*
X0006986Y0173466D01*
X0006930Y0173614D01*
X0006877Y0173763D01*
X0006828Y0173914D01*
X0006783Y0174066D01*
X0006742Y0174219D01*
X0006704Y0174372D01*
X0006671Y0174527D01*
X0006641Y0174683D01*
X0006615Y0174839D01*
X0006594Y0174996D01*
X0006576Y0175153D01*
X0006562Y0175311D01*
X0006552Y0175469D01*
X0006546Y0175627D01*
X0006544Y0175785D01*
X0171544Y0175785D02*
X0171546Y0175943D01*
X0171552Y0176101D01*
X0171562Y0176259D01*
X0171576Y0176417D01*
X0171594Y0176574D01*
X0171615Y0176731D01*
X0171641Y0176887D01*
X0171671Y0177043D01*
X0171704Y0177198D01*
X0171742Y0177351D01*
X0171783Y0177504D01*
X0171828Y0177656D01*
X0171877Y0177807D01*
X0171930Y0177956D01*
X0171986Y0178104D01*
X0172046Y0178250D01*
X0172110Y0178395D01*
X0172178Y0178538D01*
X0172249Y0178680D01*
X0172323Y0178820D01*
X0172401Y0178957D01*
X0172483Y0179093D01*
X0172567Y0179227D01*
X0172656Y0179358D01*
X0172747Y0179487D01*
X0172842Y0179614D01*
X0172939Y0179739D01*
X0173040Y0179861D01*
X0173144Y0179980D01*
X0173251Y0180097D01*
X0173361Y0180211D01*
X0173474Y0180322D01*
X0173589Y0180431D01*
X0173707Y0180536D01*
X0173828Y0180638D01*
X0173951Y0180738D01*
X0174077Y0180834D01*
X0174205Y0180927D01*
X0174335Y0181017D01*
X0174468Y0181103D01*
X0174603Y0181187D01*
X0174739Y0181266D01*
X0174878Y0181343D01*
X0175019Y0181415D01*
X0175161Y0181485D01*
X0175305Y0181550D01*
X0175451Y0181612D01*
X0175598Y0181670D01*
X0175747Y0181725D01*
X0175897Y0181776D01*
X0176048Y0181823D01*
X0176200Y0181866D01*
X0176353Y0181905D01*
X0176508Y0181941D01*
X0176663Y0181972D01*
X0176819Y0182000D01*
X0176975Y0182024D01*
X0177132Y0182044D01*
X0177290Y0182060D01*
X0177447Y0182072D01*
X0177606Y0182080D01*
X0177764Y0182084D01*
X0177922Y0182084D01*
X0178080Y0182080D01*
X0178239Y0182072D01*
X0178396Y0182060D01*
X0178554Y0182044D01*
X0178711Y0182024D01*
X0178867Y0182000D01*
X0179023Y0181972D01*
X0179178Y0181941D01*
X0179333Y0181905D01*
X0179486Y0181866D01*
X0179638Y0181823D01*
X0179789Y0181776D01*
X0179939Y0181725D01*
X0180088Y0181670D01*
X0180235Y0181612D01*
X0180381Y0181550D01*
X0180525Y0181485D01*
X0180667Y0181415D01*
X0180808Y0181343D01*
X0180947Y0181266D01*
X0181083Y0181187D01*
X0181218Y0181103D01*
X0181351Y0181017D01*
X0181481Y0180927D01*
X0181609Y0180834D01*
X0181735Y0180738D01*
X0181858Y0180638D01*
X0181979Y0180536D01*
X0182097Y0180431D01*
X0182212Y0180322D01*
X0182325Y0180211D01*
X0182435Y0180097D01*
X0182542Y0179980D01*
X0182646Y0179861D01*
X0182747Y0179739D01*
X0182844Y0179614D01*
X0182939Y0179487D01*
X0183030Y0179358D01*
X0183119Y0179227D01*
X0183203Y0179093D01*
X0183285Y0178957D01*
X0183363Y0178820D01*
X0183437Y0178680D01*
X0183508Y0178538D01*
X0183576Y0178395D01*
X0183640Y0178250D01*
X0183700Y0178104D01*
X0183756Y0177956D01*
X0183809Y0177807D01*
X0183858Y0177656D01*
X0183903Y0177504D01*
X0183944Y0177351D01*
X0183982Y0177198D01*
X0184015Y0177043D01*
X0184045Y0176887D01*
X0184071Y0176731D01*
X0184092Y0176574D01*
X0184110Y0176417D01*
X0184124Y0176259D01*
X0184134Y0176101D01*
X0184140Y0175943D01*
X0184142Y0175785D01*
X0184140Y0175627D01*
X0184134Y0175469D01*
X0184124Y0175311D01*
X0184110Y0175153D01*
X0184092Y0174996D01*
X0184071Y0174839D01*
X0184045Y0174683D01*
X0184015Y0174527D01*
X0183982Y0174372D01*
X0183944Y0174219D01*
X0183903Y0174066D01*
X0183858Y0173914D01*
X0183809Y0173763D01*
X0183756Y0173614D01*
X0183700Y0173466D01*
X0183640Y0173320D01*
X0183576Y0173175D01*
X0183508Y0173032D01*
X0183437Y0172890D01*
X0183363Y0172750D01*
X0183285Y0172613D01*
X0183203Y0172477D01*
X0183119Y0172343D01*
X0183030Y0172212D01*
X0182939Y0172083D01*
X0182844Y0171956D01*
X0182747Y0171831D01*
X0182646Y0171709D01*
X0182542Y0171590D01*
X0182435Y0171473D01*
X0182325Y0171359D01*
X0182212Y0171248D01*
X0182097Y0171139D01*
X0181979Y0171034D01*
X0181858Y0170932D01*
X0181735Y0170832D01*
X0181609Y0170736D01*
X0181481Y0170643D01*
X0181351Y0170553D01*
X0181218Y0170467D01*
X0181083Y0170383D01*
X0180947Y0170304D01*
X0180808Y0170227D01*
X0180667Y0170155D01*
X0180525Y0170085D01*
X0180381Y0170020D01*
X0180235Y0169958D01*
X0180088Y0169900D01*
X0179939Y0169845D01*
X0179789Y0169794D01*
X0179638Y0169747D01*
X0179486Y0169704D01*
X0179333Y0169665D01*
X0179178Y0169629D01*
X0179023Y0169598D01*
X0178867Y0169570D01*
X0178711Y0169546D01*
X0178554Y0169526D01*
X0178396Y0169510D01*
X0178239Y0169498D01*
X0178080Y0169490D01*
X0177922Y0169486D01*
X0177764Y0169486D01*
X0177606Y0169490D01*
X0177447Y0169498D01*
X0177290Y0169510D01*
X0177132Y0169526D01*
X0176975Y0169546D01*
X0176819Y0169570D01*
X0176663Y0169598D01*
X0176508Y0169629D01*
X0176353Y0169665D01*
X0176200Y0169704D01*
X0176048Y0169747D01*
X0175897Y0169794D01*
X0175747Y0169845D01*
X0175598Y0169900D01*
X0175451Y0169958D01*
X0175305Y0170020D01*
X0175161Y0170085D01*
X0175019Y0170155D01*
X0174878Y0170227D01*
X0174739Y0170304D01*
X0174603Y0170383D01*
X0174468Y0170467D01*
X0174335Y0170553D01*
X0174205Y0170643D01*
X0174077Y0170736D01*
X0173951Y0170832D01*
X0173828Y0170932D01*
X0173707Y0171034D01*
X0173589Y0171139D01*
X0173474Y0171248D01*
X0173361Y0171359D01*
X0173251Y0171473D01*
X0173144Y0171590D01*
X0173040Y0171709D01*
X0172939Y0171831D01*
X0172842Y0171956D01*
X0172747Y0172083D01*
X0172656Y0172212D01*
X0172567Y0172343D01*
X0172483Y0172477D01*
X0172401Y0172613D01*
X0172323Y0172750D01*
X0172249Y0172890D01*
X0172178Y0173032D01*
X0172110Y0173175D01*
X0172046Y0173320D01*
X0171986Y0173466D01*
X0171930Y0173614D01*
X0171877Y0173763D01*
X0171828Y0173914D01*
X0171783Y0174066D01*
X0171742Y0174219D01*
X0171704Y0174372D01*
X0171671Y0174527D01*
X0171641Y0174683D01*
X0171615Y0174839D01*
X0171594Y0174996D01*
X0171576Y0175153D01*
X0171562Y0175311D01*
X0171552Y0175469D01*
X0171546Y0175627D01*
X0171544Y0175785D01*
X0171544Y0045785D02*
X0171546Y0045943D01*
X0171552Y0046101D01*
X0171562Y0046259D01*
X0171576Y0046417D01*
X0171594Y0046574D01*
X0171615Y0046731D01*
X0171641Y0046887D01*
X0171671Y0047043D01*
X0171704Y0047198D01*
X0171742Y0047351D01*
X0171783Y0047504D01*
X0171828Y0047656D01*
X0171877Y0047807D01*
X0171930Y0047956D01*
X0171986Y0048104D01*
X0172046Y0048250D01*
X0172110Y0048395D01*
X0172178Y0048538D01*
X0172249Y0048680D01*
X0172323Y0048820D01*
X0172401Y0048957D01*
X0172483Y0049093D01*
X0172567Y0049227D01*
X0172656Y0049358D01*
X0172747Y0049487D01*
X0172842Y0049614D01*
X0172939Y0049739D01*
X0173040Y0049861D01*
X0173144Y0049980D01*
X0173251Y0050097D01*
X0173361Y0050211D01*
X0173474Y0050322D01*
X0173589Y0050431D01*
X0173707Y0050536D01*
X0173828Y0050638D01*
X0173951Y0050738D01*
X0174077Y0050834D01*
X0174205Y0050927D01*
X0174335Y0051017D01*
X0174468Y0051103D01*
X0174603Y0051187D01*
X0174739Y0051266D01*
X0174878Y0051343D01*
X0175019Y0051415D01*
X0175161Y0051485D01*
X0175305Y0051550D01*
X0175451Y0051612D01*
X0175598Y0051670D01*
X0175747Y0051725D01*
X0175897Y0051776D01*
X0176048Y0051823D01*
X0176200Y0051866D01*
X0176353Y0051905D01*
X0176508Y0051941D01*
X0176663Y0051972D01*
X0176819Y0052000D01*
X0176975Y0052024D01*
X0177132Y0052044D01*
X0177290Y0052060D01*
X0177447Y0052072D01*
X0177606Y0052080D01*
X0177764Y0052084D01*
X0177922Y0052084D01*
X0178080Y0052080D01*
X0178239Y0052072D01*
X0178396Y0052060D01*
X0178554Y0052044D01*
X0178711Y0052024D01*
X0178867Y0052000D01*
X0179023Y0051972D01*
X0179178Y0051941D01*
X0179333Y0051905D01*
X0179486Y0051866D01*
X0179638Y0051823D01*
X0179789Y0051776D01*
X0179939Y0051725D01*
X0180088Y0051670D01*
X0180235Y0051612D01*
X0180381Y0051550D01*
X0180525Y0051485D01*
X0180667Y0051415D01*
X0180808Y0051343D01*
X0180947Y0051266D01*
X0181083Y0051187D01*
X0181218Y0051103D01*
X0181351Y0051017D01*
X0181481Y0050927D01*
X0181609Y0050834D01*
X0181735Y0050738D01*
X0181858Y0050638D01*
X0181979Y0050536D01*
X0182097Y0050431D01*
X0182212Y0050322D01*
X0182325Y0050211D01*
X0182435Y0050097D01*
X0182542Y0049980D01*
X0182646Y0049861D01*
X0182747Y0049739D01*
X0182844Y0049614D01*
X0182939Y0049487D01*
X0183030Y0049358D01*
X0183119Y0049227D01*
X0183203Y0049093D01*
X0183285Y0048957D01*
X0183363Y0048820D01*
X0183437Y0048680D01*
X0183508Y0048538D01*
X0183576Y0048395D01*
X0183640Y0048250D01*
X0183700Y0048104D01*
X0183756Y0047956D01*
X0183809Y0047807D01*
X0183858Y0047656D01*
X0183903Y0047504D01*
X0183944Y0047351D01*
X0183982Y0047198D01*
X0184015Y0047043D01*
X0184045Y0046887D01*
X0184071Y0046731D01*
X0184092Y0046574D01*
X0184110Y0046417D01*
X0184124Y0046259D01*
X0184134Y0046101D01*
X0184140Y0045943D01*
X0184142Y0045785D01*
X0184140Y0045627D01*
X0184134Y0045469D01*
X0184124Y0045311D01*
X0184110Y0045153D01*
X0184092Y0044996D01*
X0184071Y0044839D01*
X0184045Y0044683D01*
X0184015Y0044527D01*
X0183982Y0044372D01*
X0183944Y0044219D01*
X0183903Y0044066D01*
X0183858Y0043914D01*
X0183809Y0043763D01*
X0183756Y0043614D01*
X0183700Y0043466D01*
X0183640Y0043320D01*
X0183576Y0043175D01*
X0183508Y0043032D01*
X0183437Y0042890D01*
X0183363Y0042750D01*
X0183285Y0042613D01*
X0183203Y0042477D01*
X0183119Y0042343D01*
X0183030Y0042212D01*
X0182939Y0042083D01*
X0182844Y0041956D01*
X0182747Y0041831D01*
X0182646Y0041709D01*
X0182542Y0041590D01*
X0182435Y0041473D01*
X0182325Y0041359D01*
X0182212Y0041248D01*
X0182097Y0041139D01*
X0181979Y0041034D01*
X0181858Y0040932D01*
X0181735Y0040832D01*
X0181609Y0040736D01*
X0181481Y0040643D01*
X0181351Y0040553D01*
X0181218Y0040467D01*
X0181083Y0040383D01*
X0180947Y0040304D01*
X0180808Y0040227D01*
X0180667Y0040155D01*
X0180525Y0040085D01*
X0180381Y0040020D01*
X0180235Y0039958D01*
X0180088Y0039900D01*
X0179939Y0039845D01*
X0179789Y0039794D01*
X0179638Y0039747D01*
X0179486Y0039704D01*
X0179333Y0039665D01*
X0179178Y0039629D01*
X0179023Y0039598D01*
X0178867Y0039570D01*
X0178711Y0039546D01*
X0178554Y0039526D01*
X0178396Y0039510D01*
X0178239Y0039498D01*
X0178080Y0039490D01*
X0177922Y0039486D01*
X0177764Y0039486D01*
X0177606Y0039490D01*
X0177447Y0039498D01*
X0177290Y0039510D01*
X0177132Y0039526D01*
X0176975Y0039546D01*
X0176819Y0039570D01*
X0176663Y0039598D01*
X0176508Y0039629D01*
X0176353Y0039665D01*
X0176200Y0039704D01*
X0176048Y0039747D01*
X0175897Y0039794D01*
X0175747Y0039845D01*
X0175598Y0039900D01*
X0175451Y0039958D01*
X0175305Y0040020D01*
X0175161Y0040085D01*
X0175019Y0040155D01*
X0174878Y0040227D01*
X0174739Y0040304D01*
X0174603Y0040383D01*
X0174468Y0040467D01*
X0174335Y0040553D01*
X0174205Y0040643D01*
X0174077Y0040736D01*
X0173951Y0040832D01*
X0173828Y0040932D01*
X0173707Y0041034D01*
X0173589Y0041139D01*
X0173474Y0041248D01*
X0173361Y0041359D01*
X0173251Y0041473D01*
X0173144Y0041590D01*
X0173040Y0041709D01*
X0172939Y0041831D01*
X0172842Y0041956D01*
X0172747Y0042083D01*
X0172656Y0042212D01*
X0172567Y0042343D01*
X0172483Y0042477D01*
X0172401Y0042613D01*
X0172323Y0042750D01*
X0172249Y0042890D01*
X0172178Y0043032D01*
X0172110Y0043175D01*
X0172046Y0043320D01*
X0171986Y0043466D01*
X0171930Y0043614D01*
X0171877Y0043763D01*
X0171828Y0043914D01*
X0171783Y0044066D01*
X0171742Y0044219D01*
X0171704Y0044372D01*
X0171671Y0044527D01*
X0171641Y0044683D01*
X0171615Y0044839D01*
X0171594Y0044996D01*
X0171576Y0045153D01*
X0171562Y0045311D01*
X0171552Y0045469D01*
X0171546Y0045627D01*
X0171544Y0045785D01*
D11*
X0158777Y0074161D02*
X0158777Y0078039D01*
X0158777Y0074161D02*
X0156947Y0074161D01*
X0156947Y0078039D01*
X0158777Y0078039D01*
X0158777Y0075991D02*
X0156947Y0075991D01*
X0156947Y0077821D02*
X0158777Y0077821D01*
X0153777Y0078039D02*
X0153777Y0074161D01*
X0151947Y0074161D01*
X0151947Y0078039D01*
X0153777Y0078039D01*
X0153777Y0075991D02*
X0151947Y0075991D01*
X0151947Y0077821D02*
X0153777Y0077821D01*
X0148777Y0078039D02*
X0148777Y0074161D01*
X0146947Y0074161D01*
X0146947Y0078039D01*
X0148777Y0078039D01*
X0148777Y0075991D02*
X0146947Y0075991D01*
X0146947Y0077821D02*
X0148777Y0077821D01*
X0143777Y0078039D02*
X0143777Y0074161D01*
X0141947Y0074161D01*
X0141947Y0078039D01*
X0143777Y0078039D01*
X0143777Y0075991D02*
X0141947Y0075991D01*
X0141947Y0077821D02*
X0143777Y0077821D01*
X0138777Y0078039D02*
X0138777Y0074161D01*
X0136947Y0074161D01*
X0136947Y0078039D01*
X0138777Y0078039D01*
X0138777Y0075991D02*
X0136947Y0075991D01*
X0136947Y0077821D02*
X0138777Y0077821D01*
X0133777Y0078039D02*
X0133777Y0074161D01*
X0131947Y0074161D01*
X0131947Y0078039D01*
X0133777Y0078039D01*
X0133777Y0075991D02*
X0131947Y0075991D01*
X0131947Y0077821D02*
X0133777Y0077821D01*
X0128777Y0078039D02*
X0128777Y0074161D01*
X0126947Y0074161D01*
X0126947Y0078039D01*
X0128777Y0078039D01*
X0128777Y0075991D02*
X0126947Y0075991D01*
X0126947Y0077821D02*
X0128777Y0077821D01*
X0123777Y0078039D02*
X0123777Y0074161D01*
X0121947Y0074161D01*
X0121947Y0078039D01*
X0123777Y0078039D01*
X0123777Y0075991D02*
X0121947Y0075991D01*
X0121947Y0077821D02*
X0123777Y0077821D01*
X0118777Y0078039D02*
X0118777Y0074161D01*
X0116947Y0074161D01*
X0116947Y0078039D01*
X0118777Y0078039D01*
X0118777Y0075991D02*
X0116947Y0075991D01*
X0116947Y0077821D02*
X0118777Y0077821D01*
X0113777Y0078039D02*
X0113777Y0074161D01*
X0111947Y0074161D01*
X0111947Y0078039D01*
X0113777Y0078039D01*
X0113777Y0075991D02*
X0111947Y0075991D01*
X0111947Y0077821D02*
X0113777Y0077821D01*
X0108777Y0078039D02*
X0108777Y0074161D01*
X0106947Y0074161D01*
X0106947Y0078039D01*
X0108777Y0078039D01*
X0108777Y0075991D02*
X0106947Y0075991D01*
X0106947Y0077821D02*
X0108777Y0077821D01*
X0103777Y0078039D02*
X0103777Y0074161D01*
X0101947Y0074161D01*
X0101947Y0078039D01*
X0103777Y0078039D01*
X0103777Y0075991D02*
X0101947Y0075991D01*
X0101947Y0077821D02*
X0103777Y0077821D01*
X0098777Y0078039D02*
X0098777Y0074161D01*
X0096947Y0074161D01*
X0096947Y0078039D01*
X0098777Y0078039D01*
X0098777Y0075991D02*
X0096947Y0075991D01*
X0096947Y0077821D02*
X0098777Y0077821D01*
X0093777Y0078039D02*
X0093777Y0074161D01*
X0091947Y0074161D01*
X0091947Y0078039D01*
X0093777Y0078039D01*
X0093777Y0075991D02*
X0091947Y0075991D01*
X0091947Y0077821D02*
X0093777Y0077821D01*
X0088777Y0078039D02*
X0088777Y0074161D01*
X0086947Y0074161D01*
X0086947Y0078039D01*
X0088777Y0078039D01*
X0088777Y0075991D02*
X0086947Y0075991D01*
X0086947Y0077821D02*
X0088777Y0077821D01*
X0083777Y0078039D02*
X0083777Y0074161D01*
X0081947Y0074161D01*
X0081947Y0078039D01*
X0083777Y0078039D01*
X0083777Y0075991D02*
X0081947Y0075991D01*
X0081947Y0077821D02*
X0083777Y0077821D01*
X0078777Y0078039D02*
X0078777Y0074161D01*
X0076947Y0074161D01*
X0076947Y0078039D01*
X0078777Y0078039D01*
X0078777Y0075991D02*
X0076947Y0075991D01*
X0076947Y0077821D02*
X0078777Y0077821D01*
X0073777Y0078039D02*
X0073777Y0074161D01*
X0071947Y0074161D01*
X0071947Y0078039D01*
X0073777Y0078039D01*
X0073777Y0075991D02*
X0071947Y0075991D01*
X0071947Y0077821D02*
X0073777Y0077821D01*
X0068777Y0078039D02*
X0068777Y0074161D01*
X0066947Y0074161D01*
X0066947Y0078039D01*
X0068777Y0078039D01*
X0068777Y0075991D02*
X0066947Y0075991D01*
X0066947Y0077821D02*
X0068777Y0077821D01*
X0066947Y0143531D02*
X0066947Y0147409D01*
X0068777Y0147409D01*
X0068777Y0143531D01*
X0066947Y0143531D01*
X0066947Y0145361D02*
X0068777Y0145361D01*
X0068777Y0147191D02*
X0066947Y0147191D01*
X0071947Y0147409D02*
X0071947Y0143531D01*
X0071947Y0147409D02*
X0073777Y0147409D01*
X0073777Y0143531D01*
X0071947Y0143531D01*
X0071947Y0145361D02*
X0073777Y0145361D01*
X0073777Y0147191D02*
X0071947Y0147191D01*
X0076947Y0147409D02*
X0076947Y0143531D01*
X0076947Y0147409D02*
X0078777Y0147409D01*
X0078777Y0143531D01*
X0076947Y0143531D01*
X0076947Y0145361D02*
X0078777Y0145361D01*
X0078777Y0147191D02*
X0076947Y0147191D01*
X0081947Y0147409D02*
X0081947Y0143531D01*
X0081947Y0147409D02*
X0083777Y0147409D01*
X0083777Y0143531D01*
X0081947Y0143531D01*
X0081947Y0145361D02*
X0083777Y0145361D01*
X0083777Y0147191D02*
X0081947Y0147191D01*
X0086947Y0147409D02*
X0086947Y0143531D01*
X0086947Y0147409D02*
X0088777Y0147409D01*
X0088777Y0143531D01*
X0086947Y0143531D01*
X0086947Y0145361D02*
X0088777Y0145361D01*
X0088777Y0147191D02*
X0086947Y0147191D01*
X0091947Y0147409D02*
X0091947Y0143531D01*
X0091947Y0147409D02*
X0093777Y0147409D01*
X0093777Y0143531D01*
X0091947Y0143531D01*
X0091947Y0145361D02*
X0093777Y0145361D01*
X0093777Y0147191D02*
X0091947Y0147191D01*
X0096947Y0147409D02*
X0096947Y0143531D01*
X0096947Y0147409D02*
X0098777Y0147409D01*
X0098777Y0143531D01*
X0096947Y0143531D01*
X0096947Y0145361D02*
X0098777Y0145361D01*
X0098777Y0147191D02*
X0096947Y0147191D01*
X0101947Y0147409D02*
X0101947Y0143531D01*
X0101947Y0147409D02*
X0103777Y0147409D01*
X0103777Y0143531D01*
X0101947Y0143531D01*
X0101947Y0145361D02*
X0103777Y0145361D01*
X0103777Y0147191D02*
X0101947Y0147191D01*
X0106947Y0147409D02*
X0106947Y0143531D01*
X0106947Y0147409D02*
X0108777Y0147409D01*
X0108777Y0143531D01*
X0106947Y0143531D01*
X0106947Y0145361D02*
X0108777Y0145361D01*
X0108777Y0147191D02*
X0106947Y0147191D01*
X0111947Y0147409D02*
X0111947Y0143531D01*
X0111947Y0147409D02*
X0113777Y0147409D01*
X0113777Y0143531D01*
X0111947Y0143531D01*
X0111947Y0145361D02*
X0113777Y0145361D01*
X0113777Y0147191D02*
X0111947Y0147191D01*
X0116947Y0147409D02*
X0116947Y0143531D01*
X0116947Y0147409D02*
X0118777Y0147409D01*
X0118777Y0143531D01*
X0116947Y0143531D01*
X0116947Y0145361D02*
X0118777Y0145361D01*
X0118777Y0147191D02*
X0116947Y0147191D01*
X0121947Y0147409D02*
X0121947Y0143531D01*
X0121947Y0147409D02*
X0123777Y0147409D01*
X0123777Y0143531D01*
X0121947Y0143531D01*
X0121947Y0145361D02*
X0123777Y0145361D01*
X0123777Y0147191D02*
X0121947Y0147191D01*
X0126947Y0147409D02*
X0126947Y0143531D01*
X0126947Y0147409D02*
X0128777Y0147409D01*
X0128777Y0143531D01*
X0126947Y0143531D01*
X0126947Y0145361D02*
X0128777Y0145361D01*
X0128777Y0147191D02*
X0126947Y0147191D01*
X0131947Y0147409D02*
X0131947Y0143531D01*
X0131947Y0147409D02*
X0133777Y0147409D01*
X0133777Y0143531D01*
X0131947Y0143531D01*
X0131947Y0145361D02*
X0133777Y0145361D01*
X0133777Y0147191D02*
X0131947Y0147191D01*
X0136947Y0147409D02*
X0136947Y0143531D01*
X0136947Y0147409D02*
X0138777Y0147409D01*
X0138777Y0143531D01*
X0136947Y0143531D01*
X0136947Y0145361D02*
X0138777Y0145361D01*
X0138777Y0147191D02*
X0136947Y0147191D01*
X0141947Y0147409D02*
X0141947Y0143531D01*
X0141947Y0147409D02*
X0143777Y0147409D01*
X0143777Y0143531D01*
X0141947Y0143531D01*
X0141947Y0145361D02*
X0143777Y0145361D01*
X0143777Y0147191D02*
X0141947Y0147191D01*
X0146947Y0147409D02*
X0146947Y0143531D01*
X0146947Y0147409D02*
X0148777Y0147409D01*
X0148777Y0143531D01*
X0146947Y0143531D01*
X0146947Y0145361D02*
X0148777Y0145361D01*
X0148777Y0147191D02*
X0146947Y0147191D01*
X0151947Y0147409D02*
X0151947Y0143531D01*
X0151947Y0147409D02*
X0153777Y0147409D01*
X0153777Y0143531D01*
X0151947Y0143531D01*
X0151947Y0145361D02*
X0153777Y0145361D01*
X0153777Y0147191D02*
X0151947Y0147191D01*
X0156947Y0147409D02*
X0156947Y0143531D01*
X0156947Y0147409D02*
X0158777Y0147409D01*
X0158777Y0143531D01*
X0156947Y0143531D01*
X0156947Y0145361D02*
X0158777Y0145361D01*
X0158777Y0147191D02*
X0156947Y0147191D01*
D12*
X0127193Y0105352D03*
D13*
X0130343Y0043285D03*
X0120343Y0043285D03*
X0110343Y0043285D03*
X0100343Y0043285D03*
X0090343Y0043285D03*
X0080343Y0043285D03*
X0070343Y0043285D03*
X0060343Y0043285D03*
X0050343Y0043285D03*
X0040343Y0043285D03*
X0030343Y0043285D03*
X0140343Y0043285D03*
X0150343Y0043285D03*
X0160343Y0043285D03*
D14*
X0031480Y0118777D02*
X0027118Y0118777D01*
X0015024Y0118777D02*
X0010661Y0118777D01*
X0010661Y0152793D02*
X0015024Y0152793D01*
X0027118Y0152793D02*
X0031480Y0152793D01*
D15*
X0029390Y0152884D02*
X0035161Y0152884D01*
X0035161Y0153156D01*
X0035020Y0153867D01*
X0034742Y0154537D01*
X0034340Y0155140D01*
X0033827Y0155652D01*
X0033224Y0156055D01*
X0032554Y0156333D01*
X0031843Y0156474D01*
X0029390Y0156474D01*
X0029390Y0152884D01*
X0029209Y0152884D01*
X0029209Y0156474D01*
X0026756Y0156474D01*
X0026044Y0156333D01*
X0025374Y0156055D01*
X0024772Y0155652D01*
X0024259Y0155140D01*
X0023856Y0154537D01*
X0023578Y0153867D01*
X0023437Y0153156D01*
X0023437Y0152884D01*
X0029209Y0152884D01*
X0029209Y0152702D01*
X0029390Y0152702D01*
X0029390Y0149112D01*
X0031843Y0149112D01*
X0032554Y0149253D01*
X0033224Y0149531D01*
X0033827Y0149934D01*
X0034340Y0150446D01*
X0034742Y0151049D01*
X0035020Y0151719D01*
X0035161Y0152430D01*
X0035161Y0152702D01*
X0029390Y0152702D01*
X0029390Y0152884D01*
X0029209Y0152702D02*
X0029209Y0149216D01*
X0029687Y0148738D01*
X0030110Y0147716D01*
X0030110Y0146610D01*
X0029687Y0145589D01*
X0028905Y0144807D01*
X0027884Y0144384D01*
X0026778Y0144384D01*
X0025756Y0144807D01*
X0024974Y0145589D01*
X0024551Y0146610D01*
X0024551Y0147716D01*
X0024974Y0148738D01*
X0025652Y0149416D01*
X0025374Y0149531D01*
X0024772Y0149934D01*
X0024259Y0150446D01*
X0023856Y0151049D01*
X0023578Y0151719D01*
X0023437Y0152430D01*
X0023437Y0152702D01*
X0029209Y0152702D01*
X0029209Y0152611D02*
X0029390Y0152611D01*
X0029390Y0153609D02*
X0029209Y0153609D01*
X0029209Y0154608D02*
X0029390Y0154608D01*
X0029390Y0155606D02*
X0029209Y0155606D01*
X0024726Y0155606D02*
X0017416Y0155606D01*
X0017370Y0155652D02*
X0016767Y0156055D01*
X0016097Y0156333D01*
X0015386Y0156474D01*
X0012933Y0156474D01*
X0012933Y0152884D01*
X0012752Y0152884D01*
X0012752Y0156474D01*
X0010299Y0156474D01*
X0009588Y0156333D01*
X0008918Y0156055D01*
X0008315Y0155652D01*
X0007802Y0155140D01*
X0007399Y0154537D01*
X0007122Y0153867D01*
X0006980Y0153156D01*
X0006980Y0152884D01*
X0012752Y0152884D01*
X0012752Y0152702D01*
X0012933Y0152702D01*
X0012933Y0149112D01*
X0015386Y0149112D01*
X0016097Y0149253D01*
X0016767Y0149531D01*
X0017370Y0149934D01*
X0017883Y0150446D01*
X0018286Y0151049D01*
X0018563Y0151719D01*
X0018705Y0152430D01*
X0018705Y0152702D01*
X0012933Y0152702D01*
X0012933Y0152884D01*
X0018705Y0152884D01*
X0018705Y0153156D01*
X0018563Y0153867D01*
X0018286Y0154537D01*
X0017883Y0155140D01*
X0017370Y0155652D01*
X0018238Y0154608D02*
X0023904Y0154608D01*
X0023527Y0153609D02*
X0018614Y0153609D01*
X0018705Y0152611D02*
X0023437Y0152611D01*
X0023623Y0151612D02*
X0018519Y0151612D01*
X0017995Y0150614D02*
X0024147Y0150614D01*
X0025248Y0149615D02*
X0016894Y0149615D01*
X0012933Y0149615D02*
X0012752Y0149615D01*
X0012752Y0149112D02*
X0012752Y0152702D01*
X0006980Y0152702D01*
X0006980Y0152430D01*
X0007122Y0151719D01*
X0007399Y0151049D01*
X0007802Y0150446D01*
X0008315Y0149934D01*
X0008918Y0149531D01*
X0009588Y0149253D01*
X0010299Y0149112D01*
X0012752Y0149112D01*
X0012752Y0150614D02*
X0012933Y0150614D01*
X0012933Y0151612D02*
X0012752Y0151612D01*
X0012752Y0152611D02*
X0012933Y0152611D01*
X0012933Y0153609D02*
X0012752Y0153609D01*
X0012752Y0154608D02*
X0012933Y0154608D01*
X0012933Y0155606D02*
X0012752Y0155606D01*
X0008269Y0155606D02*
X0005943Y0155606D01*
X0005943Y0154608D02*
X0007447Y0154608D01*
X0007071Y0153609D02*
X0005943Y0153609D01*
X0005943Y0152611D02*
X0006980Y0152611D01*
X0007166Y0151612D02*
X0005943Y0151612D01*
X0005943Y0150614D02*
X0007690Y0150614D01*
X0008791Y0149615D02*
X0005943Y0149615D01*
X0005943Y0148617D02*
X0024924Y0148617D01*
X0024551Y0147618D02*
X0005943Y0147618D01*
X0005943Y0146620D02*
X0024551Y0146620D01*
X0024961Y0145621D02*
X0005943Y0145621D01*
X0005943Y0144623D02*
X0026200Y0144623D01*
X0028461Y0144623D02*
X0048043Y0144623D01*
X0048043Y0145621D02*
X0029701Y0145621D01*
X0030110Y0146620D02*
X0047255Y0146620D01*
X0048043Y0145832D02*
X0048043Y0127238D01*
X0039543Y0118738D01*
X0039543Y0089238D01*
X0028043Y0077738D01*
X0028043Y0075832D01*
X0028043Y0058832D01*
X0029390Y0057485D01*
X0031295Y0057485D01*
X0032643Y0058832D01*
X0032643Y0075832D01*
X0042795Y0085985D01*
X0078390Y0085985D01*
X0081390Y0082985D01*
X0083295Y0082985D01*
X0084643Y0084332D01*
X0084643Y0086238D01*
X0081643Y0089238D01*
X0080295Y0090585D01*
X0044143Y0090585D01*
X0044143Y0116832D01*
X0051295Y0123985D01*
X0052643Y0125332D01*
X0052643Y0147738D01*
X0046295Y0154085D01*
X0044390Y0154085D01*
X0043043Y0152738D01*
X0043043Y0150832D01*
X0048043Y0145832D01*
X0048043Y0143624D02*
X0005943Y0143624D01*
X0005943Y0142626D02*
X0048043Y0142626D01*
X0048043Y0141627D02*
X0005943Y0141627D01*
X0005943Y0140629D02*
X0048043Y0140629D01*
X0048043Y0139630D02*
X0005943Y0139630D01*
X0005943Y0138632D02*
X0048043Y0138632D01*
X0048043Y0137633D02*
X0005943Y0137633D01*
X0005943Y0136635D02*
X0048043Y0136635D01*
X0048043Y0135636D02*
X0005943Y0135636D01*
X0005943Y0134638D02*
X0048043Y0134638D01*
X0048043Y0133639D02*
X0005943Y0133639D01*
X0005943Y0132641D02*
X0048043Y0132641D01*
X0048043Y0131642D02*
X0005943Y0131642D01*
X0005943Y0130644D02*
X0048043Y0130644D01*
X0048043Y0129645D02*
X0005943Y0129645D01*
X0005943Y0128647D02*
X0048043Y0128647D01*
X0048043Y0127648D02*
X0005943Y0127648D01*
X0005943Y0126650D02*
X0025642Y0126650D01*
X0025756Y0126764D02*
X0024974Y0125982D01*
X0024551Y0124960D01*
X0024551Y0123854D01*
X0024974Y0122833D01*
X0025652Y0122155D01*
X0025374Y0122039D01*
X0024772Y0121637D01*
X0024259Y0121124D01*
X0023856Y0120521D01*
X0023578Y0119851D01*
X0023437Y0119140D01*
X0023437Y0118868D01*
X0029209Y0118868D01*
X0029209Y0122354D01*
X0029687Y0122833D01*
X0030110Y0123854D01*
X0030110Y0124960D01*
X0029687Y0125982D01*
X0028905Y0126764D01*
X0027884Y0127187D01*
X0026778Y0127187D01*
X0025756Y0126764D01*
X0024837Y0125651D02*
X0005943Y0125651D01*
X0005943Y0124653D02*
X0024551Y0124653D01*
X0024634Y0123654D02*
X0005943Y0123654D01*
X0005943Y0122656D02*
X0025151Y0122656D01*
X0024802Y0121657D02*
X0017339Y0121657D01*
X0017370Y0121637D02*
X0016767Y0122039D01*
X0016097Y0122317D01*
X0015386Y0122458D01*
X0012933Y0122458D01*
X0012933Y0118868D01*
X0012752Y0118868D01*
X0012752Y0122458D01*
X0010299Y0122458D01*
X0009588Y0122317D01*
X0008918Y0122039D01*
X0008315Y0121637D01*
X0007802Y0121124D01*
X0007399Y0120521D01*
X0007122Y0119851D01*
X0006980Y0119140D01*
X0006980Y0118868D01*
X0012752Y0118868D01*
X0012752Y0118687D01*
X0006980Y0118687D01*
X0006980Y0118415D01*
X0007122Y0117704D01*
X0007399Y0117034D01*
X0007802Y0116431D01*
X0008315Y0115918D01*
X0008918Y0115515D01*
X0009588Y0115238D01*
X0010299Y0115096D01*
X0012752Y0115096D01*
X0012752Y0118687D01*
X0012933Y0118687D01*
X0012933Y0118868D01*
X0018705Y0118868D01*
X0018705Y0119140D01*
X0018563Y0119851D01*
X0018286Y0120521D01*
X0017883Y0121124D01*
X0017370Y0121637D01*
X0018194Y0120659D02*
X0023948Y0120659D01*
X0023541Y0119660D02*
X0018601Y0119660D01*
X0018705Y0118687D02*
X0012933Y0118687D01*
X0012933Y0115096D01*
X0015386Y0115096D01*
X0016097Y0115238D01*
X0016767Y0115515D01*
X0017370Y0115918D01*
X0017883Y0116431D01*
X0018286Y0117034D01*
X0018563Y0117704D01*
X0018705Y0118415D01*
X0018705Y0118687D01*
X0018705Y0118662D02*
X0023437Y0118662D01*
X0023437Y0118687D02*
X0023437Y0118415D01*
X0023578Y0117704D01*
X0023856Y0117034D01*
X0024259Y0116431D01*
X0024772Y0115918D01*
X0025374Y0115515D01*
X0026044Y0115238D01*
X0026756Y0115096D01*
X0029209Y0115096D01*
X0029209Y0118687D01*
X0029390Y0118687D01*
X0029390Y0118868D01*
X0035161Y0118868D01*
X0035161Y0119140D01*
X0035020Y0119851D01*
X0034742Y0120521D01*
X0034340Y0121124D01*
X0033827Y0121637D01*
X0033224Y0122039D01*
X0032554Y0122317D01*
X0031843Y0122458D01*
X0029390Y0122458D01*
X0029390Y0118868D01*
X0029209Y0118868D01*
X0029209Y0118687D01*
X0023437Y0118687D01*
X0023595Y0117663D02*
X0018546Y0117663D01*
X0018039Y0116665D02*
X0024103Y0116665D01*
X0025149Y0115666D02*
X0016993Y0115666D01*
X0012933Y0115666D02*
X0012752Y0115666D01*
X0012752Y0116665D02*
X0012933Y0116665D01*
X0012933Y0117663D02*
X0012752Y0117663D01*
X0012752Y0118662D02*
X0012933Y0118662D01*
X0012933Y0119660D02*
X0012752Y0119660D01*
X0012752Y0120659D02*
X0012933Y0120659D01*
X0012933Y0121657D02*
X0012752Y0121657D01*
X0008346Y0121657D02*
X0005943Y0121657D01*
X0005943Y0120659D02*
X0007491Y0120659D01*
X0007084Y0119660D02*
X0005943Y0119660D01*
X0005943Y0118662D02*
X0006980Y0118662D01*
X0007139Y0117663D02*
X0005943Y0117663D01*
X0005943Y0116665D02*
X0007646Y0116665D01*
X0008692Y0115666D02*
X0005943Y0115666D01*
X0005943Y0115448D02*
X0005943Y0162622D01*
X0007005Y0163685D01*
X0021505Y0163685D01*
X0024005Y0166185D01*
X0024943Y0167122D01*
X0024943Y0179622D01*
X0027505Y0182185D01*
X0098180Y0182185D01*
X0099552Y0180813D01*
X0099552Y0179836D01*
X0100343Y0179046D01*
X0100343Y0161906D01*
X0092221Y0153785D01*
X0091343Y0152906D01*
X0091343Y0149424D01*
X0091112Y0149424D01*
X0090362Y0148675D01*
X0089612Y0149424D01*
X0086112Y0149424D01*
X0085362Y0148675D01*
X0084612Y0149424D01*
X0081112Y0149424D01*
X0080362Y0148675D01*
X0079612Y0149424D01*
X0076112Y0149424D01*
X0075362Y0148675D01*
X0074612Y0149424D01*
X0071112Y0149424D01*
X0070362Y0148675D01*
X0069612Y0149424D01*
X0066112Y0149424D01*
X0064931Y0148244D01*
X0064931Y0143959D01*
X0063133Y0145757D01*
X0063133Y0146734D01*
X0061791Y0148076D01*
X0059894Y0148076D01*
X0058552Y0146734D01*
X0058552Y0144836D01*
X0059894Y0143495D01*
X0060870Y0143495D01*
X0069680Y0134685D01*
X0077203Y0134685D01*
X0077894Y0133995D01*
X0079791Y0133995D01*
X0081133Y0135336D01*
X0081133Y0137234D01*
X0079791Y0138576D01*
X0077894Y0138576D01*
X0077203Y0137885D01*
X0071005Y0137885D01*
X0067375Y0141516D01*
X0069612Y0141516D01*
X0070362Y0142266D01*
X0071112Y0141516D01*
X0074612Y0141516D01*
X0075362Y0142266D01*
X0076112Y0141516D01*
X0079612Y0141516D01*
X0080362Y0142266D01*
X0081112Y0141516D01*
X0081243Y0141516D01*
X0081243Y0133948D01*
X0071243Y0123948D01*
X0071243Y0120924D01*
X0070552Y0120234D01*
X0070552Y0118336D01*
X0071894Y0116995D01*
X0073791Y0116995D01*
X0075133Y0118336D01*
X0075133Y0120234D01*
X0074443Y0120924D01*
X0074443Y0122622D01*
X0083505Y0131685D01*
X0083505Y0131685D01*
X0084443Y0132622D01*
X0084443Y0141516D01*
X0084612Y0141516D01*
X0085362Y0142266D01*
X0086112Y0141516D01*
X0089612Y0141516D01*
X0090362Y0142266D01*
X0091112Y0141516D01*
X0094612Y0141516D01*
X0095362Y0142266D01*
X0096112Y0141516D01*
X0099612Y0141516D01*
X0100362Y0142266D01*
X0101112Y0141516D01*
X0104612Y0141516D01*
X0105362Y0142266D01*
X0106112Y0141516D01*
X0107452Y0141516D01*
X0106843Y0140906D01*
X0099843Y0133906D01*
X0099843Y0117024D01*
X0099052Y0116234D01*
X0099052Y0114336D01*
X0100394Y0112995D01*
X0102291Y0112995D01*
X0103633Y0114336D01*
X0103633Y0116234D01*
X0102843Y0117024D01*
X0102843Y0132664D01*
X0104843Y0134664D01*
X0104843Y0123024D01*
X0104052Y0122234D01*
X0104052Y0120336D01*
X0105394Y0118995D01*
X0107291Y0118995D01*
X0108633Y0120336D01*
X0108633Y0122234D01*
X0107843Y0123024D01*
X0107843Y0135164D01*
X0108052Y0135373D01*
X0108052Y0134836D01*
X0108843Y0134046D01*
X0108843Y0125524D01*
X0108052Y0124734D01*
X0108052Y0122836D01*
X0109394Y0121495D01*
X0110313Y0121495D01*
X0109552Y0120734D01*
X0109552Y0118836D01*
X0110894Y0117495D01*
X0111313Y0117495D01*
X0110552Y0116734D01*
X0110552Y0114836D01*
X0111353Y0114035D01*
X0110552Y0113234D01*
X0110552Y0111336D01*
X0111894Y0109995D01*
X0113791Y0109995D01*
X0114143Y0110346D01*
X0114143Y0106824D01*
X0113552Y0106234D01*
X0113552Y0104336D01*
X0114894Y0102995D01*
X0116791Y0102995D01*
X0117819Y0104022D01*
X0117819Y0098496D01*
X0117633Y0098682D01*
X0117633Y0099234D01*
X0116291Y0100576D01*
X0114394Y0100576D01*
X0113052Y0099234D01*
X0113052Y0097336D01*
X0114394Y0095995D01*
X0114946Y0095995D01*
X0123052Y0087889D01*
X0123052Y0087336D01*
X0124394Y0085995D01*
X0126291Y0085995D01*
X0127633Y0087336D01*
X0127633Y0089234D01*
X0126291Y0090576D01*
X0125739Y0090576D01*
X0120337Y0095978D01*
X0126693Y0095978D01*
X0126693Y0104852D01*
X0127693Y0104852D01*
X0127693Y0105852D01*
X0136567Y0105852D01*
X0136567Y0112657D01*
X0139052Y0110172D01*
X0139052Y0109336D01*
X0139443Y0108946D01*
X0139443Y0100572D01*
X0136567Y0097697D01*
X0136567Y0104852D01*
X0127693Y0104852D01*
X0127693Y0095978D01*
X0134848Y0095978D01*
X0130943Y0092072D01*
X0130943Y0084124D01*
X0130552Y0083734D01*
X0130552Y0081836D01*
X0131894Y0080495D01*
X0133791Y0080495D01*
X0135133Y0081836D01*
X0135133Y0083734D01*
X0134743Y0084124D01*
X0134743Y0090498D01*
X0143243Y0098998D01*
X0143243Y0108946D01*
X0143633Y0109336D01*
X0143633Y0111234D01*
X0142291Y0112576D01*
X0141456Y0112576D01*
X0138247Y0115785D01*
X0140221Y0115785D01*
X0142052Y0113954D01*
X0142052Y0113336D01*
X0143394Y0111995D01*
X0145291Y0111995D01*
X0146633Y0113336D01*
X0146633Y0115234D01*
X0145872Y0115995D01*
X0146291Y0115995D01*
X0147633Y0117336D01*
X0147633Y0119234D01*
X0146291Y0120576D01*
X0145173Y0120576D01*
X0144964Y0120785D01*
X0136582Y0120785D01*
X0136633Y0120836D01*
X0136633Y0122734D01*
X0135582Y0123785D01*
X0138552Y0123785D01*
X0138552Y0122836D01*
X0139894Y0121495D01*
X0141791Y0121495D01*
X0143133Y0122836D01*
X0143133Y0124734D01*
X0141791Y0126076D01*
X0140673Y0126076D01*
X0139964Y0126785D01*
X0114721Y0126785D01*
X0114012Y0126076D01*
X0112894Y0126076D01*
X0112093Y0125274D01*
X0111843Y0125524D01*
X0111843Y0134046D01*
X0112633Y0134836D01*
X0112633Y0136734D01*
X0112082Y0137285D01*
X0121464Y0137285D01*
X0123464Y0139285D01*
X0124343Y0140164D01*
X0124343Y0141516D01*
X0124612Y0141516D01*
X0125362Y0142266D01*
X0126112Y0141516D01*
X0129612Y0141516D01*
X0130362Y0142266D01*
X0131112Y0141516D01*
X0134612Y0141516D01*
X0135362Y0142266D01*
X0136112Y0141516D01*
X0139612Y0141516D01*
X0140362Y0142266D01*
X0141112Y0141516D01*
X0144612Y0141516D01*
X0145362Y0142266D01*
X0146112Y0141516D01*
X0146490Y0141516D01*
X0154343Y0133664D01*
X0154343Y0099906D01*
X0153721Y0099285D01*
X0148582Y0099285D01*
X0147791Y0100076D01*
X0145894Y0100076D01*
X0144552Y0098734D01*
X0144552Y0096836D01*
X0145894Y0095495D01*
X0147791Y0095495D01*
X0148582Y0096285D01*
X0154964Y0096285D01*
X0155843Y0097164D01*
X0157343Y0098664D01*
X0157343Y0134906D01*
X0156464Y0135785D01*
X0150173Y0142076D01*
X0150362Y0142266D01*
X0151112Y0141516D01*
X0151362Y0141516D01*
X0151362Y0141144D01*
X0157843Y0134664D01*
X0157843Y0092406D01*
X0157221Y0091785D01*
X0148582Y0091785D01*
X0147791Y0092576D01*
X0145894Y0092576D01*
X0144552Y0091234D01*
X0144552Y0089336D01*
X0145894Y0087995D01*
X0147791Y0087995D01*
X0148582Y0088785D01*
X0158464Y0088785D01*
X0159343Y0089664D01*
X0160843Y0091164D01*
X0160843Y0135906D01*
X0159964Y0136785D01*
X0154923Y0141826D01*
X0155079Y0141983D01*
X0155407Y0141655D01*
X0155803Y0141391D01*
X0156242Y0141209D01*
X0156709Y0141116D01*
X0157447Y0141116D01*
X0157447Y0145055D01*
X0158278Y0145055D01*
X0158278Y0145886D01*
X0157447Y0145886D01*
X0157447Y0149824D01*
X0156709Y0149824D01*
X0156242Y0149732D01*
X0155803Y0149550D01*
X0155407Y0149285D01*
X0155079Y0148957D01*
X0154612Y0149424D01*
X0151112Y0149424D01*
X0150362Y0148675D01*
X0149612Y0149424D01*
X0146112Y0149424D01*
X0145362Y0148675D01*
X0144612Y0149424D01*
X0144362Y0149424D01*
X0144362Y0161387D01*
X0144343Y0161406D01*
X0144343Y0163546D01*
X0145133Y0164336D01*
X0145133Y0166234D01*
X0143791Y0167576D01*
X0141894Y0167576D01*
X0140552Y0166234D01*
X0140552Y0164336D01*
X0141343Y0163546D01*
X0141343Y0160164D01*
X0141362Y0160144D01*
X0141362Y0149424D01*
X0141112Y0149424D01*
X0140362Y0148675D01*
X0139612Y0149424D01*
X0139362Y0149424D01*
X0139362Y0167026D01*
X0140153Y0167817D01*
X0140153Y0169714D01*
X0138811Y0171056D01*
X0136913Y0171056D01*
X0135572Y0169714D01*
X0135572Y0167817D01*
X0136362Y0167026D01*
X0136362Y0149424D01*
X0136112Y0149424D01*
X0135362Y0148675D01*
X0134612Y0149424D01*
X0134362Y0149424D01*
X0134362Y0157387D01*
X0131133Y0160616D01*
X0131133Y0161734D01*
X0129791Y0163076D01*
X0127894Y0163076D01*
X0126552Y0161734D01*
X0126552Y0159836D01*
X0127894Y0158495D01*
X0129012Y0158495D01*
X0131362Y0156144D01*
X0131362Y0149424D01*
X0131112Y0149424D01*
X0130362Y0148675D01*
X0129612Y0149424D01*
X0126112Y0149424D01*
X0125362Y0148675D01*
X0124612Y0149424D01*
X0121112Y0149424D01*
X0120362Y0148675D01*
X0119612Y0149424D01*
X0116112Y0149424D01*
X0115362Y0148675D01*
X0114612Y0149424D01*
X0111112Y0149424D01*
X0110362Y0148675D01*
X0109612Y0149424D01*
X0106112Y0149424D01*
X0105362Y0148675D01*
X0104612Y0149424D01*
X0101112Y0149424D01*
X0100362Y0148675D01*
X0099612Y0149424D01*
X0096112Y0149424D01*
X0095362Y0148675D01*
X0094612Y0149424D01*
X0094343Y0149424D01*
X0094343Y0151664D01*
X0103343Y0160664D01*
X0103343Y0179046D01*
X0104133Y0179836D01*
X0104133Y0181734D01*
X0102791Y0183076D01*
X0101815Y0183076D01*
X0100605Y0184285D01*
X0161343Y0184285D01*
X0161343Y0046848D01*
X0161073Y0046960D01*
X0159612Y0046960D01*
X0159030Y0046719D01*
X0144843Y0060906D01*
X0144843Y0068546D01*
X0145633Y0069336D01*
X0145633Y0071234D01*
X0144667Y0072200D01*
X0145362Y0072896D01*
X0146112Y0072146D01*
X0149612Y0072146D01*
X0150362Y0072896D01*
X0150543Y0072715D01*
X0150543Y0069832D01*
X0151890Y0068485D01*
X0153795Y0068485D01*
X0155143Y0069832D01*
X0155143Y0072550D01*
X0155407Y0072285D01*
X0155803Y0072021D01*
X0156242Y0071839D01*
X0156709Y0071746D01*
X0157447Y0071746D01*
X0157447Y0075685D01*
X0158278Y0075685D01*
X0158278Y0076515D01*
X0161193Y0076515D01*
X0161193Y0078277D01*
X0161100Y0078744D01*
X0160918Y0079183D01*
X0160654Y0079579D01*
X0160317Y0079915D01*
X0159922Y0080180D01*
X0159482Y0080362D01*
X0159015Y0080454D01*
X0158278Y0080454D01*
X0158278Y0076516D01*
X0157447Y0076516D01*
X0157447Y0080454D01*
X0156709Y0080454D01*
X0156242Y0080362D01*
X0155803Y0080180D01*
X0155407Y0079915D01*
X0155079Y0079587D01*
X0154612Y0080054D01*
X0151112Y0080054D01*
X0150362Y0079305D01*
X0149612Y0080054D01*
X0149443Y0080054D01*
X0149443Y0081146D01*
X0150133Y0081836D01*
X0150133Y0083734D01*
X0148791Y0085076D01*
X0146894Y0085076D01*
X0145552Y0083734D01*
X0145552Y0081836D01*
X0146243Y0081146D01*
X0146243Y0080054D01*
X0146112Y0080054D01*
X0145362Y0079305D01*
X0144612Y0080054D01*
X0141112Y0080054D01*
X0140362Y0079305D01*
X0139612Y0080054D01*
X0136112Y0080054D01*
X0135362Y0079305D01*
X0134612Y0080054D01*
X0131112Y0080054D01*
X0130362Y0079305D01*
X0129612Y0080054D01*
X0126112Y0080054D01*
X0125362Y0079305D01*
X0124612Y0080054D01*
X0121112Y0080054D01*
X0120362Y0079305D01*
X0119612Y0080054D01*
X0116112Y0080054D01*
X0115362Y0079305D01*
X0114612Y0080054D01*
X0111112Y0080054D01*
X0110362Y0079305D01*
X0109612Y0080054D01*
X0106112Y0080054D01*
X0105362Y0079305D01*
X0104612Y0080054D01*
X0101112Y0080054D01*
X0100362Y0079305D01*
X0099612Y0080054D01*
X0096112Y0080054D01*
X0095362Y0079305D01*
X0094612Y0080054D01*
X0094362Y0080054D01*
X0094362Y0080183D01*
X0097464Y0083285D01*
X0105964Y0083285D01*
X0108464Y0085785D01*
X0109343Y0086664D01*
X0109343Y0096546D01*
X0110133Y0097336D01*
X0110133Y0099234D01*
X0108791Y0100576D01*
X0106894Y0100576D01*
X0105552Y0099234D01*
X0105552Y0097336D01*
X0106343Y0096546D01*
X0106343Y0087906D01*
X0104721Y0086285D01*
X0096221Y0086285D01*
X0095343Y0085406D01*
X0091362Y0081426D01*
X0091362Y0080054D01*
X0091112Y0080054D01*
X0090645Y0079587D01*
X0090317Y0079915D01*
X0089922Y0080180D01*
X0089482Y0080362D01*
X0089015Y0080454D01*
X0088278Y0080454D01*
X0088278Y0076516D01*
X0087447Y0076516D01*
X0087447Y0080454D01*
X0086709Y0080454D01*
X0086242Y0080362D01*
X0085803Y0080180D01*
X0085407Y0079915D01*
X0085079Y0079587D01*
X0084923Y0079744D01*
X0096464Y0091285D01*
X0097343Y0092164D01*
X0097343Y0097546D01*
X0098133Y0098336D01*
X0098133Y0100234D01*
X0096791Y0101576D01*
X0094894Y0101576D01*
X0093552Y0100234D01*
X0093552Y0098336D01*
X0094343Y0097546D01*
X0094343Y0093406D01*
X0081362Y0080426D01*
X0081362Y0080054D01*
X0081112Y0080054D01*
X0080362Y0079305D01*
X0079612Y0080054D01*
X0076112Y0080054D01*
X0075362Y0079305D01*
X0074612Y0080054D01*
X0071112Y0080054D01*
X0070362Y0079305D01*
X0069612Y0080054D01*
X0066112Y0080054D01*
X0064931Y0078874D01*
X0064931Y0073326D01*
X0066112Y0072146D01*
X0069612Y0072146D01*
X0070362Y0072896D01*
X0071112Y0072146D01*
X0074612Y0072146D01*
X0075362Y0072896D01*
X0076112Y0072146D01*
X0079612Y0072146D01*
X0080362Y0072896D01*
X0081112Y0072146D01*
X0084612Y0072146D01*
X0085079Y0072613D01*
X0085407Y0072285D01*
X0085803Y0072021D01*
X0086242Y0071839D01*
X0086709Y0071746D01*
X0087447Y0071746D01*
X0087447Y0075685D01*
X0088278Y0075685D01*
X0088278Y0071746D01*
X0089015Y0071746D01*
X0089482Y0071839D01*
X0089922Y0072021D01*
X0090317Y0072285D01*
X0090645Y0072613D01*
X0091112Y0072146D01*
X0094612Y0072146D01*
X0095362Y0072896D01*
X0096112Y0072146D01*
X0096362Y0072146D01*
X0096362Y0069426D01*
X0095221Y0068285D01*
X0076721Y0068285D01*
X0074512Y0066076D01*
X0073394Y0066076D01*
X0072052Y0064734D01*
X0072052Y0062836D01*
X0073394Y0061495D01*
X0075291Y0061495D01*
X0076633Y0062836D01*
X0076633Y0063954D01*
X0077964Y0065285D01*
X0096464Y0065285D01*
X0097343Y0066164D01*
X0099362Y0068183D01*
X0099362Y0072146D01*
X0099612Y0072146D01*
X0100362Y0072896D01*
X0101112Y0072146D01*
X0101362Y0072146D01*
X0101362Y0067426D01*
X0096721Y0062785D01*
X0080721Y0062785D01*
X0069721Y0051785D01*
X0068843Y0050906D01*
X0068843Y0046641D01*
X0068261Y0046400D01*
X0067227Y0045367D01*
X0066668Y0044016D01*
X0066668Y0042554D01*
X0067227Y0041204D01*
X0068261Y0040170D01*
X0069612Y0039610D01*
X0071073Y0039610D01*
X0072424Y0040170D01*
X0073458Y0041204D01*
X0074017Y0042554D01*
X0074017Y0044016D01*
X0073458Y0045367D01*
X0072424Y0046400D01*
X0071843Y0046641D01*
X0071843Y0049664D01*
X0073052Y0050873D01*
X0073052Y0049836D01*
X0074394Y0048495D01*
X0076291Y0048495D01*
X0077633Y0049836D01*
X0077633Y0050954D01*
X0084464Y0057785D01*
X0102464Y0057785D01*
X0103343Y0058664D01*
X0109362Y0064683D01*
X0109362Y0072146D01*
X0109612Y0072146D01*
X0110362Y0072896D01*
X0111112Y0072146D01*
X0114612Y0072146D01*
X0115362Y0072896D01*
X0116097Y0072161D01*
X0113221Y0069285D01*
X0112343Y0068406D01*
X0112343Y0060406D01*
X0106721Y0054785D01*
X0084721Y0054785D01*
X0079721Y0049785D01*
X0078843Y0048906D01*
X0078843Y0046641D01*
X0078261Y0046400D01*
X0077227Y0045367D01*
X0076668Y0044016D01*
X0076668Y0042554D01*
X0077227Y0041204D01*
X0078261Y0040170D01*
X0079612Y0039610D01*
X0081073Y0039610D01*
X0082424Y0040170D01*
X0083458Y0041204D01*
X0084017Y0042554D01*
X0084017Y0044016D01*
X0083458Y0045367D01*
X0082424Y0046400D01*
X0081843Y0046641D01*
X0081843Y0047664D01*
X0085964Y0051785D01*
X0091221Y0051785D01*
X0089721Y0050285D01*
X0088843Y0049406D01*
X0088843Y0046641D01*
X0088261Y0046400D01*
X0087227Y0045367D01*
X0086668Y0044016D01*
X0086668Y0042554D01*
X0087227Y0041204D01*
X0088261Y0040170D01*
X0089612Y0039610D01*
X0091073Y0039610D01*
X0092424Y0040170D01*
X0093458Y0041204D01*
X0094017Y0042554D01*
X0094017Y0044016D01*
X0093458Y0045367D01*
X0092424Y0046400D01*
X0091843Y0046641D01*
X0091843Y0048164D01*
X0092964Y0049285D01*
X0099721Y0049285D01*
X0098843Y0048406D01*
X0098843Y0046641D01*
X0098261Y0046400D01*
X0097227Y0045367D01*
X0096668Y0044016D01*
X0096668Y0042554D01*
X0097227Y0041204D01*
X0098261Y0040170D01*
X0099612Y0039610D01*
X0101073Y0039610D01*
X0102424Y0040170D01*
X0103458Y0041204D01*
X0104017Y0042554D01*
X0104017Y0044016D01*
X0103458Y0045367D01*
X0102424Y0046400D01*
X0101843Y0046641D01*
X0101843Y0047164D01*
X0101964Y0047285D01*
X0109550Y0047285D01*
X0109388Y0047260D01*
X0108778Y0047061D01*
X0108207Y0046770D01*
X0107688Y0046393D01*
X0107234Y0045940D01*
X0106857Y0045421D01*
X0106566Y0044849D01*
X0106368Y0044239D01*
X0106268Y0043606D01*
X0106268Y0043573D01*
X0110055Y0043573D01*
X0110055Y0042998D01*
X0106268Y0042998D01*
X0106268Y0042964D01*
X0106368Y0042331D01*
X0106566Y0041721D01*
X0106857Y0041149D01*
X0107234Y0040631D01*
X0107688Y0040177D01*
X0108207Y0039800D01*
X0108778Y0039509D01*
X0109388Y0039311D01*
X0110022Y0039210D01*
X0110055Y0039210D01*
X0110055Y0042998D01*
X0110630Y0042998D01*
X0110630Y0043573D01*
X0114417Y0043573D01*
X0114417Y0043606D01*
X0114317Y0044239D01*
X0114119Y0044849D01*
X0113828Y0045421D01*
X0113451Y0045940D01*
X0112997Y0046393D01*
X0112478Y0046770D01*
X0111907Y0047061D01*
X0111297Y0047260D01*
X0111135Y0047285D01*
X0131464Y0047285D01*
X0132343Y0048164D01*
X0135343Y0051164D01*
X0135343Y0068406D01*
X0134464Y0069285D01*
X0134362Y0069387D01*
X0134362Y0072146D01*
X0134612Y0072146D01*
X0135362Y0072896D01*
X0136112Y0072146D01*
X0137964Y0072146D01*
X0137052Y0071234D01*
X0137052Y0069336D01*
X0137843Y0068546D01*
X0137843Y0053664D01*
X0138721Y0052785D01*
X0146909Y0044598D01*
X0146668Y0044016D01*
X0146668Y0042554D01*
X0147227Y0041204D01*
X0148261Y0040170D01*
X0149612Y0039610D01*
X0151073Y0039610D01*
X0152424Y0040170D01*
X0153458Y0041204D01*
X0154017Y0042554D01*
X0154017Y0044016D01*
X0153458Y0045367D01*
X0152424Y0046400D01*
X0151073Y0046960D01*
X0149612Y0046960D01*
X0149030Y0046719D01*
X0140843Y0054906D01*
X0140843Y0068546D01*
X0141343Y0069046D01*
X0141843Y0068546D01*
X0141843Y0059664D01*
X0156909Y0044598D01*
X0156668Y0044016D01*
X0156668Y0042554D01*
X0157227Y0041204D01*
X0158261Y0040170D01*
X0159612Y0039610D01*
X0161073Y0039610D01*
X0161343Y0039722D01*
X0161343Y0037285D01*
X0018550Y0037285D01*
X0020528Y0038779D01*
X0022540Y0042028D01*
X0023243Y0045785D01*
X0022540Y0049542D01*
X0020528Y0052792D01*
X0017478Y0055095D01*
X0013802Y0056141D01*
X0009996Y0055788D01*
X0006575Y0054084D01*
X0004343Y0051635D01*
X0004343Y0112522D01*
X0006052Y0110813D01*
X0006052Y0109836D01*
X0007394Y0108495D01*
X0009291Y0108495D01*
X0010633Y0109836D01*
X0010633Y0111734D01*
X0009291Y0113076D01*
X0008315Y0113076D01*
X0005943Y0115448D01*
X0006723Y0114668D02*
X0039543Y0114668D01*
X0039543Y0115666D02*
X0033450Y0115666D01*
X0033224Y0115515D02*
X0033827Y0115918D01*
X0034340Y0116431D01*
X0034742Y0117034D01*
X0035020Y0117704D01*
X0035161Y0118415D01*
X0035161Y0118687D01*
X0029390Y0118687D01*
X0029390Y0115096D01*
X0031843Y0115096D01*
X0032554Y0115238D01*
X0033224Y0115515D01*
X0034496Y0116665D02*
X0039543Y0116665D01*
X0039543Y0117663D02*
X0035003Y0117663D01*
X0035161Y0118662D02*
X0039543Y0118662D01*
X0040465Y0119660D02*
X0035058Y0119660D01*
X0034650Y0120659D02*
X0041463Y0120659D01*
X0042462Y0121657D02*
X0033796Y0121657D01*
X0030027Y0123654D02*
X0044459Y0123654D01*
X0045457Y0124653D02*
X0030110Y0124653D01*
X0029824Y0125651D02*
X0046456Y0125651D01*
X0047454Y0126650D02*
X0029019Y0126650D01*
X0029510Y0122656D02*
X0043460Y0122656D01*
X0046970Y0119660D02*
X0070552Y0119660D01*
X0070552Y0118662D02*
X0045972Y0118662D01*
X0044973Y0117663D02*
X0071225Y0117663D01*
X0072843Y0119285D02*
X0072843Y0123285D01*
X0082843Y0133285D01*
X0082843Y0145450D01*
X0081001Y0141627D02*
X0079724Y0141627D01*
X0081243Y0140629D02*
X0068262Y0140629D01*
X0069260Y0139630D02*
X0081243Y0139630D01*
X0081243Y0138632D02*
X0070259Y0138632D01*
X0069724Y0141627D02*
X0071001Y0141627D01*
X0074724Y0141627D02*
X0076001Y0141627D01*
X0080734Y0137633D02*
X0081243Y0137633D01*
X0081243Y0136635D02*
X0081133Y0136635D01*
X0081133Y0135636D02*
X0081243Y0135636D01*
X0081243Y0134638D02*
X0080434Y0134638D01*
X0080934Y0133639D02*
X0052643Y0133639D01*
X0052643Y0132641D02*
X0079935Y0132641D01*
X0078937Y0131642D02*
X0052643Y0131642D01*
X0052643Y0130644D02*
X0077938Y0130644D01*
X0076940Y0129645D02*
X0052643Y0129645D01*
X0052643Y0128647D02*
X0075941Y0128647D01*
X0074943Y0127648D02*
X0052643Y0127648D01*
X0052643Y0126650D02*
X0073944Y0126650D01*
X0072946Y0125651D02*
X0052643Y0125651D01*
X0051963Y0124653D02*
X0071947Y0124653D01*
X0071243Y0123654D02*
X0050964Y0123654D01*
X0051295Y0123985D02*
X0051295Y0123985D01*
X0049966Y0122656D02*
X0071243Y0122656D01*
X0071243Y0121657D02*
X0048967Y0121657D01*
X0047969Y0120659D02*
X0070977Y0120659D01*
X0074443Y0121657D02*
X0099843Y0121657D01*
X0099843Y0120659D02*
X0074708Y0120659D01*
X0075133Y0119660D02*
X0099843Y0119660D01*
X0099843Y0118662D02*
X0075133Y0118662D01*
X0074460Y0117663D02*
X0099843Y0117663D01*
X0099483Y0116665D02*
X0044143Y0116665D01*
X0044143Y0115666D02*
X0099052Y0115666D01*
X0099052Y0114668D02*
X0044143Y0114668D01*
X0044143Y0113669D02*
X0099719Y0113669D01*
X0102966Y0113669D02*
X0110987Y0113669D01*
X0110721Y0114668D02*
X0103633Y0114668D01*
X0103633Y0115666D02*
X0110552Y0115666D01*
X0110552Y0116665D02*
X0103202Y0116665D01*
X0102843Y0117663D02*
X0110725Y0117663D01*
X0109727Y0118662D02*
X0102843Y0118662D01*
X0102843Y0119660D02*
X0104728Y0119660D01*
X0104052Y0120659D02*
X0102843Y0120659D01*
X0102843Y0121657D02*
X0104052Y0121657D01*
X0104474Y0122656D02*
X0102843Y0122656D01*
X0102843Y0123654D02*
X0104843Y0123654D01*
X0104843Y0124653D02*
X0102843Y0124653D01*
X0102843Y0125651D02*
X0104843Y0125651D01*
X0104843Y0126650D02*
X0102843Y0126650D01*
X0102843Y0127648D02*
X0104843Y0127648D01*
X0104843Y0128647D02*
X0102843Y0128647D01*
X0102843Y0129645D02*
X0104843Y0129645D01*
X0104843Y0130644D02*
X0102843Y0130644D01*
X0102843Y0131642D02*
X0104843Y0131642D01*
X0104843Y0132641D02*
X0102843Y0132641D01*
X0103818Y0133639D02*
X0104843Y0133639D01*
X0104816Y0134638D02*
X0104843Y0134638D01*
X0107843Y0134638D02*
X0108251Y0134638D01*
X0107843Y0133639D02*
X0108843Y0133639D01*
X0108843Y0132641D02*
X0107843Y0132641D01*
X0107843Y0131642D02*
X0108843Y0131642D01*
X0108843Y0130644D02*
X0107843Y0130644D01*
X0107843Y0129645D02*
X0108843Y0129645D01*
X0108843Y0128647D02*
X0107843Y0128647D01*
X0107843Y0127648D02*
X0108843Y0127648D01*
X0108843Y0126650D02*
X0107843Y0126650D01*
X0107843Y0125651D02*
X0108843Y0125651D01*
X0108052Y0124653D02*
X0107843Y0124653D01*
X0107843Y0123654D02*
X0108052Y0123654D01*
X0108211Y0122656D02*
X0108233Y0122656D01*
X0108633Y0121657D02*
X0109231Y0121657D01*
X0109552Y0120659D02*
X0108633Y0120659D01*
X0107957Y0119660D02*
X0109552Y0119660D01*
X0110552Y0112670D02*
X0044143Y0112670D01*
X0044143Y0111672D02*
X0110552Y0111672D01*
X0111215Y0110673D02*
X0088141Y0110673D01*
X0087630Y0111185D02*
X0078682Y0111185D01*
X0078291Y0111576D01*
X0076394Y0111576D01*
X0075052Y0110234D01*
X0075052Y0108336D01*
X0076394Y0106995D01*
X0078291Y0106995D01*
X0078682Y0107385D01*
X0086056Y0107385D01*
X0089552Y0103889D01*
X0089552Y0103336D01*
X0090894Y0101995D01*
X0092791Y0101995D01*
X0094133Y0103336D01*
X0094133Y0105234D01*
X0092791Y0106576D01*
X0092239Y0106576D01*
X0088743Y0110072D01*
X0087630Y0111185D01*
X0089140Y0109675D02*
X0114143Y0109675D01*
X0114143Y0108676D02*
X0090138Y0108676D01*
X0091137Y0107678D02*
X0114143Y0107678D01*
X0113998Y0106679D02*
X0092135Y0106679D01*
X0093686Y0105681D02*
X0113552Y0105681D01*
X0113552Y0104682D02*
X0094133Y0104682D01*
X0094133Y0103684D02*
X0114204Y0103684D01*
X0117481Y0103684D02*
X0117819Y0103684D01*
X0117819Y0102685D02*
X0093482Y0102685D01*
X0094006Y0100688D02*
X0044143Y0100688D01*
X0044143Y0099690D02*
X0093552Y0099690D01*
X0093552Y0098691D02*
X0044143Y0098691D01*
X0044143Y0097693D02*
X0094195Y0097693D01*
X0094343Y0096694D02*
X0044143Y0096694D01*
X0044143Y0095696D02*
X0094343Y0095696D01*
X0094343Y0094697D02*
X0044143Y0094697D01*
X0044143Y0093699D02*
X0094343Y0093699D01*
X0093636Y0092700D02*
X0044143Y0092700D01*
X0044143Y0091702D02*
X0092638Y0091702D01*
X0091639Y0090703D02*
X0044143Y0090703D01*
X0039543Y0090703D02*
X0004343Y0090703D01*
X0004343Y0089705D02*
X0039543Y0089705D01*
X0039011Y0088706D02*
X0004343Y0088706D01*
X0004343Y0087708D02*
X0038012Y0087708D01*
X0037014Y0086709D02*
X0004343Y0086709D01*
X0004343Y0085711D02*
X0036015Y0085711D01*
X0035017Y0084712D02*
X0004343Y0084712D01*
X0004343Y0083714D02*
X0034018Y0083714D01*
X0033020Y0082715D02*
X0004343Y0082715D01*
X0004343Y0081717D02*
X0032021Y0081717D01*
X0031023Y0080718D02*
X0004343Y0080718D01*
X0004343Y0079720D02*
X0030024Y0079720D01*
X0029026Y0078721D02*
X0004343Y0078721D01*
X0004343Y0077723D02*
X0028043Y0077723D01*
X0028043Y0076724D02*
X0004343Y0076724D01*
X0004343Y0075726D02*
X0028043Y0075726D01*
X0028043Y0074727D02*
X0004343Y0074727D01*
X0004343Y0073729D02*
X0006758Y0073729D01*
X0006837Y0073761D02*
X0005743Y0073308D01*
X0004906Y0072471D01*
X0004453Y0071377D01*
X0004453Y0070193D01*
X0004906Y0069099D01*
X0005743Y0068262D01*
X0006837Y0067809D01*
X0008021Y0067809D01*
X0009115Y0068262D01*
X0009952Y0069099D01*
X0010405Y0070193D01*
X0010405Y0071377D01*
X0009952Y0072471D01*
X0009115Y0073308D01*
X0008021Y0073761D01*
X0006837Y0073761D01*
X0008101Y0073729D02*
X0017584Y0073729D01*
X0017664Y0073761D02*
X0016570Y0073308D01*
X0015733Y0072471D01*
X0015280Y0071377D01*
X0015280Y0070193D01*
X0015733Y0069099D01*
X0016570Y0068262D01*
X0017664Y0067809D01*
X0018848Y0067809D01*
X0019942Y0068262D01*
X0020779Y0069099D01*
X0021232Y0070193D01*
X0021232Y0071377D01*
X0020779Y0072471D01*
X0019942Y0073308D01*
X0018848Y0073761D01*
X0017664Y0073761D01*
X0018927Y0073729D02*
X0028043Y0073729D01*
X0028043Y0072730D02*
X0020520Y0072730D01*
X0021085Y0071732D02*
X0028043Y0071732D01*
X0028043Y0070733D02*
X0021232Y0070733D01*
X0021042Y0069735D02*
X0028043Y0069735D01*
X0028043Y0068736D02*
X0020416Y0068736D01*
X0016096Y0068736D02*
X0009589Y0068736D01*
X0010216Y0069735D02*
X0015469Y0069735D01*
X0015280Y0070733D02*
X0010405Y0070733D01*
X0010259Y0071732D02*
X0015426Y0071732D01*
X0015992Y0072730D02*
X0009693Y0072730D01*
X0005165Y0072730D02*
X0004343Y0072730D01*
X0004343Y0071732D02*
X0004600Y0071732D01*
X0004453Y0070733D02*
X0004343Y0070733D01*
X0004343Y0069735D02*
X0004643Y0069735D01*
X0004343Y0068736D02*
X0005269Y0068736D01*
X0004343Y0067737D02*
X0028043Y0067737D01*
X0028043Y0066739D02*
X0004343Y0066739D01*
X0004343Y0065740D02*
X0028043Y0065740D01*
X0028043Y0064742D02*
X0004343Y0064742D01*
X0004343Y0063743D02*
X0028043Y0063743D01*
X0028043Y0062745D02*
X0004343Y0062745D01*
X0004343Y0061746D02*
X0028043Y0061746D01*
X0028043Y0060748D02*
X0004343Y0060748D01*
X0004343Y0059749D02*
X0028043Y0059749D01*
X0028124Y0058751D02*
X0004343Y0058751D01*
X0004343Y0057752D02*
X0029123Y0057752D01*
X0031562Y0057752D02*
X0075688Y0057752D01*
X0074690Y0056754D02*
X0004343Y0056754D01*
X0004343Y0055755D02*
X0009931Y0055755D01*
X0009996Y0055788D02*
X0009996Y0055788D01*
X0007925Y0054757D02*
X0004343Y0054757D01*
X0004343Y0053758D02*
X0006278Y0053758D01*
X0006575Y0054084D02*
X0006575Y0054084D01*
X0006575Y0054084D01*
X0005368Y0052760D02*
X0004343Y0052760D01*
X0004343Y0051761D02*
X0004457Y0051761D01*
X0013802Y0056141D02*
X0013802Y0056141D01*
X0015157Y0055755D02*
X0073691Y0055755D01*
X0072693Y0054757D02*
X0017926Y0054757D01*
X0017478Y0055095D02*
X0017478Y0055095D01*
X0019248Y0053758D02*
X0071694Y0053758D01*
X0070696Y0052760D02*
X0066607Y0052760D01*
X0066291Y0053076D02*
X0064394Y0053076D01*
X0063603Y0052285D01*
X0062221Y0052285D01*
X0059721Y0049785D01*
X0058843Y0048906D01*
X0058843Y0046641D01*
X0058261Y0046400D01*
X0057227Y0045367D01*
X0056668Y0044016D01*
X0056668Y0042554D01*
X0057227Y0041204D01*
X0058261Y0040170D01*
X0059612Y0039610D01*
X0061073Y0039610D01*
X0062424Y0040170D01*
X0063458Y0041204D01*
X0064017Y0042554D01*
X0064017Y0044016D01*
X0063458Y0045367D01*
X0062424Y0046400D01*
X0061843Y0046641D01*
X0061843Y0047664D01*
X0063464Y0049285D01*
X0063603Y0049285D01*
X0064394Y0048495D01*
X0066291Y0048495D01*
X0067633Y0049836D01*
X0067633Y0051734D01*
X0066291Y0053076D01*
X0067606Y0051761D02*
X0069697Y0051761D01*
X0068843Y0050763D02*
X0067633Y0050763D01*
X0067561Y0049764D02*
X0068843Y0049764D01*
X0068843Y0048766D02*
X0066562Y0048766D01*
X0068843Y0047767D02*
X0061946Y0047767D01*
X0061843Y0046769D02*
X0068843Y0046769D01*
X0067631Y0045770D02*
X0063054Y0045770D01*
X0063704Y0044772D02*
X0066981Y0044772D01*
X0066668Y0043773D02*
X0064017Y0043773D01*
X0064017Y0042775D02*
X0066668Y0042775D01*
X0066990Y0041776D02*
X0063695Y0041776D01*
X0063032Y0040778D02*
X0067653Y0040778D01*
X0069204Y0039779D02*
X0061481Y0039779D01*
X0059204Y0039779D02*
X0052437Y0039779D01*
X0052478Y0039800D02*
X0052997Y0040177D01*
X0053451Y0040631D01*
X0053828Y0041149D01*
X0054119Y0041721D01*
X0054317Y0042331D01*
X0054417Y0042964D01*
X0054417Y0042998D01*
X0050630Y0042998D01*
X0050630Y0043573D01*
X0050055Y0043573D01*
X0050055Y0047360D01*
X0050022Y0047360D01*
X0049388Y0047260D01*
X0048778Y0047061D01*
X0048207Y0046770D01*
X0047688Y0046393D01*
X0047234Y0045940D01*
X0046857Y0045421D01*
X0046566Y0044849D01*
X0046368Y0044239D01*
X0046268Y0043606D01*
X0046268Y0043573D01*
X0050055Y0043573D01*
X0050055Y0042998D01*
X0046268Y0042998D01*
X0046268Y0042964D01*
X0046368Y0042331D01*
X0046566Y0041721D01*
X0046857Y0041149D01*
X0047234Y0040631D01*
X0047688Y0040177D01*
X0048207Y0039800D01*
X0048778Y0039509D01*
X0049388Y0039311D01*
X0050022Y0039210D01*
X0050055Y0039210D01*
X0050055Y0042998D01*
X0050630Y0042998D01*
X0050630Y0039210D01*
X0050663Y0039210D01*
X0051297Y0039311D01*
X0051907Y0039509D01*
X0052478Y0039800D01*
X0053557Y0040778D02*
X0057653Y0040778D01*
X0056990Y0041776D02*
X0054137Y0041776D01*
X0054387Y0042775D02*
X0056668Y0042775D01*
X0056668Y0043773D02*
X0054391Y0043773D01*
X0054417Y0043606D02*
X0054317Y0044239D01*
X0054119Y0044849D01*
X0053828Y0045421D01*
X0053451Y0045940D01*
X0052997Y0046393D01*
X0052478Y0046770D01*
X0051907Y0047061D01*
X0051297Y0047260D01*
X0050663Y0047360D01*
X0050630Y0047360D01*
X0050630Y0043573D01*
X0054417Y0043573D01*
X0054417Y0043606D01*
X0054144Y0044772D02*
X0056981Y0044772D01*
X0057631Y0045770D02*
X0053574Y0045770D01*
X0052480Y0046769D02*
X0058843Y0046769D01*
X0058843Y0047767D02*
X0022872Y0047767D01*
X0023059Y0046769D02*
X0029150Y0046769D01*
X0029612Y0046960D02*
X0028261Y0046400D01*
X0027227Y0045367D01*
X0026668Y0044016D01*
X0026668Y0042554D01*
X0027227Y0041204D01*
X0028261Y0040170D01*
X0029612Y0039610D01*
X0031073Y0039610D01*
X0032424Y0040170D01*
X0033458Y0041204D01*
X0034017Y0042554D01*
X0034017Y0044016D01*
X0033458Y0045367D01*
X0032424Y0046400D01*
X0031073Y0046960D01*
X0029612Y0046960D01*
X0031535Y0046769D02*
X0039150Y0046769D01*
X0039612Y0046960D02*
X0038261Y0046400D01*
X0037227Y0045367D01*
X0036668Y0044016D01*
X0036668Y0042554D01*
X0037227Y0041204D01*
X0038261Y0040170D01*
X0039612Y0039610D01*
X0041073Y0039610D01*
X0042424Y0040170D01*
X0043458Y0041204D01*
X0044017Y0042554D01*
X0044017Y0044016D01*
X0043458Y0045367D01*
X0042424Y0046400D01*
X0041073Y0046960D01*
X0039612Y0046960D01*
X0041535Y0046769D02*
X0048205Y0046769D01*
X0047111Y0045770D02*
X0043054Y0045770D01*
X0043704Y0044772D02*
X0046541Y0044772D01*
X0046294Y0043773D02*
X0044017Y0043773D01*
X0044017Y0042775D02*
X0046298Y0042775D01*
X0046548Y0041776D02*
X0043695Y0041776D01*
X0043032Y0040778D02*
X0047128Y0040778D01*
X0048248Y0039779D02*
X0041481Y0039779D01*
X0039204Y0039779D02*
X0031481Y0039779D01*
X0033032Y0040778D02*
X0037653Y0040778D01*
X0036990Y0041776D02*
X0033695Y0041776D01*
X0034017Y0042775D02*
X0036668Y0042775D01*
X0036668Y0043773D02*
X0034017Y0043773D01*
X0033704Y0044772D02*
X0036981Y0044772D01*
X0037631Y0045770D02*
X0033054Y0045770D01*
X0027631Y0045770D02*
X0023240Y0045770D01*
X0023053Y0044772D02*
X0026981Y0044772D01*
X0026668Y0043773D02*
X0022866Y0043773D01*
X0022680Y0042775D02*
X0026668Y0042775D01*
X0026990Y0041776D02*
X0022384Y0041776D01*
X0022540Y0042028D02*
X0022540Y0042028D01*
X0021766Y0040778D02*
X0027653Y0040778D01*
X0029204Y0039779D02*
X0021148Y0039779D01*
X0020529Y0038781D02*
X0161343Y0038781D01*
X0161343Y0037782D02*
X0019209Y0037782D01*
X0020528Y0038779D02*
X0020528Y0038779D01*
X0020528Y0038779D01*
X0022685Y0048766D02*
X0058843Y0048766D01*
X0059700Y0049764D02*
X0022403Y0049764D01*
X0022540Y0049542D02*
X0022540Y0049542D01*
X0021784Y0050763D02*
X0060699Y0050763D01*
X0061697Y0051761D02*
X0021166Y0051761D01*
X0020548Y0052760D02*
X0064078Y0052760D01*
X0064123Y0048766D02*
X0062944Y0048766D01*
X0071843Y0048766D02*
X0074123Y0048766D01*
X0073124Y0049764D02*
X0071943Y0049764D01*
X0072941Y0050763D02*
X0073052Y0050763D01*
X0071843Y0047767D02*
X0078843Y0047767D01*
X0078843Y0046769D02*
X0071843Y0046769D01*
X0073054Y0045770D02*
X0077631Y0045770D01*
X0076981Y0044772D02*
X0073704Y0044772D01*
X0074017Y0043773D02*
X0076668Y0043773D01*
X0076668Y0042775D02*
X0074017Y0042775D01*
X0073695Y0041776D02*
X0076990Y0041776D01*
X0077653Y0040778D02*
X0073032Y0040778D01*
X0071481Y0039779D02*
X0079204Y0039779D01*
X0081481Y0039779D02*
X0089204Y0039779D01*
X0087653Y0040778D02*
X0083032Y0040778D01*
X0083695Y0041776D02*
X0086990Y0041776D01*
X0086668Y0042775D02*
X0084017Y0042775D01*
X0084017Y0043773D02*
X0086668Y0043773D01*
X0086981Y0044772D02*
X0083704Y0044772D01*
X0083054Y0045770D02*
X0087631Y0045770D01*
X0088843Y0046769D02*
X0081843Y0046769D01*
X0081946Y0047767D02*
X0088843Y0047767D01*
X0088843Y0048766D02*
X0082944Y0048766D01*
X0083943Y0049764D02*
X0089200Y0049764D01*
X0090199Y0050763D02*
X0084942Y0050763D01*
X0085940Y0051761D02*
X0091197Y0051761D01*
X0092444Y0048766D02*
X0099202Y0048766D01*
X0099721Y0049285D02*
X0099721Y0049285D01*
X0098843Y0047767D02*
X0091843Y0047767D01*
X0091843Y0046769D02*
X0098843Y0046769D01*
X0097631Y0045770D02*
X0093054Y0045770D01*
X0093704Y0044772D02*
X0096981Y0044772D01*
X0096668Y0043773D02*
X0094017Y0043773D01*
X0094017Y0042775D02*
X0096668Y0042775D01*
X0096990Y0041776D02*
X0093695Y0041776D01*
X0093032Y0040778D02*
X0097653Y0040778D01*
X0099204Y0039779D02*
X0091481Y0039779D01*
X0101481Y0039779D02*
X0108248Y0039779D01*
X0107128Y0040778D02*
X0103032Y0040778D01*
X0103695Y0041776D02*
X0106548Y0041776D01*
X0106298Y0042775D02*
X0104017Y0042775D01*
X0104017Y0043773D02*
X0106294Y0043773D01*
X0106541Y0044772D02*
X0103704Y0044772D01*
X0103054Y0045770D02*
X0107111Y0045770D01*
X0108205Y0046769D02*
X0101843Y0046769D01*
X0108464Y0052285D02*
X0115343Y0059164D01*
X0115343Y0067164D01*
X0119362Y0071183D01*
X0119362Y0072146D01*
X0119612Y0072146D01*
X0120362Y0072896D01*
X0121097Y0072161D01*
X0118221Y0069285D01*
X0117343Y0068406D01*
X0117343Y0056664D01*
X0120552Y0053454D01*
X0120552Y0052336D01*
X0120603Y0052285D01*
X0108464Y0052285D01*
X0108939Y0052760D02*
X0120552Y0052760D01*
X0120248Y0053758D02*
X0109937Y0053758D01*
X0110936Y0054757D02*
X0119249Y0054757D01*
X0118251Y0055755D02*
X0111934Y0055755D01*
X0112933Y0056754D02*
X0117343Y0056754D01*
X0117343Y0057752D02*
X0113931Y0057752D01*
X0114930Y0058751D02*
X0117343Y0058751D01*
X0117343Y0059749D02*
X0115343Y0059749D01*
X0115343Y0060748D02*
X0117343Y0060748D01*
X0117343Y0061746D02*
X0115343Y0061746D01*
X0115343Y0062745D02*
X0117343Y0062745D01*
X0117343Y0063743D02*
X0115343Y0063743D01*
X0115343Y0064742D02*
X0117343Y0064742D01*
X0117343Y0065740D02*
X0115343Y0065740D01*
X0115343Y0066739D02*
X0117343Y0066739D01*
X0117343Y0067737D02*
X0115916Y0067737D01*
X0116915Y0068736D02*
X0117672Y0068736D01*
X0117913Y0069735D02*
X0118671Y0069735D01*
X0118912Y0070733D02*
X0119669Y0070733D01*
X0119362Y0071732D02*
X0120668Y0071732D01*
X0120528Y0072730D02*
X0120197Y0072730D01*
X0122913Y0069735D02*
X0128272Y0069735D01*
X0127273Y0070733D02*
X0123912Y0070733D01*
X0124362Y0071183D02*
X0124362Y0072146D01*
X0124612Y0072146D01*
X0125362Y0072896D01*
X0126112Y0072146D01*
X0126362Y0072146D01*
X0126362Y0071644D01*
X0129843Y0068164D01*
X0129843Y0067024D01*
X0129291Y0067576D01*
X0127394Y0067576D01*
X0126052Y0066234D01*
X0126052Y0064336D01*
X0126643Y0063746D01*
X0126643Y0056324D01*
X0126052Y0055734D01*
X0126052Y0053836D01*
X0127394Y0052495D01*
X0129291Y0052495D01*
X0129843Y0053046D01*
X0129843Y0052906D01*
X0129221Y0052285D01*
X0125082Y0052285D01*
X0125133Y0052336D01*
X0125133Y0054234D01*
X0123791Y0055576D01*
X0122673Y0055576D01*
X0122264Y0055985D01*
X0123795Y0055985D01*
X0125143Y0057332D01*
X0125143Y0066238D01*
X0123795Y0067585D01*
X0121890Y0067585D01*
X0120543Y0066238D01*
X0120543Y0057706D01*
X0120343Y0057906D01*
X0120343Y0067164D01*
X0124362Y0071183D01*
X0124362Y0071732D02*
X0126362Y0071732D01*
X0125528Y0072730D02*
X0125197Y0072730D01*
X0121915Y0068736D02*
X0129270Y0068736D01*
X0129843Y0067737D02*
X0120916Y0067737D01*
X0121044Y0066739D02*
X0120343Y0066739D01*
X0120343Y0065740D02*
X0120543Y0065740D01*
X0120543Y0064742D02*
X0120343Y0064742D01*
X0120343Y0063743D02*
X0120543Y0063743D01*
X0120543Y0062745D02*
X0120343Y0062745D01*
X0120343Y0061746D02*
X0120543Y0061746D01*
X0120543Y0060748D02*
X0120343Y0060748D01*
X0120343Y0059749D02*
X0120543Y0059749D01*
X0120543Y0058751D02*
X0120343Y0058751D01*
X0120497Y0057752D02*
X0120543Y0057752D01*
X0122494Y0055755D02*
X0126073Y0055755D01*
X0126052Y0054757D02*
X0124610Y0054757D01*
X0125133Y0053758D02*
X0126130Y0053758D01*
X0125133Y0052760D02*
X0127128Y0052760D01*
X0129557Y0052760D02*
X0129696Y0052760D01*
X0126643Y0056754D02*
X0124564Y0056754D01*
X0125143Y0057752D02*
X0126643Y0057752D01*
X0126643Y0058751D02*
X0125143Y0058751D01*
X0125143Y0059749D02*
X0126643Y0059749D01*
X0126643Y0060748D02*
X0125143Y0060748D01*
X0125143Y0061746D02*
X0126643Y0061746D01*
X0126643Y0062745D02*
X0125143Y0062745D01*
X0125143Y0063743D02*
X0126643Y0063743D01*
X0126052Y0064742D02*
X0125143Y0064742D01*
X0125143Y0065740D02*
X0126052Y0065740D01*
X0126557Y0066739D02*
X0124641Y0066739D01*
X0115668Y0071732D02*
X0109362Y0071732D01*
X0109362Y0070733D02*
X0114669Y0070733D01*
X0113671Y0069735D02*
X0109362Y0069735D01*
X0109362Y0068736D02*
X0112672Y0068736D01*
X0112343Y0067737D02*
X0109362Y0067737D01*
X0109362Y0066739D02*
X0112343Y0066739D01*
X0112343Y0065740D02*
X0109362Y0065740D01*
X0109362Y0064742D02*
X0112343Y0064742D01*
X0112343Y0063743D02*
X0108422Y0063743D01*
X0107424Y0062745D02*
X0112343Y0062745D01*
X0112343Y0061746D02*
X0106425Y0061746D01*
X0105427Y0060748D02*
X0112343Y0060748D01*
X0111685Y0059749D02*
X0104428Y0059749D01*
X0103430Y0058751D02*
X0110687Y0058751D01*
X0109688Y0057752D02*
X0084431Y0057752D01*
X0083433Y0056754D02*
X0108690Y0056754D01*
X0107691Y0055755D02*
X0082434Y0055755D01*
X0081436Y0054757D02*
X0084693Y0054757D01*
X0083694Y0053758D02*
X0080437Y0053758D01*
X0079439Y0052760D02*
X0082696Y0052760D01*
X0081697Y0051761D02*
X0078440Y0051761D01*
X0077633Y0050763D02*
X0080699Y0050763D01*
X0079700Y0049764D02*
X0077561Y0049764D01*
X0076562Y0048766D02*
X0078843Y0048766D01*
X0076687Y0058751D02*
X0032561Y0058751D01*
X0032643Y0059749D02*
X0077685Y0059749D01*
X0078684Y0060748D02*
X0032643Y0060748D01*
X0032643Y0061746D02*
X0073142Y0061746D01*
X0072143Y0062745D02*
X0032643Y0062745D01*
X0032643Y0063743D02*
X0072052Y0063743D01*
X0072060Y0064742D02*
X0032643Y0064742D01*
X0032643Y0065740D02*
X0073059Y0065740D01*
X0075175Y0066739D02*
X0032643Y0066739D01*
X0032643Y0067737D02*
X0076174Y0067737D01*
X0077421Y0064742D02*
X0098678Y0064742D01*
X0099677Y0065740D02*
X0096919Y0065740D01*
X0097918Y0066739D02*
X0100675Y0066739D01*
X0101362Y0067737D02*
X0098916Y0067737D01*
X0099362Y0068736D02*
X0101362Y0068736D01*
X0101362Y0069735D02*
X0099362Y0069735D01*
X0099362Y0070733D02*
X0101362Y0070733D01*
X0101362Y0071732D02*
X0099362Y0071732D01*
X0100197Y0072730D02*
X0100528Y0072730D01*
X0096362Y0071732D02*
X0032643Y0071732D01*
X0032643Y0072730D02*
X0065528Y0072730D01*
X0064931Y0073729D02*
X0032643Y0073729D01*
X0032643Y0074727D02*
X0064931Y0074727D01*
X0064931Y0075726D02*
X0032643Y0075726D01*
X0033534Y0076724D02*
X0064931Y0076724D01*
X0064931Y0077723D02*
X0034533Y0077723D01*
X0035531Y0078721D02*
X0064931Y0078721D01*
X0065777Y0079720D02*
X0036530Y0079720D01*
X0037528Y0080718D02*
X0081654Y0080718D01*
X0080777Y0079720D02*
X0079947Y0079720D01*
X0082653Y0081717D02*
X0038527Y0081717D01*
X0039525Y0082715D02*
X0083651Y0082715D01*
X0084024Y0083714D02*
X0084650Y0083714D01*
X0084643Y0084712D02*
X0085648Y0084712D01*
X0086647Y0085711D02*
X0084643Y0085711D01*
X0084171Y0086709D02*
X0087645Y0086709D01*
X0088644Y0087708D02*
X0083173Y0087708D01*
X0082174Y0088706D02*
X0089642Y0088706D01*
X0090641Y0089705D02*
X0081176Y0089705D01*
X0078664Y0085711D02*
X0042521Y0085711D01*
X0041522Y0084712D02*
X0079663Y0084712D01*
X0080661Y0083714D02*
X0040524Y0083714D01*
X0039543Y0091702D02*
X0004343Y0091702D01*
X0004343Y0092700D02*
X0039543Y0092700D01*
X0039543Y0093699D02*
X0004343Y0093699D01*
X0004343Y0094697D02*
X0039543Y0094697D01*
X0039543Y0095696D02*
X0004343Y0095696D01*
X0004343Y0096694D02*
X0039543Y0096694D01*
X0039543Y0097693D02*
X0004343Y0097693D01*
X0004343Y0098691D02*
X0039543Y0098691D01*
X0039543Y0099690D02*
X0004343Y0099690D01*
X0004343Y0100688D02*
X0039543Y0100688D01*
X0039543Y0101687D02*
X0004343Y0101687D01*
X0004343Y0102685D02*
X0039543Y0102685D01*
X0039543Y0103684D02*
X0004343Y0103684D01*
X0004343Y0104682D02*
X0039543Y0104682D01*
X0039543Y0105681D02*
X0004343Y0105681D01*
X0004343Y0106679D02*
X0039543Y0106679D01*
X0039543Y0107678D02*
X0004343Y0107678D01*
X0004343Y0108676D02*
X0007212Y0108676D01*
X0006213Y0109675D02*
X0004343Y0109675D01*
X0004343Y0110673D02*
X0006052Y0110673D01*
X0005193Y0111672D02*
X0004343Y0111672D01*
X0004343Y0114785D02*
X0008343Y0110785D01*
X0010633Y0110673D02*
X0039543Y0110673D01*
X0039543Y0109675D02*
X0010472Y0109675D01*
X0009473Y0108676D02*
X0039543Y0108676D01*
X0039543Y0111672D02*
X0010633Y0111672D01*
X0009696Y0112670D02*
X0039543Y0112670D01*
X0039543Y0113669D02*
X0007721Y0113669D01*
X0004343Y0114785D02*
X0004343Y0163285D01*
X0006343Y0165285D01*
X0020843Y0165285D01*
X0023343Y0167785D01*
X0023343Y0180285D01*
X0026843Y0183785D01*
X0098843Y0183785D01*
X0101843Y0180785D01*
X0099552Y0180569D02*
X0025889Y0180569D01*
X0024943Y0179571D02*
X0099818Y0179571D01*
X0100343Y0178572D02*
X0024943Y0178572D01*
X0024943Y0177574D02*
X0086738Y0177574D01*
X0087240Y0178076D02*
X0085898Y0176734D01*
X0085898Y0174836D01*
X0086689Y0174046D01*
X0086689Y0163871D01*
X0086052Y0163234D01*
X0086052Y0161336D01*
X0087394Y0159995D01*
X0089291Y0159995D01*
X0090633Y0161336D01*
X0090633Y0163234D01*
X0089689Y0164178D01*
X0089689Y0174046D01*
X0090480Y0174836D01*
X0090480Y0176734D01*
X0089138Y0178076D01*
X0087240Y0178076D01*
X0085898Y0176575D02*
X0024943Y0176575D01*
X0024943Y0175577D02*
X0085898Y0175577D01*
X0086157Y0174578D02*
X0024943Y0174578D01*
X0024943Y0173580D02*
X0086689Y0173580D01*
X0086689Y0172581D02*
X0024943Y0172581D01*
X0024943Y0171583D02*
X0086689Y0171583D01*
X0086689Y0170584D02*
X0024943Y0170584D01*
X0024943Y0169586D02*
X0086689Y0169586D01*
X0086689Y0168587D02*
X0024943Y0168587D01*
X0024943Y0167589D02*
X0086689Y0167589D01*
X0086689Y0166590D02*
X0024410Y0166590D01*
X0023412Y0165592D02*
X0086689Y0165592D01*
X0086689Y0164593D02*
X0022413Y0164593D01*
X0033873Y0155606D02*
X0094043Y0155606D01*
X0093044Y0154608D02*
X0034695Y0154608D01*
X0035071Y0153609D02*
X0043914Y0153609D01*
X0043043Y0152611D02*
X0035161Y0152611D01*
X0034976Y0151612D02*
X0043043Y0151612D01*
X0043261Y0150614D02*
X0034452Y0150614D01*
X0033351Y0149615D02*
X0044260Y0149615D01*
X0045258Y0148617D02*
X0029737Y0148617D01*
X0029390Y0149615D02*
X0029209Y0149615D01*
X0029209Y0150614D02*
X0029390Y0150614D01*
X0029390Y0151612D02*
X0029209Y0151612D01*
X0030110Y0147618D02*
X0046257Y0147618D01*
X0049766Y0150614D02*
X0053774Y0150614D01*
X0053552Y0150836D02*
X0054343Y0150046D01*
X0054343Y0147524D01*
X0053552Y0146734D01*
X0053552Y0144836D01*
X0054894Y0143495D01*
X0056791Y0143495D01*
X0058133Y0144836D01*
X0058133Y0146734D01*
X0057343Y0147524D01*
X0057343Y0150046D01*
X0058133Y0150836D01*
X0058133Y0152734D01*
X0056791Y0154076D01*
X0054894Y0154076D01*
X0053552Y0152734D01*
X0053552Y0150836D01*
X0053552Y0151612D02*
X0048768Y0151612D01*
X0047769Y0152611D02*
X0053552Y0152611D01*
X0054428Y0153609D02*
X0046771Y0153609D01*
X0050765Y0149615D02*
X0054343Y0149615D01*
X0054343Y0148617D02*
X0051763Y0148617D01*
X0052643Y0147618D02*
X0054343Y0147618D01*
X0053552Y0146620D02*
X0052643Y0146620D01*
X0052643Y0145621D02*
X0053552Y0145621D01*
X0053765Y0144623D02*
X0052643Y0144623D01*
X0052643Y0143624D02*
X0054764Y0143624D01*
X0052643Y0142626D02*
X0061739Y0142626D01*
X0062738Y0141627D02*
X0052643Y0141627D01*
X0052643Y0140629D02*
X0063736Y0140629D01*
X0064735Y0139630D02*
X0052643Y0139630D01*
X0052643Y0138632D02*
X0065733Y0138632D01*
X0066732Y0137633D02*
X0052643Y0137633D01*
X0052643Y0136635D02*
X0067730Y0136635D01*
X0068729Y0135636D02*
X0052643Y0135636D01*
X0052643Y0134638D02*
X0077251Y0134638D01*
X0078843Y0136285D02*
X0070343Y0136285D01*
X0060843Y0145785D01*
X0062249Y0147618D02*
X0064931Y0147618D01*
X0064931Y0146620D02*
X0063133Y0146620D01*
X0063269Y0145621D02*
X0064931Y0145621D01*
X0064931Y0144623D02*
X0064268Y0144623D01*
X0065304Y0148617D02*
X0057343Y0148617D01*
X0057343Y0149615D02*
X0091343Y0149615D01*
X0091343Y0150614D02*
X0057911Y0150614D01*
X0058133Y0151612D02*
X0091343Y0151612D01*
X0091343Y0152611D02*
X0058133Y0152611D01*
X0057257Y0153609D02*
X0092046Y0153609D01*
X0094343Y0151612D02*
X0131362Y0151612D01*
X0131362Y0150614D02*
X0094343Y0150614D01*
X0094343Y0149615D02*
X0131362Y0149615D01*
X0131362Y0152611D02*
X0095290Y0152611D01*
X0096288Y0153609D02*
X0131362Y0153609D01*
X0131362Y0154608D02*
X0097287Y0154608D01*
X0098285Y0155606D02*
X0131362Y0155606D01*
X0130901Y0156605D02*
X0099284Y0156605D01*
X0100282Y0157604D02*
X0129903Y0157604D01*
X0127786Y0158602D02*
X0101281Y0158602D01*
X0102279Y0159601D02*
X0126788Y0159601D01*
X0126552Y0160599D02*
X0103278Y0160599D01*
X0103343Y0161598D02*
X0126552Y0161598D01*
X0127414Y0162596D02*
X0103343Y0162596D01*
X0103343Y0163595D02*
X0136362Y0163595D01*
X0136362Y0164593D02*
X0103343Y0164593D01*
X0103343Y0165592D02*
X0136362Y0165592D01*
X0136362Y0166590D02*
X0103343Y0166590D01*
X0103343Y0167589D02*
X0135800Y0167589D01*
X0135572Y0168587D02*
X0103343Y0168587D01*
X0103343Y0169586D02*
X0135572Y0169586D01*
X0136442Y0170584D02*
X0103343Y0170584D01*
X0103343Y0171583D02*
X0161343Y0171583D01*
X0161343Y0172581D02*
X0103343Y0172581D01*
X0103343Y0173580D02*
X0161343Y0173580D01*
X0161343Y0174578D02*
X0103343Y0174578D01*
X0103343Y0175577D02*
X0161343Y0175577D01*
X0161343Y0176575D02*
X0103343Y0176575D01*
X0103343Y0177574D02*
X0161343Y0177574D01*
X0161343Y0178572D02*
X0103343Y0178572D01*
X0103867Y0179571D02*
X0161343Y0179571D01*
X0161343Y0180569D02*
X0104133Y0180569D01*
X0104133Y0181568D02*
X0161343Y0181568D01*
X0161343Y0182566D02*
X0103301Y0182566D01*
X0101326Y0183565D02*
X0161343Y0183565D01*
X0161343Y0170584D02*
X0139283Y0170584D01*
X0140153Y0169586D02*
X0161343Y0169586D01*
X0161343Y0168587D02*
X0140153Y0168587D01*
X0139925Y0167589D02*
X0161343Y0167589D01*
X0161343Y0166590D02*
X0144777Y0166590D01*
X0145133Y0165592D02*
X0161343Y0165592D01*
X0161343Y0164593D02*
X0145133Y0164593D01*
X0144391Y0163595D02*
X0161343Y0163595D01*
X0161343Y0162596D02*
X0144343Y0162596D01*
X0144343Y0161598D02*
X0161343Y0161598D01*
X0161343Y0160599D02*
X0144362Y0160599D01*
X0144362Y0159601D02*
X0161343Y0159601D01*
X0161343Y0158602D02*
X0144362Y0158602D01*
X0144362Y0157604D02*
X0161343Y0157604D01*
X0161343Y0156605D02*
X0144362Y0156605D01*
X0144362Y0155606D02*
X0161343Y0155606D01*
X0161343Y0154608D02*
X0144362Y0154608D01*
X0144362Y0153609D02*
X0161343Y0153609D01*
X0161343Y0152611D02*
X0144362Y0152611D01*
X0144362Y0151612D02*
X0161343Y0151612D01*
X0161343Y0150614D02*
X0144362Y0150614D01*
X0144362Y0149615D02*
X0155962Y0149615D01*
X0157447Y0149615D02*
X0158278Y0149615D01*
X0158278Y0149824D02*
X0158278Y0145886D01*
X0161193Y0145886D01*
X0161193Y0147647D01*
X0161100Y0148114D01*
X0160918Y0148553D01*
X0160654Y0148949D01*
X0160317Y0149285D01*
X0159922Y0149550D01*
X0159482Y0149732D01*
X0159015Y0149824D01*
X0158278Y0149824D01*
X0158278Y0148617D02*
X0157447Y0148617D01*
X0157447Y0147618D02*
X0158278Y0147618D01*
X0158278Y0146620D02*
X0157447Y0146620D01*
X0158278Y0145621D02*
X0161343Y0145621D01*
X0161193Y0145055D02*
X0158278Y0145055D01*
X0158278Y0141116D01*
X0159015Y0141116D01*
X0159482Y0141209D01*
X0159922Y0141391D01*
X0160317Y0141655D01*
X0160654Y0141991D01*
X0160918Y0142387D01*
X0161100Y0142827D01*
X0161193Y0143293D01*
X0161193Y0145055D01*
X0161193Y0144623D02*
X0161343Y0144623D01*
X0161343Y0143624D02*
X0161193Y0143624D01*
X0161343Y0142626D02*
X0161017Y0142626D01*
X0161343Y0141627D02*
X0160276Y0141627D01*
X0161343Y0140629D02*
X0156120Y0140629D01*
X0155449Y0141627D02*
X0155122Y0141627D01*
X0152876Y0139630D02*
X0152619Y0139630D01*
X0151877Y0140629D02*
X0151620Y0140629D01*
X0151001Y0141627D02*
X0150622Y0141627D01*
X0148376Y0139630D02*
X0123809Y0139630D01*
X0124343Y0140629D02*
X0147377Y0140629D01*
X0146001Y0141627D02*
X0144724Y0141627D01*
X0141001Y0141627D02*
X0139724Y0141627D01*
X0136001Y0141627D02*
X0134724Y0141627D01*
X0131001Y0141627D02*
X0129724Y0141627D01*
X0126001Y0141627D02*
X0124724Y0141627D01*
X0122811Y0138632D02*
X0149375Y0138632D01*
X0150373Y0137633D02*
X0121812Y0137633D01*
X0112633Y0136635D02*
X0151372Y0136635D01*
X0152370Y0135636D02*
X0112633Y0135636D01*
X0112434Y0134638D02*
X0153369Y0134638D01*
X0154343Y0133639D02*
X0111843Y0133639D01*
X0111843Y0132641D02*
X0154343Y0132641D01*
X0154343Y0131642D02*
X0111843Y0131642D01*
X0111843Y0130644D02*
X0154343Y0130644D01*
X0154343Y0129645D02*
X0111843Y0129645D01*
X0111843Y0128647D02*
X0154343Y0128647D01*
X0154343Y0127648D02*
X0111843Y0127648D01*
X0111843Y0126650D02*
X0114586Y0126650D01*
X0112469Y0125651D02*
X0111843Y0125651D01*
X0102571Y0136635D02*
X0084443Y0136635D01*
X0084443Y0137633D02*
X0103569Y0137633D01*
X0104568Y0138632D02*
X0084443Y0138632D01*
X0084443Y0139630D02*
X0105566Y0139630D01*
X0106565Y0140629D02*
X0084443Y0140629D01*
X0084724Y0141627D02*
X0086001Y0141627D01*
X0089724Y0141627D02*
X0091001Y0141627D01*
X0094724Y0141627D02*
X0096001Y0141627D01*
X0099724Y0141627D02*
X0101001Y0141627D01*
X0104724Y0141627D02*
X0106001Y0141627D01*
X0101572Y0135636D02*
X0084443Y0135636D01*
X0084443Y0134638D02*
X0100574Y0134638D01*
X0099843Y0133639D02*
X0084443Y0133639D01*
X0084443Y0132641D02*
X0099843Y0132641D01*
X0099843Y0131642D02*
X0083462Y0131642D01*
X0082464Y0130644D02*
X0099843Y0130644D01*
X0099843Y0129645D02*
X0081465Y0129645D01*
X0080467Y0128647D02*
X0099843Y0128647D01*
X0099843Y0127648D02*
X0079468Y0127648D01*
X0078470Y0126650D02*
X0099843Y0126650D01*
X0099843Y0125651D02*
X0077471Y0125651D01*
X0076473Y0124653D02*
X0099843Y0124653D01*
X0099843Y0123654D02*
X0075474Y0123654D01*
X0074476Y0122656D02*
X0099843Y0122656D01*
X0086761Y0106679D02*
X0044143Y0106679D01*
X0044143Y0105681D02*
X0087760Y0105681D01*
X0088758Y0104682D02*
X0044143Y0104682D01*
X0044143Y0103684D02*
X0089552Y0103684D01*
X0090203Y0102685D02*
X0044143Y0102685D01*
X0044143Y0101687D02*
X0117819Y0101687D01*
X0117819Y0100688D02*
X0097679Y0100688D01*
X0098133Y0099690D02*
X0106008Y0099690D01*
X0105552Y0098691D02*
X0098133Y0098691D01*
X0097490Y0097693D02*
X0105552Y0097693D01*
X0106194Y0096694D02*
X0097343Y0096694D01*
X0097343Y0095696D02*
X0106343Y0095696D01*
X0106343Y0094697D02*
X0097343Y0094697D01*
X0097343Y0093699D02*
X0106343Y0093699D01*
X0106343Y0092700D02*
X0097343Y0092700D01*
X0096880Y0091702D02*
X0106343Y0091702D01*
X0106343Y0090703D02*
X0095882Y0090703D01*
X0094883Y0089705D02*
X0106343Y0089705D01*
X0106343Y0088706D02*
X0093885Y0088706D01*
X0092886Y0087708D02*
X0106144Y0087708D01*
X0105145Y0086709D02*
X0091888Y0086709D01*
X0090889Y0085711D02*
X0095647Y0085711D01*
X0094648Y0084712D02*
X0089891Y0084712D01*
X0088892Y0083714D02*
X0093650Y0083714D01*
X0092651Y0082715D02*
X0087894Y0082715D01*
X0086895Y0081717D02*
X0091653Y0081717D01*
X0091362Y0080718D02*
X0085897Y0080718D01*
X0085212Y0079720D02*
X0084947Y0079720D01*
X0087447Y0079720D02*
X0088278Y0079720D01*
X0088278Y0078721D02*
X0087447Y0078721D01*
X0087447Y0077723D02*
X0088278Y0077723D01*
X0088278Y0076724D02*
X0087447Y0076724D01*
X0087447Y0074727D02*
X0088278Y0074727D01*
X0088278Y0073729D02*
X0087447Y0073729D01*
X0087447Y0072730D02*
X0088278Y0072730D01*
X0095197Y0072730D02*
X0095528Y0072730D01*
X0096362Y0070733D02*
X0032643Y0070733D01*
X0032643Y0069735D02*
X0096362Y0069735D01*
X0095672Y0068736D02*
X0032643Y0068736D01*
X0020528Y0052792D02*
X0020528Y0052792D01*
X0020528Y0052792D01*
X0050055Y0046769D02*
X0050630Y0046769D01*
X0050630Y0045770D02*
X0050055Y0045770D01*
X0050055Y0044772D02*
X0050630Y0044772D01*
X0050630Y0043773D02*
X0050055Y0043773D01*
X0050055Y0042775D02*
X0050630Y0042775D01*
X0050630Y0041776D02*
X0050055Y0041776D01*
X0050055Y0040778D02*
X0050630Y0040778D01*
X0050630Y0039779D02*
X0050055Y0039779D01*
X0075543Y0061746D02*
X0079682Y0061746D01*
X0080681Y0062745D02*
X0076542Y0062745D01*
X0076633Y0063743D02*
X0097680Y0063743D01*
X0110197Y0072730D02*
X0110528Y0072730D01*
X0115197Y0072730D02*
X0115528Y0072730D01*
X0115777Y0079720D02*
X0114947Y0079720D01*
X0110777Y0079720D02*
X0109947Y0079720D01*
X0106392Y0083714D02*
X0130552Y0083714D01*
X0130552Y0082715D02*
X0096894Y0082715D01*
X0095895Y0081717D02*
X0130672Y0081717D01*
X0131670Y0080718D02*
X0094897Y0080718D01*
X0094947Y0079720D02*
X0095777Y0079720D01*
X0099947Y0079720D02*
X0100777Y0079720D01*
X0104947Y0079720D02*
X0105777Y0079720D01*
X0107391Y0084712D02*
X0130943Y0084712D01*
X0130943Y0085711D02*
X0108389Y0085711D01*
X0109343Y0086709D02*
X0123679Y0086709D01*
X0123052Y0087708D02*
X0109343Y0087708D01*
X0109343Y0088706D02*
X0122234Y0088706D01*
X0121236Y0089705D02*
X0109343Y0089705D01*
X0109343Y0090703D02*
X0120237Y0090703D01*
X0119239Y0091702D02*
X0109343Y0091702D01*
X0109343Y0092700D02*
X0118240Y0092700D01*
X0117242Y0093699D02*
X0109343Y0093699D01*
X0109343Y0094697D02*
X0116243Y0094697D01*
X0115245Y0095696D02*
X0109343Y0095696D01*
X0109491Y0096694D02*
X0113694Y0096694D01*
X0113052Y0097693D02*
X0110133Y0097693D01*
X0110133Y0098691D02*
X0113052Y0098691D01*
X0113508Y0099690D02*
X0109677Y0099690D01*
X0117177Y0099690D02*
X0117819Y0099690D01*
X0117819Y0098691D02*
X0117633Y0098691D01*
X0120619Y0095696D02*
X0134566Y0095696D01*
X0133568Y0094697D02*
X0121617Y0094697D01*
X0122616Y0093699D02*
X0132569Y0093699D01*
X0131571Y0092700D02*
X0123614Y0092700D01*
X0124613Y0091702D02*
X0130943Y0091702D01*
X0130943Y0090703D02*
X0125611Y0090703D01*
X0127162Y0089705D02*
X0130943Y0089705D01*
X0130943Y0088706D02*
X0127633Y0088706D01*
X0127633Y0087708D02*
X0130943Y0087708D01*
X0130943Y0086709D02*
X0127006Y0086709D01*
X0134015Y0080718D02*
X0146243Y0080718D01*
X0145777Y0079720D02*
X0144947Y0079720D01*
X0145672Y0081717D02*
X0135013Y0081717D01*
X0135133Y0082715D02*
X0145552Y0082715D01*
X0145552Y0083714D02*
X0135133Y0083714D01*
X0134743Y0084712D02*
X0146530Y0084712D01*
X0147843Y0082785D02*
X0147843Y0076120D01*
X0147862Y0076100D01*
X0145528Y0072730D02*
X0145197Y0072730D01*
X0145135Y0071732D02*
X0150543Y0071732D01*
X0150528Y0072730D02*
X0150197Y0072730D01*
X0150543Y0070733D02*
X0145633Y0070733D01*
X0145633Y0069735D02*
X0150640Y0069735D01*
X0151639Y0068736D02*
X0145033Y0068736D01*
X0144843Y0067737D02*
X0161343Y0067737D01*
X0161343Y0066739D02*
X0144843Y0066739D01*
X0144843Y0065740D02*
X0161343Y0065740D01*
X0161343Y0064742D02*
X0144843Y0064742D01*
X0144843Y0063743D02*
X0161343Y0063743D01*
X0161343Y0062745D02*
X0144843Y0062745D01*
X0144843Y0061746D02*
X0161343Y0061746D01*
X0161343Y0060748D02*
X0145001Y0060748D01*
X0146000Y0059749D02*
X0161343Y0059749D01*
X0161343Y0058751D02*
X0146998Y0058751D01*
X0147997Y0057752D02*
X0161343Y0057752D01*
X0161343Y0056754D02*
X0148995Y0056754D01*
X0149994Y0055755D02*
X0161343Y0055755D01*
X0161343Y0054757D02*
X0150992Y0054757D01*
X0151991Y0053758D02*
X0161343Y0053758D01*
X0161343Y0052760D02*
X0152989Y0052760D01*
X0153988Y0051761D02*
X0161343Y0051761D01*
X0161343Y0050763D02*
X0154986Y0050763D01*
X0155985Y0049764D02*
X0161343Y0049764D01*
X0161343Y0048766D02*
X0156983Y0048766D01*
X0157982Y0047767D02*
X0161343Y0047767D01*
X0159150Y0046769D02*
X0158980Y0046769D01*
X0156735Y0044772D02*
X0153704Y0044772D01*
X0154017Y0043773D02*
X0156668Y0043773D01*
X0156668Y0042775D02*
X0154017Y0042775D01*
X0153695Y0041776D02*
X0156990Y0041776D01*
X0157653Y0040778D02*
X0153032Y0040778D01*
X0151481Y0039779D02*
X0159204Y0039779D01*
X0155736Y0045770D02*
X0153054Y0045770D01*
X0151535Y0046769D02*
X0154738Y0046769D01*
X0153739Y0047767D02*
X0147982Y0047767D01*
X0148980Y0046769D02*
X0149150Y0046769D01*
X0146735Y0044772D02*
X0144144Y0044772D01*
X0144119Y0044849D02*
X0143828Y0045421D01*
X0143451Y0045940D01*
X0142997Y0046393D01*
X0142478Y0046770D01*
X0141907Y0047061D01*
X0141297Y0047260D01*
X0140663Y0047360D01*
X0140630Y0047360D01*
X0140630Y0043573D01*
X0140055Y0043573D01*
X0140055Y0047360D01*
X0140022Y0047360D01*
X0139388Y0047260D01*
X0138778Y0047061D01*
X0138207Y0046770D01*
X0137688Y0046393D01*
X0137234Y0045940D01*
X0136857Y0045421D01*
X0136566Y0044849D01*
X0136368Y0044239D01*
X0136268Y0043606D01*
X0136268Y0043573D01*
X0140055Y0043573D01*
X0140055Y0042998D01*
X0136268Y0042998D01*
X0136268Y0042964D01*
X0136368Y0042331D01*
X0136566Y0041721D01*
X0136857Y0041149D01*
X0137234Y0040631D01*
X0137688Y0040177D01*
X0138207Y0039800D01*
X0138778Y0039509D01*
X0139388Y0039311D01*
X0140022Y0039210D01*
X0140055Y0039210D01*
X0140055Y0042998D01*
X0140630Y0042998D01*
X0140630Y0043573D01*
X0144417Y0043573D01*
X0144417Y0043606D01*
X0144317Y0044239D01*
X0144119Y0044849D01*
X0143574Y0045770D02*
X0145736Y0045770D01*
X0144738Y0046769D02*
X0142480Y0046769D01*
X0143739Y0047767D02*
X0131946Y0047767D01*
X0131535Y0046769D02*
X0138205Y0046769D01*
X0137111Y0045770D02*
X0133054Y0045770D01*
X0133458Y0045367D02*
X0132424Y0046400D01*
X0131073Y0046960D01*
X0129612Y0046960D01*
X0128261Y0046400D01*
X0127227Y0045367D01*
X0126668Y0044016D01*
X0126668Y0042554D01*
X0127227Y0041204D01*
X0128261Y0040170D01*
X0129612Y0039610D01*
X0131073Y0039610D01*
X0132424Y0040170D01*
X0133458Y0041204D01*
X0134017Y0042554D01*
X0134017Y0044016D01*
X0133458Y0045367D01*
X0133704Y0044772D02*
X0136541Y0044772D01*
X0136294Y0043773D02*
X0134017Y0043773D01*
X0134017Y0042775D02*
X0136298Y0042775D01*
X0136548Y0041776D02*
X0133695Y0041776D01*
X0133032Y0040778D02*
X0137128Y0040778D01*
X0138248Y0039779D02*
X0131481Y0039779D01*
X0129204Y0039779D02*
X0121481Y0039779D01*
X0121073Y0039610D02*
X0122424Y0040170D01*
X0123458Y0041204D01*
X0124017Y0042554D01*
X0124017Y0044016D01*
X0123458Y0045367D01*
X0122424Y0046400D01*
X0121073Y0046960D01*
X0119612Y0046960D01*
X0118261Y0046400D01*
X0117227Y0045367D01*
X0116668Y0044016D01*
X0116668Y0042554D01*
X0117227Y0041204D01*
X0118261Y0040170D01*
X0119612Y0039610D01*
X0121073Y0039610D01*
X0119204Y0039779D02*
X0112437Y0039779D01*
X0112478Y0039800D02*
X0112997Y0040177D01*
X0113451Y0040631D01*
X0113828Y0041149D01*
X0114119Y0041721D01*
X0114317Y0042331D01*
X0114417Y0042964D01*
X0114417Y0042998D01*
X0110630Y0042998D01*
X0110630Y0039210D01*
X0110663Y0039210D01*
X0111297Y0039311D01*
X0111907Y0039509D01*
X0112478Y0039800D01*
X0113557Y0040778D02*
X0117653Y0040778D01*
X0116990Y0041776D02*
X0114137Y0041776D01*
X0114387Y0042775D02*
X0116668Y0042775D01*
X0116668Y0043773D02*
X0114391Y0043773D01*
X0114144Y0044772D02*
X0116981Y0044772D01*
X0117631Y0045770D02*
X0113574Y0045770D01*
X0112480Y0046769D02*
X0119150Y0046769D01*
X0121535Y0046769D02*
X0129150Y0046769D01*
X0127631Y0045770D02*
X0123054Y0045770D01*
X0123704Y0044772D02*
X0126981Y0044772D01*
X0126668Y0043773D02*
X0124017Y0043773D01*
X0124017Y0042775D02*
X0126668Y0042775D01*
X0126990Y0041776D02*
X0123695Y0041776D01*
X0123032Y0040778D02*
X0127653Y0040778D01*
X0132944Y0048766D02*
X0142741Y0048766D01*
X0141742Y0049764D02*
X0133943Y0049764D01*
X0134942Y0050763D02*
X0140744Y0050763D01*
X0139745Y0051761D02*
X0135343Y0051761D01*
X0135343Y0052760D02*
X0138747Y0052760D01*
X0138721Y0052785D02*
X0138721Y0052785D01*
X0137843Y0053758D02*
X0135343Y0053758D01*
X0135343Y0054757D02*
X0137843Y0054757D01*
X0137843Y0055755D02*
X0135343Y0055755D01*
X0135343Y0056754D02*
X0137843Y0056754D01*
X0137843Y0057752D02*
X0135343Y0057752D01*
X0135343Y0058751D02*
X0137843Y0058751D01*
X0137843Y0059749D02*
X0135343Y0059749D01*
X0135343Y0060748D02*
X0137843Y0060748D01*
X0137843Y0061746D02*
X0135343Y0061746D01*
X0135343Y0062745D02*
X0137843Y0062745D01*
X0137843Y0063743D02*
X0135343Y0063743D01*
X0135343Y0064742D02*
X0137843Y0064742D01*
X0137843Y0065740D02*
X0135343Y0065740D01*
X0135343Y0066739D02*
X0137843Y0066739D01*
X0137843Y0067737D02*
X0135343Y0067737D01*
X0135013Y0068736D02*
X0137652Y0068736D01*
X0137052Y0069735D02*
X0134362Y0069735D01*
X0134362Y0070733D02*
X0137052Y0070733D01*
X0137550Y0071732D02*
X0134362Y0071732D01*
X0135197Y0072730D02*
X0135528Y0072730D01*
X0141033Y0068736D02*
X0141652Y0068736D01*
X0141843Y0067737D02*
X0140843Y0067737D01*
X0140843Y0066739D02*
X0141843Y0066739D01*
X0141843Y0065740D02*
X0140843Y0065740D01*
X0140843Y0064742D02*
X0141843Y0064742D01*
X0141843Y0063743D02*
X0140843Y0063743D01*
X0140843Y0062745D02*
X0141843Y0062745D01*
X0141843Y0061746D02*
X0140843Y0061746D01*
X0140843Y0060748D02*
X0141843Y0060748D01*
X0141843Y0059749D02*
X0140843Y0059749D01*
X0140843Y0058751D02*
X0142755Y0058751D01*
X0143754Y0057752D02*
X0140843Y0057752D01*
X0140843Y0056754D02*
X0144752Y0056754D01*
X0145751Y0055755D02*
X0140843Y0055755D01*
X0140992Y0054757D02*
X0146749Y0054757D01*
X0147748Y0053758D02*
X0141991Y0053758D01*
X0142989Y0052760D02*
X0148746Y0052760D01*
X0149745Y0051761D02*
X0143988Y0051761D01*
X0144986Y0050763D02*
X0150744Y0050763D01*
X0151742Y0049764D02*
X0145985Y0049764D01*
X0146983Y0048766D02*
X0152741Y0048766D01*
X0146668Y0043773D02*
X0144391Y0043773D01*
X0144417Y0042998D02*
X0140630Y0042998D01*
X0140630Y0039210D01*
X0140663Y0039210D01*
X0141297Y0039311D01*
X0141907Y0039509D01*
X0142478Y0039800D01*
X0142997Y0040177D01*
X0143451Y0040631D01*
X0143828Y0041149D01*
X0144119Y0041721D01*
X0144317Y0042331D01*
X0144417Y0042964D01*
X0144417Y0042998D01*
X0144387Y0042775D02*
X0146668Y0042775D01*
X0146990Y0041776D02*
X0144137Y0041776D01*
X0143557Y0040778D02*
X0147653Y0040778D01*
X0149204Y0039779D02*
X0142437Y0039779D01*
X0140630Y0039779D02*
X0140055Y0039779D01*
X0140055Y0040778D02*
X0140630Y0040778D01*
X0140630Y0041776D02*
X0140055Y0041776D01*
X0140055Y0042775D02*
X0140630Y0042775D01*
X0140630Y0043773D02*
X0140055Y0043773D01*
X0140055Y0044772D02*
X0140630Y0044772D01*
X0140630Y0045770D02*
X0140055Y0045770D01*
X0140055Y0046769D02*
X0140630Y0046769D01*
X0154046Y0068736D02*
X0161343Y0068736D01*
X0161343Y0069735D02*
X0155045Y0069735D01*
X0155143Y0070733D02*
X0161343Y0070733D01*
X0161343Y0071732D02*
X0155143Y0071732D01*
X0157447Y0072730D02*
X0158278Y0072730D01*
X0158278Y0071746D02*
X0159015Y0071746D01*
X0159482Y0071839D01*
X0159922Y0072021D01*
X0160317Y0072285D01*
X0160654Y0072621D01*
X0160918Y0073017D01*
X0161100Y0073457D01*
X0161193Y0073923D01*
X0161193Y0075685D01*
X0158278Y0075685D01*
X0158278Y0071746D01*
X0158278Y0073729D02*
X0157447Y0073729D01*
X0157447Y0074727D02*
X0158278Y0074727D01*
X0158278Y0075726D02*
X0161343Y0075726D01*
X0161343Y0076724D02*
X0161193Y0076724D01*
X0161193Y0077723D02*
X0161343Y0077723D01*
X0161343Y0078721D02*
X0161105Y0078721D01*
X0161343Y0079720D02*
X0160513Y0079720D01*
X0161343Y0080718D02*
X0149443Y0080718D01*
X0149947Y0079720D02*
X0150777Y0079720D01*
X0150013Y0081717D02*
X0161343Y0081717D01*
X0161343Y0082715D02*
X0150133Y0082715D01*
X0150133Y0083714D02*
X0161343Y0083714D01*
X0161343Y0084712D02*
X0149155Y0084712D01*
X0148503Y0088706D02*
X0161343Y0088706D01*
X0161343Y0087708D02*
X0134743Y0087708D01*
X0134743Y0088706D02*
X0145182Y0088706D01*
X0144552Y0089705D02*
X0134743Y0089705D01*
X0134948Y0090703D02*
X0144552Y0090703D01*
X0145020Y0091702D02*
X0135946Y0091702D01*
X0136945Y0092700D02*
X0157843Y0092700D01*
X0157843Y0093699D02*
X0137943Y0093699D01*
X0138942Y0094697D02*
X0157843Y0094697D01*
X0157843Y0095696D02*
X0147993Y0095696D01*
X0145693Y0095696D02*
X0139940Y0095696D01*
X0140939Y0096694D02*
X0144694Y0096694D01*
X0144552Y0097693D02*
X0141937Y0097693D01*
X0142936Y0098691D02*
X0144552Y0098691D01*
X0145508Y0099690D02*
X0143243Y0099690D01*
X0143243Y0100688D02*
X0154343Y0100688D01*
X0154343Y0101687D02*
X0143243Y0101687D01*
X0143243Y0102685D02*
X0154343Y0102685D01*
X0154343Y0103684D02*
X0143243Y0103684D01*
X0143243Y0104682D02*
X0154343Y0104682D01*
X0154343Y0105681D02*
X0143243Y0105681D01*
X0143243Y0106679D02*
X0154343Y0106679D01*
X0154343Y0107678D02*
X0143243Y0107678D01*
X0143243Y0108676D02*
X0154343Y0108676D01*
X0154343Y0109675D02*
X0143633Y0109675D01*
X0143633Y0110673D02*
X0154343Y0110673D01*
X0154343Y0111672D02*
X0143195Y0111672D01*
X0142718Y0112670D02*
X0141361Y0112670D01*
X0142052Y0113669D02*
X0140363Y0113669D01*
X0141339Y0114668D02*
X0139364Y0114668D01*
X0140340Y0115666D02*
X0138366Y0115666D01*
X0137551Y0111672D02*
X0136567Y0111672D01*
X0136567Y0110673D02*
X0138550Y0110673D01*
X0139052Y0109675D02*
X0136567Y0109675D01*
X0136567Y0108676D02*
X0139443Y0108676D01*
X0139443Y0107678D02*
X0136567Y0107678D01*
X0136567Y0106679D02*
X0139443Y0106679D01*
X0139443Y0105681D02*
X0127693Y0105681D01*
X0127693Y0104682D02*
X0126693Y0104682D01*
X0126693Y0103684D02*
X0127693Y0103684D01*
X0127693Y0102685D02*
X0126693Y0102685D01*
X0126693Y0101687D02*
X0127693Y0101687D01*
X0127693Y0100688D02*
X0126693Y0100688D01*
X0126693Y0099690D02*
X0127693Y0099690D01*
X0127693Y0098691D02*
X0126693Y0098691D01*
X0126693Y0097693D02*
X0127693Y0097693D01*
X0127693Y0096694D02*
X0126693Y0096694D01*
X0134743Y0086709D02*
X0161343Y0086709D01*
X0161343Y0085711D02*
X0134743Y0085711D01*
X0134947Y0079720D02*
X0135777Y0079720D01*
X0139947Y0079720D02*
X0140777Y0079720D01*
X0130777Y0079720D02*
X0129947Y0079720D01*
X0125777Y0079720D02*
X0124947Y0079720D01*
X0120777Y0079720D02*
X0119947Y0079720D01*
X0136567Y0098691D02*
X0137562Y0098691D01*
X0136567Y0099690D02*
X0138560Y0099690D01*
X0139443Y0100688D02*
X0136567Y0100688D01*
X0136567Y0101687D02*
X0139443Y0101687D01*
X0139443Y0102685D02*
X0136567Y0102685D01*
X0136567Y0103684D02*
X0139443Y0103684D01*
X0139443Y0104682D02*
X0136567Y0104682D01*
X0145967Y0112670D02*
X0154343Y0112670D01*
X0154343Y0113669D02*
X0146633Y0113669D01*
X0146633Y0114668D02*
X0154343Y0114668D01*
X0154343Y0115666D02*
X0146201Y0115666D01*
X0146961Y0116665D02*
X0154343Y0116665D01*
X0154343Y0117663D02*
X0147633Y0117663D01*
X0147633Y0118662D02*
X0154343Y0118662D01*
X0154343Y0119660D02*
X0147207Y0119660D01*
X0145090Y0120659D02*
X0154343Y0120659D01*
X0154343Y0121657D02*
X0141954Y0121657D01*
X0142952Y0122656D02*
X0154343Y0122656D01*
X0154343Y0123654D02*
X0143133Y0123654D01*
X0143133Y0124653D02*
X0154343Y0124653D01*
X0154343Y0125651D02*
X0142216Y0125651D01*
X0140099Y0126650D02*
X0154343Y0126650D01*
X0157343Y0126650D02*
X0157843Y0126650D01*
X0157843Y0127648D02*
X0157343Y0127648D01*
X0157343Y0128647D02*
X0157843Y0128647D01*
X0157843Y0129645D02*
X0157343Y0129645D01*
X0157343Y0130644D02*
X0157843Y0130644D01*
X0157843Y0131642D02*
X0157343Y0131642D01*
X0157343Y0132641D02*
X0157843Y0132641D01*
X0157843Y0133639D02*
X0157343Y0133639D01*
X0157343Y0134638D02*
X0157843Y0134638D01*
X0156870Y0135636D02*
X0156613Y0135636D01*
X0155872Y0136635D02*
X0155614Y0136635D01*
X0154873Y0137633D02*
X0154616Y0137633D01*
X0153875Y0138632D02*
X0153617Y0138632D01*
X0157119Y0139630D02*
X0161343Y0139630D01*
X0161343Y0138632D02*
X0158117Y0138632D01*
X0159116Y0137633D02*
X0161343Y0137633D01*
X0161343Y0136635D02*
X0160114Y0136635D01*
X0160843Y0135636D02*
X0161343Y0135636D01*
X0161343Y0134638D02*
X0160843Y0134638D01*
X0160843Y0133639D02*
X0161343Y0133639D01*
X0161343Y0132641D02*
X0160843Y0132641D01*
X0160843Y0131642D02*
X0161343Y0131642D01*
X0161343Y0130644D02*
X0160843Y0130644D01*
X0160843Y0129645D02*
X0161343Y0129645D01*
X0161343Y0128647D02*
X0160843Y0128647D01*
X0160843Y0127648D02*
X0161343Y0127648D01*
X0161343Y0126650D02*
X0160843Y0126650D01*
X0160843Y0125651D02*
X0161343Y0125651D01*
X0161343Y0124653D02*
X0160843Y0124653D01*
X0160843Y0123654D02*
X0161343Y0123654D01*
X0161343Y0122656D02*
X0160843Y0122656D01*
X0160843Y0121657D02*
X0161343Y0121657D01*
X0161343Y0120659D02*
X0160843Y0120659D01*
X0160843Y0119660D02*
X0161343Y0119660D01*
X0161343Y0118662D02*
X0160843Y0118662D01*
X0160843Y0117663D02*
X0161343Y0117663D01*
X0161343Y0116665D02*
X0160843Y0116665D01*
X0160843Y0115666D02*
X0161343Y0115666D01*
X0161343Y0114668D02*
X0160843Y0114668D01*
X0160843Y0113669D02*
X0161343Y0113669D01*
X0161343Y0112670D02*
X0160843Y0112670D01*
X0160843Y0111672D02*
X0161343Y0111672D01*
X0161343Y0110673D02*
X0160843Y0110673D01*
X0160843Y0109675D02*
X0161343Y0109675D01*
X0161343Y0108676D02*
X0160843Y0108676D01*
X0160843Y0107678D02*
X0161343Y0107678D01*
X0161343Y0106679D02*
X0160843Y0106679D01*
X0160843Y0105681D02*
X0161343Y0105681D01*
X0161343Y0104682D02*
X0160843Y0104682D01*
X0160843Y0103684D02*
X0161343Y0103684D01*
X0161343Y0102685D02*
X0160843Y0102685D01*
X0160843Y0101687D02*
X0161343Y0101687D01*
X0161343Y0100688D02*
X0160843Y0100688D01*
X0160843Y0099690D02*
X0161343Y0099690D01*
X0161343Y0098691D02*
X0160843Y0098691D01*
X0160843Y0097693D02*
X0161343Y0097693D01*
X0161343Y0096694D02*
X0160843Y0096694D01*
X0160843Y0095696D02*
X0161343Y0095696D01*
X0161343Y0094697D02*
X0160843Y0094697D01*
X0160843Y0093699D02*
X0161343Y0093699D01*
X0161343Y0092700D02*
X0160843Y0092700D01*
X0160843Y0091702D02*
X0161343Y0091702D01*
X0161343Y0090703D02*
X0160382Y0090703D01*
X0161343Y0089705D02*
X0159383Y0089705D01*
X0157843Y0096694D02*
X0155373Y0096694D01*
X0156372Y0097693D02*
X0157843Y0097693D01*
X0157843Y0098691D02*
X0157343Y0098691D01*
X0157343Y0099690D02*
X0157843Y0099690D01*
X0157843Y0100688D02*
X0157343Y0100688D01*
X0157343Y0101687D02*
X0157843Y0101687D01*
X0157843Y0102685D02*
X0157343Y0102685D01*
X0157343Y0103684D02*
X0157843Y0103684D01*
X0157843Y0104682D02*
X0157343Y0104682D01*
X0157343Y0105681D02*
X0157843Y0105681D01*
X0157843Y0106679D02*
X0157343Y0106679D01*
X0157343Y0107678D02*
X0157843Y0107678D01*
X0157843Y0108676D02*
X0157343Y0108676D01*
X0157343Y0109675D02*
X0157843Y0109675D01*
X0157843Y0110673D02*
X0157343Y0110673D01*
X0157343Y0111672D02*
X0157843Y0111672D01*
X0157843Y0112670D02*
X0157343Y0112670D01*
X0157343Y0113669D02*
X0157843Y0113669D01*
X0157843Y0114668D02*
X0157343Y0114668D01*
X0157343Y0115666D02*
X0157843Y0115666D01*
X0157843Y0116665D02*
X0157343Y0116665D01*
X0157343Y0117663D02*
X0157843Y0117663D01*
X0157843Y0118662D02*
X0157343Y0118662D01*
X0157343Y0119660D02*
X0157843Y0119660D01*
X0157843Y0120659D02*
X0157343Y0120659D01*
X0157343Y0121657D02*
X0157843Y0121657D01*
X0157843Y0122656D02*
X0157343Y0122656D01*
X0157343Y0123654D02*
X0157843Y0123654D01*
X0157843Y0124653D02*
X0157343Y0124653D01*
X0157343Y0125651D02*
X0157843Y0125651D01*
X0157447Y0141627D02*
X0158278Y0141627D01*
X0158278Y0142626D02*
X0157447Y0142626D01*
X0157447Y0143624D02*
X0158278Y0143624D01*
X0158278Y0144623D02*
X0157447Y0144623D01*
X0161193Y0146620D02*
X0161343Y0146620D01*
X0161343Y0147618D02*
X0161193Y0147618D01*
X0161343Y0148617D02*
X0160875Y0148617D01*
X0161343Y0149615D02*
X0159763Y0149615D01*
X0141362Y0149615D02*
X0139362Y0149615D01*
X0139362Y0150614D02*
X0141362Y0150614D01*
X0141362Y0151612D02*
X0139362Y0151612D01*
X0139362Y0152611D02*
X0141362Y0152611D01*
X0141362Y0153609D02*
X0139362Y0153609D01*
X0139362Y0154608D02*
X0141362Y0154608D01*
X0141362Y0155606D02*
X0139362Y0155606D01*
X0139362Y0156605D02*
X0141362Y0156605D01*
X0141362Y0157604D02*
X0139362Y0157604D01*
X0139362Y0158602D02*
X0141362Y0158602D01*
X0141362Y0159601D02*
X0139362Y0159601D01*
X0139362Y0160599D02*
X0141343Y0160599D01*
X0141343Y0161598D02*
X0139362Y0161598D01*
X0139362Y0162596D02*
X0141343Y0162596D01*
X0141294Y0163595D02*
X0139362Y0163595D01*
X0139362Y0164593D02*
X0140552Y0164593D01*
X0140552Y0165592D02*
X0139362Y0165592D01*
X0139362Y0166590D02*
X0140908Y0166590D01*
X0136362Y0162596D02*
X0130271Y0162596D01*
X0131133Y0161598D02*
X0136362Y0161598D01*
X0136362Y0160599D02*
X0131150Y0160599D01*
X0132148Y0159601D02*
X0136362Y0159601D01*
X0136362Y0158602D02*
X0133147Y0158602D01*
X0134145Y0157604D02*
X0136362Y0157604D01*
X0136362Y0156605D02*
X0134362Y0156605D01*
X0134362Y0155606D02*
X0136362Y0155606D01*
X0136362Y0154608D02*
X0134362Y0154608D01*
X0134362Y0153609D02*
X0136362Y0153609D01*
X0136362Y0152611D02*
X0134362Y0152611D01*
X0134362Y0151612D02*
X0136362Y0151612D01*
X0136362Y0150614D02*
X0134362Y0150614D01*
X0134362Y0149615D02*
X0136362Y0149615D01*
X0135713Y0123654D02*
X0138552Y0123654D01*
X0138733Y0122656D02*
X0136633Y0122656D01*
X0136633Y0121657D02*
X0139731Y0121657D01*
X0148177Y0099690D02*
X0154126Y0099690D01*
X0154947Y0079720D02*
X0155212Y0079720D01*
X0157447Y0079720D02*
X0158278Y0079720D01*
X0158278Y0078721D02*
X0157447Y0078721D01*
X0157447Y0077723D02*
X0158278Y0077723D01*
X0158278Y0076724D02*
X0157447Y0076724D01*
X0161193Y0074727D02*
X0161343Y0074727D01*
X0161343Y0073729D02*
X0161154Y0073729D01*
X0161343Y0072730D02*
X0160726Y0072730D01*
X0110630Y0042775D02*
X0110055Y0042775D01*
X0110055Y0041776D02*
X0110630Y0041776D01*
X0110630Y0040778D02*
X0110055Y0040778D01*
X0110055Y0039779D02*
X0110630Y0039779D01*
X0080528Y0072730D02*
X0080197Y0072730D01*
X0075528Y0072730D02*
X0075197Y0072730D01*
X0070528Y0072730D02*
X0070197Y0072730D01*
X0069947Y0079720D02*
X0070777Y0079720D01*
X0074947Y0079720D02*
X0075777Y0079720D01*
X0090513Y0079720D02*
X0090777Y0079720D01*
X0075710Y0107678D02*
X0044143Y0107678D01*
X0044143Y0108676D02*
X0075052Y0108676D01*
X0075052Y0109675D02*
X0044143Y0109675D01*
X0044143Y0110673D02*
X0075492Y0110673D01*
X0059764Y0143624D02*
X0056921Y0143624D01*
X0057920Y0144623D02*
X0058765Y0144623D01*
X0058552Y0145621D02*
X0058133Y0145621D01*
X0058133Y0146620D02*
X0058552Y0146620D01*
X0059436Y0147618D02*
X0057343Y0147618D01*
X0086052Y0161598D02*
X0005943Y0161598D01*
X0005943Y0162596D02*
X0086052Y0162596D01*
X0086413Y0163595D02*
X0006915Y0163595D01*
X0005943Y0160599D02*
X0086789Y0160599D01*
X0089896Y0160599D02*
X0099035Y0160599D01*
X0098037Y0159601D02*
X0005943Y0159601D01*
X0005943Y0158602D02*
X0097038Y0158602D01*
X0096040Y0157604D02*
X0005943Y0157604D01*
X0005943Y0156605D02*
X0095041Y0156605D01*
X0090633Y0161598D02*
X0100034Y0161598D01*
X0100343Y0162596D02*
X0090633Y0162596D01*
X0090272Y0163595D02*
X0100343Y0163595D01*
X0100343Y0164593D02*
X0089689Y0164593D01*
X0089689Y0165592D02*
X0100343Y0165592D01*
X0100343Y0166590D02*
X0089689Y0166590D01*
X0089689Y0167589D02*
X0100343Y0167589D01*
X0100343Y0168587D02*
X0089689Y0168587D01*
X0089689Y0169586D02*
X0100343Y0169586D01*
X0100343Y0170584D02*
X0089689Y0170584D01*
X0089689Y0171583D02*
X0100343Y0171583D01*
X0100343Y0172581D02*
X0089689Y0172581D01*
X0089689Y0173580D02*
X0100343Y0173580D01*
X0100343Y0174578D02*
X0090221Y0174578D01*
X0090480Y0175577D02*
X0100343Y0175577D01*
X0100343Y0176575D02*
X0090480Y0176575D01*
X0089640Y0177574D02*
X0100343Y0177574D01*
X0098797Y0181568D02*
X0026888Y0181568D01*
X0029209Y0121657D02*
X0029390Y0121657D01*
X0029390Y0120659D02*
X0029209Y0120659D01*
X0029209Y0119660D02*
X0029390Y0119660D01*
X0029390Y0118662D02*
X0029209Y0118662D01*
X0029209Y0117663D02*
X0029390Y0117663D01*
X0029390Y0116665D02*
X0029209Y0116665D01*
X0029209Y0115666D02*
X0029390Y0115666D01*
D16*
X0037843Y0120785D03*
X0045343Y0131285D03*
X0050343Y0132785D03*
X0050343Y0126285D03*
X0050843Y0120785D03*
X0035843Y0106285D03*
X0020843Y0095785D03*
X0006343Y0103785D03*
X0008343Y0110785D03*
X0007843Y0135285D03*
X0007843Y0160285D03*
X0027843Y0179285D03*
X0033343Y0160785D03*
X0045343Y0151785D03*
X0055843Y0151785D03*
X0055843Y0145785D03*
X0058343Y0142785D03*
X0060843Y0145785D03*
X0060343Y0160785D03*
X0051343Y0179285D03*
X0074343Y0179285D03*
X0088189Y0175785D03*
X0088343Y0162285D03*
X0088843Y0156785D03*
X0099343Y0151285D03*
X0099343Y0137785D03*
X0110343Y0135785D03*
X0110343Y0123785D03*
X0113843Y0123785D03*
X0111843Y0119785D03*
X0112843Y0115785D03*
X0112843Y0112285D03*
X0115843Y0105285D03*
X0115343Y0098285D03*
X0107843Y0098285D03*
X0105343Y0108785D03*
X0101343Y0115285D03*
X0106343Y0121285D03*
X0093843Y0121785D03*
X0091843Y0110785D03*
X0091843Y0104285D03*
X0095843Y0099285D03*
X0092343Y0085285D03*
X0082343Y0085285D03*
X0077843Y0082785D03*
X0077343Y0096285D03*
X0077343Y0109285D03*
X0077343Y0117785D03*
X0072843Y0119285D03*
X0078843Y0136285D03*
X0043843Y0140785D03*
X0057843Y0096285D03*
X0055343Y0084785D03*
X0041843Y0088285D03*
X0047843Y0071785D03*
X0057343Y0064285D03*
X0065343Y0050785D03*
X0075343Y0050785D03*
X0075343Y0038285D03*
X0092843Y0056285D03*
X0074343Y0063785D03*
X0044843Y0051785D03*
X0030343Y0059785D03*
X0024343Y0059785D03*
X0036843Y0068285D03*
X0024343Y0077785D03*
X0005343Y0055785D03*
X0024343Y0039285D03*
X0112843Y0053285D03*
X0122843Y0053285D03*
X0122843Y0058285D03*
X0128343Y0054785D03*
X0128343Y0065285D03*
X0125343Y0068285D03*
X0122843Y0065285D03*
X0135343Y0070285D03*
X0139343Y0070285D03*
X0143343Y0070285D03*
X0152843Y0070785D03*
X0160343Y0062285D03*
X0155343Y0082785D03*
X0147843Y0082785D03*
X0146843Y0090285D03*
X0146843Y0097785D03*
X0154843Y0094785D03*
X0141343Y0110285D03*
X0144343Y0114285D03*
X0145343Y0118285D03*
X0148843Y0123785D03*
X0140843Y0123785D03*
X0134343Y0121785D03*
X0123343Y0135785D03*
X0123843Y0160785D03*
X0128843Y0160785D03*
X0137862Y0168765D03*
X0142843Y0165285D03*
X0149843Y0159285D03*
X0158843Y0169285D03*
X0148343Y0180785D03*
X0106843Y0180785D03*
X0101843Y0180785D03*
X0148843Y0134285D03*
X0128843Y0093785D03*
X0125343Y0088285D03*
X0128843Y0085285D03*
X0132843Y0082785D03*
X0120843Y0085285D03*
X0155343Y0038785D03*
D17*
X0160343Y0043285D02*
X0143343Y0060285D01*
X0143343Y0070285D01*
X0139343Y0070285D02*
X0139343Y0054285D01*
X0150343Y0043285D01*
X0133843Y0051785D02*
X0130843Y0048785D01*
X0101343Y0048785D01*
X0100343Y0047785D01*
X0100343Y0043285D01*
X0092343Y0050785D02*
X0090343Y0048785D01*
X0090343Y0043285D01*
X0092343Y0050785D02*
X0129843Y0050785D01*
X0131343Y0052285D01*
X0131343Y0068785D01*
X0127862Y0072265D01*
X0127862Y0076100D01*
X0122862Y0076100D02*
X0122862Y0071805D01*
X0118843Y0067785D01*
X0118843Y0057285D01*
X0122843Y0053285D01*
X0113843Y0059785D02*
X0107343Y0053285D01*
X0085343Y0053285D01*
X0080343Y0048285D01*
X0080343Y0043285D01*
X0075343Y0050785D02*
X0083843Y0059285D01*
X0101843Y0059285D01*
X0107862Y0065305D01*
X0107862Y0076100D01*
X0102862Y0076100D02*
X0102862Y0066805D01*
X0097343Y0061285D01*
X0081343Y0061285D01*
X0070343Y0050285D01*
X0070343Y0043285D01*
X0065343Y0050785D02*
X0062843Y0050785D01*
X0060343Y0048285D01*
X0060343Y0043285D01*
X0074343Y0063785D02*
X0077343Y0066785D01*
X0095843Y0066785D01*
X0097862Y0068805D01*
X0097862Y0076100D01*
X0092862Y0076100D02*
X0092862Y0080805D01*
X0096843Y0084785D01*
X0105343Y0084785D01*
X0107843Y0087285D01*
X0107843Y0098285D01*
X0095843Y0099285D02*
X0095843Y0092785D01*
X0082862Y0079805D01*
X0082862Y0076100D01*
X0113843Y0067785D02*
X0113843Y0059785D01*
X0113843Y0067785D02*
X0117862Y0071805D01*
X0117862Y0076100D01*
X0132862Y0076100D02*
X0132862Y0068765D01*
X0133843Y0067785D01*
X0133843Y0051785D01*
X0146843Y0090285D02*
X0157843Y0090285D01*
X0159343Y0091785D01*
X0159343Y0135285D01*
X0152862Y0141765D01*
X0152862Y0145470D01*
X0147862Y0145470D02*
X0147862Y0142265D01*
X0155843Y0134285D01*
X0155843Y0099285D01*
X0154343Y0097785D01*
X0146843Y0097785D01*
X0144343Y0114285D02*
X0143843Y0114285D01*
X0140843Y0117285D01*
X0117843Y0117285D01*
X0112843Y0112285D01*
X0112843Y0115785D02*
X0116343Y0119285D01*
X0144343Y0119285D01*
X0145343Y0118285D01*
X0140843Y0123785D02*
X0139343Y0125285D01*
X0115343Y0125285D01*
X0113843Y0123785D01*
X0110343Y0123785D02*
X0110343Y0135785D01*
X0109343Y0138785D02*
X0120843Y0138785D01*
X0122843Y0140785D01*
X0122843Y0145450D01*
X0122862Y0145470D01*
X0112862Y0145470D02*
X0112862Y0141305D01*
X0111843Y0140285D01*
X0108343Y0140285D01*
X0101343Y0133285D01*
X0101343Y0115285D01*
X0106343Y0121285D02*
X0106343Y0135785D01*
X0109343Y0138785D01*
X0092862Y0145470D02*
X0092843Y0145490D01*
X0092843Y0152285D01*
X0101843Y0161285D01*
X0101843Y0180785D01*
X0088189Y0175785D02*
X0088189Y0162439D01*
X0088343Y0162285D01*
X0082862Y0145470D02*
X0082843Y0145450D01*
X0055843Y0145785D02*
X0055843Y0151785D01*
X0128843Y0160785D02*
X0132862Y0156765D01*
X0132862Y0145470D01*
X0137862Y0145470D02*
X0137862Y0168765D01*
X0142843Y0165285D02*
X0142843Y0160785D01*
X0142862Y0160765D01*
X0142862Y0145470D01*
D18*
X0082343Y0085285D02*
X0079343Y0088285D01*
X0041843Y0088285D01*
X0030343Y0076785D01*
X0030343Y0059785D01*
X0041843Y0088285D02*
X0041843Y0117785D01*
X0050343Y0126285D01*
X0050343Y0132785D01*
X0050343Y0146785D01*
X0045343Y0151785D01*
X0122843Y0065285D02*
X0122843Y0058285D01*
X0152843Y0070785D02*
X0152843Y0076080D01*
X0152862Y0076100D01*
D19*
X0132843Y0082785D02*
X0132843Y0091285D01*
X0141343Y0099785D01*
X0141343Y0110285D01*
X0125343Y0088285D02*
X0115343Y0098285D01*
X0091843Y0104285D02*
X0086843Y0109285D01*
X0077343Y0109285D01*
D20*
X0111843Y0119785D02*
X0113843Y0119785D01*
X0115843Y0121785D01*
X0134343Y0121785D01*
X0136343Y0115285D02*
X0141343Y0110285D01*
X0136343Y0115285D02*
X0118843Y0115285D01*
X0115843Y0112285D01*
X0115843Y0105285D01*
X0128343Y0065285D02*
X0128343Y0054785D01*
M02*
