%
M48
M72
T01C0.01181
T02C0.02362
T03C0.02559
T04C0.02953
T05C0.03150
T06C0.12598
%
T01
X35000Y85000
X45000Y36000
X54500Y28500
X5000Y124500
X30500Y125000
X57500Y125000
X48000Y85000
X52500Y49000
X90000Y20500
X152500Y47000
X34000Y32500
X33000Y70500
X96500Y102000
X71500Y143500
X102500Y73000
X91000Y86000
X120500Y100000
X146000Y98500
X146000Y88000
X147000Y123500
X145500Y145000
X74500Y82000
X2500Y20000
X42500Y95500
X18000Y60000
X74500Y60500
X55000Y60500
X75000Y47000
X89500Y49500
X126000Y58000
X122500Y32500
X157500Y26500
X132500Y34500
X152500Y3000
X126000Y49500
X110000Y17500
X72500Y2500
X21500Y24000
X21500Y42000
X3500Y68000
X86000Y121000
X121000Y125000
X104000Y145000
X156000Y133500
X5000Y99500
X89000Y75000
X96500Y115500
X25000Y143500
X21500Y3500
X42000Y16000
X118000Y49500
X152000Y59000
X55500Y107000
X41000Y105000
X48500Y143500
X135020Y132980
X140000Y129500
X85346Y140000
X85500Y126500
X39000Y52500
X79500Y49500
X47500Y90500
X47500Y97000
X42500Y116000
X27500Y24000
X150000Y35000
X120000Y29500
X120000Y22500
X122500Y52500
X112500Y62500
X109000Y84000
X131500Y86000
X125500Y29500
X125500Y19000
X130000Y47000
X138500Y74500
X113000Y69500
X89000Y68500
X74500Y73500
X5500Y75000
X99000Y145000
X145000Y47000
X71500Y28000
X70000Y83500
X93000Y63500
X103500Y85500
X105000Y62500
X98500Y79500
X144000Y62000
X141500Y78500
X136500Y34500
X110000Y76500
X144000Y54500
X142500Y82500
X140500Y34500
X110000Y80000
X126000Y125000
X111000Y88000
X138000Y88000
X107500Y100000
X107500Y88000
X76000Y100500
X58000Y110000
X53000Y110000
X53000Y116000
X72500Y15000
X62500Y15000
X120000Y17500
T02
X10000Y117008
X10000Y82992
X26457Y117008
X26457Y82992
T03
X24488Y88622
X24488Y111378
T04
X15413Y35000
X4587Y35000
T05
X157500Y7500
X127500Y7500
X137500Y7500
X147500Y7500
X117500Y7500
X107500Y7500
X97500Y7500
X87500Y7500
X77500Y7500
X57500Y7500
X67500Y7500
X47500Y7500
X37500Y7500
X27500Y7500
T06
X10000Y10000
X10000Y140000
X175000Y10000
X175000Y140000
M30
