G75*
%MOIN*%
%OFA0B0*%
%FSLAX25Y25*%
%IPPOS*%
%LPD*%
%AMOC8*
5,1,8,0,0,1.08239X$1,22.5*
%
%ADD10C,0.00000*%
%ADD11R,0.03937X0.04331*%
%ADD12R,0.04331X0.03937*%
%ADD13C,0.05150*%
%ADD14R,0.03150X0.03543*%
%ADD15R,0.04724X0.03543*%
%ADD16R,0.03307X0.01969*%
%ADD17R,0.01969X0.03307*%
%ADD18R,0.02559X0.04331*%
%ADD19R,0.02559X0.02559*%
%ADD20R,0.04331X0.02559*%
%ADD21R,0.05118X0.10039*%
%ADD22R,0.03937X0.04724*%
%ADD23R,0.05512X0.03937*%
%ADD24R,0.03937X0.05512*%
%ADD25R,0.03937X0.02165*%
%ADD26R,0.04724X0.05906*%
%ADD27C,0.00551*%
%ADD28R,0.09449X0.09449*%
%ADD29C,0.04362*%
%ADD30R,0.04528X0.02362*%
%ADD31R,0.04528X0.01181*%
%ADD32R,0.03543X0.03150*%
%ADD33C,0.01000*%
%ADD34C,0.02381*%
%ADD35C,0.00800*%
%ADD36C,0.01600*%
%ADD37C,0.02400*%
%ADD38C,0.01200*%
D10*
X0005343Y0035785D02*
X0185343Y0035785D01*
X0185441Y0035787D01*
X0185539Y0035793D01*
X0185637Y0035802D01*
X0185734Y0035816D01*
X0185831Y0035833D01*
X0185927Y0035854D01*
X0186022Y0035879D01*
X0186116Y0035907D01*
X0186208Y0035940D01*
X0186300Y0035975D01*
X0186390Y0036015D01*
X0186478Y0036057D01*
X0186565Y0036104D01*
X0186649Y0036153D01*
X0186732Y0036206D01*
X0186812Y0036262D01*
X0186891Y0036322D01*
X0186967Y0036384D01*
X0187040Y0036449D01*
X0187111Y0036517D01*
X0187179Y0036588D01*
X0187244Y0036661D01*
X0187306Y0036737D01*
X0187366Y0036816D01*
X0187422Y0036896D01*
X0187475Y0036979D01*
X0187524Y0037063D01*
X0187571Y0037150D01*
X0187613Y0037238D01*
X0187653Y0037328D01*
X0187688Y0037420D01*
X0187721Y0037512D01*
X0187749Y0037606D01*
X0187774Y0037701D01*
X0187795Y0037797D01*
X0187812Y0037894D01*
X0187826Y0037991D01*
X0187835Y0038089D01*
X0187841Y0038187D01*
X0187843Y0038285D01*
X0187843Y0183285D01*
X0187841Y0183383D01*
X0187835Y0183481D01*
X0187826Y0183579D01*
X0187812Y0183676D01*
X0187795Y0183773D01*
X0187774Y0183869D01*
X0187749Y0183964D01*
X0187721Y0184058D01*
X0187688Y0184150D01*
X0187653Y0184242D01*
X0187613Y0184332D01*
X0187571Y0184420D01*
X0187524Y0184507D01*
X0187475Y0184591D01*
X0187422Y0184674D01*
X0187366Y0184754D01*
X0187306Y0184833D01*
X0187244Y0184909D01*
X0187179Y0184982D01*
X0187111Y0185053D01*
X0187040Y0185121D01*
X0186967Y0185186D01*
X0186891Y0185248D01*
X0186812Y0185308D01*
X0186732Y0185364D01*
X0186649Y0185417D01*
X0186565Y0185466D01*
X0186478Y0185513D01*
X0186390Y0185555D01*
X0186300Y0185595D01*
X0186208Y0185630D01*
X0186116Y0185663D01*
X0186022Y0185691D01*
X0185927Y0185716D01*
X0185831Y0185737D01*
X0185734Y0185754D01*
X0185637Y0185768D01*
X0185539Y0185777D01*
X0185441Y0185783D01*
X0185343Y0185785D01*
X0005343Y0185785D01*
X0005245Y0185783D01*
X0005147Y0185777D01*
X0005049Y0185768D01*
X0004952Y0185754D01*
X0004855Y0185737D01*
X0004759Y0185716D01*
X0004664Y0185691D01*
X0004570Y0185663D01*
X0004478Y0185630D01*
X0004386Y0185595D01*
X0004296Y0185555D01*
X0004208Y0185513D01*
X0004121Y0185466D01*
X0004037Y0185417D01*
X0003954Y0185364D01*
X0003874Y0185308D01*
X0003795Y0185248D01*
X0003719Y0185186D01*
X0003646Y0185121D01*
X0003575Y0185053D01*
X0003507Y0184982D01*
X0003442Y0184909D01*
X0003380Y0184833D01*
X0003320Y0184754D01*
X0003264Y0184674D01*
X0003211Y0184591D01*
X0003162Y0184507D01*
X0003115Y0184420D01*
X0003073Y0184332D01*
X0003033Y0184242D01*
X0002998Y0184150D01*
X0002965Y0184058D01*
X0002937Y0183964D01*
X0002912Y0183869D01*
X0002891Y0183773D01*
X0002874Y0183676D01*
X0002860Y0183579D01*
X0002851Y0183481D01*
X0002845Y0183383D01*
X0002843Y0183285D01*
X0002843Y0038285D01*
X0002845Y0038187D01*
X0002851Y0038089D01*
X0002860Y0037991D01*
X0002874Y0037894D01*
X0002891Y0037797D01*
X0002912Y0037701D01*
X0002937Y0037606D01*
X0002965Y0037512D01*
X0002998Y0037420D01*
X0003033Y0037328D01*
X0003073Y0037238D01*
X0003115Y0037150D01*
X0003162Y0037063D01*
X0003211Y0036979D01*
X0003264Y0036896D01*
X0003320Y0036816D01*
X0003380Y0036737D01*
X0003442Y0036661D01*
X0003507Y0036588D01*
X0003575Y0036517D01*
X0003646Y0036449D01*
X0003719Y0036384D01*
X0003795Y0036322D01*
X0003874Y0036262D01*
X0003954Y0036206D01*
X0004037Y0036153D01*
X0004121Y0036104D01*
X0004208Y0036057D01*
X0004296Y0036015D01*
X0004386Y0035975D01*
X0004478Y0035940D01*
X0004570Y0035907D01*
X0004664Y0035879D01*
X0004759Y0035854D01*
X0004855Y0035833D01*
X0004952Y0035816D01*
X0005049Y0035802D01*
X0005147Y0035793D01*
X0005245Y0035787D01*
X0005343Y0035785D01*
X0006544Y0045785D02*
X0006546Y0045943D01*
X0006552Y0046101D01*
X0006562Y0046259D01*
X0006576Y0046417D01*
X0006594Y0046574D01*
X0006615Y0046731D01*
X0006641Y0046887D01*
X0006671Y0047043D01*
X0006704Y0047198D01*
X0006742Y0047351D01*
X0006783Y0047504D01*
X0006828Y0047656D01*
X0006877Y0047807D01*
X0006930Y0047956D01*
X0006986Y0048104D01*
X0007046Y0048250D01*
X0007110Y0048395D01*
X0007178Y0048538D01*
X0007249Y0048680D01*
X0007323Y0048820D01*
X0007401Y0048957D01*
X0007483Y0049093D01*
X0007567Y0049227D01*
X0007656Y0049358D01*
X0007747Y0049487D01*
X0007842Y0049614D01*
X0007939Y0049739D01*
X0008040Y0049861D01*
X0008144Y0049980D01*
X0008251Y0050097D01*
X0008361Y0050211D01*
X0008474Y0050322D01*
X0008589Y0050431D01*
X0008707Y0050536D01*
X0008828Y0050638D01*
X0008951Y0050738D01*
X0009077Y0050834D01*
X0009205Y0050927D01*
X0009335Y0051017D01*
X0009468Y0051103D01*
X0009603Y0051187D01*
X0009739Y0051266D01*
X0009878Y0051343D01*
X0010019Y0051415D01*
X0010161Y0051485D01*
X0010305Y0051550D01*
X0010451Y0051612D01*
X0010598Y0051670D01*
X0010747Y0051725D01*
X0010897Y0051776D01*
X0011048Y0051823D01*
X0011200Y0051866D01*
X0011353Y0051905D01*
X0011508Y0051941D01*
X0011663Y0051972D01*
X0011819Y0052000D01*
X0011975Y0052024D01*
X0012132Y0052044D01*
X0012290Y0052060D01*
X0012447Y0052072D01*
X0012606Y0052080D01*
X0012764Y0052084D01*
X0012922Y0052084D01*
X0013080Y0052080D01*
X0013239Y0052072D01*
X0013396Y0052060D01*
X0013554Y0052044D01*
X0013711Y0052024D01*
X0013867Y0052000D01*
X0014023Y0051972D01*
X0014178Y0051941D01*
X0014333Y0051905D01*
X0014486Y0051866D01*
X0014638Y0051823D01*
X0014789Y0051776D01*
X0014939Y0051725D01*
X0015088Y0051670D01*
X0015235Y0051612D01*
X0015381Y0051550D01*
X0015525Y0051485D01*
X0015667Y0051415D01*
X0015808Y0051343D01*
X0015947Y0051266D01*
X0016083Y0051187D01*
X0016218Y0051103D01*
X0016351Y0051017D01*
X0016481Y0050927D01*
X0016609Y0050834D01*
X0016735Y0050738D01*
X0016858Y0050638D01*
X0016979Y0050536D01*
X0017097Y0050431D01*
X0017212Y0050322D01*
X0017325Y0050211D01*
X0017435Y0050097D01*
X0017542Y0049980D01*
X0017646Y0049861D01*
X0017747Y0049739D01*
X0017844Y0049614D01*
X0017939Y0049487D01*
X0018030Y0049358D01*
X0018119Y0049227D01*
X0018203Y0049093D01*
X0018285Y0048957D01*
X0018363Y0048820D01*
X0018437Y0048680D01*
X0018508Y0048538D01*
X0018576Y0048395D01*
X0018640Y0048250D01*
X0018700Y0048104D01*
X0018756Y0047956D01*
X0018809Y0047807D01*
X0018858Y0047656D01*
X0018903Y0047504D01*
X0018944Y0047351D01*
X0018982Y0047198D01*
X0019015Y0047043D01*
X0019045Y0046887D01*
X0019071Y0046731D01*
X0019092Y0046574D01*
X0019110Y0046417D01*
X0019124Y0046259D01*
X0019134Y0046101D01*
X0019140Y0045943D01*
X0019142Y0045785D01*
X0019140Y0045627D01*
X0019134Y0045469D01*
X0019124Y0045311D01*
X0019110Y0045153D01*
X0019092Y0044996D01*
X0019071Y0044839D01*
X0019045Y0044683D01*
X0019015Y0044527D01*
X0018982Y0044372D01*
X0018944Y0044219D01*
X0018903Y0044066D01*
X0018858Y0043914D01*
X0018809Y0043763D01*
X0018756Y0043614D01*
X0018700Y0043466D01*
X0018640Y0043320D01*
X0018576Y0043175D01*
X0018508Y0043032D01*
X0018437Y0042890D01*
X0018363Y0042750D01*
X0018285Y0042613D01*
X0018203Y0042477D01*
X0018119Y0042343D01*
X0018030Y0042212D01*
X0017939Y0042083D01*
X0017844Y0041956D01*
X0017747Y0041831D01*
X0017646Y0041709D01*
X0017542Y0041590D01*
X0017435Y0041473D01*
X0017325Y0041359D01*
X0017212Y0041248D01*
X0017097Y0041139D01*
X0016979Y0041034D01*
X0016858Y0040932D01*
X0016735Y0040832D01*
X0016609Y0040736D01*
X0016481Y0040643D01*
X0016351Y0040553D01*
X0016218Y0040467D01*
X0016083Y0040383D01*
X0015947Y0040304D01*
X0015808Y0040227D01*
X0015667Y0040155D01*
X0015525Y0040085D01*
X0015381Y0040020D01*
X0015235Y0039958D01*
X0015088Y0039900D01*
X0014939Y0039845D01*
X0014789Y0039794D01*
X0014638Y0039747D01*
X0014486Y0039704D01*
X0014333Y0039665D01*
X0014178Y0039629D01*
X0014023Y0039598D01*
X0013867Y0039570D01*
X0013711Y0039546D01*
X0013554Y0039526D01*
X0013396Y0039510D01*
X0013239Y0039498D01*
X0013080Y0039490D01*
X0012922Y0039486D01*
X0012764Y0039486D01*
X0012606Y0039490D01*
X0012447Y0039498D01*
X0012290Y0039510D01*
X0012132Y0039526D01*
X0011975Y0039546D01*
X0011819Y0039570D01*
X0011663Y0039598D01*
X0011508Y0039629D01*
X0011353Y0039665D01*
X0011200Y0039704D01*
X0011048Y0039747D01*
X0010897Y0039794D01*
X0010747Y0039845D01*
X0010598Y0039900D01*
X0010451Y0039958D01*
X0010305Y0040020D01*
X0010161Y0040085D01*
X0010019Y0040155D01*
X0009878Y0040227D01*
X0009739Y0040304D01*
X0009603Y0040383D01*
X0009468Y0040467D01*
X0009335Y0040553D01*
X0009205Y0040643D01*
X0009077Y0040736D01*
X0008951Y0040832D01*
X0008828Y0040932D01*
X0008707Y0041034D01*
X0008589Y0041139D01*
X0008474Y0041248D01*
X0008361Y0041359D01*
X0008251Y0041473D01*
X0008144Y0041590D01*
X0008040Y0041709D01*
X0007939Y0041831D01*
X0007842Y0041956D01*
X0007747Y0042083D01*
X0007656Y0042212D01*
X0007567Y0042343D01*
X0007483Y0042477D01*
X0007401Y0042613D01*
X0007323Y0042750D01*
X0007249Y0042890D01*
X0007178Y0043032D01*
X0007110Y0043175D01*
X0007046Y0043320D01*
X0006986Y0043466D01*
X0006930Y0043614D01*
X0006877Y0043763D01*
X0006828Y0043914D01*
X0006783Y0044066D01*
X0006742Y0044219D01*
X0006704Y0044372D01*
X0006671Y0044527D01*
X0006641Y0044683D01*
X0006615Y0044839D01*
X0006594Y0044996D01*
X0006576Y0045153D01*
X0006562Y0045311D01*
X0006552Y0045469D01*
X0006546Y0045627D01*
X0006544Y0045785D01*
X0005953Y0070785D02*
X0005955Y0070862D01*
X0005961Y0070938D01*
X0005971Y0071014D01*
X0005985Y0071089D01*
X0006002Y0071164D01*
X0006024Y0071237D01*
X0006049Y0071310D01*
X0006079Y0071381D01*
X0006111Y0071450D01*
X0006148Y0071517D01*
X0006187Y0071583D01*
X0006230Y0071646D01*
X0006277Y0071707D01*
X0006326Y0071766D01*
X0006379Y0071822D01*
X0006434Y0071875D01*
X0006492Y0071925D01*
X0006552Y0071972D01*
X0006615Y0072016D01*
X0006680Y0072057D01*
X0006747Y0072094D01*
X0006816Y0072128D01*
X0006886Y0072158D01*
X0006958Y0072184D01*
X0007032Y0072206D01*
X0007106Y0072225D01*
X0007181Y0072240D01*
X0007257Y0072251D01*
X0007333Y0072258D01*
X0007410Y0072261D01*
X0007486Y0072260D01*
X0007563Y0072255D01*
X0007639Y0072246D01*
X0007715Y0072233D01*
X0007789Y0072216D01*
X0007863Y0072196D01*
X0007936Y0072171D01*
X0008007Y0072143D01*
X0008077Y0072111D01*
X0008145Y0072076D01*
X0008211Y0072037D01*
X0008275Y0071995D01*
X0008336Y0071949D01*
X0008396Y0071900D01*
X0008452Y0071849D01*
X0008506Y0071794D01*
X0008557Y0071737D01*
X0008605Y0071677D01*
X0008650Y0071615D01*
X0008691Y0071550D01*
X0008729Y0071484D01*
X0008764Y0071416D01*
X0008794Y0071345D01*
X0008822Y0071274D01*
X0008845Y0071201D01*
X0008865Y0071127D01*
X0008881Y0071052D01*
X0008893Y0070976D01*
X0008901Y0070900D01*
X0008905Y0070823D01*
X0008905Y0070747D01*
X0008901Y0070670D01*
X0008893Y0070594D01*
X0008881Y0070518D01*
X0008865Y0070443D01*
X0008845Y0070369D01*
X0008822Y0070296D01*
X0008794Y0070225D01*
X0008764Y0070154D01*
X0008729Y0070086D01*
X0008691Y0070020D01*
X0008650Y0069955D01*
X0008605Y0069893D01*
X0008557Y0069833D01*
X0008506Y0069776D01*
X0008452Y0069721D01*
X0008396Y0069670D01*
X0008336Y0069621D01*
X0008275Y0069575D01*
X0008211Y0069533D01*
X0008145Y0069494D01*
X0008077Y0069459D01*
X0008007Y0069427D01*
X0007936Y0069399D01*
X0007863Y0069374D01*
X0007789Y0069354D01*
X0007715Y0069337D01*
X0007639Y0069324D01*
X0007563Y0069315D01*
X0007486Y0069310D01*
X0007410Y0069309D01*
X0007333Y0069312D01*
X0007257Y0069319D01*
X0007181Y0069330D01*
X0007106Y0069345D01*
X0007032Y0069364D01*
X0006958Y0069386D01*
X0006886Y0069412D01*
X0006816Y0069442D01*
X0006747Y0069476D01*
X0006680Y0069513D01*
X0006615Y0069554D01*
X0006552Y0069598D01*
X0006492Y0069645D01*
X0006434Y0069695D01*
X0006379Y0069748D01*
X0006326Y0069804D01*
X0006277Y0069863D01*
X0006230Y0069924D01*
X0006187Y0069987D01*
X0006148Y0070053D01*
X0006111Y0070120D01*
X0006079Y0070189D01*
X0006049Y0070260D01*
X0006024Y0070333D01*
X0006002Y0070406D01*
X0005985Y0070481D01*
X0005971Y0070556D01*
X0005961Y0070632D01*
X0005955Y0070708D01*
X0005953Y0070785D01*
X0016780Y0070785D02*
X0016782Y0070862D01*
X0016788Y0070938D01*
X0016798Y0071014D01*
X0016812Y0071089D01*
X0016829Y0071164D01*
X0016851Y0071237D01*
X0016876Y0071310D01*
X0016906Y0071381D01*
X0016938Y0071450D01*
X0016975Y0071517D01*
X0017014Y0071583D01*
X0017057Y0071646D01*
X0017104Y0071707D01*
X0017153Y0071766D01*
X0017206Y0071822D01*
X0017261Y0071875D01*
X0017319Y0071925D01*
X0017379Y0071972D01*
X0017442Y0072016D01*
X0017507Y0072057D01*
X0017574Y0072094D01*
X0017643Y0072128D01*
X0017713Y0072158D01*
X0017785Y0072184D01*
X0017859Y0072206D01*
X0017933Y0072225D01*
X0018008Y0072240D01*
X0018084Y0072251D01*
X0018160Y0072258D01*
X0018237Y0072261D01*
X0018313Y0072260D01*
X0018390Y0072255D01*
X0018466Y0072246D01*
X0018542Y0072233D01*
X0018616Y0072216D01*
X0018690Y0072196D01*
X0018763Y0072171D01*
X0018834Y0072143D01*
X0018904Y0072111D01*
X0018972Y0072076D01*
X0019038Y0072037D01*
X0019102Y0071995D01*
X0019163Y0071949D01*
X0019223Y0071900D01*
X0019279Y0071849D01*
X0019333Y0071794D01*
X0019384Y0071737D01*
X0019432Y0071677D01*
X0019477Y0071615D01*
X0019518Y0071550D01*
X0019556Y0071484D01*
X0019591Y0071416D01*
X0019621Y0071345D01*
X0019649Y0071274D01*
X0019672Y0071201D01*
X0019692Y0071127D01*
X0019708Y0071052D01*
X0019720Y0070976D01*
X0019728Y0070900D01*
X0019732Y0070823D01*
X0019732Y0070747D01*
X0019728Y0070670D01*
X0019720Y0070594D01*
X0019708Y0070518D01*
X0019692Y0070443D01*
X0019672Y0070369D01*
X0019649Y0070296D01*
X0019621Y0070225D01*
X0019591Y0070154D01*
X0019556Y0070086D01*
X0019518Y0070020D01*
X0019477Y0069955D01*
X0019432Y0069893D01*
X0019384Y0069833D01*
X0019333Y0069776D01*
X0019279Y0069721D01*
X0019223Y0069670D01*
X0019163Y0069621D01*
X0019102Y0069575D01*
X0019038Y0069533D01*
X0018972Y0069494D01*
X0018904Y0069459D01*
X0018834Y0069427D01*
X0018763Y0069399D01*
X0018690Y0069374D01*
X0018616Y0069354D01*
X0018542Y0069337D01*
X0018466Y0069324D01*
X0018390Y0069315D01*
X0018313Y0069310D01*
X0018237Y0069309D01*
X0018160Y0069312D01*
X0018084Y0069319D01*
X0018008Y0069330D01*
X0017933Y0069345D01*
X0017859Y0069364D01*
X0017785Y0069386D01*
X0017713Y0069412D01*
X0017643Y0069442D01*
X0017574Y0069476D01*
X0017507Y0069513D01*
X0017442Y0069554D01*
X0017379Y0069598D01*
X0017319Y0069645D01*
X0017261Y0069695D01*
X0017206Y0069748D01*
X0017153Y0069804D01*
X0017104Y0069863D01*
X0017057Y0069924D01*
X0017014Y0069987D01*
X0016975Y0070053D01*
X0016938Y0070120D01*
X0016906Y0070189D01*
X0016876Y0070260D01*
X0016851Y0070333D01*
X0016829Y0070406D01*
X0016812Y0070481D01*
X0016798Y0070556D01*
X0016788Y0070632D01*
X0016782Y0070708D01*
X0016780Y0070785D01*
X0026051Y0124407D02*
X0026053Y0124478D01*
X0026059Y0124549D01*
X0026069Y0124620D01*
X0026083Y0124689D01*
X0026100Y0124758D01*
X0026122Y0124826D01*
X0026147Y0124893D01*
X0026176Y0124958D01*
X0026208Y0125021D01*
X0026244Y0125083D01*
X0026283Y0125142D01*
X0026326Y0125199D01*
X0026371Y0125254D01*
X0026420Y0125306D01*
X0026471Y0125355D01*
X0026525Y0125401D01*
X0026582Y0125445D01*
X0026640Y0125485D01*
X0026701Y0125521D01*
X0026764Y0125555D01*
X0026829Y0125584D01*
X0026895Y0125610D01*
X0026963Y0125633D01*
X0027031Y0125651D01*
X0027101Y0125666D01*
X0027171Y0125677D01*
X0027242Y0125684D01*
X0027313Y0125687D01*
X0027384Y0125686D01*
X0027455Y0125681D01*
X0027526Y0125672D01*
X0027596Y0125659D01*
X0027665Y0125643D01*
X0027733Y0125622D01*
X0027800Y0125598D01*
X0027866Y0125570D01*
X0027929Y0125538D01*
X0027991Y0125503D01*
X0028051Y0125465D01*
X0028109Y0125423D01*
X0028164Y0125379D01*
X0028217Y0125331D01*
X0028267Y0125280D01*
X0028314Y0125227D01*
X0028358Y0125171D01*
X0028399Y0125113D01*
X0028437Y0125052D01*
X0028471Y0124990D01*
X0028501Y0124925D01*
X0028528Y0124860D01*
X0028552Y0124792D01*
X0028571Y0124724D01*
X0028587Y0124655D01*
X0028599Y0124584D01*
X0028607Y0124514D01*
X0028611Y0124443D01*
X0028611Y0124371D01*
X0028607Y0124300D01*
X0028599Y0124230D01*
X0028587Y0124159D01*
X0028571Y0124090D01*
X0028552Y0124022D01*
X0028528Y0123954D01*
X0028501Y0123889D01*
X0028471Y0123824D01*
X0028437Y0123762D01*
X0028399Y0123701D01*
X0028358Y0123643D01*
X0028314Y0123587D01*
X0028267Y0123534D01*
X0028217Y0123483D01*
X0028164Y0123435D01*
X0028109Y0123391D01*
X0028051Y0123349D01*
X0027991Y0123311D01*
X0027929Y0123276D01*
X0027866Y0123244D01*
X0027800Y0123216D01*
X0027733Y0123192D01*
X0027665Y0123171D01*
X0027596Y0123155D01*
X0027526Y0123142D01*
X0027455Y0123133D01*
X0027384Y0123128D01*
X0027313Y0123127D01*
X0027242Y0123130D01*
X0027171Y0123137D01*
X0027101Y0123148D01*
X0027031Y0123163D01*
X0026963Y0123181D01*
X0026895Y0123204D01*
X0026829Y0123230D01*
X0026764Y0123259D01*
X0026701Y0123293D01*
X0026640Y0123329D01*
X0026582Y0123369D01*
X0026525Y0123413D01*
X0026471Y0123459D01*
X0026420Y0123508D01*
X0026371Y0123560D01*
X0026326Y0123615D01*
X0026283Y0123672D01*
X0026244Y0123731D01*
X0026208Y0123793D01*
X0026176Y0123856D01*
X0026147Y0123921D01*
X0026122Y0123988D01*
X0026100Y0124056D01*
X0026083Y0124125D01*
X0026069Y0124194D01*
X0026059Y0124265D01*
X0026053Y0124336D01*
X0026051Y0124407D01*
X0026051Y0147163D02*
X0026053Y0147234D01*
X0026059Y0147305D01*
X0026069Y0147376D01*
X0026083Y0147445D01*
X0026100Y0147514D01*
X0026122Y0147582D01*
X0026147Y0147649D01*
X0026176Y0147714D01*
X0026208Y0147777D01*
X0026244Y0147839D01*
X0026283Y0147898D01*
X0026326Y0147955D01*
X0026371Y0148010D01*
X0026420Y0148062D01*
X0026471Y0148111D01*
X0026525Y0148157D01*
X0026582Y0148201D01*
X0026640Y0148241D01*
X0026701Y0148277D01*
X0026764Y0148311D01*
X0026829Y0148340D01*
X0026895Y0148366D01*
X0026963Y0148389D01*
X0027031Y0148407D01*
X0027101Y0148422D01*
X0027171Y0148433D01*
X0027242Y0148440D01*
X0027313Y0148443D01*
X0027384Y0148442D01*
X0027455Y0148437D01*
X0027526Y0148428D01*
X0027596Y0148415D01*
X0027665Y0148399D01*
X0027733Y0148378D01*
X0027800Y0148354D01*
X0027866Y0148326D01*
X0027929Y0148294D01*
X0027991Y0148259D01*
X0028051Y0148221D01*
X0028109Y0148179D01*
X0028164Y0148135D01*
X0028217Y0148087D01*
X0028267Y0148036D01*
X0028314Y0147983D01*
X0028358Y0147927D01*
X0028399Y0147869D01*
X0028437Y0147808D01*
X0028471Y0147746D01*
X0028501Y0147681D01*
X0028528Y0147616D01*
X0028552Y0147548D01*
X0028571Y0147480D01*
X0028587Y0147411D01*
X0028599Y0147340D01*
X0028607Y0147270D01*
X0028611Y0147199D01*
X0028611Y0147127D01*
X0028607Y0147056D01*
X0028599Y0146986D01*
X0028587Y0146915D01*
X0028571Y0146846D01*
X0028552Y0146778D01*
X0028528Y0146710D01*
X0028501Y0146645D01*
X0028471Y0146580D01*
X0028437Y0146518D01*
X0028399Y0146457D01*
X0028358Y0146399D01*
X0028314Y0146343D01*
X0028267Y0146290D01*
X0028217Y0146239D01*
X0028164Y0146191D01*
X0028109Y0146147D01*
X0028051Y0146105D01*
X0027991Y0146067D01*
X0027929Y0146032D01*
X0027866Y0146000D01*
X0027800Y0145972D01*
X0027733Y0145948D01*
X0027665Y0145927D01*
X0027596Y0145911D01*
X0027526Y0145898D01*
X0027455Y0145889D01*
X0027384Y0145884D01*
X0027313Y0145883D01*
X0027242Y0145886D01*
X0027171Y0145893D01*
X0027101Y0145904D01*
X0027031Y0145919D01*
X0026963Y0145937D01*
X0026895Y0145960D01*
X0026829Y0145986D01*
X0026764Y0146015D01*
X0026701Y0146049D01*
X0026640Y0146085D01*
X0026582Y0146125D01*
X0026525Y0146169D01*
X0026471Y0146215D01*
X0026420Y0146264D01*
X0026371Y0146316D01*
X0026326Y0146371D01*
X0026283Y0146428D01*
X0026244Y0146487D01*
X0026208Y0146549D01*
X0026176Y0146612D01*
X0026147Y0146677D01*
X0026122Y0146744D01*
X0026100Y0146812D01*
X0026083Y0146881D01*
X0026069Y0146950D01*
X0026059Y0147021D01*
X0026053Y0147092D01*
X0026051Y0147163D01*
X0006544Y0175785D02*
X0006546Y0175943D01*
X0006552Y0176101D01*
X0006562Y0176259D01*
X0006576Y0176417D01*
X0006594Y0176574D01*
X0006615Y0176731D01*
X0006641Y0176887D01*
X0006671Y0177043D01*
X0006704Y0177198D01*
X0006742Y0177351D01*
X0006783Y0177504D01*
X0006828Y0177656D01*
X0006877Y0177807D01*
X0006930Y0177956D01*
X0006986Y0178104D01*
X0007046Y0178250D01*
X0007110Y0178395D01*
X0007178Y0178538D01*
X0007249Y0178680D01*
X0007323Y0178820D01*
X0007401Y0178957D01*
X0007483Y0179093D01*
X0007567Y0179227D01*
X0007656Y0179358D01*
X0007747Y0179487D01*
X0007842Y0179614D01*
X0007939Y0179739D01*
X0008040Y0179861D01*
X0008144Y0179980D01*
X0008251Y0180097D01*
X0008361Y0180211D01*
X0008474Y0180322D01*
X0008589Y0180431D01*
X0008707Y0180536D01*
X0008828Y0180638D01*
X0008951Y0180738D01*
X0009077Y0180834D01*
X0009205Y0180927D01*
X0009335Y0181017D01*
X0009468Y0181103D01*
X0009603Y0181187D01*
X0009739Y0181266D01*
X0009878Y0181343D01*
X0010019Y0181415D01*
X0010161Y0181485D01*
X0010305Y0181550D01*
X0010451Y0181612D01*
X0010598Y0181670D01*
X0010747Y0181725D01*
X0010897Y0181776D01*
X0011048Y0181823D01*
X0011200Y0181866D01*
X0011353Y0181905D01*
X0011508Y0181941D01*
X0011663Y0181972D01*
X0011819Y0182000D01*
X0011975Y0182024D01*
X0012132Y0182044D01*
X0012290Y0182060D01*
X0012447Y0182072D01*
X0012606Y0182080D01*
X0012764Y0182084D01*
X0012922Y0182084D01*
X0013080Y0182080D01*
X0013239Y0182072D01*
X0013396Y0182060D01*
X0013554Y0182044D01*
X0013711Y0182024D01*
X0013867Y0182000D01*
X0014023Y0181972D01*
X0014178Y0181941D01*
X0014333Y0181905D01*
X0014486Y0181866D01*
X0014638Y0181823D01*
X0014789Y0181776D01*
X0014939Y0181725D01*
X0015088Y0181670D01*
X0015235Y0181612D01*
X0015381Y0181550D01*
X0015525Y0181485D01*
X0015667Y0181415D01*
X0015808Y0181343D01*
X0015947Y0181266D01*
X0016083Y0181187D01*
X0016218Y0181103D01*
X0016351Y0181017D01*
X0016481Y0180927D01*
X0016609Y0180834D01*
X0016735Y0180738D01*
X0016858Y0180638D01*
X0016979Y0180536D01*
X0017097Y0180431D01*
X0017212Y0180322D01*
X0017325Y0180211D01*
X0017435Y0180097D01*
X0017542Y0179980D01*
X0017646Y0179861D01*
X0017747Y0179739D01*
X0017844Y0179614D01*
X0017939Y0179487D01*
X0018030Y0179358D01*
X0018119Y0179227D01*
X0018203Y0179093D01*
X0018285Y0178957D01*
X0018363Y0178820D01*
X0018437Y0178680D01*
X0018508Y0178538D01*
X0018576Y0178395D01*
X0018640Y0178250D01*
X0018700Y0178104D01*
X0018756Y0177956D01*
X0018809Y0177807D01*
X0018858Y0177656D01*
X0018903Y0177504D01*
X0018944Y0177351D01*
X0018982Y0177198D01*
X0019015Y0177043D01*
X0019045Y0176887D01*
X0019071Y0176731D01*
X0019092Y0176574D01*
X0019110Y0176417D01*
X0019124Y0176259D01*
X0019134Y0176101D01*
X0019140Y0175943D01*
X0019142Y0175785D01*
X0019140Y0175627D01*
X0019134Y0175469D01*
X0019124Y0175311D01*
X0019110Y0175153D01*
X0019092Y0174996D01*
X0019071Y0174839D01*
X0019045Y0174683D01*
X0019015Y0174527D01*
X0018982Y0174372D01*
X0018944Y0174219D01*
X0018903Y0174066D01*
X0018858Y0173914D01*
X0018809Y0173763D01*
X0018756Y0173614D01*
X0018700Y0173466D01*
X0018640Y0173320D01*
X0018576Y0173175D01*
X0018508Y0173032D01*
X0018437Y0172890D01*
X0018363Y0172750D01*
X0018285Y0172613D01*
X0018203Y0172477D01*
X0018119Y0172343D01*
X0018030Y0172212D01*
X0017939Y0172083D01*
X0017844Y0171956D01*
X0017747Y0171831D01*
X0017646Y0171709D01*
X0017542Y0171590D01*
X0017435Y0171473D01*
X0017325Y0171359D01*
X0017212Y0171248D01*
X0017097Y0171139D01*
X0016979Y0171034D01*
X0016858Y0170932D01*
X0016735Y0170832D01*
X0016609Y0170736D01*
X0016481Y0170643D01*
X0016351Y0170553D01*
X0016218Y0170467D01*
X0016083Y0170383D01*
X0015947Y0170304D01*
X0015808Y0170227D01*
X0015667Y0170155D01*
X0015525Y0170085D01*
X0015381Y0170020D01*
X0015235Y0169958D01*
X0015088Y0169900D01*
X0014939Y0169845D01*
X0014789Y0169794D01*
X0014638Y0169747D01*
X0014486Y0169704D01*
X0014333Y0169665D01*
X0014178Y0169629D01*
X0014023Y0169598D01*
X0013867Y0169570D01*
X0013711Y0169546D01*
X0013554Y0169526D01*
X0013396Y0169510D01*
X0013239Y0169498D01*
X0013080Y0169490D01*
X0012922Y0169486D01*
X0012764Y0169486D01*
X0012606Y0169490D01*
X0012447Y0169498D01*
X0012290Y0169510D01*
X0012132Y0169526D01*
X0011975Y0169546D01*
X0011819Y0169570D01*
X0011663Y0169598D01*
X0011508Y0169629D01*
X0011353Y0169665D01*
X0011200Y0169704D01*
X0011048Y0169747D01*
X0010897Y0169794D01*
X0010747Y0169845D01*
X0010598Y0169900D01*
X0010451Y0169958D01*
X0010305Y0170020D01*
X0010161Y0170085D01*
X0010019Y0170155D01*
X0009878Y0170227D01*
X0009739Y0170304D01*
X0009603Y0170383D01*
X0009468Y0170467D01*
X0009335Y0170553D01*
X0009205Y0170643D01*
X0009077Y0170736D01*
X0008951Y0170832D01*
X0008828Y0170932D01*
X0008707Y0171034D01*
X0008589Y0171139D01*
X0008474Y0171248D01*
X0008361Y0171359D01*
X0008251Y0171473D01*
X0008144Y0171590D01*
X0008040Y0171709D01*
X0007939Y0171831D01*
X0007842Y0171956D01*
X0007747Y0172083D01*
X0007656Y0172212D01*
X0007567Y0172343D01*
X0007483Y0172477D01*
X0007401Y0172613D01*
X0007323Y0172750D01*
X0007249Y0172890D01*
X0007178Y0173032D01*
X0007110Y0173175D01*
X0007046Y0173320D01*
X0006986Y0173466D01*
X0006930Y0173614D01*
X0006877Y0173763D01*
X0006828Y0173914D01*
X0006783Y0174066D01*
X0006742Y0174219D01*
X0006704Y0174372D01*
X0006671Y0174527D01*
X0006641Y0174683D01*
X0006615Y0174839D01*
X0006594Y0174996D01*
X0006576Y0175153D01*
X0006562Y0175311D01*
X0006552Y0175469D01*
X0006546Y0175627D01*
X0006544Y0175785D01*
X0171544Y0175785D02*
X0171546Y0175943D01*
X0171552Y0176101D01*
X0171562Y0176259D01*
X0171576Y0176417D01*
X0171594Y0176574D01*
X0171615Y0176731D01*
X0171641Y0176887D01*
X0171671Y0177043D01*
X0171704Y0177198D01*
X0171742Y0177351D01*
X0171783Y0177504D01*
X0171828Y0177656D01*
X0171877Y0177807D01*
X0171930Y0177956D01*
X0171986Y0178104D01*
X0172046Y0178250D01*
X0172110Y0178395D01*
X0172178Y0178538D01*
X0172249Y0178680D01*
X0172323Y0178820D01*
X0172401Y0178957D01*
X0172483Y0179093D01*
X0172567Y0179227D01*
X0172656Y0179358D01*
X0172747Y0179487D01*
X0172842Y0179614D01*
X0172939Y0179739D01*
X0173040Y0179861D01*
X0173144Y0179980D01*
X0173251Y0180097D01*
X0173361Y0180211D01*
X0173474Y0180322D01*
X0173589Y0180431D01*
X0173707Y0180536D01*
X0173828Y0180638D01*
X0173951Y0180738D01*
X0174077Y0180834D01*
X0174205Y0180927D01*
X0174335Y0181017D01*
X0174468Y0181103D01*
X0174603Y0181187D01*
X0174739Y0181266D01*
X0174878Y0181343D01*
X0175019Y0181415D01*
X0175161Y0181485D01*
X0175305Y0181550D01*
X0175451Y0181612D01*
X0175598Y0181670D01*
X0175747Y0181725D01*
X0175897Y0181776D01*
X0176048Y0181823D01*
X0176200Y0181866D01*
X0176353Y0181905D01*
X0176508Y0181941D01*
X0176663Y0181972D01*
X0176819Y0182000D01*
X0176975Y0182024D01*
X0177132Y0182044D01*
X0177290Y0182060D01*
X0177447Y0182072D01*
X0177606Y0182080D01*
X0177764Y0182084D01*
X0177922Y0182084D01*
X0178080Y0182080D01*
X0178239Y0182072D01*
X0178396Y0182060D01*
X0178554Y0182044D01*
X0178711Y0182024D01*
X0178867Y0182000D01*
X0179023Y0181972D01*
X0179178Y0181941D01*
X0179333Y0181905D01*
X0179486Y0181866D01*
X0179638Y0181823D01*
X0179789Y0181776D01*
X0179939Y0181725D01*
X0180088Y0181670D01*
X0180235Y0181612D01*
X0180381Y0181550D01*
X0180525Y0181485D01*
X0180667Y0181415D01*
X0180808Y0181343D01*
X0180947Y0181266D01*
X0181083Y0181187D01*
X0181218Y0181103D01*
X0181351Y0181017D01*
X0181481Y0180927D01*
X0181609Y0180834D01*
X0181735Y0180738D01*
X0181858Y0180638D01*
X0181979Y0180536D01*
X0182097Y0180431D01*
X0182212Y0180322D01*
X0182325Y0180211D01*
X0182435Y0180097D01*
X0182542Y0179980D01*
X0182646Y0179861D01*
X0182747Y0179739D01*
X0182844Y0179614D01*
X0182939Y0179487D01*
X0183030Y0179358D01*
X0183119Y0179227D01*
X0183203Y0179093D01*
X0183285Y0178957D01*
X0183363Y0178820D01*
X0183437Y0178680D01*
X0183508Y0178538D01*
X0183576Y0178395D01*
X0183640Y0178250D01*
X0183700Y0178104D01*
X0183756Y0177956D01*
X0183809Y0177807D01*
X0183858Y0177656D01*
X0183903Y0177504D01*
X0183944Y0177351D01*
X0183982Y0177198D01*
X0184015Y0177043D01*
X0184045Y0176887D01*
X0184071Y0176731D01*
X0184092Y0176574D01*
X0184110Y0176417D01*
X0184124Y0176259D01*
X0184134Y0176101D01*
X0184140Y0175943D01*
X0184142Y0175785D01*
X0184140Y0175627D01*
X0184134Y0175469D01*
X0184124Y0175311D01*
X0184110Y0175153D01*
X0184092Y0174996D01*
X0184071Y0174839D01*
X0184045Y0174683D01*
X0184015Y0174527D01*
X0183982Y0174372D01*
X0183944Y0174219D01*
X0183903Y0174066D01*
X0183858Y0173914D01*
X0183809Y0173763D01*
X0183756Y0173614D01*
X0183700Y0173466D01*
X0183640Y0173320D01*
X0183576Y0173175D01*
X0183508Y0173032D01*
X0183437Y0172890D01*
X0183363Y0172750D01*
X0183285Y0172613D01*
X0183203Y0172477D01*
X0183119Y0172343D01*
X0183030Y0172212D01*
X0182939Y0172083D01*
X0182844Y0171956D01*
X0182747Y0171831D01*
X0182646Y0171709D01*
X0182542Y0171590D01*
X0182435Y0171473D01*
X0182325Y0171359D01*
X0182212Y0171248D01*
X0182097Y0171139D01*
X0181979Y0171034D01*
X0181858Y0170932D01*
X0181735Y0170832D01*
X0181609Y0170736D01*
X0181481Y0170643D01*
X0181351Y0170553D01*
X0181218Y0170467D01*
X0181083Y0170383D01*
X0180947Y0170304D01*
X0180808Y0170227D01*
X0180667Y0170155D01*
X0180525Y0170085D01*
X0180381Y0170020D01*
X0180235Y0169958D01*
X0180088Y0169900D01*
X0179939Y0169845D01*
X0179789Y0169794D01*
X0179638Y0169747D01*
X0179486Y0169704D01*
X0179333Y0169665D01*
X0179178Y0169629D01*
X0179023Y0169598D01*
X0178867Y0169570D01*
X0178711Y0169546D01*
X0178554Y0169526D01*
X0178396Y0169510D01*
X0178239Y0169498D01*
X0178080Y0169490D01*
X0177922Y0169486D01*
X0177764Y0169486D01*
X0177606Y0169490D01*
X0177447Y0169498D01*
X0177290Y0169510D01*
X0177132Y0169526D01*
X0176975Y0169546D01*
X0176819Y0169570D01*
X0176663Y0169598D01*
X0176508Y0169629D01*
X0176353Y0169665D01*
X0176200Y0169704D01*
X0176048Y0169747D01*
X0175897Y0169794D01*
X0175747Y0169845D01*
X0175598Y0169900D01*
X0175451Y0169958D01*
X0175305Y0170020D01*
X0175161Y0170085D01*
X0175019Y0170155D01*
X0174878Y0170227D01*
X0174739Y0170304D01*
X0174603Y0170383D01*
X0174468Y0170467D01*
X0174335Y0170553D01*
X0174205Y0170643D01*
X0174077Y0170736D01*
X0173951Y0170832D01*
X0173828Y0170932D01*
X0173707Y0171034D01*
X0173589Y0171139D01*
X0173474Y0171248D01*
X0173361Y0171359D01*
X0173251Y0171473D01*
X0173144Y0171590D01*
X0173040Y0171709D01*
X0172939Y0171831D01*
X0172842Y0171956D01*
X0172747Y0172083D01*
X0172656Y0172212D01*
X0172567Y0172343D01*
X0172483Y0172477D01*
X0172401Y0172613D01*
X0172323Y0172750D01*
X0172249Y0172890D01*
X0172178Y0173032D01*
X0172110Y0173175D01*
X0172046Y0173320D01*
X0171986Y0173466D01*
X0171930Y0173614D01*
X0171877Y0173763D01*
X0171828Y0173914D01*
X0171783Y0174066D01*
X0171742Y0174219D01*
X0171704Y0174372D01*
X0171671Y0174527D01*
X0171641Y0174683D01*
X0171615Y0174839D01*
X0171594Y0174996D01*
X0171576Y0175153D01*
X0171562Y0175311D01*
X0171552Y0175469D01*
X0171546Y0175627D01*
X0171544Y0175785D01*
X0171544Y0045785D02*
X0171546Y0045943D01*
X0171552Y0046101D01*
X0171562Y0046259D01*
X0171576Y0046417D01*
X0171594Y0046574D01*
X0171615Y0046731D01*
X0171641Y0046887D01*
X0171671Y0047043D01*
X0171704Y0047198D01*
X0171742Y0047351D01*
X0171783Y0047504D01*
X0171828Y0047656D01*
X0171877Y0047807D01*
X0171930Y0047956D01*
X0171986Y0048104D01*
X0172046Y0048250D01*
X0172110Y0048395D01*
X0172178Y0048538D01*
X0172249Y0048680D01*
X0172323Y0048820D01*
X0172401Y0048957D01*
X0172483Y0049093D01*
X0172567Y0049227D01*
X0172656Y0049358D01*
X0172747Y0049487D01*
X0172842Y0049614D01*
X0172939Y0049739D01*
X0173040Y0049861D01*
X0173144Y0049980D01*
X0173251Y0050097D01*
X0173361Y0050211D01*
X0173474Y0050322D01*
X0173589Y0050431D01*
X0173707Y0050536D01*
X0173828Y0050638D01*
X0173951Y0050738D01*
X0174077Y0050834D01*
X0174205Y0050927D01*
X0174335Y0051017D01*
X0174468Y0051103D01*
X0174603Y0051187D01*
X0174739Y0051266D01*
X0174878Y0051343D01*
X0175019Y0051415D01*
X0175161Y0051485D01*
X0175305Y0051550D01*
X0175451Y0051612D01*
X0175598Y0051670D01*
X0175747Y0051725D01*
X0175897Y0051776D01*
X0176048Y0051823D01*
X0176200Y0051866D01*
X0176353Y0051905D01*
X0176508Y0051941D01*
X0176663Y0051972D01*
X0176819Y0052000D01*
X0176975Y0052024D01*
X0177132Y0052044D01*
X0177290Y0052060D01*
X0177447Y0052072D01*
X0177606Y0052080D01*
X0177764Y0052084D01*
X0177922Y0052084D01*
X0178080Y0052080D01*
X0178239Y0052072D01*
X0178396Y0052060D01*
X0178554Y0052044D01*
X0178711Y0052024D01*
X0178867Y0052000D01*
X0179023Y0051972D01*
X0179178Y0051941D01*
X0179333Y0051905D01*
X0179486Y0051866D01*
X0179638Y0051823D01*
X0179789Y0051776D01*
X0179939Y0051725D01*
X0180088Y0051670D01*
X0180235Y0051612D01*
X0180381Y0051550D01*
X0180525Y0051485D01*
X0180667Y0051415D01*
X0180808Y0051343D01*
X0180947Y0051266D01*
X0181083Y0051187D01*
X0181218Y0051103D01*
X0181351Y0051017D01*
X0181481Y0050927D01*
X0181609Y0050834D01*
X0181735Y0050738D01*
X0181858Y0050638D01*
X0181979Y0050536D01*
X0182097Y0050431D01*
X0182212Y0050322D01*
X0182325Y0050211D01*
X0182435Y0050097D01*
X0182542Y0049980D01*
X0182646Y0049861D01*
X0182747Y0049739D01*
X0182844Y0049614D01*
X0182939Y0049487D01*
X0183030Y0049358D01*
X0183119Y0049227D01*
X0183203Y0049093D01*
X0183285Y0048957D01*
X0183363Y0048820D01*
X0183437Y0048680D01*
X0183508Y0048538D01*
X0183576Y0048395D01*
X0183640Y0048250D01*
X0183700Y0048104D01*
X0183756Y0047956D01*
X0183809Y0047807D01*
X0183858Y0047656D01*
X0183903Y0047504D01*
X0183944Y0047351D01*
X0183982Y0047198D01*
X0184015Y0047043D01*
X0184045Y0046887D01*
X0184071Y0046731D01*
X0184092Y0046574D01*
X0184110Y0046417D01*
X0184124Y0046259D01*
X0184134Y0046101D01*
X0184140Y0045943D01*
X0184142Y0045785D01*
X0184140Y0045627D01*
X0184134Y0045469D01*
X0184124Y0045311D01*
X0184110Y0045153D01*
X0184092Y0044996D01*
X0184071Y0044839D01*
X0184045Y0044683D01*
X0184015Y0044527D01*
X0183982Y0044372D01*
X0183944Y0044219D01*
X0183903Y0044066D01*
X0183858Y0043914D01*
X0183809Y0043763D01*
X0183756Y0043614D01*
X0183700Y0043466D01*
X0183640Y0043320D01*
X0183576Y0043175D01*
X0183508Y0043032D01*
X0183437Y0042890D01*
X0183363Y0042750D01*
X0183285Y0042613D01*
X0183203Y0042477D01*
X0183119Y0042343D01*
X0183030Y0042212D01*
X0182939Y0042083D01*
X0182844Y0041956D01*
X0182747Y0041831D01*
X0182646Y0041709D01*
X0182542Y0041590D01*
X0182435Y0041473D01*
X0182325Y0041359D01*
X0182212Y0041248D01*
X0182097Y0041139D01*
X0181979Y0041034D01*
X0181858Y0040932D01*
X0181735Y0040832D01*
X0181609Y0040736D01*
X0181481Y0040643D01*
X0181351Y0040553D01*
X0181218Y0040467D01*
X0181083Y0040383D01*
X0180947Y0040304D01*
X0180808Y0040227D01*
X0180667Y0040155D01*
X0180525Y0040085D01*
X0180381Y0040020D01*
X0180235Y0039958D01*
X0180088Y0039900D01*
X0179939Y0039845D01*
X0179789Y0039794D01*
X0179638Y0039747D01*
X0179486Y0039704D01*
X0179333Y0039665D01*
X0179178Y0039629D01*
X0179023Y0039598D01*
X0178867Y0039570D01*
X0178711Y0039546D01*
X0178554Y0039526D01*
X0178396Y0039510D01*
X0178239Y0039498D01*
X0178080Y0039490D01*
X0177922Y0039486D01*
X0177764Y0039486D01*
X0177606Y0039490D01*
X0177447Y0039498D01*
X0177290Y0039510D01*
X0177132Y0039526D01*
X0176975Y0039546D01*
X0176819Y0039570D01*
X0176663Y0039598D01*
X0176508Y0039629D01*
X0176353Y0039665D01*
X0176200Y0039704D01*
X0176048Y0039747D01*
X0175897Y0039794D01*
X0175747Y0039845D01*
X0175598Y0039900D01*
X0175451Y0039958D01*
X0175305Y0040020D01*
X0175161Y0040085D01*
X0175019Y0040155D01*
X0174878Y0040227D01*
X0174739Y0040304D01*
X0174603Y0040383D01*
X0174468Y0040467D01*
X0174335Y0040553D01*
X0174205Y0040643D01*
X0174077Y0040736D01*
X0173951Y0040832D01*
X0173828Y0040932D01*
X0173707Y0041034D01*
X0173589Y0041139D01*
X0173474Y0041248D01*
X0173361Y0041359D01*
X0173251Y0041473D01*
X0173144Y0041590D01*
X0173040Y0041709D01*
X0172939Y0041831D01*
X0172842Y0041956D01*
X0172747Y0042083D01*
X0172656Y0042212D01*
X0172567Y0042343D01*
X0172483Y0042477D01*
X0172401Y0042613D01*
X0172323Y0042750D01*
X0172249Y0042890D01*
X0172178Y0043032D01*
X0172110Y0043175D01*
X0172046Y0043320D01*
X0171986Y0043466D01*
X0171930Y0043614D01*
X0171877Y0043763D01*
X0171828Y0043914D01*
X0171783Y0044066D01*
X0171742Y0044219D01*
X0171704Y0044372D01*
X0171671Y0044527D01*
X0171641Y0044683D01*
X0171615Y0044839D01*
X0171594Y0044996D01*
X0171576Y0045153D01*
X0171562Y0045311D01*
X0171552Y0045469D01*
X0171546Y0045627D01*
X0171544Y0045785D01*
D11*
X0125343Y0072439D03*
X0125343Y0079132D03*
X0117843Y0079132D03*
X0117843Y0072439D03*
X0117843Y0061632D03*
X0117843Y0054939D03*
X0087843Y0054939D03*
X0087843Y0061632D03*
X0087843Y0072439D03*
X0087843Y0079132D03*
X0072843Y0102439D03*
X0072843Y0109132D03*
X0065343Y0109132D03*
X0065343Y0102439D03*
X0072843Y0129939D03*
X0072843Y0136632D03*
X0092343Y0143439D03*
X0092343Y0150132D03*
X0082843Y0172439D03*
X0082843Y0179132D03*
X0112843Y0179132D03*
X0112843Y0172439D03*
X0120343Y0154132D03*
X0120343Y0147439D03*
D12*
X0134496Y0135785D03*
X0141189Y0135785D03*
X0141189Y0128285D03*
X0134496Y0128285D03*
X0134496Y0105285D03*
X0141189Y0105285D03*
X0141189Y0097785D03*
X0134496Y0097785D03*
X0134496Y0090285D03*
X0141189Y0090285D03*
X0142689Y0065785D03*
X0149496Y0065785D03*
X0156189Y0065785D03*
X0156189Y0058285D03*
X0149496Y0058285D03*
X0142689Y0058285D03*
X0135996Y0058285D03*
X0135996Y0065785D03*
X0068689Y0068285D03*
X0061996Y0068285D03*
X0061996Y0060785D03*
X0068689Y0060785D03*
X0051189Y0060785D03*
X0044496Y0060785D03*
X0038689Y0053285D03*
X0031996Y0053285D03*
X0044496Y0080785D03*
X0051189Y0080785D03*
X0051189Y0095785D03*
X0044496Y0095785D03*
X0031189Y0090785D03*
X0024496Y0090785D03*
X0024496Y0100785D03*
X0031189Y0100785D03*
X0021189Y0110785D03*
X0014496Y0110785D03*
X0056996Y0120785D03*
X0063689Y0120785D03*
X0063689Y0130785D03*
X0056996Y0130785D03*
X0056996Y0138285D03*
X0063689Y0138285D03*
X0026189Y0160785D03*
X0019496Y0160785D03*
X0134496Y0160785D03*
X0141189Y0160785D03*
D13*
X0140343Y0043285D03*
X0150343Y0043285D03*
X0160343Y0043285D03*
X0130343Y0043285D03*
X0120343Y0043285D03*
X0110343Y0043285D03*
X0100343Y0043285D03*
X0090343Y0043285D03*
X0080343Y0043285D03*
X0070343Y0043285D03*
X0060343Y0043285D03*
X0050343Y0043285D03*
X0040343Y0043285D03*
X0030343Y0043285D03*
D14*
X0041406Y0136848D03*
X0041406Y0144722D03*
X0049280Y0136848D03*
D15*
X0048492Y0144722D03*
D16*
X0085874Y0123187D03*
X0085874Y0119643D03*
X0085874Y0116100D03*
X0085874Y0112557D03*
X0085874Y0109013D03*
X0085874Y0105470D03*
X0085874Y0101927D03*
X0085874Y0098384D03*
X0119811Y0098384D03*
X0119811Y0101927D03*
X0119811Y0105470D03*
X0119811Y0109013D03*
X0119811Y0112557D03*
X0119811Y0116100D03*
X0119811Y0119643D03*
X0119811Y0123187D03*
D17*
X0115244Y0127754D03*
X0111701Y0127754D03*
X0108157Y0127754D03*
X0104614Y0127754D03*
X0101071Y0127754D03*
X0097528Y0127754D03*
X0093984Y0127754D03*
X0090441Y0127754D03*
X0090441Y0093817D03*
X0093984Y0093817D03*
X0097528Y0093817D03*
X0101071Y0093817D03*
X0104614Y0093817D03*
X0108157Y0093817D03*
X0111701Y0093817D03*
X0115244Y0093817D03*
D18*
X0123728Y0095726D03*
X0123728Y0125844D03*
X0081957Y0125844D03*
X0081957Y0095726D03*
D19*
X0081957Y0100155D03*
X0081957Y0103699D03*
X0081957Y0107242D03*
X0081957Y0110785D03*
X0081957Y0114328D03*
X0081957Y0117872D03*
X0081957Y0121415D03*
X0092213Y0131671D03*
X0095756Y0131671D03*
X0099299Y0131671D03*
X0102843Y0131671D03*
X0106386Y0131671D03*
X0109929Y0131671D03*
X0113472Y0131671D03*
X0123728Y0121415D03*
X0123728Y0117872D03*
X0123728Y0114328D03*
X0123728Y0110785D03*
X0123728Y0107242D03*
X0123728Y0103699D03*
X0123728Y0100155D03*
X0113472Y0089899D03*
X0109929Y0089899D03*
X0106386Y0089899D03*
X0102843Y0089899D03*
X0099299Y0089899D03*
X0095756Y0089899D03*
X0092213Y0089899D03*
D20*
X0087783Y0089899D03*
X0117902Y0089899D03*
X0117902Y0131671D03*
X0087783Y0131671D03*
D21*
X0070264Y0078285D03*
X0060421Y0078285D03*
D22*
X0016189Y0081809D03*
X0009496Y0081809D03*
X0009496Y0059762D03*
X0016189Y0059762D03*
D23*
X0093512Y0172045D03*
X0093512Y0179525D03*
X0102173Y0175785D03*
X0123512Y0172045D03*
X0123512Y0179525D03*
X0132173Y0175785D03*
D24*
X0134102Y0152616D03*
X0141583Y0152616D03*
X0137843Y0143954D03*
D25*
X0107961Y0079525D03*
X0107961Y0072045D03*
X0107961Y0062025D03*
X0107961Y0054545D03*
X0097724Y0054545D03*
X0097724Y0058285D03*
X0097724Y0062025D03*
X0097724Y0072045D03*
X0097724Y0075785D03*
X0097724Y0079525D03*
X0055461Y0102045D03*
X0055461Y0109525D03*
X0045224Y0109525D03*
X0045224Y0105785D03*
X0045224Y0102045D03*
X0042724Y0074525D03*
X0042724Y0067045D03*
X0052961Y0067045D03*
X0052961Y0070785D03*
X0052961Y0074525D03*
D26*
X0104496Y0146061D03*
X0111189Y0146061D03*
X0111189Y0155510D03*
X0104496Y0155510D03*
D27*
X0084517Y0155430D02*
X0081917Y0155430D01*
X0081917Y0155982D01*
X0084517Y0155982D01*
X0084517Y0155430D01*
X0084517Y0155980D02*
X0081917Y0155980D01*
X0081917Y0153462D02*
X0084517Y0153462D01*
X0081917Y0153462D02*
X0081917Y0154014D01*
X0084517Y0154014D01*
X0084517Y0153462D01*
X0084517Y0154012D02*
X0081917Y0154012D01*
X0081917Y0151493D02*
X0084517Y0151493D01*
X0081917Y0151493D02*
X0081917Y0152045D01*
X0084517Y0152045D01*
X0084517Y0151493D01*
X0084517Y0152043D02*
X0081917Y0152043D01*
X0081917Y0149525D02*
X0084517Y0149525D01*
X0081917Y0149525D02*
X0081917Y0150077D01*
X0084517Y0150077D01*
X0084517Y0149525D01*
X0084517Y0150075D02*
X0081917Y0150075D01*
X0081917Y0147556D02*
X0084517Y0147556D01*
X0081917Y0147556D02*
X0081917Y0148108D01*
X0084517Y0148108D01*
X0084517Y0147556D01*
X0084517Y0148106D02*
X0081917Y0148106D01*
X0081917Y0145588D02*
X0084517Y0145588D01*
X0081917Y0145588D02*
X0081917Y0146140D01*
X0084517Y0146140D01*
X0084517Y0145588D01*
X0084517Y0146138D02*
X0081917Y0146138D01*
X0080540Y0144211D02*
X0080540Y0141611D01*
X0079988Y0141611D01*
X0079988Y0144211D01*
X0080540Y0144211D01*
X0080540Y0142161D02*
X0079988Y0142161D01*
X0079988Y0142711D02*
X0080540Y0142711D01*
X0080540Y0143261D02*
X0079988Y0143261D01*
X0079988Y0143811D02*
X0080540Y0143811D01*
X0078571Y0144211D02*
X0078571Y0141611D01*
X0078019Y0141611D01*
X0078019Y0144211D01*
X0078571Y0144211D01*
X0078571Y0142161D02*
X0078019Y0142161D01*
X0078019Y0142711D02*
X0078571Y0142711D01*
X0078571Y0143261D02*
X0078019Y0143261D01*
X0078019Y0143811D02*
X0078571Y0143811D01*
X0076603Y0144211D02*
X0076603Y0141611D01*
X0076051Y0141611D01*
X0076051Y0144211D01*
X0076603Y0144211D01*
X0076603Y0142161D02*
X0076051Y0142161D01*
X0076051Y0142711D02*
X0076603Y0142711D01*
X0076603Y0143261D02*
X0076051Y0143261D01*
X0076051Y0143811D02*
X0076603Y0143811D01*
X0074634Y0144211D02*
X0074634Y0141611D01*
X0074082Y0141611D01*
X0074082Y0144211D01*
X0074634Y0144211D01*
X0074634Y0142161D02*
X0074082Y0142161D01*
X0074082Y0142711D02*
X0074634Y0142711D01*
X0074634Y0143261D02*
X0074082Y0143261D01*
X0074082Y0143811D02*
X0074634Y0143811D01*
X0072666Y0144211D02*
X0072666Y0141611D01*
X0072114Y0141611D01*
X0072114Y0144211D01*
X0072666Y0144211D01*
X0072666Y0142161D02*
X0072114Y0142161D01*
X0072114Y0142711D02*
X0072666Y0142711D01*
X0072666Y0143261D02*
X0072114Y0143261D01*
X0072114Y0143811D02*
X0072666Y0143811D01*
X0070697Y0144211D02*
X0070697Y0141611D01*
X0070145Y0141611D01*
X0070145Y0144211D01*
X0070697Y0144211D01*
X0070697Y0142161D02*
X0070145Y0142161D01*
X0070145Y0142711D02*
X0070697Y0142711D01*
X0070697Y0143261D02*
X0070145Y0143261D01*
X0070145Y0143811D02*
X0070697Y0143811D01*
X0068769Y0146140D02*
X0066169Y0146140D01*
X0068769Y0146140D02*
X0068769Y0145588D01*
X0066169Y0145588D01*
X0066169Y0146140D01*
X0066169Y0146138D02*
X0068769Y0146138D01*
X0068769Y0148108D02*
X0066169Y0148108D01*
X0068769Y0148108D02*
X0068769Y0147556D01*
X0066169Y0147556D01*
X0066169Y0148108D01*
X0066169Y0148106D02*
X0068769Y0148106D01*
X0068769Y0150077D02*
X0066169Y0150077D01*
X0068769Y0150077D02*
X0068769Y0149525D01*
X0066169Y0149525D01*
X0066169Y0150077D01*
X0066169Y0150075D02*
X0068769Y0150075D01*
X0068769Y0152045D02*
X0066169Y0152045D01*
X0068769Y0152045D02*
X0068769Y0151493D01*
X0066169Y0151493D01*
X0066169Y0152045D01*
X0066169Y0152043D02*
X0068769Y0152043D01*
X0068769Y0154014D02*
X0066169Y0154014D01*
X0068769Y0154014D02*
X0068769Y0153462D01*
X0066169Y0153462D01*
X0066169Y0154014D01*
X0066169Y0154012D02*
X0068769Y0154012D01*
X0068769Y0155982D02*
X0066169Y0155982D01*
X0068769Y0155982D02*
X0068769Y0155430D01*
X0066169Y0155430D01*
X0066169Y0155982D01*
X0066169Y0155980D02*
X0068769Y0155980D01*
X0070145Y0157359D02*
X0070145Y0159959D01*
X0070697Y0159959D01*
X0070697Y0157359D01*
X0070145Y0157359D01*
X0070145Y0157909D02*
X0070697Y0157909D01*
X0070697Y0158459D02*
X0070145Y0158459D01*
X0070145Y0159009D02*
X0070697Y0159009D01*
X0070697Y0159559D02*
X0070145Y0159559D01*
X0072114Y0159959D02*
X0072114Y0157359D01*
X0072114Y0159959D02*
X0072666Y0159959D01*
X0072666Y0157359D01*
X0072114Y0157359D01*
X0072114Y0157909D02*
X0072666Y0157909D01*
X0072666Y0158459D02*
X0072114Y0158459D01*
X0072114Y0159009D02*
X0072666Y0159009D01*
X0072666Y0159559D02*
X0072114Y0159559D01*
X0074082Y0159959D02*
X0074082Y0157359D01*
X0074082Y0159959D02*
X0074634Y0159959D01*
X0074634Y0157359D01*
X0074082Y0157359D01*
X0074082Y0157909D02*
X0074634Y0157909D01*
X0074634Y0158459D02*
X0074082Y0158459D01*
X0074082Y0159009D02*
X0074634Y0159009D01*
X0074634Y0159559D02*
X0074082Y0159559D01*
X0076051Y0159959D02*
X0076051Y0157359D01*
X0076051Y0159959D02*
X0076603Y0159959D01*
X0076603Y0157359D01*
X0076051Y0157359D01*
X0076051Y0157909D02*
X0076603Y0157909D01*
X0076603Y0158459D02*
X0076051Y0158459D01*
X0076051Y0159009D02*
X0076603Y0159009D01*
X0076603Y0159559D02*
X0076051Y0159559D01*
X0078019Y0159959D02*
X0078019Y0157359D01*
X0078019Y0159959D02*
X0078571Y0159959D01*
X0078571Y0157359D01*
X0078019Y0157359D01*
X0078019Y0157909D02*
X0078571Y0157909D01*
X0078571Y0158459D02*
X0078019Y0158459D01*
X0078019Y0159009D02*
X0078571Y0159009D01*
X0078571Y0159559D02*
X0078019Y0159559D01*
X0079988Y0159959D02*
X0079988Y0157359D01*
X0079988Y0159959D02*
X0080540Y0159959D01*
X0080540Y0157359D01*
X0079988Y0157359D01*
X0079988Y0157909D02*
X0080540Y0157909D01*
X0080540Y0158459D02*
X0079988Y0158459D01*
X0079988Y0159009D02*
X0080540Y0159009D01*
X0080540Y0159559D02*
X0079988Y0159559D01*
D28*
X0075343Y0150785D03*
D29*
X0031480Y0152793D02*
X0027118Y0152793D01*
X0015024Y0152793D02*
X0010661Y0152793D01*
X0010661Y0118777D02*
X0015024Y0118777D01*
X0027118Y0118777D02*
X0031480Y0118777D01*
D30*
X0031563Y0123187D03*
X0031563Y0126336D03*
X0031563Y0145234D03*
X0031563Y0148384D03*
D31*
X0031563Y0142675D03*
X0031563Y0140706D03*
X0031563Y0138738D03*
X0031563Y0136769D03*
X0031563Y0134801D03*
X0031563Y0132832D03*
X0031563Y0130864D03*
X0031563Y0128895D03*
D32*
X0016780Y0099525D03*
X0016780Y0092045D03*
X0008512Y0095785D03*
D33*
X0008224Y0095696D02*
X0004543Y0095696D01*
X0005240Y0095498D02*
X0005240Y0094013D01*
X0005342Y0093631D01*
X0005540Y0093289D01*
X0005819Y0093010D01*
X0006161Y0092813D01*
X0006543Y0092710D01*
X0008224Y0092710D01*
X0008224Y0095498D01*
X0005240Y0095498D01*
X0005240Y0096073D02*
X0008224Y0096073D01*
X0008224Y0098860D01*
X0006543Y0098860D01*
X0006161Y0098758D01*
X0005819Y0098560D01*
X0005540Y0098281D01*
X0005342Y0097939D01*
X0005240Y0097557D01*
X0005240Y0096073D01*
X0005240Y0096694D02*
X0004543Y0096694D01*
X0004543Y0097693D02*
X0005276Y0097693D01*
X0004543Y0098691D02*
X0006046Y0098691D01*
X0004543Y0099690D02*
X0010643Y0099690D01*
X0010481Y0098860D02*
X0008799Y0098860D01*
X0008799Y0096073D01*
X0008224Y0096073D01*
X0008224Y0095498D01*
X0008799Y0095498D01*
X0008799Y0092710D01*
X0010481Y0092710D01*
X0010643Y0092754D01*
X0010643Y0088374D01*
X0013331Y0085685D01*
X0012691Y0085046D01*
X0012665Y0085092D01*
X0012386Y0085371D01*
X0012044Y0085569D01*
X0011662Y0085671D01*
X0009980Y0085671D01*
X0009980Y0082293D01*
X0009012Y0082293D01*
X0009012Y0085671D01*
X0007330Y0085671D01*
X0006949Y0085569D01*
X0006607Y0085371D01*
X0006327Y0085092D01*
X0006130Y0084750D01*
X0006028Y0084368D01*
X0006028Y0082293D01*
X0009012Y0082293D01*
X0009012Y0081324D01*
X0009980Y0081324D01*
X0009980Y0077947D01*
X0011662Y0077947D01*
X0012044Y0078049D01*
X0012386Y0078246D01*
X0012665Y0078526D01*
X0012691Y0078571D01*
X0013516Y0077747D01*
X0018862Y0077747D01*
X0019857Y0078742D01*
X0019857Y0084875D01*
X0018862Y0085871D01*
X0018543Y0085871D01*
X0018543Y0086696D01*
X0017254Y0087985D01*
X0016469Y0088770D01*
X0019255Y0088770D01*
X0020251Y0089766D01*
X0020251Y0089845D01*
X0020631Y0089845D01*
X0020631Y0088112D01*
X0021627Y0087117D01*
X0027366Y0087117D01*
X0027843Y0087594D01*
X0028319Y0087117D01*
X0029089Y0087117D01*
X0029089Y0067069D01*
X0030319Y0065839D01*
X0039404Y0056754D01*
X0035065Y0056754D01*
X0034866Y0056954D02*
X0033243Y0056954D01*
X0033243Y0060362D01*
X0032801Y0061428D01*
X0031985Y0062244D01*
X0030919Y0062685D01*
X0029766Y0062685D01*
X0028700Y0062244D01*
X0027884Y0061428D01*
X0027443Y0060362D01*
X0027443Y0054208D01*
X0027857Y0053208D01*
X0027443Y0052208D01*
X0027443Y0046431D01*
X0026719Y0045707D01*
X0026068Y0044135D01*
X0026068Y0042435D01*
X0026719Y0040864D01*
X0027921Y0039661D01*
X0029492Y0039010D01*
X0031193Y0039010D01*
X0032764Y0039661D01*
X0033967Y0040864D01*
X0034617Y0042435D01*
X0034617Y0044135D01*
X0033967Y0045707D01*
X0033243Y0046431D01*
X0033243Y0049617D01*
X0034866Y0049617D01*
X0035484Y0050235D01*
X0035603Y0050116D01*
X0035945Y0049919D01*
X0036326Y0049817D01*
X0038205Y0049817D01*
X0038205Y0052801D01*
X0039173Y0052801D01*
X0039173Y0049817D01*
X0041052Y0049817D01*
X0041433Y0049919D01*
X0041775Y0050116D01*
X0042055Y0050396D01*
X0042252Y0050738D01*
X0042354Y0051119D01*
X0042354Y0052801D01*
X0039173Y0052801D01*
X0039173Y0053769D01*
X0042354Y0053769D01*
X0042354Y0054685D01*
X0072212Y0054685D01*
X0073443Y0055915D01*
X0076443Y0058915D01*
X0076443Y0061797D01*
X0076793Y0062148D01*
X0077233Y0063210D01*
X0077233Y0064360D01*
X0076808Y0065385D01*
X0077641Y0065385D01*
X0077884Y0065142D01*
X0078700Y0064327D01*
X0079766Y0063885D01*
X0084174Y0063885D01*
X0084174Y0058762D01*
X0084792Y0058144D01*
X0084674Y0058025D01*
X0084476Y0057683D01*
X0084374Y0057302D01*
X0084374Y0055423D01*
X0087358Y0055423D01*
X0087358Y0054454D01*
X0088327Y0054454D01*
X0088327Y0051273D01*
X0090009Y0051273D01*
X0090390Y0051376D01*
X0090732Y0051573D01*
X0091011Y0051852D01*
X0091209Y0052194D01*
X0091311Y0052576D01*
X0091311Y0054454D01*
X0088327Y0054454D01*
X0088327Y0055423D01*
X0091311Y0055423D01*
X0091311Y0057302D01*
X0091209Y0057683D01*
X0091011Y0058025D01*
X0090893Y0058144D01*
X0091511Y0058762D01*
X0091511Y0059132D01*
X0094256Y0059132D01*
X0094256Y0058326D01*
X0097683Y0058326D01*
X0097683Y0058244D01*
X0094256Y0058244D01*
X0094256Y0057005D01*
X0094356Y0056632D01*
X0094056Y0056332D01*
X0094056Y0052758D01*
X0095052Y0051762D01*
X0100397Y0051762D01*
X0101080Y0052445D01*
X0101472Y0052445D01*
X0102712Y0053685D01*
X0103943Y0054915D01*
X0103943Y0061655D01*
X0102702Y0062895D01*
X0101712Y0063885D01*
X0104365Y0063885D01*
X0104292Y0063812D01*
X0104292Y0060238D01*
X0105288Y0059243D01*
X0110633Y0059243D01*
X0110916Y0059525D01*
X0114174Y0059525D01*
X0114174Y0058762D01*
X0114792Y0058144D01*
X0114674Y0058025D01*
X0114476Y0057683D01*
X0114374Y0057302D01*
X0114374Y0055423D01*
X0117358Y0055423D01*
X0117358Y0054454D01*
X0118327Y0054454D01*
X0118327Y0051273D01*
X0120009Y0051273D01*
X0120390Y0051376D01*
X0120564Y0051476D01*
X0120743Y0051297D01*
X0120743Y0051155D01*
X0118243Y0048655D01*
X0118243Y0047042D01*
X0117921Y0046909D01*
X0116719Y0045707D01*
X0116068Y0044135D01*
X0116068Y0042435D01*
X0116719Y0040864D01*
X0117921Y0039661D01*
X0119492Y0039010D01*
X0121193Y0039010D01*
X0122764Y0039661D01*
X0123967Y0040864D01*
X0124617Y0042435D01*
X0124617Y0044135D01*
X0123967Y0045707D01*
X0122764Y0046909D01*
X0122532Y0047005D01*
X0123712Y0048185D01*
X0124943Y0049415D01*
X0124943Y0051297D01*
X0125293Y0051648D01*
X0125733Y0052710D01*
X0125733Y0053532D01*
X0125892Y0053148D01*
X0126043Y0052997D01*
X0126043Y0048332D01*
X0127693Y0046682D01*
X0126719Y0045707D01*
X0126068Y0044135D01*
X0126068Y0042435D01*
X0126719Y0040864D01*
X0127921Y0039661D01*
X0129492Y0039010D01*
X0131193Y0039010D01*
X0132764Y0039661D01*
X0133967Y0040864D01*
X0134617Y0042435D01*
X0134617Y0044135D01*
X0133967Y0045707D01*
X0132764Y0046909D01*
X0132643Y0046959D01*
X0132643Y0048238D01*
X0131295Y0049585D01*
X0130643Y0050238D01*
X0130643Y0052997D01*
X0130793Y0053148D01*
X0131233Y0054210D01*
X0131233Y0055360D01*
X0131223Y0055385D01*
X0132358Y0055385D01*
X0133127Y0054617D01*
X0133255Y0054617D01*
X0132943Y0053862D01*
X0132943Y0052708D01*
X0133384Y0051642D01*
X0134200Y0050827D01*
X0135266Y0050385D01*
X0146419Y0050385D01*
X0147485Y0050827D01*
X0148301Y0051642D01*
X0151275Y0054617D01*
X0152366Y0054617D01*
X0152984Y0055235D01*
X0153103Y0055116D01*
X0153445Y0054919D01*
X0153826Y0054817D01*
X0155705Y0054817D01*
X0155705Y0057801D01*
X0156673Y0057801D01*
X0156673Y0054817D01*
X0158552Y0054817D01*
X0158933Y0054919D01*
X0159275Y0055116D01*
X0159555Y0055396D01*
X0159752Y0055738D01*
X0159854Y0056119D01*
X0159854Y0057801D01*
X0156673Y0057801D01*
X0156673Y0058769D01*
X0159854Y0058769D01*
X0159854Y0060451D01*
X0159752Y0060833D01*
X0159555Y0061175D01*
X0159275Y0061454D01*
X0158933Y0061651D01*
X0158552Y0061754D01*
X0156673Y0061754D01*
X0156673Y0058769D01*
X0155705Y0058769D01*
X0155705Y0061754D01*
X0153826Y0061754D01*
X0153445Y0061651D01*
X0153103Y0061454D01*
X0152984Y0061335D01*
X0152396Y0061923D01*
X0152396Y0062147D01*
X0152984Y0062735D01*
X0153103Y0062616D01*
X0153445Y0062419D01*
X0153826Y0062317D01*
X0155705Y0062317D01*
X0155705Y0065301D01*
X0156673Y0065301D01*
X0156673Y0062317D01*
X0158552Y0062317D01*
X0158933Y0062419D01*
X0159275Y0062616D01*
X0159555Y0062896D01*
X0159752Y0063238D01*
X0159854Y0063619D01*
X0159854Y0065301D01*
X0156673Y0065301D01*
X0156673Y0066269D01*
X0159854Y0066269D01*
X0159854Y0067951D01*
X0159752Y0068333D01*
X0159555Y0068675D01*
X0159275Y0068954D01*
X0158933Y0069151D01*
X0158552Y0069254D01*
X0156673Y0069254D01*
X0156673Y0066269D01*
X0155705Y0066269D01*
X0155705Y0069254D01*
X0155347Y0069254D01*
X0155743Y0070208D01*
X0155743Y0071362D01*
X0155301Y0072428D01*
X0154485Y0073244D01*
X0153419Y0073685D01*
X0152266Y0073685D01*
X0151200Y0073244D01*
X0150043Y0072086D01*
X0150043Y0080897D01*
X0150293Y0081148D01*
X0150733Y0082210D01*
X0150733Y0082564D01*
X0159254Y0091085D01*
X0160374Y0092205D01*
X0160374Y0074535D01*
X0161343Y0073566D01*
X0161343Y0047498D01*
X0161193Y0047560D01*
X0159492Y0047560D01*
X0157921Y0046909D01*
X0156719Y0045707D01*
X0156068Y0044135D01*
X0156068Y0042435D01*
X0156719Y0040864D01*
X0157921Y0039661D01*
X0159492Y0039010D01*
X0161193Y0039010D01*
X0161343Y0039072D01*
X0161343Y0037485D01*
X0020723Y0037485D01*
X0021729Y0038329D01*
X0023743Y0041818D01*
X0024443Y0045785D01*
X0023743Y0049753D01*
X0021729Y0053241D01*
X0021729Y0053241D01*
X0021729Y0053241D01*
X0018799Y0055699D01*
X0018862Y0055699D01*
X0019857Y0056695D01*
X0019857Y0062828D01*
X0018862Y0063824D01*
X0013516Y0063824D01*
X0012691Y0062999D01*
X0012665Y0063045D01*
X0012386Y0063324D01*
X0012044Y0063521D01*
X0011662Y0063624D01*
X0009980Y0063624D01*
X0009980Y0060246D01*
X0009012Y0060246D01*
X0009012Y0063624D01*
X0007330Y0063624D01*
X0006949Y0063521D01*
X0006607Y0063324D01*
X0006327Y0063045D01*
X0006130Y0062703D01*
X0006028Y0062321D01*
X0006028Y0060246D01*
X0009012Y0060246D01*
X0009012Y0059277D01*
X0006028Y0059277D01*
X0006028Y0057202D01*
X0006130Y0056820D01*
X0006327Y0056478D01*
X0006607Y0056199D01*
X0006949Y0056002D01*
X0007273Y0055915D01*
X0007043Y0055831D01*
X0007043Y0055831D01*
X0004543Y0053733D01*
X0004543Y0069454D01*
X0004736Y0068986D01*
X0005630Y0068092D01*
X0006797Y0067609D01*
X0008061Y0067609D01*
X0009228Y0068092D01*
X0010122Y0068986D01*
X0010605Y0070153D01*
X0010605Y0071417D01*
X0010122Y0072584D01*
X0009228Y0073478D01*
X0008061Y0073961D01*
X0006797Y0073961D01*
X0005630Y0073478D01*
X0004736Y0072584D01*
X0004543Y0072116D01*
X0004543Y0167837D01*
X0007043Y0165739D01*
X0010828Y0164361D01*
X0014857Y0164361D01*
X0018642Y0165739D01*
X0018643Y0165739D01*
X0021729Y0168329D01*
X0023743Y0171818D01*
X0024443Y0175785D01*
X0023743Y0179753D01*
X0021729Y0183241D01*
X0021729Y0183241D01*
X0021729Y0183241D01*
X0020723Y0184085D01*
X0161343Y0184085D01*
X0161343Y0147891D01*
X0160543Y0147091D01*
X0160543Y0159696D01*
X0143543Y0176696D01*
X0142254Y0177985D01*
X0136629Y0177985D01*
X0136629Y0178458D01*
X0135633Y0179454D01*
X0128713Y0179454D01*
X0127968Y0178708D01*
X0127968Y0182198D01*
X0126972Y0183194D01*
X0120052Y0183194D01*
X0119056Y0182198D01*
X0119056Y0181232D01*
X0116511Y0181232D01*
X0116511Y0182001D01*
X0115515Y0182997D01*
X0110170Y0182997D01*
X0109174Y0182001D01*
X0109174Y0177885D01*
X0108973Y0177885D01*
X0106629Y0175542D01*
X0106629Y0178458D01*
X0105633Y0179454D01*
X0104420Y0179454D01*
X0104733Y0180210D01*
X0104733Y0181360D01*
X0104293Y0182422D01*
X0103480Y0183236D01*
X0102417Y0183676D01*
X0101268Y0183676D01*
X0100205Y0183236D01*
X0099392Y0182422D01*
X0098952Y0181360D01*
X0098952Y0180210D01*
X0099265Y0179454D01*
X0098713Y0179454D01*
X0097968Y0178708D01*
X0097968Y0182198D01*
X0096972Y0183194D01*
X0090052Y0183194D01*
X0089056Y0182198D01*
X0089056Y0181232D01*
X0086511Y0181232D01*
X0086511Y0182001D01*
X0085515Y0182997D01*
X0080170Y0182997D01*
X0079174Y0182001D01*
X0079174Y0176262D01*
X0079651Y0175785D01*
X0079174Y0175308D01*
X0079174Y0170885D01*
X0075973Y0170885D01*
X0074743Y0169655D01*
X0071473Y0166385D01*
X0070243Y0165155D01*
X0070243Y0161934D01*
X0069327Y0161934D01*
X0068170Y0160777D01*
X0068170Y0157958D01*
X0065351Y0157958D01*
X0064194Y0156800D01*
X0064194Y0154612D01*
X0064429Y0154378D01*
X0064394Y0154247D01*
X0064394Y0153869D01*
X0057846Y0153869D01*
X0057480Y0154236D01*
X0056417Y0154676D01*
X0055268Y0154676D01*
X0054205Y0154236D01*
X0053392Y0153422D01*
X0052952Y0152360D01*
X0052952Y0151210D01*
X0053087Y0150885D01*
X0048109Y0150885D01*
X0048243Y0151208D01*
X0048243Y0152362D01*
X0047801Y0153428D01*
X0046985Y0154244D01*
X0045919Y0154685D01*
X0039766Y0154685D01*
X0038700Y0154244D01*
X0034984Y0150528D01*
X0034748Y0150765D01*
X0034607Y0150846D01*
X0034742Y0151049D01*
X0035020Y0151719D01*
X0035161Y0152430D01*
X0035161Y0152702D01*
X0029390Y0152702D01*
X0029390Y0152884D01*
X0029209Y0152884D01*
X0029209Y0156474D01*
X0026756Y0156474D01*
X0026044Y0156333D01*
X0025374Y0156055D01*
X0024772Y0155652D01*
X0024259Y0155140D01*
X0023856Y0154537D01*
X0023578Y0153867D01*
X0023437Y0153156D01*
X0023437Y0152884D01*
X0029209Y0152884D01*
X0029209Y0152702D01*
X0023437Y0152702D01*
X0023437Y0152430D01*
X0023578Y0151719D01*
X0023856Y0151049D01*
X0024259Y0150446D01*
X0024772Y0149934D01*
X0025374Y0149531D01*
X0025452Y0149499D01*
X0024805Y0148851D01*
X0024351Y0147756D01*
X0024351Y0146570D01*
X0024805Y0145475D01*
X0025643Y0144637D01*
X0026738Y0144184D01*
X0027599Y0144184D01*
X0027599Y0142806D01*
X0027291Y0142806D01*
X0021443Y0148655D01*
X0021443Y0157117D01*
X0022366Y0157117D01*
X0022984Y0157735D01*
X0023103Y0157616D01*
X0023445Y0157419D01*
X0023826Y0157317D01*
X0025705Y0157317D01*
X0025705Y0160301D01*
X0026673Y0160301D01*
X0026673Y0157317D01*
X0028552Y0157317D01*
X0028933Y0157419D01*
X0029275Y0157616D01*
X0029555Y0157896D01*
X0029752Y0158238D01*
X0029854Y0158619D01*
X0029854Y0160301D01*
X0026673Y0160301D01*
X0026673Y0161269D01*
X0029854Y0161269D01*
X0029854Y0162951D01*
X0029752Y0163333D01*
X0029555Y0163675D01*
X0029275Y0163954D01*
X0028933Y0164151D01*
X0028552Y0164254D01*
X0026673Y0164254D01*
X0026673Y0161269D01*
X0025705Y0161269D01*
X0025705Y0164254D01*
X0023826Y0164254D01*
X0023445Y0164151D01*
X0023103Y0163954D01*
X0022984Y0163835D01*
X0022366Y0164454D01*
X0016627Y0164454D01*
X0015631Y0163458D01*
X0015631Y0158112D01*
X0016627Y0157117D01*
X0017243Y0157117D01*
X0017243Y0155738D01*
X0016767Y0156055D01*
X0016097Y0156333D01*
X0015386Y0156474D01*
X0012933Y0156474D01*
X0012933Y0152884D01*
X0012752Y0152884D01*
X0012752Y0156474D01*
X0010299Y0156474D01*
X0009588Y0156333D01*
X0008918Y0156055D01*
X0008315Y0155652D01*
X0007802Y0155140D01*
X0007399Y0154537D01*
X0007122Y0153867D01*
X0006980Y0153156D01*
X0006980Y0152884D01*
X0012752Y0152884D01*
X0012752Y0152702D01*
X0012933Y0152702D01*
X0012933Y0149112D01*
X0015386Y0149112D01*
X0016097Y0149253D01*
X0016767Y0149531D01*
X0017243Y0149848D01*
X0017243Y0146915D01*
X0018473Y0145685D01*
X0025551Y0138606D01*
X0025643Y0138606D01*
X0025643Y0134374D01*
X0026931Y0133085D01*
X0027415Y0132601D01*
X0027599Y0132601D01*
X0027599Y0130995D01*
X0022583Y0130995D01*
X0021353Y0129765D01*
X0020473Y0128885D01*
X0020473Y0128885D01*
X0019243Y0127655D01*
X0019243Y0114454D01*
X0018319Y0114454D01*
X0017701Y0113835D01*
X0017582Y0113954D01*
X0017240Y0114151D01*
X0016859Y0114254D01*
X0014980Y0114254D01*
X0014980Y0111269D01*
X0014012Y0111269D01*
X0014012Y0114254D01*
X0012133Y0114254D01*
X0011752Y0114151D01*
X0011410Y0113954D01*
X0011130Y0113675D01*
X0010933Y0113333D01*
X0010831Y0112951D01*
X0010831Y0112331D01*
X0010793Y0112422D01*
X0009980Y0113236D01*
X0008917Y0113676D01*
X0007768Y0113676D01*
X0006705Y0113236D01*
X0005892Y0112422D01*
X0005452Y0111360D01*
X0005452Y0110210D01*
X0005892Y0109148D01*
X0006143Y0108897D01*
X0006143Y0106874D01*
X0010643Y0102374D01*
X0010643Y0098817D01*
X0010481Y0098860D01*
X0008799Y0098691D02*
X0008224Y0098691D01*
X0008224Y0097693D02*
X0008799Y0097693D01*
X0008799Y0096694D02*
X0008224Y0096694D01*
X0008224Y0094697D02*
X0008799Y0094697D01*
X0008799Y0093699D02*
X0008224Y0093699D01*
X0010643Y0092700D02*
X0004543Y0092700D01*
X0004543Y0091702D02*
X0010643Y0091702D01*
X0010643Y0090703D02*
X0004543Y0090703D01*
X0004543Y0089705D02*
X0010643Y0089705D01*
X0010643Y0088706D02*
X0004543Y0088706D01*
X0004543Y0087708D02*
X0011309Y0087708D01*
X0012307Y0086709D02*
X0004543Y0086709D01*
X0004543Y0085711D02*
X0013306Y0085711D01*
X0016343Y0085785D02*
X0016343Y0081962D01*
X0016189Y0081809D01*
X0019857Y0081717D02*
X0029089Y0081717D01*
X0029089Y0082715D02*
X0019857Y0082715D01*
X0019857Y0083714D02*
X0029089Y0083714D01*
X0029089Y0084712D02*
X0019857Y0084712D01*
X0019022Y0085711D02*
X0029089Y0085711D01*
X0029089Y0086709D02*
X0018530Y0086709D01*
X0017531Y0087708D02*
X0021035Y0087708D01*
X0020631Y0088706D02*
X0016533Y0088706D01*
X0016343Y0085785D02*
X0012843Y0089285D01*
X0012843Y0103285D01*
X0008343Y0107785D01*
X0008343Y0110785D01*
X0010545Y0112670D02*
X0010831Y0112670D01*
X0011127Y0113669D02*
X0008934Y0113669D01*
X0007751Y0113669D02*
X0004543Y0113669D01*
X0004543Y0112670D02*
X0006140Y0112670D01*
X0005581Y0111672D02*
X0004543Y0111672D01*
X0004543Y0110673D02*
X0005452Y0110673D01*
X0005674Y0109675D02*
X0004543Y0109675D01*
X0004543Y0108676D02*
X0006143Y0108676D01*
X0006143Y0107678D02*
X0004543Y0107678D01*
X0004543Y0106679D02*
X0006337Y0106679D01*
X0007335Y0105681D02*
X0004543Y0105681D01*
X0004543Y0104682D02*
X0008334Y0104682D01*
X0009332Y0103684D02*
X0004543Y0103684D01*
X0004543Y0102685D02*
X0010331Y0102685D01*
X0010643Y0101687D02*
X0004543Y0101687D01*
X0004543Y0100688D02*
X0010643Y0100688D01*
X0015043Y0102800D02*
X0015043Y0104196D01*
X0013754Y0105485D01*
X0011845Y0107394D01*
X0012133Y0107317D01*
X0014012Y0107317D01*
X0014012Y0110301D01*
X0014980Y0110301D01*
X0014980Y0107317D01*
X0016859Y0107317D01*
X0017240Y0107419D01*
X0017582Y0107616D01*
X0017701Y0107735D01*
X0018319Y0107117D01*
X0024058Y0107117D01*
X0025054Y0108112D01*
X0025054Y0113458D01*
X0024058Y0114454D01*
X0023443Y0114454D01*
X0023443Y0118387D01*
X0023578Y0117704D01*
X0023856Y0117034D01*
X0024259Y0116431D01*
X0024772Y0115918D01*
X0025374Y0115515D01*
X0026044Y0115238D01*
X0026756Y0115096D01*
X0029209Y0115096D01*
X0029209Y0118687D01*
X0029390Y0118687D01*
X0029390Y0118868D01*
X0035161Y0118868D01*
X0035161Y0119140D01*
X0035020Y0119851D01*
X0034742Y0120521D01*
X0034607Y0120724D01*
X0034748Y0120805D01*
X0035027Y0121085D01*
X0035225Y0121427D01*
X0035327Y0121808D01*
X0035327Y0123096D01*
X0031654Y0123096D01*
X0031654Y0123277D01*
X0035327Y0123277D01*
X0035327Y0123436D01*
X0049642Y0123436D01*
X0049766Y0123385D01*
X0053463Y0123385D01*
X0053433Y0123333D01*
X0053331Y0122951D01*
X0053331Y0121269D01*
X0056512Y0121269D01*
X0056512Y0120301D01*
X0053331Y0120301D01*
X0053331Y0118619D01*
X0053433Y0118238D01*
X0053630Y0117896D01*
X0053910Y0117616D01*
X0054137Y0117485D01*
X0037931Y0117485D01*
X0036643Y0116196D01*
X0028989Y0108543D01*
X0028989Y0104454D01*
X0028319Y0104454D01*
X0027843Y0103977D01*
X0027366Y0104454D01*
X0021627Y0104454D01*
X0020631Y0103458D01*
X0020631Y0101725D01*
X0020251Y0101725D01*
X0020251Y0101804D01*
X0019255Y0102800D01*
X0015043Y0102800D01*
X0015043Y0103684D02*
X0020857Y0103684D01*
X0020631Y0102685D02*
X0019370Y0102685D01*
X0016780Y0099525D02*
X0023236Y0099525D01*
X0024496Y0100785D01*
X0027843Y0097594D02*
X0028319Y0097117D01*
X0034058Y0097117D01*
X0035054Y0098112D01*
X0035054Y0103458D01*
X0034058Y0104454D01*
X0033389Y0104454D01*
X0033389Y0106720D01*
X0039754Y0113085D01*
X0069754Y0113085D01*
X0073063Y0116395D01*
X0073417Y0116395D01*
X0074480Y0116835D01*
X0075293Y0117648D01*
X0075733Y0118710D01*
X0075733Y0119860D01*
X0075293Y0120922D01*
X0074480Y0121736D01*
X0073417Y0122176D01*
X0072268Y0122176D01*
X0071205Y0121736D01*
X0070843Y0121373D01*
X0070843Y0126273D01*
X0072358Y0126273D01*
X0072358Y0129454D01*
X0073327Y0129454D01*
X0073327Y0126273D01*
X0075009Y0126273D01*
X0075390Y0126376D01*
X0075732Y0126573D01*
X0076011Y0126852D01*
X0076209Y0127194D01*
X0076311Y0127576D01*
X0076311Y0129454D01*
X0073327Y0129454D01*
X0073327Y0130423D01*
X0076311Y0130423D01*
X0076311Y0132302D01*
X0076209Y0132683D01*
X0076011Y0133025D01*
X0075893Y0133144D01*
X0076511Y0133762D01*
X0076511Y0134529D01*
X0077205Y0133835D01*
X0078268Y0133395D01*
X0079417Y0133395D01*
X0080480Y0133835D01*
X0080730Y0134085D01*
X0084631Y0134085D01*
X0084418Y0133871D01*
X0084220Y0133529D01*
X0084118Y0133148D01*
X0084118Y0131811D01*
X0087644Y0131811D01*
X0087644Y0131531D01*
X0087923Y0131531D01*
X0087923Y0130278D01*
X0087757Y0130111D01*
X0087757Y0125662D01*
X0087725Y0125671D01*
X0085874Y0125671D01*
X0084736Y0125671D01*
X0084736Y0125704D01*
X0082097Y0125704D01*
X0082097Y0125984D01*
X0084736Y0125984D01*
X0084736Y0128207D01*
X0084634Y0128589D01*
X0084437Y0128931D01*
X0084157Y0129210D01*
X0083815Y0129407D01*
X0083434Y0129510D01*
X0082096Y0129510D01*
X0082096Y0125984D01*
X0081817Y0125984D01*
X0081817Y0129510D01*
X0080480Y0129510D01*
X0080098Y0129407D01*
X0079756Y0129210D01*
X0079477Y0128931D01*
X0079279Y0128589D01*
X0079177Y0128207D01*
X0079177Y0125984D01*
X0081817Y0125984D01*
X0081817Y0125704D01*
X0082096Y0125704D01*
X0082096Y0121555D01*
X0081817Y0121555D01*
X0081817Y0122179D01*
X0081817Y0125704D01*
X0079177Y0125704D01*
X0079177Y0123481D01*
X0079256Y0123187D01*
X0079177Y0122892D01*
X0079177Y0121555D01*
X0081817Y0121555D01*
X0081817Y0121275D01*
X0082096Y0121275D01*
X0082096Y0118012D01*
X0081817Y0118012D01*
X0081817Y0118636D01*
X0081817Y0121275D01*
X0079177Y0121275D01*
X0079177Y0119938D01*
X0079256Y0119643D01*
X0079177Y0119349D01*
X0079177Y0118012D01*
X0081817Y0118012D01*
X0081817Y0117732D01*
X0082096Y0117732D01*
X0082096Y0114468D01*
X0081817Y0114468D01*
X0081817Y0114189D01*
X0079177Y0114189D01*
X0079177Y0112851D01*
X0079256Y0112557D01*
X0079177Y0112262D01*
X0079177Y0111538D01*
X0078980Y0111736D01*
X0077917Y0112176D01*
X0076768Y0112176D01*
X0076463Y0112049D01*
X0075515Y0112997D01*
X0070170Y0112997D01*
X0069174Y0112001D01*
X0069174Y0111632D01*
X0069011Y0111632D01*
X0069011Y0112001D01*
X0068015Y0112997D01*
X0062670Y0112997D01*
X0061698Y0112025D01*
X0058416Y0112025D01*
X0058133Y0112308D01*
X0052788Y0112308D01*
X0051792Y0111312D01*
X0051792Y0107738D01*
X0052788Y0106743D01*
X0058133Y0106743D01*
X0058416Y0107025D01*
X0061674Y0107025D01*
X0061674Y0106262D01*
X0062292Y0105644D01*
X0062174Y0105525D01*
X0061976Y0105183D01*
X0061874Y0104802D01*
X0061874Y0102923D01*
X0064858Y0102923D01*
X0064858Y0101954D01*
X0065827Y0101954D01*
X0065827Y0098773D01*
X0067509Y0098773D01*
X0067890Y0098876D01*
X0068232Y0099073D01*
X0068511Y0099352D01*
X0068709Y0099694D01*
X0068811Y0100076D01*
X0068811Y0101954D01*
X0065827Y0101954D01*
X0065827Y0102923D01*
X0068811Y0102923D01*
X0068811Y0104802D01*
X0068709Y0105183D01*
X0068511Y0105525D01*
X0068393Y0105644D01*
X0069011Y0106262D01*
X0069011Y0106632D01*
X0069174Y0106632D01*
X0069174Y0106262D01*
X0069792Y0105644D01*
X0069674Y0105525D01*
X0069476Y0105183D01*
X0069374Y0104802D01*
X0069374Y0102923D01*
X0072358Y0102923D01*
X0072358Y0101954D01*
X0073327Y0101954D01*
X0073327Y0098773D01*
X0075009Y0098773D01*
X0075390Y0098876D01*
X0075732Y0099073D01*
X0076011Y0099352D01*
X0076209Y0099694D01*
X0076311Y0100076D01*
X0076311Y0101954D01*
X0073327Y0101954D01*
X0073327Y0102923D01*
X0076311Y0102923D01*
X0076311Y0104802D01*
X0076209Y0105183D01*
X0076011Y0105525D01*
X0075893Y0105644D01*
X0076511Y0106262D01*
X0076511Y0106501D01*
X0076768Y0106395D01*
X0077917Y0106395D01*
X0078980Y0106835D01*
X0079177Y0107032D01*
X0079177Y0105765D01*
X0079256Y0105470D01*
X0079177Y0105176D01*
X0079177Y0103838D01*
X0081817Y0103838D01*
X0081817Y0103559D01*
X0079177Y0103559D01*
X0079177Y0102221D01*
X0079256Y0101927D01*
X0079177Y0101632D01*
X0079177Y0100295D01*
X0081817Y0100295D01*
X0081817Y0102935D01*
X0081817Y0103559D01*
X0082096Y0103559D01*
X0082096Y0100295D01*
X0081817Y0100295D01*
X0081817Y0100015D01*
X0082096Y0100015D01*
X0082096Y0095866D01*
X0081817Y0095866D01*
X0081817Y0099391D01*
X0081817Y0100015D01*
X0079177Y0100015D01*
X0079177Y0098678D01*
X0079256Y0098384D01*
X0079177Y0098089D01*
X0079177Y0095866D01*
X0081817Y0095866D01*
X0081817Y0095586D01*
X0082096Y0095586D01*
X0082096Y0092061D01*
X0083434Y0092061D01*
X0083815Y0092163D01*
X0084157Y0092360D01*
X0084437Y0092640D01*
X0084634Y0092982D01*
X0084736Y0093363D01*
X0084736Y0095586D01*
X0082097Y0095586D01*
X0082097Y0095866D01*
X0084736Y0095866D01*
X0084736Y0095899D01*
X0085874Y0095899D01*
X0085874Y0098383D01*
X0085874Y0095899D01*
X0087725Y0095899D01*
X0088041Y0095984D01*
X0087957Y0095668D01*
X0087957Y0093817D01*
X0090441Y0093817D01*
X0090441Y0093817D01*
X0090441Y0096970D01*
X0091623Y0096970D01*
X0092004Y0096868D01*
X0092213Y0096748D01*
X0092421Y0096868D01*
X0092803Y0096970D01*
X0093984Y0096970D01*
X0093984Y0093817D01*
X0093984Y0093817D01*
X0093984Y0093817D01*
X0090441Y0093817D01*
X0090441Y0096970D01*
X0089259Y0096970D01*
X0088943Y0096885D01*
X0089028Y0097202D01*
X0089028Y0098383D01*
X0085874Y0098383D01*
X0085874Y0098383D01*
X0085874Y0098384D01*
X0089028Y0098384D01*
X0089028Y0099427D01*
X0089982Y0099427D01*
X0090900Y0099807D01*
X0092537Y0101444D01*
X0093480Y0101835D01*
X0093743Y0102097D01*
X0093743Y0101273D01*
X0093392Y0100922D01*
X0092952Y0099860D01*
X0092952Y0098710D01*
X0093392Y0097648D01*
X0094070Y0096970D01*
X0093984Y0096970D01*
X0093984Y0093817D01*
X0091500Y0093817D01*
X0090441Y0093817D01*
X0090441Y0093817D01*
X0090441Y0093817D01*
X0087957Y0093817D01*
X0087957Y0092679D01*
X0087923Y0092679D01*
X0087923Y0090039D01*
X0087644Y0090039D01*
X0087644Y0092679D01*
X0085421Y0092679D01*
X0085039Y0092577D01*
X0084697Y0092379D01*
X0084418Y0092100D01*
X0084220Y0091758D01*
X0084118Y0091376D01*
X0084118Y0090039D01*
X0087644Y0090039D01*
X0087644Y0089760D01*
X0084118Y0089760D01*
X0084118Y0088422D01*
X0084220Y0088041D01*
X0084418Y0087699D01*
X0084697Y0087419D01*
X0085039Y0087222D01*
X0085421Y0087120D01*
X0087644Y0087120D01*
X0087644Y0089759D01*
X0087923Y0089759D01*
X0087923Y0087120D01*
X0090146Y0087120D01*
X0090441Y0087199D01*
X0090736Y0087120D01*
X0092073Y0087120D01*
X0092073Y0089759D01*
X0092352Y0089759D01*
X0092352Y0087120D01*
X0093690Y0087120D01*
X0093984Y0087199D01*
X0094279Y0087120D01*
X0095616Y0087120D01*
X0095616Y0089759D01*
X0095896Y0089759D01*
X0095896Y0087120D01*
X0097233Y0087120D01*
X0097528Y0087199D01*
X0097822Y0087120D01*
X0099159Y0087120D01*
X0099159Y0089759D01*
X0099439Y0089759D01*
X0099439Y0087120D01*
X0100776Y0087120D01*
X0101071Y0087199D01*
X0101366Y0087120D01*
X0102703Y0087120D01*
X0102703Y0089759D01*
X0102982Y0089759D01*
X0102982Y0087120D01*
X0104320Y0087120D01*
X0104614Y0087199D01*
X0104909Y0087120D01*
X0106246Y0087120D01*
X0106246Y0089759D01*
X0106526Y0089759D01*
X0106526Y0087120D01*
X0107863Y0087120D01*
X0108157Y0087199D01*
X0108452Y0087120D01*
X0109789Y0087120D01*
X0109789Y0089759D01*
X0110069Y0089759D01*
X0110069Y0087120D01*
X0111406Y0087120D01*
X0111701Y0087199D01*
X0111995Y0087120D01*
X0113333Y0087120D01*
X0113333Y0089759D01*
X0113612Y0089759D01*
X0113612Y0087120D01*
X0114949Y0087120D01*
X0115244Y0087199D01*
X0115539Y0087120D01*
X0117762Y0087120D01*
X0117762Y0089759D01*
X0118041Y0089759D01*
X0118041Y0087120D01*
X0120264Y0087120D01*
X0120646Y0087222D01*
X0120988Y0087419D01*
X0121267Y0087699D01*
X0121465Y0088041D01*
X0121567Y0088422D01*
X0121567Y0089760D01*
X0118041Y0089760D01*
X0118041Y0090039D01*
X0117762Y0090039D01*
X0117762Y0091292D01*
X0117928Y0091459D01*
X0117928Y0095699D01*
X0122169Y0095699D01*
X0122335Y0095866D01*
X0123588Y0095866D01*
X0123588Y0095586D01*
X0120949Y0095586D01*
X0120949Y0093363D01*
X0121051Y0092982D01*
X0121249Y0092640D01*
X0121528Y0092360D01*
X0121870Y0092163D01*
X0122251Y0092061D01*
X0123589Y0092061D01*
X0123589Y0095586D01*
X0123868Y0095586D01*
X0123868Y0092061D01*
X0125205Y0092061D01*
X0125587Y0092163D01*
X0125929Y0092360D01*
X0126208Y0092640D01*
X0126406Y0092982D01*
X0126508Y0093363D01*
X0126508Y0095586D01*
X0123868Y0095586D01*
X0123868Y0095866D01*
X0123589Y0095866D01*
X0123589Y0100015D01*
X0123868Y0100015D01*
X0123868Y0097376D01*
X0123868Y0095866D01*
X0126508Y0095866D01*
X0126508Y0098089D01*
X0126429Y0098384D01*
X0126508Y0098678D01*
X0126508Y0100015D01*
X0123868Y0100015D01*
X0123868Y0100295D01*
X0123589Y0100295D01*
X0123589Y0103559D01*
X0123868Y0103559D01*
X0123868Y0103838D01*
X0126508Y0103838D01*
X0126508Y0105176D01*
X0126429Y0105470D01*
X0126508Y0105765D01*
X0126508Y0107102D01*
X0123868Y0107102D01*
X0123868Y0104462D01*
X0123868Y0103838D01*
X0123589Y0103838D01*
X0123589Y0107102D01*
X0123868Y0107102D01*
X0123868Y0107382D01*
X0123589Y0107382D01*
X0123589Y0110645D01*
X0123868Y0110645D01*
X0123868Y0108006D01*
X0123868Y0107382D01*
X0126508Y0107382D01*
X0126508Y0108719D01*
X0126429Y0109013D01*
X0126508Y0109308D01*
X0126508Y0110645D01*
X0123868Y0110645D01*
X0123868Y0110925D01*
X0123589Y0110925D01*
X0123589Y0114189D01*
X0123868Y0114189D01*
X0123868Y0114468D01*
X0126508Y0114468D01*
X0126508Y0115805D01*
X0126429Y0116100D01*
X0126508Y0116395D01*
X0126508Y0117732D01*
X0123868Y0117732D01*
X0123868Y0115092D01*
X0123868Y0114468D01*
X0123589Y0114468D01*
X0123589Y0117732D01*
X0123868Y0117732D01*
X0123868Y0118012D01*
X0123589Y0118012D01*
X0123589Y0121275D01*
X0123868Y0121275D01*
X0123868Y0118636D01*
X0123868Y0118012D01*
X0126508Y0118012D01*
X0126508Y0119349D01*
X0126429Y0119643D01*
X0126508Y0119938D01*
X0126508Y0121275D01*
X0123868Y0121275D01*
X0123868Y0121555D01*
X0123589Y0121555D01*
X0123589Y0125704D01*
X0123868Y0125704D01*
X0123868Y0122179D01*
X0123868Y0121555D01*
X0126508Y0121555D01*
X0126508Y0122892D01*
X0126429Y0123187D01*
X0126508Y0123481D01*
X0126508Y0125704D01*
X0123868Y0125704D01*
X0123868Y0125984D01*
X0123589Y0125984D01*
X0123589Y0129510D01*
X0122251Y0129510D01*
X0121870Y0129407D01*
X0121528Y0129210D01*
X0121249Y0128931D01*
X0121051Y0128589D01*
X0120949Y0128207D01*
X0120949Y0125984D01*
X0123588Y0125984D01*
X0123588Y0125704D01*
X0122335Y0125704D01*
X0122169Y0125871D01*
X0119727Y0125871D01*
X0119712Y0125885D01*
X0117724Y0125885D01*
X0117728Y0125903D01*
X0117728Y0127754D01*
X0117728Y0128891D01*
X0117762Y0128891D01*
X0117762Y0131531D01*
X0118041Y0131531D01*
X0118041Y0128891D01*
X0120264Y0128891D01*
X0120646Y0128994D01*
X0120988Y0129191D01*
X0121267Y0129470D01*
X0121465Y0129812D01*
X0121567Y0130194D01*
X0121567Y0131531D01*
X0118041Y0131531D01*
X0118041Y0131811D01*
X0117762Y0131811D01*
X0117762Y0134450D01*
X0115539Y0134450D01*
X0115244Y0134372D01*
X0114949Y0134450D01*
X0113612Y0134450D01*
X0113612Y0131811D01*
X0113333Y0131811D01*
X0113333Y0134450D01*
X0112918Y0134450D01*
X0113233Y0135210D01*
X0113233Y0135706D01*
X0113289Y0135762D01*
X0113289Y0141408D01*
X0114255Y0141408D01*
X0115251Y0142404D01*
X0115251Y0149718D01*
X0114255Y0150713D01*
X0108123Y0150713D01*
X0107680Y0150271D01*
X0107437Y0150411D01*
X0107056Y0150513D01*
X0104996Y0150513D01*
X0104996Y0146561D01*
X0103996Y0146561D01*
X0103996Y0150513D01*
X0101936Y0150513D01*
X0101555Y0150411D01*
X0101213Y0150214D01*
X0100934Y0149934D01*
X0100736Y0149592D01*
X0100634Y0149211D01*
X0100634Y0146561D01*
X0103996Y0146561D01*
X0103996Y0145561D01*
X0100634Y0145561D01*
X0100634Y0142910D01*
X0100736Y0142529D01*
X0100934Y0142187D01*
X0101213Y0141908D01*
X0101555Y0141710D01*
X0101936Y0141608D01*
X0103996Y0141608D01*
X0103996Y0145561D01*
X0104996Y0145561D01*
X0104996Y0141608D01*
X0107056Y0141608D01*
X0107437Y0141710D01*
X0107680Y0141850D01*
X0108123Y0141408D01*
X0109089Y0141408D01*
X0109089Y0138395D01*
X0108705Y0138236D01*
X0107892Y0137422D01*
X0107452Y0136360D01*
X0107452Y0135210D01*
X0107767Y0134450D01*
X0106526Y0134450D01*
X0106526Y0131811D01*
X0107150Y0131811D01*
X0109789Y0131811D01*
X0109789Y0131531D01*
X0106526Y0131531D01*
X0106526Y0131811D01*
X0106246Y0131811D01*
X0106246Y0134450D01*
X0104909Y0134450D01*
X0104614Y0134372D01*
X0104320Y0134450D01*
X0102982Y0134450D01*
X0102982Y0131811D01*
X0102703Y0131811D01*
X0102703Y0134450D01*
X0101366Y0134450D01*
X0101071Y0134372D01*
X0100776Y0134450D01*
X0099439Y0134450D01*
X0099439Y0131811D01*
X0099159Y0131811D01*
X0099159Y0131531D01*
X0095896Y0131531D01*
X0095896Y0131811D01*
X0098535Y0131811D01*
X0099159Y0131811D01*
X0099159Y0134450D01*
X0097822Y0134450D01*
X0097528Y0134372D01*
X0097233Y0134450D01*
X0095896Y0134450D01*
X0095896Y0131811D01*
X0095616Y0131811D01*
X0095616Y0134450D01*
X0094279Y0134450D01*
X0094061Y0134392D01*
X0095043Y0135374D01*
X0099043Y0139374D01*
X0099043Y0150196D01*
X0097754Y0151485D01*
X0096907Y0152332D01*
X0096011Y0152332D01*
X0096011Y0153001D01*
X0095015Y0153997D01*
X0089670Y0153997D01*
X0088674Y0153001D01*
X0088674Y0147262D01*
X0089151Y0146785D01*
X0088674Y0146308D01*
X0088674Y0142881D01*
X0087278Y0141485D01*
X0082515Y0141485D01*
X0082515Y0143613D01*
X0085334Y0143613D01*
X0086491Y0144770D01*
X0086491Y0156800D01*
X0085334Y0157958D01*
X0082515Y0157958D01*
X0082515Y0160185D01*
X0086355Y0160185D01*
X0086705Y0159835D01*
X0087768Y0159395D01*
X0088917Y0159395D01*
X0089980Y0159835D01*
X0090793Y0160648D01*
X0091233Y0161710D01*
X0091233Y0162860D01*
X0091098Y0163185D01*
X0127155Y0163185D01*
X0126392Y0162422D01*
X0125952Y0161360D01*
X0125952Y0160210D01*
X0126392Y0159148D01*
X0127205Y0158335D01*
X0128268Y0157895D01*
X0129417Y0157895D01*
X0130480Y0158335D01*
X0130631Y0158485D01*
X0130631Y0158112D01*
X0131627Y0157117D01*
X0137366Y0157117D01*
X0137843Y0157594D01*
X0138319Y0157117D01*
X0139483Y0157117D01*
X0139483Y0157072D01*
X0138910Y0157072D01*
X0137914Y0156076D01*
X0137914Y0149156D01*
X0138660Y0148410D01*
X0136456Y0148410D01*
X0136650Y0148462D01*
X0136992Y0148660D01*
X0137271Y0148939D01*
X0137469Y0149281D01*
X0137571Y0149662D01*
X0137571Y0152132D01*
X0134587Y0152132D01*
X0134587Y0153100D01*
X0137571Y0153100D01*
X0137571Y0155569D01*
X0137469Y0155951D01*
X0137271Y0156293D01*
X0136992Y0156572D01*
X0136650Y0156770D01*
X0136268Y0156872D01*
X0134587Y0156872D01*
X0134587Y0153100D01*
X0133618Y0153100D01*
X0133618Y0152132D01*
X0130634Y0152132D01*
X0130634Y0149746D01*
X0125296Y0155084D01*
X0124011Y0156369D01*
X0124011Y0157001D01*
X0123015Y0157997D01*
X0117670Y0157997D01*
X0117482Y0157810D01*
X0115251Y0157810D01*
X0115251Y0159166D01*
X0114255Y0160162D01*
X0108123Y0160162D01*
X0107843Y0159882D01*
X0107562Y0160162D01*
X0101430Y0160162D01*
X0100434Y0159166D01*
X0100434Y0151853D01*
X0101430Y0150857D01*
X0107562Y0150857D01*
X0107843Y0151137D01*
X0108123Y0150857D01*
X0114255Y0150857D01*
X0115251Y0151853D01*
X0115251Y0153210D01*
X0116674Y0153210D01*
X0116674Y0151262D01*
X0117292Y0150644D01*
X0117174Y0150525D01*
X0116976Y0150183D01*
X0116874Y0149802D01*
X0116874Y0147923D01*
X0119858Y0147923D01*
X0119858Y0146954D01*
X0120827Y0146954D01*
X0120827Y0143773D01*
X0122509Y0143773D01*
X0122890Y0143876D01*
X0123232Y0144073D01*
X0123511Y0144352D01*
X0123709Y0144694D01*
X0123811Y0145076D01*
X0123811Y0146954D01*
X0120827Y0146954D01*
X0120827Y0147923D01*
X0123811Y0147923D01*
X0123811Y0149802D01*
X0123715Y0150160D01*
X0126043Y0147832D01*
X0126043Y0129832D01*
X0127390Y0128485D01*
X0129890Y0125985D01*
X0130631Y0125985D01*
X0130631Y0125612D01*
X0131627Y0124617D01*
X0132043Y0124617D01*
X0132043Y0123573D01*
X0131892Y0123422D01*
X0131452Y0122360D01*
X0131452Y0121210D01*
X0131892Y0120148D01*
X0132705Y0119335D01*
X0133768Y0118895D01*
X0134917Y0118895D01*
X0135980Y0119335D01*
X0136793Y0120148D01*
X0137233Y0121210D01*
X0137233Y0122360D01*
X0136793Y0123422D01*
X0136643Y0123573D01*
X0136643Y0124617D01*
X0137366Y0124617D01*
X0137843Y0125094D01*
X0138135Y0124801D01*
X0137952Y0124360D01*
X0137952Y0123210D01*
X0138392Y0122148D01*
X0139205Y0121335D01*
X0140268Y0120895D01*
X0141417Y0120895D01*
X0142480Y0121335D01*
X0143293Y0122148D01*
X0143733Y0123210D01*
X0143733Y0124360D01*
X0143627Y0124617D01*
X0144058Y0124617D01*
X0145054Y0125612D01*
X0145054Y0130958D01*
X0144058Y0131954D01*
X0143289Y0131954D01*
X0143289Y0132117D01*
X0144058Y0132117D01*
X0145054Y0133112D01*
X0145054Y0138458D01*
X0144058Y0139454D01*
X0140490Y0139454D01*
X0140445Y0139499D01*
X0140515Y0139499D01*
X0141511Y0140494D01*
X0141511Y0147414D01*
X0140766Y0148160D01*
X0144255Y0148160D01*
X0145251Y0149156D01*
X0145251Y0156076D01*
X0144255Y0157072D01*
X0143683Y0157072D01*
X0143683Y0157117D01*
X0144058Y0157117D01*
X0145054Y0158112D01*
X0145054Y0163409D01*
X0145293Y0163648D01*
X0145733Y0164710D01*
X0145733Y0165860D01*
X0145293Y0166922D01*
X0144480Y0167736D01*
X0143417Y0168176D01*
X0142268Y0168176D01*
X0141205Y0167736D01*
X0140855Y0167385D01*
X0140419Y0167385D01*
X0140753Y0168190D01*
X0140753Y0169340D01*
X0140313Y0170403D01*
X0139500Y0171216D01*
X0138437Y0171656D01*
X0137287Y0171656D01*
X0136225Y0171216D01*
X0135874Y0170865D01*
X0127968Y0170865D01*
X0127968Y0172862D01*
X0128713Y0172117D01*
X0135633Y0172117D01*
X0136629Y0173112D01*
X0136629Y0173585D01*
X0140431Y0173585D01*
X0156143Y0157874D01*
X0156143Y0094196D01*
X0147622Y0085676D01*
X0147268Y0085676D01*
X0146205Y0085236D01*
X0145443Y0084473D01*
X0145443Y0086155D01*
X0144520Y0087078D01*
X0145054Y0087612D01*
X0145054Y0087985D01*
X0145205Y0087835D01*
X0146268Y0087395D01*
X0147417Y0087395D01*
X0148480Y0087835D01*
X0149293Y0088648D01*
X0149733Y0089710D01*
X0149733Y0090206D01*
X0151712Y0092185D01*
X0152943Y0093415D01*
X0152943Y0113655D01*
X0148233Y0118364D01*
X0148233Y0118860D01*
X0147793Y0119922D01*
X0146980Y0120736D01*
X0145917Y0121176D01*
X0144768Y0121176D01*
X0143705Y0120736D01*
X0142892Y0119922D01*
X0142452Y0118860D01*
X0142452Y0117710D01*
X0142834Y0116789D01*
X0142705Y0116736D01*
X0141892Y0115922D01*
X0141452Y0114860D01*
X0141452Y0113710D01*
X0141673Y0113176D01*
X0140768Y0113176D01*
X0139705Y0112736D01*
X0138892Y0111922D01*
X0138452Y0110860D01*
X0138452Y0109710D01*
X0138765Y0108954D01*
X0138319Y0108954D01*
X0137701Y0108335D01*
X0137582Y0108454D01*
X0137240Y0108651D01*
X0136859Y0108754D01*
X0134980Y0108754D01*
X0134980Y0105769D01*
X0134012Y0105769D01*
X0134012Y0104801D01*
X0134980Y0104801D01*
X0134980Y0101817D01*
X0136859Y0101817D01*
X0137240Y0101919D01*
X0137582Y0102116D01*
X0137701Y0102235D01*
X0138319Y0101617D01*
X0144058Y0101617D01*
X0144743Y0102301D01*
X0144743Y0100770D01*
X0144058Y0101454D01*
X0138319Y0101454D01*
X0137843Y0100977D01*
X0137366Y0101454D01*
X0131627Y0101454D01*
X0130631Y0100458D01*
X0130631Y0095112D01*
X0131627Y0094117D01*
X0132296Y0094117D01*
X0132296Y0093954D01*
X0131627Y0093954D01*
X0130631Y0092958D01*
X0130631Y0090485D01*
X0127230Y0090485D01*
X0126980Y0090736D01*
X0125917Y0091176D01*
X0124768Y0091176D01*
X0123705Y0090736D01*
X0122892Y0089922D01*
X0122452Y0088860D01*
X0122452Y0087710D01*
X0122843Y0086767D01*
X0122843Y0082997D01*
X0122670Y0082997D01*
X0121705Y0082032D01*
X0121481Y0082032D01*
X0120515Y0082997D01*
X0115170Y0082997D01*
X0114598Y0082425D01*
X0107384Y0082425D01*
X0107101Y0082308D01*
X0105288Y0082308D01*
X0104292Y0081312D01*
X0104292Y0077738D01*
X0105288Y0076743D01*
X0107101Y0076743D01*
X0107384Y0076625D01*
X0114174Y0076625D01*
X0114174Y0076262D01*
X0114792Y0075644D01*
X0114674Y0075525D01*
X0114476Y0075183D01*
X0114374Y0074802D01*
X0114374Y0072923D01*
X0117358Y0072923D01*
X0117358Y0071954D01*
X0114374Y0071954D01*
X0114374Y0070076D01*
X0114476Y0069694D01*
X0114482Y0069685D01*
X0111056Y0069685D01*
X0111629Y0070258D01*
X0111629Y0073832D01*
X0110633Y0074828D01*
X0105288Y0074828D01*
X0104292Y0073832D01*
X0104292Y0070258D01*
X0104865Y0069685D01*
X0100820Y0069685D01*
X0101080Y0069945D01*
X0101472Y0069945D01*
X0102712Y0071185D01*
X0103943Y0072415D01*
X0103943Y0079155D01*
X0102702Y0080395D01*
X0101472Y0081625D01*
X0101080Y0081625D01*
X0100397Y0082308D01*
X0098584Y0082308D01*
X0098301Y0082425D01*
X0091087Y0082425D01*
X0090515Y0082997D01*
X0088732Y0082997D01*
X0083985Y0087744D01*
X0082919Y0088185D01*
X0081766Y0088185D01*
X0080700Y0087744D01*
X0079884Y0086928D01*
X0079443Y0085862D01*
X0079443Y0084708D01*
X0079884Y0083642D01*
X0084174Y0079352D01*
X0084174Y0076262D01*
X0084792Y0075644D01*
X0084674Y0075525D01*
X0084476Y0075183D01*
X0084374Y0074802D01*
X0084374Y0072923D01*
X0087358Y0072923D01*
X0087358Y0071954D01*
X0084374Y0071954D01*
X0084374Y0070076D01*
X0084476Y0069694D01*
X0084482Y0069685D01*
X0081544Y0069685D01*
X0080485Y0070744D01*
X0079419Y0071185D01*
X0072327Y0071185D01*
X0071947Y0071565D01*
X0073527Y0071565D01*
X0074523Y0072561D01*
X0074523Y0084009D01*
X0073527Y0085005D01*
X0072764Y0085005D01*
X0072764Y0087361D01*
X0072383Y0088280D01*
X0071680Y0088983D01*
X0068259Y0092405D01*
X0067340Y0092785D01*
X0054444Y0092785D01*
X0054555Y0092896D01*
X0054752Y0093238D01*
X0054854Y0093619D01*
X0054854Y0095301D01*
X0051673Y0095301D01*
X0051673Y0096269D01*
X0054854Y0096269D01*
X0054854Y0097951D01*
X0054752Y0098333D01*
X0054555Y0098675D01*
X0054275Y0098954D01*
X0053933Y0099151D01*
X0053552Y0099254D01*
X0051673Y0099254D01*
X0051673Y0096269D01*
X0050705Y0096269D01*
X0050705Y0099254D01*
X0048826Y0099254D01*
X0048445Y0099151D01*
X0048103Y0098954D01*
X0047984Y0098835D01*
X0047557Y0099262D01*
X0047897Y0099262D01*
X0048893Y0100258D01*
X0048893Y0103832D01*
X0048593Y0104132D01*
X0048693Y0104505D01*
X0048693Y0105744D01*
X0045266Y0105744D01*
X0045266Y0105826D01*
X0048693Y0105826D01*
X0048693Y0107065D01*
X0048593Y0107438D01*
X0048893Y0107738D01*
X0048893Y0111312D01*
X0047897Y0112308D01*
X0042552Y0112308D01*
X0042045Y0111802D01*
X0041667Y0111645D01*
X0039426Y0109405D01*
X0038723Y0108701D01*
X0038343Y0107782D01*
X0038343Y0098941D01*
X0038723Y0098023D01*
X0040631Y0096115D01*
X0040631Y0093112D01*
X0041627Y0092117D01*
X0043975Y0092117D01*
X0047223Y0088869D01*
X0047926Y0088166D01*
X0048845Y0087785D01*
X0065807Y0087785D01*
X0067764Y0085828D01*
X0067764Y0085005D01*
X0067001Y0085005D01*
X0066005Y0084009D01*
X0066005Y0077808D01*
X0065789Y0077287D01*
X0065789Y0071923D01*
X0065201Y0071335D01*
X0065082Y0071454D01*
X0064740Y0071651D01*
X0064359Y0071754D01*
X0063873Y0071754D01*
X0064680Y0072561D01*
X0064680Y0084009D01*
X0063684Y0085005D01*
X0057158Y0085005D01*
X0056162Y0084009D01*
X0056162Y0078127D01*
X0055460Y0077425D01*
X0053944Y0077425D01*
X0054275Y0077616D01*
X0054555Y0077896D01*
X0054752Y0078238D01*
X0054854Y0078619D01*
X0054854Y0080301D01*
X0051673Y0080301D01*
X0051673Y0077317D01*
X0052121Y0077317D01*
X0052101Y0077308D01*
X0050288Y0077308D01*
X0049292Y0076312D01*
X0049292Y0072738D01*
X0049592Y0072438D01*
X0049492Y0072065D01*
X0049492Y0070826D01*
X0052919Y0070826D01*
X0052919Y0070744D01*
X0049492Y0070744D01*
X0049492Y0069505D01*
X0049589Y0069145D01*
X0048453Y0069145D01*
X0045626Y0071972D01*
X0046393Y0072738D01*
X0046393Y0076312D01*
X0045624Y0077081D01*
X0045624Y0077117D01*
X0047366Y0077117D01*
X0047984Y0077735D01*
X0048103Y0077616D01*
X0048445Y0077419D01*
X0048826Y0077317D01*
X0050705Y0077317D01*
X0050705Y0080301D01*
X0051673Y0080301D01*
X0051673Y0081269D01*
X0054854Y0081269D01*
X0054854Y0082951D01*
X0054752Y0083333D01*
X0054555Y0083675D01*
X0054275Y0083954D01*
X0053933Y0084151D01*
X0053552Y0084254D01*
X0051673Y0084254D01*
X0051673Y0081269D01*
X0050705Y0081269D01*
X0050705Y0084254D01*
X0048826Y0084254D01*
X0048445Y0084151D01*
X0048103Y0083954D01*
X0047984Y0083835D01*
X0047396Y0084423D01*
X0047396Y0086208D01*
X0046955Y0087274D01*
X0043485Y0090744D01*
X0042419Y0091185D01*
X0041266Y0091185D01*
X0040200Y0090744D01*
X0039384Y0089928D01*
X0038943Y0088862D01*
X0038943Y0087708D01*
X0034650Y0087708D01*
X0035054Y0088112D02*
X0035054Y0093458D01*
X0034058Y0094454D01*
X0028319Y0094454D01*
X0027843Y0093977D01*
X0027366Y0094454D01*
X0021627Y0094454D01*
X0021418Y0094245D01*
X0020251Y0094245D01*
X0020251Y0094324D01*
X0019255Y0095320D01*
X0015043Y0095320D01*
X0015043Y0096250D01*
X0019255Y0096250D01*
X0020251Y0097246D01*
X0020251Y0097325D01*
X0021418Y0097325D01*
X0021627Y0097117D01*
X0027366Y0097117D01*
X0027843Y0097594D01*
X0031189Y0100785D02*
X0031189Y0107632D01*
X0038843Y0115285D01*
X0068843Y0115285D01*
X0072843Y0119285D01*
X0074069Y0116665D02*
X0079177Y0116665D01*
X0079177Y0116395D02*
X0079256Y0116100D01*
X0079177Y0115805D01*
X0079177Y0114468D01*
X0081817Y0114468D01*
X0081817Y0117108D01*
X0081817Y0117732D01*
X0079177Y0117732D01*
X0079177Y0116395D01*
X0079177Y0115666D02*
X0072335Y0115666D01*
X0071336Y0114668D02*
X0079177Y0114668D01*
X0079177Y0113669D02*
X0070338Y0113669D01*
X0069843Y0112670D02*
X0068342Y0112670D01*
X0069011Y0111672D02*
X0069174Y0111672D01*
X0069755Y0105681D02*
X0068430Y0105681D01*
X0068811Y0104682D02*
X0069374Y0104682D01*
X0069374Y0103684D02*
X0068811Y0103684D01*
X0069374Y0101954D02*
X0069374Y0100076D01*
X0069476Y0099694D01*
X0069674Y0099352D01*
X0069953Y0099073D01*
X0070295Y0098876D01*
X0070677Y0098773D01*
X0072358Y0098773D01*
X0072358Y0101954D01*
X0069374Y0101954D01*
X0069374Y0101687D02*
X0068811Y0101687D01*
X0068811Y0100688D02*
X0069374Y0100688D01*
X0069479Y0099690D02*
X0068706Y0099690D01*
X0065827Y0099690D02*
X0064858Y0099690D01*
X0064858Y0098773D02*
X0063177Y0098773D01*
X0062795Y0098876D01*
X0062453Y0099073D01*
X0062174Y0099352D01*
X0061976Y0099694D01*
X0061874Y0100076D01*
X0061874Y0101954D01*
X0064858Y0101954D01*
X0064858Y0098773D01*
X0064858Y0100688D02*
X0065827Y0100688D01*
X0065827Y0101687D02*
X0064858Y0101687D01*
X0064858Y0102685D02*
X0059129Y0102685D01*
X0059129Y0101687D02*
X0061874Y0101687D01*
X0061874Y0100688D02*
X0059129Y0100688D01*
X0059129Y0100258D02*
X0058133Y0099262D01*
X0052788Y0099262D01*
X0051792Y0100258D01*
X0051792Y0103832D01*
X0052788Y0104828D01*
X0058133Y0104828D01*
X0059129Y0103832D01*
X0059129Y0100258D01*
X0058561Y0099690D02*
X0061979Y0099690D01*
X0061874Y0103684D02*
X0059129Y0103684D01*
X0058279Y0104682D02*
X0061874Y0104682D01*
X0062255Y0105681D02*
X0048693Y0105681D01*
X0048343Y0105681D02*
X0043843Y0105681D01*
X0043843Y0105285D02*
X0047343Y0105285D01*
X0048343Y0104285D01*
X0048343Y0107285D01*
X0047343Y0106285D01*
X0043843Y0106285D01*
X0043843Y0105285D01*
X0047737Y0106679D02*
X0048343Y0106679D01*
X0048693Y0106679D02*
X0061674Y0106679D01*
X0065827Y0102685D02*
X0072358Y0102685D01*
X0073327Y0102685D02*
X0079177Y0102685D01*
X0079192Y0101687D02*
X0076311Y0101687D01*
X0076311Y0100688D02*
X0079177Y0100688D01*
X0079177Y0099690D02*
X0076206Y0099690D01*
X0079177Y0098691D02*
X0054538Y0098691D01*
X0054854Y0097693D02*
X0079177Y0097693D01*
X0079177Y0096694D02*
X0054854Y0096694D01*
X0054854Y0094697D02*
X0079177Y0094697D01*
X0079177Y0095586D02*
X0079177Y0093363D01*
X0079279Y0092982D01*
X0079477Y0092640D01*
X0079756Y0092360D01*
X0080098Y0092163D01*
X0080480Y0092061D01*
X0081817Y0092061D01*
X0081817Y0095586D01*
X0079177Y0095586D01*
X0079177Y0093699D02*
X0054854Y0093699D01*
X0051673Y0095696D02*
X0081817Y0095696D01*
X0082097Y0095696D02*
X0087964Y0095696D01*
X0087957Y0094697D02*
X0084736Y0094697D01*
X0084736Y0093699D02*
X0087957Y0093699D01*
X0087957Y0092700D02*
X0084471Y0092700D01*
X0084205Y0091702D02*
X0068961Y0091702D01*
X0069960Y0090703D02*
X0084118Y0090703D01*
X0084118Y0089705D02*
X0070958Y0089705D01*
X0071957Y0088706D02*
X0084118Y0088706D01*
X0084021Y0087708D02*
X0084413Y0087708D01*
X0085020Y0086709D02*
X0122843Y0086709D01*
X0122843Y0085711D02*
X0086018Y0085711D01*
X0087017Y0084712D02*
X0122843Y0084712D01*
X0122843Y0083714D02*
X0088015Y0083714D01*
X0090797Y0082715D02*
X0114888Y0082715D01*
X0113612Y0087708D02*
X0113333Y0087708D01*
X0113333Y0088706D02*
X0113612Y0088706D01*
X0113612Y0089705D02*
X0113333Y0089705D01*
X0113333Y0089760D02*
X0112709Y0089760D01*
X0110069Y0089760D01*
X0110069Y0090039D01*
X0113333Y0090039D01*
X0113333Y0089760D01*
X0113612Y0089760D02*
X0113612Y0090039D01*
X0117762Y0090039D01*
X0117762Y0089760D01*
X0114236Y0089760D01*
X0113612Y0089760D01*
X0110069Y0089705D02*
X0109789Y0089705D01*
X0109789Y0089760D02*
X0107150Y0089760D01*
X0106526Y0089760D01*
X0106526Y0090039D01*
X0109789Y0090039D01*
X0109789Y0089760D01*
X0109789Y0088706D02*
X0110069Y0088706D01*
X0110069Y0087708D02*
X0109789Y0087708D01*
X0106526Y0087708D02*
X0106246Y0087708D01*
X0106246Y0088706D02*
X0106526Y0088706D01*
X0106526Y0089705D02*
X0106246Y0089705D01*
X0106246Y0089760D02*
X0103606Y0089760D01*
X0102982Y0089760D01*
X0102982Y0090039D01*
X0106246Y0090039D01*
X0106246Y0089760D01*
X0102982Y0089705D02*
X0102703Y0089705D01*
X0102703Y0089760D02*
X0100063Y0089760D01*
X0099439Y0089760D01*
X0099439Y0090039D01*
X0102703Y0090039D01*
X0102703Y0089760D01*
X0102703Y0088706D02*
X0102982Y0088706D01*
X0102982Y0087708D02*
X0102703Y0087708D01*
X0099439Y0087708D02*
X0099159Y0087708D01*
X0099159Y0088706D02*
X0099439Y0088706D01*
X0099439Y0089705D02*
X0099159Y0089705D01*
X0099159Y0089760D02*
X0096520Y0089760D01*
X0095896Y0089760D01*
X0095896Y0090039D01*
X0099159Y0090039D01*
X0099159Y0089760D01*
X0095896Y0089705D02*
X0095616Y0089705D01*
X0095616Y0089760D02*
X0092976Y0089760D01*
X0092352Y0089760D01*
X0092352Y0090039D01*
X0095616Y0090039D01*
X0095616Y0089760D01*
X0095616Y0088706D02*
X0095896Y0088706D01*
X0095896Y0087708D02*
X0095616Y0087708D01*
X0092352Y0087708D02*
X0092073Y0087708D01*
X0092073Y0088706D02*
X0092352Y0088706D01*
X0092352Y0089705D02*
X0092073Y0089705D01*
X0092073Y0089760D02*
X0089433Y0089760D01*
X0087923Y0089760D01*
X0087923Y0090039D01*
X0092073Y0090039D01*
X0092073Y0089760D01*
X0087923Y0089705D02*
X0087644Y0089705D01*
X0087644Y0090703D02*
X0087923Y0090703D01*
X0087923Y0091702D02*
X0087644Y0091702D01*
X0087644Y0088706D02*
X0087923Y0088706D01*
X0087923Y0087708D02*
X0087644Y0087708D01*
X0082096Y0092700D02*
X0081817Y0092700D01*
X0081817Y0093699D02*
X0082096Y0093699D01*
X0082096Y0094697D02*
X0081817Y0094697D01*
X0081817Y0096694D02*
X0082096Y0096694D01*
X0082096Y0097693D02*
X0081817Y0097693D01*
X0081817Y0098691D02*
X0082096Y0098691D01*
X0082096Y0099690D02*
X0081817Y0099690D01*
X0081817Y0100688D02*
X0082096Y0100688D01*
X0082096Y0101687D02*
X0081817Y0101687D01*
X0081817Y0102685D02*
X0082096Y0102685D01*
X0081817Y0103684D02*
X0076311Y0103684D01*
X0076311Y0104682D02*
X0079177Y0104682D01*
X0079200Y0105681D02*
X0075930Y0105681D01*
X0078605Y0106679D02*
X0079177Y0106679D01*
X0081817Y0106679D02*
X0082096Y0106679D01*
X0081817Y0106478D02*
X0081817Y0103838D01*
X0082096Y0103838D01*
X0082096Y0107102D01*
X0081817Y0107102D01*
X0081817Y0106478D01*
X0081817Y0105681D02*
X0082096Y0105681D01*
X0082096Y0104682D02*
X0081817Y0104682D01*
X0081817Y0107382D02*
X0081817Y0110021D01*
X0081817Y0110645D01*
X0082096Y0110645D01*
X0082096Y0107382D01*
X0081817Y0107382D01*
X0081817Y0107678D02*
X0082096Y0107678D01*
X0082096Y0108676D02*
X0081817Y0108676D01*
X0081817Y0109675D02*
X0082096Y0109675D01*
X0082096Y0110925D02*
X0081817Y0110925D01*
X0081817Y0113565D01*
X0081817Y0114189D01*
X0082096Y0114189D01*
X0082096Y0110925D01*
X0082096Y0111672D02*
X0081817Y0111672D01*
X0081817Y0112670D02*
X0082096Y0112670D01*
X0082096Y0113669D02*
X0081817Y0113669D01*
X0081817Y0114668D02*
X0082096Y0114668D01*
X0082096Y0115666D02*
X0081817Y0115666D01*
X0081817Y0116665D02*
X0082096Y0116665D01*
X0082096Y0117663D02*
X0081817Y0117663D01*
X0081817Y0118662D02*
X0082096Y0118662D01*
X0082096Y0119660D02*
X0081817Y0119660D01*
X0081817Y0120659D02*
X0082096Y0120659D01*
X0082096Y0121657D02*
X0081817Y0121657D01*
X0081817Y0122656D02*
X0082096Y0122656D01*
X0082096Y0123654D02*
X0081817Y0123654D01*
X0081817Y0124653D02*
X0082096Y0124653D01*
X0082096Y0125651D02*
X0081817Y0125651D01*
X0081817Y0126650D02*
X0082096Y0126650D01*
X0082096Y0127648D02*
X0081817Y0127648D01*
X0081817Y0128647D02*
X0082096Y0128647D01*
X0084220Y0129812D02*
X0084418Y0129470D01*
X0084697Y0129191D01*
X0085039Y0128994D01*
X0085421Y0128891D01*
X0087644Y0128891D01*
X0087644Y0131531D01*
X0084118Y0131531D01*
X0084118Y0130194D01*
X0084220Y0129812D01*
X0084317Y0129645D02*
X0073327Y0129645D01*
X0073327Y0128647D02*
X0072358Y0128647D01*
X0072358Y0127648D02*
X0073327Y0127648D01*
X0073327Y0126650D02*
X0072358Y0126650D01*
X0070843Y0125651D02*
X0079177Y0125651D01*
X0079177Y0124653D02*
X0070843Y0124653D01*
X0070843Y0123654D02*
X0079177Y0123654D01*
X0079177Y0122656D02*
X0070843Y0122656D01*
X0070843Y0121657D02*
X0071127Y0121657D01*
X0074558Y0121657D02*
X0079177Y0121657D01*
X0079177Y0120659D02*
X0075402Y0120659D01*
X0075733Y0119660D02*
X0079252Y0119660D01*
X0079177Y0118662D02*
X0075713Y0118662D01*
X0075299Y0117663D02*
X0079177Y0117663D01*
X0079226Y0112670D02*
X0075842Y0112670D01*
X0079044Y0111672D02*
X0079177Y0111672D01*
X0085874Y0105470D02*
X0089028Y0105470D01*
X0085874Y0105470D01*
X0085874Y0105470D01*
X0089028Y0106652D02*
X0088928Y0107025D01*
X0089228Y0107325D01*
X0089228Y0110702D01*
X0089144Y0110785D01*
X0089228Y0110868D01*
X0089228Y0114245D01*
X0089144Y0114328D01*
X0089228Y0114412D01*
X0089228Y0116430D01*
X0093743Y0111915D01*
X0093743Y0106473D01*
X0093480Y0106736D01*
X0092417Y0107176D01*
X0091268Y0107176D01*
X0090205Y0106736D01*
X0089392Y0105922D01*
X0089028Y0105043D01*
X0089028Y0105470D01*
X0089028Y0106652D01*
X0089020Y0106679D02*
X0090149Y0106679D01*
X0089292Y0105681D02*
X0089028Y0105681D01*
X0089228Y0107678D02*
X0093743Y0107678D01*
X0093743Y0108676D02*
X0089228Y0108676D01*
X0089228Y0109675D02*
X0093743Y0109675D01*
X0093743Y0110673D02*
X0089228Y0110673D01*
X0089228Y0111672D02*
X0093743Y0111672D01*
X0092987Y0112670D02*
X0089228Y0112670D01*
X0089228Y0113669D02*
X0091989Y0113669D01*
X0090990Y0114668D02*
X0089228Y0114668D01*
X0089228Y0115666D02*
X0089992Y0115666D01*
X0092936Y0118662D02*
X0095743Y0118662D01*
X0095743Y0119655D02*
X0095743Y0115855D01*
X0091084Y0120513D01*
X0089854Y0121743D01*
X0088957Y0121743D01*
X0089028Y0122005D01*
X0089028Y0123187D01*
X0089028Y0124368D01*
X0089019Y0124400D01*
X0092129Y0124400D01*
X0092213Y0124483D01*
X0092296Y0124400D01*
X0095673Y0124400D01*
X0095973Y0124700D01*
X0096346Y0124600D01*
X0097527Y0124600D01*
X0097527Y0127753D01*
X0097528Y0127753D01*
X0097528Y0124600D01*
X0098709Y0124600D01*
X0099082Y0124700D01*
X0099382Y0124400D01*
X0102759Y0124400D01*
X0102843Y0124483D01*
X0102926Y0124400D01*
X0106303Y0124400D01*
X0106603Y0124700D01*
X0106976Y0124600D01*
X0107551Y0124600D01*
X0107452Y0124360D01*
X0107452Y0123954D01*
X0106917Y0124176D01*
X0105768Y0124176D01*
X0104705Y0123736D01*
X0104355Y0123385D01*
X0099473Y0123385D01*
X0098243Y0122155D01*
X0095743Y0119655D01*
X0095748Y0119660D02*
X0091937Y0119660D01*
X0090939Y0120659D02*
X0096746Y0120659D01*
X0097745Y0121657D02*
X0089940Y0121657D01*
X0089028Y0122656D02*
X0098743Y0122656D01*
X0098905Y0124653D02*
X0099130Y0124653D01*
X0097528Y0124653D02*
X0097527Y0124653D01*
X0097527Y0125651D02*
X0097528Y0125651D01*
X0097527Y0126650D02*
X0097528Y0126650D01*
X0097527Y0127648D02*
X0097528Y0127648D01*
X0096150Y0124653D02*
X0095925Y0124653D01*
X0089028Y0123654D02*
X0104624Y0123654D01*
X0106555Y0124653D02*
X0106780Y0124653D01*
X0104355Y0119185D02*
X0101212Y0119185D01*
X0099943Y0117915D01*
X0099943Y0117834D01*
X0100768Y0118176D01*
X0101917Y0118176D01*
X0102980Y0117736D01*
X0103793Y0116922D01*
X0104233Y0115860D01*
X0104233Y0114710D01*
X0103793Y0113648D01*
X0103443Y0113297D01*
X0103443Y0106655D01*
X0106714Y0103383D01*
X0106714Y0100946D01*
X0107268Y0101176D01*
X0108417Y0101176D01*
X0109480Y0100736D01*
X0110293Y0099922D01*
X0110733Y0098860D01*
X0110733Y0097710D01*
X0110415Y0096942D01*
X0110519Y0096970D01*
X0111701Y0096970D01*
X0111701Y0093817D01*
X0111701Y0093817D01*
X0111701Y0096970D01*
X0112758Y0096970D01*
X0112452Y0097710D01*
X0112452Y0097923D01*
X0108390Y0101985D01*
X0107043Y0103332D01*
X0107043Y0118238D01*
X0107399Y0118594D01*
X0106917Y0118395D01*
X0105768Y0118395D01*
X0104705Y0118835D01*
X0104355Y0119185D01*
X0105123Y0118662D02*
X0100689Y0118662D01*
X0103052Y0117663D02*
X0107043Y0117663D01*
X0107043Y0116665D02*
X0103900Y0116665D01*
X0104233Y0115666D02*
X0107043Y0115666D01*
X0107043Y0114668D02*
X0104215Y0114668D01*
X0103802Y0113669D02*
X0107043Y0113669D01*
X0107043Y0112670D02*
X0103443Y0112670D01*
X0103443Y0111672D02*
X0107043Y0111672D01*
X0107043Y0110673D02*
X0103443Y0110673D01*
X0103443Y0109675D02*
X0107043Y0109675D01*
X0107043Y0108676D02*
X0103443Y0108676D01*
X0103443Y0107678D02*
X0107043Y0107678D01*
X0107043Y0106679D02*
X0103443Y0106679D01*
X0104417Y0105681D02*
X0107043Y0105681D01*
X0107043Y0104682D02*
X0105415Y0104682D01*
X0106414Y0103684D02*
X0107043Y0103684D01*
X0106714Y0102685D02*
X0107690Y0102685D01*
X0106714Y0101687D02*
X0108688Y0101687D01*
X0109527Y0100688D02*
X0109687Y0100688D01*
X0110389Y0099690D02*
X0110685Y0099690D01*
X0110733Y0098691D02*
X0111684Y0098691D01*
X0112459Y0097693D02*
X0110726Y0097693D01*
X0111701Y0096694D02*
X0111701Y0096694D01*
X0111701Y0095696D02*
X0111701Y0095696D01*
X0111701Y0094697D02*
X0111701Y0094697D01*
X0117928Y0094697D02*
X0120949Y0094697D01*
X0120949Y0093699D02*
X0117928Y0093699D01*
X0117928Y0092700D02*
X0121214Y0092700D01*
X0120988Y0092379D02*
X0121267Y0092100D01*
X0121465Y0091758D01*
X0121567Y0091376D01*
X0121567Y0090039D01*
X0118041Y0090039D01*
X0118041Y0092679D01*
X0120264Y0092679D01*
X0120646Y0092577D01*
X0120988Y0092379D01*
X0121480Y0091702D02*
X0130631Y0091702D01*
X0130631Y0092700D02*
X0126243Y0092700D01*
X0126508Y0093699D02*
X0131372Y0093699D01*
X0131046Y0094697D02*
X0126508Y0094697D01*
X0126508Y0096694D02*
X0130631Y0096694D01*
X0130631Y0095696D02*
X0123868Y0095696D01*
X0123588Y0095696D02*
X0117928Y0095696D01*
X0116657Y0100869D02*
X0115917Y0101176D01*
X0115705Y0101176D01*
X0111643Y0105238D01*
X0111643Y0109653D01*
X0112268Y0109395D01*
X0113417Y0109395D01*
X0114480Y0109835D01*
X0114830Y0110185D01*
X0116657Y0110185D01*
X0116657Y0109014D01*
X0119811Y0109014D01*
X0119811Y0109013D01*
X0116657Y0109013D01*
X0116657Y0108076D01*
X0116417Y0108176D01*
X0115268Y0108176D01*
X0114205Y0107736D01*
X0113392Y0106922D01*
X0112952Y0105860D01*
X0112952Y0104710D01*
X0113392Y0103648D01*
X0114205Y0102835D01*
X0115268Y0102395D01*
X0116417Y0102395D01*
X0116657Y0102494D01*
X0116657Y0101927D01*
X0119811Y0101927D01*
X0119811Y0101927D01*
X0116657Y0101927D01*
X0116657Y0100869D01*
X0116657Y0101687D02*
X0115193Y0101687D01*
X0114565Y0102685D02*
X0114195Y0102685D01*
X0113377Y0103684D02*
X0113196Y0103684D01*
X0112963Y0104682D02*
X0112198Y0104682D01*
X0111643Y0105681D02*
X0112952Y0105681D01*
X0113291Y0106679D02*
X0111643Y0106679D01*
X0111643Y0107678D02*
X0114147Y0107678D01*
X0114094Y0109675D02*
X0116657Y0109675D01*
X0116657Y0108676D02*
X0111643Y0108676D01*
X0123589Y0108676D02*
X0123868Y0108676D01*
X0123868Y0107678D02*
X0123589Y0107678D01*
X0123589Y0106679D02*
X0123868Y0106679D01*
X0123868Y0105681D02*
X0123589Y0105681D01*
X0123589Y0104682D02*
X0123868Y0104682D01*
X0123868Y0103684D02*
X0130831Y0103684D01*
X0130831Y0103119D02*
X0130933Y0102738D01*
X0131130Y0102396D01*
X0131410Y0102116D01*
X0131752Y0101919D01*
X0132133Y0101817D01*
X0134012Y0101817D01*
X0134012Y0104801D01*
X0130831Y0104801D01*
X0130831Y0103119D01*
X0130963Y0102685D02*
X0126508Y0102685D01*
X0126508Y0102221D02*
X0126508Y0103559D01*
X0123868Y0103559D01*
X0123868Y0100919D01*
X0123868Y0100295D01*
X0126508Y0100295D01*
X0126508Y0101632D01*
X0126429Y0101927D01*
X0126508Y0102221D01*
X0126493Y0101687D02*
X0138249Y0101687D01*
X0134980Y0102685D02*
X0134012Y0102685D01*
X0134012Y0103684D02*
X0134980Y0103684D01*
X0134980Y0104682D02*
X0134012Y0104682D01*
X0134012Y0105681D02*
X0126485Y0105681D01*
X0126508Y0106679D02*
X0130831Y0106679D01*
X0130831Y0107451D02*
X0130831Y0105769D01*
X0134012Y0105769D01*
X0134012Y0108754D01*
X0132133Y0108754D01*
X0131752Y0108651D01*
X0131410Y0108454D01*
X0131130Y0108175D01*
X0130933Y0107833D01*
X0130831Y0107451D01*
X0130891Y0107678D02*
X0126508Y0107678D01*
X0126508Y0108676D02*
X0131845Y0108676D01*
X0134012Y0108676D02*
X0134980Y0108676D01*
X0134980Y0107678D02*
X0134012Y0107678D01*
X0134012Y0106679D02*
X0134980Y0106679D01*
X0137147Y0108676D02*
X0138042Y0108676D01*
X0138467Y0109675D02*
X0126508Y0109675D01*
X0126508Y0110925D02*
X0123868Y0110925D01*
X0123868Y0113565D01*
X0123868Y0114189D01*
X0126508Y0114189D01*
X0126508Y0112851D01*
X0126429Y0112557D01*
X0126508Y0112262D01*
X0126508Y0110925D01*
X0126508Y0111672D02*
X0138788Y0111672D01*
X0138452Y0110673D02*
X0123868Y0110673D01*
X0123868Y0109675D02*
X0123589Y0109675D01*
X0123589Y0111672D02*
X0123868Y0111672D01*
X0123868Y0112670D02*
X0123589Y0112670D01*
X0123589Y0113669D02*
X0123868Y0113669D01*
X0123868Y0114668D02*
X0123589Y0114668D01*
X0123589Y0115666D02*
X0123868Y0115666D01*
X0123868Y0116665D02*
X0123589Y0116665D01*
X0123589Y0117663D02*
X0123868Y0117663D01*
X0123868Y0118662D02*
X0123589Y0118662D01*
X0123589Y0119660D02*
X0123868Y0119660D01*
X0123868Y0120659D02*
X0123589Y0120659D01*
X0123589Y0121657D02*
X0123868Y0121657D01*
X0123868Y0122656D02*
X0123589Y0122656D01*
X0123589Y0123654D02*
X0123868Y0123654D01*
X0123868Y0124653D02*
X0123589Y0124653D01*
X0123589Y0125651D02*
X0123868Y0125651D01*
X0123868Y0125984D02*
X0126508Y0125984D01*
X0126508Y0128207D01*
X0126406Y0128589D01*
X0126208Y0128931D01*
X0125929Y0129210D01*
X0125587Y0129407D01*
X0125205Y0129510D01*
X0123868Y0129510D01*
X0123868Y0125984D01*
X0123868Y0126650D02*
X0123589Y0126650D01*
X0123589Y0127648D02*
X0123868Y0127648D01*
X0123868Y0128647D02*
X0123589Y0128647D01*
X0121368Y0129645D02*
X0126230Y0129645D01*
X0126372Y0128647D02*
X0127228Y0128647D01*
X0126508Y0127648D02*
X0128227Y0127648D01*
X0129225Y0126650D02*
X0126508Y0126650D01*
X0126508Y0125651D02*
X0130631Y0125651D01*
X0131591Y0124653D02*
X0126508Y0124653D01*
X0126508Y0123654D02*
X0132043Y0123654D01*
X0131574Y0122656D02*
X0126508Y0122656D01*
X0126508Y0121657D02*
X0131452Y0121657D01*
X0131680Y0120659D02*
X0126508Y0120659D01*
X0126433Y0119660D02*
X0132380Y0119660D01*
X0136305Y0119660D02*
X0142783Y0119660D01*
X0142452Y0118662D02*
X0126508Y0118662D01*
X0126508Y0117663D02*
X0142471Y0117663D01*
X0142634Y0116665D02*
X0126508Y0116665D01*
X0126508Y0115666D02*
X0141786Y0115666D01*
X0141452Y0114668D02*
X0126508Y0114668D01*
X0126508Y0113669D02*
X0141469Y0113669D01*
X0139640Y0112670D02*
X0126459Y0112670D01*
X0126508Y0104682D02*
X0130831Y0104682D01*
X0130861Y0100688D02*
X0126508Y0100688D01*
X0126508Y0099690D02*
X0130631Y0099690D01*
X0130631Y0098691D02*
X0126508Y0098691D01*
X0126508Y0097693D02*
X0130631Y0097693D01*
X0134496Y0097785D02*
X0134496Y0090285D01*
X0132343Y0088285D01*
X0125343Y0088285D01*
X0127012Y0090703D02*
X0130631Y0090703D01*
X0133785Y0086617D02*
X0136041Y0086617D01*
X0137243Y0085415D01*
X0137243Y0072273D01*
X0136892Y0071922D01*
X0136452Y0070860D01*
X0136452Y0069710D01*
X0136641Y0069254D01*
X0136480Y0069254D01*
X0136480Y0066269D01*
X0135512Y0066269D01*
X0135512Y0069254D01*
X0134343Y0069254D01*
X0134343Y0078750D01*
X0134962Y0079369D01*
X0135343Y0080288D01*
X0135343Y0081267D01*
X0135733Y0082210D01*
X0135733Y0083360D01*
X0135293Y0084422D01*
X0134480Y0085236D01*
X0133417Y0085676D01*
X0132268Y0085676D01*
X0131205Y0085236D01*
X0130392Y0084422D01*
X0129952Y0083360D01*
X0129952Y0082210D01*
X0130180Y0081659D01*
X0129723Y0081201D01*
X0129564Y0080817D01*
X0129011Y0081369D01*
X0129011Y0082001D01*
X0128015Y0082997D01*
X0127843Y0082997D01*
X0127843Y0086085D01*
X0132302Y0086085D01*
X0133172Y0086053D01*
X0133207Y0086085D01*
X0133254Y0086085D01*
X0133785Y0086617D01*
X0135003Y0084712D02*
X0137243Y0084712D01*
X0137243Y0083714D02*
X0135587Y0083714D01*
X0135733Y0082715D02*
X0137243Y0082715D01*
X0137243Y0081717D02*
X0135529Y0081717D01*
X0135343Y0080718D02*
X0137243Y0080718D01*
X0137243Y0079720D02*
X0135107Y0079720D01*
X0134343Y0078721D02*
X0137243Y0078721D01*
X0137243Y0077723D02*
X0134343Y0077723D01*
X0134343Y0076724D02*
X0137243Y0076724D01*
X0137243Y0075726D02*
X0134343Y0075726D01*
X0134343Y0074727D02*
X0137243Y0074727D01*
X0137243Y0073729D02*
X0134343Y0073729D01*
X0134343Y0072730D02*
X0137243Y0072730D01*
X0136813Y0071732D02*
X0134343Y0071732D01*
X0134343Y0070733D02*
X0136452Y0070733D01*
X0136452Y0069735D02*
X0134343Y0069735D01*
X0135512Y0068736D02*
X0136480Y0068736D01*
X0136480Y0067737D02*
X0135512Y0067737D01*
X0135512Y0066739D02*
X0136480Y0066739D01*
X0136480Y0065301D02*
X0135512Y0065301D01*
X0135512Y0062317D01*
X0133910Y0062317D01*
X0133547Y0061954D01*
X0138866Y0061954D01*
X0139343Y0061477D01*
X0139819Y0061954D01*
X0140489Y0061954D01*
X0140489Y0062117D01*
X0139819Y0062117D01*
X0139201Y0062735D01*
X0139082Y0062616D01*
X0138740Y0062419D01*
X0138359Y0062317D01*
X0136480Y0062317D01*
X0136480Y0065301D01*
X0136480Y0064742D02*
X0135512Y0064742D01*
X0135512Y0063743D02*
X0136480Y0063743D01*
X0136480Y0062745D02*
X0135512Y0062745D01*
X0139073Y0061746D02*
X0139612Y0061746D01*
X0142689Y0058285D02*
X0142689Y0065785D01*
X0147843Y0070939D01*
X0147843Y0082785D01*
X0158343Y0093285D01*
X0158343Y0158785D01*
X0141343Y0175785D01*
X0132173Y0175785D01*
X0128249Y0172581D02*
X0127968Y0172581D01*
X0127968Y0171583D02*
X0137110Y0171583D01*
X0136098Y0172581D02*
X0141435Y0172581D01*
X0140437Y0173580D02*
X0136629Y0173580D01*
X0138614Y0171583D02*
X0142434Y0171583D01*
X0143432Y0170584D02*
X0140131Y0170584D01*
X0140651Y0169586D02*
X0144431Y0169586D01*
X0145429Y0168587D02*
X0140753Y0168587D01*
X0140503Y0167589D02*
X0141058Y0167589D01*
X0144627Y0167589D02*
X0146428Y0167589D01*
X0145431Y0166590D02*
X0147426Y0166590D01*
X0148425Y0165592D02*
X0145733Y0165592D01*
X0145685Y0164593D02*
X0149423Y0164593D01*
X0150422Y0163595D02*
X0145240Y0163595D01*
X0145054Y0162596D02*
X0151420Y0162596D01*
X0152419Y0161598D02*
X0145054Y0161598D01*
X0145054Y0160599D02*
X0153417Y0160599D01*
X0154416Y0159601D02*
X0145054Y0159601D01*
X0145054Y0158602D02*
X0155414Y0158602D01*
X0156143Y0157604D02*
X0144545Y0157604D01*
X0144722Y0156605D02*
X0156143Y0156605D01*
X0156143Y0155606D02*
X0145251Y0155606D01*
X0145251Y0154608D02*
X0156143Y0154608D01*
X0156143Y0153609D02*
X0145251Y0153609D01*
X0145251Y0152611D02*
X0156143Y0152611D01*
X0156143Y0151612D02*
X0145251Y0151612D01*
X0145251Y0150614D02*
X0156143Y0150614D01*
X0156143Y0149615D02*
X0145251Y0149615D01*
X0144712Y0148617D02*
X0156143Y0148617D01*
X0156143Y0147618D02*
X0141307Y0147618D01*
X0141511Y0146620D02*
X0156143Y0146620D01*
X0156143Y0145621D02*
X0141511Y0145621D01*
X0141511Y0144623D02*
X0156143Y0144623D01*
X0156143Y0143624D02*
X0141511Y0143624D01*
X0141511Y0142626D02*
X0156143Y0142626D01*
X0156143Y0141627D02*
X0141511Y0141627D01*
X0141511Y0140629D02*
X0156143Y0140629D01*
X0156143Y0139630D02*
X0140647Y0139630D01*
X0144880Y0138632D02*
X0156143Y0138632D01*
X0156143Y0137633D02*
X0145054Y0137633D01*
X0145054Y0136635D02*
X0156143Y0136635D01*
X0156143Y0135636D02*
X0145054Y0135636D01*
X0145054Y0134638D02*
X0156143Y0134638D01*
X0156143Y0133639D02*
X0145054Y0133639D01*
X0144583Y0132641D02*
X0156143Y0132641D01*
X0156143Y0131642D02*
X0144370Y0131642D01*
X0145054Y0130644D02*
X0156143Y0130644D01*
X0156143Y0129645D02*
X0145054Y0129645D01*
X0145054Y0128647D02*
X0156143Y0128647D01*
X0156143Y0127648D02*
X0145054Y0127648D01*
X0145054Y0126650D02*
X0156143Y0126650D01*
X0156143Y0125651D02*
X0145054Y0125651D01*
X0144095Y0124653D02*
X0156143Y0124653D01*
X0156143Y0123654D02*
X0143733Y0123654D01*
X0143503Y0122656D02*
X0156143Y0122656D01*
X0156143Y0121657D02*
X0142802Y0121657D01*
X0143628Y0120659D02*
X0137005Y0120659D01*
X0137233Y0121657D02*
X0138883Y0121657D01*
X0138182Y0122656D02*
X0137111Y0122656D01*
X0136643Y0123654D02*
X0137952Y0123654D01*
X0138073Y0124653D02*
X0137402Y0124653D01*
X0137843Y0131477D02*
X0137366Y0131954D01*
X0131627Y0131954D01*
X0131027Y0131354D01*
X0130643Y0131738D01*
X0130643Y0149630D01*
X0130736Y0149281D01*
X0130934Y0148939D01*
X0131213Y0148660D01*
X0131555Y0148462D01*
X0131936Y0148360D01*
X0133618Y0148360D01*
X0133618Y0152131D01*
X0134587Y0152131D01*
X0134587Y0148360D01*
X0135119Y0148360D01*
X0134174Y0147414D01*
X0134174Y0140494D01*
X0135170Y0139499D01*
X0135743Y0139499D01*
X0135743Y0139254D01*
X0134980Y0139254D01*
X0134980Y0136269D01*
X0134012Y0136269D01*
X0134012Y0135301D01*
X0134980Y0135301D01*
X0134980Y0132317D01*
X0136859Y0132317D01*
X0137240Y0132419D01*
X0137582Y0132616D01*
X0137701Y0132735D01*
X0138319Y0132117D01*
X0139089Y0132117D01*
X0139089Y0131954D01*
X0138319Y0131954D01*
X0137843Y0131477D01*
X0138008Y0131642D02*
X0137677Y0131642D01*
X0137607Y0132641D02*
X0137795Y0132641D01*
X0134980Y0132641D02*
X0134012Y0132641D01*
X0134012Y0132317D02*
X0132133Y0132317D01*
X0131752Y0132419D01*
X0131410Y0132616D01*
X0131130Y0132896D01*
X0130933Y0133238D01*
X0130831Y0133619D01*
X0130831Y0135301D01*
X0134012Y0135301D01*
X0134012Y0132317D01*
X0134012Y0133639D02*
X0134980Y0133639D01*
X0134980Y0134638D02*
X0134012Y0134638D01*
X0134012Y0135636D02*
X0130643Y0135636D01*
X0130831Y0136269D02*
X0134012Y0136269D01*
X0134012Y0139254D01*
X0132133Y0139254D01*
X0131752Y0139151D01*
X0131410Y0138954D01*
X0131130Y0138675D01*
X0130933Y0138333D01*
X0130831Y0137951D01*
X0130831Y0136269D01*
X0130831Y0136635D02*
X0130643Y0136635D01*
X0130643Y0137633D02*
X0130831Y0137633D01*
X0130643Y0138632D02*
X0131106Y0138632D01*
X0130643Y0139630D02*
X0135038Y0139630D01*
X0134980Y0138632D02*
X0134012Y0138632D01*
X0134012Y0137633D02*
X0134980Y0137633D01*
X0134980Y0136635D02*
X0134012Y0136635D01*
X0130831Y0134638D02*
X0130643Y0134638D01*
X0130643Y0133639D02*
X0130831Y0133639D01*
X0130643Y0132641D02*
X0131385Y0132641D01*
X0131315Y0131642D02*
X0130738Y0131642D01*
X0126043Y0131642D02*
X0118041Y0131642D01*
X0118041Y0131811D02*
X0121567Y0131811D01*
X0121567Y0133148D01*
X0121465Y0133529D01*
X0121267Y0133871D01*
X0120988Y0134151D01*
X0120646Y0134348D01*
X0120264Y0134450D01*
X0118041Y0134450D01*
X0118041Y0131811D01*
X0117762Y0131811D02*
X0117762Y0131531D01*
X0113612Y0131531D01*
X0113612Y0131811D01*
X0116252Y0131811D01*
X0117762Y0131811D01*
X0117762Y0131642D02*
X0113612Y0131642D01*
X0113333Y0131642D02*
X0110069Y0131642D01*
X0110069Y0131531D02*
X0110069Y0131811D01*
X0112709Y0131811D01*
X0113333Y0131811D01*
X0113333Y0131531D01*
X0110069Y0131531D01*
X0109789Y0131642D02*
X0106526Y0131642D01*
X0106246Y0131642D02*
X0102982Y0131642D01*
X0102982Y0131531D02*
X0102982Y0131811D01*
X0103606Y0131811D01*
X0106246Y0131811D01*
X0106246Y0131531D01*
X0102982Y0131531D01*
X0102703Y0131531D02*
X0099439Y0131531D01*
X0099439Y0131811D01*
X0102079Y0131811D01*
X0102703Y0131811D01*
X0102703Y0131531D01*
X0102703Y0131642D02*
X0099439Y0131642D01*
X0099159Y0131642D02*
X0095896Y0131642D01*
X0095616Y0131642D02*
X0092352Y0131642D01*
X0092352Y0131531D02*
X0092352Y0131811D01*
X0094992Y0131811D01*
X0095616Y0131811D01*
X0095616Y0131531D01*
X0092352Y0131531D01*
X0092073Y0131531D02*
X0087923Y0131531D01*
X0087923Y0131811D01*
X0091449Y0131811D01*
X0092073Y0131811D01*
X0092073Y0131531D01*
X0092073Y0131642D02*
X0087923Y0131642D01*
X0087644Y0131642D02*
X0076311Y0131642D01*
X0076311Y0130644D02*
X0084118Y0130644D01*
X0084118Y0132641D02*
X0076220Y0132641D01*
X0076388Y0133639D02*
X0077677Y0133639D01*
X0080008Y0133639D02*
X0084284Y0133639D01*
X0087644Y0130644D02*
X0087923Y0130644D01*
X0087757Y0129645D02*
X0087644Y0129645D01*
X0087757Y0128647D02*
X0084600Y0128647D01*
X0084736Y0127648D02*
X0087757Y0127648D01*
X0087757Y0126650D02*
X0084736Y0126650D01*
X0085874Y0125671D02*
X0085874Y0123187D01*
X0085874Y0123187D01*
X0085874Y0125671D01*
X0085874Y0125651D02*
X0085874Y0125651D01*
X0085874Y0124653D02*
X0085874Y0124653D01*
X0085874Y0123654D02*
X0085874Y0123654D01*
X0085874Y0123187D02*
X0089028Y0123187D01*
X0085874Y0123187D01*
X0085874Y0123187D01*
X0079177Y0126650D02*
X0075809Y0126650D01*
X0076311Y0127648D02*
X0079177Y0127648D01*
X0079313Y0128647D02*
X0076311Y0128647D01*
X0078843Y0136285D02*
X0092843Y0136285D01*
X0096843Y0140285D01*
X0096843Y0149285D01*
X0095996Y0150132D01*
X0092343Y0150132D01*
X0088674Y0150614D02*
X0086491Y0150614D01*
X0086491Y0151612D02*
X0088674Y0151612D01*
X0088674Y0152611D02*
X0086491Y0152611D01*
X0086491Y0153609D02*
X0089282Y0153609D01*
X0086491Y0154608D02*
X0100434Y0154608D01*
X0100434Y0155606D02*
X0086491Y0155606D01*
X0086491Y0156605D02*
X0100434Y0156605D01*
X0100434Y0157604D02*
X0085688Y0157604D01*
X0087270Y0159601D02*
X0082515Y0159601D01*
X0082515Y0158602D02*
X0100434Y0158602D01*
X0100868Y0159601D02*
X0089415Y0159601D01*
X0090744Y0160599D02*
X0125952Y0160599D01*
X0126050Y0161598D02*
X0091186Y0161598D01*
X0091233Y0162596D02*
X0126566Y0162596D01*
X0126204Y0159601D02*
X0114817Y0159601D01*
X0115251Y0158602D02*
X0126938Y0158602D01*
X0124011Y0156605D02*
X0131270Y0156605D01*
X0131213Y0156572D02*
X0130934Y0156293D01*
X0130736Y0155951D01*
X0130634Y0155569D01*
X0130634Y0153100D01*
X0133618Y0153100D01*
X0133618Y0156872D01*
X0131936Y0156872D01*
X0131555Y0156770D01*
X0131213Y0156572D01*
X0131140Y0157604D02*
X0123409Y0157604D01*
X0124774Y0155606D02*
X0130644Y0155606D01*
X0130634Y0154608D02*
X0125772Y0154608D01*
X0126771Y0153609D02*
X0130634Y0153609D01*
X0133618Y0153609D02*
X0134587Y0153609D01*
X0134587Y0152611D02*
X0137914Y0152611D01*
X0137914Y0153609D02*
X0137571Y0153609D01*
X0137571Y0154608D02*
X0137914Y0154608D01*
X0137914Y0155606D02*
X0137561Y0155606D01*
X0136935Y0156605D02*
X0138443Y0156605D01*
X0134587Y0156605D02*
X0133618Y0156605D01*
X0133618Y0155606D02*
X0134587Y0155606D01*
X0134587Y0154608D02*
X0133618Y0154608D01*
X0133618Y0152611D02*
X0127769Y0152611D01*
X0128768Y0151612D02*
X0130634Y0151612D01*
X0130634Y0150614D02*
X0129766Y0150614D01*
X0130643Y0149615D02*
X0130646Y0149615D01*
X0130643Y0148617D02*
X0131287Y0148617D01*
X0130643Y0147618D02*
X0134378Y0147618D01*
X0134174Y0146620D02*
X0130643Y0146620D01*
X0130643Y0145621D02*
X0134174Y0145621D01*
X0134174Y0144623D02*
X0130643Y0144623D01*
X0130643Y0143624D02*
X0134174Y0143624D01*
X0134174Y0142626D02*
X0130643Y0142626D01*
X0130643Y0141627D02*
X0134174Y0141627D01*
X0134174Y0140629D02*
X0130643Y0140629D01*
X0126043Y0140629D02*
X0113289Y0140629D01*
X0113289Y0139630D02*
X0126043Y0139630D01*
X0126043Y0138632D02*
X0113289Y0138632D01*
X0113289Y0137633D02*
X0126043Y0137633D01*
X0126043Y0136635D02*
X0113289Y0136635D01*
X0113233Y0135636D02*
X0126043Y0135636D01*
X0126043Y0134638D02*
X0112996Y0134638D01*
X0113333Y0133639D02*
X0113612Y0133639D01*
X0113612Y0132641D02*
X0113333Y0132641D01*
X0115244Y0127754D02*
X0117728Y0127754D01*
X0115244Y0127754D01*
X0115244Y0127754D01*
X0117728Y0127648D02*
X0120949Y0127648D01*
X0120949Y0126650D02*
X0117728Y0126650D01*
X0117728Y0128647D02*
X0121085Y0128647D01*
X0121567Y0130644D02*
X0126043Y0130644D01*
X0126043Y0132641D02*
X0121567Y0132641D01*
X0121401Y0133639D02*
X0126043Y0133639D01*
X0126043Y0141627D02*
X0114475Y0141627D01*
X0115251Y0142626D02*
X0126043Y0142626D01*
X0126043Y0143624D02*
X0115251Y0143624D01*
X0115251Y0144623D02*
X0117017Y0144623D01*
X0116976Y0144694D02*
X0117174Y0144352D01*
X0117453Y0144073D01*
X0117795Y0143876D01*
X0118177Y0143773D01*
X0119858Y0143773D01*
X0119858Y0146954D01*
X0116874Y0146954D01*
X0116874Y0145076D01*
X0116976Y0144694D01*
X0116874Y0145621D02*
X0115251Y0145621D01*
X0115251Y0146620D02*
X0116874Y0146620D01*
X0115251Y0147618D02*
X0119858Y0147618D01*
X0120827Y0147618D02*
X0126043Y0147618D01*
X0126043Y0146620D02*
X0123811Y0146620D01*
X0123811Y0145621D02*
X0126043Y0145621D01*
X0126043Y0144623D02*
X0123668Y0144623D01*
X0120827Y0144623D02*
X0119858Y0144623D01*
X0119858Y0145621D02*
X0120827Y0145621D01*
X0120827Y0146620D02*
X0119858Y0146620D01*
X0116874Y0148617D02*
X0115251Y0148617D01*
X0115251Y0149615D02*
X0116874Y0149615D01*
X0117263Y0150614D02*
X0114355Y0150614D01*
X0115011Y0151612D02*
X0116674Y0151612D01*
X0116674Y0152611D02*
X0115251Y0152611D01*
X0108023Y0150614D02*
X0098625Y0150614D01*
X0099043Y0149615D02*
X0100749Y0149615D01*
X0100634Y0148617D02*
X0099043Y0148617D01*
X0099043Y0147618D02*
X0100634Y0147618D01*
X0100634Y0146620D02*
X0099043Y0146620D01*
X0099043Y0145621D02*
X0103996Y0145621D01*
X0103996Y0144623D02*
X0104996Y0144623D01*
X0104996Y0143624D02*
X0103996Y0143624D01*
X0103996Y0142626D02*
X0104996Y0142626D01*
X0104996Y0141627D02*
X0103996Y0141627D01*
X0101864Y0141627D02*
X0099043Y0141627D01*
X0099043Y0140629D02*
X0109089Y0140629D01*
X0109089Y0139630D02*
X0099043Y0139630D01*
X0098300Y0138632D02*
X0109089Y0138632D01*
X0108103Y0137633D02*
X0097302Y0137633D01*
X0096303Y0136635D02*
X0107566Y0136635D01*
X0107452Y0135636D02*
X0095305Y0135636D01*
X0094306Y0134638D02*
X0107689Y0134638D01*
X0106526Y0133639D02*
X0106246Y0133639D01*
X0106246Y0132641D02*
X0106526Y0132641D01*
X0102982Y0132641D02*
X0102703Y0132641D01*
X0102703Y0133639D02*
X0102982Y0133639D01*
X0099439Y0133639D02*
X0099159Y0133639D01*
X0099159Y0132641D02*
X0099439Y0132641D01*
X0095896Y0132641D02*
X0095616Y0132641D01*
X0095616Y0133639D02*
X0095896Y0133639D01*
X0088189Y0139285D02*
X0092343Y0143439D01*
X0088674Y0143624D02*
X0085346Y0143624D01*
X0086344Y0144623D02*
X0088674Y0144623D01*
X0088674Y0145621D02*
X0086491Y0145621D01*
X0086491Y0146620D02*
X0088986Y0146620D01*
X0088674Y0147618D02*
X0086491Y0147618D01*
X0086491Y0148617D02*
X0088674Y0148617D01*
X0088674Y0149615D02*
X0086491Y0149615D01*
X0088418Y0142626D02*
X0082515Y0142626D01*
X0082515Y0141627D02*
X0087420Y0141627D01*
X0088189Y0139285D02*
X0076343Y0139285D01*
X0074358Y0141269D01*
X0074358Y0142911D01*
X0072390Y0142911D02*
X0072390Y0140832D01*
X0071843Y0140285D01*
X0071343Y0140285D01*
X0070421Y0141206D01*
X0070421Y0142911D01*
X0067469Y0145864D02*
X0063921Y0145864D01*
X0063843Y0145785D01*
X0060843Y0145785D01*
X0058915Y0143624D02*
X0057943Y0143624D01*
X0057943Y0143797D02*
X0058293Y0144148D01*
X0058343Y0144267D01*
X0058392Y0144148D01*
X0059205Y0143335D01*
X0060268Y0142895D01*
X0061417Y0142895D01*
X0061543Y0142946D01*
X0061543Y0141954D01*
X0060819Y0141954D01*
X0060201Y0141335D01*
X0060082Y0141454D01*
X0059740Y0141651D01*
X0059359Y0141754D01*
X0057480Y0141754D01*
X0057480Y0138769D01*
X0056512Y0138769D01*
X0056512Y0137801D01*
X0057480Y0137801D01*
X0057480Y0134817D01*
X0059359Y0134817D01*
X0059740Y0134919D01*
X0060082Y0135116D01*
X0060201Y0135235D01*
X0060819Y0134617D01*
X0061189Y0134617D01*
X0061189Y0134454D01*
X0060819Y0134454D01*
X0060201Y0133835D01*
X0060082Y0133954D01*
X0059740Y0134151D01*
X0059359Y0134254D01*
X0057480Y0134254D01*
X0057480Y0131269D01*
X0056512Y0131269D01*
X0056512Y0130301D01*
X0053331Y0130301D01*
X0053331Y0129185D01*
X0050992Y0129185D01*
X0050868Y0129236D01*
X0035527Y0129236D01*
X0035527Y0130632D01*
X0035801Y0130632D01*
X0036254Y0131085D01*
X0037543Y0132374D01*
X0037543Y0134569D01*
X0038131Y0134569D01*
X0038131Y0134372D01*
X0039127Y0133376D01*
X0043684Y0133376D01*
X0044680Y0134372D01*
X0044680Y0135248D01*
X0045275Y0135248D01*
X0046005Y0135977D01*
X0046005Y0134372D01*
X0047001Y0133376D01*
X0047443Y0133376D01*
X0047443Y0132208D01*
X0047884Y0131142D01*
X0048700Y0130327D01*
X0049766Y0129885D01*
X0050919Y0129885D01*
X0051985Y0130327D01*
X0052801Y0131142D01*
X0053243Y0132208D01*
X0053243Y0136362D01*
X0052801Y0137428D01*
X0052554Y0137675D01*
X0052554Y0137685D01*
X0052712Y0137685D01*
X0053797Y0138769D01*
X0056512Y0138769D01*
X0056512Y0141485D01*
X0056712Y0141685D01*
X0057943Y0142915D01*
X0057943Y0143797D01*
X0057653Y0142626D02*
X0061543Y0142626D01*
X0060493Y0141627D02*
X0059782Y0141627D01*
X0057480Y0141627D02*
X0056655Y0141627D01*
X0056512Y0140629D02*
X0057480Y0140629D01*
X0057480Y0139630D02*
X0056512Y0139630D01*
X0056512Y0138632D02*
X0053659Y0138632D01*
X0053331Y0137801D02*
X0053331Y0136119D01*
X0053433Y0135738D01*
X0053630Y0135396D01*
X0053910Y0135116D01*
X0054252Y0134919D01*
X0054633Y0134817D01*
X0056512Y0134817D01*
X0056512Y0137801D01*
X0053331Y0137801D01*
X0053331Y0137633D02*
X0052596Y0137633D01*
X0053130Y0136635D02*
X0053331Y0136635D01*
X0053243Y0135636D02*
X0053491Y0135636D01*
X0053243Y0134638D02*
X0060798Y0134638D01*
X0057480Y0135636D02*
X0056512Y0135636D01*
X0056512Y0136635D02*
X0057480Y0136635D01*
X0057480Y0137633D02*
X0056512Y0137633D01*
X0056512Y0134254D02*
X0054633Y0134254D01*
X0054252Y0134151D01*
X0053910Y0133954D01*
X0053630Y0133675D01*
X0053433Y0133333D01*
X0053331Y0132951D01*
X0053331Y0131269D01*
X0056512Y0131269D01*
X0056512Y0134254D01*
X0056512Y0133639D02*
X0057480Y0133639D01*
X0057480Y0132641D02*
X0056512Y0132641D01*
X0056512Y0131642D02*
X0057480Y0131642D01*
X0056512Y0130644D02*
X0052302Y0130644D01*
X0053008Y0131642D02*
X0053331Y0131642D01*
X0053331Y0132641D02*
X0053243Y0132641D01*
X0053243Y0133639D02*
X0053610Y0133639D01*
X0053331Y0129645D02*
X0035527Y0129645D01*
X0035812Y0130644D02*
X0048383Y0130644D01*
X0047677Y0131642D02*
X0036811Y0131642D01*
X0037543Y0132641D02*
X0047443Y0132641D01*
X0046738Y0133639D02*
X0043947Y0133639D01*
X0044680Y0134638D02*
X0046005Y0134638D01*
X0046005Y0135636D02*
X0045663Y0135636D01*
X0044046Y0139958D02*
X0043684Y0140320D01*
X0040114Y0140320D01*
X0041045Y0141250D01*
X0043684Y0141250D01*
X0044680Y0142246D01*
X0044680Y0142565D01*
X0044732Y0142371D01*
X0044930Y0142029D01*
X0045209Y0141750D01*
X0045551Y0141553D01*
X0045621Y0141534D01*
X0044743Y0140655D01*
X0044046Y0139958D01*
X0044716Y0140629D02*
X0040423Y0140629D01*
X0041406Y0137348D02*
X0041406Y0136848D01*
X0041327Y0136769D01*
X0035343Y0136769D01*
X0035343Y0133285D01*
X0034890Y0132832D01*
X0031563Y0132832D01*
X0031563Y0134801D02*
X0028327Y0134801D01*
X0027843Y0135285D01*
X0027843Y0138285D01*
X0028343Y0138785D01*
X0031516Y0138785D01*
X0031563Y0138738D01*
X0035421Y0138738D01*
X0041406Y0144722D01*
X0044680Y0144623D02*
X0048106Y0144623D01*
X0048106Y0144336D02*
X0044680Y0144336D01*
X0044680Y0145027D01*
X0044761Y0145108D01*
X0048106Y0145108D01*
X0048106Y0144336D01*
X0048878Y0144336D02*
X0048878Y0145108D01*
X0052354Y0145108D01*
X0052354Y0146685D01*
X0053087Y0146685D01*
X0052952Y0146360D01*
X0052952Y0145210D01*
X0053346Y0144259D01*
X0052354Y0143267D01*
X0052354Y0144336D01*
X0048878Y0144336D01*
X0048878Y0144623D02*
X0053195Y0144623D01*
X0052952Y0145621D02*
X0052354Y0145621D01*
X0052354Y0146620D02*
X0053060Y0146620D01*
X0052712Y0143624D02*
X0052354Y0143624D01*
X0045422Y0141627D02*
X0044061Y0141627D01*
X0038864Y0133639D02*
X0037543Y0133639D01*
X0035343Y0136769D02*
X0031563Y0136769D01*
X0027376Y0132641D02*
X0004543Y0132641D01*
X0004543Y0133639D02*
X0026377Y0133639D01*
X0025643Y0134638D02*
X0004543Y0134638D01*
X0004543Y0135636D02*
X0025643Y0135636D01*
X0025643Y0136635D02*
X0004543Y0136635D01*
X0004543Y0137633D02*
X0025643Y0137633D01*
X0025526Y0138632D02*
X0004543Y0138632D01*
X0004543Y0139630D02*
X0024527Y0139630D01*
X0023529Y0140629D02*
X0004543Y0140629D01*
X0004543Y0141627D02*
X0022530Y0141627D01*
X0021532Y0142626D02*
X0004543Y0142626D01*
X0004543Y0143624D02*
X0020533Y0143624D01*
X0019535Y0144623D02*
X0004543Y0144623D01*
X0004543Y0145621D02*
X0018536Y0145621D01*
X0017538Y0146620D02*
X0004543Y0146620D01*
X0004543Y0147618D02*
X0017243Y0147618D01*
X0017243Y0148617D02*
X0004543Y0148617D01*
X0004543Y0149615D02*
X0008791Y0149615D01*
X0008918Y0149531D02*
X0009588Y0149253D01*
X0010299Y0149112D01*
X0012752Y0149112D01*
X0012752Y0152702D01*
X0006980Y0152702D01*
X0006980Y0152430D01*
X0007122Y0151719D01*
X0007399Y0151049D01*
X0007802Y0150446D01*
X0008315Y0149934D01*
X0008918Y0149531D01*
X0007690Y0150614D02*
X0004543Y0150614D01*
X0004543Y0151612D02*
X0007166Y0151612D01*
X0006980Y0152611D02*
X0004543Y0152611D01*
X0004543Y0153609D02*
X0007071Y0153609D01*
X0007447Y0154608D02*
X0004543Y0154608D01*
X0004543Y0155606D02*
X0008269Y0155606D01*
X0004543Y0156605D02*
X0017243Y0156605D01*
X0016140Y0157604D02*
X0004543Y0157604D01*
X0004543Y0158602D02*
X0015631Y0158602D01*
X0015631Y0159601D02*
X0004543Y0159601D01*
X0004543Y0160599D02*
X0015631Y0160599D01*
X0015631Y0161598D02*
X0004543Y0161598D01*
X0004543Y0162596D02*
X0015631Y0162596D01*
X0015767Y0163595D02*
X0004543Y0163595D01*
X0004543Y0164593D02*
X0010192Y0164593D01*
X0007448Y0165592D02*
X0004543Y0165592D01*
X0004543Y0166590D02*
X0006028Y0166590D01*
X0007043Y0165739D02*
X0007043Y0165739D01*
X0004838Y0167589D02*
X0004543Y0167589D01*
X0015494Y0164593D02*
X0070243Y0164593D01*
X0070243Y0163595D02*
X0029601Y0163595D01*
X0029854Y0162596D02*
X0070243Y0162596D01*
X0068991Y0161598D02*
X0029854Y0161598D01*
X0029854Y0159601D02*
X0068170Y0159601D01*
X0068170Y0160599D02*
X0026673Y0160599D01*
X0026673Y0159601D02*
X0025705Y0159601D01*
X0025705Y0158602D02*
X0026673Y0158602D01*
X0026673Y0157604D02*
X0025705Y0157604D01*
X0024726Y0155606D02*
X0021443Y0155606D01*
X0021443Y0154608D02*
X0023904Y0154608D01*
X0023527Y0153609D02*
X0021443Y0153609D01*
X0021443Y0152611D02*
X0023437Y0152611D01*
X0023623Y0151612D02*
X0021443Y0151612D01*
X0021443Y0150614D02*
X0024147Y0150614D01*
X0025248Y0149615D02*
X0021443Y0149615D01*
X0021481Y0148617D02*
X0024708Y0148617D01*
X0024351Y0147618D02*
X0022479Y0147618D01*
X0023478Y0146620D02*
X0024351Y0146620D01*
X0024476Y0145621D02*
X0024744Y0145621D01*
X0025475Y0144623D02*
X0025677Y0144623D01*
X0026473Y0143624D02*
X0027599Y0143624D01*
X0034899Y0150614D02*
X0035070Y0150614D01*
X0034976Y0151612D02*
X0036069Y0151612D01*
X0035161Y0152611D02*
X0037067Y0152611D01*
X0038066Y0153609D02*
X0035071Y0153609D01*
X0035020Y0153867D02*
X0034742Y0154537D01*
X0034340Y0155140D01*
X0033827Y0155652D01*
X0033224Y0156055D01*
X0032554Y0156333D01*
X0031843Y0156474D01*
X0029390Y0156474D01*
X0029390Y0152884D01*
X0035161Y0152884D01*
X0035161Y0153156D01*
X0035020Y0153867D01*
X0034695Y0154608D02*
X0039579Y0154608D01*
X0033873Y0155606D02*
X0064194Y0155606D01*
X0064198Y0154608D02*
X0056581Y0154608D01*
X0055104Y0154608D02*
X0046106Y0154608D01*
X0047619Y0153609D02*
X0053579Y0153609D01*
X0053056Y0152611D02*
X0048139Y0152611D01*
X0048243Y0151612D02*
X0052952Y0151612D01*
X0060343Y0155285D02*
X0060343Y0160785D01*
X0064194Y0156605D02*
X0021443Y0156605D01*
X0022852Y0157604D02*
X0023125Y0157604D01*
X0025705Y0161598D02*
X0026673Y0161598D01*
X0026673Y0162596D02*
X0025705Y0162596D01*
X0025705Y0163595D02*
X0026673Y0163595D01*
X0029850Y0158602D02*
X0068170Y0158602D01*
X0064997Y0157604D02*
X0029253Y0157604D01*
X0029209Y0155606D02*
X0029390Y0155606D01*
X0029390Y0154608D02*
X0029209Y0154608D01*
X0029209Y0153609D02*
X0029390Y0153609D01*
X0017243Y0149615D02*
X0016894Y0149615D01*
X0012933Y0149615D02*
X0012752Y0149615D01*
X0012752Y0150614D02*
X0012933Y0150614D01*
X0012933Y0151612D02*
X0012752Y0151612D01*
X0012752Y0152611D02*
X0012933Y0152611D01*
X0012933Y0153609D02*
X0012752Y0153609D01*
X0012752Y0154608D02*
X0012933Y0154608D01*
X0012933Y0155606D02*
X0012752Y0155606D01*
X0018237Y0165592D02*
X0070679Y0165592D01*
X0071678Y0166590D02*
X0019657Y0166590D01*
X0020847Y0167589D02*
X0072676Y0167589D01*
X0073675Y0168587D02*
X0021878Y0168587D01*
X0021729Y0168329D02*
X0021729Y0168329D01*
X0022454Y0169586D02*
X0074673Y0169586D01*
X0074743Y0169655D02*
X0074743Y0169655D01*
X0075672Y0170584D02*
X0023031Y0170584D01*
X0023607Y0171583D02*
X0079174Y0171583D01*
X0079174Y0172581D02*
X0023878Y0172581D01*
X0023743Y0171818D02*
X0023743Y0171818D01*
X0024054Y0173580D02*
X0079174Y0173580D01*
X0079174Y0174578D02*
X0024230Y0174578D01*
X0024406Y0175577D02*
X0079443Y0175577D01*
X0079174Y0176575D02*
X0024303Y0176575D01*
X0024127Y0177574D02*
X0079174Y0177574D01*
X0079174Y0178572D02*
X0023951Y0178572D01*
X0023775Y0179571D02*
X0079174Y0179571D01*
X0079174Y0180569D02*
X0023271Y0180569D01*
X0023743Y0179753D02*
X0023743Y0179753D01*
X0022695Y0181568D02*
X0079174Y0181568D01*
X0079739Y0182566D02*
X0022118Y0182566D01*
X0021343Y0183565D02*
X0101000Y0183565D01*
X0102685Y0183565D02*
X0161343Y0183565D01*
X0161343Y0182566D02*
X0127599Y0182566D01*
X0127968Y0181568D02*
X0161343Y0181568D01*
X0161343Y0180569D02*
X0127968Y0180569D01*
X0127968Y0179571D02*
X0161343Y0179571D01*
X0161343Y0178572D02*
X0136515Y0178572D01*
X0142665Y0177574D02*
X0161343Y0177574D01*
X0161343Y0176575D02*
X0143664Y0176575D01*
X0144662Y0175577D02*
X0161343Y0175577D01*
X0161343Y0174578D02*
X0145661Y0174578D01*
X0146659Y0173580D02*
X0161343Y0173580D01*
X0161343Y0172581D02*
X0147658Y0172581D01*
X0148656Y0171583D02*
X0161343Y0171583D01*
X0161343Y0170584D02*
X0149655Y0170584D01*
X0150653Y0169586D02*
X0161343Y0169586D01*
X0161343Y0168587D02*
X0151652Y0168587D01*
X0152650Y0167589D02*
X0161343Y0167589D01*
X0161343Y0166590D02*
X0153649Y0166590D01*
X0154647Y0165592D02*
X0161343Y0165592D01*
X0161343Y0164593D02*
X0155646Y0164593D01*
X0156644Y0163595D02*
X0161343Y0163595D01*
X0161343Y0162596D02*
X0157643Y0162596D01*
X0158641Y0161598D02*
X0161343Y0161598D01*
X0161343Y0160599D02*
X0159640Y0160599D01*
X0160543Y0159601D02*
X0161343Y0159601D01*
X0161343Y0158602D02*
X0160543Y0158602D01*
X0160543Y0157604D02*
X0161343Y0157604D01*
X0161343Y0156605D02*
X0160543Y0156605D01*
X0160543Y0155606D02*
X0161343Y0155606D01*
X0161343Y0154608D02*
X0160543Y0154608D01*
X0160543Y0153609D02*
X0161343Y0153609D01*
X0161343Y0152611D02*
X0160543Y0152611D01*
X0160543Y0151612D02*
X0161343Y0151612D01*
X0161343Y0150614D02*
X0160543Y0150614D01*
X0160543Y0149615D02*
X0161343Y0149615D01*
X0161343Y0148617D02*
X0160543Y0148617D01*
X0160543Y0147618D02*
X0161070Y0147618D01*
X0138453Y0148617D02*
X0136918Y0148617D01*
X0137558Y0149615D02*
X0137914Y0149615D01*
X0137914Y0150614D02*
X0137571Y0150614D01*
X0137571Y0151612D02*
X0137914Y0151612D01*
X0134587Y0151612D02*
X0133618Y0151612D01*
X0133618Y0150614D02*
X0134587Y0150614D01*
X0134587Y0149615D02*
X0133618Y0149615D01*
X0133618Y0148617D02*
X0134587Y0148617D01*
X0125258Y0148617D02*
X0123811Y0148617D01*
X0123811Y0149615D02*
X0124260Y0149615D01*
X0118041Y0133639D02*
X0117762Y0133639D01*
X0117762Y0132641D02*
X0118041Y0132641D01*
X0118041Y0130644D02*
X0117762Y0130644D01*
X0117762Y0129645D02*
X0118041Y0129645D01*
X0107903Y0141627D02*
X0107128Y0141627D01*
X0104996Y0146620D02*
X0103996Y0146620D01*
X0103996Y0147618D02*
X0104996Y0147618D01*
X0104996Y0148617D02*
X0103996Y0148617D01*
X0103996Y0149615D02*
X0104996Y0149615D01*
X0100674Y0151612D02*
X0097626Y0151612D01*
X0096011Y0152611D02*
X0100434Y0152611D01*
X0100434Y0153609D02*
X0095403Y0153609D01*
X0099043Y0144623D02*
X0100634Y0144623D01*
X0100634Y0143624D02*
X0099043Y0143624D01*
X0099043Y0142626D02*
X0100710Y0142626D01*
X0095743Y0117663D02*
X0093934Y0117663D01*
X0094933Y0116665D02*
X0095743Y0116665D01*
X0093743Y0106679D02*
X0093536Y0106679D01*
X0093743Y0101687D02*
X0093123Y0101687D01*
X0093295Y0100688D02*
X0091781Y0100688D01*
X0090616Y0099690D02*
X0092952Y0099690D01*
X0092960Y0098691D02*
X0089028Y0098691D01*
X0089028Y0097693D02*
X0093373Y0097693D01*
X0093984Y0096694D02*
X0093984Y0096694D01*
X0093984Y0095696D02*
X0093984Y0095696D01*
X0093984Y0094697D02*
X0093984Y0094697D01*
X0090441Y0094697D02*
X0090441Y0094697D01*
X0090441Y0095696D02*
X0090441Y0095696D01*
X0090441Y0096694D02*
X0090441Y0096694D01*
X0085874Y0096694D02*
X0085874Y0096694D01*
X0085874Y0097693D02*
X0085874Y0097693D01*
X0079442Y0092700D02*
X0067545Y0092700D01*
X0065884Y0087708D02*
X0046521Y0087708D01*
X0047189Y0086709D02*
X0066883Y0086709D01*
X0067764Y0085711D02*
X0047396Y0085711D01*
X0047396Y0084712D02*
X0056865Y0084712D01*
X0056162Y0083714D02*
X0054516Y0083714D01*
X0054854Y0082715D02*
X0056162Y0082715D01*
X0056162Y0081717D02*
X0054854Y0081717D01*
X0056162Y0080718D02*
X0051673Y0080718D01*
X0051673Y0079720D02*
X0050705Y0079720D01*
X0050705Y0078721D02*
X0051673Y0078721D01*
X0051673Y0077723D02*
X0050705Y0077723D01*
X0049704Y0076724D02*
X0045981Y0076724D01*
X0046393Y0075726D02*
X0049292Y0075726D01*
X0049292Y0074727D02*
X0046393Y0074727D01*
X0046393Y0073729D02*
X0049292Y0073729D01*
X0049301Y0072730D02*
X0046384Y0072730D01*
X0045866Y0071732D02*
X0049492Y0071732D01*
X0049492Y0070733D02*
X0046864Y0070733D01*
X0047863Y0069735D02*
X0049492Y0069735D01*
X0053002Y0070744D02*
X0053002Y0070826D01*
X0056429Y0070826D01*
X0056429Y0071625D01*
X0057098Y0071625D01*
X0057158Y0071565D01*
X0059103Y0071565D01*
X0058910Y0071454D01*
X0058630Y0071175D01*
X0058433Y0070833D01*
X0058331Y0070451D01*
X0058331Y0068769D01*
X0061512Y0068769D01*
X0061512Y0067801D01*
X0062480Y0067801D01*
X0062480Y0064817D01*
X0064359Y0064817D01*
X0064740Y0064919D01*
X0065082Y0065116D01*
X0065201Y0065235D01*
X0065819Y0064617D01*
X0066489Y0064617D01*
X0066489Y0064454D01*
X0065819Y0064454D01*
X0065343Y0063977D01*
X0064866Y0064454D01*
X0059127Y0064454D01*
X0058131Y0063458D01*
X0058131Y0062985D01*
X0055054Y0062985D01*
X0055054Y0063458D01*
X0054250Y0064262D01*
X0055633Y0064262D01*
X0056629Y0065258D01*
X0056629Y0068832D01*
X0056329Y0069132D01*
X0056429Y0069505D01*
X0056429Y0070744D01*
X0053002Y0070744D01*
X0056429Y0070733D02*
X0058406Y0070733D01*
X0058331Y0069735D02*
X0056429Y0069735D01*
X0056629Y0068736D02*
X0061512Y0068736D01*
X0061512Y0067801D02*
X0058331Y0067801D01*
X0058331Y0066119D01*
X0058433Y0065738D01*
X0058630Y0065396D01*
X0058910Y0065116D01*
X0059252Y0064919D01*
X0059633Y0064817D01*
X0061512Y0064817D01*
X0061512Y0067801D01*
X0061512Y0067737D02*
X0062480Y0067737D01*
X0062480Y0066739D02*
X0061512Y0066739D01*
X0061512Y0065740D02*
X0062480Y0065740D01*
X0065694Y0064742D02*
X0056113Y0064742D01*
X0056629Y0065740D02*
X0058432Y0065740D01*
X0058331Y0066739D02*
X0056629Y0066739D01*
X0056629Y0067737D02*
X0058331Y0067737D01*
X0058416Y0063743D02*
X0054769Y0063743D01*
X0051189Y0060785D02*
X0044929Y0067045D01*
X0042724Y0067045D01*
X0042133Y0064254D02*
X0041752Y0064151D01*
X0041410Y0063954D01*
X0041130Y0063675D01*
X0040933Y0063333D01*
X0040831Y0062951D01*
X0040831Y0061269D01*
X0044012Y0061269D01*
X0044012Y0060301D01*
X0041797Y0060301D01*
X0033289Y0068809D01*
X0033289Y0087117D01*
X0034058Y0087117D01*
X0035054Y0088112D01*
X0035054Y0088706D02*
X0038943Y0088706D01*
X0038943Y0087708D02*
X0039384Y0086642D01*
X0041596Y0084430D01*
X0041596Y0084423D01*
X0040631Y0083458D01*
X0040631Y0081021D01*
X0040266Y0080656D01*
X0039824Y0079590D01*
X0039824Y0077081D01*
X0039056Y0076312D01*
X0039056Y0072738D01*
X0040052Y0071743D01*
X0040624Y0071743D01*
X0040624Y0071033D01*
X0041830Y0069828D01*
X0040052Y0069828D01*
X0039056Y0068832D01*
X0039056Y0065258D01*
X0040052Y0064262D01*
X0044601Y0064262D01*
X0044980Y0063883D01*
X0044980Y0061269D01*
X0044012Y0061269D01*
X0044012Y0064254D01*
X0042133Y0064254D01*
X0041199Y0063743D02*
X0038354Y0063743D01*
X0039353Y0062745D02*
X0040831Y0062745D01*
X0040831Y0061746D02*
X0040351Y0061746D01*
X0041350Y0060748D02*
X0044012Y0060748D01*
X0044012Y0061746D02*
X0044980Y0061746D01*
X0044980Y0062745D02*
X0044012Y0062745D01*
X0044012Y0063743D02*
X0044980Y0063743D01*
X0039572Y0064742D02*
X0037356Y0064742D01*
X0036357Y0065740D02*
X0039056Y0065740D01*
X0039056Y0066739D02*
X0035359Y0066739D01*
X0034360Y0067737D02*
X0039056Y0067737D01*
X0039056Y0068736D02*
X0033361Y0068736D01*
X0033289Y0069735D02*
X0039959Y0069735D01*
X0040925Y0070733D02*
X0033289Y0070733D01*
X0033289Y0071732D02*
X0040624Y0071732D01*
X0039064Y0072730D02*
X0033289Y0072730D01*
X0033289Y0073729D02*
X0039056Y0073729D01*
X0039056Y0074727D02*
X0033289Y0074727D01*
X0033289Y0075726D02*
X0039056Y0075726D01*
X0039468Y0076724D02*
X0033289Y0076724D01*
X0033289Y0077723D02*
X0039824Y0077723D01*
X0039824Y0078721D02*
X0033289Y0078721D01*
X0033289Y0079720D02*
X0039878Y0079720D01*
X0040328Y0080718D02*
X0033289Y0080718D01*
X0033289Y0081717D02*
X0040631Y0081717D01*
X0040631Y0082715D02*
X0033289Y0082715D01*
X0033289Y0083714D02*
X0040887Y0083714D01*
X0041314Y0084712D02*
X0033289Y0084712D01*
X0033289Y0085711D02*
X0040316Y0085711D01*
X0039356Y0086709D02*
X0033289Y0086709D01*
X0035054Y0089705D02*
X0039292Y0089705D01*
X0040159Y0090703D02*
X0035054Y0090703D01*
X0035054Y0091702D02*
X0044390Y0091702D01*
X0043526Y0090703D02*
X0045389Y0090703D01*
X0044524Y0089705D02*
X0046387Y0089705D01*
X0045523Y0088706D02*
X0047386Y0088706D01*
X0050705Y0083714D02*
X0051673Y0083714D01*
X0051673Y0082715D02*
X0050705Y0082715D01*
X0050705Y0081717D02*
X0051673Y0081717D01*
X0054854Y0079720D02*
X0056162Y0079720D01*
X0056162Y0078721D02*
X0054854Y0078721D01*
X0054382Y0077723D02*
X0055758Y0077723D01*
X0047996Y0077723D02*
X0047972Y0077723D01*
X0041043Y0092700D02*
X0035054Y0092700D01*
X0034813Y0093699D02*
X0040631Y0093699D01*
X0040631Y0094697D02*
X0019878Y0094697D01*
X0019699Y0096694D02*
X0040051Y0096694D01*
X0040631Y0095696D02*
X0015043Y0095696D01*
X0016780Y0092045D02*
X0023236Y0092045D01*
X0024496Y0090785D01*
X0020631Y0089705D02*
X0020190Y0089705D01*
X0019857Y0080718D02*
X0029089Y0080718D01*
X0029089Y0079720D02*
X0019857Y0079720D01*
X0019836Y0078721D02*
X0029089Y0078721D01*
X0029089Y0077723D02*
X0004543Y0077723D01*
X0004543Y0078721D02*
X0006214Y0078721D01*
X0006130Y0078868D02*
X0006327Y0078526D01*
X0006607Y0078246D01*
X0006949Y0078049D01*
X0007330Y0077947D01*
X0009012Y0077947D01*
X0009012Y0081324D01*
X0006028Y0081324D01*
X0006028Y0079249D01*
X0006130Y0078868D01*
X0006028Y0079720D02*
X0004543Y0079720D01*
X0004543Y0080718D02*
X0006028Y0080718D01*
X0004543Y0081717D02*
X0009012Y0081717D01*
X0009012Y0082715D02*
X0009980Y0082715D01*
X0009980Y0083714D02*
X0009012Y0083714D01*
X0009012Y0084712D02*
X0009980Y0084712D01*
X0006120Y0084712D02*
X0004543Y0084712D01*
X0004543Y0083714D02*
X0006028Y0083714D01*
X0006028Y0082715D02*
X0004543Y0082715D01*
X0009012Y0080718D02*
X0009980Y0080718D01*
X0009980Y0079720D02*
X0009012Y0079720D01*
X0009012Y0078721D02*
X0009980Y0078721D01*
X0008623Y0073729D02*
X0017062Y0073729D01*
X0017624Y0073961D02*
X0016457Y0073478D01*
X0015563Y0072584D01*
X0015080Y0071417D01*
X0015080Y0070153D01*
X0015563Y0068986D01*
X0016457Y0068092D01*
X0017624Y0067609D01*
X0018888Y0067609D01*
X0020055Y0068092D01*
X0020949Y0068986D01*
X0021432Y0070153D01*
X0021432Y0071417D01*
X0020949Y0072584D01*
X0020055Y0073478D01*
X0018888Y0073961D01*
X0017624Y0073961D01*
X0019450Y0073729D02*
X0029089Y0073729D01*
X0029089Y0074727D02*
X0004543Y0074727D01*
X0004543Y0073729D02*
X0006235Y0073729D01*
X0004882Y0072730D02*
X0004543Y0072730D01*
X0004543Y0075726D02*
X0029089Y0075726D01*
X0029089Y0076724D02*
X0004543Y0076724D01*
X0009976Y0072730D02*
X0015709Y0072730D01*
X0015210Y0071732D02*
X0010475Y0071732D01*
X0010605Y0070733D02*
X0015080Y0070733D01*
X0015253Y0069735D02*
X0010432Y0069735D01*
X0009872Y0068736D02*
X0015813Y0068736D01*
X0017313Y0067737D02*
X0008372Y0067737D01*
X0006486Y0067737D02*
X0004543Y0067737D01*
X0004543Y0066739D02*
X0029419Y0066739D01*
X0029089Y0067737D02*
X0019199Y0067737D01*
X0020699Y0068736D02*
X0029089Y0068736D01*
X0029089Y0069735D02*
X0021259Y0069735D01*
X0021432Y0070733D02*
X0029089Y0070733D01*
X0029089Y0071732D02*
X0021302Y0071732D01*
X0020803Y0072730D02*
X0029089Y0072730D01*
X0030417Y0065740D02*
X0004543Y0065740D01*
X0004543Y0064742D02*
X0031416Y0064742D01*
X0032414Y0063743D02*
X0018942Y0063743D01*
X0019857Y0062745D02*
X0033413Y0062745D01*
X0032482Y0061746D02*
X0034411Y0061746D01*
X0035410Y0060748D02*
X0033083Y0060748D01*
X0033243Y0059749D02*
X0036408Y0059749D01*
X0037407Y0058751D02*
X0033243Y0058751D01*
X0033243Y0057752D02*
X0038405Y0057752D01*
X0038205Y0056754D02*
X0036326Y0056754D01*
X0035945Y0056651D01*
X0035603Y0056454D01*
X0035484Y0056335D01*
X0034866Y0056954D01*
X0038205Y0056754D02*
X0038205Y0053769D01*
X0039173Y0053769D01*
X0039173Y0056754D01*
X0039404Y0056754D01*
X0039173Y0055755D02*
X0038205Y0055755D01*
X0038205Y0054757D02*
X0039173Y0054757D01*
X0039173Y0053758D02*
X0084374Y0053758D01*
X0084374Y0054454D02*
X0084374Y0052576D01*
X0084476Y0052194D01*
X0084674Y0051852D01*
X0084953Y0051573D01*
X0085295Y0051376D01*
X0085677Y0051273D01*
X0087358Y0051273D01*
X0087358Y0054454D01*
X0084374Y0054454D01*
X0084374Y0055755D02*
X0073283Y0055755D01*
X0074281Y0056754D02*
X0084374Y0056754D01*
X0084516Y0057752D02*
X0075280Y0057752D01*
X0076278Y0058751D02*
X0084185Y0058751D01*
X0084174Y0059749D02*
X0076443Y0059749D01*
X0076443Y0060748D02*
X0084174Y0060748D01*
X0084174Y0061746D02*
X0076443Y0061746D01*
X0077040Y0062745D02*
X0084174Y0062745D01*
X0084174Y0063743D02*
X0077233Y0063743D01*
X0077075Y0064742D02*
X0078284Y0064742D01*
X0081494Y0069735D02*
X0084465Y0069735D01*
X0084374Y0070733D02*
X0080496Y0070733D01*
X0084374Y0071732D02*
X0073693Y0071732D01*
X0074523Y0072730D02*
X0087358Y0072730D01*
X0088327Y0072730D02*
X0094056Y0072730D01*
X0094056Y0071732D02*
X0091311Y0071732D01*
X0091311Y0071954D02*
X0088327Y0071954D01*
X0088327Y0072923D01*
X0091311Y0072923D01*
X0091311Y0074802D01*
X0091209Y0075183D01*
X0091011Y0075525D01*
X0090893Y0075644D01*
X0091511Y0076262D01*
X0091511Y0076625D01*
X0094256Y0076625D01*
X0094256Y0075826D01*
X0097683Y0075826D01*
X0097683Y0075744D01*
X0094256Y0075744D01*
X0094256Y0074505D01*
X0094356Y0074132D01*
X0094056Y0073832D01*
X0094056Y0070258D01*
X0094629Y0069685D01*
X0091203Y0069685D01*
X0091209Y0069694D01*
X0091311Y0070076D01*
X0091311Y0071954D01*
X0091311Y0070733D02*
X0094056Y0070733D01*
X0094580Y0069735D02*
X0091220Y0069735D01*
X0091311Y0073729D02*
X0094056Y0073729D01*
X0094256Y0074727D02*
X0091311Y0074727D01*
X0090975Y0075726D02*
X0094256Y0075726D01*
X0100869Y0069735D02*
X0104816Y0069735D01*
X0104292Y0070733D02*
X0102260Y0070733D01*
X0103259Y0071732D02*
X0104292Y0071732D01*
X0104292Y0072730D02*
X0103943Y0072730D01*
X0103943Y0073729D02*
X0104292Y0073729D01*
X0103943Y0074727D02*
X0105187Y0074727D01*
X0103943Y0075726D02*
X0114710Y0075726D01*
X0114374Y0074727D02*
X0110734Y0074727D01*
X0111629Y0073729D02*
X0114374Y0073729D01*
X0114374Y0071732D02*
X0111629Y0071732D01*
X0111629Y0072730D02*
X0117358Y0072730D01*
X0118327Y0072730D02*
X0124858Y0072730D01*
X0124858Y0072923D02*
X0124858Y0071954D01*
X0125827Y0071954D01*
X0125827Y0068773D01*
X0127043Y0068773D01*
X0127043Y0067875D01*
X0126705Y0067736D01*
X0125892Y0066922D01*
X0125598Y0066212D01*
X0125301Y0066928D01*
X0123456Y0068773D01*
X0124858Y0068773D01*
X0124858Y0071954D01*
X0121874Y0071954D01*
X0121874Y0070076D01*
X0121976Y0069694D01*
X0122001Y0069651D01*
X0121919Y0069685D01*
X0121203Y0069685D01*
X0121209Y0069694D01*
X0121311Y0070076D01*
X0121311Y0071954D01*
X0118327Y0071954D01*
X0118327Y0072923D01*
X0121311Y0072923D01*
X0121311Y0074802D01*
X0121209Y0075183D01*
X0121011Y0075525D01*
X0120893Y0075644D01*
X0121481Y0076232D01*
X0121705Y0076232D01*
X0122292Y0075644D01*
X0122174Y0075525D01*
X0121976Y0075183D01*
X0121874Y0074802D01*
X0121874Y0072923D01*
X0124858Y0072923D01*
X0124858Y0071732D02*
X0125827Y0071732D01*
X0125827Y0070733D02*
X0124858Y0070733D01*
X0124858Y0069735D02*
X0125827Y0069735D01*
X0127043Y0068736D02*
X0123493Y0068736D01*
X0124491Y0067737D02*
X0126710Y0067737D01*
X0125816Y0066739D02*
X0125379Y0066739D01*
X0121965Y0069735D02*
X0121220Y0069735D01*
X0121311Y0070733D02*
X0121874Y0070733D01*
X0121874Y0071732D02*
X0121311Y0071732D01*
X0121311Y0073729D02*
X0121874Y0073729D01*
X0121874Y0074727D02*
X0121311Y0074727D01*
X0120975Y0075726D02*
X0122211Y0075726D01*
X0122388Y0082715D02*
X0120797Y0082715D01*
X0121272Y0087708D02*
X0122453Y0087708D01*
X0122452Y0088706D02*
X0121567Y0088706D01*
X0121567Y0089705D02*
X0122802Y0089705D01*
X0123673Y0090703D02*
X0121567Y0090703D01*
X0123589Y0092700D02*
X0123868Y0092700D01*
X0123868Y0093699D02*
X0123589Y0093699D01*
X0123589Y0094697D02*
X0123868Y0094697D01*
X0123868Y0096694D02*
X0123589Y0096694D01*
X0123589Y0097693D02*
X0123868Y0097693D01*
X0123868Y0098691D02*
X0123589Y0098691D01*
X0123589Y0099690D02*
X0123868Y0099690D01*
X0123868Y0100688D02*
X0123589Y0100688D01*
X0123589Y0101687D02*
X0123868Y0101687D01*
X0123868Y0102685D02*
X0123589Y0102685D01*
X0118041Y0091702D02*
X0117928Y0091702D01*
X0118041Y0090703D02*
X0117762Y0090703D01*
X0117762Y0089705D02*
X0118041Y0089705D01*
X0118041Y0088706D02*
X0117762Y0088706D01*
X0117762Y0087708D02*
X0118041Y0087708D01*
X0127843Y0085711D02*
X0136947Y0085711D01*
X0130682Y0084712D02*
X0127843Y0084712D01*
X0127843Y0083714D02*
X0130098Y0083714D01*
X0129952Y0082715D02*
X0128297Y0082715D01*
X0129011Y0081717D02*
X0130156Y0081717D01*
X0144888Y0086709D02*
X0148655Y0086709D01*
X0148173Y0087708D02*
X0149654Y0087708D01*
X0149317Y0088706D02*
X0150652Y0088706D01*
X0149731Y0089705D02*
X0151651Y0089705D01*
X0152649Y0090703D02*
X0150230Y0090703D01*
X0151229Y0091702D02*
X0153648Y0091702D01*
X0154646Y0092700D02*
X0152228Y0092700D01*
X0152943Y0093699D02*
X0155645Y0093699D01*
X0156143Y0094697D02*
X0152943Y0094697D01*
X0152943Y0095696D02*
X0156143Y0095696D01*
X0156143Y0096694D02*
X0152943Y0096694D01*
X0152943Y0097693D02*
X0156143Y0097693D01*
X0156143Y0098691D02*
X0152943Y0098691D01*
X0152943Y0099690D02*
X0156143Y0099690D01*
X0156143Y0100688D02*
X0152943Y0100688D01*
X0152943Y0101687D02*
X0156143Y0101687D01*
X0156143Y0102685D02*
X0152943Y0102685D01*
X0152943Y0103684D02*
X0156143Y0103684D01*
X0156143Y0104682D02*
X0152943Y0104682D01*
X0152943Y0105681D02*
X0156143Y0105681D01*
X0156143Y0106679D02*
X0152943Y0106679D01*
X0152943Y0107678D02*
X0156143Y0107678D01*
X0156143Y0108676D02*
X0152943Y0108676D01*
X0152943Y0109675D02*
X0156143Y0109675D01*
X0156143Y0110673D02*
X0152943Y0110673D01*
X0152943Y0111672D02*
X0156143Y0111672D01*
X0156143Y0112670D02*
X0152943Y0112670D01*
X0152928Y0113669D02*
X0156143Y0113669D01*
X0156143Y0114668D02*
X0151930Y0114668D01*
X0150931Y0115666D02*
X0156143Y0115666D01*
X0156143Y0116665D02*
X0149933Y0116665D01*
X0148934Y0117663D02*
X0156143Y0117663D01*
X0156143Y0118662D02*
X0148233Y0118662D01*
X0147902Y0119660D02*
X0156143Y0119660D01*
X0156143Y0120659D02*
X0147057Y0120659D01*
X0144743Y0101687D02*
X0144129Y0101687D01*
X0156875Y0088706D02*
X0160374Y0088706D01*
X0160374Y0087708D02*
X0155876Y0087708D01*
X0154878Y0086709D02*
X0160374Y0086709D01*
X0160374Y0085711D02*
X0153879Y0085711D01*
X0152881Y0084712D02*
X0160374Y0084712D01*
X0160374Y0083714D02*
X0151882Y0083714D01*
X0150884Y0082715D02*
X0160374Y0082715D01*
X0160374Y0081717D02*
X0150529Y0081717D01*
X0150043Y0080718D02*
X0160374Y0080718D01*
X0160374Y0079720D02*
X0150043Y0079720D01*
X0150043Y0078721D02*
X0160374Y0078721D01*
X0160374Y0077723D02*
X0150043Y0077723D01*
X0150043Y0076724D02*
X0160374Y0076724D01*
X0160374Y0075726D02*
X0150043Y0075726D01*
X0150043Y0074727D02*
X0160374Y0074727D01*
X0161180Y0073729D02*
X0150043Y0073729D01*
X0150043Y0072730D02*
X0150686Y0072730D01*
X0154999Y0072730D02*
X0161343Y0072730D01*
X0161343Y0071732D02*
X0155589Y0071732D01*
X0155743Y0070733D02*
X0161343Y0070733D01*
X0161343Y0069735D02*
X0155546Y0069735D01*
X0155705Y0068736D02*
X0156673Y0068736D01*
X0156673Y0067737D02*
X0155705Y0067737D01*
X0155705Y0066739D02*
X0156673Y0066739D01*
X0156673Y0065740D02*
X0161343Y0065740D01*
X0161343Y0064742D02*
X0159854Y0064742D01*
X0159854Y0063743D02*
X0161343Y0063743D01*
X0161343Y0062745D02*
X0159404Y0062745D01*
X0158579Y0061746D02*
X0161343Y0061746D01*
X0161343Y0060748D02*
X0159775Y0060748D01*
X0159854Y0059749D02*
X0161343Y0059749D01*
X0161343Y0058751D02*
X0156673Y0058751D01*
X0156673Y0059749D02*
X0155705Y0059749D01*
X0155705Y0060748D02*
X0156673Y0060748D01*
X0156673Y0061746D02*
X0155705Y0061746D01*
X0155705Y0062745D02*
X0156673Y0062745D01*
X0156673Y0063743D02*
X0155705Y0063743D01*
X0155705Y0064742D02*
X0156673Y0064742D01*
X0159854Y0066739D02*
X0161343Y0066739D01*
X0161343Y0067737D02*
X0159854Y0067737D01*
X0159493Y0068736D02*
X0161343Y0068736D01*
X0153799Y0061746D02*
X0152573Y0061746D01*
X0155705Y0057752D02*
X0156673Y0057752D01*
X0156673Y0056754D02*
X0155705Y0056754D01*
X0155705Y0055755D02*
X0156673Y0055755D01*
X0159757Y0055755D02*
X0161343Y0055755D01*
X0161343Y0054757D02*
X0152506Y0054757D01*
X0150417Y0053758D02*
X0161343Y0053758D01*
X0161343Y0052760D02*
X0149418Y0052760D01*
X0148420Y0051761D02*
X0161343Y0051761D01*
X0161343Y0050763D02*
X0147331Y0050763D01*
X0149492Y0047560D02*
X0147921Y0046909D01*
X0146719Y0045707D01*
X0146068Y0044135D01*
X0146068Y0042435D01*
X0146719Y0040864D01*
X0147921Y0039661D01*
X0149492Y0039010D01*
X0151193Y0039010D01*
X0152764Y0039661D01*
X0153967Y0040864D01*
X0154617Y0042435D01*
X0154617Y0044135D01*
X0153967Y0045707D01*
X0152764Y0046909D01*
X0151193Y0047560D01*
X0149492Y0047560D01*
X0147781Y0046769D02*
X0142480Y0046769D01*
X0142478Y0046770D02*
X0141907Y0047061D01*
X0141297Y0047260D01*
X0140663Y0047360D01*
X0140630Y0047360D01*
X0140630Y0043573D01*
X0140055Y0043573D01*
X0140055Y0047360D01*
X0140022Y0047360D01*
X0139388Y0047260D01*
X0138778Y0047061D01*
X0138207Y0046770D01*
X0137688Y0046393D01*
X0137234Y0045940D01*
X0136857Y0045421D01*
X0136566Y0044849D01*
X0136368Y0044239D01*
X0136268Y0043606D01*
X0136268Y0043573D01*
X0140055Y0043573D01*
X0140055Y0042998D01*
X0136268Y0042998D01*
X0136268Y0042964D01*
X0136368Y0042331D01*
X0136566Y0041721D01*
X0136857Y0041149D01*
X0137234Y0040631D01*
X0137688Y0040177D01*
X0138207Y0039800D01*
X0138778Y0039509D01*
X0139388Y0039311D01*
X0140022Y0039210D01*
X0140055Y0039210D01*
X0140055Y0042998D01*
X0140630Y0042998D01*
X0140630Y0043573D01*
X0144417Y0043573D01*
X0144417Y0043606D01*
X0144317Y0044239D01*
X0144119Y0044849D01*
X0143828Y0045421D01*
X0143451Y0045940D01*
X0142997Y0046393D01*
X0142478Y0046770D01*
X0143574Y0045770D02*
X0146782Y0045770D01*
X0146331Y0044772D02*
X0144144Y0044772D01*
X0144391Y0043773D02*
X0146068Y0043773D01*
X0146068Y0042775D02*
X0144387Y0042775D01*
X0144417Y0042964D02*
X0144417Y0042998D01*
X0140630Y0042998D01*
X0140630Y0039210D01*
X0140663Y0039210D01*
X0141297Y0039311D01*
X0141907Y0039509D01*
X0142478Y0039800D01*
X0142997Y0040177D01*
X0143451Y0040631D01*
X0143828Y0041149D01*
X0144119Y0041721D01*
X0144317Y0042331D01*
X0144417Y0042964D01*
X0144137Y0041776D02*
X0146341Y0041776D01*
X0146804Y0040778D02*
X0143557Y0040778D01*
X0142437Y0039779D02*
X0147803Y0039779D01*
X0152882Y0039779D02*
X0157803Y0039779D01*
X0156804Y0040778D02*
X0153881Y0040778D01*
X0154345Y0041776D02*
X0156341Y0041776D01*
X0156068Y0042775D02*
X0154617Y0042775D01*
X0154617Y0043773D02*
X0156068Y0043773D01*
X0156331Y0044772D02*
X0154354Y0044772D01*
X0153903Y0045770D02*
X0156782Y0045770D01*
X0157781Y0046769D02*
X0152904Y0046769D01*
X0161343Y0047767D02*
X0132643Y0047767D01*
X0132904Y0046769D02*
X0138205Y0046769D01*
X0137111Y0045770D02*
X0133903Y0045770D01*
X0134354Y0044772D02*
X0136541Y0044772D01*
X0136294Y0043773D02*
X0134617Y0043773D01*
X0134617Y0042775D02*
X0136298Y0042775D01*
X0136548Y0041776D02*
X0134345Y0041776D01*
X0133881Y0040778D02*
X0137128Y0040778D01*
X0138248Y0039779D02*
X0132882Y0039779D01*
X0127803Y0039779D02*
X0122882Y0039779D01*
X0123881Y0040778D02*
X0126804Y0040778D01*
X0126341Y0041776D02*
X0124345Y0041776D01*
X0124617Y0042775D02*
X0126068Y0042775D01*
X0126068Y0043773D02*
X0124617Y0043773D01*
X0124354Y0044772D02*
X0126331Y0044772D01*
X0126782Y0045770D02*
X0123903Y0045770D01*
X0122904Y0046769D02*
X0127606Y0046769D01*
X0126608Y0047767D02*
X0123294Y0047767D01*
X0124293Y0048766D02*
X0126043Y0048766D01*
X0126043Y0049764D02*
X0124943Y0049764D01*
X0124943Y0050763D02*
X0126043Y0050763D01*
X0126043Y0051761D02*
X0125340Y0051761D01*
X0125733Y0052760D02*
X0126043Y0052760D01*
X0130643Y0052760D02*
X0132943Y0052760D01*
X0132943Y0053758D02*
X0131046Y0053758D01*
X0131233Y0054757D02*
X0132986Y0054757D01*
X0135843Y0053285D02*
X0135843Y0058132D01*
X0135996Y0058285D01*
X0133335Y0051761D02*
X0130643Y0051761D01*
X0130643Y0050763D02*
X0134354Y0050763D01*
X0132115Y0048766D02*
X0161343Y0048766D01*
X0161343Y0049764D02*
X0131116Y0049764D01*
X0140055Y0046769D02*
X0140630Y0046769D01*
X0140630Y0045770D02*
X0140055Y0045770D01*
X0140055Y0044772D02*
X0140630Y0044772D01*
X0140630Y0043773D02*
X0140055Y0043773D01*
X0140055Y0042775D02*
X0140630Y0042775D01*
X0140630Y0041776D02*
X0140055Y0041776D01*
X0140055Y0040778D02*
X0140630Y0040778D01*
X0140630Y0039779D02*
X0140055Y0039779D01*
X0159854Y0056754D02*
X0161343Y0056754D01*
X0161343Y0057752D02*
X0159854Y0057752D01*
X0161343Y0038781D02*
X0021990Y0038781D01*
X0021729Y0038329D02*
X0021729Y0038329D01*
X0021077Y0037782D02*
X0161343Y0037782D01*
X0120350Y0050763D02*
X0078233Y0050763D01*
X0078233Y0050210D02*
X0078233Y0051360D01*
X0077793Y0052422D01*
X0076980Y0053236D01*
X0075917Y0053676D01*
X0074768Y0053676D01*
X0073705Y0053236D01*
X0073355Y0052885D01*
X0067330Y0052885D01*
X0066980Y0053236D01*
X0065917Y0053676D01*
X0064768Y0053676D01*
X0063705Y0053236D01*
X0062892Y0052422D01*
X0062452Y0051360D01*
X0062452Y0050210D01*
X0062892Y0049148D01*
X0063705Y0048335D01*
X0064768Y0047895D01*
X0065917Y0047895D01*
X0066980Y0048335D01*
X0067330Y0048685D01*
X0073355Y0048685D01*
X0073705Y0048335D01*
X0074768Y0047895D01*
X0075917Y0047895D01*
X0076980Y0048335D01*
X0077793Y0049148D01*
X0078233Y0050210D01*
X0078048Y0049764D02*
X0119352Y0049764D01*
X0118353Y0048766D02*
X0077411Y0048766D01*
X0077921Y0046909D02*
X0076719Y0045707D01*
X0076068Y0044135D01*
X0076068Y0042435D01*
X0076719Y0040864D01*
X0077921Y0039661D01*
X0079492Y0039010D01*
X0081193Y0039010D01*
X0082764Y0039661D01*
X0083967Y0040864D01*
X0084617Y0042435D01*
X0084617Y0044135D01*
X0083967Y0045707D01*
X0082764Y0046909D01*
X0081193Y0047560D01*
X0079492Y0047560D01*
X0077921Y0046909D01*
X0077781Y0046769D02*
X0072904Y0046769D01*
X0072764Y0046909D02*
X0071193Y0047560D01*
X0069492Y0047560D01*
X0067921Y0046909D01*
X0066719Y0045707D01*
X0066068Y0044135D01*
X0066068Y0042435D01*
X0066719Y0040864D01*
X0067921Y0039661D01*
X0069492Y0039010D01*
X0071193Y0039010D01*
X0072764Y0039661D01*
X0073967Y0040864D01*
X0074617Y0042435D01*
X0074617Y0044135D01*
X0073967Y0045707D01*
X0072764Y0046909D01*
X0073903Y0045770D02*
X0076782Y0045770D01*
X0076331Y0044772D02*
X0074354Y0044772D01*
X0074617Y0043773D02*
X0076068Y0043773D01*
X0076068Y0042775D02*
X0074617Y0042775D01*
X0074345Y0041776D02*
X0076341Y0041776D01*
X0076804Y0040778D02*
X0073881Y0040778D01*
X0072882Y0039779D02*
X0077803Y0039779D01*
X0082882Y0039779D02*
X0087803Y0039779D01*
X0087921Y0039661D02*
X0089492Y0039010D01*
X0091193Y0039010D01*
X0092764Y0039661D01*
X0093967Y0040864D01*
X0094617Y0042435D01*
X0094617Y0044135D01*
X0093967Y0045707D01*
X0092764Y0046909D01*
X0091193Y0047560D01*
X0089492Y0047560D01*
X0087921Y0046909D01*
X0086719Y0045707D01*
X0086068Y0044135D01*
X0086068Y0042435D01*
X0086719Y0040864D01*
X0087921Y0039661D01*
X0086804Y0040778D02*
X0083881Y0040778D01*
X0084345Y0041776D02*
X0086341Y0041776D01*
X0086068Y0042775D02*
X0084617Y0042775D01*
X0084617Y0043773D02*
X0086068Y0043773D01*
X0086331Y0044772D02*
X0084354Y0044772D01*
X0083903Y0045770D02*
X0086782Y0045770D01*
X0087781Y0046769D02*
X0082904Y0046769D01*
X0084765Y0051761D02*
X0078067Y0051761D01*
X0077456Y0052760D02*
X0084374Y0052760D01*
X0087358Y0052760D02*
X0088327Y0052760D01*
X0088327Y0053758D02*
X0087358Y0053758D01*
X0087358Y0054757D02*
X0072284Y0054757D01*
X0068689Y0060785D02*
X0068689Y0068285D01*
X0065597Y0071732D02*
X0064441Y0071732D01*
X0064680Y0072730D02*
X0065789Y0072730D01*
X0065789Y0073729D02*
X0064680Y0073729D01*
X0064680Y0074727D02*
X0065789Y0074727D01*
X0065789Y0075726D02*
X0064680Y0075726D01*
X0064680Y0076724D02*
X0065789Y0076724D01*
X0065969Y0077723D02*
X0064680Y0077723D01*
X0064680Y0078721D02*
X0066005Y0078721D01*
X0066005Y0079720D02*
X0064680Y0079720D01*
X0064680Y0080718D02*
X0066005Y0080718D01*
X0066005Y0081717D02*
X0064680Y0081717D01*
X0064680Y0082715D02*
X0066005Y0082715D01*
X0066005Y0083714D02*
X0064680Y0083714D01*
X0063977Y0084712D02*
X0066708Y0084712D01*
X0072764Y0085711D02*
X0079443Y0085711D01*
X0079443Y0084712D02*
X0073820Y0084712D01*
X0074523Y0083714D02*
X0079854Y0083714D01*
X0080811Y0082715D02*
X0074523Y0082715D01*
X0074523Y0081717D02*
X0081810Y0081717D01*
X0082808Y0080718D02*
X0074523Y0080718D01*
X0074523Y0079720D02*
X0083807Y0079720D01*
X0084174Y0078721D02*
X0074523Y0078721D01*
X0074523Y0077723D02*
X0084174Y0077723D01*
X0084174Y0076724D02*
X0074523Y0076724D01*
X0074523Y0075726D02*
X0084710Y0075726D01*
X0084374Y0074727D02*
X0074523Y0074727D01*
X0074523Y0073729D02*
X0084374Y0073729D01*
X0079793Y0086709D02*
X0072764Y0086709D01*
X0072620Y0087708D02*
X0080664Y0087708D01*
X0073327Y0099690D02*
X0072358Y0099690D01*
X0072358Y0100688D02*
X0073327Y0100688D01*
X0073327Y0101687D02*
X0072358Y0101687D01*
X0062343Y0112670D02*
X0039339Y0112670D01*
X0038341Y0111672D02*
X0041732Y0111672D01*
X0040695Y0110673D02*
X0037342Y0110673D01*
X0036344Y0109675D02*
X0039697Y0109675D01*
X0038713Y0108676D02*
X0035345Y0108676D01*
X0034347Y0107678D02*
X0038343Y0107678D01*
X0038343Y0106679D02*
X0033389Y0106679D01*
X0033389Y0105681D02*
X0038343Y0105681D01*
X0038343Y0104682D02*
X0033389Y0104682D01*
X0034828Y0103684D02*
X0038343Y0103684D01*
X0038343Y0102685D02*
X0035054Y0102685D01*
X0035054Y0101687D02*
X0038343Y0101687D01*
X0038343Y0100688D02*
X0035054Y0100688D01*
X0035054Y0099690D02*
X0038343Y0099690D01*
X0038446Y0098691D02*
X0035054Y0098691D01*
X0034635Y0097693D02*
X0039053Y0097693D01*
X0048325Y0099690D02*
X0052360Y0099690D01*
X0051792Y0100688D02*
X0048893Y0100688D01*
X0048893Y0101687D02*
X0051792Y0101687D01*
X0051792Y0102685D02*
X0048893Y0102685D01*
X0048893Y0103684D02*
X0051792Y0103684D01*
X0052643Y0104682D02*
X0048693Y0104682D01*
X0048343Y0104682D02*
X0047945Y0104682D01*
X0048832Y0107678D02*
X0051853Y0107678D01*
X0051792Y0108676D02*
X0048893Y0108676D01*
X0048893Y0109675D02*
X0051792Y0109675D01*
X0051792Y0110673D02*
X0048893Y0110673D01*
X0048533Y0111672D02*
X0052152Y0111672D01*
X0053863Y0117663D02*
X0035003Y0117663D01*
X0035020Y0117704D02*
X0035161Y0118415D01*
X0035161Y0118687D01*
X0029390Y0118687D01*
X0029390Y0115096D01*
X0031843Y0115096D01*
X0032554Y0115238D01*
X0033224Y0115515D01*
X0033827Y0115918D01*
X0034340Y0116431D01*
X0034742Y0117034D01*
X0035020Y0117704D01*
X0035161Y0118662D02*
X0053331Y0118662D01*
X0053331Y0119660D02*
X0035058Y0119660D01*
X0034650Y0120659D02*
X0056512Y0120659D01*
X0053331Y0121657D02*
X0035286Y0121657D01*
X0035327Y0122656D02*
X0053331Y0122656D01*
X0037111Y0116665D02*
X0034496Y0116665D01*
X0033450Y0115666D02*
X0036112Y0115666D01*
X0035114Y0114668D02*
X0023443Y0114668D01*
X0023443Y0115666D02*
X0025149Y0115666D01*
X0024103Y0116665D02*
X0023443Y0116665D01*
X0023443Y0117663D02*
X0023595Y0117663D01*
X0024843Y0113669D02*
X0034115Y0113669D01*
X0033117Y0112670D02*
X0025054Y0112670D01*
X0025054Y0111672D02*
X0032118Y0111672D01*
X0031120Y0110673D02*
X0025054Y0110673D01*
X0025054Y0109675D02*
X0030121Y0109675D01*
X0029123Y0108676D02*
X0025054Y0108676D01*
X0024620Y0107678D02*
X0028989Y0107678D01*
X0028989Y0106679D02*
X0012559Y0106679D01*
X0013558Y0105681D02*
X0028989Y0105681D01*
X0028989Y0104682D02*
X0014556Y0104682D01*
X0014980Y0107678D02*
X0014012Y0107678D01*
X0014012Y0108676D02*
X0014980Y0108676D01*
X0014980Y0109675D02*
X0014012Y0109675D01*
X0014012Y0111672D02*
X0014980Y0111672D01*
X0014980Y0112670D02*
X0014012Y0112670D01*
X0014012Y0113669D02*
X0014980Y0113669D01*
X0015386Y0115096D02*
X0012933Y0115096D01*
X0012933Y0118687D01*
X0012933Y0118868D01*
X0012752Y0118868D01*
X0012752Y0122458D01*
X0010299Y0122458D01*
X0009588Y0122317D01*
X0008918Y0122039D01*
X0008315Y0121637D01*
X0007802Y0121124D01*
X0007399Y0120521D01*
X0007122Y0119851D01*
X0006980Y0119140D01*
X0006980Y0118868D01*
X0012752Y0118868D01*
X0012752Y0118687D01*
X0006980Y0118687D01*
X0006980Y0118415D01*
X0007122Y0117704D01*
X0007399Y0117034D01*
X0007802Y0116431D01*
X0008315Y0115918D01*
X0008918Y0115515D01*
X0009588Y0115238D01*
X0010299Y0115096D01*
X0012752Y0115096D01*
X0012752Y0118687D01*
X0012933Y0118687D01*
X0018705Y0118687D01*
X0018705Y0118415D01*
X0018563Y0117704D01*
X0018286Y0117034D01*
X0017883Y0116431D01*
X0017370Y0115918D01*
X0016767Y0115515D01*
X0016097Y0115238D01*
X0015386Y0115096D01*
X0016993Y0115666D02*
X0019243Y0115666D01*
X0019243Y0114668D02*
X0004543Y0114668D01*
X0004543Y0115666D02*
X0008692Y0115666D01*
X0007646Y0116665D02*
X0004543Y0116665D01*
X0004543Y0117663D02*
X0007139Y0117663D01*
X0006980Y0118662D02*
X0004543Y0118662D01*
X0004543Y0119660D02*
X0007084Y0119660D01*
X0007491Y0120659D02*
X0004543Y0120659D01*
X0004543Y0121657D02*
X0008346Y0121657D01*
X0004543Y0122656D02*
X0019243Y0122656D01*
X0019243Y0123654D02*
X0004543Y0123654D01*
X0004543Y0124653D02*
X0019243Y0124653D01*
X0019243Y0125651D02*
X0004543Y0125651D01*
X0004543Y0126650D02*
X0019243Y0126650D01*
X0019243Y0127648D02*
X0004543Y0127648D01*
X0004543Y0128647D02*
X0020234Y0128647D01*
X0021233Y0129645D02*
X0004543Y0129645D01*
X0004543Y0130644D02*
X0022231Y0130644D01*
X0021353Y0129765D02*
X0021353Y0129765D01*
X0027599Y0131642D02*
X0004543Y0131642D01*
X0012933Y0122458D02*
X0012933Y0118868D01*
X0018705Y0118868D01*
X0018705Y0119140D01*
X0018563Y0119851D01*
X0018286Y0120521D01*
X0017883Y0121124D01*
X0017370Y0121637D01*
X0016767Y0122039D01*
X0016097Y0122317D01*
X0015386Y0122458D01*
X0012933Y0122458D01*
X0012933Y0121657D02*
X0012752Y0121657D01*
X0012752Y0120659D02*
X0012933Y0120659D01*
X0012933Y0119660D02*
X0012752Y0119660D01*
X0012752Y0118662D02*
X0012933Y0118662D01*
X0012933Y0117663D02*
X0012752Y0117663D01*
X0012752Y0116665D02*
X0012933Y0116665D01*
X0012933Y0115666D02*
X0012752Y0115666D01*
X0018039Y0116665D02*
X0019243Y0116665D01*
X0019243Y0117663D02*
X0018546Y0117663D01*
X0018705Y0118662D02*
X0019243Y0118662D01*
X0019243Y0119660D02*
X0018601Y0119660D01*
X0018194Y0120659D02*
X0019243Y0120659D01*
X0019243Y0121657D02*
X0017339Y0121657D01*
X0029209Y0118662D02*
X0029390Y0118662D01*
X0029390Y0117663D02*
X0029209Y0117663D01*
X0029209Y0116665D02*
X0029390Y0116665D01*
X0029390Y0115666D02*
X0029209Y0115666D01*
X0017758Y0107678D02*
X0017644Y0107678D01*
X0005240Y0094697D02*
X0004543Y0094697D01*
X0004543Y0093699D02*
X0005324Y0093699D01*
X0004986Y0068736D02*
X0004543Y0068736D01*
X0004543Y0063743D02*
X0013436Y0063743D01*
X0009980Y0062745D02*
X0009012Y0062745D01*
X0009012Y0061746D02*
X0009980Y0061746D01*
X0009980Y0060748D02*
X0009012Y0060748D01*
X0009012Y0059749D02*
X0004543Y0059749D01*
X0004543Y0058751D02*
X0006028Y0058751D01*
X0006028Y0057752D02*
X0004543Y0057752D01*
X0004543Y0056754D02*
X0006168Y0056754D01*
X0006952Y0055755D02*
X0004543Y0055755D01*
X0004543Y0054757D02*
X0005762Y0054757D01*
X0004572Y0053758D02*
X0004543Y0053758D01*
X0004543Y0060748D02*
X0006028Y0060748D01*
X0006028Y0061746D02*
X0004543Y0061746D01*
X0004543Y0062745D02*
X0006154Y0062745D01*
X0018918Y0055755D02*
X0027443Y0055755D01*
X0027443Y0054757D02*
X0019923Y0054757D01*
X0021113Y0053758D02*
X0027629Y0053758D01*
X0027671Y0052760D02*
X0022007Y0052760D01*
X0022583Y0051761D02*
X0027443Y0051761D01*
X0027443Y0050763D02*
X0023160Y0050763D01*
X0023736Y0049764D02*
X0027443Y0049764D01*
X0027443Y0048766D02*
X0023917Y0048766D01*
X0023743Y0049753D02*
X0023743Y0049753D01*
X0024093Y0047767D02*
X0027443Y0047767D01*
X0027443Y0046769D02*
X0024269Y0046769D01*
X0024440Y0045770D02*
X0026782Y0045770D01*
X0026331Y0044772D02*
X0024264Y0044772D01*
X0024088Y0043773D02*
X0026068Y0043773D01*
X0026068Y0042775D02*
X0023912Y0042775D01*
X0023743Y0041818D02*
X0023743Y0041818D01*
X0023719Y0041776D02*
X0026341Y0041776D01*
X0026804Y0040778D02*
X0023142Y0040778D01*
X0022566Y0039779D02*
X0027803Y0039779D01*
X0032882Y0039779D02*
X0037803Y0039779D01*
X0037921Y0039661D02*
X0036719Y0040864D01*
X0036068Y0042435D01*
X0036068Y0044135D01*
X0036719Y0045707D01*
X0037921Y0046909D01*
X0039492Y0047560D01*
X0041193Y0047560D01*
X0042764Y0046909D01*
X0043967Y0045707D01*
X0044617Y0044135D01*
X0044617Y0042435D01*
X0043967Y0040864D01*
X0042764Y0039661D01*
X0041193Y0039010D01*
X0039492Y0039010D01*
X0037921Y0039661D01*
X0036804Y0040778D02*
X0033881Y0040778D01*
X0034345Y0041776D02*
X0036341Y0041776D01*
X0036068Y0042775D02*
X0034617Y0042775D01*
X0034617Y0043773D02*
X0036068Y0043773D01*
X0036331Y0044772D02*
X0034354Y0044772D01*
X0033903Y0045770D02*
X0036782Y0045770D01*
X0037781Y0046769D02*
X0033243Y0046769D01*
X0033243Y0047767D02*
X0118243Y0047767D01*
X0117781Y0046769D02*
X0112480Y0046769D01*
X0112478Y0046770D02*
X0111907Y0047061D01*
X0111297Y0047260D01*
X0110663Y0047360D01*
X0110630Y0047360D01*
X0110630Y0043573D01*
X0110055Y0043573D01*
X0110055Y0047360D01*
X0110022Y0047360D01*
X0109388Y0047260D01*
X0108778Y0047061D01*
X0108207Y0046770D01*
X0107688Y0046393D01*
X0107234Y0045940D01*
X0106857Y0045421D01*
X0106566Y0044849D01*
X0106368Y0044239D01*
X0106268Y0043606D01*
X0106268Y0043573D01*
X0110055Y0043573D01*
X0110055Y0042998D01*
X0106268Y0042998D01*
X0106268Y0042964D01*
X0106368Y0042331D01*
X0106566Y0041721D01*
X0106857Y0041149D01*
X0107234Y0040631D01*
X0107688Y0040177D01*
X0108207Y0039800D01*
X0108778Y0039509D01*
X0109388Y0039311D01*
X0110022Y0039210D01*
X0110055Y0039210D01*
X0110055Y0042998D01*
X0110630Y0042998D01*
X0110630Y0043573D01*
X0114417Y0043573D01*
X0114417Y0043606D01*
X0114317Y0044239D01*
X0114119Y0044849D01*
X0113828Y0045421D01*
X0113451Y0045940D01*
X0112997Y0046393D01*
X0112478Y0046770D01*
X0113574Y0045770D02*
X0116782Y0045770D01*
X0116331Y0044772D02*
X0114144Y0044772D01*
X0114391Y0043773D02*
X0116068Y0043773D01*
X0116068Y0042775D02*
X0114387Y0042775D01*
X0114417Y0042964D02*
X0114417Y0042998D01*
X0110630Y0042998D01*
X0110630Y0039210D01*
X0110663Y0039210D01*
X0111297Y0039311D01*
X0111907Y0039509D01*
X0112478Y0039800D01*
X0112997Y0040177D01*
X0113451Y0040631D01*
X0113828Y0041149D01*
X0114119Y0041721D01*
X0114317Y0042331D01*
X0114417Y0042964D01*
X0114137Y0041776D02*
X0116341Y0041776D01*
X0116804Y0040778D02*
X0113557Y0040778D01*
X0112437Y0039779D02*
X0117803Y0039779D01*
X0110630Y0039779D02*
X0110055Y0039779D01*
X0110055Y0040778D02*
X0110630Y0040778D01*
X0110630Y0041776D02*
X0110055Y0041776D01*
X0110055Y0042775D02*
X0110630Y0042775D01*
X0110630Y0043773D02*
X0110055Y0043773D01*
X0110055Y0044772D02*
X0110630Y0044772D01*
X0110630Y0045770D02*
X0110055Y0045770D01*
X0110055Y0046769D02*
X0110630Y0046769D01*
X0108205Y0046769D02*
X0102904Y0046769D01*
X0102764Y0046909D02*
X0103967Y0045707D01*
X0104617Y0044135D01*
X0104617Y0042435D01*
X0103967Y0040864D01*
X0102764Y0039661D01*
X0101193Y0039010D01*
X0099492Y0039010D01*
X0097921Y0039661D01*
X0096719Y0040864D01*
X0096068Y0042435D01*
X0096068Y0044135D01*
X0096719Y0045707D01*
X0097921Y0046909D01*
X0099492Y0047560D01*
X0101193Y0047560D01*
X0102764Y0046909D01*
X0103903Y0045770D02*
X0107111Y0045770D01*
X0106541Y0044772D02*
X0104354Y0044772D01*
X0104617Y0043773D02*
X0106294Y0043773D01*
X0106298Y0042775D02*
X0104617Y0042775D01*
X0104345Y0041776D02*
X0106548Y0041776D01*
X0107128Y0040778D02*
X0103881Y0040778D01*
X0102882Y0039779D02*
X0108248Y0039779D01*
X0097803Y0039779D02*
X0092882Y0039779D01*
X0093881Y0040778D02*
X0096804Y0040778D01*
X0096341Y0041776D02*
X0094345Y0041776D01*
X0094617Y0042775D02*
X0096068Y0042775D01*
X0096068Y0043773D02*
X0094617Y0043773D01*
X0094354Y0044772D02*
X0096331Y0044772D01*
X0096782Y0045770D02*
X0093903Y0045770D01*
X0092904Y0046769D02*
X0097781Y0046769D01*
X0090920Y0051761D02*
X0114765Y0051761D01*
X0114674Y0051852D02*
X0114953Y0051573D01*
X0115295Y0051376D01*
X0115677Y0051273D01*
X0117358Y0051273D01*
X0117358Y0054454D01*
X0114374Y0054454D01*
X0114374Y0052576D01*
X0114476Y0052194D01*
X0114674Y0051852D01*
X0114374Y0052760D02*
X0111629Y0052760D01*
X0111629Y0052758D02*
X0110633Y0051762D01*
X0105288Y0051762D01*
X0104292Y0052758D01*
X0104292Y0056332D01*
X0105288Y0057328D01*
X0110633Y0057328D01*
X0111629Y0056332D01*
X0111629Y0052758D01*
X0111629Y0053758D02*
X0114374Y0053758D01*
X0114374Y0055755D02*
X0111629Y0055755D01*
X0111629Y0054757D02*
X0117358Y0054757D01*
X0117358Y0053758D02*
X0118327Y0053758D01*
X0118327Y0052760D02*
X0117358Y0052760D01*
X0117358Y0051761D02*
X0118327Y0051761D01*
X0114374Y0056754D02*
X0111207Y0056754D01*
X0114516Y0057752D02*
X0103943Y0057752D01*
X0103943Y0056754D02*
X0104714Y0056754D01*
X0104292Y0055755D02*
X0103943Y0055755D01*
X0103784Y0054757D02*
X0104292Y0054757D01*
X0104292Y0053758D02*
X0102786Y0053758D01*
X0101787Y0052760D02*
X0104292Y0052760D01*
X0103943Y0058751D02*
X0114185Y0058751D01*
X0104781Y0059749D02*
X0103943Y0059749D01*
X0103943Y0060748D02*
X0104292Y0060748D01*
X0104292Y0061746D02*
X0103851Y0061746D01*
X0104292Y0062745D02*
X0102853Y0062745D01*
X0101854Y0063743D02*
X0104292Y0063743D01*
X0111105Y0069735D02*
X0114465Y0069735D01*
X0114374Y0070733D02*
X0111629Y0070733D01*
X0107145Y0076724D02*
X0103943Y0076724D01*
X0103943Y0077723D02*
X0104308Y0077723D01*
X0104292Y0078721D02*
X0103943Y0078721D01*
X0104292Y0079720D02*
X0103378Y0079720D01*
X0104292Y0080718D02*
X0102379Y0080718D01*
X0100988Y0081717D02*
X0104697Y0081717D01*
X0094256Y0058751D02*
X0091500Y0058751D01*
X0091169Y0057752D02*
X0094256Y0057752D01*
X0094323Y0056754D02*
X0091311Y0056754D01*
X0091311Y0055755D02*
X0094056Y0055755D01*
X0094056Y0054757D02*
X0088327Y0054757D01*
X0088327Y0051761D02*
X0087358Y0051761D01*
X0091311Y0052760D02*
X0094056Y0052760D01*
X0094056Y0053758D02*
X0091311Y0053758D01*
X0067781Y0046769D02*
X0062904Y0046769D01*
X0062764Y0046909D02*
X0063967Y0045707D01*
X0064617Y0044135D01*
X0064617Y0042435D01*
X0063967Y0040864D01*
X0062764Y0039661D01*
X0061193Y0039010D01*
X0059492Y0039010D01*
X0057921Y0039661D01*
X0056719Y0040864D01*
X0056068Y0042435D01*
X0056068Y0044135D01*
X0056719Y0045707D01*
X0057921Y0046909D01*
X0059492Y0047560D01*
X0061193Y0047560D01*
X0062764Y0046909D01*
X0063903Y0045770D02*
X0066782Y0045770D01*
X0066331Y0044772D02*
X0064354Y0044772D01*
X0064617Y0043773D02*
X0066068Y0043773D01*
X0066068Y0042775D02*
X0064617Y0042775D01*
X0064345Y0041776D02*
X0066341Y0041776D01*
X0066804Y0040778D02*
X0063881Y0040778D01*
X0062882Y0039779D02*
X0067803Y0039779D01*
X0057803Y0039779D02*
X0052437Y0039779D01*
X0052478Y0039800D02*
X0052997Y0040177D01*
X0053451Y0040631D01*
X0053828Y0041149D01*
X0054119Y0041721D01*
X0054317Y0042331D01*
X0054417Y0042964D01*
X0054417Y0042998D01*
X0050630Y0042998D01*
X0050630Y0043573D01*
X0050055Y0043573D01*
X0050055Y0047360D01*
X0050022Y0047360D01*
X0049388Y0047260D01*
X0048778Y0047061D01*
X0048207Y0046770D01*
X0047688Y0046393D01*
X0047234Y0045940D01*
X0046857Y0045421D01*
X0046566Y0044849D01*
X0046368Y0044239D01*
X0046268Y0043606D01*
X0046268Y0043573D01*
X0050055Y0043573D01*
X0050055Y0042998D01*
X0046268Y0042998D01*
X0046268Y0042964D01*
X0046368Y0042331D01*
X0046566Y0041721D01*
X0046857Y0041149D01*
X0047234Y0040631D01*
X0047688Y0040177D01*
X0048207Y0039800D01*
X0048778Y0039509D01*
X0049388Y0039311D01*
X0050022Y0039210D01*
X0050055Y0039210D01*
X0050055Y0042998D01*
X0050630Y0042998D01*
X0050630Y0039210D01*
X0050663Y0039210D01*
X0051297Y0039311D01*
X0051907Y0039509D01*
X0052478Y0039800D01*
X0053557Y0040778D02*
X0056804Y0040778D01*
X0056341Y0041776D02*
X0054137Y0041776D01*
X0054387Y0042775D02*
X0056068Y0042775D01*
X0056068Y0043773D02*
X0054391Y0043773D01*
X0054417Y0043606D02*
X0054317Y0044239D01*
X0054119Y0044849D01*
X0053828Y0045421D01*
X0053451Y0045940D01*
X0052997Y0046393D01*
X0052478Y0046770D01*
X0051907Y0047061D01*
X0051297Y0047260D01*
X0050663Y0047360D01*
X0050630Y0047360D01*
X0050630Y0043573D01*
X0054417Y0043573D01*
X0054417Y0043606D01*
X0054144Y0044772D02*
X0056331Y0044772D01*
X0056782Y0045770D02*
X0053574Y0045770D01*
X0052480Y0046769D02*
X0057781Y0046769D01*
X0062637Y0049764D02*
X0035013Y0049764D01*
X0033243Y0048766D02*
X0063274Y0048766D01*
X0062452Y0050763D02*
X0042259Y0050763D01*
X0042354Y0051761D02*
X0062618Y0051761D01*
X0063229Y0052760D02*
X0042354Y0052760D01*
X0039173Y0052760D02*
X0038205Y0052760D01*
X0038205Y0051761D02*
X0039173Y0051761D01*
X0039173Y0050763D02*
X0038205Y0050763D01*
X0042904Y0046769D02*
X0048205Y0046769D01*
X0047111Y0045770D02*
X0043903Y0045770D01*
X0044354Y0044772D02*
X0046541Y0044772D01*
X0046294Y0043773D02*
X0044617Y0043773D01*
X0044617Y0042775D02*
X0046298Y0042775D01*
X0046548Y0041776D02*
X0044345Y0041776D01*
X0043881Y0040778D02*
X0047128Y0040778D01*
X0048248Y0039779D02*
X0042882Y0039779D01*
X0050055Y0039779D02*
X0050630Y0039779D01*
X0050630Y0040778D02*
X0050055Y0040778D01*
X0050055Y0041776D02*
X0050630Y0041776D01*
X0050630Y0042775D02*
X0050055Y0042775D01*
X0050055Y0043773D02*
X0050630Y0043773D01*
X0050630Y0044772D02*
X0050055Y0044772D01*
X0050055Y0045770D02*
X0050630Y0045770D01*
X0050630Y0046769D02*
X0050055Y0046769D01*
X0051189Y0060785D02*
X0061996Y0060785D01*
X0028203Y0061746D02*
X0019857Y0061746D01*
X0019857Y0060748D02*
X0027602Y0060748D01*
X0027443Y0059749D02*
X0019857Y0059749D01*
X0019857Y0058751D02*
X0027443Y0058751D01*
X0027443Y0057752D02*
X0019857Y0057752D01*
X0019857Y0056754D02*
X0027443Y0056754D01*
X0050705Y0096694D02*
X0051673Y0096694D01*
X0051673Y0097693D02*
X0050705Y0097693D01*
X0050705Y0098691D02*
X0051673Y0098691D01*
X0063843Y0147785D02*
X0063890Y0147832D01*
X0067469Y0147832D01*
X0067469Y0151769D02*
X0067453Y0151785D01*
X0067469Y0153738D02*
X0072390Y0153738D01*
X0075343Y0150785D01*
X0067469Y0153738D02*
X0061890Y0153738D01*
X0060343Y0155285D01*
X0086511Y0181568D02*
X0089056Y0181568D01*
X0089424Y0182566D02*
X0085946Y0182566D01*
X0097599Y0182566D02*
X0099536Y0182566D01*
X0099038Y0181568D02*
X0097968Y0181568D01*
X0097968Y0180569D02*
X0098952Y0180569D01*
X0099217Y0179571D02*
X0097968Y0179571D01*
X0101843Y0176116D02*
X0102173Y0175785D01*
X0104468Y0179571D02*
X0109174Y0179571D01*
X0109174Y0180569D02*
X0104733Y0180569D01*
X0104647Y0181568D02*
X0109174Y0181568D01*
X0109739Y0182566D02*
X0104149Y0182566D01*
X0106515Y0178572D02*
X0109174Y0178572D01*
X0108661Y0177574D02*
X0106629Y0177574D01*
X0106629Y0176575D02*
X0107663Y0176575D01*
X0106664Y0175577D02*
X0106629Y0175577D01*
X0116511Y0181568D02*
X0119056Y0181568D01*
X0119424Y0182566D02*
X0115946Y0182566D01*
X0159870Y0091702D02*
X0160374Y0091702D01*
X0160374Y0090703D02*
X0158872Y0090703D01*
X0159254Y0091085D02*
X0159254Y0091085D01*
X0160374Y0089705D02*
X0157873Y0089705D01*
X0147657Y0085711D02*
X0145443Y0085711D01*
X0145443Y0084712D02*
X0145682Y0084712D01*
X0145512Y0087708D02*
X0145054Y0087708D01*
D34*
X0146843Y0090285D03*
X0146843Y0097785D03*
X0154843Y0094785D03*
X0155343Y0082785D03*
X0147843Y0082785D03*
X0152843Y0070785D03*
X0160343Y0062285D03*
X0143343Y0070285D03*
X0139343Y0070285D03*
X0135343Y0070285D03*
X0128343Y0065285D03*
X0125343Y0068285D03*
X0122843Y0065285D03*
X0122843Y0058285D03*
X0122843Y0053285D03*
X0128343Y0054785D03*
X0112843Y0053285D03*
X0092843Y0056285D03*
X0075343Y0050785D03*
X0065343Y0050785D03*
X0057343Y0064285D03*
X0047843Y0071785D03*
X0036843Y0068285D03*
X0030343Y0059785D03*
X0024343Y0059785D03*
X0024343Y0077785D03*
X0020843Y0095785D03*
X0035843Y0106285D03*
X0037843Y0120785D03*
X0045343Y0131285D03*
X0050343Y0132785D03*
X0050343Y0126285D03*
X0050843Y0120785D03*
X0043843Y0140785D03*
X0045343Y0151785D03*
X0055843Y0151785D03*
X0055843Y0145785D03*
X0058343Y0142785D03*
X0060843Y0145785D03*
X0060343Y0160785D03*
X0051343Y0179285D03*
X0033343Y0160785D03*
X0027843Y0179285D03*
X0007843Y0160285D03*
X0007843Y0135285D03*
X0008343Y0110785D03*
X0006343Y0103785D03*
X0041843Y0088285D03*
X0055343Y0084785D03*
X0057843Y0096285D03*
X0077343Y0096285D03*
X0082343Y0085285D03*
X0077843Y0082785D03*
X0092343Y0085285D03*
X0095843Y0099285D03*
X0091843Y0104285D03*
X0091843Y0110785D03*
X0101343Y0115285D03*
X0105343Y0108785D03*
X0112843Y0112285D03*
X0112843Y0115785D03*
X0111843Y0119785D03*
X0110343Y0123785D03*
X0113843Y0123785D03*
X0106343Y0121285D03*
X0093843Y0121785D03*
X0099343Y0137785D03*
X0110343Y0135785D03*
X0123343Y0135785D03*
X0134343Y0121785D03*
X0140843Y0123785D03*
X0145343Y0118285D03*
X0144343Y0114285D03*
X0141343Y0110285D03*
X0148843Y0123785D03*
X0148843Y0134285D03*
X0149843Y0159285D03*
X0142843Y0165285D03*
X0137862Y0168765D03*
X0128843Y0160785D03*
X0123843Y0160785D03*
X0106843Y0180785D03*
X0101843Y0180785D03*
X0088189Y0175785D03*
X0088343Y0162285D03*
X0088843Y0156785D03*
X0099343Y0151285D03*
X0078843Y0136285D03*
X0072843Y0119285D03*
X0077343Y0117785D03*
X0077343Y0109285D03*
X0107843Y0098285D03*
X0115343Y0098285D03*
X0115843Y0105285D03*
X0128843Y0093785D03*
X0125343Y0088285D03*
X0128843Y0085285D03*
X0132843Y0082785D03*
X0120843Y0085285D03*
X0074343Y0063785D03*
X0075343Y0038285D03*
X0044843Y0051785D03*
X0024343Y0039285D03*
X0005343Y0055785D03*
X0074343Y0179285D03*
X0148343Y0180785D03*
X0158843Y0169285D03*
X0155343Y0038785D03*
D35*
X0143343Y0070285D02*
X0143343Y0085285D01*
X0140843Y0087785D01*
X0140843Y0089939D01*
X0141189Y0090285D01*
X0146843Y0090285D01*
X0150843Y0094285D01*
X0150843Y0112785D01*
X0145343Y0118285D01*
X0144343Y0114285D02*
X0146843Y0111785D01*
X0146843Y0097785D01*
X0141189Y0097785D01*
X0137843Y0094439D01*
X0137843Y0087785D01*
X0139343Y0086285D01*
X0139343Y0070285D01*
X0122843Y0053285D02*
X0122843Y0050285D01*
X0120343Y0047785D01*
X0120343Y0043285D01*
X0101843Y0055785D02*
X0101843Y0060785D01*
X0100602Y0062025D01*
X0097724Y0062025D01*
X0101843Y0055785D02*
X0100602Y0054545D01*
X0097724Y0054545D01*
X0097724Y0072045D02*
X0100602Y0072045D01*
X0101843Y0073285D01*
X0101843Y0078285D01*
X0100602Y0079525D01*
X0097724Y0079525D01*
X0097528Y0093817D02*
X0101071Y0093817D01*
X0101071Y0101557D01*
X0097843Y0104785D01*
X0097843Y0118785D01*
X0100343Y0121285D01*
X0106343Y0121285D01*
X0110343Y0123785D02*
X0111343Y0124785D01*
X0111343Y0127395D01*
X0111701Y0127754D01*
X0108157Y0127754D02*
X0108157Y0129899D01*
X0106386Y0131671D01*
X0110343Y0135785D02*
X0111189Y0136632D01*
X0111189Y0146061D01*
X0128843Y0160785D02*
X0134496Y0160785D01*
X0141189Y0160785D02*
X0141583Y0160391D01*
X0141583Y0152616D01*
X0137843Y0143954D02*
X0137843Y0139132D01*
X0141189Y0135785D01*
X0141189Y0128285D01*
X0140843Y0127939D01*
X0140843Y0123785D01*
X0123728Y0110785D02*
X0121957Y0109013D01*
X0119811Y0109013D01*
X0119539Y0112285D02*
X0119811Y0112557D01*
X0119539Y0112285D02*
X0112843Y0112285D01*
X0112843Y0115785D02*
X0119496Y0115785D01*
X0119811Y0116100D01*
X0119811Y0123187D02*
X0119441Y0123187D01*
X0118843Y0123785D01*
X0113843Y0123785D01*
X0101343Y0115285D02*
X0101343Y0105785D01*
X0104614Y0102513D01*
X0104614Y0093817D01*
X0107843Y0094002D02*
X0108157Y0093817D01*
X0107843Y0094002D02*
X0107843Y0098285D01*
X0095843Y0099285D02*
X0095843Y0112785D01*
X0088984Y0119643D01*
X0085874Y0119643D01*
X0085874Y0105470D02*
X0083728Y0105470D01*
X0081957Y0103699D01*
X0051843Y0139785D02*
X0046843Y0139785D01*
X0044406Y0137348D01*
X0041406Y0137348D01*
X0041406Y0144722D02*
X0045469Y0148785D01*
X0058343Y0148785D01*
X0059343Y0149785D01*
X0067453Y0149785D01*
X0067469Y0149801D01*
X0067469Y0151769D02*
X0055858Y0151769D01*
X0055843Y0151785D01*
X0055843Y0145785D02*
X0055843Y0143785D01*
X0051843Y0139785D01*
X0037843Y0153785D02*
X0034343Y0150285D01*
X0034343Y0148285D01*
X0033843Y0147785D01*
X0029973Y0147785D01*
X0029843Y0148101D01*
X0029843Y0156785D01*
X0037843Y0156785D01*
X0037843Y0153785D01*
X0037843Y0153965D02*
X0029843Y0153965D01*
X0029843Y0154763D02*
X0037843Y0154763D01*
X0037843Y0155562D02*
X0029843Y0155562D01*
X0029843Y0156360D02*
X0037843Y0156360D01*
X0037224Y0153166D02*
X0029843Y0153166D01*
X0029843Y0152368D02*
X0036425Y0152368D01*
X0035627Y0151569D02*
X0029843Y0151569D01*
X0029843Y0150771D02*
X0034828Y0150771D01*
X0034343Y0149972D02*
X0029843Y0149972D01*
X0029843Y0149174D02*
X0034343Y0149174D01*
X0034343Y0148375D02*
X0029843Y0148375D01*
X0031563Y0140706D02*
X0026421Y0140706D01*
X0019343Y0147785D01*
X0019343Y0160632D01*
X0019496Y0160785D01*
X0023453Y0128895D02*
X0021343Y0126785D01*
X0021343Y0110939D01*
X0021189Y0110785D01*
X0029843Y0122285D02*
X0029843Y0123469D01*
X0029973Y0123785D01*
X0037843Y0123785D01*
X0039343Y0122285D01*
X0039343Y0119785D01*
X0037343Y0119785D01*
X0034843Y0122285D01*
X0029843Y0122285D01*
X0029843Y0122823D02*
X0038805Y0122823D01*
X0039343Y0122024D02*
X0035103Y0122024D01*
X0035902Y0121226D02*
X0039343Y0121226D01*
X0039343Y0120427D02*
X0036700Y0120427D01*
X0038006Y0123621D02*
X0029905Y0123621D01*
X0031563Y0128895D02*
X0023453Y0128895D01*
X0031189Y0090785D02*
X0031189Y0067939D01*
X0042343Y0056785D01*
X0071343Y0056785D01*
X0074343Y0059785D01*
X0074343Y0063785D01*
X0075343Y0050785D02*
X0065343Y0050785D01*
X0052961Y0067045D02*
X0047583Y0067045D01*
X0042724Y0071903D01*
X0042724Y0074525D01*
X0119811Y0101927D02*
X0121957Y0101927D01*
X0123728Y0103699D01*
X0080264Y0158659D02*
X0080343Y0158738D01*
X0080343Y0161285D01*
X0081343Y0162285D01*
X0088343Y0162285D01*
X0090252Y0168785D02*
X0093512Y0172045D01*
X0094083Y0172045D01*
X0096843Y0169285D01*
X0109689Y0169285D01*
X0112843Y0172439D01*
X0112449Y0172045D01*
X0109843Y0175785D02*
X0105843Y0171785D01*
X0098343Y0171785D01*
X0097843Y0172285D01*
X0097843Y0175285D01*
X0097343Y0175785D01*
X0088189Y0175785D01*
X0088189Y0173285D01*
X0087343Y0172439D01*
X0082843Y0172439D01*
X0082689Y0172285D01*
X0078843Y0167285D02*
X0076343Y0164785D01*
X0076343Y0158675D01*
X0076327Y0158659D01*
X0078295Y0158659D02*
X0078343Y0158706D01*
X0078343Y0163285D01*
X0080343Y0165285D01*
X0142843Y0165285D01*
X0137862Y0168765D02*
X0128323Y0168765D01*
X0126843Y0167285D01*
X0078843Y0167285D01*
X0076843Y0168785D02*
X0072343Y0164285D01*
X0072343Y0158706D01*
X0072390Y0158659D01*
X0076843Y0168785D02*
X0090252Y0168785D01*
X0093118Y0179132D02*
X0082843Y0179132D01*
X0093118Y0179132D02*
X0093512Y0179525D01*
X0101843Y0180785D02*
X0101843Y0176116D01*
X0109843Y0175785D02*
X0116843Y0175785D01*
X0120583Y0172045D01*
X0123512Y0172045D01*
X0123118Y0179132D02*
X0123512Y0179525D01*
X0123118Y0179132D02*
X0112843Y0179132D01*
D36*
X0072689Y0136785D02*
X0072843Y0136632D01*
X0072689Y0136785D02*
X0068843Y0136785D01*
X0068343Y0136285D01*
X0068343Y0121785D01*
X0067343Y0120785D01*
X0063689Y0120785D01*
X0063689Y0130785D02*
X0063689Y0138285D01*
X0048492Y0144722D02*
X0047780Y0144722D01*
X0043843Y0140785D01*
X0043083Y0109525D02*
X0040843Y0107285D01*
X0040843Y0101785D01*
X0040843Y0099439D01*
X0044496Y0095785D01*
X0044496Y0095132D01*
X0049343Y0090285D01*
X0066843Y0090285D01*
X0070264Y0086864D01*
X0070264Y0078285D01*
X0087843Y0061632D02*
X0097331Y0061632D01*
X0097724Y0062025D01*
X0107961Y0062025D02*
X0117449Y0062025D01*
X0130083Y0062025D01*
X0131843Y0063785D01*
X0131843Y0079785D01*
X0132843Y0080785D01*
X0132843Y0082785D01*
X0125343Y0079132D02*
X0125343Y0088285D01*
X0115343Y0093915D02*
X0115244Y0093817D01*
X0115343Y0093915D02*
X0115343Y0098285D01*
X0091843Y0104285D02*
X0089484Y0101927D01*
X0085874Y0101927D01*
X0077343Y0109285D02*
X0072996Y0109285D01*
X0072843Y0109132D01*
X0065343Y0109132D01*
X0064949Y0109525D01*
X0055461Y0109525D01*
X0045224Y0109525D02*
X0043083Y0109525D01*
X0117449Y0062025D02*
X0117843Y0061632D01*
D37*
X0122843Y0058285D02*
X0135996Y0058285D01*
X0135843Y0053285D02*
X0145843Y0053285D01*
X0149343Y0056785D01*
X0149343Y0058132D01*
X0149496Y0058285D01*
X0149496Y0065785D01*
X0149496Y0067439D01*
X0152843Y0070785D01*
X0125343Y0079132D02*
X0117843Y0079132D01*
X0117449Y0079525D01*
X0107961Y0079525D01*
X0097724Y0079525D02*
X0088236Y0079525D01*
X0087843Y0079132D01*
X0087843Y0079785D01*
X0082343Y0085285D01*
X0070264Y0078285D02*
X0068689Y0076710D01*
X0068689Y0068285D01*
X0078843Y0068285D01*
X0080343Y0066785D01*
X0087843Y0066785D01*
X0087843Y0061632D01*
X0087843Y0066785D02*
X0121343Y0066785D01*
X0122843Y0065285D01*
X0063689Y0120785D02*
X0062843Y0121632D01*
X0062843Y0123785D01*
X0060343Y0126285D01*
X0050343Y0126285D01*
X0050291Y0126336D01*
X0031563Y0126336D01*
X0031563Y0145234D02*
X0036291Y0145234D01*
X0037343Y0146285D01*
X0037343Y0148785D01*
X0040343Y0151785D01*
X0045343Y0151785D01*
X0049280Y0136848D02*
X0050343Y0135785D01*
X0050343Y0132785D01*
X0041843Y0088285D02*
X0044496Y0085632D01*
X0044496Y0080785D01*
X0042724Y0079013D01*
X0042724Y0074525D01*
X0052961Y0074525D02*
X0056661Y0074525D01*
X0060421Y0078285D01*
X0030343Y0059785D02*
X0030343Y0054785D01*
X0031843Y0053285D01*
X0031996Y0053285D01*
X0030343Y0051632D01*
X0030343Y0043285D01*
D38*
X0040843Y0101785D02*
X0041102Y0102045D01*
X0045224Y0102045D01*
X0072496Y0136632D02*
X0071343Y0137785D01*
X0071343Y0140285D01*
X0072496Y0136632D02*
X0072843Y0136632D01*
X0063843Y0138439D02*
X0063843Y0145785D01*
X0063843Y0147785D01*
X0063843Y0138439D02*
X0063689Y0138285D01*
X0104496Y0155510D02*
X0111189Y0155510D01*
X0118965Y0155510D01*
X0120343Y0154132D01*
X0122996Y0154132D01*
X0128343Y0148785D01*
X0128343Y0130785D01*
X0130843Y0128285D01*
X0134496Y0128285D01*
X0134343Y0128132D01*
X0134343Y0121785D01*
X0141343Y0110285D02*
X0141343Y0105439D01*
X0141189Y0105285D01*
X0119811Y0105470D02*
X0119626Y0105285D01*
X0115843Y0105285D01*
X0109343Y0104285D02*
X0115343Y0098285D01*
X0109343Y0104285D02*
X0109343Y0117285D01*
X0111843Y0119785D01*
X0119669Y0119785D01*
X0119811Y0119643D01*
X0125343Y0079132D02*
X0127996Y0079132D01*
X0129343Y0077785D01*
X0129343Y0066285D01*
X0128343Y0065285D01*
X0128343Y0054785D02*
X0128343Y0049285D01*
X0130343Y0047285D01*
X0130343Y0043285D01*
M02*
