G75*
%MOIN*%
%OFA0B0*%
%FSLAX25Y25*%
%IPPOS*%
%LPD*%
%AMOC8*
5,1,8,0,0,1.08239X$1,22.5*
%
%ADD10C,0.00000*%
%ADD11C,0.01831*%
%ADD12R,0.15748X0.15748*%
%ADD13C,0.05150*%
%ADD14C,0.00800*%
%ADD15C,0.02381*%
%ADD16C,0.01000*%
%ADD17C,0.01600*%
%ADD18C,0.02400*%
%ADD19C,0.01200*%
D10*
X0017291Y0035785D02*
X0017291Y0088285D01*
X0039291Y0088285D01*
X0039291Y0113285D01*
X0017291Y0113285D01*
X0017291Y0185785D01*
X0202291Y0185785D01*
X0202291Y0035785D01*
X0017291Y0035785D01*
X0020992Y0045785D02*
X0020994Y0045943D01*
X0021000Y0046101D01*
X0021010Y0046259D01*
X0021024Y0046417D01*
X0021042Y0046574D01*
X0021063Y0046731D01*
X0021089Y0046887D01*
X0021119Y0047043D01*
X0021152Y0047198D01*
X0021190Y0047351D01*
X0021231Y0047504D01*
X0021276Y0047656D01*
X0021325Y0047807D01*
X0021378Y0047956D01*
X0021434Y0048104D01*
X0021494Y0048250D01*
X0021558Y0048395D01*
X0021626Y0048538D01*
X0021697Y0048680D01*
X0021771Y0048820D01*
X0021849Y0048957D01*
X0021931Y0049093D01*
X0022015Y0049227D01*
X0022104Y0049358D01*
X0022195Y0049487D01*
X0022290Y0049614D01*
X0022387Y0049739D01*
X0022488Y0049861D01*
X0022592Y0049980D01*
X0022699Y0050097D01*
X0022809Y0050211D01*
X0022922Y0050322D01*
X0023037Y0050431D01*
X0023155Y0050536D01*
X0023276Y0050638D01*
X0023399Y0050738D01*
X0023525Y0050834D01*
X0023653Y0050927D01*
X0023783Y0051017D01*
X0023916Y0051103D01*
X0024051Y0051187D01*
X0024187Y0051266D01*
X0024326Y0051343D01*
X0024467Y0051415D01*
X0024609Y0051485D01*
X0024753Y0051550D01*
X0024899Y0051612D01*
X0025046Y0051670D01*
X0025195Y0051725D01*
X0025345Y0051776D01*
X0025496Y0051823D01*
X0025648Y0051866D01*
X0025801Y0051905D01*
X0025956Y0051941D01*
X0026111Y0051972D01*
X0026267Y0052000D01*
X0026423Y0052024D01*
X0026580Y0052044D01*
X0026738Y0052060D01*
X0026895Y0052072D01*
X0027054Y0052080D01*
X0027212Y0052084D01*
X0027370Y0052084D01*
X0027528Y0052080D01*
X0027687Y0052072D01*
X0027844Y0052060D01*
X0028002Y0052044D01*
X0028159Y0052024D01*
X0028315Y0052000D01*
X0028471Y0051972D01*
X0028626Y0051941D01*
X0028781Y0051905D01*
X0028934Y0051866D01*
X0029086Y0051823D01*
X0029237Y0051776D01*
X0029387Y0051725D01*
X0029536Y0051670D01*
X0029683Y0051612D01*
X0029829Y0051550D01*
X0029973Y0051485D01*
X0030115Y0051415D01*
X0030256Y0051343D01*
X0030395Y0051266D01*
X0030531Y0051187D01*
X0030666Y0051103D01*
X0030799Y0051017D01*
X0030929Y0050927D01*
X0031057Y0050834D01*
X0031183Y0050738D01*
X0031306Y0050638D01*
X0031427Y0050536D01*
X0031545Y0050431D01*
X0031660Y0050322D01*
X0031773Y0050211D01*
X0031883Y0050097D01*
X0031990Y0049980D01*
X0032094Y0049861D01*
X0032195Y0049739D01*
X0032292Y0049614D01*
X0032387Y0049487D01*
X0032478Y0049358D01*
X0032567Y0049227D01*
X0032651Y0049093D01*
X0032733Y0048957D01*
X0032811Y0048820D01*
X0032885Y0048680D01*
X0032956Y0048538D01*
X0033024Y0048395D01*
X0033088Y0048250D01*
X0033148Y0048104D01*
X0033204Y0047956D01*
X0033257Y0047807D01*
X0033306Y0047656D01*
X0033351Y0047504D01*
X0033392Y0047351D01*
X0033430Y0047198D01*
X0033463Y0047043D01*
X0033493Y0046887D01*
X0033519Y0046731D01*
X0033540Y0046574D01*
X0033558Y0046417D01*
X0033572Y0046259D01*
X0033582Y0046101D01*
X0033588Y0045943D01*
X0033590Y0045785D01*
X0033588Y0045627D01*
X0033582Y0045469D01*
X0033572Y0045311D01*
X0033558Y0045153D01*
X0033540Y0044996D01*
X0033519Y0044839D01*
X0033493Y0044683D01*
X0033463Y0044527D01*
X0033430Y0044372D01*
X0033392Y0044219D01*
X0033351Y0044066D01*
X0033306Y0043914D01*
X0033257Y0043763D01*
X0033204Y0043614D01*
X0033148Y0043466D01*
X0033088Y0043320D01*
X0033024Y0043175D01*
X0032956Y0043032D01*
X0032885Y0042890D01*
X0032811Y0042750D01*
X0032733Y0042613D01*
X0032651Y0042477D01*
X0032567Y0042343D01*
X0032478Y0042212D01*
X0032387Y0042083D01*
X0032292Y0041956D01*
X0032195Y0041831D01*
X0032094Y0041709D01*
X0031990Y0041590D01*
X0031883Y0041473D01*
X0031773Y0041359D01*
X0031660Y0041248D01*
X0031545Y0041139D01*
X0031427Y0041034D01*
X0031306Y0040932D01*
X0031183Y0040832D01*
X0031057Y0040736D01*
X0030929Y0040643D01*
X0030799Y0040553D01*
X0030666Y0040467D01*
X0030531Y0040383D01*
X0030395Y0040304D01*
X0030256Y0040227D01*
X0030115Y0040155D01*
X0029973Y0040085D01*
X0029829Y0040020D01*
X0029683Y0039958D01*
X0029536Y0039900D01*
X0029387Y0039845D01*
X0029237Y0039794D01*
X0029086Y0039747D01*
X0028934Y0039704D01*
X0028781Y0039665D01*
X0028626Y0039629D01*
X0028471Y0039598D01*
X0028315Y0039570D01*
X0028159Y0039546D01*
X0028002Y0039526D01*
X0027844Y0039510D01*
X0027687Y0039498D01*
X0027528Y0039490D01*
X0027370Y0039486D01*
X0027212Y0039486D01*
X0027054Y0039490D01*
X0026895Y0039498D01*
X0026738Y0039510D01*
X0026580Y0039526D01*
X0026423Y0039546D01*
X0026267Y0039570D01*
X0026111Y0039598D01*
X0025956Y0039629D01*
X0025801Y0039665D01*
X0025648Y0039704D01*
X0025496Y0039747D01*
X0025345Y0039794D01*
X0025195Y0039845D01*
X0025046Y0039900D01*
X0024899Y0039958D01*
X0024753Y0040020D01*
X0024609Y0040085D01*
X0024467Y0040155D01*
X0024326Y0040227D01*
X0024187Y0040304D01*
X0024051Y0040383D01*
X0023916Y0040467D01*
X0023783Y0040553D01*
X0023653Y0040643D01*
X0023525Y0040736D01*
X0023399Y0040832D01*
X0023276Y0040932D01*
X0023155Y0041034D01*
X0023037Y0041139D01*
X0022922Y0041248D01*
X0022809Y0041359D01*
X0022699Y0041473D01*
X0022592Y0041590D01*
X0022488Y0041709D01*
X0022387Y0041831D01*
X0022290Y0041956D01*
X0022195Y0042083D01*
X0022104Y0042212D01*
X0022015Y0042343D01*
X0021931Y0042477D01*
X0021849Y0042613D01*
X0021771Y0042750D01*
X0021697Y0042890D01*
X0021626Y0043032D01*
X0021558Y0043175D01*
X0021494Y0043320D01*
X0021434Y0043466D01*
X0021378Y0043614D01*
X0021325Y0043763D01*
X0021276Y0043914D01*
X0021231Y0044066D01*
X0021190Y0044219D01*
X0021152Y0044372D01*
X0021119Y0044527D01*
X0021089Y0044683D01*
X0021063Y0044839D01*
X0021042Y0044996D01*
X0021024Y0045153D01*
X0021010Y0045311D01*
X0021000Y0045469D01*
X0020994Y0045627D01*
X0020992Y0045785D01*
X0020402Y0070785D02*
X0020404Y0070862D01*
X0020410Y0070938D01*
X0020420Y0071014D01*
X0020434Y0071089D01*
X0020451Y0071164D01*
X0020473Y0071237D01*
X0020498Y0071310D01*
X0020528Y0071381D01*
X0020560Y0071450D01*
X0020597Y0071517D01*
X0020636Y0071583D01*
X0020679Y0071646D01*
X0020726Y0071707D01*
X0020775Y0071766D01*
X0020828Y0071822D01*
X0020883Y0071875D01*
X0020941Y0071925D01*
X0021001Y0071972D01*
X0021064Y0072016D01*
X0021129Y0072057D01*
X0021196Y0072094D01*
X0021265Y0072128D01*
X0021335Y0072158D01*
X0021407Y0072184D01*
X0021481Y0072206D01*
X0021555Y0072225D01*
X0021630Y0072240D01*
X0021706Y0072251D01*
X0021782Y0072258D01*
X0021859Y0072261D01*
X0021935Y0072260D01*
X0022012Y0072255D01*
X0022088Y0072246D01*
X0022164Y0072233D01*
X0022238Y0072216D01*
X0022312Y0072196D01*
X0022385Y0072171D01*
X0022456Y0072143D01*
X0022526Y0072111D01*
X0022594Y0072076D01*
X0022660Y0072037D01*
X0022724Y0071995D01*
X0022785Y0071949D01*
X0022845Y0071900D01*
X0022901Y0071849D01*
X0022955Y0071794D01*
X0023006Y0071737D01*
X0023054Y0071677D01*
X0023099Y0071615D01*
X0023140Y0071550D01*
X0023178Y0071484D01*
X0023213Y0071416D01*
X0023243Y0071345D01*
X0023271Y0071274D01*
X0023294Y0071201D01*
X0023314Y0071127D01*
X0023330Y0071052D01*
X0023342Y0070976D01*
X0023350Y0070900D01*
X0023354Y0070823D01*
X0023354Y0070747D01*
X0023350Y0070670D01*
X0023342Y0070594D01*
X0023330Y0070518D01*
X0023314Y0070443D01*
X0023294Y0070369D01*
X0023271Y0070296D01*
X0023243Y0070225D01*
X0023213Y0070154D01*
X0023178Y0070086D01*
X0023140Y0070020D01*
X0023099Y0069955D01*
X0023054Y0069893D01*
X0023006Y0069833D01*
X0022955Y0069776D01*
X0022901Y0069721D01*
X0022845Y0069670D01*
X0022785Y0069621D01*
X0022724Y0069575D01*
X0022660Y0069533D01*
X0022594Y0069494D01*
X0022526Y0069459D01*
X0022456Y0069427D01*
X0022385Y0069399D01*
X0022312Y0069374D01*
X0022238Y0069354D01*
X0022164Y0069337D01*
X0022088Y0069324D01*
X0022012Y0069315D01*
X0021935Y0069310D01*
X0021859Y0069309D01*
X0021782Y0069312D01*
X0021706Y0069319D01*
X0021630Y0069330D01*
X0021555Y0069345D01*
X0021481Y0069364D01*
X0021407Y0069386D01*
X0021335Y0069412D01*
X0021265Y0069442D01*
X0021196Y0069476D01*
X0021129Y0069513D01*
X0021064Y0069554D01*
X0021001Y0069598D01*
X0020941Y0069645D01*
X0020883Y0069695D01*
X0020828Y0069748D01*
X0020775Y0069804D01*
X0020726Y0069863D01*
X0020679Y0069924D01*
X0020636Y0069987D01*
X0020597Y0070053D01*
X0020560Y0070120D01*
X0020528Y0070189D01*
X0020498Y0070260D01*
X0020473Y0070333D01*
X0020451Y0070406D01*
X0020434Y0070481D01*
X0020420Y0070556D01*
X0020410Y0070632D01*
X0020404Y0070708D01*
X0020402Y0070785D01*
X0031229Y0070785D02*
X0031231Y0070862D01*
X0031237Y0070938D01*
X0031247Y0071014D01*
X0031261Y0071089D01*
X0031278Y0071164D01*
X0031300Y0071237D01*
X0031325Y0071310D01*
X0031355Y0071381D01*
X0031387Y0071450D01*
X0031424Y0071517D01*
X0031463Y0071583D01*
X0031506Y0071646D01*
X0031553Y0071707D01*
X0031602Y0071766D01*
X0031655Y0071822D01*
X0031710Y0071875D01*
X0031768Y0071925D01*
X0031828Y0071972D01*
X0031891Y0072016D01*
X0031956Y0072057D01*
X0032023Y0072094D01*
X0032092Y0072128D01*
X0032162Y0072158D01*
X0032234Y0072184D01*
X0032308Y0072206D01*
X0032382Y0072225D01*
X0032457Y0072240D01*
X0032533Y0072251D01*
X0032609Y0072258D01*
X0032686Y0072261D01*
X0032762Y0072260D01*
X0032839Y0072255D01*
X0032915Y0072246D01*
X0032991Y0072233D01*
X0033065Y0072216D01*
X0033139Y0072196D01*
X0033212Y0072171D01*
X0033283Y0072143D01*
X0033353Y0072111D01*
X0033421Y0072076D01*
X0033487Y0072037D01*
X0033551Y0071995D01*
X0033612Y0071949D01*
X0033672Y0071900D01*
X0033728Y0071849D01*
X0033782Y0071794D01*
X0033833Y0071737D01*
X0033881Y0071677D01*
X0033926Y0071615D01*
X0033967Y0071550D01*
X0034005Y0071484D01*
X0034040Y0071416D01*
X0034070Y0071345D01*
X0034098Y0071274D01*
X0034121Y0071201D01*
X0034141Y0071127D01*
X0034157Y0071052D01*
X0034169Y0070976D01*
X0034177Y0070900D01*
X0034181Y0070823D01*
X0034181Y0070747D01*
X0034177Y0070670D01*
X0034169Y0070594D01*
X0034157Y0070518D01*
X0034141Y0070443D01*
X0034121Y0070369D01*
X0034098Y0070296D01*
X0034070Y0070225D01*
X0034040Y0070154D01*
X0034005Y0070086D01*
X0033967Y0070020D01*
X0033926Y0069955D01*
X0033881Y0069893D01*
X0033833Y0069833D01*
X0033782Y0069776D01*
X0033728Y0069721D01*
X0033672Y0069670D01*
X0033612Y0069621D01*
X0033551Y0069575D01*
X0033487Y0069533D01*
X0033421Y0069494D01*
X0033353Y0069459D01*
X0033283Y0069427D01*
X0033212Y0069399D01*
X0033139Y0069374D01*
X0033065Y0069354D01*
X0032991Y0069337D01*
X0032915Y0069324D01*
X0032839Y0069315D01*
X0032762Y0069310D01*
X0032686Y0069309D01*
X0032609Y0069312D01*
X0032533Y0069319D01*
X0032457Y0069330D01*
X0032382Y0069345D01*
X0032308Y0069364D01*
X0032234Y0069386D01*
X0032162Y0069412D01*
X0032092Y0069442D01*
X0032023Y0069476D01*
X0031956Y0069513D01*
X0031891Y0069554D01*
X0031828Y0069598D01*
X0031768Y0069645D01*
X0031710Y0069695D01*
X0031655Y0069748D01*
X0031602Y0069804D01*
X0031553Y0069863D01*
X0031506Y0069924D01*
X0031463Y0069987D01*
X0031424Y0070053D01*
X0031387Y0070120D01*
X0031355Y0070189D01*
X0031325Y0070260D01*
X0031300Y0070333D01*
X0031278Y0070406D01*
X0031261Y0070481D01*
X0031247Y0070556D01*
X0031237Y0070632D01*
X0031231Y0070708D01*
X0031229Y0070785D01*
X0020992Y0175785D02*
X0020994Y0175943D01*
X0021000Y0176101D01*
X0021010Y0176259D01*
X0021024Y0176417D01*
X0021042Y0176574D01*
X0021063Y0176731D01*
X0021089Y0176887D01*
X0021119Y0177043D01*
X0021152Y0177198D01*
X0021190Y0177351D01*
X0021231Y0177504D01*
X0021276Y0177656D01*
X0021325Y0177807D01*
X0021378Y0177956D01*
X0021434Y0178104D01*
X0021494Y0178250D01*
X0021558Y0178395D01*
X0021626Y0178538D01*
X0021697Y0178680D01*
X0021771Y0178820D01*
X0021849Y0178957D01*
X0021931Y0179093D01*
X0022015Y0179227D01*
X0022104Y0179358D01*
X0022195Y0179487D01*
X0022290Y0179614D01*
X0022387Y0179739D01*
X0022488Y0179861D01*
X0022592Y0179980D01*
X0022699Y0180097D01*
X0022809Y0180211D01*
X0022922Y0180322D01*
X0023037Y0180431D01*
X0023155Y0180536D01*
X0023276Y0180638D01*
X0023399Y0180738D01*
X0023525Y0180834D01*
X0023653Y0180927D01*
X0023783Y0181017D01*
X0023916Y0181103D01*
X0024051Y0181187D01*
X0024187Y0181266D01*
X0024326Y0181343D01*
X0024467Y0181415D01*
X0024609Y0181485D01*
X0024753Y0181550D01*
X0024899Y0181612D01*
X0025046Y0181670D01*
X0025195Y0181725D01*
X0025345Y0181776D01*
X0025496Y0181823D01*
X0025648Y0181866D01*
X0025801Y0181905D01*
X0025956Y0181941D01*
X0026111Y0181972D01*
X0026267Y0182000D01*
X0026423Y0182024D01*
X0026580Y0182044D01*
X0026738Y0182060D01*
X0026895Y0182072D01*
X0027054Y0182080D01*
X0027212Y0182084D01*
X0027370Y0182084D01*
X0027528Y0182080D01*
X0027687Y0182072D01*
X0027844Y0182060D01*
X0028002Y0182044D01*
X0028159Y0182024D01*
X0028315Y0182000D01*
X0028471Y0181972D01*
X0028626Y0181941D01*
X0028781Y0181905D01*
X0028934Y0181866D01*
X0029086Y0181823D01*
X0029237Y0181776D01*
X0029387Y0181725D01*
X0029536Y0181670D01*
X0029683Y0181612D01*
X0029829Y0181550D01*
X0029973Y0181485D01*
X0030115Y0181415D01*
X0030256Y0181343D01*
X0030395Y0181266D01*
X0030531Y0181187D01*
X0030666Y0181103D01*
X0030799Y0181017D01*
X0030929Y0180927D01*
X0031057Y0180834D01*
X0031183Y0180738D01*
X0031306Y0180638D01*
X0031427Y0180536D01*
X0031545Y0180431D01*
X0031660Y0180322D01*
X0031773Y0180211D01*
X0031883Y0180097D01*
X0031990Y0179980D01*
X0032094Y0179861D01*
X0032195Y0179739D01*
X0032292Y0179614D01*
X0032387Y0179487D01*
X0032478Y0179358D01*
X0032567Y0179227D01*
X0032651Y0179093D01*
X0032733Y0178957D01*
X0032811Y0178820D01*
X0032885Y0178680D01*
X0032956Y0178538D01*
X0033024Y0178395D01*
X0033088Y0178250D01*
X0033148Y0178104D01*
X0033204Y0177956D01*
X0033257Y0177807D01*
X0033306Y0177656D01*
X0033351Y0177504D01*
X0033392Y0177351D01*
X0033430Y0177198D01*
X0033463Y0177043D01*
X0033493Y0176887D01*
X0033519Y0176731D01*
X0033540Y0176574D01*
X0033558Y0176417D01*
X0033572Y0176259D01*
X0033582Y0176101D01*
X0033588Y0175943D01*
X0033590Y0175785D01*
X0033588Y0175627D01*
X0033582Y0175469D01*
X0033572Y0175311D01*
X0033558Y0175153D01*
X0033540Y0174996D01*
X0033519Y0174839D01*
X0033493Y0174683D01*
X0033463Y0174527D01*
X0033430Y0174372D01*
X0033392Y0174219D01*
X0033351Y0174066D01*
X0033306Y0173914D01*
X0033257Y0173763D01*
X0033204Y0173614D01*
X0033148Y0173466D01*
X0033088Y0173320D01*
X0033024Y0173175D01*
X0032956Y0173032D01*
X0032885Y0172890D01*
X0032811Y0172750D01*
X0032733Y0172613D01*
X0032651Y0172477D01*
X0032567Y0172343D01*
X0032478Y0172212D01*
X0032387Y0172083D01*
X0032292Y0171956D01*
X0032195Y0171831D01*
X0032094Y0171709D01*
X0031990Y0171590D01*
X0031883Y0171473D01*
X0031773Y0171359D01*
X0031660Y0171248D01*
X0031545Y0171139D01*
X0031427Y0171034D01*
X0031306Y0170932D01*
X0031183Y0170832D01*
X0031057Y0170736D01*
X0030929Y0170643D01*
X0030799Y0170553D01*
X0030666Y0170467D01*
X0030531Y0170383D01*
X0030395Y0170304D01*
X0030256Y0170227D01*
X0030115Y0170155D01*
X0029973Y0170085D01*
X0029829Y0170020D01*
X0029683Y0169958D01*
X0029536Y0169900D01*
X0029387Y0169845D01*
X0029237Y0169794D01*
X0029086Y0169747D01*
X0028934Y0169704D01*
X0028781Y0169665D01*
X0028626Y0169629D01*
X0028471Y0169598D01*
X0028315Y0169570D01*
X0028159Y0169546D01*
X0028002Y0169526D01*
X0027844Y0169510D01*
X0027687Y0169498D01*
X0027528Y0169490D01*
X0027370Y0169486D01*
X0027212Y0169486D01*
X0027054Y0169490D01*
X0026895Y0169498D01*
X0026738Y0169510D01*
X0026580Y0169526D01*
X0026423Y0169546D01*
X0026267Y0169570D01*
X0026111Y0169598D01*
X0025956Y0169629D01*
X0025801Y0169665D01*
X0025648Y0169704D01*
X0025496Y0169747D01*
X0025345Y0169794D01*
X0025195Y0169845D01*
X0025046Y0169900D01*
X0024899Y0169958D01*
X0024753Y0170020D01*
X0024609Y0170085D01*
X0024467Y0170155D01*
X0024326Y0170227D01*
X0024187Y0170304D01*
X0024051Y0170383D01*
X0023916Y0170467D01*
X0023783Y0170553D01*
X0023653Y0170643D01*
X0023525Y0170736D01*
X0023399Y0170832D01*
X0023276Y0170932D01*
X0023155Y0171034D01*
X0023037Y0171139D01*
X0022922Y0171248D01*
X0022809Y0171359D01*
X0022699Y0171473D01*
X0022592Y0171590D01*
X0022488Y0171709D01*
X0022387Y0171831D01*
X0022290Y0171956D01*
X0022195Y0172083D01*
X0022104Y0172212D01*
X0022015Y0172343D01*
X0021931Y0172477D01*
X0021849Y0172613D01*
X0021771Y0172750D01*
X0021697Y0172890D01*
X0021626Y0173032D01*
X0021558Y0173175D01*
X0021494Y0173320D01*
X0021434Y0173466D01*
X0021378Y0173614D01*
X0021325Y0173763D01*
X0021276Y0173914D01*
X0021231Y0174066D01*
X0021190Y0174219D01*
X0021152Y0174372D01*
X0021119Y0174527D01*
X0021089Y0174683D01*
X0021063Y0174839D01*
X0021042Y0174996D01*
X0021024Y0175153D01*
X0021010Y0175311D01*
X0021000Y0175469D01*
X0020994Y0175627D01*
X0020992Y0175785D01*
X0185992Y0175785D02*
X0185994Y0175943D01*
X0186000Y0176101D01*
X0186010Y0176259D01*
X0186024Y0176417D01*
X0186042Y0176574D01*
X0186063Y0176731D01*
X0186089Y0176887D01*
X0186119Y0177043D01*
X0186152Y0177198D01*
X0186190Y0177351D01*
X0186231Y0177504D01*
X0186276Y0177656D01*
X0186325Y0177807D01*
X0186378Y0177956D01*
X0186434Y0178104D01*
X0186494Y0178250D01*
X0186558Y0178395D01*
X0186626Y0178538D01*
X0186697Y0178680D01*
X0186771Y0178820D01*
X0186849Y0178957D01*
X0186931Y0179093D01*
X0187015Y0179227D01*
X0187104Y0179358D01*
X0187195Y0179487D01*
X0187290Y0179614D01*
X0187387Y0179739D01*
X0187488Y0179861D01*
X0187592Y0179980D01*
X0187699Y0180097D01*
X0187809Y0180211D01*
X0187922Y0180322D01*
X0188037Y0180431D01*
X0188155Y0180536D01*
X0188276Y0180638D01*
X0188399Y0180738D01*
X0188525Y0180834D01*
X0188653Y0180927D01*
X0188783Y0181017D01*
X0188916Y0181103D01*
X0189051Y0181187D01*
X0189187Y0181266D01*
X0189326Y0181343D01*
X0189467Y0181415D01*
X0189609Y0181485D01*
X0189753Y0181550D01*
X0189899Y0181612D01*
X0190046Y0181670D01*
X0190195Y0181725D01*
X0190345Y0181776D01*
X0190496Y0181823D01*
X0190648Y0181866D01*
X0190801Y0181905D01*
X0190956Y0181941D01*
X0191111Y0181972D01*
X0191267Y0182000D01*
X0191423Y0182024D01*
X0191580Y0182044D01*
X0191738Y0182060D01*
X0191895Y0182072D01*
X0192054Y0182080D01*
X0192212Y0182084D01*
X0192370Y0182084D01*
X0192528Y0182080D01*
X0192687Y0182072D01*
X0192844Y0182060D01*
X0193002Y0182044D01*
X0193159Y0182024D01*
X0193315Y0182000D01*
X0193471Y0181972D01*
X0193626Y0181941D01*
X0193781Y0181905D01*
X0193934Y0181866D01*
X0194086Y0181823D01*
X0194237Y0181776D01*
X0194387Y0181725D01*
X0194536Y0181670D01*
X0194683Y0181612D01*
X0194829Y0181550D01*
X0194973Y0181485D01*
X0195115Y0181415D01*
X0195256Y0181343D01*
X0195395Y0181266D01*
X0195531Y0181187D01*
X0195666Y0181103D01*
X0195799Y0181017D01*
X0195929Y0180927D01*
X0196057Y0180834D01*
X0196183Y0180738D01*
X0196306Y0180638D01*
X0196427Y0180536D01*
X0196545Y0180431D01*
X0196660Y0180322D01*
X0196773Y0180211D01*
X0196883Y0180097D01*
X0196990Y0179980D01*
X0197094Y0179861D01*
X0197195Y0179739D01*
X0197292Y0179614D01*
X0197387Y0179487D01*
X0197478Y0179358D01*
X0197567Y0179227D01*
X0197651Y0179093D01*
X0197733Y0178957D01*
X0197811Y0178820D01*
X0197885Y0178680D01*
X0197956Y0178538D01*
X0198024Y0178395D01*
X0198088Y0178250D01*
X0198148Y0178104D01*
X0198204Y0177956D01*
X0198257Y0177807D01*
X0198306Y0177656D01*
X0198351Y0177504D01*
X0198392Y0177351D01*
X0198430Y0177198D01*
X0198463Y0177043D01*
X0198493Y0176887D01*
X0198519Y0176731D01*
X0198540Y0176574D01*
X0198558Y0176417D01*
X0198572Y0176259D01*
X0198582Y0176101D01*
X0198588Y0175943D01*
X0198590Y0175785D01*
X0198588Y0175627D01*
X0198582Y0175469D01*
X0198572Y0175311D01*
X0198558Y0175153D01*
X0198540Y0174996D01*
X0198519Y0174839D01*
X0198493Y0174683D01*
X0198463Y0174527D01*
X0198430Y0174372D01*
X0198392Y0174219D01*
X0198351Y0174066D01*
X0198306Y0173914D01*
X0198257Y0173763D01*
X0198204Y0173614D01*
X0198148Y0173466D01*
X0198088Y0173320D01*
X0198024Y0173175D01*
X0197956Y0173032D01*
X0197885Y0172890D01*
X0197811Y0172750D01*
X0197733Y0172613D01*
X0197651Y0172477D01*
X0197567Y0172343D01*
X0197478Y0172212D01*
X0197387Y0172083D01*
X0197292Y0171956D01*
X0197195Y0171831D01*
X0197094Y0171709D01*
X0196990Y0171590D01*
X0196883Y0171473D01*
X0196773Y0171359D01*
X0196660Y0171248D01*
X0196545Y0171139D01*
X0196427Y0171034D01*
X0196306Y0170932D01*
X0196183Y0170832D01*
X0196057Y0170736D01*
X0195929Y0170643D01*
X0195799Y0170553D01*
X0195666Y0170467D01*
X0195531Y0170383D01*
X0195395Y0170304D01*
X0195256Y0170227D01*
X0195115Y0170155D01*
X0194973Y0170085D01*
X0194829Y0170020D01*
X0194683Y0169958D01*
X0194536Y0169900D01*
X0194387Y0169845D01*
X0194237Y0169794D01*
X0194086Y0169747D01*
X0193934Y0169704D01*
X0193781Y0169665D01*
X0193626Y0169629D01*
X0193471Y0169598D01*
X0193315Y0169570D01*
X0193159Y0169546D01*
X0193002Y0169526D01*
X0192844Y0169510D01*
X0192687Y0169498D01*
X0192528Y0169490D01*
X0192370Y0169486D01*
X0192212Y0169486D01*
X0192054Y0169490D01*
X0191895Y0169498D01*
X0191738Y0169510D01*
X0191580Y0169526D01*
X0191423Y0169546D01*
X0191267Y0169570D01*
X0191111Y0169598D01*
X0190956Y0169629D01*
X0190801Y0169665D01*
X0190648Y0169704D01*
X0190496Y0169747D01*
X0190345Y0169794D01*
X0190195Y0169845D01*
X0190046Y0169900D01*
X0189899Y0169958D01*
X0189753Y0170020D01*
X0189609Y0170085D01*
X0189467Y0170155D01*
X0189326Y0170227D01*
X0189187Y0170304D01*
X0189051Y0170383D01*
X0188916Y0170467D01*
X0188783Y0170553D01*
X0188653Y0170643D01*
X0188525Y0170736D01*
X0188399Y0170832D01*
X0188276Y0170932D01*
X0188155Y0171034D01*
X0188037Y0171139D01*
X0187922Y0171248D01*
X0187809Y0171359D01*
X0187699Y0171473D01*
X0187592Y0171590D01*
X0187488Y0171709D01*
X0187387Y0171831D01*
X0187290Y0171956D01*
X0187195Y0172083D01*
X0187104Y0172212D01*
X0187015Y0172343D01*
X0186931Y0172477D01*
X0186849Y0172613D01*
X0186771Y0172750D01*
X0186697Y0172890D01*
X0186626Y0173032D01*
X0186558Y0173175D01*
X0186494Y0173320D01*
X0186434Y0173466D01*
X0186378Y0173614D01*
X0186325Y0173763D01*
X0186276Y0173914D01*
X0186231Y0174066D01*
X0186190Y0174219D01*
X0186152Y0174372D01*
X0186119Y0174527D01*
X0186089Y0174683D01*
X0186063Y0174839D01*
X0186042Y0174996D01*
X0186024Y0175153D01*
X0186010Y0175311D01*
X0186000Y0175469D01*
X0185994Y0175627D01*
X0185992Y0175785D01*
X0185992Y0045785D02*
X0185994Y0045943D01*
X0186000Y0046101D01*
X0186010Y0046259D01*
X0186024Y0046417D01*
X0186042Y0046574D01*
X0186063Y0046731D01*
X0186089Y0046887D01*
X0186119Y0047043D01*
X0186152Y0047198D01*
X0186190Y0047351D01*
X0186231Y0047504D01*
X0186276Y0047656D01*
X0186325Y0047807D01*
X0186378Y0047956D01*
X0186434Y0048104D01*
X0186494Y0048250D01*
X0186558Y0048395D01*
X0186626Y0048538D01*
X0186697Y0048680D01*
X0186771Y0048820D01*
X0186849Y0048957D01*
X0186931Y0049093D01*
X0187015Y0049227D01*
X0187104Y0049358D01*
X0187195Y0049487D01*
X0187290Y0049614D01*
X0187387Y0049739D01*
X0187488Y0049861D01*
X0187592Y0049980D01*
X0187699Y0050097D01*
X0187809Y0050211D01*
X0187922Y0050322D01*
X0188037Y0050431D01*
X0188155Y0050536D01*
X0188276Y0050638D01*
X0188399Y0050738D01*
X0188525Y0050834D01*
X0188653Y0050927D01*
X0188783Y0051017D01*
X0188916Y0051103D01*
X0189051Y0051187D01*
X0189187Y0051266D01*
X0189326Y0051343D01*
X0189467Y0051415D01*
X0189609Y0051485D01*
X0189753Y0051550D01*
X0189899Y0051612D01*
X0190046Y0051670D01*
X0190195Y0051725D01*
X0190345Y0051776D01*
X0190496Y0051823D01*
X0190648Y0051866D01*
X0190801Y0051905D01*
X0190956Y0051941D01*
X0191111Y0051972D01*
X0191267Y0052000D01*
X0191423Y0052024D01*
X0191580Y0052044D01*
X0191738Y0052060D01*
X0191895Y0052072D01*
X0192054Y0052080D01*
X0192212Y0052084D01*
X0192370Y0052084D01*
X0192528Y0052080D01*
X0192687Y0052072D01*
X0192844Y0052060D01*
X0193002Y0052044D01*
X0193159Y0052024D01*
X0193315Y0052000D01*
X0193471Y0051972D01*
X0193626Y0051941D01*
X0193781Y0051905D01*
X0193934Y0051866D01*
X0194086Y0051823D01*
X0194237Y0051776D01*
X0194387Y0051725D01*
X0194536Y0051670D01*
X0194683Y0051612D01*
X0194829Y0051550D01*
X0194973Y0051485D01*
X0195115Y0051415D01*
X0195256Y0051343D01*
X0195395Y0051266D01*
X0195531Y0051187D01*
X0195666Y0051103D01*
X0195799Y0051017D01*
X0195929Y0050927D01*
X0196057Y0050834D01*
X0196183Y0050738D01*
X0196306Y0050638D01*
X0196427Y0050536D01*
X0196545Y0050431D01*
X0196660Y0050322D01*
X0196773Y0050211D01*
X0196883Y0050097D01*
X0196990Y0049980D01*
X0197094Y0049861D01*
X0197195Y0049739D01*
X0197292Y0049614D01*
X0197387Y0049487D01*
X0197478Y0049358D01*
X0197567Y0049227D01*
X0197651Y0049093D01*
X0197733Y0048957D01*
X0197811Y0048820D01*
X0197885Y0048680D01*
X0197956Y0048538D01*
X0198024Y0048395D01*
X0198088Y0048250D01*
X0198148Y0048104D01*
X0198204Y0047956D01*
X0198257Y0047807D01*
X0198306Y0047656D01*
X0198351Y0047504D01*
X0198392Y0047351D01*
X0198430Y0047198D01*
X0198463Y0047043D01*
X0198493Y0046887D01*
X0198519Y0046731D01*
X0198540Y0046574D01*
X0198558Y0046417D01*
X0198572Y0046259D01*
X0198582Y0046101D01*
X0198588Y0045943D01*
X0198590Y0045785D01*
X0198588Y0045627D01*
X0198582Y0045469D01*
X0198572Y0045311D01*
X0198558Y0045153D01*
X0198540Y0044996D01*
X0198519Y0044839D01*
X0198493Y0044683D01*
X0198463Y0044527D01*
X0198430Y0044372D01*
X0198392Y0044219D01*
X0198351Y0044066D01*
X0198306Y0043914D01*
X0198257Y0043763D01*
X0198204Y0043614D01*
X0198148Y0043466D01*
X0198088Y0043320D01*
X0198024Y0043175D01*
X0197956Y0043032D01*
X0197885Y0042890D01*
X0197811Y0042750D01*
X0197733Y0042613D01*
X0197651Y0042477D01*
X0197567Y0042343D01*
X0197478Y0042212D01*
X0197387Y0042083D01*
X0197292Y0041956D01*
X0197195Y0041831D01*
X0197094Y0041709D01*
X0196990Y0041590D01*
X0196883Y0041473D01*
X0196773Y0041359D01*
X0196660Y0041248D01*
X0196545Y0041139D01*
X0196427Y0041034D01*
X0196306Y0040932D01*
X0196183Y0040832D01*
X0196057Y0040736D01*
X0195929Y0040643D01*
X0195799Y0040553D01*
X0195666Y0040467D01*
X0195531Y0040383D01*
X0195395Y0040304D01*
X0195256Y0040227D01*
X0195115Y0040155D01*
X0194973Y0040085D01*
X0194829Y0040020D01*
X0194683Y0039958D01*
X0194536Y0039900D01*
X0194387Y0039845D01*
X0194237Y0039794D01*
X0194086Y0039747D01*
X0193934Y0039704D01*
X0193781Y0039665D01*
X0193626Y0039629D01*
X0193471Y0039598D01*
X0193315Y0039570D01*
X0193159Y0039546D01*
X0193002Y0039526D01*
X0192844Y0039510D01*
X0192687Y0039498D01*
X0192528Y0039490D01*
X0192370Y0039486D01*
X0192212Y0039486D01*
X0192054Y0039490D01*
X0191895Y0039498D01*
X0191738Y0039510D01*
X0191580Y0039526D01*
X0191423Y0039546D01*
X0191267Y0039570D01*
X0191111Y0039598D01*
X0190956Y0039629D01*
X0190801Y0039665D01*
X0190648Y0039704D01*
X0190496Y0039747D01*
X0190345Y0039794D01*
X0190195Y0039845D01*
X0190046Y0039900D01*
X0189899Y0039958D01*
X0189753Y0040020D01*
X0189609Y0040085D01*
X0189467Y0040155D01*
X0189326Y0040227D01*
X0189187Y0040304D01*
X0189051Y0040383D01*
X0188916Y0040467D01*
X0188783Y0040553D01*
X0188653Y0040643D01*
X0188525Y0040736D01*
X0188399Y0040832D01*
X0188276Y0040932D01*
X0188155Y0041034D01*
X0188037Y0041139D01*
X0187922Y0041248D01*
X0187809Y0041359D01*
X0187699Y0041473D01*
X0187592Y0041590D01*
X0187488Y0041709D01*
X0187387Y0041831D01*
X0187290Y0041956D01*
X0187195Y0042083D01*
X0187104Y0042212D01*
X0187015Y0042343D01*
X0186931Y0042477D01*
X0186849Y0042613D01*
X0186771Y0042750D01*
X0186697Y0042890D01*
X0186626Y0043032D01*
X0186558Y0043175D01*
X0186494Y0043320D01*
X0186434Y0043466D01*
X0186378Y0043614D01*
X0186325Y0043763D01*
X0186276Y0043914D01*
X0186231Y0044066D01*
X0186190Y0044219D01*
X0186152Y0044372D01*
X0186119Y0044527D01*
X0186089Y0044683D01*
X0186063Y0044839D01*
X0186042Y0044996D01*
X0186024Y0045153D01*
X0186010Y0045311D01*
X0186000Y0045469D01*
X0185994Y0045627D01*
X0185992Y0045785D01*
D11*
X0173226Y0074161D02*
X0173226Y0078039D01*
X0173226Y0074161D02*
X0171396Y0074161D01*
X0171396Y0078039D01*
X0173226Y0078039D01*
X0173226Y0075991D02*
X0171396Y0075991D01*
X0171396Y0077821D02*
X0173226Y0077821D01*
X0168226Y0078039D02*
X0168226Y0074161D01*
X0166396Y0074161D01*
X0166396Y0078039D01*
X0168226Y0078039D01*
X0168226Y0075991D02*
X0166396Y0075991D01*
X0166396Y0077821D02*
X0168226Y0077821D01*
X0163226Y0078039D02*
X0163226Y0074161D01*
X0161396Y0074161D01*
X0161396Y0078039D01*
X0163226Y0078039D01*
X0163226Y0075991D02*
X0161396Y0075991D01*
X0161396Y0077821D02*
X0163226Y0077821D01*
X0158226Y0078039D02*
X0158226Y0074161D01*
X0156396Y0074161D01*
X0156396Y0078039D01*
X0158226Y0078039D01*
X0158226Y0075991D02*
X0156396Y0075991D01*
X0156396Y0077821D02*
X0158226Y0077821D01*
X0153226Y0078039D02*
X0153226Y0074161D01*
X0151396Y0074161D01*
X0151396Y0078039D01*
X0153226Y0078039D01*
X0153226Y0075991D02*
X0151396Y0075991D01*
X0151396Y0077821D02*
X0153226Y0077821D01*
X0148226Y0078039D02*
X0148226Y0074161D01*
X0146396Y0074161D01*
X0146396Y0078039D01*
X0148226Y0078039D01*
X0148226Y0075991D02*
X0146396Y0075991D01*
X0146396Y0077821D02*
X0148226Y0077821D01*
X0143226Y0078039D02*
X0143226Y0074161D01*
X0141396Y0074161D01*
X0141396Y0078039D01*
X0143226Y0078039D01*
X0143226Y0075991D02*
X0141396Y0075991D01*
X0141396Y0077821D02*
X0143226Y0077821D01*
X0138226Y0078039D02*
X0138226Y0074161D01*
X0136396Y0074161D01*
X0136396Y0078039D01*
X0138226Y0078039D01*
X0138226Y0075991D02*
X0136396Y0075991D01*
X0136396Y0077821D02*
X0138226Y0077821D01*
X0133226Y0078039D02*
X0133226Y0074161D01*
X0131396Y0074161D01*
X0131396Y0078039D01*
X0133226Y0078039D01*
X0133226Y0075991D02*
X0131396Y0075991D01*
X0131396Y0077821D02*
X0133226Y0077821D01*
X0128226Y0078039D02*
X0128226Y0074161D01*
X0126396Y0074161D01*
X0126396Y0078039D01*
X0128226Y0078039D01*
X0128226Y0075991D02*
X0126396Y0075991D01*
X0126396Y0077821D02*
X0128226Y0077821D01*
X0123226Y0078039D02*
X0123226Y0074161D01*
X0121396Y0074161D01*
X0121396Y0078039D01*
X0123226Y0078039D01*
X0123226Y0075991D02*
X0121396Y0075991D01*
X0121396Y0077821D02*
X0123226Y0077821D01*
X0118226Y0078039D02*
X0118226Y0074161D01*
X0116396Y0074161D01*
X0116396Y0078039D01*
X0118226Y0078039D01*
X0118226Y0075991D02*
X0116396Y0075991D01*
X0116396Y0077821D02*
X0118226Y0077821D01*
X0113226Y0078039D02*
X0113226Y0074161D01*
X0111396Y0074161D01*
X0111396Y0078039D01*
X0113226Y0078039D01*
X0113226Y0075991D02*
X0111396Y0075991D01*
X0111396Y0077821D02*
X0113226Y0077821D01*
X0108226Y0078039D02*
X0108226Y0074161D01*
X0106396Y0074161D01*
X0106396Y0078039D01*
X0108226Y0078039D01*
X0108226Y0075991D02*
X0106396Y0075991D01*
X0106396Y0077821D02*
X0108226Y0077821D01*
X0103226Y0078039D02*
X0103226Y0074161D01*
X0101396Y0074161D01*
X0101396Y0078039D01*
X0103226Y0078039D01*
X0103226Y0075991D02*
X0101396Y0075991D01*
X0101396Y0077821D02*
X0103226Y0077821D01*
X0098226Y0078039D02*
X0098226Y0074161D01*
X0096396Y0074161D01*
X0096396Y0078039D01*
X0098226Y0078039D01*
X0098226Y0075991D02*
X0096396Y0075991D01*
X0096396Y0077821D02*
X0098226Y0077821D01*
X0093226Y0078039D02*
X0093226Y0074161D01*
X0091396Y0074161D01*
X0091396Y0078039D01*
X0093226Y0078039D01*
X0093226Y0075991D02*
X0091396Y0075991D01*
X0091396Y0077821D02*
X0093226Y0077821D01*
X0088226Y0078039D02*
X0088226Y0074161D01*
X0086396Y0074161D01*
X0086396Y0078039D01*
X0088226Y0078039D01*
X0088226Y0075991D02*
X0086396Y0075991D01*
X0086396Y0077821D02*
X0088226Y0077821D01*
X0083226Y0078039D02*
X0083226Y0074161D01*
X0081396Y0074161D01*
X0081396Y0078039D01*
X0083226Y0078039D01*
X0083226Y0075991D02*
X0081396Y0075991D01*
X0081396Y0077821D02*
X0083226Y0077821D01*
X0081396Y0143531D02*
X0081396Y0147409D01*
X0083226Y0147409D01*
X0083226Y0143531D01*
X0081396Y0143531D01*
X0081396Y0145361D02*
X0083226Y0145361D01*
X0083226Y0147191D02*
X0081396Y0147191D01*
X0086396Y0147409D02*
X0086396Y0143531D01*
X0086396Y0147409D02*
X0088226Y0147409D01*
X0088226Y0143531D01*
X0086396Y0143531D01*
X0086396Y0145361D02*
X0088226Y0145361D01*
X0088226Y0147191D02*
X0086396Y0147191D01*
X0091396Y0147409D02*
X0091396Y0143531D01*
X0091396Y0147409D02*
X0093226Y0147409D01*
X0093226Y0143531D01*
X0091396Y0143531D01*
X0091396Y0145361D02*
X0093226Y0145361D01*
X0093226Y0147191D02*
X0091396Y0147191D01*
X0096396Y0147409D02*
X0096396Y0143531D01*
X0096396Y0147409D02*
X0098226Y0147409D01*
X0098226Y0143531D01*
X0096396Y0143531D01*
X0096396Y0145361D02*
X0098226Y0145361D01*
X0098226Y0147191D02*
X0096396Y0147191D01*
X0101396Y0147409D02*
X0101396Y0143531D01*
X0101396Y0147409D02*
X0103226Y0147409D01*
X0103226Y0143531D01*
X0101396Y0143531D01*
X0101396Y0145361D02*
X0103226Y0145361D01*
X0103226Y0147191D02*
X0101396Y0147191D01*
X0106396Y0147409D02*
X0106396Y0143531D01*
X0106396Y0147409D02*
X0108226Y0147409D01*
X0108226Y0143531D01*
X0106396Y0143531D01*
X0106396Y0145361D02*
X0108226Y0145361D01*
X0108226Y0147191D02*
X0106396Y0147191D01*
X0111396Y0147409D02*
X0111396Y0143531D01*
X0111396Y0147409D02*
X0113226Y0147409D01*
X0113226Y0143531D01*
X0111396Y0143531D01*
X0111396Y0145361D02*
X0113226Y0145361D01*
X0113226Y0147191D02*
X0111396Y0147191D01*
X0116396Y0147409D02*
X0116396Y0143531D01*
X0116396Y0147409D02*
X0118226Y0147409D01*
X0118226Y0143531D01*
X0116396Y0143531D01*
X0116396Y0145361D02*
X0118226Y0145361D01*
X0118226Y0147191D02*
X0116396Y0147191D01*
X0121396Y0147409D02*
X0121396Y0143531D01*
X0121396Y0147409D02*
X0123226Y0147409D01*
X0123226Y0143531D01*
X0121396Y0143531D01*
X0121396Y0145361D02*
X0123226Y0145361D01*
X0123226Y0147191D02*
X0121396Y0147191D01*
X0126396Y0147409D02*
X0126396Y0143531D01*
X0126396Y0147409D02*
X0128226Y0147409D01*
X0128226Y0143531D01*
X0126396Y0143531D01*
X0126396Y0145361D02*
X0128226Y0145361D01*
X0128226Y0147191D02*
X0126396Y0147191D01*
X0131396Y0147409D02*
X0131396Y0143531D01*
X0131396Y0147409D02*
X0133226Y0147409D01*
X0133226Y0143531D01*
X0131396Y0143531D01*
X0131396Y0145361D02*
X0133226Y0145361D01*
X0133226Y0147191D02*
X0131396Y0147191D01*
X0136396Y0147409D02*
X0136396Y0143531D01*
X0136396Y0147409D02*
X0138226Y0147409D01*
X0138226Y0143531D01*
X0136396Y0143531D01*
X0136396Y0145361D02*
X0138226Y0145361D01*
X0138226Y0147191D02*
X0136396Y0147191D01*
X0141396Y0147409D02*
X0141396Y0143531D01*
X0141396Y0147409D02*
X0143226Y0147409D01*
X0143226Y0143531D01*
X0141396Y0143531D01*
X0141396Y0145361D02*
X0143226Y0145361D01*
X0143226Y0147191D02*
X0141396Y0147191D01*
X0146396Y0147409D02*
X0146396Y0143531D01*
X0146396Y0147409D02*
X0148226Y0147409D01*
X0148226Y0143531D01*
X0146396Y0143531D01*
X0146396Y0145361D02*
X0148226Y0145361D01*
X0148226Y0147191D02*
X0146396Y0147191D01*
X0151396Y0147409D02*
X0151396Y0143531D01*
X0151396Y0147409D02*
X0153226Y0147409D01*
X0153226Y0143531D01*
X0151396Y0143531D01*
X0151396Y0145361D02*
X0153226Y0145361D01*
X0153226Y0147191D02*
X0151396Y0147191D01*
X0156396Y0147409D02*
X0156396Y0143531D01*
X0156396Y0147409D02*
X0158226Y0147409D01*
X0158226Y0143531D01*
X0156396Y0143531D01*
X0156396Y0145361D02*
X0158226Y0145361D01*
X0158226Y0147191D02*
X0156396Y0147191D01*
X0161396Y0147409D02*
X0161396Y0143531D01*
X0161396Y0147409D02*
X0163226Y0147409D01*
X0163226Y0143531D01*
X0161396Y0143531D01*
X0161396Y0145361D02*
X0163226Y0145361D01*
X0163226Y0147191D02*
X0161396Y0147191D01*
X0166396Y0147409D02*
X0166396Y0143531D01*
X0166396Y0147409D02*
X0168226Y0147409D01*
X0168226Y0143531D01*
X0166396Y0143531D01*
X0166396Y0145361D02*
X0168226Y0145361D01*
X0168226Y0147191D02*
X0166396Y0147191D01*
X0171396Y0147409D02*
X0171396Y0143531D01*
X0171396Y0147409D02*
X0173226Y0147409D01*
X0173226Y0143531D01*
X0171396Y0143531D01*
X0171396Y0145361D02*
X0173226Y0145361D01*
X0173226Y0147191D02*
X0171396Y0147191D01*
D12*
X0141642Y0105352D03*
D13*
X0074791Y0176785D03*
X0064791Y0176785D03*
X0047291Y0110785D03*
X0047291Y0100785D03*
X0047291Y0090785D03*
X0042291Y0045785D03*
X0052291Y0045785D03*
X0062291Y0045785D03*
X0072291Y0045785D03*
D14*
X0088791Y0063785D02*
X0091791Y0066785D01*
X0110291Y0066785D01*
X0112311Y0068805D01*
X0112311Y0076100D01*
X0107311Y0076100D02*
X0107311Y0080805D01*
X0111291Y0084785D01*
X0119791Y0084785D01*
X0122291Y0087285D01*
X0122291Y0098285D01*
X0110291Y0099285D02*
X0110291Y0092785D01*
X0097311Y0079805D01*
X0097311Y0076100D01*
X0127291Y0112285D02*
X0132291Y0117285D01*
X0155291Y0117285D01*
X0158291Y0114285D01*
X0158791Y0114285D01*
X0159791Y0118285D02*
X0158791Y0119285D01*
X0130791Y0119285D01*
X0127291Y0115785D01*
X0120791Y0121285D02*
X0120791Y0135785D01*
X0123791Y0138785D01*
X0135291Y0138785D01*
X0137291Y0140785D01*
X0137291Y0145450D01*
X0137311Y0145470D01*
X0127311Y0145470D02*
X0127311Y0141305D01*
X0126291Y0140285D01*
X0122791Y0140285D01*
X0115791Y0133285D01*
X0115791Y0115285D01*
X0124791Y0123785D02*
X0124791Y0135785D01*
X0129791Y0125285D02*
X0128291Y0123785D01*
X0129791Y0125285D02*
X0153791Y0125285D01*
X0155291Y0123785D01*
X0170291Y0134285D02*
X0170291Y0099285D01*
X0168791Y0097785D01*
X0161291Y0097785D01*
X0161291Y0090285D02*
X0172291Y0090285D01*
X0173791Y0091785D01*
X0173791Y0135285D01*
X0167311Y0141765D01*
X0167311Y0145470D01*
X0162311Y0145470D02*
X0162311Y0142265D01*
X0170291Y0134285D01*
X0157311Y0145470D02*
X0157311Y0160765D01*
X0157291Y0160785D01*
X0157291Y0165285D01*
X0152311Y0168765D02*
X0152311Y0145470D01*
X0147311Y0145470D02*
X0147311Y0156765D01*
X0143291Y0160785D01*
X0111291Y0156285D02*
X0107291Y0152285D01*
X0107291Y0145490D01*
X0107311Y0145470D01*
X0097311Y0145470D02*
X0097291Y0145450D01*
X0097291Y0138285D01*
X0084791Y0125785D01*
X0066791Y0125785D01*
X0067291Y0135785D02*
X0074291Y0135785D01*
X0085291Y0162285D02*
X0085291Y0172285D01*
X0111291Y0180785D02*
X0111291Y0156285D01*
X0152291Y0070285D02*
X0152291Y0041785D01*
X0156291Y0049785D02*
X0156291Y0070285D01*
D15*
X0156291Y0070285D03*
X0152291Y0070285D03*
X0142791Y0067285D03*
X0136791Y0067285D03*
X0138791Y0055785D03*
X0138291Y0045285D03*
X0144291Y0044285D03*
X0152291Y0041785D03*
X0157791Y0039785D03*
X0156291Y0049785D03*
X0173291Y0047785D03*
X0167291Y0070785D03*
X0169791Y0082785D03*
X0162291Y0082785D03*
X0161291Y0090285D03*
X0161291Y0097785D03*
X0155791Y0110285D03*
X0158791Y0114285D03*
X0159791Y0118285D03*
X0163291Y0123785D03*
X0155291Y0123785D03*
X0148791Y0121785D03*
X0137791Y0135785D03*
X0128291Y0123785D03*
X0124791Y0123785D03*
X0126291Y0119785D03*
X0127291Y0115785D03*
X0127291Y0112285D03*
X0130291Y0105285D03*
X0129791Y0098285D03*
X0122291Y0098285D03*
X0119791Y0108785D03*
X0115791Y0115285D03*
X0120791Y0121285D03*
X0108291Y0121785D03*
X0106291Y0110785D03*
X0106291Y0104285D03*
X0110291Y0099285D03*
X0106791Y0085285D03*
X0096791Y0085285D03*
X0092291Y0082785D03*
X0091791Y0096285D03*
X0091791Y0109285D03*
X0091791Y0117785D03*
X0085291Y0135785D03*
X0074291Y0135785D03*
X0067291Y0135785D03*
X0066791Y0125785D03*
X0066791Y0119785D03*
X0060291Y0124785D03*
X0057291Y0132785D03*
X0057291Y0140785D03*
X0050791Y0144285D03*
X0032791Y0153285D03*
X0032791Y0161285D03*
X0041291Y0170285D03*
X0072291Y0150785D03*
X0085291Y0162285D03*
X0091791Y0156785D03*
X0103291Y0156785D03*
X0111791Y0151785D03*
X0113791Y0137785D03*
X0102291Y0137785D03*
X0124791Y0135785D03*
X0138291Y0160785D03*
X0143291Y0160785D03*
X0152311Y0168765D03*
X0157291Y0165285D03*
X0165291Y0155285D03*
X0173291Y0169285D03*
X0163291Y0180285D03*
X0163291Y0134285D03*
X0143291Y0093785D03*
X0139791Y0088285D03*
X0147291Y0082785D03*
X0117291Y0067285D03*
X0107291Y0056285D03*
X0088791Y0063785D03*
X0085791Y0047285D03*
X0071791Y0064285D03*
X0062291Y0071785D03*
X0051791Y0067785D03*
X0039291Y0059785D03*
X0039291Y0076785D03*
X0041291Y0083785D03*
X0052791Y0082285D03*
X0056291Y0088285D03*
X0069791Y0084785D03*
X0072291Y0096285D03*
X0040791Y0125285D03*
X0032791Y0128285D03*
X0030291Y0120785D03*
X0085291Y0172285D03*
X0111291Y0180785D03*
X0118791Y0180285D03*
D16*
X0113582Y0180569D02*
X0175791Y0180569D01*
X0175791Y0179571D02*
X0113316Y0179571D01*
X0113582Y0179836D02*
X0113582Y0181734D01*
X0112240Y0183076D01*
X0111264Y0183076D01*
X0110054Y0184285D01*
X0175791Y0184285D01*
X0175791Y0037285D01*
X0032999Y0037285D01*
X0034977Y0038779D01*
X0036989Y0042028D01*
X0036989Y0042028D01*
X0037691Y0045785D01*
X0036989Y0049542D01*
X0036989Y0049542D01*
X0034977Y0052792D01*
X0031927Y0055095D01*
X0028251Y0056141D01*
X0028251Y0056141D01*
X0024445Y0055788D01*
X0021024Y0054084D01*
X0018791Y0051635D01*
X0018791Y0086785D01*
X0039691Y0086785D01*
X0039691Y0085424D01*
X0039001Y0084734D01*
X0039001Y0082836D01*
X0040343Y0081495D01*
X0042240Y0081495D01*
X0043582Y0082836D01*
X0043582Y0084734D01*
X0042891Y0085424D01*
X0042891Y0114448D01*
X0039954Y0117385D01*
X0021954Y0117385D01*
X0020884Y0118455D01*
X0020399Y0162630D01*
X0021454Y0163685D01*
X0035954Y0163685D01*
X0038454Y0166185D01*
X0039391Y0167122D01*
X0039391Y0179622D01*
X0041954Y0182185D01*
X0107629Y0182185D01*
X0109001Y0180813D01*
X0109001Y0179836D01*
X0109791Y0179046D01*
X0109791Y0156906D01*
X0106670Y0153785D01*
X0105791Y0152906D01*
X0105791Y0149424D01*
X0105561Y0149424D01*
X0104811Y0148675D01*
X0104061Y0149424D01*
X0100561Y0149424D01*
X0099811Y0148675D01*
X0099061Y0149424D01*
X0095561Y0149424D01*
X0094811Y0148675D01*
X0094061Y0149424D01*
X0090561Y0149424D01*
X0089811Y0148675D01*
X0089061Y0149424D01*
X0085561Y0149424D01*
X0084811Y0148675D01*
X0084061Y0149424D01*
X0080561Y0149424D01*
X0079380Y0148244D01*
X0079380Y0142696D01*
X0080561Y0141516D01*
X0084061Y0141516D01*
X0084811Y0142266D01*
X0085561Y0141516D01*
X0089061Y0141516D01*
X0089811Y0142266D01*
X0090561Y0141516D01*
X0094061Y0141516D01*
X0094811Y0142266D01*
X0095561Y0141516D01*
X0095791Y0141516D01*
X0095791Y0138906D01*
X0084170Y0127285D01*
X0068531Y0127285D01*
X0067740Y0128076D01*
X0065843Y0128076D01*
X0064501Y0126734D01*
X0064501Y0124836D01*
X0065843Y0123495D01*
X0067740Y0123495D01*
X0068531Y0124285D01*
X0085413Y0124285D01*
X0097913Y0136785D01*
X0098791Y0137664D01*
X0098791Y0141516D01*
X0099061Y0141516D01*
X0099811Y0142266D01*
X0100561Y0141516D01*
X0104061Y0141516D01*
X0104811Y0142266D01*
X0105561Y0141516D01*
X0109061Y0141516D01*
X0109811Y0142266D01*
X0110561Y0141516D01*
X0114061Y0141516D01*
X0114811Y0142266D01*
X0115561Y0141516D01*
X0119061Y0141516D01*
X0119811Y0142266D01*
X0120561Y0141516D01*
X0121901Y0141516D01*
X0121291Y0140906D01*
X0114291Y0133906D01*
X0114291Y0117024D01*
X0113501Y0116234D01*
X0113501Y0114336D01*
X0114843Y0112995D01*
X0116740Y0112995D01*
X0118082Y0114336D01*
X0118082Y0116234D01*
X0117291Y0117024D01*
X0117291Y0132664D01*
X0119291Y0134664D01*
X0119291Y0123024D01*
X0118501Y0122234D01*
X0118501Y0120336D01*
X0119843Y0118995D01*
X0121740Y0118995D01*
X0123082Y0120336D01*
X0123082Y0122234D01*
X0122291Y0123024D01*
X0122291Y0135164D01*
X0122501Y0135373D01*
X0122501Y0134836D01*
X0123291Y0134046D01*
X0123291Y0125524D01*
X0122501Y0124734D01*
X0122501Y0122836D01*
X0123843Y0121495D01*
X0124761Y0121495D01*
X0124001Y0120734D01*
X0124001Y0118836D01*
X0125343Y0117495D01*
X0125761Y0117495D01*
X0125001Y0116734D01*
X0125001Y0114836D01*
X0125802Y0114035D01*
X0125001Y0113234D01*
X0125001Y0111336D01*
X0126343Y0109995D01*
X0128240Y0109995D01*
X0128591Y0110346D01*
X0128591Y0106824D01*
X0128001Y0106234D01*
X0128001Y0104336D01*
X0129343Y0102995D01*
X0131240Y0102995D01*
X0132268Y0104022D01*
X0132268Y0098496D01*
X0132082Y0098682D01*
X0132082Y0099234D01*
X0130740Y0100576D01*
X0128843Y0100576D01*
X0127501Y0099234D01*
X0127501Y0097336D01*
X0128843Y0095995D01*
X0129395Y0095995D01*
X0137501Y0087889D01*
X0137501Y0087336D01*
X0138843Y0085995D01*
X0140740Y0085995D01*
X0142082Y0087336D01*
X0142082Y0089234D01*
X0140740Y0090576D01*
X0140188Y0090576D01*
X0134785Y0095978D01*
X0141142Y0095978D01*
X0141142Y0104852D01*
X0142142Y0104852D01*
X0142142Y0105852D01*
X0151016Y0105852D01*
X0151016Y0112657D01*
X0153501Y0110172D01*
X0153501Y0109336D01*
X0153891Y0108946D01*
X0153891Y0100572D01*
X0151016Y0097697D01*
X0151016Y0104852D01*
X0142142Y0104852D01*
X0142142Y0095978D01*
X0149297Y0095978D01*
X0145391Y0092072D01*
X0145391Y0084124D01*
X0145001Y0083734D01*
X0145001Y0081836D01*
X0146343Y0080495D01*
X0148240Y0080495D01*
X0149582Y0081836D01*
X0149582Y0083734D01*
X0149191Y0084124D01*
X0149191Y0090498D01*
X0156578Y0097885D01*
X0157691Y0098998D01*
X0157691Y0108946D01*
X0158082Y0109336D01*
X0158082Y0111234D01*
X0156740Y0112576D01*
X0155905Y0112576D01*
X0152695Y0115785D01*
X0154670Y0115785D01*
X0156501Y0113954D01*
X0156501Y0113336D01*
X0157843Y0111995D01*
X0159740Y0111995D01*
X0161082Y0113336D01*
X0161082Y0115234D01*
X0160321Y0115995D01*
X0160740Y0115995D01*
X0162082Y0117336D01*
X0162082Y0119234D01*
X0160740Y0120576D01*
X0159622Y0120576D01*
X0159413Y0120785D01*
X0151031Y0120785D01*
X0151082Y0120836D01*
X0151082Y0122734D01*
X0150031Y0123785D01*
X0153001Y0123785D01*
X0153001Y0122836D01*
X0154343Y0121495D01*
X0156240Y0121495D01*
X0157582Y0122836D01*
X0157582Y0124734D01*
X0156240Y0126076D01*
X0155122Y0126076D01*
X0154413Y0126785D01*
X0129170Y0126785D01*
X0128461Y0126076D01*
X0127343Y0126076D01*
X0126541Y0125274D01*
X0126291Y0125524D01*
X0126291Y0134046D01*
X0127082Y0134836D01*
X0127082Y0136734D01*
X0126531Y0137285D01*
X0135913Y0137285D01*
X0136791Y0138164D01*
X0137913Y0139285D01*
X0138791Y0140164D01*
X0138791Y0141516D01*
X0139061Y0141516D01*
X0139811Y0142266D01*
X0140561Y0141516D01*
X0144061Y0141516D01*
X0144811Y0142266D01*
X0145561Y0141516D01*
X0149061Y0141516D01*
X0149811Y0142266D01*
X0150561Y0141516D01*
X0154061Y0141516D01*
X0154811Y0142266D01*
X0155561Y0141516D01*
X0159061Y0141516D01*
X0159811Y0142266D01*
X0160561Y0141516D01*
X0160939Y0141516D01*
X0168791Y0133664D01*
X0168791Y0099906D01*
X0168170Y0099285D01*
X0163031Y0099285D01*
X0162240Y0100076D01*
X0160343Y0100076D01*
X0159001Y0098734D01*
X0159001Y0096836D01*
X0160343Y0095495D01*
X0162240Y0095495D01*
X0163031Y0096285D01*
X0169413Y0096285D01*
X0170291Y0097164D01*
X0171791Y0098664D01*
X0171791Y0134906D01*
X0170913Y0135785D01*
X0164622Y0142076D01*
X0164811Y0142266D01*
X0165561Y0141516D01*
X0165811Y0141516D01*
X0165811Y0141144D01*
X0172291Y0134664D01*
X0172291Y0092406D01*
X0171670Y0091785D01*
X0163031Y0091785D01*
X0162240Y0092576D01*
X0160343Y0092576D01*
X0159001Y0091234D01*
X0159001Y0089336D01*
X0160343Y0087995D01*
X0162240Y0087995D01*
X0163031Y0088785D01*
X0172913Y0088785D01*
X0173791Y0089664D01*
X0175291Y0091164D01*
X0175291Y0135906D01*
X0174413Y0136785D01*
X0169372Y0141826D01*
X0169528Y0141983D01*
X0169856Y0141655D01*
X0170252Y0141391D01*
X0170691Y0141209D01*
X0171158Y0141116D01*
X0171896Y0141116D01*
X0171896Y0145055D01*
X0172726Y0145055D01*
X0172726Y0141116D01*
X0173464Y0141116D01*
X0173931Y0141209D01*
X0174370Y0141391D01*
X0174766Y0141655D01*
X0175102Y0141991D01*
X0175367Y0142387D01*
X0175549Y0142827D01*
X0175642Y0143293D01*
X0175642Y0145055D01*
X0172726Y0145055D01*
X0172726Y0145886D01*
X0171896Y0145886D01*
X0171896Y0149824D01*
X0171158Y0149824D01*
X0170691Y0149732D01*
X0170252Y0149550D01*
X0169856Y0149285D01*
X0169528Y0148957D01*
X0169061Y0149424D01*
X0165561Y0149424D01*
X0164811Y0148675D01*
X0164061Y0149424D01*
X0160561Y0149424D01*
X0159811Y0148675D01*
X0159061Y0149424D01*
X0158811Y0149424D01*
X0158811Y0161387D01*
X0158791Y0161406D01*
X0158791Y0163546D01*
X0159582Y0164336D01*
X0159582Y0166234D01*
X0158240Y0167576D01*
X0156343Y0167576D01*
X0155001Y0166234D01*
X0155001Y0164336D01*
X0155791Y0163546D01*
X0155791Y0160164D01*
X0155811Y0160144D01*
X0155811Y0149424D01*
X0155561Y0149424D01*
X0154811Y0148675D01*
X0154061Y0149424D01*
X0153811Y0149424D01*
X0153811Y0167026D01*
X0154602Y0167817D01*
X0154602Y0169714D01*
X0153260Y0171056D01*
X0151362Y0171056D01*
X0150020Y0169714D01*
X0150020Y0167817D01*
X0150811Y0167026D01*
X0150811Y0149424D01*
X0150561Y0149424D01*
X0149811Y0148675D01*
X0149061Y0149424D01*
X0148811Y0149424D01*
X0148811Y0157387D01*
X0145582Y0160616D01*
X0145582Y0161734D01*
X0144240Y0163076D01*
X0142343Y0163076D01*
X0141001Y0161734D01*
X0141001Y0159836D01*
X0142343Y0158495D01*
X0143461Y0158495D01*
X0145811Y0156144D01*
X0145811Y0149424D01*
X0145561Y0149424D01*
X0144811Y0148675D01*
X0144061Y0149424D01*
X0140561Y0149424D01*
X0139811Y0148675D01*
X0139061Y0149424D01*
X0135561Y0149424D01*
X0134811Y0148675D01*
X0134061Y0149424D01*
X0130561Y0149424D01*
X0129811Y0148675D01*
X0129061Y0149424D01*
X0125561Y0149424D01*
X0124811Y0148675D01*
X0124061Y0149424D01*
X0120561Y0149424D01*
X0119811Y0148675D01*
X0119061Y0149424D01*
X0115561Y0149424D01*
X0114811Y0148675D01*
X0114061Y0149424D01*
X0110561Y0149424D01*
X0109811Y0148675D01*
X0109061Y0149424D01*
X0108791Y0149424D01*
X0108791Y0151664D01*
X0112791Y0155664D01*
X0112791Y0179046D01*
X0113582Y0179836D01*
X0112791Y0178572D02*
X0175791Y0178572D01*
X0175791Y0177574D02*
X0112791Y0177574D01*
X0112791Y0176575D02*
X0175791Y0176575D01*
X0175791Y0175577D02*
X0112791Y0175577D01*
X0112791Y0174578D02*
X0175791Y0174578D01*
X0175791Y0173580D02*
X0112791Y0173580D01*
X0112791Y0172581D02*
X0175791Y0172581D01*
X0175791Y0171583D02*
X0112791Y0171583D01*
X0112791Y0170584D02*
X0150890Y0170584D01*
X0150020Y0169586D02*
X0112791Y0169586D01*
X0112791Y0168587D02*
X0150020Y0168587D01*
X0150249Y0167589D02*
X0112791Y0167589D01*
X0112791Y0166590D02*
X0150811Y0166590D01*
X0150811Y0165592D02*
X0112791Y0165592D01*
X0112791Y0164593D02*
X0150811Y0164593D01*
X0150811Y0163595D02*
X0112791Y0163595D01*
X0112791Y0162596D02*
X0141863Y0162596D01*
X0141001Y0161598D02*
X0112791Y0161598D01*
X0112791Y0160599D02*
X0141001Y0160599D01*
X0141237Y0159601D02*
X0112791Y0159601D01*
X0112791Y0158602D02*
X0142235Y0158602D01*
X0144352Y0157604D02*
X0112791Y0157604D01*
X0112791Y0156605D02*
X0145350Y0156605D01*
X0145811Y0155606D02*
X0112734Y0155606D01*
X0111736Y0154608D02*
X0145811Y0154608D01*
X0145811Y0153609D02*
X0110737Y0153609D01*
X0109738Y0152611D02*
X0145811Y0152611D01*
X0145811Y0151612D02*
X0108791Y0151612D01*
X0108791Y0150614D02*
X0145811Y0150614D01*
X0145811Y0149615D02*
X0108791Y0149615D01*
X0105791Y0149615D02*
X0020542Y0149615D01*
X0020553Y0148617D02*
X0079753Y0148617D01*
X0079380Y0147618D02*
X0020564Y0147618D01*
X0020575Y0146620D02*
X0079380Y0146620D01*
X0079380Y0145621D02*
X0073642Y0145621D01*
X0074191Y0145072D02*
X0073078Y0146185D01*
X0052144Y0146185D01*
X0051744Y0146585D01*
X0049839Y0146585D01*
X0048491Y0145238D01*
X0048491Y0121332D01*
X0049839Y0119985D01*
X0053991Y0115832D01*
X0053991Y0087332D01*
X0055339Y0085985D01*
X0092839Y0085985D01*
X0095839Y0082985D01*
X0097744Y0082985D01*
X0099091Y0084332D01*
X0099091Y0086238D01*
X0096091Y0089238D01*
X0094744Y0090585D01*
X0058591Y0090585D01*
X0058591Y0117738D01*
X0053091Y0123238D01*
X0053091Y0142385D01*
X0071504Y0142385D01*
X0080004Y0133885D01*
X0083952Y0133885D01*
X0084343Y0133495D01*
X0086240Y0133495D01*
X0087582Y0134836D01*
X0087582Y0136734D01*
X0086240Y0138076D01*
X0084343Y0138076D01*
X0083952Y0137685D01*
X0081578Y0137685D01*
X0074191Y0145072D01*
X0074641Y0144623D02*
X0079380Y0144623D01*
X0079380Y0143624D02*
X0075639Y0143624D01*
X0076638Y0142626D02*
X0079451Y0142626D01*
X0080449Y0141627D02*
X0077636Y0141627D01*
X0078635Y0140629D02*
X0095791Y0140629D01*
X0095791Y0139630D02*
X0079633Y0139630D01*
X0080632Y0138632D02*
X0095517Y0138632D01*
X0094518Y0137633D02*
X0086682Y0137633D01*
X0087582Y0136635D02*
X0093520Y0136635D01*
X0092521Y0135636D02*
X0087582Y0135636D01*
X0087383Y0134638D02*
X0091523Y0134638D01*
X0090524Y0133639D02*
X0086385Y0133639D01*
X0084198Y0133639D02*
X0075385Y0133639D01*
X0075240Y0133495D02*
X0076582Y0134836D01*
X0076582Y0136734D01*
X0075240Y0138076D01*
X0073343Y0138076D01*
X0072552Y0137285D01*
X0069031Y0137285D01*
X0068240Y0138076D01*
X0066343Y0138076D01*
X0065001Y0136734D01*
X0065001Y0134836D01*
X0066343Y0133495D01*
X0068240Y0133495D01*
X0069031Y0134285D01*
X0072552Y0134285D01*
X0073343Y0133495D01*
X0075240Y0133495D01*
X0076383Y0134638D02*
X0079252Y0134638D01*
X0078253Y0135636D02*
X0076582Y0135636D01*
X0076582Y0136635D02*
X0077255Y0136635D01*
X0076256Y0137633D02*
X0075682Y0137633D01*
X0075258Y0138632D02*
X0053091Y0138632D01*
X0053091Y0139630D02*
X0074259Y0139630D01*
X0073261Y0140629D02*
X0053091Y0140629D01*
X0053091Y0141627D02*
X0072262Y0141627D01*
X0072900Y0137633D02*
X0068682Y0137633D01*
X0065900Y0137633D02*
X0053091Y0137633D01*
X0053091Y0136635D02*
X0065001Y0136635D01*
X0065001Y0135636D02*
X0053091Y0135636D01*
X0053091Y0134638D02*
X0065199Y0134638D01*
X0066198Y0133639D02*
X0053091Y0133639D01*
X0053091Y0132641D02*
X0089526Y0132641D01*
X0088527Y0131642D02*
X0053091Y0131642D01*
X0053091Y0130644D02*
X0087529Y0130644D01*
X0086530Y0129645D02*
X0053091Y0129645D01*
X0053091Y0128647D02*
X0085532Y0128647D01*
X0084533Y0127648D02*
X0068168Y0127648D01*
X0065415Y0127648D02*
X0053091Y0127648D01*
X0053091Y0126650D02*
X0064501Y0126650D01*
X0064501Y0125651D02*
X0053091Y0125651D01*
X0053091Y0124653D02*
X0064684Y0124653D01*
X0065683Y0123654D02*
X0053091Y0123654D01*
X0053674Y0122656D02*
X0114291Y0122656D01*
X0114291Y0123654D02*
X0067900Y0123654D01*
X0068385Y0133639D02*
X0073198Y0133639D01*
X0084173Y0141627D02*
X0085449Y0141627D01*
X0089173Y0141627D02*
X0090449Y0141627D01*
X0094173Y0141627D02*
X0095449Y0141627D01*
X0098791Y0140629D02*
X0121014Y0140629D01*
X0120449Y0141627D02*
X0119173Y0141627D01*
X0120015Y0139630D02*
X0098791Y0139630D01*
X0098791Y0138632D02*
X0119017Y0138632D01*
X0118018Y0137633D02*
X0098761Y0137633D01*
X0097762Y0136635D02*
X0117020Y0136635D01*
X0116021Y0135636D02*
X0096764Y0135636D01*
X0095765Y0134638D02*
X0115023Y0134638D01*
X0114291Y0133639D02*
X0094767Y0133639D01*
X0093768Y0132641D02*
X0114291Y0132641D01*
X0114291Y0131642D02*
X0092770Y0131642D01*
X0091771Y0130644D02*
X0114291Y0130644D01*
X0114291Y0129645D02*
X0090773Y0129645D01*
X0089774Y0128647D02*
X0114291Y0128647D01*
X0114291Y0127648D02*
X0088776Y0127648D01*
X0087777Y0126650D02*
X0114291Y0126650D01*
X0114291Y0125651D02*
X0086779Y0125651D01*
X0085780Y0124653D02*
X0114291Y0124653D01*
X0114291Y0121657D02*
X0054672Y0121657D01*
X0055671Y0120659D02*
X0114291Y0120659D01*
X0114291Y0119660D02*
X0056669Y0119660D01*
X0057668Y0118662D02*
X0114291Y0118662D01*
X0114291Y0117663D02*
X0058591Y0117663D01*
X0058591Y0116665D02*
X0113931Y0116665D01*
X0113501Y0115666D02*
X0058591Y0115666D01*
X0058591Y0114668D02*
X0113501Y0114668D01*
X0114168Y0113669D02*
X0058591Y0113669D01*
X0058591Y0112670D02*
X0125001Y0112670D01*
X0125001Y0111672D02*
X0058591Y0111672D01*
X0058591Y0110673D02*
X0089940Y0110673D01*
X0089501Y0110234D02*
X0090843Y0111576D01*
X0092740Y0111576D01*
X0093131Y0111185D01*
X0102078Y0111185D01*
X0103191Y0110072D01*
X0106688Y0106576D01*
X0107240Y0106576D01*
X0108582Y0105234D01*
X0108582Y0103336D01*
X0107240Y0101995D01*
X0105343Y0101995D01*
X0104001Y0103336D01*
X0104001Y0103889D01*
X0100504Y0107385D01*
X0093131Y0107385D01*
X0092740Y0106995D01*
X0090843Y0106995D01*
X0089501Y0108336D01*
X0089501Y0110234D01*
X0089501Y0109675D02*
X0058591Y0109675D01*
X0058591Y0108676D02*
X0089501Y0108676D01*
X0090159Y0107678D02*
X0058591Y0107678D01*
X0058591Y0106679D02*
X0101210Y0106679D01*
X0102209Y0105681D02*
X0058591Y0105681D01*
X0058591Y0104682D02*
X0103207Y0104682D01*
X0104001Y0103684D02*
X0058591Y0103684D01*
X0058591Y0102685D02*
X0104652Y0102685D01*
X0107931Y0102685D02*
X0132268Y0102685D01*
X0132268Y0101687D02*
X0058591Y0101687D01*
X0058591Y0100688D02*
X0108455Y0100688D01*
X0108001Y0100234D02*
X0108001Y0098336D01*
X0108791Y0097546D01*
X0108791Y0093406D01*
X0095811Y0080426D01*
X0095811Y0080054D01*
X0095561Y0080054D01*
X0094811Y0079305D01*
X0094061Y0080054D01*
X0090561Y0080054D01*
X0089811Y0079305D01*
X0089061Y0080054D01*
X0085561Y0080054D01*
X0084811Y0079305D01*
X0084061Y0080054D01*
X0080561Y0080054D01*
X0079380Y0078874D01*
X0079380Y0073326D01*
X0080561Y0072146D01*
X0084061Y0072146D01*
X0084811Y0072896D01*
X0085561Y0072146D01*
X0089061Y0072146D01*
X0089811Y0072896D01*
X0090561Y0072146D01*
X0094061Y0072146D01*
X0094811Y0072896D01*
X0095561Y0072146D01*
X0099061Y0072146D01*
X0099528Y0072613D01*
X0099856Y0072285D01*
X0100252Y0072021D01*
X0100691Y0071839D01*
X0101158Y0071746D01*
X0101896Y0071746D01*
X0101896Y0075685D01*
X0102726Y0075685D01*
X0102726Y0071746D01*
X0103464Y0071746D01*
X0103931Y0071839D01*
X0104370Y0072021D01*
X0104766Y0072285D01*
X0105094Y0072613D01*
X0105561Y0072146D01*
X0109061Y0072146D01*
X0109811Y0072896D01*
X0110561Y0072146D01*
X0110811Y0072146D01*
X0110811Y0069426D01*
X0109670Y0068285D01*
X0091170Y0068285D01*
X0088961Y0066076D01*
X0087843Y0066076D01*
X0086501Y0064734D01*
X0086501Y0062836D01*
X0087843Y0061495D01*
X0089740Y0061495D01*
X0091082Y0062836D01*
X0091082Y0063954D01*
X0092413Y0065285D01*
X0110913Y0065285D01*
X0111791Y0066164D01*
X0113811Y0068183D01*
X0113811Y0072146D01*
X0114061Y0072146D01*
X0114811Y0072896D01*
X0115561Y0072146D01*
X0119061Y0072146D01*
X0119811Y0072896D01*
X0120561Y0072146D01*
X0124061Y0072146D01*
X0124811Y0072896D01*
X0125561Y0072146D01*
X0129061Y0072146D01*
X0129811Y0072896D01*
X0130561Y0072146D01*
X0134061Y0072146D01*
X0134811Y0072896D01*
X0135561Y0072146D01*
X0139061Y0072146D01*
X0139811Y0072896D01*
X0140561Y0072146D01*
X0144061Y0072146D01*
X0144811Y0072896D01*
X0145561Y0072146D01*
X0149061Y0072146D01*
X0149811Y0072896D01*
X0150561Y0072146D01*
X0150913Y0072146D01*
X0150001Y0071234D01*
X0150001Y0069336D01*
X0150791Y0068546D01*
X0150791Y0043524D01*
X0150001Y0042734D01*
X0150001Y0040836D01*
X0151343Y0039495D01*
X0153240Y0039495D01*
X0154582Y0040836D01*
X0154582Y0042734D01*
X0153791Y0043524D01*
X0153791Y0068546D01*
X0154291Y0069046D01*
X0154791Y0068546D01*
X0154791Y0051524D01*
X0154001Y0050734D01*
X0154001Y0048836D01*
X0155343Y0047495D01*
X0157240Y0047495D01*
X0158582Y0048836D01*
X0158582Y0050734D01*
X0157791Y0051524D01*
X0157791Y0068546D01*
X0158582Y0069336D01*
X0158582Y0071234D01*
X0157670Y0072146D01*
X0159061Y0072146D01*
X0159811Y0072896D01*
X0160561Y0072146D01*
X0164061Y0072146D01*
X0164811Y0072896D01*
X0164991Y0072715D01*
X0164991Y0069832D01*
X0166339Y0068485D01*
X0168244Y0068485D01*
X0169591Y0069832D01*
X0169591Y0072550D01*
X0169856Y0072285D01*
X0170252Y0072021D01*
X0170691Y0071839D01*
X0171158Y0071746D01*
X0171896Y0071746D01*
X0171896Y0075685D01*
X0172726Y0075685D01*
X0172726Y0071746D01*
X0173464Y0071746D01*
X0173931Y0071839D01*
X0174370Y0072021D01*
X0174766Y0072285D01*
X0175102Y0072621D01*
X0175367Y0073017D01*
X0175549Y0073457D01*
X0175642Y0073923D01*
X0175642Y0075685D01*
X0172726Y0075685D01*
X0172726Y0076515D01*
X0175642Y0076515D01*
X0175642Y0078277D01*
X0175549Y0078744D01*
X0175367Y0079183D01*
X0175102Y0079579D01*
X0174766Y0079915D01*
X0174370Y0080180D01*
X0173931Y0080362D01*
X0173464Y0080454D01*
X0172726Y0080454D01*
X0172726Y0076516D01*
X0171896Y0076516D01*
X0171896Y0080454D01*
X0171158Y0080454D01*
X0170691Y0080362D01*
X0170252Y0080180D01*
X0169856Y0079915D01*
X0169528Y0079587D01*
X0169061Y0080054D01*
X0165561Y0080054D01*
X0164811Y0079305D01*
X0164061Y0080054D01*
X0163891Y0080054D01*
X0163891Y0081146D01*
X0164582Y0081836D01*
X0164582Y0083734D01*
X0163240Y0085076D01*
X0161343Y0085076D01*
X0160001Y0083734D01*
X0160001Y0081836D01*
X0160691Y0081146D01*
X0160691Y0080054D01*
X0160561Y0080054D01*
X0159811Y0079305D01*
X0159061Y0080054D01*
X0155561Y0080054D01*
X0154811Y0079305D01*
X0154061Y0080054D01*
X0150561Y0080054D01*
X0149811Y0079305D01*
X0149061Y0080054D01*
X0145561Y0080054D01*
X0144811Y0079305D01*
X0144061Y0080054D01*
X0140561Y0080054D01*
X0139811Y0079305D01*
X0139061Y0080054D01*
X0135561Y0080054D01*
X0134811Y0079305D01*
X0134061Y0080054D01*
X0130561Y0080054D01*
X0129811Y0079305D01*
X0129061Y0080054D01*
X0125561Y0080054D01*
X0124811Y0079305D01*
X0124061Y0080054D01*
X0120561Y0080054D01*
X0119811Y0079305D01*
X0119061Y0080054D01*
X0115561Y0080054D01*
X0114811Y0079305D01*
X0114061Y0080054D01*
X0110561Y0080054D01*
X0109811Y0079305D01*
X0109061Y0080054D01*
X0108811Y0080054D01*
X0108811Y0080183D01*
X0111913Y0083285D01*
X0120413Y0083285D01*
X0122913Y0085785D01*
X0123791Y0086664D01*
X0123791Y0096546D01*
X0124582Y0097336D01*
X0124582Y0099234D01*
X0123240Y0100576D01*
X0121343Y0100576D01*
X0120001Y0099234D01*
X0120001Y0097336D01*
X0120791Y0096546D01*
X0120791Y0087906D01*
X0119170Y0086285D01*
X0110670Y0086285D01*
X0109791Y0085406D01*
X0105811Y0081426D01*
X0105811Y0080054D01*
X0105561Y0080054D01*
X0105094Y0079587D01*
X0104766Y0079915D01*
X0104370Y0080180D01*
X0103931Y0080362D01*
X0103464Y0080454D01*
X0102726Y0080454D01*
X0102726Y0076516D01*
X0101896Y0076516D01*
X0101896Y0080454D01*
X0101158Y0080454D01*
X0100691Y0080362D01*
X0100252Y0080180D01*
X0099856Y0079915D01*
X0099528Y0079587D01*
X0099372Y0079744D01*
X0110913Y0091285D01*
X0111791Y0092164D01*
X0111791Y0097546D01*
X0112582Y0098336D01*
X0112582Y0100234D01*
X0111240Y0101576D01*
X0109343Y0101576D01*
X0108001Y0100234D01*
X0108001Y0099690D02*
X0058591Y0099690D01*
X0058591Y0098691D02*
X0108001Y0098691D01*
X0108644Y0097693D02*
X0058591Y0097693D01*
X0058591Y0096694D02*
X0108791Y0096694D01*
X0108791Y0095696D02*
X0058591Y0095696D01*
X0058591Y0094697D02*
X0108791Y0094697D01*
X0108791Y0093699D02*
X0058591Y0093699D01*
X0058591Y0092700D02*
X0108085Y0092700D01*
X0107087Y0091702D02*
X0058591Y0091702D01*
X0058591Y0090703D02*
X0106088Y0090703D01*
X0105090Y0089705D02*
X0095624Y0089705D01*
X0096091Y0089238D02*
X0096091Y0089238D01*
X0096623Y0088706D02*
X0104091Y0088706D01*
X0103093Y0087708D02*
X0097621Y0087708D01*
X0098620Y0086709D02*
X0102094Y0086709D01*
X0101096Y0085711D02*
X0099091Y0085711D01*
X0099091Y0084712D02*
X0100097Y0084712D01*
X0099099Y0083714D02*
X0098473Y0083714D01*
X0098100Y0082715D02*
X0043461Y0082715D01*
X0043582Y0083714D02*
X0095110Y0083714D01*
X0094112Y0084712D02*
X0043582Y0084712D01*
X0042891Y0085711D02*
X0093113Y0085711D01*
X0097102Y0081717D02*
X0042462Y0081717D01*
X0040120Y0081717D02*
X0018791Y0081717D01*
X0018791Y0082715D02*
X0039122Y0082715D01*
X0039001Y0083714D02*
X0018791Y0083714D01*
X0018791Y0084712D02*
X0039001Y0084712D01*
X0039691Y0085711D02*
X0018791Y0085711D01*
X0018791Y0086709D02*
X0039691Y0086709D01*
X0042891Y0086709D02*
X0054615Y0086709D01*
X0053991Y0087708D02*
X0049411Y0087708D01*
X0049373Y0087670D02*
X0050407Y0088704D01*
X0050966Y0090054D01*
X0050966Y0091516D01*
X0050407Y0092867D01*
X0049373Y0093900D01*
X0048022Y0094460D01*
X0046560Y0094460D01*
X0045210Y0093900D01*
X0044176Y0092867D01*
X0043617Y0091516D01*
X0043617Y0090054D01*
X0044176Y0088704D01*
X0045210Y0087670D01*
X0046560Y0087110D01*
X0048022Y0087110D01*
X0049373Y0087670D01*
X0050408Y0088706D02*
X0053991Y0088706D01*
X0053991Y0089705D02*
X0050821Y0089705D01*
X0050966Y0090703D02*
X0053991Y0090703D01*
X0053991Y0091702D02*
X0050889Y0091702D01*
X0050476Y0092700D02*
X0053991Y0092700D01*
X0053991Y0093699D02*
X0049575Y0093699D01*
X0048246Y0096811D02*
X0048856Y0097009D01*
X0049427Y0097300D01*
X0049946Y0097677D01*
X0050399Y0098131D01*
X0050776Y0098649D01*
X0051068Y0099221D01*
X0051266Y0099831D01*
X0051366Y0100464D01*
X0051366Y0100498D01*
X0047579Y0100498D01*
X0047579Y0101073D01*
X0047004Y0101073D01*
X0047004Y0104860D01*
X0046971Y0104860D01*
X0046337Y0104760D01*
X0045727Y0104561D01*
X0045156Y0104270D01*
X0044637Y0103893D01*
X0044183Y0103440D01*
X0043806Y0102921D01*
X0043515Y0102349D01*
X0043317Y0101739D01*
X0043217Y0101106D01*
X0043217Y0101073D01*
X0047004Y0101073D01*
X0047004Y0100498D01*
X0043217Y0100498D01*
X0043217Y0100464D01*
X0043317Y0099831D01*
X0043515Y0099221D01*
X0043806Y0098649D01*
X0044183Y0098131D01*
X0044637Y0097677D01*
X0045156Y0097300D01*
X0045727Y0097009D01*
X0046337Y0096811D01*
X0046971Y0096710D01*
X0047004Y0096710D01*
X0047004Y0100498D01*
X0047579Y0100498D01*
X0047579Y0096710D01*
X0047612Y0096710D01*
X0048246Y0096811D01*
X0047579Y0097693D02*
X0047004Y0097693D01*
X0047004Y0098691D02*
X0047579Y0098691D01*
X0047579Y0099690D02*
X0047004Y0099690D01*
X0047004Y0100688D02*
X0042891Y0100688D01*
X0042891Y0099690D02*
X0043363Y0099690D01*
X0043785Y0098691D02*
X0042891Y0098691D01*
X0042891Y0097693D02*
X0044621Y0097693D01*
X0042891Y0096694D02*
X0053991Y0096694D01*
X0053991Y0095696D02*
X0042891Y0095696D01*
X0042891Y0094697D02*
X0053991Y0094697D01*
X0053991Y0097693D02*
X0049962Y0097693D01*
X0050798Y0098691D02*
X0053991Y0098691D01*
X0053991Y0099690D02*
X0051220Y0099690D01*
X0051366Y0101073D02*
X0051366Y0101106D01*
X0051266Y0101739D01*
X0051068Y0102349D01*
X0050776Y0102921D01*
X0050399Y0103440D01*
X0049946Y0103893D01*
X0049427Y0104270D01*
X0048856Y0104561D01*
X0048246Y0104760D01*
X0047612Y0104860D01*
X0047579Y0104860D01*
X0047579Y0101073D01*
X0051366Y0101073D01*
X0051274Y0101687D02*
X0053991Y0101687D01*
X0053991Y0102685D02*
X0050896Y0102685D01*
X0050155Y0103684D02*
X0053991Y0103684D01*
X0053991Y0104682D02*
X0048483Y0104682D01*
X0047579Y0104682D02*
X0047004Y0104682D01*
X0046100Y0104682D02*
X0042891Y0104682D01*
X0042891Y0103684D02*
X0044427Y0103684D01*
X0043686Y0102685D02*
X0042891Y0102685D01*
X0042891Y0101687D02*
X0043309Y0101687D01*
X0042891Y0105681D02*
X0053991Y0105681D01*
X0053991Y0106679D02*
X0042891Y0106679D01*
X0042891Y0107678D02*
X0045202Y0107678D01*
X0045210Y0107670D02*
X0046560Y0107110D01*
X0048022Y0107110D01*
X0049373Y0107670D01*
X0050407Y0108704D01*
X0050966Y0110054D01*
X0050966Y0111516D01*
X0050407Y0112867D01*
X0049373Y0113900D01*
X0048022Y0114460D01*
X0046560Y0114460D01*
X0045210Y0113900D01*
X0044176Y0112867D01*
X0043617Y0111516D01*
X0043617Y0110054D01*
X0044176Y0108704D01*
X0045210Y0107670D01*
X0044203Y0108676D02*
X0042891Y0108676D01*
X0042891Y0109675D02*
X0043774Y0109675D01*
X0043617Y0110673D02*
X0042891Y0110673D01*
X0042891Y0111672D02*
X0043681Y0111672D01*
X0044095Y0112670D02*
X0042891Y0112670D01*
X0042891Y0113669D02*
X0044978Y0113669D01*
X0042672Y0114668D02*
X0053991Y0114668D01*
X0053991Y0115666D02*
X0041673Y0115666D01*
X0040675Y0116665D02*
X0053159Y0116665D01*
X0052161Y0117663D02*
X0021676Y0117663D01*
X0020882Y0118662D02*
X0051162Y0118662D01*
X0050164Y0119660D02*
X0020871Y0119660D01*
X0020860Y0120659D02*
X0049165Y0120659D01*
X0049839Y0119985D02*
X0049839Y0119985D01*
X0048491Y0121657D02*
X0020849Y0121657D01*
X0020838Y0122656D02*
X0048491Y0122656D01*
X0048491Y0123654D02*
X0020827Y0123654D01*
X0020816Y0124653D02*
X0048491Y0124653D01*
X0048491Y0125651D02*
X0020805Y0125651D01*
X0020794Y0126650D02*
X0048491Y0126650D01*
X0048491Y0127648D02*
X0020783Y0127648D01*
X0020772Y0128647D02*
X0048491Y0128647D01*
X0048491Y0129645D02*
X0020761Y0129645D01*
X0020750Y0130644D02*
X0048491Y0130644D01*
X0048491Y0131642D02*
X0020739Y0131642D01*
X0020728Y0132641D02*
X0048491Y0132641D01*
X0048491Y0133639D02*
X0020717Y0133639D01*
X0020706Y0134638D02*
X0048491Y0134638D01*
X0048491Y0135636D02*
X0020695Y0135636D01*
X0020684Y0136635D02*
X0048491Y0136635D01*
X0048491Y0137633D02*
X0020673Y0137633D01*
X0020662Y0138632D02*
X0048491Y0138632D01*
X0048491Y0139630D02*
X0020651Y0139630D01*
X0020640Y0140629D02*
X0048491Y0140629D01*
X0048491Y0141627D02*
X0020629Y0141627D01*
X0020618Y0142626D02*
X0048491Y0142626D01*
X0048491Y0143624D02*
X0020607Y0143624D01*
X0020597Y0144623D02*
X0048491Y0144623D01*
X0048875Y0145621D02*
X0020586Y0145621D01*
X0020531Y0150614D02*
X0105791Y0150614D01*
X0105791Y0151612D02*
X0020520Y0151612D01*
X0020509Y0152611D02*
X0105791Y0152611D01*
X0106494Y0153609D02*
X0020498Y0153609D01*
X0020487Y0154608D02*
X0107493Y0154608D01*
X0108491Y0155606D02*
X0020476Y0155606D01*
X0020465Y0156605D02*
X0109490Y0156605D01*
X0109791Y0157604D02*
X0020454Y0157604D01*
X0020443Y0158602D02*
X0109791Y0158602D01*
X0109791Y0159601D02*
X0020432Y0159601D01*
X0020421Y0160599D02*
X0083738Y0160599D01*
X0084343Y0159995D02*
X0086240Y0159995D01*
X0087582Y0161336D01*
X0087582Y0163234D01*
X0086791Y0164024D01*
X0086791Y0170546D01*
X0087582Y0171336D01*
X0087582Y0173234D01*
X0086240Y0174576D01*
X0084343Y0174576D01*
X0083001Y0173234D01*
X0083001Y0171336D01*
X0083791Y0170546D01*
X0083791Y0164024D01*
X0083001Y0163234D01*
X0083001Y0161336D01*
X0084343Y0159995D01*
X0083001Y0161598D02*
X0020410Y0161598D01*
X0020399Y0162596D02*
X0083001Y0162596D01*
X0083361Y0163595D02*
X0021364Y0163595D01*
X0020791Y0165285D02*
X0035291Y0165285D01*
X0037791Y0167785D01*
X0037791Y0180285D01*
X0041291Y0183785D01*
X0108291Y0183785D01*
X0111291Y0180785D01*
X0109001Y0180569D02*
X0076331Y0180569D01*
X0076356Y0180561D02*
X0075746Y0180760D01*
X0075112Y0180860D01*
X0075079Y0180860D01*
X0075079Y0177073D01*
X0074504Y0177073D01*
X0074504Y0180860D01*
X0074471Y0180860D01*
X0073837Y0180760D01*
X0073227Y0180561D01*
X0072656Y0180270D01*
X0072137Y0179893D01*
X0071683Y0179440D01*
X0071306Y0178921D01*
X0071015Y0178349D01*
X0070817Y0177739D01*
X0070717Y0177106D01*
X0070717Y0177073D01*
X0074504Y0177073D01*
X0074504Y0176498D01*
X0070717Y0176498D01*
X0070717Y0176464D01*
X0070817Y0175831D01*
X0071015Y0175221D01*
X0071306Y0174649D01*
X0071683Y0174131D01*
X0072137Y0173677D01*
X0072656Y0173300D01*
X0073227Y0173009D01*
X0073837Y0172811D01*
X0074471Y0172710D01*
X0074504Y0172710D01*
X0074504Y0176498D01*
X0075079Y0176498D01*
X0075079Y0177073D01*
X0078866Y0177073D01*
X0078866Y0177106D01*
X0078766Y0177739D01*
X0078568Y0178349D01*
X0078276Y0178921D01*
X0077899Y0179440D01*
X0077446Y0179893D01*
X0076927Y0180270D01*
X0076356Y0180561D01*
X0075079Y0180569D02*
X0074504Y0180569D01*
X0074504Y0179571D02*
X0075079Y0179571D01*
X0075079Y0178572D02*
X0074504Y0178572D01*
X0074504Y0177574D02*
X0075079Y0177574D01*
X0075079Y0176575D02*
X0109791Y0176575D01*
X0109791Y0175577D02*
X0078683Y0175577D01*
X0078766Y0175831D02*
X0078866Y0176464D01*
X0078866Y0176498D01*
X0075079Y0176498D01*
X0075079Y0172710D01*
X0075112Y0172710D01*
X0075746Y0172811D01*
X0076356Y0173009D01*
X0076927Y0173300D01*
X0077446Y0173677D01*
X0077899Y0174131D01*
X0078276Y0174649D01*
X0078568Y0175221D01*
X0078766Y0175831D01*
X0078225Y0174578D02*
X0109791Y0174578D01*
X0109791Y0173580D02*
X0087236Y0173580D01*
X0087582Y0172581D02*
X0109791Y0172581D01*
X0109791Y0171583D02*
X0087582Y0171583D01*
X0086830Y0170584D02*
X0109791Y0170584D01*
X0109791Y0169586D02*
X0086791Y0169586D01*
X0086791Y0168587D02*
X0109791Y0168587D01*
X0109791Y0167589D02*
X0086791Y0167589D01*
X0086791Y0166590D02*
X0109791Y0166590D01*
X0109791Y0165592D02*
X0086791Y0165592D01*
X0086791Y0164593D02*
X0109791Y0164593D01*
X0109791Y0163595D02*
X0087221Y0163595D01*
X0087582Y0162596D02*
X0109791Y0162596D01*
X0109791Y0161598D02*
X0087582Y0161598D01*
X0086845Y0160599D02*
X0109791Y0160599D01*
X0109791Y0177574D02*
X0078792Y0177574D01*
X0078454Y0178572D02*
X0109791Y0178572D01*
X0109266Y0179571D02*
X0077768Y0179571D01*
X0074504Y0176575D02*
X0068466Y0176575D01*
X0068466Y0176054D02*
X0067907Y0174704D01*
X0066873Y0173670D01*
X0065522Y0173110D01*
X0064060Y0173110D01*
X0062710Y0173670D01*
X0061676Y0174704D01*
X0061117Y0176054D01*
X0061117Y0177516D01*
X0061676Y0178867D01*
X0062710Y0179900D01*
X0064060Y0180460D01*
X0065522Y0180460D01*
X0066873Y0179900D01*
X0067907Y0178867D01*
X0068466Y0177516D01*
X0068466Y0176054D01*
X0068268Y0175577D02*
X0070899Y0175577D01*
X0071358Y0174578D02*
X0067781Y0174578D01*
X0066655Y0173580D02*
X0072271Y0173580D01*
X0074504Y0173580D02*
X0075079Y0173580D01*
X0075079Y0174578D02*
X0074504Y0174578D01*
X0074504Y0175577D02*
X0075079Y0175577D01*
X0077312Y0173580D02*
X0083347Y0173580D01*
X0083001Y0172581D02*
X0039391Y0172581D01*
X0039391Y0171583D02*
X0083001Y0171583D01*
X0083753Y0170584D02*
X0039391Y0170584D01*
X0039391Y0169586D02*
X0083791Y0169586D01*
X0083791Y0168587D02*
X0039391Y0168587D01*
X0039391Y0167589D02*
X0083791Y0167589D01*
X0083791Y0166590D02*
X0038859Y0166590D01*
X0037861Y0165592D02*
X0083791Y0165592D01*
X0083791Y0164593D02*
X0036862Y0164593D01*
X0039391Y0173580D02*
X0062927Y0173580D01*
X0061801Y0174578D02*
X0039391Y0174578D01*
X0039391Y0175577D02*
X0061314Y0175577D01*
X0061117Y0176575D02*
X0039391Y0176575D01*
X0039391Y0177574D02*
X0061140Y0177574D01*
X0061554Y0178572D02*
X0039391Y0178572D01*
X0039391Y0179571D02*
X0062380Y0179571D01*
X0067203Y0179571D02*
X0071814Y0179571D01*
X0071129Y0178572D02*
X0068029Y0178572D01*
X0068442Y0177574D02*
X0070791Y0177574D01*
X0073251Y0180569D02*
X0040338Y0180569D01*
X0041337Y0181568D02*
X0108246Y0181568D01*
X0110774Y0183565D02*
X0175791Y0183565D01*
X0175791Y0182566D02*
X0112749Y0182566D01*
X0113582Y0181568D02*
X0175791Y0181568D01*
X0175791Y0170584D02*
X0153732Y0170584D01*
X0154602Y0169586D02*
X0175791Y0169586D01*
X0175791Y0168587D02*
X0154602Y0168587D01*
X0154374Y0167589D02*
X0175791Y0167589D01*
X0175791Y0166590D02*
X0159226Y0166590D01*
X0159582Y0165592D02*
X0175791Y0165592D01*
X0175791Y0164593D02*
X0159582Y0164593D01*
X0158840Y0163595D02*
X0175791Y0163595D01*
X0175791Y0162596D02*
X0158791Y0162596D01*
X0158791Y0161598D02*
X0175791Y0161598D01*
X0175791Y0160599D02*
X0158811Y0160599D01*
X0158811Y0159601D02*
X0175791Y0159601D01*
X0175791Y0158602D02*
X0158811Y0158602D01*
X0158811Y0157604D02*
X0175791Y0157604D01*
X0175791Y0156605D02*
X0158811Y0156605D01*
X0158811Y0155606D02*
X0175791Y0155606D01*
X0175791Y0154608D02*
X0158811Y0154608D01*
X0158811Y0153609D02*
X0175791Y0153609D01*
X0175791Y0152611D02*
X0158811Y0152611D01*
X0158811Y0151612D02*
X0175791Y0151612D01*
X0175791Y0150614D02*
X0158811Y0150614D01*
X0158811Y0149615D02*
X0170410Y0149615D01*
X0171896Y0149615D02*
X0172726Y0149615D01*
X0172726Y0149824D02*
X0172726Y0145886D01*
X0175642Y0145886D01*
X0175642Y0147647D01*
X0175549Y0148114D01*
X0175367Y0148553D01*
X0175102Y0148949D01*
X0174766Y0149285D01*
X0174370Y0149550D01*
X0173931Y0149732D01*
X0173464Y0149824D01*
X0172726Y0149824D01*
X0172726Y0148617D02*
X0171896Y0148617D01*
X0171896Y0147618D02*
X0172726Y0147618D01*
X0172726Y0146620D02*
X0171896Y0146620D01*
X0172726Y0145621D02*
X0175791Y0145621D01*
X0175791Y0144623D02*
X0175642Y0144623D01*
X0175642Y0143624D02*
X0175791Y0143624D01*
X0175791Y0142626D02*
X0175466Y0142626D01*
X0175791Y0141627D02*
X0174725Y0141627D01*
X0175791Y0140629D02*
X0170569Y0140629D01*
X0169897Y0141627D02*
X0169570Y0141627D01*
X0171896Y0141627D02*
X0172726Y0141627D01*
X0172726Y0142626D02*
X0171896Y0142626D01*
X0171896Y0143624D02*
X0172726Y0143624D01*
X0172726Y0144623D02*
X0171896Y0144623D01*
X0175642Y0146620D02*
X0175791Y0146620D01*
X0175791Y0147618D02*
X0175642Y0147618D01*
X0175791Y0148617D02*
X0175324Y0148617D01*
X0175791Y0149615D02*
X0174212Y0149615D01*
X0165449Y0141627D02*
X0165070Y0141627D01*
X0166069Y0140629D02*
X0166326Y0140629D01*
X0167067Y0139630D02*
X0167325Y0139630D01*
X0168066Y0138632D02*
X0168323Y0138632D01*
X0169064Y0137633D02*
X0169322Y0137633D01*
X0170063Y0136635D02*
X0170320Y0136635D01*
X0171062Y0135636D02*
X0171319Y0135636D01*
X0171791Y0134638D02*
X0172291Y0134638D01*
X0172291Y0133639D02*
X0171791Y0133639D01*
X0171791Y0132641D02*
X0172291Y0132641D01*
X0172291Y0131642D02*
X0171791Y0131642D01*
X0171791Y0130644D02*
X0172291Y0130644D01*
X0172291Y0129645D02*
X0171791Y0129645D01*
X0171791Y0128647D02*
X0172291Y0128647D01*
X0172291Y0127648D02*
X0171791Y0127648D01*
X0171791Y0126650D02*
X0172291Y0126650D01*
X0172291Y0125651D02*
X0171791Y0125651D01*
X0171791Y0124653D02*
X0172291Y0124653D01*
X0172291Y0123654D02*
X0171791Y0123654D01*
X0171791Y0122656D02*
X0172291Y0122656D01*
X0172291Y0121657D02*
X0171791Y0121657D01*
X0171791Y0120659D02*
X0172291Y0120659D01*
X0172291Y0119660D02*
X0171791Y0119660D01*
X0171791Y0118662D02*
X0172291Y0118662D01*
X0172291Y0117663D02*
X0171791Y0117663D01*
X0171791Y0116665D02*
X0172291Y0116665D01*
X0172291Y0115666D02*
X0171791Y0115666D01*
X0171791Y0114668D02*
X0172291Y0114668D01*
X0172291Y0113669D02*
X0171791Y0113669D01*
X0171791Y0112670D02*
X0172291Y0112670D01*
X0172291Y0111672D02*
X0171791Y0111672D01*
X0171791Y0110673D02*
X0172291Y0110673D01*
X0172291Y0109675D02*
X0171791Y0109675D01*
X0171791Y0108676D02*
X0172291Y0108676D01*
X0172291Y0107678D02*
X0171791Y0107678D01*
X0171791Y0106679D02*
X0172291Y0106679D01*
X0172291Y0105681D02*
X0171791Y0105681D01*
X0171791Y0104682D02*
X0172291Y0104682D01*
X0172291Y0103684D02*
X0171791Y0103684D01*
X0171791Y0102685D02*
X0172291Y0102685D01*
X0172291Y0101687D02*
X0171791Y0101687D01*
X0171791Y0100688D02*
X0172291Y0100688D01*
X0172291Y0099690D02*
X0171791Y0099690D01*
X0171791Y0098691D02*
X0172291Y0098691D01*
X0172291Y0097693D02*
X0170820Y0097693D01*
X0169822Y0096694D02*
X0172291Y0096694D01*
X0172291Y0095696D02*
X0162441Y0095696D01*
X0160141Y0095696D02*
X0154389Y0095696D01*
X0155388Y0096694D02*
X0159143Y0096694D01*
X0159001Y0097693D02*
X0156386Y0097693D01*
X0157385Y0098691D02*
X0159001Y0098691D01*
X0159957Y0099690D02*
X0157691Y0099690D01*
X0157691Y0100688D02*
X0168791Y0100688D01*
X0168791Y0101687D02*
X0157691Y0101687D01*
X0157691Y0102685D02*
X0168791Y0102685D01*
X0168791Y0103684D02*
X0157691Y0103684D01*
X0157691Y0104682D02*
X0168791Y0104682D01*
X0168791Y0105681D02*
X0157691Y0105681D01*
X0157691Y0106679D02*
X0168791Y0106679D01*
X0168791Y0107678D02*
X0157691Y0107678D01*
X0157691Y0108676D02*
X0168791Y0108676D01*
X0168791Y0109675D02*
X0158082Y0109675D01*
X0158082Y0110673D02*
X0168791Y0110673D01*
X0168791Y0111672D02*
X0157644Y0111672D01*
X0157167Y0112670D02*
X0155810Y0112670D01*
X0156501Y0113669D02*
X0154812Y0113669D01*
X0155788Y0114668D02*
X0153813Y0114668D01*
X0154789Y0115666D02*
X0152815Y0115666D01*
X0152000Y0111672D02*
X0151016Y0111672D01*
X0151016Y0110673D02*
X0152999Y0110673D01*
X0153501Y0109675D02*
X0151016Y0109675D01*
X0151016Y0108676D02*
X0153891Y0108676D01*
X0153891Y0107678D02*
X0151016Y0107678D01*
X0151016Y0106679D02*
X0153891Y0106679D01*
X0153891Y0105681D02*
X0142142Y0105681D01*
X0142142Y0104682D02*
X0141142Y0104682D01*
X0141142Y0103684D02*
X0142142Y0103684D01*
X0142142Y0102685D02*
X0141142Y0102685D01*
X0141142Y0101687D02*
X0142142Y0101687D01*
X0142142Y0100688D02*
X0141142Y0100688D01*
X0141142Y0099690D02*
X0142142Y0099690D01*
X0142142Y0098691D02*
X0141142Y0098691D01*
X0141142Y0097693D02*
X0142142Y0097693D01*
X0142142Y0096694D02*
X0141142Y0096694D01*
X0138063Y0092700D02*
X0146020Y0092700D01*
X0145391Y0091702D02*
X0139062Y0091702D01*
X0140060Y0090703D02*
X0145391Y0090703D01*
X0145391Y0089705D02*
X0141611Y0089705D01*
X0142082Y0088706D02*
X0145391Y0088706D01*
X0145391Y0087708D02*
X0142082Y0087708D01*
X0141455Y0086709D02*
X0145391Y0086709D01*
X0145391Y0085711D02*
X0122838Y0085711D01*
X0123791Y0086709D02*
X0138128Y0086709D01*
X0137501Y0087708D02*
X0123791Y0087708D01*
X0123791Y0088706D02*
X0136683Y0088706D01*
X0135685Y0089705D02*
X0123791Y0089705D01*
X0123791Y0090703D02*
X0134686Y0090703D01*
X0133688Y0091702D02*
X0123791Y0091702D01*
X0123791Y0092700D02*
X0132689Y0092700D01*
X0131691Y0093699D02*
X0123791Y0093699D01*
X0123791Y0094697D02*
X0130692Y0094697D01*
X0129694Y0095696D02*
X0123791Y0095696D01*
X0123940Y0096694D02*
X0128143Y0096694D01*
X0127501Y0097693D02*
X0124582Y0097693D01*
X0124582Y0098691D02*
X0127501Y0098691D01*
X0127957Y0099690D02*
X0124126Y0099690D01*
X0120457Y0099690D02*
X0112582Y0099690D01*
X0112582Y0098691D02*
X0120001Y0098691D01*
X0120001Y0097693D02*
X0111938Y0097693D01*
X0111791Y0096694D02*
X0120643Y0096694D01*
X0120791Y0095696D02*
X0111791Y0095696D01*
X0111791Y0094697D02*
X0120791Y0094697D01*
X0120791Y0093699D02*
X0111791Y0093699D01*
X0111791Y0092700D02*
X0120791Y0092700D01*
X0120791Y0091702D02*
X0111329Y0091702D01*
X0110331Y0090703D02*
X0120791Y0090703D01*
X0120791Y0089705D02*
X0109332Y0089705D01*
X0108334Y0088706D02*
X0120791Y0088706D01*
X0120593Y0087708D02*
X0107335Y0087708D01*
X0106337Y0086709D02*
X0119594Y0086709D01*
X0121840Y0084712D02*
X0145391Y0084712D01*
X0145001Y0083714D02*
X0120841Y0083714D01*
X0120226Y0079720D02*
X0119396Y0079720D01*
X0115226Y0079720D02*
X0114396Y0079720D01*
X0110226Y0079720D02*
X0109396Y0079720D01*
X0109346Y0080718D02*
X0146119Y0080718D01*
X0145226Y0079720D02*
X0144396Y0079720D01*
X0145120Y0081717D02*
X0110344Y0081717D01*
X0111343Y0082715D02*
X0145001Y0082715D01*
X0148464Y0080718D02*
X0160691Y0080718D01*
X0160226Y0079720D02*
X0159396Y0079720D01*
X0160120Y0081717D02*
X0149462Y0081717D01*
X0149582Y0082715D02*
X0160001Y0082715D01*
X0160001Y0083714D02*
X0149582Y0083714D01*
X0149191Y0084712D02*
X0160979Y0084712D01*
X0162291Y0082785D02*
X0162291Y0076120D01*
X0162311Y0076100D01*
X0164396Y0079720D02*
X0165226Y0079720D01*
X0163891Y0080718D02*
X0175791Y0080718D01*
X0175791Y0079720D02*
X0174962Y0079720D01*
X0175553Y0078721D02*
X0175791Y0078721D01*
X0175791Y0077723D02*
X0175642Y0077723D01*
X0175642Y0076724D02*
X0175791Y0076724D01*
X0175791Y0075726D02*
X0172726Y0075726D01*
X0172726Y0076724D02*
X0171896Y0076724D01*
X0171896Y0077723D02*
X0172726Y0077723D01*
X0172726Y0078721D02*
X0171896Y0078721D01*
X0171896Y0079720D02*
X0172726Y0079720D01*
X0169660Y0079720D02*
X0169396Y0079720D01*
X0171896Y0074727D02*
X0172726Y0074727D01*
X0172726Y0073729D02*
X0171896Y0073729D01*
X0171896Y0072730D02*
X0172726Y0072730D01*
X0175791Y0071732D02*
X0169591Y0071732D01*
X0169591Y0070733D02*
X0175791Y0070733D01*
X0175791Y0069735D02*
X0169493Y0069735D01*
X0168495Y0068736D02*
X0175791Y0068736D01*
X0175791Y0067737D02*
X0157791Y0067737D01*
X0157791Y0066739D02*
X0175791Y0066739D01*
X0175791Y0065740D02*
X0157791Y0065740D01*
X0157791Y0064742D02*
X0175791Y0064742D01*
X0175791Y0063743D02*
X0157791Y0063743D01*
X0157791Y0062745D02*
X0175791Y0062745D01*
X0175791Y0061746D02*
X0157791Y0061746D01*
X0157791Y0060748D02*
X0175791Y0060748D01*
X0175791Y0059749D02*
X0157791Y0059749D01*
X0157791Y0058751D02*
X0175791Y0058751D01*
X0175791Y0057752D02*
X0157791Y0057752D01*
X0157791Y0056754D02*
X0175791Y0056754D01*
X0175791Y0055755D02*
X0157791Y0055755D01*
X0157791Y0054757D02*
X0175791Y0054757D01*
X0175791Y0053758D02*
X0157791Y0053758D01*
X0157791Y0052760D02*
X0175791Y0052760D01*
X0175791Y0051761D02*
X0157791Y0051761D01*
X0158553Y0050763D02*
X0175791Y0050763D01*
X0175791Y0049764D02*
X0158582Y0049764D01*
X0158511Y0048766D02*
X0175791Y0048766D01*
X0175791Y0047767D02*
X0157513Y0047767D01*
X0155070Y0047767D02*
X0153791Y0047767D01*
X0153791Y0046769D02*
X0175791Y0046769D01*
X0175791Y0045770D02*
X0153791Y0045770D01*
X0153791Y0044772D02*
X0175791Y0044772D01*
X0175791Y0043773D02*
X0153791Y0043773D01*
X0154541Y0042775D02*
X0175791Y0042775D01*
X0175791Y0041776D02*
X0154582Y0041776D01*
X0154523Y0040778D02*
X0175791Y0040778D01*
X0175791Y0039779D02*
X0153525Y0039779D01*
X0151058Y0039779D02*
X0035596Y0039779D01*
X0034978Y0038781D02*
X0175791Y0038781D01*
X0175791Y0037782D02*
X0033657Y0037782D01*
X0034977Y0038779D02*
X0034977Y0038779D01*
X0034977Y0038779D01*
X0036215Y0040778D02*
X0150059Y0040778D01*
X0150001Y0041776D02*
X0053028Y0041776D01*
X0053246Y0041811D02*
X0053856Y0042009D01*
X0054427Y0042300D01*
X0054946Y0042677D01*
X0055399Y0043131D01*
X0055776Y0043649D01*
X0056068Y0044221D01*
X0056266Y0044831D01*
X0056366Y0045464D01*
X0056366Y0045498D01*
X0052579Y0045498D01*
X0052579Y0046073D01*
X0052004Y0046073D01*
X0052004Y0049860D01*
X0051971Y0049860D01*
X0051337Y0049760D01*
X0050727Y0049561D01*
X0050156Y0049270D01*
X0049637Y0048893D01*
X0049183Y0048440D01*
X0048806Y0047921D01*
X0048515Y0047349D01*
X0048317Y0046739D01*
X0048217Y0046106D01*
X0048217Y0046073D01*
X0052004Y0046073D01*
X0052004Y0045498D01*
X0048217Y0045498D01*
X0048217Y0045464D01*
X0048317Y0044831D01*
X0048515Y0044221D01*
X0048806Y0043649D01*
X0049183Y0043131D01*
X0049637Y0042677D01*
X0050156Y0042300D01*
X0050727Y0042009D01*
X0051337Y0041811D01*
X0051971Y0041710D01*
X0052004Y0041710D01*
X0052004Y0045498D01*
X0052579Y0045498D01*
X0052579Y0041710D01*
X0052612Y0041710D01*
X0053246Y0041811D01*
X0052579Y0041776D02*
X0052004Y0041776D01*
X0051555Y0041776D02*
X0036833Y0041776D01*
X0037129Y0042775D02*
X0040105Y0042775D01*
X0040210Y0042670D02*
X0041560Y0042110D01*
X0043022Y0042110D01*
X0044373Y0042670D01*
X0045407Y0043704D01*
X0045966Y0045054D01*
X0045966Y0046516D01*
X0045407Y0047867D01*
X0044373Y0048900D01*
X0043022Y0049460D01*
X0041560Y0049460D01*
X0040210Y0048900D01*
X0039176Y0047867D01*
X0038617Y0046516D01*
X0038617Y0045054D01*
X0039176Y0043704D01*
X0040210Y0042670D01*
X0039147Y0043773D02*
X0037315Y0043773D01*
X0037502Y0044772D02*
X0038734Y0044772D01*
X0038617Y0045770D02*
X0037689Y0045770D01*
X0037507Y0046769D02*
X0038721Y0046769D01*
X0039135Y0047767D02*
X0037321Y0047767D01*
X0037134Y0048766D02*
X0040075Y0048766D01*
X0036851Y0049764D02*
X0051367Y0049764D01*
X0052004Y0049764D02*
X0052579Y0049764D01*
X0052579Y0049860D02*
X0052579Y0046073D01*
X0056366Y0046073D01*
X0056366Y0046106D01*
X0056266Y0046739D01*
X0056068Y0047349D01*
X0055776Y0047921D01*
X0055399Y0048440D01*
X0054946Y0048893D01*
X0054427Y0049270D01*
X0053856Y0049561D01*
X0053246Y0049760D01*
X0052612Y0049860D01*
X0052579Y0049860D01*
X0053216Y0049764D02*
X0140366Y0049764D01*
X0141091Y0050489D02*
X0138178Y0047576D01*
X0137343Y0047576D01*
X0136001Y0046234D01*
X0136001Y0044336D01*
X0137343Y0042995D01*
X0139240Y0042995D01*
X0140582Y0044336D01*
X0140582Y0045172D01*
X0143495Y0048085D01*
X0144491Y0049081D01*
X0144491Y0065746D01*
X0145082Y0066336D01*
X0145082Y0068234D01*
X0143740Y0069576D01*
X0141843Y0069576D01*
X0140501Y0068234D01*
X0140501Y0066336D01*
X0141091Y0065746D01*
X0141091Y0050489D01*
X0141091Y0050763D02*
X0036233Y0050763D01*
X0035615Y0051761D02*
X0141091Y0051761D01*
X0141091Y0052760D02*
X0034997Y0052760D01*
X0034977Y0052792D02*
X0034977Y0052792D01*
X0034977Y0052792D01*
X0033697Y0053758D02*
X0141091Y0053758D01*
X0141091Y0054757D02*
X0032375Y0054757D01*
X0031927Y0055095D02*
X0031927Y0055095D01*
X0029605Y0055755D02*
X0141091Y0055755D01*
X0141091Y0056754D02*
X0018791Y0056754D01*
X0018791Y0057752D02*
X0141091Y0057752D01*
X0141091Y0058751D02*
X0018791Y0058751D01*
X0018791Y0059749D02*
X0141091Y0059749D01*
X0141091Y0060748D02*
X0018791Y0060748D01*
X0018791Y0061746D02*
X0087591Y0061746D01*
X0086592Y0062745D02*
X0018791Y0062745D01*
X0018791Y0063743D02*
X0086501Y0063743D01*
X0086509Y0064742D02*
X0018791Y0064742D01*
X0018791Y0065740D02*
X0087507Y0065740D01*
X0089624Y0066739D02*
X0018791Y0066739D01*
X0018791Y0067737D02*
X0090622Y0067737D01*
X0091869Y0064742D02*
X0141091Y0064742D01*
X0141091Y0065740D02*
X0111368Y0065740D01*
X0112367Y0066739D02*
X0140501Y0066739D01*
X0140501Y0067737D02*
X0113365Y0067737D01*
X0113811Y0068736D02*
X0141003Y0068736D01*
X0144580Y0068736D02*
X0150601Y0068736D01*
X0150791Y0067737D02*
X0145082Y0067737D01*
X0145082Y0066739D02*
X0150791Y0066739D01*
X0150791Y0065740D02*
X0144491Y0065740D01*
X0144491Y0064742D02*
X0150791Y0064742D01*
X0150791Y0063743D02*
X0144491Y0063743D01*
X0144491Y0062745D02*
X0150791Y0062745D01*
X0150791Y0061746D02*
X0144491Y0061746D01*
X0144491Y0060748D02*
X0150791Y0060748D01*
X0150791Y0059749D02*
X0144491Y0059749D01*
X0144491Y0058751D02*
X0150791Y0058751D01*
X0150791Y0057752D02*
X0144491Y0057752D01*
X0144491Y0056754D02*
X0150791Y0056754D01*
X0150791Y0055755D02*
X0144491Y0055755D01*
X0144491Y0054757D02*
X0150791Y0054757D01*
X0150791Y0053758D02*
X0144491Y0053758D01*
X0144491Y0052760D02*
X0150791Y0052760D01*
X0150791Y0051761D02*
X0144491Y0051761D01*
X0144491Y0050763D02*
X0150791Y0050763D01*
X0150791Y0049764D02*
X0144491Y0049764D01*
X0144176Y0048766D02*
X0150791Y0048766D01*
X0150791Y0047767D02*
X0143178Y0047767D01*
X0142179Y0046769D02*
X0150791Y0046769D01*
X0150791Y0045770D02*
X0141181Y0045770D01*
X0140582Y0044772D02*
X0150791Y0044772D01*
X0150791Y0043773D02*
X0140019Y0043773D01*
X0136564Y0043773D02*
X0075436Y0043773D01*
X0075407Y0043704D02*
X0075966Y0045054D01*
X0075966Y0046516D01*
X0075407Y0047867D01*
X0074373Y0048900D01*
X0073022Y0049460D01*
X0071560Y0049460D01*
X0070210Y0048900D01*
X0069176Y0047867D01*
X0068617Y0046516D01*
X0068617Y0045054D01*
X0069176Y0043704D01*
X0070210Y0042670D01*
X0071560Y0042110D01*
X0073022Y0042110D01*
X0074373Y0042670D01*
X0075407Y0043704D01*
X0075849Y0044772D02*
X0136001Y0044772D01*
X0136001Y0045770D02*
X0075966Y0045770D01*
X0075861Y0046769D02*
X0136536Y0046769D01*
X0138369Y0047767D02*
X0075448Y0047767D01*
X0074508Y0048766D02*
X0139368Y0048766D01*
X0150042Y0042775D02*
X0074478Y0042775D01*
X0070105Y0042775D02*
X0064478Y0042775D01*
X0064373Y0042670D02*
X0065407Y0043704D01*
X0065966Y0045054D01*
X0065966Y0046516D01*
X0065407Y0047867D01*
X0064373Y0048900D01*
X0063022Y0049460D01*
X0061560Y0049460D01*
X0060210Y0048900D01*
X0059176Y0047867D01*
X0058617Y0046516D01*
X0058617Y0045054D01*
X0059176Y0043704D01*
X0060210Y0042670D01*
X0061560Y0042110D01*
X0063022Y0042110D01*
X0064373Y0042670D01*
X0065436Y0043773D02*
X0069147Y0043773D01*
X0068734Y0044772D02*
X0065849Y0044772D01*
X0065966Y0045770D02*
X0068617Y0045770D01*
X0068721Y0046769D02*
X0065861Y0046769D01*
X0065448Y0047767D02*
X0069135Y0047767D01*
X0070075Y0048766D02*
X0064508Y0048766D01*
X0060075Y0048766D02*
X0055073Y0048766D01*
X0055855Y0047767D02*
X0059135Y0047767D01*
X0058721Y0046769D02*
X0056256Y0046769D01*
X0056247Y0044772D02*
X0058734Y0044772D01*
X0058617Y0045770D02*
X0052579Y0045770D01*
X0052004Y0045770D02*
X0045966Y0045770D01*
X0045861Y0046769D02*
X0048326Y0046769D01*
X0048728Y0047767D02*
X0045448Y0047767D01*
X0044508Y0048766D02*
X0049509Y0048766D01*
X0052004Y0048766D02*
X0052579Y0048766D01*
X0052579Y0047767D02*
X0052004Y0047767D01*
X0052004Y0046769D02*
X0052579Y0046769D01*
X0052579Y0044772D02*
X0052004Y0044772D01*
X0052004Y0043773D02*
X0052579Y0043773D01*
X0052579Y0042775D02*
X0052004Y0042775D01*
X0049539Y0042775D02*
X0044478Y0042775D01*
X0045436Y0043773D02*
X0048743Y0043773D01*
X0048336Y0044772D02*
X0045849Y0044772D01*
X0055044Y0042775D02*
X0060105Y0042775D01*
X0059147Y0043773D02*
X0055839Y0043773D01*
X0034391Y0068262D02*
X0035228Y0069099D01*
X0035681Y0070193D01*
X0035681Y0071377D01*
X0035228Y0072471D01*
X0034391Y0073308D01*
X0033297Y0073761D01*
X0032113Y0073761D01*
X0031019Y0073308D01*
X0030181Y0072471D01*
X0029728Y0071377D01*
X0029728Y0070193D01*
X0030181Y0069099D01*
X0031019Y0068262D01*
X0032113Y0067809D01*
X0033297Y0067809D01*
X0034391Y0068262D01*
X0034865Y0068736D02*
X0110121Y0068736D01*
X0110811Y0069735D02*
X0035491Y0069735D01*
X0035681Y0070733D02*
X0110811Y0070733D01*
X0110811Y0071732D02*
X0035534Y0071732D01*
X0034969Y0072730D02*
X0079977Y0072730D01*
X0079380Y0073729D02*
X0033376Y0073729D01*
X0032033Y0073729D02*
X0022550Y0073729D01*
X0022470Y0073761D02*
X0021286Y0073761D01*
X0020192Y0073308D01*
X0019355Y0072471D01*
X0018902Y0071377D01*
X0018902Y0070193D01*
X0019355Y0069099D01*
X0020192Y0068262D01*
X0021286Y0067809D01*
X0022470Y0067809D01*
X0023564Y0068262D01*
X0024401Y0069099D01*
X0024854Y0070193D01*
X0024854Y0071377D01*
X0024401Y0072471D01*
X0023564Y0073308D01*
X0022470Y0073761D01*
X0021206Y0073729D02*
X0018791Y0073729D01*
X0018791Y0074727D02*
X0079380Y0074727D01*
X0079380Y0075726D02*
X0018791Y0075726D01*
X0018791Y0076724D02*
X0079380Y0076724D01*
X0079380Y0077723D02*
X0018791Y0077723D01*
X0018791Y0078721D02*
X0079380Y0078721D01*
X0080226Y0079720D02*
X0018791Y0079720D01*
X0018791Y0080718D02*
X0096103Y0080718D01*
X0095226Y0079720D02*
X0094396Y0079720D01*
X0090226Y0079720D02*
X0089396Y0079720D01*
X0085226Y0079720D02*
X0084396Y0079720D01*
X0084645Y0072730D02*
X0084977Y0072730D01*
X0089645Y0072730D02*
X0089977Y0072730D01*
X0094645Y0072730D02*
X0094977Y0072730D01*
X0099396Y0079720D02*
X0099660Y0079720D01*
X0100346Y0080718D02*
X0105811Y0080718D01*
X0106102Y0081717D02*
X0101344Y0081717D01*
X0102343Y0082715D02*
X0107100Y0082715D01*
X0108099Y0083714D02*
X0103341Y0083714D01*
X0104340Y0084712D02*
X0109097Y0084712D01*
X0110096Y0085711D02*
X0105338Y0085711D01*
X0105226Y0079720D02*
X0104962Y0079720D01*
X0102726Y0079720D02*
X0101896Y0079720D01*
X0101896Y0078721D02*
X0102726Y0078721D01*
X0102726Y0077723D02*
X0101896Y0077723D01*
X0101896Y0076724D02*
X0102726Y0076724D01*
X0102726Y0074727D02*
X0101896Y0074727D01*
X0101896Y0073729D02*
X0102726Y0073729D01*
X0102726Y0072730D02*
X0101896Y0072730D01*
X0109645Y0072730D02*
X0109977Y0072730D01*
X0113811Y0071732D02*
X0150498Y0071732D01*
X0150001Y0070733D02*
X0113811Y0070733D01*
X0113811Y0069735D02*
X0150001Y0069735D01*
X0149977Y0072730D02*
X0149645Y0072730D01*
X0144977Y0072730D02*
X0144645Y0072730D01*
X0139977Y0072730D02*
X0139645Y0072730D01*
X0134977Y0072730D02*
X0134645Y0072730D01*
X0129977Y0072730D02*
X0129645Y0072730D01*
X0124977Y0072730D02*
X0124645Y0072730D01*
X0119977Y0072730D02*
X0119645Y0072730D01*
X0114977Y0072730D02*
X0114645Y0072730D01*
X0124396Y0079720D02*
X0125226Y0079720D01*
X0129396Y0079720D02*
X0130226Y0079720D01*
X0134396Y0079720D02*
X0135226Y0079720D01*
X0139396Y0079720D02*
X0140226Y0079720D01*
X0149396Y0079720D02*
X0150226Y0079720D01*
X0154396Y0079720D02*
X0155226Y0079720D01*
X0159645Y0072730D02*
X0159977Y0072730D01*
X0158084Y0071732D02*
X0164991Y0071732D01*
X0164977Y0072730D02*
X0164645Y0072730D01*
X0164991Y0070733D02*
X0158582Y0070733D01*
X0158582Y0069735D02*
X0165089Y0069735D01*
X0166088Y0068736D02*
X0157982Y0068736D01*
X0154791Y0067737D02*
X0153791Y0067737D01*
X0153791Y0066739D02*
X0154791Y0066739D01*
X0154791Y0065740D02*
X0153791Y0065740D01*
X0153791Y0064742D02*
X0154791Y0064742D01*
X0154791Y0063743D02*
X0153791Y0063743D01*
X0153791Y0062745D02*
X0154791Y0062745D01*
X0154791Y0061746D02*
X0153791Y0061746D01*
X0153791Y0060748D02*
X0154791Y0060748D01*
X0154791Y0059749D02*
X0153791Y0059749D01*
X0153791Y0058751D02*
X0154791Y0058751D01*
X0154791Y0057752D02*
X0153791Y0057752D01*
X0153791Y0056754D02*
X0154791Y0056754D01*
X0154791Y0055755D02*
X0153791Y0055755D01*
X0153791Y0054757D02*
X0154791Y0054757D01*
X0154791Y0053758D02*
X0153791Y0053758D01*
X0153791Y0052760D02*
X0154791Y0052760D01*
X0154791Y0051761D02*
X0153791Y0051761D01*
X0153791Y0050763D02*
X0154030Y0050763D01*
X0154001Y0049764D02*
X0153791Y0049764D01*
X0153791Y0048766D02*
X0154071Y0048766D01*
X0141091Y0061746D02*
X0089992Y0061746D01*
X0090990Y0062745D02*
X0141091Y0062745D01*
X0141091Y0063743D02*
X0091082Y0063743D01*
X0112127Y0100688D02*
X0132268Y0100688D01*
X0132268Y0099690D02*
X0131626Y0099690D01*
X0132082Y0098691D02*
X0132268Y0098691D01*
X0135068Y0095696D02*
X0149015Y0095696D01*
X0148017Y0094697D02*
X0136066Y0094697D01*
X0137065Y0093699D02*
X0147018Y0093699D01*
X0149396Y0090703D02*
X0159001Y0090703D01*
X0159001Y0089705D02*
X0149191Y0089705D01*
X0149191Y0088706D02*
X0159631Y0088706D01*
X0159469Y0091702D02*
X0150395Y0091702D01*
X0151393Y0092700D02*
X0172291Y0092700D01*
X0172291Y0093699D02*
X0152392Y0093699D01*
X0153391Y0094697D02*
X0172291Y0094697D01*
X0174831Y0090703D02*
X0175791Y0090703D01*
X0175791Y0089705D02*
X0173832Y0089705D01*
X0175791Y0088706D02*
X0162952Y0088706D01*
X0163604Y0084712D02*
X0175791Y0084712D01*
X0175791Y0083714D02*
X0164582Y0083714D01*
X0164582Y0082715D02*
X0175791Y0082715D01*
X0175791Y0081717D02*
X0164462Y0081717D01*
X0175791Y0085711D02*
X0149191Y0085711D01*
X0149191Y0086709D02*
X0175791Y0086709D01*
X0175791Y0087708D02*
X0149191Y0087708D01*
X0151016Y0098691D02*
X0152011Y0098691D01*
X0151016Y0099690D02*
X0153009Y0099690D01*
X0153891Y0100688D02*
X0151016Y0100688D01*
X0151016Y0101687D02*
X0153891Y0101687D01*
X0153891Y0102685D02*
X0151016Y0102685D01*
X0151016Y0103684D02*
X0153891Y0103684D01*
X0153891Y0104682D02*
X0151016Y0104682D01*
X0160416Y0112670D02*
X0168791Y0112670D01*
X0168791Y0113669D02*
X0161082Y0113669D01*
X0161082Y0114668D02*
X0168791Y0114668D01*
X0168791Y0115666D02*
X0160650Y0115666D01*
X0161410Y0116665D02*
X0168791Y0116665D01*
X0168791Y0117663D02*
X0162082Y0117663D01*
X0162082Y0118662D02*
X0168791Y0118662D01*
X0168791Y0119660D02*
X0161656Y0119660D01*
X0159539Y0120659D02*
X0168791Y0120659D01*
X0168791Y0121657D02*
X0156403Y0121657D01*
X0157401Y0122656D02*
X0168791Y0122656D01*
X0168791Y0123654D02*
X0157582Y0123654D01*
X0157582Y0124653D02*
X0168791Y0124653D01*
X0168791Y0125651D02*
X0156665Y0125651D01*
X0154548Y0126650D02*
X0168791Y0126650D01*
X0168791Y0127648D02*
X0126291Y0127648D01*
X0126291Y0126650D02*
X0129035Y0126650D01*
X0126918Y0125651D02*
X0126291Y0125651D01*
X0126291Y0128647D02*
X0168791Y0128647D01*
X0168791Y0129645D02*
X0126291Y0129645D01*
X0126291Y0130644D02*
X0168791Y0130644D01*
X0168791Y0131642D02*
X0126291Y0131642D01*
X0126291Y0132641D02*
X0168791Y0132641D01*
X0168791Y0133639D02*
X0126291Y0133639D01*
X0126883Y0134638D02*
X0167817Y0134638D01*
X0166819Y0135636D02*
X0127082Y0135636D01*
X0127082Y0136635D02*
X0165820Y0136635D01*
X0164822Y0137633D02*
X0136261Y0137633D01*
X0136791Y0138164D02*
X0136791Y0138164D01*
X0137259Y0138632D02*
X0163823Y0138632D01*
X0162825Y0139630D02*
X0138258Y0139630D01*
X0137913Y0139285D02*
X0137913Y0139285D01*
X0138791Y0140629D02*
X0161826Y0140629D01*
X0160449Y0141627D02*
X0159173Y0141627D01*
X0155449Y0141627D02*
X0154173Y0141627D01*
X0150449Y0141627D02*
X0149173Y0141627D01*
X0145449Y0141627D02*
X0144173Y0141627D01*
X0140449Y0141627D02*
X0139173Y0141627D01*
X0148811Y0149615D02*
X0150811Y0149615D01*
X0150811Y0150614D02*
X0148811Y0150614D01*
X0148811Y0151612D02*
X0150811Y0151612D01*
X0150811Y0152611D02*
X0148811Y0152611D01*
X0148811Y0153609D02*
X0150811Y0153609D01*
X0150811Y0154608D02*
X0148811Y0154608D01*
X0148811Y0155606D02*
X0150811Y0155606D01*
X0150811Y0156605D02*
X0148811Y0156605D01*
X0148594Y0157604D02*
X0150811Y0157604D01*
X0150811Y0158602D02*
X0147596Y0158602D01*
X0146597Y0159601D02*
X0150811Y0159601D01*
X0150811Y0160599D02*
X0145599Y0160599D01*
X0145582Y0161598D02*
X0150811Y0161598D01*
X0150811Y0162596D02*
X0144720Y0162596D01*
X0153811Y0162596D02*
X0155791Y0162596D01*
X0155791Y0161598D02*
X0153811Y0161598D01*
X0153811Y0160599D02*
X0155791Y0160599D01*
X0155811Y0159601D02*
X0153811Y0159601D01*
X0153811Y0158602D02*
X0155811Y0158602D01*
X0155811Y0157604D02*
X0153811Y0157604D01*
X0153811Y0156605D02*
X0155811Y0156605D01*
X0155811Y0155606D02*
X0153811Y0155606D01*
X0153811Y0154608D02*
X0155811Y0154608D01*
X0155811Y0153609D02*
X0153811Y0153609D01*
X0153811Y0152611D02*
X0155811Y0152611D01*
X0155811Y0151612D02*
X0153811Y0151612D01*
X0153811Y0150614D02*
X0155811Y0150614D01*
X0155811Y0149615D02*
X0153811Y0149615D01*
X0153811Y0163595D02*
X0155743Y0163595D01*
X0155001Y0164593D02*
X0153811Y0164593D01*
X0153811Y0165592D02*
X0155001Y0165592D01*
X0155357Y0166590D02*
X0153811Y0166590D01*
X0171567Y0139630D02*
X0175791Y0139630D01*
X0175791Y0138632D02*
X0172566Y0138632D01*
X0173564Y0137633D02*
X0175791Y0137633D01*
X0175791Y0136635D02*
X0174563Y0136635D01*
X0175291Y0135636D02*
X0175791Y0135636D01*
X0175791Y0134638D02*
X0175291Y0134638D01*
X0175291Y0133639D02*
X0175791Y0133639D01*
X0175791Y0132641D02*
X0175291Y0132641D01*
X0175291Y0131642D02*
X0175791Y0131642D01*
X0175791Y0130644D02*
X0175291Y0130644D01*
X0175291Y0129645D02*
X0175791Y0129645D01*
X0175791Y0128647D02*
X0175291Y0128647D01*
X0175291Y0127648D02*
X0175791Y0127648D01*
X0175791Y0126650D02*
X0175291Y0126650D01*
X0175291Y0125651D02*
X0175791Y0125651D01*
X0175791Y0124653D02*
X0175291Y0124653D01*
X0175291Y0123654D02*
X0175791Y0123654D01*
X0175791Y0122656D02*
X0175291Y0122656D01*
X0175291Y0121657D02*
X0175791Y0121657D01*
X0175791Y0120659D02*
X0175291Y0120659D01*
X0175291Y0119660D02*
X0175791Y0119660D01*
X0175791Y0118662D02*
X0175291Y0118662D01*
X0175291Y0117663D02*
X0175791Y0117663D01*
X0175791Y0116665D02*
X0175291Y0116665D01*
X0175291Y0115666D02*
X0175791Y0115666D01*
X0175791Y0114668D02*
X0175291Y0114668D01*
X0175291Y0113669D02*
X0175791Y0113669D01*
X0175791Y0112670D02*
X0175291Y0112670D01*
X0175291Y0111672D02*
X0175791Y0111672D01*
X0175791Y0110673D02*
X0175291Y0110673D01*
X0175291Y0109675D02*
X0175791Y0109675D01*
X0175791Y0108676D02*
X0175291Y0108676D01*
X0175291Y0107678D02*
X0175791Y0107678D01*
X0175791Y0106679D02*
X0175291Y0106679D01*
X0175291Y0105681D02*
X0175791Y0105681D01*
X0175791Y0104682D02*
X0175291Y0104682D01*
X0175291Y0103684D02*
X0175791Y0103684D01*
X0175791Y0102685D02*
X0175291Y0102685D01*
X0175291Y0101687D02*
X0175791Y0101687D01*
X0175791Y0100688D02*
X0175291Y0100688D01*
X0175291Y0099690D02*
X0175791Y0099690D01*
X0175791Y0098691D02*
X0175291Y0098691D01*
X0175291Y0097693D02*
X0175791Y0097693D01*
X0175791Y0096694D02*
X0175291Y0096694D01*
X0175291Y0095696D02*
X0175791Y0095696D01*
X0175791Y0094697D02*
X0175291Y0094697D01*
X0175291Y0093699D02*
X0175791Y0093699D01*
X0175791Y0092700D02*
X0175291Y0092700D01*
X0175291Y0091702D02*
X0175791Y0091702D01*
X0168575Y0099690D02*
X0162626Y0099690D01*
X0154180Y0121657D02*
X0151082Y0121657D01*
X0151082Y0122656D02*
X0153182Y0122656D01*
X0153001Y0123654D02*
X0150162Y0123654D01*
X0132268Y0103684D02*
X0131929Y0103684D01*
X0128653Y0103684D02*
X0108582Y0103684D01*
X0108582Y0104682D02*
X0128001Y0104682D01*
X0128001Y0105681D02*
X0108135Y0105681D01*
X0106584Y0106679D02*
X0128446Y0106679D01*
X0128591Y0107678D02*
X0105586Y0107678D01*
X0104587Y0108676D02*
X0128591Y0108676D01*
X0128591Y0109675D02*
X0103588Y0109675D01*
X0102590Y0110673D02*
X0125664Y0110673D01*
X0125436Y0113669D02*
X0117415Y0113669D01*
X0118082Y0114668D02*
X0125170Y0114668D01*
X0125001Y0115666D02*
X0118082Y0115666D01*
X0117651Y0116665D02*
X0125001Y0116665D01*
X0125174Y0117663D02*
X0117291Y0117663D01*
X0117291Y0118662D02*
X0124176Y0118662D01*
X0124001Y0119660D02*
X0122406Y0119660D01*
X0123082Y0120659D02*
X0124001Y0120659D01*
X0123680Y0121657D02*
X0123082Y0121657D01*
X0122682Y0122656D02*
X0122660Y0122656D01*
X0122501Y0123654D02*
X0122291Y0123654D01*
X0122291Y0124653D02*
X0122501Y0124653D01*
X0122291Y0125651D02*
X0123291Y0125651D01*
X0123291Y0126650D02*
X0122291Y0126650D01*
X0122291Y0127648D02*
X0123291Y0127648D01*
X0123291Y0128647D02*
X0122291Y0128647D01*
X0122291Y0129645D02*
X0123291Y0129645D01*
X0123291Y0130644D02*
X0122291Y0130644D01*
X0122291Y0131642D02*
X0123291Y0131642D01*
X0123291Y0132641D02*
X0122291Y0132641D01*
X0122291Y0133639D02*
X0123291Y0133639D01*
X0122699Y0134638D02*
X0122291Y0134638D01*
X0119291Y0134638D02*
X0119265Y0134638D01*
X0119291Y0133639D02*
X0118267Y0133639D01*
X0117291Y0132641D02*
X0119291Y0132641D01*
X0119291Y0131642D02*
X0117291Y0131642D01*
X0117291Y0130644D02*
X0119291Y0130644D01*
X0119291Y0129645D02*
X0117291Y0129645D01*
X0117291Y0128647D02*
X0119291Y0128647D01*
X0119291Y0127648D02*
X0117291Y0127648D01*
X0117291Y0126650D02*
X0119291Y0126650D01*
X0119291Y0125651D02*
X0117291Y0125651D01*
X0117291Y0124653D02*
X0119291Y0124653D01*
X0119291Y0123654D02*
X0117291Y0123654D01*
X0117291Y0122656D02*
X0118923Y0122656D01*
X0118501Y0121657D02*
X0117291Y0121657D01*
X0117291Y0120659D02*
X0118501Y0120659D01*
X0119177Y0119660D02*
X0117291Y0119660D01*
X0115449Y0141627D02*
X0114173Y0141627D01*
X0110449Y0141627D02*
X0109173Y0141627D01*
X0105449Y0141627D02*
X0104173Y0141627D01*
X0100449Y0141627D02*
X0099173Y0141627D01*
X0053991Y0113669D02*
X0049604Y0113669D01*
X0050488Y0112670D02*
X0053991Y0112670D01*
X0053991Y0111672D02*
X0050902Y0111672D01*
X0050966Y0110673D02*
X0053991Y0110673D01*
X0053991Y0109675D02*
X0050809Y0109675D01*
X0050380Y0108676D02*
X0053991Y0108676D01*
X0053991Y0107678D02*
X0049381Y0107678D01*
X0047579Y0103684D02*
X0047004Y0103684D01*
X0047004Y0102685D02*
X0047579Y0102685D01*
X0047579Y0101687D02*
X0047004Y0101687D01*
X0047579Y0100688D02*
X0053991Y0100688D01*
X0045008Y0093699D02*
X0042891Y0093699D01*
X0042891Y0092700D02*
X0044107Y0092700D01*
X0043693Y0091702D02*
X0042891Y0091702D01*
X0042891Y0090703D02*
X0043617Y0090703D01*
X0043761Y0089705D02*
X0042891Y0089705D01*
X0042891Y0088706D02*
X0044175Y0088706D01*
X0045172Y0087708D02*
X0042891Y0087708D01*
X0041291Y0083785D02*
X0041291Y0113785D01*
X0039291Y0115785D01*
X0021291Y0115785D01*
X0019291Y0117785D01*
X0018791Y0163285D01*
X0020791Y0165285D01*
X0019614Y0072730D02*
X0018791Y0072730D01*
X0018791Y0071732D02*
X0019048Y0071732D01*
X0018902Y0070733D02*
X0018791Y0070733D01*
X0018791Y0069735D02*
X0019092Y0069735D01*
X0018791Y0068736D02*
X0019718Y0068736D01*
X0024038Y0068736D02*
X0030545Y0068736D01*
X0029918Y0069735D02*
X0024664Y0069735D01*
X0024854Y0070733D02*
X0029728Y0070733D01*
X0029875Y0071732D02*
X0024708Y0071732D01*
X0024142Y0072730D02*
X0030440Y0072730D01*
X0024445Y0055788D02*
X0024445Y0055788D01*
X0024379Y0055755D02*
X0018791Y0055755D01*
X0018791Y0054757D02*
X0022374Y0054757D01*
X0021024Y0054084D02*
X0021024Y0054084D01*
X0020727Y0053758D02*
X0018791Y0053758D01*
X0018791Y0052760D02*
X0019816Y0052760D01*
X0018906Y0051761D02*
X0018791Y0051761D01*
X0153982Y0068736D02*
X0154601Y0068736D01*
X0175175Y0072730D02*
X0175791Y0072730D01*
X0175791Y0073729D02*
X0175603Y0073729D01*
X0175642Y0074727D02*
X0175791Y0074727D01*
D17*
X0155791Y0099785D02*
X0155791Y0110285D01*
X0155791Y0099785D02*
X0147291Y0091285D01*
X0147291Y0082785D01*
X0139791Y0088285D02*
X0129791Y0098285D01*
X0106291Y0104285D02*
X0101291Y0109285D01*
X0091791Y0109285D01*
X0085291Y0135785D02*
X0080791Y0135785D01*
X0072291Y0144285D01*
X0050791Y0144285D01*
D18*
X0050791Y0122285D01*
X0056291Y0116785D01*
X0056291Y0088285D01*
X0093791Y0088285D01*
X0096791Y0085285D01*
X0167291Y0076080D02*
X0167291Y0070785D01*
X0167291Y0076080D02*
X0167311Y0076100D01*
D19*
X0142791Y0067285D02*
X0142791Y0049785D01*
X0138291Y0045285D01*
X0130291Y0105285D02*
X0130291Y0112285D01*
X0133291Y0115285D01*
X0150791Y0115285D01*
X0155791Y0110285D01*
X0148791Y0121785D02*
X0130291Y0121785D01*
X0128291Y0119785D01*
X0126291Y0119785D01*
M02*
