G75*
%MOIN*%
%OFA0B0*%
%FSLAX25Y25*%
%IPPOS*%
%LPD*%
%AMOC8*
5,1,8,0,0,1.08239X$1,22.5*
%
%ADD10C,0.00000*%
%ADD11C,0.01600*%
%ADD12C,0.01200*%
%ADD13C,0.01000*%
%ADD14C,0.00500*%
%ADD15C,0.00600*%
%ADD16C,0.02200*%
%ADD17C,0.00787*%
%ADD18C,0.00806*%
%ADD19R,0.03000X0.01800*%
%ADD20R,0.01800X0.03000*%
%ADD21C,0.00800*%
D10*
X0017291Y0035785D02*
X0017291Y0088285D01*
X0039291Y0088285D01*
X0039291Y0113285D01*
X0017291Y0113285D01*
X0017291Y0185785D01*
X0202291Y0185785D01*
X0202291Y0035785D01*
X0017291Y0035785D01*
X0020992Y0045785D02*
X0020994Y0045943D01*
X0021000Y0046101D01*
X0021010Y0046259D01*
X0021024Y0046417D01*
X0021042Y0046574D01*
X0021063Y0046731D01*
X0021089Y0046887D01*
X0021119Y0047043D01*
X0021152Y0047198D01*
X0021190Y0047351D01*
X0021231Y0047504D01*
X0021276Y0047656D01*
X0021325Y0047807D01*
X0021378Y0047956D01*
X0021434Y0048104D01*
X0021494Y0048250D01*
X0021558Y0048395D01*
X0021626Y0048538D01*
X0021697Y0048680D01*
X0021771Y0048820D01*
X0021849Y0048957D01*
X0021931Y0049093D01*
X0022015Y0049227D01*
X0022104Y0049358D01*
X0022195Y0049487D01*
X0022290Y0049614D01*
X0022387Y0049739D01*
X0022488Y0049861D01*
X0022592Y0049980D01*
X0022699Y0050097D01*
X0022809Y0050211D01*
X0022922Y0050322D01*
X0023037Y0050431D01*
X0023155Y0050536D01*
X0023276Y0050638D01*
X0023399Y0050738D01*
X0023525Y0050834D01*
X0023653Y0050927D01*
X0023783Y0051017D01*
X0023916Y0051103D01*
X0024051Y0051187D01*
X0024187Y0051266D01*
X0024326Y0051343D01*
X0024467Y0051415D01*
X0024609Y0051485D01*
X0024753Y0051550D01*
X0024899Y0051612D01*
X0025046Y0051670D01*
X0025195Y0051725D01*
X0025345Y0051776D01*
X0025496Y0051823D01*
X0025648Y0051866D01*
X0025801Y0051905D01*
X0025956Y0051941D01*
X0026111Y0051972D01*
X0026267Y0052000D01*
X0026423Y0052024D01*
X0026580Y0052044D01*
X0026738Y0052060D01*
X0026895Y0052072D01*
X0027054Y0052080D01*
X0027212Y0052084D01*
X0027370Y0052084D01*
X0027528Y0052080D01*
X0027687Y0052072D01*
X0027844Y0052060D01*
X0028002Y0052044D01*
X0028159Y0052024D01*
X0028315Y0052000D01*
X0028471Y0051972D01*
X0028626Y0051941D01*
X0028781Y0051905D01*
X0028934Y0051866D01*
X0029086Y0051823D01*
X0029237Y0051776D01*
X0029387Y0051725D01*
X0029536Y0051670D01*
X0029683Y0051612D01*
X0029829Y0051550D01*
X0029973Y0051485D01*
X0030115Y0051415D01*
X0030256Y0051343D01*
X0030395Y0051266D01*
X0030531Y0051187D01*
X0030666Y0051103D01*
X0030799Y0051017D01*
X0030929Y0050927D01*
X0031057Y0050834D01*
X0031183Y0050738D01*
X0031306Y0050638D01*
X0031427Y0050536D01*
X0031545Y0050431D01*
X0031660Y0050322D01*
X0031773Y0050211D01*
X0031883Y0050097D01*
X0031990Y0049980D01*
X0032094Y0049861D01*
X0032195Y0049739D01*
X0032292Y0049614D01*
X0032387Y0049487D01*
X0032478Y0049358D01*
X0032567Y0049227D01*
X0032651Y0049093D01*
X0032733Y0048957D01*
X0032811Y0048820D01*
X0032885Y0048680D01*
X0032956Y0048538D01*
X0033024Y0048395D01*
X0033088Y0048250D01*
X0033148Y0048104D01*
X0033204Y0047956D01*
X0033257Y0047807D01*
X0033306Y0047656D01*
X0033351Y0047504D01*
X0033392Y0047351D01*
X0033430Y0047198D01*
X0033463Y0047043D01*
X0033493Y0046887D01*
X0033519Y0046731D01*
X0033540Y0046574D01*
X0033558Y0046417D01*
X0033572Y0046259D01*
X0033582Y0046101D01*
X0033588Y0045943D01*
X0033590Y0045785D01*
X0033588Y0045627D01*
X0033582Y0045469D01*
X0033572Y0045311D01*
X0033558Y0045153D01*
X0033540Y0044996D01*
X0033519Y0044839D01*
X0033493Y0044683D01*
X0033463Y0044527D01*
X0033430Y0044372D01*
X0033392Y0044219D01*
X0033351Y0044066D01*
X0033306Y0043914D01*
X0033257Y0043763D01*
X0033204Y0043614D01*
X0033148Y0043466D01*
X0033088Y0043320D01*
X0033024Y0043175D01*
X0032956Y0043032D01*
X0032885Y0042890D01*
X0032811Y0042750D01*
X0032733Y0042613D01*
X0032651Y0042477D01*
X0032567Y0042343D01*
X0032478Y0042212D01*
X0032387Y0042083D01*
X0032292Y0041956D01*
X0032195Y0041831D01*
X0032094Y0041709D01*
X0031990Y0041590D01*
X0031883Y0041473D01*
X0031773Y0041359D01*
X0031660Y0041248D01*
X0031545Y0041139D01*
X0031427Y0041034D01*
X0031306Y0040932D01*
X0031183Y0040832D01*
X0031057Y0040736D01*
X0030929Y0040643D01*
X0030799Y0040553D01*
X0030666Y0040467D01*
X0030531Y0040383D01*
X0030395Y0040304D01*
X0030256Y0040227D01*
X0030115Y0040155D01*
X0029973Y0040085D01*
X0029829Y0040020D01*
X0029683Y0039958D01*
X0029536Y0039900D01*
X0029387Y0039845D01*
X0029237Y0039794D01*
X0029086Y0039747D01*
X0028934Y0039704D01*
X0028781Y0039665D01*
X0028626Y0039629D01*
X0028471Y0039598D01*
X0028315Y0039570D01*
X0028159Y0039546D01*
X0028002Y0039526D01*
X0027844Y0039510D01*
X0027687Y0039498D01*
X0027528Y0039490D01*
X0027370Y0039486D01*
X0027212Y0039486D01*
X0027054Y0039490D01*
X0026895Y0039498D01*
X0026738Y0039510D01*
X0026580Y0039526D01*
X0026423Y0039546D01*
X0026267Y0039570D01*
X0026111Y0039598D01*
X0025956Y0039629D01*
X0025801Y0039665D01*
X0025648Y0039704D01*
X0025496Y0039747D01*
X0025345Y0039794D01*
X0025195Y0039845D01*
X0025046Y0039900D01*
X0024899Y0039958D01*
X0024753Y0040020D01*
X0024609Y0040085D01*
X0024467Y0040155D01*
X0024326Y0040227D01*
X0024187Y0040304D01*
X0024051Y0040383D01*
X0023916Y0040467D01*
X0023783Y0040553D01*
X0023653Y0040643D01*
X0023525Y0040736D01*
X0023399Y0040832D01*
X0023276Y0040932D01*
X0023155Y0041034D01*
X0023037Y0041139D01*
X0022922Y0041248D01*
X0022809Y0041359D01*
X0022699Y0041473D01*
X0022592Y0041590D01*
X0022488Y0041709D01*
X0022387Y0041831D01*
X0022290Y0041956D01*
X0022195Y0042083D01*
X0022104Y0042212D01*
X0022015Y0042343D01*
X0021931Y0042477D01*
X0021849Y0042613D01*
X0021771Y0042750D01*
X0021697Y0042890D01*
X0021626Y0043032D01*
X0021558Y0043175D01*
X0021494Y0043320D01*
X0021434Y0043466D01*
X0021378Y0043614D01*
X0021325Y0043763D01*
X0021276Y0043914D01*
X0021231Y0044066D01*
X0021190Y0044219D01*
X0021152Y0044372D01*
X0021119Y0044527D01*
X0021089Y0044683D01*
X0021063Y0044839D01*
X0021042Y0044996D01*
X0021024Y0045153D01*
X0021010Y0045311D01*
X0021000Y0045469D01*
X0020994Y0045627D01*
X0020992Y0045785D01*
X0020402Y0070785D02*
X0020404Y0070862D01*
X0020410Y0070938D01*
X0020420Y0071014D01*
X0020434Y0071089D01*
X0020451Y0071164D01*
X0020473Y0071237D01*
X0020498Y0071310D01*
X0020528Y0071381D01*
X0020560Y0071450D01*
X0020597Y0071517D01*
X0020636Y0071583D01*
X0020679Y0071646D01*
X0020726Y0071707D01*
X0020775Y0071766D01*
X0020828Y0071822D01*
X0020883Y0071875D01*
X0020941Y0071925D01*
X0021001Y0071972D01*
X0021064Y0072016D01*
X0021129Y0072057D01*
X0021196Y0072094D01*
X0021265Y0072128D01*
X0021335Y0072158D01*
X0021407Y0072184D01*
X0021481Y0072206D01*
X0021555Y0072225D01*
X0021630Y0072240D01*
X0021706Y0072251D01*
X0021782Y0072258D01*
X0021859Y0072261D01*
X0021935Y0072260D01*
X0022012Y0072255D01*
X0022088Y0072246D01*
X0022164Y0072233D01*
X0022238Y0072216D01*
X0022312Y0072196D01*
X0022385Y0072171D01*
X0022456Y0072143D01*
X0022526Y0072111D01*
X0022594Y0072076D01*
X0022660Y0072037D01*
X0022724Y0071995D01*
X0022785Y0071949D01*
X0022845Y0071900D01*
X0022901Y0071849D01*
X0022955Y0071794D01*
X0023006Y0071737D01*
X0023054Y0071677D01*
X0023099Y0071615D01*
X0023140Y0071550D01*
X0023178Y0071484D01*
X0023213Y0071416D01*
X0023243Y0071345D01*
X0023271Y0071274D01*
X0023294Y0071201D01*
X0023314Y0071127D01*
X0023330Y0071052D01*
X0023342Y0070976D01*
X0023350Y0070900D01*
X0023354Y0070823D01*
X0023354Y0070747D01*
X0023350Y0070670D01*
X0023342Y0070594D01*
X0023330Y0070518D01*
X0023314Y0070443D01*
X0023294Y0070369D01*
X0023271Y0070296D01*
X0023243Y0070225D01*
X0023213Y0070154D01*
X0023178Y0070086D01*
X0023140Y0070020D01*
X0023099Y0069955D01*
X0023054Y0069893D01*
X0023006Y0069833D01*
X0022955Y0069776D01*
X0022901Y0069721D01*
X0022845Y0069670D01*
X0022785Y0069621D01*
X0022724Y0069575D01*
X0022660Y0069533D01*
X0022594Y0069494D01*
X0022526Y0069459D01*
X0022456Y0069427D01*
X0022385Y0069399D01*
X0022312Y0069374D01*
X0022238Y0069354D01*
X0022164Y0069337D01*
X0022088Y0069324D01*
X0022012Y0069315D01*
X0021935Y0069310D01*
X0021859Y0069309D01*
X0021782Y0069312D01*
X0021706Y0069319D01*
X0021630Y0069330D01*
X0021555Y0069345D01*
X0021481Y0069364D01*
X0021407Y0069386D01*
X0021335Y0069412D01*
X0021265Y0069442D01*
X0021196Y0069476D01*
X0021129Y0069513D01*
X0021064Y0069554D01*
X0021001Y0069598D01*
X0020941Y0069645D01*
X0020883Y0069695D01*
X0020828Y0069748D01*
X0020775Y0069804D01*
X0020726Y0069863D01*
X0020679Y0069924D01*
X0020636Y0069987D01*
X0020597Y0070053D01*
X0020560Y0070120D01*
X0020528Y0070189D01*
X0020498Y0070260D01*
X0020473Y0070333D01*
X0020451Y0070406D01*
X0020434Y0070481D01*
X0020420Y0070556D01*
X0020410Y0070632D01*
X0020404Y0070708D01*
X0020402Y0070785D01*
X0031229Y0070785D02*
X0031231Y0070862D01*
X0031237Y0070938D01*
X0031247Y0071014D01*
X0031261Y0071089D01*
X0031278Y0071164D01*
X0031300Y0071237D01*
X0031325Y0071310D01*
X0031355Y0071381D01*
X0031387Y0071450D01*
X0031424Y0071517D01*
X0031463Y0071583D01*
X0031506Y0071646D01*
X0031553Y0071707D01*
X0031602Y0071766D01*
X0031655Y0071822D01*
X0031710Y0071875D01*
X0031768Y0071925D01*
X0031828Y0071972D01*
X0031891Y0072016D01*
X0031956Y0072057D01*
X0032023Y0072094D01*
X0032092Y0072128D01*
X0032162Y0072158D01*
X0032234Y0072184D01*
X0032308Y0072206D01*
X0032382Y0072225D01*
X0032457Y0072240D01*
X0032533Y0072251D01*
X0032609Y0072258D01*
X0032686Y0072261D01*
X0032762Y0072260D01*
X0032839Y0072255D01*
X0032915Y0072246D01*
X0032991Y0072233D01*
X0033065Y0072216D01*
X0033139Y0072196D01*
X0033212Y0072171D01*
X0033283Y0072143D01*
X0033353Y0072111D01*
X0033421Y0072076D01*
X0033487Y0072037D01*
X0033551Y0071995D01*
X0033612Y0071949D01*
X0033672Y0071900D01*
X0033728Y0071849D01*
X0033782Y0071794D01*
X0033833Y0071737D01*
X0033881Y0071677D01*
X0033926Y0071615D01*
X0033967Y0071550D01*
X0034005Y0071484D01*
X0034040Y0071416D01*
X0034070Y0071345D01*
X0034098Y0071274D01*
X0034121Y0071201D01*
X0034141Y0071127D01*
X0034157Y0071052D01*
X0034169Y0070976D01*
X0034177Y0070900D01*
X0034181Y0070823D01*
X0034181Y0070747D01*
X0034177Y0070670D01*
X0034169Y0070594D01*
X0034157Y0070518D01*
X0034141Y0070443D01*
X0034121Y0070369D01*
X0034098Y0070296D01*
X0034070Y0070225D01*
X0034040Y0070154D01*
X0034005Y0070086D01*
X0033967Y0070020D01*
X0033926Y0069955D01*
X0033881Y0069893D01*
X0033833Y0069833D01*
X0033782Y0069776D01*
X0033728Y0069721D01*
X0033672Y0069670D01*
X0033612Y0069621D01*
X0033551Y0069575D01*
X0033487Y0069533D01*
X0033421Y0069494D01*
X0033353Y0069459D01*
X0033283Y0069427D01*
X0033212Y0069399D01*
X0033139Y0069374D01*
X0033065Y0069354D01*
X0032991Y0069337D01*
X0032915Y0069324D01*
X0032839Y0069315D01*
X0032762Y0069310D01*
X0032686Y0069309D01*
X0032609Y0069312D01*
X0032533Y0069319D01*
X0032457Y0069330D01*
X0032382Y0069345D01*
X0032308Y0069364D01*
X0032234Y0069386D01*
X0032162Y0069412D01*
X0032092Y0069442D01*
X0032023Y0069476D01*
X0031956Y0069513D01*
X0031891Y0069554D01*
X0031828Y0069598D01*
X0031768Y0069645D01*
X0031710Y0069695D01*
X0031655Y0069748D01*
X0031602Y0069804D01*
X0031553Y0069863D01*
X0031506Y0069924D01*
X0031463Y0069987D01*
X0031424Y0070053D01*
X0031387Y0070120D01*
X0031355Y0070189D01*
X0031325Y0070260D01*
X0031300Y0070333D01*
X0031278Y0070406D01*
X0031261Y0070481D01*
X0031247Y0070556D01*
X0031237Y0070632D01*
X0031231Y0070708D01*
X0031229Y0070785D01*
X0020992Y0175785D02*
X0020994Y0175943D01*
X0021000Y0176101D01*
X0021010Y0176259D01*
X0021024Y0176417D01*
X0021042Y0176574D01*
X0021063Y0176731D01*
X0021089Y0176887D01*
X0021119Y0177043D01*
X0021152Y0177198D01*
X0021190Y0177351D01*
X0021231Y0177504D01*
X0021276Y0177656D01*
X0021325Y0177807D01*
X0021378Y0177956D01*
X0021434Y0178104D01*
X0021494Y0178250D01*
X0021558Y0178395D01*
X0021626Y0178538D01*
X0021697Y0178680D01*
X0021771Y0178820D01*
X0021849Y0178957D01*
X0021931Y0179093D01*
X0022015Y0179227D01*
X0022104Y0179358D01*
X0022195Y0179487D01*
X0022290Y0179614D01*
X0022387Y0179739D01*
X0022488Y0179861D01*
X0022592Y0179980D01*
X0022699Y0180097D01*
X0022809Y0180211D01*
X0022922Y0180322D01*
X0023037Y0180431D01*
X0023155Y0180536D01*
X0023276Y0180638D01*
X0023399Y0180738D01*
X0023525Y0180834D01*
X0023653Y0180927D01*
X0023783Y0181017D01*
X0023916Y0181103D01*
X0024051Y0181187D01*
X0024187Y0181266D01*
X0024326Y0181343D01*
X0024467Y0181415D01*
X0024609Y0181485D01*
X0024753Y0181550D01*
X0024899Y0181612D01*
X0025046Y0181670D01*
X0025195Y0181725D01*
X0025345Y0181776D01*
X0025496Y0181823D01*
X0025648Y0181866D01*
X0025801Y0181905D01*
X0025956Y0181941D01*
X0026111Y0181972D01*
X0026267Y0182000D01*
X0026423Y0182024D01*
X0026580Y0182044D01*
X0026738Y0182060D01*
X0026895Y0182072D01*
X0027054Y0182080D01*
X0027212Y0182084D01*
X0027370Y0182084D01*
X0027528Y0182080D01*
X0027687Y0182072D01*
X0027844Y0182060D01*
X0028002Y0182044D01*
X0028159Y0182024D01*
X0028315Y0182000D01*
X0028471Y0181972D01*
X0028626Y0181941D01*
X0028781Y0181905D01*
X0028934Y0181866D01*
X0029086Y0181823D01*
X0029237Y0181776D01*
X0029387Y0181725D01*
X0029536Y0181670D01*
X0029683Y0181612D01*
X0029829Y0181550D01*
X0029973Y0181485D01*
X0030115Y0181415D01*
X0030256Y0181343D01*
X0030395Y0181266D01*
X0030531Y0181187D01*
X0030666Y0181103D01*
X0030799Y0181017D01*
X0030929Y0180927D01*
X0031057Y0180834D01*
X0031183Y0180738D01*
X0031306Y0180638D01*
X0031427Y0180536D01*
X0031545Y0180431D01*
X0031660Y0180322D01*
X0031773Y0180211D01*
X0031883Y0180097D01*
X0031990Y0179980D01*
X0032094Y0179861D01*
X0032195Y0179739D01*
X0032292Y0179614D01*
X0032387Y0179487D01*
X0032478Y0179358D01*
X0032567Y0179227D01*
X0032651Y0179093D01*
X0032733Y0178957D01*
X0032811Y0178820D01*
X0032885Y0178680D01*
X0032956Y0178538D01*
X0033024Y0178395D01*
X0033088Y0178250D01*
X0033148Y0178104D01*
X0033204Y0177956D01*
X0033257Y0177807D01*
X0033306Y0177656D01*
X0033351Y0177504D01*
X0033392Y0177351D01*
X0033430Y0177198D01*
X0033463Y0177043D01*
X0033493Y0176887D01*
X0033519Y0176731D01*
X0033540Y0176574D01*
X0033558Y0176417D01*
X0033572Y0176259D01*
X0033582Y0176101D01*
X0033588Y0175943D01*
X0033590Y0175785D01*
X0033588Y0175627D01*
X0033582Y0175469D01*
X0033572Y0175311D01*
X0033558Y0175153D01*
X0033540Y0174996D01*
X0033519Y0174839D01*
X0033493Y0174683D01*
X0033463Y0174527D01*
X0033430Y0174372D01*
X0033392Y0174219D01*
X0033351Y0174066D01*
X0033306Y0173914D01*
X0033257Y0173763D01*
X0033204Y0173614D01*
X0033148Y0173466D01*
X0033088Y0173320D01*
X0033024Y0173175D01*
X0032956Y0173032D01*
X0032885Y0172890D01*
X0032811Y0172750D01*
X0032733Y0172613D01*
X0032651Y0172477D01*
X0032567Y0172343D01*
X0032478Y0172212D01*
X0032387Y0172083D01*
X0032292Y0171956D01*
X0032195Y0171831D01*
X0032094Y0171709D01*
X0031990Y0171590D01*
X0031883Y0171473D01*
X0031773Y0171359D01*
X0031660Y0171248D01*
X0031545Y0171139D01*
X0031427Y0171034D01*
X0031306Y0170932D01*
X0031183Y0170832D01*
X0031057Y0170736D01*
X0030929Y0170643D01*
X0030799Y0170553D01*
X0030666Y0170467D01*
X0030531Y0170383D01*
X0030395Y0170304D01*
X0030256Y0170227D01*
X0030115Y0170155D01*
X0029973Y0170085D01*
X0029829Y0170020D01*
X0029683Y0169958D01*
X0029536Y0169900D01*
X0029387Y0169845D01*
X0029237Y0169794D01*
X0029086Y0169747D01*
X0028934Y0169704D01*
X0028781Y0169665D01*
X0028626Y0169629D01*
X0028471Y0169598D01*
X0028315Y0169570D01*
X0028159Y0169546D01*
X0028002Y0169526D01*
X0027844Y0169510D01*
X0027687Y0169498D01*
X0027528Y0169490D01*
X0027370Y0169486D01*
X0027212Y0169486D01*
X0027054Y0169490D01*
X0026895Y0169498D01*
X0026738Y0169510D01*
X0026580Y0169526D01*
X0026423Y0169546D01*
X0026267Y0169570D01*
X0026111Y0169598D01*
X0025956Y0169629D01*
X0025801Y0169665D01*
X0025648Y0169704D01*
X0025496Y0169747D01*
X0025345Y0169794D01*
X0025195Y0169845D01*
X0025046Y0169900D01*
X0024899Y0169958D01*
X0024753Y0170020D01*
X0024609Y0170085D01*
X0024467Y0170155D01*
X0024326Y0170227D01*
X0024187Y0170304D01*
X0024051Y0170383D01*
X0023916Y0170467D01*
X0023783Y0170553D01*
X0023653Y0170643D01*
X0023525Y0170736D01*
X0023399Y0170832D01*
X0023276Y0170932D01*
X0023155Y0171034D01*
X0023037Y0171139D01*
X0022922Y0171248D01*
X0022809Y0171359D01*
X0022699Y0171473D01*
X0022592Y0171590D01*
X0022488Y0171709D01*
X0022387Y0171831D01*
X0022290Y0171956D01*
X0022195Y0172083D01*
X0022104Y0172212D01*
X0022015Y0172343D01*
X0021931Y0172477D01*
X0021849Y0172613D01*
X0021771Y0172750D01*
X0021697Y0172890D01*
X0021626Y0173032D01*
X0021558Y0173175D01*
X0021494Y0173320D01*
X0021434Y0173466D01*
X0021378Y0173614D01*
X0021325Y0173763D01*
X0021276Y0173914D01*
X0021231Y0174066D01*
X0021190Y0174219D01*
X0021152Y0174372D01*
X0021119Y0174527D01*
X0021089Y0174683D01*
X0021063Y0174839D01*
X0021042Y0174996D01*
X0021024Y0175153D01*
X0021010Y0175311D01*
X0021000Y0175469D01*
X0020994Y0175627D01*
X0020992Y0175785D01*
X0185992Y0175785D02*
X0185994Y0175943D01*
X0186000Y0176101D01*
X0186010Y0176259D01*
X0186024Y0176417D01*
X0186042Y0176574D01*
X0186063Y0176731D01*
X0186089Y0176887D01*
X0186119Y0177043D01*
X0186152Y0177198D01*
X0186190Y0177351D01*
X0186231Y0177504D01*
X0186276Y0177656D01*
X0186325Y0177807D01*
X0186378Y0177956D01*
X0186434Y0178104D01*
X0186494Y0178250D01*
X0186558Y0178395D01*
X0186626Y0178538D01*
X0186697Y0178680D01*
X0186771Y0178820D01*
X0186849Y0178957D01*
X0186931Y0179093D01*
X0187015Y0179227D01*
X0187104Y0179358D01*
X0187195Y0179487D01*
X0187290Y0179614D01*
X0187387Y0179739D01*
X0187488Y0179861D01*
X0187592Y0179980D01*
X0187699Y0180097D01*
X0187809Y0180211D01*
X0187922Y0180322D01*
X0188037Y0180431D01*
X0188155Y0180536D01*
X0188276Y0180638D01*
X0188399Y0180738D01*
X0188525Y0180834D01*
X0188653Y0180927D01*
X0188783Y0181017D01*
X0188916Y0181103D01*
X0189051Y0181187D01*
X0189187Y0181266D01*
X0189326Y0181343D01*
X0189467Y0181415D01*
X0189609Y0181485D01*
X0189753Y0181550D01*
X0189899Y0181612D01*
X0190046Y0181670D01*
X0190195Y0181725D01*
X0190345Y0181776D01*
X0190496Y0181823D01*
X0190648Y0181866D01*
X0190801Y0181905D01*
X0190956Y0181941D01*
X0191111Y0181972D01*
X0191267Y0182000D01*
X0191423Y0182024D01*
X0191580Y0182044D01*
X0191738Y0182060D01*
X0191895Y0182072D01*
X0192054Y0182080D01*
X0192212Y0182084D01*
X0192370Y0182084D01*
X0192528Y0182080D01*
X0192687Y0182072D01*
X0192844Y0182060D01*
X0193002Y0182044D01*
X0193159Y0182024D01*
X0193315Y0182000D01*
X0193471Y0181972D01*
X0193626Y0181941D01*
X0193781Y0181905D01*
X0193934Y0181866D01*
X0194086Y0181823D01*
X0194237Y0181776D01*
X0194387Y0181725D01*
X0194536Y0181670D01*
X0194683Y0181612D01*
X0194829Y0181550D01*
X0194973Y0181485D01*
X0195115Y0181415D01*
X0195256Y0181343D01*
X0195395Y0181266D01*
X0195531Y0181187D01*
X0195666Y0181103D01*
X0195799Y0181017D01*
X0195929Y0180927D01*
X0196057Y0180834D01*
X0196183Y0180738D01*
X0196306Y0180638D01*
X0196427Y0180536D01*
X0196545Y0180431D01*
X0196660Y0180322D01*
X0196773Y0180211D01*
X0196883Y0180097D01*
X0196990Y0179980D01*
X0197094Y0179861D01*
X0197195Y0179739D01*
X0197292Y0179614D01*
X0197387Y0179487D01*
X0197478Y0179358D01*
X0197567Y0179227D01*
X0197651Y0179093D01*
X0197733Y0178957D01*
X0197811Y0178820D01*
X0197885Y0178680D01*
X0197956Y0178538D01*
X0198024Y0178395D01*
X0198088Y0178250D01*
X0198148Y0178104D01*
X0198204Y0177956D01*
X0198257Y0177807D01*
X0198306Y0177656D01*
X0198351Y0177504D01*
X0198392Y0177351D01*
X0198430Y0177198D01*
X0198463Y0177043D01*
X0198493Y0176887D01*
X0198519Y0176731D01*
X0198540Y0176574D01*
X0198558Y0176417D01*
X0198572Y0176259D01*
X0198582Y0176101D01*
X0198588Y0175943D01*
X0198590Y0175785D01*
X0198588Y0175627D01*
X0198582Y0175469D01*
X0198572Y0175311D01*
X0198558Y0175153D01*
X0198540Y0174996D01*
X0198519Y0174839D01*
X0198493Y0174683D01*
X0198463Y0174527D01*
X0198430Y0174372D01*
X0198392Y0174219D01*
X0198351Y0174066D01*
X0198306Y0173914D01*
X0198257Y0173763D01*
X0198204Y0173614D01*
X0198148Y0173466D01*
X0198088Y0173320D01*
X0198024Y0173175D01*
X0197956Y0173032D01*
X0197885Y0172890D01*
X0197811Y0172750D01*
X0197733Y0172613D01*
X0197651Y0172477D01*
X0197567Y0172343D01*
X0197478Y0172212D01*
X0197387Y0172083D01*
X0197292Y0171956D01*
X0197195Y0171831D01*
X0197094Y0171709D01*
X0196990Y0171590D01*
X0196883Y0171473D01*
X0196773Y0171359D01*
X0196660Y0171248D01*
X0196545Y0171139D01*
X0196427Y0171034D01*
X0196306Y0170932D01*
X0196183Y0170832D01*
X0196057Y0170736D01*
X0195929Y0170643D01*
X0195799Y0170553D01*
X0195666Y0170467D01*
X0195531Y0170383D01*
X0195395Y0170304D01*
X0195256Y0170227D01*
X0195115Y0170155D01*
X0194973Y0170085D01*
X0194829Y0170020D01*
X0194683Y0169958D01*
X0194536Y0169900D01*
X0194387Y0169845D01*
X0194237Y0169794D01*
X0194086Y0169747D01*
X0193934Y0169704D01*
X0193781Y0169665D01*
X0193626Y0169629D01*
X0193471Y0169598D01*
X0193315Y0169570D01*
X0193159Y0169546D01*
X0193002Y0169526D01*
X0192844Y0169510D01*
X0192687Y0169498D01*
X0192528Y0169490D01*
X0192370Y0169486D01*
X0192212Y0169486D01*
X0192054Y0169490D01*
X0191895Y0169498D01*
X0191738Y0169510D01*
X0191580Y0169526D01*
X0191423Y0169546D01*
X0191267Y0169570D01*
X0191111Y0169598D01*
X0190956Y0169629D01*
X0190801Y0169665D01*
X0190648Y0169704D01*
X0190496Y0169747D01*
X0190345Y0169794D01*
X0190195Y0169845D01*
X0190046Y0169900D01*
X0189899Y0169958D01*
X0189753Y0170020D01*
X0189609Y0170085D01*
X0189467Y0170155D01*
X0189326Y0170227D01*
X0189187Y0170304D01*
X0189051Y0170383D01*
X0188916Y0170467D01*
X0188783Y0170553D01*
X0188653Y0170643D01*
X0188525Y0170736D01*
X0188399Y0170832D01*
X0188276Y0170932D01*
X0188155Y0171034D01*
X0188037Y0171139D01*
X0187922Y0171248D01*
X0187809Y0171359D01*
X0187699Y0171473D01*
X0187592Y0171590D01*
X0187488Y0171709D01*
X0187387Y0171831D01*
X0187290Y0171956D01*
X0187195Y0172083D01*
X0187104Y0172212D01*
X0187015Y0172343D01*
X0186931Y0172477D01*
X0186849Y0172613D01*
X0186771Y0172750D01*
X0186697Y0172890D01*
X0186626Y0173032D01*
X0186558Y0173175D01*
X0186494Y0173320D01*
X0186434Y0173466D01*
X0186378Y0173614D01*
X0186325Y0173763D01*
X0186276Y0173914D01*
X0186231Y0174066D01*
X0186190Y0174219D01*
X0186152Y0174372D01*
X0186119Y0174527D01*
X0186089Y0174683D01*
X0186063Y0174839D01*
X0186042Y0174996D01*
X0186024Y0175153D01*
X0186010Y0175311D01*
X0186000Y0175469D01*
X0185994Y0175627D01*
X0185992Y0175785D01*
X0185992Y0045785D02*
X0185994Y0045943D01*
X0186000Y0046101D01*
X0186010Y0046259D01*
X0186024Y0046417D01*
X0186042Y0046574D01*
X0186063Y0046731D01*
X0186089Y0046887D01*
X0186119Y0047043D01*
X0186152Y0047198D01*
X0186190Y0047351D01*
X0186231Y0047504D01*
X0186276Y0047656D01*
X0186325Y0047807D01*
X0186378Y0047956D01*
X0186434Y0048104D01*
X0186494Y0048250D01*
X0186558Y0048395D01*
X0186626Y0048538D01*
X0186697Y0048680D01*
X0186771Y0048820D01*
X0186849Y0048957D01*
X0186931Y0049093D01*
X0187015Y0049227D01*
X0187104Y0049358D01*
X0187195Y0049487D01*
X0187290Y0049614D01*
X0187387Y0049739D01*
X0187488Y0049861D01*
X0187592Y0049980D01*
X0187699Y0050097D01*
X0187809Y0050211D01*
X0187922Y0050322D01*
X0188037Y0050431D01*
X0188155Y0050536D01*
X0188276Y0050638D01*
X0188399Y0050738D01*
X0188525Y0050834D01*
X0188653Y0050927D01*
X0188783Y0051017D01*
X0188916Y0051103D01*
X0189051Y0051187D01*
X0189187Y0051266D01*
X0189326Y0051343D01*
X0189467Y0051415D01*
X0189609Y0051485D01*
X0189753Y0051550D01*
X0189899Y0051612D01*
X0190046Y0051670D01*
X0190195Y0051725D01*
X0190345Y0051776D01*
X0190496Y0051823D01*
X0190648Y0051866D01*
X0190801Y0051905D01*
X0190956Y0051941D01*
X0191111Y0051972D01*
X0191267Y0052000D01*
X0191423Y0052024D01*
X0191580Y0052044D01*
X0191738Y0052060D01*
X0191895Y0052072D01*
X0192054Y0052080D01*
X0192212Y0052084D01*
X0192370Y0052084D01*
X0192528Y0052080D01*
X0192687Y0052072D01*
X0192844Y0052060D01*
X0193002Y0052044D01*
X0193159Y0052024D01*
X0193315Y0052000D01*
X0193471Y0051972D01*
X0193626Y0051941D01*
X0193781Y0051905D01*
X0193934Y0051866D01*
X0194086Y0051823D01*
X0194237Y0051776D01*
X0194387Y0051725D01*
X0194536Y0051670D01*
X0194683Y0051612D01*
X0194829Y0051550D01*
X0194973Y0051485D01*
X0195115Y0051415D01*
X0195256Y0051343D01*
X0195395Y0051266D01*
X0195531Y0051187D01*
X0195666Y0051103D01*
X0195799Y0051017D01*
X0195929Y0050927D01*
X0196057Y0050834D01*
X0196183Y0050738D01*
X0196306Y0050638D01*
X0196427Y0050536D01*
X0196545Y0050431D01*
X0196660Y0050322D01*
X0196773Y0050211D01*
X0196883Y0050097D01*
X0196990Y0049980D01*
X0197094Y0049861D01*
X0197195Y0049739D01*
X0197292Y0049614D01*
X0197387Y0049487D01*
X0197478Y0049358D01*
X0197567Y0049227D01*
X0197651Y0049093D01*
X0197733Y0048957D01*
X0197811Y0048820D01*
X0197885Y0048680D01*
X0197956Y0048538D01*
X0198024Y0048395D01*
X0198088Y0048250D01*
X0198148Y0048104D01*
X0198204Y0047956D01*
X0198257Y0047807D01*
X0198306Y0047656D01*
X0198351Y0047504D01*
X0198392Y0047351D01*
X0198430Y0047198D01*
X0198463Y0047043D01*
X0198493Y0046887D01*
X0198519Y0046731D01*
X0198540Y0046574D01*
X0198558Y0046417D01*
X0198572Y0046259D01*
X0198582Y0046101D01*
X0198588Y0045943D01*
X0198590Y0045785D01*
X0198588Y0045627D01*
X0198582Y0045469D01*
X0198572Y0045311D01*
X0198558Y0045153D01*
X0198540Y0044996D01*
X0198519Y0044839D01*
X0198493Y0044683D01*
X0198463Y0044527D01*
X0198430Y0044372D01*
X0198392Y0044219D01*
X0198351Y0044066D01*
X0198306Y0043914D01*
X0198257Y0043763D01*
X0198204Y0043614D01*
X0198148Y0043466D01*
X0198088Y0043320D01*
X0198024Y0043175D01*
X0197956Y0043032D01*
X0197885Y0042890D01*
X0197811Y0042750D01*
X0197733Y0042613D01*
X0197651Y0042477D01*
X0197567Y0042343D01*
X0197478Y0042212D01*
X0197387Y0042083D01*
X0197292Y0041956D01*
X0197195Y0041831D01*
X0197094Y0041709D01*
X0196990Y0041590D01*
X0196883Y0041473D01*
X0196773Y0041359D01*
X0196660Y0041248D01*
X0196545Y0041139D01*
X0196427Y0041034D01*
X0196306Y0040932D01*
X0196183Y0040832D01*
X0196057Y0040736D01*
X0195929Y0040643D01*
X0195799Y0040553D01*
X0195666Y0040467D01*
X0195531Y0040383D01*
X0195395Y0040304D01*
X0195256Y0040227D01*
X0195115Y0040155D01*
X0194973Y0040085D01*
X0194829Y0040020D01*
X0194683Y0039958D01*
X0194536Y0039900D01*
X0194387Y0039845D01*
X0194237Y0039794D01*
X0194086Y0039747D01*
X0193934Y0039704D01*
X0193781Y0039665D01*
X0193626Y0039629D01*
X0193471Y0039598D01*
X0193315Y0039570D01*
X0193159Y0039546D01*
X0193002Y0039526D01*
X0192844Y0039510D01*
X0192687Y0039498D01*
X0192528Y0039490D01*
X0192370Y0039486D01*
X0192212Y0039486D01*
X0192054Y0039490D01*
X0191895Y0039498D01*
X0191738Y0039510D01*
X0191580Y0039526D01*
X0191423Y0039546D01*
X0191267Y0039570D01*
X0191111Y0039598D01*
X0190956Y0039629D01*
X0190801Y0039665D01*
X0190648Y0039704D01*
X0190496Y0039747D01*
X0190345Y0039794D01*
X0190195Y0039845D01*
X0190046Y0039900D01*
X0189899Y0039958D01*
X0189753Y0040020D01*
X0189609Y0040085D01*
X0189467Y0040155D01*
X0189326Y0040227D01*
X0189187Y0040304D01*
X0189051Y0040383D01*
X0188916Y0040467D01*
X0188783Y0040553D01*
X0188653Y0040643D01*
X0188525Y0040736D01*
X0188399Y0040832D01*
X0188276Y0040932D01*
X0188155Y0041034D01*
X0188037Y0041139D01*
X0187922Y0041248D01*
X0187809Y0041359D01*
X0187699Y0041473D01*
X0187592Y0041590D01*
X0187488Y0041709D01*
X0187387Y0041831D01*
X0187290Y0041956D01*
X0187195Y0042083D01*
X0187104Y0042212D01*
X0187015Y0042343D01*
X0186931Y0042477D01*
X0186849Y0042613D01*
X0186771Y0042750D01*
X0186697Y0042890D01*
X0186626Y0043032D01*
X0186558Y0043175D01*
X0186494Y0043320D01*
X0186434Y0043466D01*
X0186378Y0043614D01*
X0186325Y0043763D01*
X0186276Y0043914D01*
X0186231Y0044066D01*
X0186190Y0044219D01*
X0186152Y0044372D01*
X0186119Y0044527D01*
X0186089Y0044683D01*
X0186063Y0044839D01*
X0186042Y0044996D01*
X0186024Y0045153D01*
X0186010Y0045311D01*
X0186000Y0045469D01*
X0185994Y0045627D01*
X0185992Y0045785D01*
D11*
X0057291Y0064785D02*
X0055291Y0062785D01*
X0052791Y0062785D01*
D12*
X0053791Y0085785D02*
X0053791Y0095285D01*
X0054378Y0155155D02*
X0052016Y0155155D01*
X0054378Y0155155D02*
X0057921Y0158699D01*
X0057921Y0176415D01*
X0052016Y0176415D01*
X0042567Y0176415D02*
X0036661Y0176415D01*
X0036661Y0159092D01*
X0040205Y0155549D01*
X0042567Y0155549D01*
X0042567Y0157124D02*
X0042357Y0157241D01*
X0042151Y0157364D01*
X0041947Y0157492D01*
X0041747Y0157624D01*
X0041550Y0157762D01*
X0041356Y0157904D01*
X0041166Y0158051D01*
X0040979Y0158202D01*
X0040797Y0158358D01*
X0040618Y0158518D01*
X0040443Y0158683D01*
X0040272Y0158852D01*
X0040105Y0159025D01*
X0039943Y0159202D01*
X0039785Y0159383D01*
X0039631Y0159567D01*
X0039482Y0159756D01*
X0039337Y0159948D01*
X0039197Y0160143D01*
X0039062Y0160342D01*
X0038932Y0160544D01*
X0038807Y0160749D01*
X0038687Y0160957D01*
X0038572Y0161168D01*
X0038462Y0161381D01*
X0038358Y0161598D01*
X0038258Y0161816D01*
X0038164Y0162038D01*
X0038076Y0162261D01*
X0037993Y0162486D01*
X0037915Y0162714D01*
X0037843Y0162943D01*
X0037777Y0163174D01*
X0037716Y0163406D01*
X0037661Y0163640D01*
X0037612Y0163875D01*
X0037568Y0164111D01*
X0037530Y0164349D01*
X0037498Y0164587D01*
X0037472Y0164826D01*
X0037451Y0165065D01*
X0037437Y0165305D01*
X0037428Y0165545D01*
X0037425Y0165785D01*
X0037428Y0166025D01*
X0037437Y0166265D01*
X0037451Y0166505D01*
X0037472Y0166744D01*
X0037498Y0166983D01*
X0037530Y0167221D01*
X0037568Y0167459D01*
X0037612Y0167695D01*
X0037661Y0167930D01*
X0037716Y0168164D01*
X0037777Y0168396D01*
X0037843Y0168627D01*
X0037915Y0168856D01*
X0037993Y0169084D01*
X0038076Y0169309D01*
X0038164Y0169532D01*
X0038258Y0169754D01*
X0038358Y0169972D01*
X0038462Y0170189D01*
X0038572Y0170402D01*
X0038687Y0170613D01*
X0038807Y0170821D01*
X0038932Y0171026D01*
X0039062Y0171228D01*
X0039197Y0171427D01*
X0039337Y0171622D01*
X0039482Y0171814D01*
X0039631Y0172003D01*
X0039785Y0172187D01*
X0039943Y0172368D01*
X0040105Y0172545D01*
X0040272Y0172718D01*
X0040443Y0172887D01*
X0040618Y0173052D01*
X0040797Y0173212D01*
X0040979Y0173368D01*
X0041166Y0173519D01*
X0041356Y0173666D01*
X0041550Y0173808D01*
X0041747Y0173946D01*
X0041947Y0174078D01*
X0042151Y0174206D01*
X0042357Y0174329D01*
X0042567Y0174446D01*
X0052015Y0174446D02*
X0052225Y0174329D01*
X0052431Y0174206D01*
X0052635Y0174078D01*
X0052835Y0173946D01*
X0053032Y0173808D01*
X0053226Y0173666D01*
X0053416Y0173519D01*
X0053603Y0173368D01*
X0053785Y0173212D01*
X0053964Y0173052D01*
X0054139Y0172887D01*
X0054310Y0172718D01*
X0054477Y0172545D01*
X0054639Y0172368D01*
X0054797Y0172187D01*
X0054951Y0172003D01*
X0055100Y0171814D01*
X0055245Y0171622D01*
X0055385Y0171427D01*
X0055520Y0171228D01*
X0055650Y0171026D01*
X0055775Y0170821D01*
X0055895Y0170613D01*
X0056010Y0170402D01*
X0056120Y0170189D01*
X0056224Y0169972D01*
X0056324Y0169754D01*
X0056418Y0169532D01*
X0056506Y0169309D01*
X0056589Y0169084D01*
X0056667Y0168856D01*
X0056739Y0168627D01*
X0056805Y0168396D01*
X0056866Y0168164D01*
X0056921Y0167930D01*
X0056970Y0167695D01*
X0057014Y0167459D01*
X0057052Y0167221D01*
X0057084Y0166983D01*
X0057110Y0166744D01*
X0057131Y0166505D01*
X0057145Y0166265D01*
X0057154Y0166025D01*
X0057157Y0165785D01*
X0057154Y0165545D01*
X0057145Y0165305D01*
X0057131Y0165065D01*
X0057110Y0164826D01*
X0057084Y0164587D01*
X0057052Y0164349D01*
X0057014Y0164111D01*
X0056970Y0163875D01*
X0056921Y0163640D01*
X0056866Y0163406D01*
X0056805Y0163174D01*
X0056739Y0162943D01*
X0056667Y0162714D01*
X0056589Y0162486D01*
X0056506Y0162261D01*
X0056418Y0162038D01*
X0056324Y0161816D01*
X0056224Y0161598D01*
X0056120Y0161381D01*
X0056010Y0161168D01*
X0055895Y0160957D01*
X0055775Y0160749D01*
X0055650Y0160544D01*
X0055520Y0160342D01*
X0055385Y0160143D01*
X0055245Y0159948D01*
X0055100Y0159756D01*
X0054951Y0159567D01*
X0054797Y0159383D01*
X0054639Y0159202D01*
X0054477Y0159025D01*
X0054310Y0158852D01*
X0054139Y0158683D01*
X0053964Y0158518D01*
X0053785Y0158358D01*
X0053603Y0158202D01*
X0053416Y0158051D01*
X0053226Y0157904D01*
X0053032Y0157762D01*
X0052835Y0157624D01*
X0052635Y0157492D01*
X0052431Y0157364D01*
X0052225Y0157241D01*
X0052015Y0157124D01*
D13*
X0062449Y0158659D02*
X0062449Y0160628D01*
X0064417Y0160628D01*
X0080165Y0160628D02*
X0082134Y0160628D01*
X0082134Y0158659D01*
X0082134Y0142911D02*
X0082134Y0140943D01*
X0080165Y0140943D01*
X0064417Y0140943D02*
X0062449Y0142911D01*
X0062449Y0140943D01*
X0064417Y0140943D01*
X0062122Y0138187D02*
X0062124Y0138254D01*
X0062130Y0138320D01*
X0062140Y0138386D01*
X0062154Y0138451D01*
X0062171Y0138515D01*
X0062193Y0138578D01*
X0062218Y0138640D01*
X0062247Y0138700D01*
X0062280Y0138758D01*
X0062316Y0138815D01*
X0062355Y0138868D01*
X0062397Y0138920D01*
X0062442Y0138969D01*
X0062491Y0139015D01*
X0062541Y0139058D01*
X0062595Y0139098D01*
X0062650Y0139135D01*
X0062708Y0139168D01*
X0062768Y0139198D01*
X0062829Y0139224D01*
X0062892Y0139246D01*
X0062956Y0139265D01*
X0063021Y0139280D01*
X0063086Y0139291D01*
X0063153Y0139298D01*
X0063219Y0139301D01*
X0063286Y0139300D01*
X0063352Y0139295D01*
X0063418Y0139286D01*
X0063484Y0139273D01*
X0063548Y0139256D01*
X0063612Y0139236D01*
X0063674Y0139211D01*
X0063734Y0139183D01*
X0063793Y0139152D01*
X0063850Y0139117D01*
X0063904Y0139078D01*
X0063956Y0139037D01*
X0064006Y0138992D01*
X0064053Y0138945D01*
X0064096Y0138895D01*
X0064137Y0138842D01*
X0064175Y0138787D01*
X0064209Y0138730D01*
X0064240Y0138670D01*
X0064267Y0138609D01*
X0064290Y0138547D01*
X0064310Y0138483D01*
X0064326Y0138419D01*
X0064338Y0138353D01*
X0064346Y0138287D01*
X0064350Y0138220D01*
X0064350Y0138154D01*
X0064346Y0138087D01*
X0064338Y0138021D01*
X0064326Y0137955D01*
X0064310Y0137891D01*
X0064290Y0137827D01*
X0064267Y0137765D01*
X0064240Y0137704D01*
X0064209Y0137644D01*
X0064175Y0137587D01*
X0064137Y0137532D01*
X0064096Y0137479D01*
X0064053Y0137429D01*
X0064006Y0137382D01*
X0063956Y0137337D01*
X0063904Y0137296D01*
X0063850Y0137257D01*
X0063793Y0137222D01*
X0063734Y0137191D01*
X0063674Y0137163D01*
X0063612Y0137138D01*
X0063548Y0137118D01*
X0063484Y0137101D01*
X0063418Y0137088D01*
X0063352Y0137079D01*
X0063286Y0137074D01*
X0063219Y0137073D01*
X0063153Y0137076D01*
X0063086Y0137083D01*
X0063021Y0137094D01*
X0062956Y0137109D01*
X0062892Y0137128D01*
X0062829Y0137150D01*
X0062768Y0137176D01*
X0062708Y0137206D01*
X0062650Y0137239D01*
X0062595Y0137276D01*
X0062541Y0137316D01*
X0062491Y0137359D01*
X0062442Y0137405D01*
X0062397Y0137454D01*
X0062355Y0137506D01*
X0062316Y0137559D01*
X0062280Y0137616D01*
X0062247Y0137674D01*
X0062218Y0137734D01*
X0062193Y0137796D01*
X0062171Y0137859D01*
X0062154Y0137923D01*
X0062140Y0137988D01*
X0062130Y0138054D01*
X0062124Y0138120D01*
X0062122Y0138187D01*
X0033709Y0133699D02*
X0033709Y0132517D01*
X0034102Y0123856D02*
X0027016Y0123856D01*
X0017567Y0123856D02*
X0016583Y0123856D01*
X0033709Y0147872D02*
X0033709Y0149053D01*
X0034102Y0157714D02*
X0027016Y0157714D01*
X0017567Y0157714D02*
X0016583Y0157714D01*
X0090673Y0123285D02*
X0090675Y0123351D01*
X0090681Y0123417D01*
X0090691Y0123483D01*
X0090704Y0123548D01*
X0090722Y0123612D01*
X0090743Y0123674D01*
X0090768Y0123736D01*
X0090796Y0123796D01*
X0090828Y0123854D01*
X0090864Y0123910D01*
X0090902Y0123963D01*
X0090944Y0124015D01*
X0090989Y0124064D01*
X0091036Y0124110D01*
X0091087Y0124153D01*
X0091139Y0124193D01*
X0091194Y0124230D01*
X0091251Y0124264D01*
X0091310Y0124294D01*
X0091371Y0124321D01*
X0091433Y0124344D01*
X0091496Y0124363D01*
X0091561Y0124379D01*
X0091626Y0124391D01*
X0091692Y0124399D01*
X0091758Y0124403D01*
X0091824Y0124403D01*
X0091890Y0124399D01*
X0091956Y0124391D01*
X0092021Y0124379D01*
X0092086Y0124363D01*
X0092149Y0124344D01*
X0092211Y0124321D01*
X0092272Y0124294D01*
X0092331Y0124264D01*
X0092388Y0124230D01*
X0092443Y0124193D01*
X0092495Y0124153D01*
X0092546Y0124110D01*
X0092593Y0124064D01*
X0092638Y0124015D01*
X0092680Y0123963D01*
X0092718Y0123910D01*
X0092754Y0123854D01*
X0092786Y0123796D01*
X0092814Y0123736D01*
X0092839Y0123674D01*
X0092860Y0123612D01*
X0092878Y0123548D01*
X0092891Y0123483D01*
X0092901Y0123417D01*
X0092907Y0123351D01*
X0092909Y0123285D01*
X0092907Y0123219D01*
X0092901Y0123153D01*
X0092891Y0123087D01*
X0092878Y0123022D01*
X0092860Y0122958D01*
X0092839Y0122896D01*
X0092814Y0122834D01*
X0092786Y0122774D01*
X0092754Y0122716D01*
X0092718Y0122660D01*
X0092680Y0122607D01*
X0092638Y0122555D01*
X0092593Y0122506D01*
X0092546Y0122460D01*
X0092495Y0122417D01*
X0092443Y0122377D01*
X0092388Y0122340D01*
X0092331Y0122306D01*
X0092272Y0122276D01*
X0092211Y0122249D01*
X0092149Y0122226D01*
X0092086Y0122207D01*
X0092021Y0122191D01*
X0091956Y0122179D01*
X0091890Y0122171D01*
X0091824Y0122167D01*
X0091758Y0122167D01*
X0091692Y0122171D01*
X0091626Y0122179D01*
X0091561Y0122191D01*
X0091496Y0122207D01*
X0091433Y0122226D01*
X0091371Y0122249D01*
X0091310Y0122276D01*
X0091251Y0122306D01*
X0091194Y0122340D01*
X0091139Y0122377D01*
X0091087Y0122417D01*
X0091036Y0122460D01*
X0090989Y0122506D01*
X0090944Y0122555D01*
X0090902Y0122607D01*
X0090864Y0122660D01*
X0090828Y0122716D01*
X0090796Y0122774D01*
X0090768Y0122834D01*
X0090743Y0122896D01*
X0090722Y0122958D01*
X0090704Y0123022D01*
X0090691Y0123087D01*
X0090681Y0123153D01*
X0090675Y0123219D01*
X0090673Y0123285D01*
D14*
X0096425Y0129289D02*
X0096425Y0131651D01*
X0098787Y0131651D01*
X0067941Y0111494D02*
X0067941Y0100076D01*
X0061642Y0100076D01*
X0061642Y0111494D01*
X0067941Y0111494D01*
X0062291Y0109785D02*
X0062293Y0109848D01*
X0062299Y0109910D01*
X0062309Y0109972D01*
X0062322Y0110034D01*
X0062340Y0110094D01*
X0062361Y0110153D01*
X0062386Y0110211D01*
X0062415Y0110267D01*
X0062447Y0110321D01*
X0062482Y0110373D01*
X0062520Y0110422D01*
X0062562Y0110470D01*
X0062606Y0110514D01*
X0062654Y0110556D01*
X0062703Y0110594D01*
X0062755Y0110629D01*
X0062809Y0110661D01*
X0062865Y0110690D01*
X0062923Y0110715D01*
X0062982Y0110736D01*
X0063042Y0110754D01*
X0063104Y0110767D01*
X0063166Y0110777D01*
X0063228Y0110783D01*
X0063291Y0110785D01*
X0063354Y0110783D01*
X0063416Y0110777D01*
X0063478Y0110767D01*
X0063540Y0110754D01*
X0063600Y0110736D01*
X0063659Y0110715D01*
X0063717Y0110690D01*
X0063773Y0110661D01*
X0063827Y0110629D01*
X0063879Y0110594D01*
X0063928Y0110556D01*
X0063976Y0110514D01*
X0064020Y0110470D01*
X0064062Y0110422D01*
X0064100Y0110373D01*
X0064135Y0110321D01*
X0064167Y0110267D01*
X0064196Y0110211D01*
X0064221Y0110153D01*
X0064242Y0110094D01*
X0064260Y0110034D01*
X0064273Y0109972D01*
X0064283Y0109910D01*
X0064289Y0109848D01*
X0064291Y0109785D01*
X0064289Y0109722D01*
X0064283Y0109660D01*
X0064273Y0109598D01*
X0064260Y0109536D01*
X0064242Y0109476D01*
X0064221Y0109417D01*
X0064196Y0109359D01*
X0064167Y0109303D01*
X0064135Y0109249D01*
X0064100Y0109197D01*
X0064062Y0109148D01*
X0064020Y0109100D01*
X0063976Y0109056D01*
X0063928Y0109014D01*
X0063879Y0108976D01*
X0063827Y0108941D01*
X0063773Y0108909D01*
X0063717Y0108880D01*
X0063659Y0108855D01*
X0063600Y0108834D01*
X0063540Y0108816D01*
X0063478Y0108803D01*
X0063416Y0108793D01*
X0063354Y0108787D01*
X0063291Y0108785D01*
X0063228Y0108787D01*
X0063166Y0108793D01*
X0063104Y0108803D01*
X0063042Y0108816D01*
X0062982Y0108834D01*
X0062923Y0108855D01*
X0062865Y0108880D01*
X0062809Y0108909D01*
X0062755Y0108941D01*
X0062703Y0108976D01*
X0062654Y0109014D01*
X0062606Y0109056D01*
X0062562Y0109100D01*
X0062520Y0109148D01*
X0062482Y0109197D01*
X0062447Y0109249D01*
X0062415Y0109303D01*
X0062386Y0109359D01*
X0062361Y0109417D01*
X0062340Y0109476D01*
X0062322Y0109536D01*
X0062309Y0109598D01*
X0062299Y0109660D01*
X0062293Y0109722D01*
X0062291Y0109785D01*
X0052291Y0105785D02*
X0052291Y0115785D01*
X0042291Y0115785D01*
X0042291Y0105785D01*
X0052291Y0105785D01*
X0042291Y0105785D01*
X0042291Y0095785D01*
X0052291Y0095785D01*
X0052291Y0105785D01*
X0052291Y0095785D02*
X0042291Y0095785D01*
X0042291Y0085785D01*
X0052291Y0085785D01*
X0052291Y0095785D01*
X0059142Y0076494D02*
X0059142Y0065076D01*
X0065441Y0065076D01*
X0065441Y0076494D01*
X0059142Y0076494D01*
X0062791Y0066785D02*
X0062793Y0066848D01*
X0062799Y0066910D01*
X0062809Y0066972D01*
X0062822Y0067034D01*
X0062840Y0067094D01*
X0062861Y0067153D01*
X0062886Y0067211D01*
X0062915Y0067267D01*
X0062947Y0067321D01*
X0062982Y0067373D01*
X0063020Y0067422D01*
X0063062Y0067470D01*
X0063106Y0067514D01*
X0063154Y0067556D01*
X0063203Y0067594D01*
X0063255Y0067629D01*
X0063309Y0067661D01*
X0063365Y0067690D01*
X0063423Y0067715D01*
X0063482Y0067736D01*
X0063542Y0067754D01*
X0063604Y0067767D01*
X0063666Y0067777D01*
X0063728Y0067783D01*
X0063791Y0067785D01*
X0063854Y0067783D01*
X0063916Y0067777D01*
X0063978Y0067767D01*
X0064040Y0067754D01*
X0064100Y0067736D01*
X0064159Y0067715D01*
X0064217Y0067690D01*
X0064273Y0067661D01*
X0064327Y0067629D01*
X0064379Y0067594D01*
X0064428Y0067556D01*
X0064476Y0067514D01*
X0064520Y0067470D01*
X0064562Y0067422D01*
X0064600Y0067373D01*
X0064635Y0067321D01*
X0064667Y0067267D01*
X0064696Y0067211D01*
X0064721Y0067153D01*
X0064742Y0067094D01*
X0064760Y0067034D01*
X0064773Y0066972D01*
X0064783Y0066910D01*
X0064789Y0066848D01*
X0064791Y0066785D01*
X0064789Y0066722D01*
X0064783Y0066660D01*
X0064773Y0066598D01*
X0064760Y0066536D01*
X0064742Y0066476D01*
X0064721Y0066417D01*
X0064696Y0066359D01*
X0064667Y0066303D01*
X0064635Y0066249D01*
X0064600Y0066197D01*
X0064562Y0066148D01*
X0064520Y0066100D01*
X0064476Y0066056D01*
X0064428Y0066014D01*
X0064379Y0065976D01*
X0064327Y0065941D01*
X0064273Y0065909D01*
X0064217Y0065880D01*
X0064159Y0065855D01*
X0064100Y0065834D01*
X0064040Y0065816D01*
X0063978Y0065803D01*
X0063916Y0065793D01*
X0063854Y0065787D01*
X0063791Y0065785D01*
X0063728Y0065787D01*
X0063666Y0065793D01*
X0063604Y0065803D01*
X0063542Y0065816D01*
X0063482Y0065834D01*
X0063423Y0065855D01*
X0063365Y0065880D01*
X0063309Y0065909D01*
X0063255Y0065941D01*
X0063203Y0065976D01*
X0063154Y0066014D01*
X0063106Y0066056D01*
X0063062Y0066100D01*
X0063020Y0066148D01*
X0062982Y0066197D01*
X0062947Y0066249D01*
X0062915Y0066303D01*
X0062886Y0066359D01*
X0062861Y0066417D01*
X0062840Y0066476D01*
X0062822Y0066536D01*
X0062809Y0066598D01*
X0062799Y0066660D01*
X0062793Y0066722D01*
X0062791Y0066785D01*
X0071524Y0072380D02*
X0071524Y0084191D01*
X0088059Y0084191D01*
X0088059Y0072380D01*
X0071524Y0072380D01*
X0067291Y0050785D02*
X0057291Y0050785D01*
X0057291Y0040785D01*
X0067291Y0040785D01*
X0067291Y0050785D01*
X0067291Y0040785D01*
X0077291Y0040785D01*
X0077291Y0050785D01*
X0067291Y0050785D01*
X0057291Y0050785D02*
X0057291Y0040785D01*
X0047291Y0040785D01*
X0047291Y0050785D01*
X0057291Y0050785D01*
X0047291Y0050785D02*
X0047291Y0040785D01*
X0037291Y0040785D01*
X0037291Y0050785D01*
X0047291Y0050785D01*
X0096425Y0089919D02*
X0096425Y0092281D01*
X0096425Y0089919D02*
X0098787Y0089919D01*
X0114142Y0081494D02*
X0114142Y0070076D01*
X0120441Y0070076D01*
X0120441Y0081494D01*
X0114142Y0081494D01*
X0114791Y0079785D02*
X0114793Y0079848D01*
X0114799Y0079910D01*
X0114809Y0079972D01*
X0114822Y0080034D01*
X0114840Y0080094D01*
X0114861Y0080153D01*
X0114886Y0080211D01*
X0114915Y0080267D01*
X0114947Y0080321D01*
X0114982Y0080373D01*
X0115020Y0080422D01*
X0115062Y0080470D01*
X0115106Y0080514D01*
X0115154Y0080556D01*
X0115203Y0080594D01*
X0115255Y0080629D01*
X0115309Y0080661D01*
X0115365Y0080690D01*
X0115423Y0080715D01*
X0115482Y0080736D01*
X0115542Y0080754D01*
X0115604Y0080767D01*
X0115666Y0080777D01*
X0115728Y0080783D01*
X0115791Y0080785D01*
X0115854Y0080783D01*
X0115916Y0080777D01*
X0115978Y0080767D01*
X0116040Y0080754D01*
X0116100Y0080736D01*
X0116159Y0080715D01*
X0116217Y0080690D01*
X0116273Y0080661D01*
X0116327Y0080629D01*
X0116379Y0080594D01*
X0116428Y0080556D01*
X0116476Y0080514D01*
X0116520Y0080470D01*
X0116562Y0080422D01*
X0116600Y0080373D01*
X0116635Y0080321D01*
X0116667Y0080267D01*
X0116696Y0080211D01*
X0116721Y0080153D01*
X0116742Y0080094D01*
X0116760Y0080034D01*
X0116773Y0079972D01*
X0116783Y0079910D01*
X0116789Y0079848D01*
X0116791Y0079785D01*
X0116789Y0079722D01*
X0116783Y0079660D01*
X0116773Y0079598D01*
X0116760Y0079536D01*
X0116742Y0079476D01*
X0116721Y0079417D01*
X0116696Y0079359D01*
X0116667Y0079303D01*
X0116635Y0079249D01*
X0116600Y0079197D01*
X0116562Y0079148D01*
X0116520Y0079100D01*
X0116476Y0079056D01*
X0116428Y0079014D01*
X0116379Y0078976D01*
X0116327Y0078941D01*
X0116273Y0078909D01*
X0116217Y0078880D01*
X0116159Y0078855D01*
X0116100Y0078834D01*
X0116040Y0078816D01*
X0115978Y0078803D01*
X0115916Y0078793D01*
X0115854Y0078787D01*
X0115791Y0078785D01*
X0115728Y0078787D01*
X0115666Y0078793D01*
X0115604Y0078803D01*
X0115542Y0078816D01*
X0115482Y0078834D01*
X0115423Y0078855D01*
X0115365Y0078880D01*
X0115309Y0078909D01*
X0115255Y0078941D01*
X0115203Y0078976D01*
X0115154Y0079014D01*
X0115106Y0079056D01*
X0115062Y0079100D01*
X0115020Y0079148D01*
X0114982Y0079197D01*
X0114947Y0079249D01*
X0114915Y0079303D01*
X0114886Y0079359D01*
X0114861Y0079417D01*
X0114840Y0079476D01*
X0114822Y0079536D01*
X0114809Y0079598D01*
X0114799Y0079660D01*
X0114793Y0079722D01*
X0114791Y0079785D01*
X0114142Y0063994D02*
X0114142Y0052576D01*
X0120441Y0052576D01*
X0120441Y0063994D01*
X0114142Y0063994D01*
X0114791Y0062285D02*
X0114793Y0062348D01*
X0114799Y0062410D01*
X0114809Y0062472D01*
X0114822Y0062534D01*
X0114840Y0062594D01*
X0114861Y0062653D01*
X0114886Y0062711D01*
X0114915Y0062767D01*
X0114947Y0062821D01*
X0114982Y0062873D01*
X0115020Y0062922D01*
X0115062Y0062970D01*
X0115106Y0063014D01*
X0115154Y0063056D01*
X0115203Y0063094D01*
X0115255Y0063129D01*
X0115309Y0063161D01*
X0115365Y0063190D01*
X0115423Y0063215D01*
X0115482Y0063236D01*
X0115542Y0063254D01*
X0115604Y0063267D01*
X0115666Y0063277D01*
X0115728Y0063283D01*
X0115791Y0063285D01*
X0115854Y0063283D01*
X0115916Y0063277D01*
X0115978Y0063267D01*
X0116040Y0063254D01*
X0116100Y0063236D01*
X0116159Y0063215D01*
X0116217Y0063190D01*
X0116273Y0063161D01*
X0116327Y0063129D01*
X0116379Y0063094D01*
X0116428Y0063056D01*
X0116476Y0063014D01*
X0116520Y0062970D01*
X0116562Y0062922D01*
X0116600Y0062873D01*
X0116635Y0062821D01*
X0116667Y0062767D01*
X0116696Y0062711D01*
X0116721Y0062653D01*
X0116742Y0062594D01*
X0116760Y0062534D01*
X0116773Y0062472D01*
X0116783Y0062410D01*
X0116789Y0062348D01*
X0116791Y0062285D01*
X0116789Y0062222D01*
X0116783Y0062160D01*
X0116773Y0062098D01*
X0116760Y0062036D01*
X0116742Y0061976D01*
X0116721Y0061917D01*
X0116696Y0061859D01*
X0116667Y0061803D01*
X0116635Y0061749D01*
X0116600Y0061697D01*
X0116562Y0061648D01*
X0116520Y0061600D01*
X0116476Y0061556D01*
X0116428Y0061514D01*
X0116379Y0061476D01*
X0116327Y0061441D01*
X0116273Y0061409D01*
X0116217Y0061380D01*
X0116159Y0061355D01*
X0116100Y0061334D01*
X0116040Y0061316D01*
X0115978Y0061303D01*
X0115916Y0061293D01*
X0115854Y0061287D01*
X0115791Y0061285D01*
X0115728Y0061287D01*
X0115666Y0061293D01*
X0115604Y0061303D01*
X0115542Y0061316D01*
X0115482Y0061334D01*
X0115423Y0061355D01*
X0115365Y0061380D01*
X0115309Y0061409D01*
X0115255Y0061441D01*
X0115203Y0061476D01*
X0115154Y0061514D01*
X0115106Y0061556D01*
X0115062Y0061600D01*
X0115020Y0061648D01*
X0114982Y0061697D01*
X0114947Y0061749D01*
X0114915Y0061803D01*
X0114886Y0061859D01*
X0114861Y0061917D01*
X0114840Y0061976D01*
X0114822Y0062036D01*
X0114809Y0062098D01*
X0114799Y0062160D01*
X0114793Y0062222D01*
X0114791Y0062285D01*
X0135795Y0089919D02*
X0138157Y0089919D01*
X0138157Y0092281D01*
X0138157Y0129289D02*
X0138157Y0131651D01*
X0135795Y0131651D01*
X0079791Y0171785D02*
X0079791Y0181785D01*
X0069791Y0181785D01*
X0069791Y0171785D01*
X0079791Y0171785D01*
X0069791Y0171785D02*
X0069791Y0181785D01*
X0059791Y0181785D01*
X0059791Y0171785D01*
X0069791Y0171785D01*
X0056740Y0154368D02*
X0056740Y0151218D01*
X0058315Y0152793D02*
X0055165Y0152793D01*
X0050835Y0143265D02*
X0050835Y0142478D01*
X0050835Y0143265D02*
X0043748Y0143265D01*
X0043748Y0142478D01*
X0043748Y0136966D02*
X0043748Y0134604D01*
X0043748Y0129092D02*
X0043748Y0128305D01*
X0050835Y0128305D01*
X0050835Y0129092D01*
D15*
X0045110Y0122488D02*
X0043975Y0122488D01*
X0043408Y0121921D01*
X0043408Y0119652D01*
X0045677Y0121921D01*
X0045677Y0119652D01*
X0045110Y0119085D01*
X0043975Y0119085D01*
X0043408Y0119652D01*
X0041994Y0119085D02*
X0039725Y0119085D01*
X0040859Y0119085D02*
X0040859Y0122488D01*
X0039725Y0121354D01*
X0038311Y0121921D02*
X0038311Y0120787D01*
X0037743Y0120219D01*
X0036042Y0120219D01*
X0036042Y0119085D02*
X0036042Y0122488D01*
X0037743Y0122488D01*
X0038311Y0121921D01*
X0037176Y0120219D02*
X0038311Y0119085D01*
X0045110Y0122488D02*
X0045677Y0121921D01*
X0062091Y0115988D02*
X0062091Y0113152D01*
X0062658Y0112585D01*
X0063793Y0112585D01*
X0064360Y0113152D01*
X0064360Y0115988D01*
X0065774Y0115988D02*
X0065774Y0114287D01*
X0066909Y0114854D01*
X0067476Y0114854D01*
X0068043Y0114287D01*
X0068043Y0113152D01*
X0067476Y0112585D01*
X0066342Y0112585D01*
X0065774Y0113152D01*
X0065774Y0115988D02*
X0068043Y0115988D01*
X0071088Y0114420D02*
X0071088Y0113286D01*
X0071656Y0112719D01*
X0073924Y0112719D01*
X0074491Y0113286D01*
X0074491Y0114420D01*
X0073924Y0114987D01*
X0072790Y0116402D02*
X0072790Y0118671D01*
X0074491Y0118103D02*
X0071088Y0118103D01*
X0072790Y0116402D01*
X0071656Y0114987D02*
X0071088Y0114420D01*
X0076088Y0114420D02*
X0076088Y0113286D01*
X0076656Y0112719D01*
X0078924Y0112719D01*
X0079491Y0113286D01*
X0079491Y0114420D01*
X0078924Y0114987D01*
X0078924Y0116402D02*
X0079491Y0116969D01*
X0079491Y0118103D01*
X0078924Y0118671D01*
X0077790Y0118671D01*
X0077223Y0118103D01*
X0077223Y0117536D01*
X0077790Y0116402D01*
X0076088Y0116402D01*
X0076088Y0118671D01*
X0076656Y0114987D02*
X0076088Y0114420D01*
X0081088Y0114420D02*
X0081088Y0113286D01*
X0081656Y0112719D01*
X0083924Y0112719D01*
X0084491Y0113286D01*
X0084491Y0114420D01*
X0083924Y0114987D01*
X0083924Y0116402D02*
X0084491Y0116969D01*
X0084491Y0118103D01*
X0083924Y0118671D01*
X0083357Y0118671D01*
X0082790Y0118103D01*
X0082790Y0117536D01*
X0082790Y0118103D02*
X0082223Y0118671D01*
X0081656Y0118671D01*
X0081088Y0118103D01*
X0081088Y0116969D01*
X0081656Y0116402D01*
X0081656Y0114987D02*
X0081088Y0114420D01*
X0086088Y0114420D02*
X0086088Y0113286D01*
X0086656Y0112719D01*
X0088924Y0112719D01*
X0089491Y0113286D01*
X0089491Y0114420D01*
X0088924Y0114987D01*
X0089491Y0116402D02*
X0087223Y0118671D01*
X0086656Y0118671D01*
X0086088Y0118103D01*
X0086088Y0116969D01*
X0086656Y0116402D01*
X0086656Y0114987D02*
X0086088Y0114420D01*
X0089491Y0116402D02*
X0089491Y0118671D01*
X0086656Y0098671D02*
X0088924Y0096402D01*
X0089491Y0096402D01*
X0089491Y0094987D02*
X0089491Y0092719D01*
X0089491Y0093853D02*
X0086088Y0093853D01*
X0087223Y0092719D01*
X0086656Y0091304D02*
X0086088Y0090737D01*
X0086088Y0089603D01*
X0086656Y0089036D01*
X0088924Y0089036D01*
X0089491Y0089603D01*
X0089491Y0090737D01*
X0088924Y0091304D01*
X0086088Y0096402D02*
X0086088Y0098671D01*
X0086656Y0098671D01*
X0081491Y0097603D02*
X0081491Y0096469D01*
X0080924Y0095902D01*
X0081491Y0094487D02*
X0081491Y0092219D01*
X0081491Y0093353D02*
X0078088Y0093353D01*
X0079223Y0092219D01*
X0078656Y0090804D02*
X0078088Y0090237D01*
X0078088Y0089103D01*
X0078656Y0088536D01*
X0080924Y0088536D01*
X0081491Y0089103D01*
X0081491Y0090237D01*
X0080924Y0090804D01*
X0078656Y0095902D02*
X0078088Y0096469D01*
X0078088Y0097603D01*
X0078656Y0098171D01*
X0079223Y0098171D01*
X0079790Y0097603D01*
X0080357Y0098171D01*
X0080924Y0098171D01*
X0081491Y0097603D01*
X0079790Y0097603D02*
X0079790Y0097036D01*
X0067226Y0091921D02*
X0066659Y0092488D01*
X0065525Y0092488D01*
X0064958Y0091921D01*
X0067226Y0091354D02*
X0064958Y0089085D01*
X0067226Y0089085D01*
X0067226Y0091354D02*
X0067226Y0091921D01*
X0063543Y0089085D02*
X0061274Y0089085D01*
X0062409Y0089085D02*
X0062409Y0092488D01*
X0061274Y0091354D01*
X0059860Y0091921D02*
X0059293Y0092488D01*
X0058158Y0092488D01*
X0057591Y0091921D01*
X0057591Y0089652D01*
X0058158Y0089085D01*
X0059293Y0089085D01*
X0059860Y0089652D01*
X0059658Y0087488D02*
X0059091Y0086921D01*
X0059091Y0084652D01*
X0059658Y0084085D01*
X0060793Y0084085D01*
X0061360Y0084652D01*
X0062774Y0084652D02*
X0063342Y0084085D01*
X0064476Y0084085D01*
X0065043Y0084652D01*
X0065043Y0085219D01*
X0064476Y0085787D01*
X0062774Y0085787D01*
X0062774Y0084652D01*
X0062774Y0085787D02*
X0063909Y0086921D01*
X0065043Y0087488D01*
X0061360Y0086921D02*
X0060793Y0087488D01*
X0059658Y0087488D01*
X0048424Y0073037D02*
X0046156Y0073037D01*
X0045588Y0072470D01*
X0045588Y0071335D01*
X0046156Y0070768D01*
X0046723Y0070768D01*
X0047290Y0071335D01*
X0047290Y0073037D01*
X0048424Y0073037D02*
X0048991Y0072470D01*
X0048991Y0071335D01*
X0048424Y0070768D01*
X0048991Y0069354D02*
X0047857Y0068219D01*
X0047857Y0068787D02*
X0047857Y0067085D01*
X0048991Y0067085D02*
X0045588Y0067085D01*
X0045588Y0068787D01*
X0046156Y0069354D01*
X0047290Y0069354D01*
X0047857Y0068787D01*
X0047494Y0062488D02*
X0047494Y0059652D01*
X0046927Y0059085D01*
X0045792Y0059085D01*
X0045225Y0059652D01*
X0045225Y0062488D01*
X0048908Y0061921D02*
X0049475Y0062488D01*
X0050610Y0062488D01*
X0051177Y0061921D01*
X0051177Y0061354D01*
X0048908Y0059085D01*
X0051177Y0059085D01*
X0059591Y0057488D02*
X0059591Y0054085D01*
X0059591Y0055219D02*
X0061293Y0055219D01*
X0061860Y0055787D01*
X0061860Y0056921D01*
X0061293Y0057488D01*
X0059591Y0057488D01*
X0060726Y0055219D02*
X0061860Y0054085D01*
X0063274Y0054652D02*
X0063842Y0054085D01*
X0064976Y0054085D01*
X0065543Y0054652D01*
X0065543Y0055219D01*
X0064976Y0055787D01*
X0064409Y0055787D01*
X0064976Y0055787D02*
X0065543Y0056354D01*
X0065543Y0056921D01*
X0064976Y0057488D01*
X0063842Y0057488D01*
X0063274Y0056921D01*
X0077091Y0057488D02*
X0077091Y0054085D01*
X0077091Y0055219D02*
X0078793Y0055219D01*
X0079360Y0055787D01*
X0079360Y0056921D01*
X0078793Y0057488D01*
X0077091Y0057488D01*
X0078226Y0055219D02*
X0079360Y0054085D01*
X0080774Y0054085D02*
X0083043Y0056354D01*
X0083043Y0056921D01*
X0082476Y0057488D01*
X0081342Y0057488D01*
X0080774Y0056921D01*
X0080774Y0054085D02*
X0083043Y0054085D01*
X0087292Y0066585D02*
X0088427Y0066585D01*
X0088994Y0067152D01*
X0090408Y0067152D02*
X0090408Y0066585D01*
X0090408Y0067152D02*
X0092677Y0069421D01*
X0092677Y0069988D01*
X0090408Y0069988D01*
X0088994Y0069421D02*
X0088427Y0069988D01*
X0087292Y0069988D01*
X0086725Y0069421D01*
X0086725Y0067152D01*
X0087292Y0066585D01*
X0089564Y0076341D02*
X0091832Y0076341D01*
X0093247Y0076341D02*
X0095516Y0076341D01*
X0094381Y0076341D02*
X0094381Y0079744D01*
X0093247Y0078610D01*
X0089564Y0079744D02*
X0089564Y0076341D01*
X0099091Y0067921D02*
X0099091Y0065652D01*
X0099658Y0065085D01*
X0100793Y0065085D01*
X0101360Y0065652D01*
X0102774Y0065652D02*
X0102774Y0066219D01*
X0103342Y0066787D01*
X0104476Y0066787D01*
X0105043Y0066219D01*
X0105043Y0065652D01*
X0104476Y0065085D01*
X0103342Y0065085D01*
X0102774Y0065652D01*
X0103342Y0066787D02*
X0102774Y0067354D01*
X0102774Y0067921D01*
X0103342Y0068488D01*
X0104476Y0068488D01*
X0105043Y0067921D01*
X0105043Y0067354D01*
X0104476Y0066787D01*
X0101360Y0067921D02*
X0100793Y0068488D01*
X0099658Y0068488D01*
X0099091Y0067921D01*
X0101156Y0050671D02*
X0103424Y0048402D01*
X0103991Y0048969D01*
X0103991Y0050103D01*
X0103424Y0050671D01*
X0101156Y0050671D01*
X0100588Y0050103D01*
X0100588Y0048969D01*
X0101156Y0048402D01*
X0103424Y0048402D01*
X0103991Y0046987D02*
X0103991Y0044719D01*
X0103991Y0045853D02*
X0100588Y0045853D01*
X0101723Y0044719D01*
X0101156Y0043304D02*
X0100588Y0042737D01*
X0100588Y0041603D01*
X0101156Y0041036D01*
X0103424Y0041036D01*
X0103991Y0041603D01*
X0103991Y0042737D01*
X0103424Y0043304D01*
X0114591Y0047652D02*
X0115158Y0047085D01*
X0116293Y0047085D01*
X0116860Y0047652D01*
X0116860Y0050488D01*
X0118274Y0048787D02*
X0120543Y0048787D01*
X0119976Y0047085D02*
X0119976Y0050488D01*
X0118274Y0048787D01*
X0114591Y0047652D02*
X0114591Y0050488D01*
X0126088Y0050536D02*
X0129491Y0050536D01*
X0129491Y0049402D02*
X0129491Y0051671D01*
X0127223Y0049402D02*
X0126088Y0050536D01*
X0126088Y0046853D02*
X0129491Y0046853D01*
X0129491Y0045719D02*
X0129491Y0047987D01*
X0127223Y0045719D02*
X0126088Y0046853D01*
X0126656Y0044304D02*
X0126088Y0043737D01*
X0126088Y0042603D01*
X0126656Y0042036D01*
X0128924Y0042036D01*
X0129491Y0042603D01*
X0129491Y0043737D01*
X0128924Y0044304D01*
X0138109Y0062085D02*
X0139243Y0062085D01*
X0139811Y0062652D01*
X0141225Y0062085D02*
X0143494Y0062085D01*
X0142359Y0062085D02*
X0142359Y0065488D01*
X0141225Y0064354D01*
X0139811Y0064921D02*
X0139243Y0065488D01*
X0138109Y0065488D01*
X0137542Y0064921D01*
X0137542Y0062652D01*
X0138109Y0062085D01*
X0144908Y0062652D02*
X0145475Y0062085D01*
X0146610Y0062085D01*
X0147177Y0062652D01*
X0147177Y0063219D01*
X0146610Y0063787D01*
X0144908Y0063787D01*
X0144908Y0062652D01*
X0144908Y0063787D02*
X0146042Y0064921D01*
X0147177Y0065488D01*
X0145424Y0070536D02*
X0143156Y0070536D01*
X0142588Y0071103D01*
X0142588Y0072237D01*
X0143156Y0072804D01*
X0143723Y0074219D02*
X0142588Y0075353D01*
X0145991Y0075353D01*
X0145991Y0074219D02*
X0145991Y0076487D01*
X0145424Y0077902D02*
X0144857Y0077902D01*
X0144290Y0078469D01*
X0144290Y0079603D01*
X0144857Y0080171D01*
X0145424Y0080171D01*
X0145991Y0079603D01*
X0145991Y0078469D01*
X0145424Y0077902D01*
X0144290Y0078469D02*
X0143723Y0077902D01*
X0143156Y0077902D01*
X0142588Y0078469D01*
X0142588Y0079603D01*
X0143156Y0080171D01*
X0143723Y0080171D01*
X0144290Y0079603D01*
X0145424Y0072804D02*
X0145991Y0072237D01*
X0145991Y0071103D01*
X0145424Y0070536D01*
X0150225Y0054988D02*
X0151927Y0054988D01*
X0152494Y0054421D01*
X0152494Y0053287D01*
X0151927Y0052719D01*
X0150225Y0052719D01*
X0150225Y0051585D02*
X0150225Y0054988D01*
X0151359Y0052719D02*
X0152494Y0051585D01*
X0153908Y0053287D02*
X0156177Y0053287D01*
X0155610Y0051585D02*
X0155610Y0054988D01*
X0153908Y0053287D01*
X0162591Y0053421D02*
X0162591Y0051152D01*
X0163158Y0050585D01*
X0164293Y0050585D01*
X0164860Y0051152D01*
X0166274Y0050585D02*
X0168543Y0050585D01*
X0167409Y0050585D02*
X0167409Y0053988D01*
X0166274Y0052854D01*
X0164860Y0053421D02*
X0164293Y0053988D01*
X0163158Y0053988D01*
X0162591Y0053421D01*
X0169958Y0052287D02*
X0172226Y0052287D01*
X0171659Y0050585D02*
X0171659Y0053988D01*
X0169958Y0052287D01*
X0169543Y0073085D02*
X0167274Y0073085D01*
X0168409Y0073085D02*
X0168409Y0076488D01*
X0167274Y0075354D01*
X0165860Y0075921D02*
X0165293Y0076488D01*
X0164158Y0076488D01*
X0163591Y0075921D01*
X0163591Y0073652D01*
X0164158Y0073085D01*
X0165293Y0073085D01*
X0165860Y0073652D01*
X0170958Y0073652D02*
X0171525Y0073085D01*
X0172659Y0073085D01*
X0173226Y0073652D01*
X0173226Y0074787D01*
X0172659Y0075354D01*
X0172092Y0075354D01*
X0170958Y0074787D01*
X0170958Y0076488D01*
X0173226Y0076488D01*
X0169726Y0085085D02*
X0167458Y0085085D01*
X0169726Y0087354D01*
X0169726Y0087921D01*
X0169159Y0088488D01*
X0168025Y0088488D01*
X0167458Y0087921D01*
X0166043Y0085085D02*
X0163774Y0085085D01*
X0164909Y0085085D02*
X0164909Y0088488D01*
X0163774Y0087354D01*
X0162360Y0087921D02*
X0161793Y0088488D01*
X0160091Y0088488D01*
X0160091Y0085085D01*
X0160091Y0086219D02*
X0161793Y0086219D01*
X0162360Y0086787D01*
X0162360Y0087921D01*
X0161226Y0086219D02*
X0162360Y0085085D01*
X0162360Y0092585D02*
X0161226Y0093719D01*
X0161793Y0093719D02*
X0160091Y0093719D01*
X0160091Y0092585D02*
X0160091Y0095988D01*
X0161793Y0095988D01*
X0162360Y0095421D01*
X0162360Y0094287D01*
X0161793Y0093719D01*
X0163774Y0092585D02*
X0166043Y0092585D01*
X0164909Y0092585D02*
X0164909Y0095988D01*
X0163774Y0094854D01*
X0167458Y0094854D02*
X0168592Y0095988D01*
X0168592Y0092585D01*
X0167458Y0092585D02*
X0169726Y0092585D01*
X0169110Y0103585D02*
X0167975Y0103585D01*
X0167408Y0104152D01*
X0167975Y0105287D02*
X0169677Y0105287D01*
X0169677Y0106421D02*
X0169677Y0104152D01*
X0169110Y0103585D01*
X0167975Y0105287D02*
X0167408Y0105854D01*
X0167408Y0106421D01*
X0167975Y0106988D01*
X0169110Y0106988D01*
X0169677Y0106421D01*
X0165994Y0103585D02*
X0163725Y0103585D01*
X0164859Y0103585D02*
X0164859Y0106988D01*
X0163725Y0105854D01*
X0162311Y0106421D02*
X0161743Y0106988D01*
X0160609Y0106988D01*
X0160042Y0106421D01*
X0160042Y0104152D01*
X0160609Y0103585D01*
X0161743Y0103585D01*
X0162311Y0104152D01*
X0161994Y0126585D02*
X0160859Y0127719D01*
X0161427Y0127719D02*
X0159725Y0127719D01*
X0159725Y0126585D02*
X0159725Y0129988D01*
X0161427Y0129988D01*
X0161994Y0129421D01*
X0161994Y0128287D01*
X0161427Y0127719D01*
X0163408Y0127152D02*
X0163408Y0126585D01*
X0163408Y0127152D02*
X0165677Y0129421D01*
X0165677Y0129988D01*
X0163408Y0129988D01*
X0162725Y0136085D02*
X0164994Y0138354D01*
X0164994Y0138921D01*
X0164427Y0139488D01*
X0163292Y0139488D01*
X0162725Y0138921D01*
X0161311Y0138921D02*
X0160743Y0139488D01*
X0159609Y0139488D01*
X0159042Y0138921D01*
X0159042Y0136652D01*
X0159609Y0136085D01*
X0160743Y0136085D01*
X0161311Y0136652D01*
X0162725Y0136085D02*
X0164994Y0136085D01*
X0166408Y0136652D02*
X0168677Y0138921D01*
X0168677Y0136652D01*
X0168110Y0136085D01*
X0166975Y0136085D01*
X0166408Y0136652D01*
X0166408Y0138921D01*
X0166975Y0139488D01*
X0168110Y0139488D01*
X0168677Y0138921D01*
X0165110Y0146585D02*
X0163975Y0146585D01*
X0163408Y0147152D01*
X0161994Y0147152D02*
X0161427Y0146585D01*
X0160292Y0146585D01*
X0159725Y0147152D01*
X0159725Y0149421D01*
X0160292Y0149988D01*
X0161427Y0149988D01*
X0161994Y0149421D01*
X0161994Y0147152D01*
X0161994Y0146585D02*
X0160859Y0147719D01*
X0163408Y0149421D02*
X0163975Y0149988D01*
X0165110Y0149988D01*
X0165677Y0149421D01*
X0165677Y0148854D01*
X0165110Y0148287D01*
X0165677Y0147719D01*
X0165677Y0147152D01*
X0165110Y0146585D01*
X0165110Y0148287D02*
X0164542Y0148287D01*
X0154476Y0164085D02*
X0153342Y0164085D01*
X0152774Y0164652D01*
X0152774Y0165219D01*
X0153342Y0165787D01*
X0154476Y0165787D01*
X0155043Y0165219D01*
X0155043Y0164652D01*
X0154476Y0164085D01*
X0154476Y0165787D02*
X0155043Y0166354D01*
X0155043Y0166921D01*
X0154476Y0167488D01*
X0153342Y0167488D01*
X0152774Y0166921D01*
X0152774Y0166354D01*
X0153342Y0165787D01*
X0151360Y0165787D02*
X0151360Y0166921D01*
X0150793Y0167488D01*
X0149091Y0167488D01*
X0149091Y0164085D01*
X0149091Y0165219D02*
X0150793Y0165219D01*
X0151360Y0165787D01*
X0150226Y0165219D02*
X0151360Y0164085D01*
X0151158Y0174085D02*
X0150591Y0174652D01*
X0150591Y0176921D01*
X0151158Y0177488D01*
X0152293Y0177488D01*
X0152860Y0176921D01*
X0152860Y0174652D01*
X0152293Y0174085D01*
X0151158Y0174085D01*
X0151726Y0175219D02*
X0152860Y0174085D01*
X0154274Y0174085D02*
X0156543Y0174085D01*
X0155409Y0174085D02*
X0155409Y0177488D01*
X0154274Y0176354D01*
X0141491Y0156671D02*
X0141491Y0154402D01*
X0141491Y0155536D02*
X0138088Y0155536D01*
X0139223Y0154402D01*
X0139223Y0152987D02*
X0138656Y0152987D01*
X0138088Y0152420D01*
X0138088Y0151286D01*
X0138656Y0150719D01*
X0138656Y0149304D02*
X0138088Y0148737D01*
X0138088Y0147603D01*
X0138656Y0147036D01*
X0140924Y0147036D01*
X0141491Y0147603D01*
X0141491Y0148737D01*
X0140924Y0149304D01*
X0141491Y0150719D02*
X0139223Y0152987D01*
X0141491Y0152987D02*
X0141491Y0150719D01*
X0125724Y0162152D02*
X0125157Y0161585D01*
X0124023Y0161585D01*
X0123456Y0162152D01*
X0123456Y0163287D01*
X0125157Y0163287D01*
X0125724Y0162719D01*
X0125724Y0162152D01*
X0124590Y0164421D02*
X0123456Y0163287D01*
X0124590Y0164421D02*
X0125724Y0164988D01*
X0122041Y0164988D02*
X0122041Y0162152D01*
X0121474Y0161585D01*
X0120340Y0161585D01*
X0119772Y0162152D01*
X0119772Y0164988D01*
X0120588Y0172585D02*
X0120588Y0174287D01*
X0121156Y0174854D01*
X0122290Y0174854D01*
X0122857Y0174287D01*
X0122857Y0172585D01*
X0123991Y0172585D02*
X0120588Y0172585D01*
X0122857Y0173719D02*
X0123991Y0174854D01*
X0123424Y0176268D02*
X0123991Y0176835D01*
X0123991Y0177970D01*
X0123424Y0178537D01*
X0122290Y0178537D01*
X0121723Y0177970D01*
X0121723Y0177403D01*
X0122290Y0176268D01*
X0120588Y0176268D01*
X0120588Y0178537D01*
X0109976Y0168488D02*
X0110543Y0167921D01*
X0110543Y0167354D01*
X0108274Y0165085D01*
X0110543Y0165085D01*
X0108274Y0167921D02*
X0108842Y0168488D01*
X0109976Y0168488D01*
X0106860Y0167921D02*
X0106860Y0165652D01*
X0106293Y0165085D01*
X0105158Y0165085D01*
X0104591Y0165652D01*
X0104591Y0167921D01*
X0105158Y0168488D01*
X0106293Y0168488D01*
X0106860Y0167921D01*
X0105726Y0166219D02*
X0106860Y0165085D01*
X0095177Y0165652D02*
X0095177Y0166219D01*
X0094610Y0166787D01*
X0092908Y0166787D01*
X0092908Y0165652D01*
X0093475Y0165085D01*
X0094610Y0165085D01*
X0095177Y0165652D01*
X0094042Y0167921D02*
X0092908Y0166787D01*
X0091494Y0166787D02*
X0090927Y0166219D01*
X0089225Y0166219D01*
X0089225Y0165085D02*
X0089225Y0168488D01*
X0090927Y0168488D01*
X0091494Y0167921D01*
X0091494Y0166787D01*
X0090359Y0166219D02*
X0091494Y0165085D01*
X0094042Y0167921D02*
X0095177Y0168488D01*
X0076177Y0164585D02*
X0073908Y0164585D01*
X0075042Y0164585D02*
X0075042Y0167988D01*
X0073908Y0166854D01*
X0072494Y0167988D02*
X0072494Y0165152D01*
X0071927Y0164585D01*
X0070792Y0164585D01*
X0070225Y0165152D01*
X0070225Y0167988D01*
X0058366Y0178388D02*
X0056097Y0178388D01*
X0057232Y0178388D02*
X0057232Y0181791D01*
X0056097Y0180657D01*
X0054683Y0181224D02*
X0054116Y0181791D01*
X0052981Y0181791D01*
X0052414Y0181224D01*
X0052414Y0178955D01*
X0052981Y0178388D01*
X0054116Y0178388D01*
X0054683Y0178955D01*
X0033275Y0167488D02*
X0033275Y0164085D01*
X0032141Y0164085D02*
X0034409Y0164085D01*
X0032141Y0166354D02*
X0033275Y0167488D01*
X0030726Y0167488D02*
X0030726Y0164085D01*
X0028458Y0167488D01*
X0028458Y0164085D01*
X0027043Y0164652D02*
X0027043Y0166921D01*
X0026476Y0167488D01*
X0025342Y0167488D01*
X0024774Y0166921D01*
X0024774Y0164652D01*
X0025342Y0164085D01*
X0026476Y0164085D01*
X0027043Y0164652D01*
X0023360Y0164652D02*
X0022793Y0164085D01*
X0021658Y0164085D01*
X0021091Y0164652D01*
X0021091Y0166921D01*
X0021658Y0167488D01*
X0022793Y0167488D01*
X0023360Y0166921D01*
X0042536Y0147646D02*
X0044238Y0147646D01*
X0044805Y0147078D01*
X0044805Y0144810D01*
X0044238Y0144243D01*
X0042536Y0144243D01*
X0042536Y0147646D01*
X0046219Y0146511D02*
X0047354Y0147646D01*
X0047354Y0144243D01*
X0048488Y0144243D02*
X0046219Y0144243D01*
X0093088Y0145403D02*
X0096491Y0145403D01*
X0096491Y0146537D02*
X0096491Y0144268D01*
X0096491Y0142854D02*
X0095357Y0141719D01*
X0095357Y0142287D02*
X0095357Y0140585D01*
X0096491Y0140585D02*
X0093088Y0140585D01*
X0093088Y0142287D01*
X0093656Y0142854D01*
X0094790Y0142854D01*
X0095357Y0142287D01*
X0094223Y0144268D02*
X0093088Y0145403D01*
X0116052Y0137582D02*
X0116052Y0137015D01*
X0116619Y0136448D01*
X0117753Y0136448D01*
X0118321Y0135881D01*
X0118321Y0135314D01*
X0117753Y0134747D01*
X0116619Y0134747D01*
X0116052Y0135314D01*
X0116052Y0137582D02*
X0116619Y0138149D01*
X0117753Y0138149D01*
X0118321Y0137582D01*
X0119735Y0137015D02*
X0120869Y0138149D01*
X0120869Y0134747D01*
X0119735Y0134747D02*
X0122004Y0134747D01*
X0119976Y0086488D02*
X0120543Y0085921D01*
X0120543Y0085354D01*
X0119976Y0084787D01*
X0120543Y0084219D01*
X0120543Y0083652D01*
X0119976Y0083085D01*
X0118842Y0083085D01*
X0118274Y0083652D01*
X0116860Y0083652D02*
X0116860Y0086488D01*
X0118274Y0085921D02*
X0118842Y0086488D01*
X0119976Y0086488D01*
X0119976Y0084787D02*
X0119409Y0084787D01*
X0116860Y0083652D02*
X0116293Y0083085D01*
X0115158Y0083085D01*
X0114591Y0083652D01*
X0114591Y0086488D01*
X0125588Y0078103D02*
X0125588Y0076969D01*
X0126156Y0076402D01*
X0126723Y0076402D01*
X0127290Y0076969D01*
X0127290Y0078671D01*
X0128424Y0078671D02*
X0126156Y0078671D01*
X0125588Y0078103D01*
X0128424Y0078671D02*
X0128991Y0078103D01*
X0128991Y0076969D01*
X0128424Y0076402D01*
X0128424Y0074987D02*
X0128991Y0074420D01*
X0128991Y0073286D01*
X0128424Y0072719D01*
X0126156Y0072719D01*
X0125588Y0073286D01*
X0125588Y0074420D01*
X0126156Y0074987D01*
X0039846Y0075194D02*
X0039846Y0072926D01*
X0039846Y0074060D02*
X0036443Y0074060D01*
X0037577Y0072926D01*
X0037577Y0071511D02*
X0038144Y0070944D01*
X0038144Y0069242D01*
X0038144Y0067828D02*
X0038711Y0067261D01*
X0038711Y0065559D01*
X0039846Y0065559D02*
X0036443Y0065559D01*
X0036443Y0067261D01*
X0037010Y0067828D01*
X0038144Y0067828D01*
X0036443Y0069242D02*
X0036443Y0070944D01*
X0037010Y0071511D01*
X0037577Y0071511D01*
X0038144Y0070944D02*
X0038711Y0071511D01*
X0039279Y0071511D01*
X0039846Y0070944D01*
X0039846Y0069242D01*
X0036443Y0069242D01*
D16*
X0062291Y0080665D02*
X0062291Y0080905D01*
X0062291Y0095665D02*
X0062291Y0095905D01*
X0079671Y0105785D02*
X0079911Y0105785D01*
X0087171Y0105785D02*
X0087411Y0105785D01*
X0087411Y0125785D02*
X0087171Y0125785D01*
X0082411Y0125785D02*
X0082171Y0125785D01*
X0077411Y0125785D02*
X0077171Y0125785D01*
X0072411Y0125785D02*
X0072171Y0125785D01*
X0102171Y0075785D02*
X0102411Y0075785D01*
X0102411Y0058285D02*
X0102171Y0058285D01*
X0079791Y0068165D02*
X0079791Y0068405D01*
X0132171Y0075785D02*
X0132411Y0075785D01*
X0139671Y0075785D02*
X0139911Y0075785D01*
X0153791Y0065905D02*
X0153791Y0065665D01*
X0167291Y0065665D02*
X0167291Y0065905D01*
X0167291Y0058405D02*
X0167291Y0058165D01*
X0132411Y0058285D02*
X0132171Y0058285D01*
X0152291Y0105165D02*
X0152291Y0105405D01*
X0152291Y0135665D02*
X0152291Y0135905D01*
X0134911Y0150785D02*
X0134671Y0150785D01*
D17*
X0091614Y0123202D02*
X0091616Y0123241D01*
X0091622Y0123280D01*
X0091632Y0123318D01*
X0091645Y0123355D01*
X0091662Y0123390D01*
X0091682Y0123424D01*
X0091706Y0123455D01*
X0091733Y0123484D01*
X0091762Y0123510D01*
X0091794Y0123533D01*
X0091828Y0123553D01*
X0091864Y0123569D01*
X0091901Y0123581D01*
X0091940Y0123590D01*
X0091979Y0123595D01*
X0092018Y0123596D01*
X0092057Y0123593D01*
X0092096Y0123586D01*
X0092133Y0123575D01*
X0092170Y0123561D01*
X0092205Y0123543D01*
X0092238Y0123522D01*
X0092269Y0123497D01*
X0092297Y0123470D01*
X0092322Y0123440D01*
X0092344Y0123407D01*
X0092363Y0123373D01*
X0092378Y0123337D01*
X0092390Y0123299D01*
X0092398Y0123261D01*
X0092402Y0123222D01*
X0092402Y0123182D01*
X0092398Y0123143D01*
X0092390Y0123105D01*
X0092378Y0123067D01*
X0092363Y0123031D01*
X0092344Y0122997D01*
X0092322Y0122964D01*
X0092297Y0122934D01*
X0092269Y0122907D01*
X0092238Y0122882D01*
X0092205Y0122861D01*
X0092170Y0122843D01*
X0092133Y0122829D01*
X0092096Y0122818D01*
X0092057Y0122811D01*
X0092018Y0122808D01*
X0091979Y0122809D01*
X0091940Y0122814D01*
X0091901Y0122823D01*
X0091864Y0122835D01*
X0091828Y0122851D01*
X0091794Y0122871D01*
X0091762Y0122894D01*
X0091733Y0122920D01*
X0091706Y0122949D01*
X0091682Y0122980D01*
X0091662Y0123014D01*
X0091645Y0123049D01*
X0091632Y0123086D01*
X0091622Y0123124D01*
X0091616Y0123163D01*
X0091614Y0123202D01*
D18*
X0034181Y0080037D02*
X0034181Y0061533D01*
X0033591Y0061533D01*
X0027685Y0061533D02*
X0026898Y0061533D01*
X0020992Y0061533D02*
X0020402Y0061533D01*
X0020402Y0080037D01*
X0020992Y0080037D01*
X0026898Y0080037D02*
X0027685Y0080037D01*
X0033591Y0080037D02*
X0034181Y0080037D01*
D19*
X0047291Y0080785D03*
X0089791Y0143285D03*
X0092291Y0175785D03*
X0127291Y0175785D03*
D20*
X0152291Y0160785D03*
X0152291Y0128285D03*
X0152291Y0097785D03*
X0152291Y0090285D03*
X0153791Y0058285D03*
X0079791Y0060785D03*
X0062291Y0060785D03*
X0052291Y0120785D03*
D21*
X0114024Y0158659D02*
X0114811Y0158659D01*
X0116386Y0160234D01*
X0116386Y0161021D01*
X0114024Y0161021D01*
X0115598Y0159447D01*
X0114811Y0160234D02*
X0114811Y0158659D01*
X0114811Y0141336D01*
X0129772Y0141336D01*
X0129772Y0160234D01*
X0116386Y0160234D01*
X0114811Y0160234D01*
X0114024Y0161021D02*
X0114024Y0158659D01*
M02*
