%
M48
M72
T01C0.01181
T02C0.02953
T03C0.03150
T04C0.12598
%
T01
X39291Y76785
X42291Y84285
X52791Y82285
X56291Y88285
X69791Y84785
X72291Y96285
X55291Y114785
X60291Y124785
X66791Y125785
X66791Y119785
X57291Y132785
X57291Y140785
X50791Y144285
X32791Y153285
X32791Y161285
X41291Y170285
X32791Y128285
X40791Y125285
X67291Y135785
X74291Y135785
X85291Y135785
X72291Y150785
X85291Y162285
X91791Y156785
X103291Y156785
X111791Y151785
X113791Y137785
X102291Y137785
X108291Y121785
X115791Y115285
X119791Y108785
X127291Y112285
X127291Y115785
X126291Y119785
X124791Y123785
X128291Y123785
X120791Y121285
X124791Y135785
X137791Y135785
X148791Y121785
X155291Y123785
X159791Y118285
X158791Y114285
X155791Y110285
X161291Y97785
X161291Y90285
X162291Y82785
X169791Y82785
X167291Y70785
X156291Y70285
X152291Y70285
X142791Y67285
X136791Y67285
X138791Y55785
X138291Y45285
X144291Y44285
X152291Y41785
X157791Y39785
X156291Y49785
X173291Y47785
X147291Y82785
X139791Y88285
X143291Y93785
X129791Y98285
X130291Y105285
X122291Y98285
X110291Y99285
X106291Y104285
X106291Y110785
X91791Y109285
X91791Y117785
X91791Y96285
X96791Y85285
X92291Y82785
X106791Y85285
X117291Y67285
X107291Y56285
X88791Y63785
X85791Y47285
X71791Y64285
X62291Y71785
X51791Y67785
X39291Y59785
X138291Y160785
X143291Y160785
X152311Y168765
X157291Y165285
X165291Y155285
X173791Y169285
X163291Y180285
X163291Y134285
X163291Y123785
X118791Y180285
X111291Y180785
X85291Y172285
T02
X21878Y70785
X32705Y70785
T03
X42291Y45785
X52291Y45785
X62291Y45785
X72291Y45785
X64791Y176785
X74791Y176785
T04
X27291Y45785
X27291Y175785
X192291Y175785
X192291Y45785
M30
