G75*
%MOIN*%
%OFA0B0*%
%FSLAX25Y25*%
%IPPOS*%
%LPD*%
%AMOC8*
5,1,8,0,0,1.08239X$1,22.5*
%
%ADD10C,0.00000*%
%ADD11R,0.06299X0.11811*%
%ADD12R,0.03937X0.04331*%
%ADD13R,0.04331X0.03937*%
%ADD14R,0.05512X0.01575*%
%ADD15R,0.07480X0.07480*%
%ADD16R,0.07480X0.09449*%
%ADD17R,0.05906X0.06299*%
%ADD18C,0.05150*%
%ADD19R,0.03543X0.03150*%
%ADD20R,0.03543X0.04724*%
%ADD21R,0.03307X0.01969*%
%ADD22R,0.01969X0.03307*%
%ADD23R,0.02559X0.04331*%
%ADD24R,0.02559X0.02559*%
%ADD25R,0.04331X0.02559*%
%ADD26R,0.05118X0.10039*%
%ADD27R,0.03937X0.04724*%
%ADD28R,0.05512X0.03937*%
%ADD29R,0.03937X0.05512*%
%ADD30R,0.01181X0.04134*%
%ADD31R,0.04134X0.01181*%
%ADD32R,0.12795X0.12795*%
%ADD33R,0.03937X0.02165*%
%ADD34R,0.04724X0.05906*%
%ADD35C,0.00800*%
%ADD36C,0.02381*%
%ADD37C,0.01000*%
%ADD38C,0.01600*%
%ADD39C,0.02400*%
%ADD40C,0.01200*%
D10*
X0017291Y0035785D02*
X0017291Y0088285D01*
X0039291Y0088285D01*
X0039291Y0113285D01*
X0017291Y0113285D01*
X0017291Y0185785D01*
X0202291Y0185785D01*
X0202291Y0035785D01*
X0017291Y0035785D01*
X0020992Y0045785D02*
X0020994Y0045943D01*
X0021000Y0046101D01*
X0021010Y0046259D01*
X0021024Y0046417D01*
X0021042Y0046574D01*
X0021063Y0046731D01*
X0021089Y0046887D01*
X0021119Y0047043D01*
X0021152Y0047198D01*
X0021190Y0047351D01*
X0021231Y0047504D01*
X0021276Y0047656D01*
X0021325Y0047807D01*
X0021378Y0047956D01*
X0021434Y0048104D01*
X0021494Y0048250D01*
X0021558Y0048395D01*
X0021626Y0048538D01*
X0021697Y0048680D01*
X0021771Y0048820D01*
X0021849Y0048957D01*
X0021931Y0049093D01*
X0022015Y0049227D01*
X0022104Y0049358D01*
X0022195Y0049487D01*
X0022290Y0049614D01*
X0022387Y0049739D01*
X0022488Y0049861D01*
X0022592Y0049980D01*
X0022699Y0050097D01*
X0022809Y0050211D01*
X0022922Y0050322D01*
X0023037Y0050431D01*
X0023155Y0050536D01*
X0023276Y0050638D01*
X0023399Y0050738D01*
X0023525Y0050834D01*
X0023653Y0050927D01*
X0023783Y0051017D01*
X0023916Y0051103D01*
X0024051Y0051187D01*
X0024187Y0051266D01*
X0024326Y0051343D01*
X0024467Y0051415D01*
X0024609Y0051485D01*
X0024753Y0051550D01*
X0024899Y0051612D01*
X0025046Y0051670D01*
X0025195Y0051725D01*
X0025345Y0051776D01*
X0025496Y0051823D01*
X0025648Y0051866D01*
X0025801Y0051905D01*
X0025956Y0051941D01*
X0026111Y0051972D01*
X0026267Y0052000D01*
X0026423Y0052024D01*
X0026580Y0052044D01*
X0026738Y0052060D01*
X0026895Y0052072D01*
X0027054Y0052080D01*
X0027212Y0052084D01*
X0027370Y0052084D01*
X0027528Y0052080D01*
X0027687Y0052072D01*
X0027844Y0052060D01*
X0028002Y0052044D01*
X0028159Y0052024D01*
X0028315Y0052000D01*
X0028471Y0051972D01*
X0028626Y0051941D01*
X0028781Y0051905D01*
X0028934Y0051866D01*
X0029086Y0051823D01*
X0029237Y0051776D01*
X0029387Y0051725D01*
X0029536Y0051670D01*
X0029683Y0051612D01*
X0029829Y0051550D01*
X0029973Y0051485D01*
X0030115Y0051415D01*
X0030256Y0051343D01*
X0030395Y0051266D01*
X0030531Y0051187D01*
X0030666Y0051103D01*
X0030799Y0051017D01*
X0030929Y0050927D01*
X0031057Y0050834D01*
X0031183Y0050738D01*
X0031306Y0050638D01*
X0031427Y0050536D01*
X0031545Y0050431D01*
X0031660Y0050322D01*
X0031773Y0050211D01*
X0031883Y0050097D01*
X0031990Y0049980D01*
X0032094Y0049861D01*
X0032195Y0049739D01*
X0032292Y0049614D01*
X0032387Y0049487D01*
X0032478Y0049358D01*
X0032567Y0049227D01*
X0032651Y0049093D01*
X0032733Y0048957D01*
X0032811Y0048820D01*
X0032885Y0048680D01*
X0032956Y0048538D01*
X0033024Y0048395D01*
X0033088Y0048250D01*
X0033148Y0048104D01*
X0033204Y0047956D01*
X0033257Y0047807D01*
X0033306Y0047656D01*
X0033351Y0047504D01*
X0033392Y0047351D01*
X0033430Y0047198D01*
X0033463Y0047043D01*
X0033493Y0046887D01*
X0033519Y0046731D01*
X0033540Y0046574D01*
X0033558Y0046417D01*
X0033572Y0046259D01*
X0033582Y0046101D01*
X0033588Y0045943D01*
X0033590Y0045785D01*
X0033588Y0045627D01*
X0033582Y0045469D01*
X0033572Y0045311D01*
X0033558Y0045153D01*
X0033540Y0044996D01*
X0033519Y0044839D01*
X0033493Y0044683D01*
X0033463Y0044527D01*
X0033430Y0044372D01*
X0033392Y0044219D01*
X0033351Y0044066D01*
X0033306Y0043914D01*
X0033257Y0043763D01*
X0033204Y0043614D01*
X0033148Y0043466D01*
X0033088Y0043320D01*
X0033024Y0043175D01*
X0032956Y0043032D01*
X0032885Y0042890D01*
X0032811Y0042750D01*
X0032733Y0042613D01*
X0032651Y0042477D01*
X0032567Y0042343D01*
X0032478Y0042212D01*
X0032387Y0042083D01*
X0032292Y0041956D01*
X0032195Y0041831D01*
X0032094Y0041709D01*
X0031990Y0041590D01*
X0031883Y0041473D01*
X0031773Y0041359D01*
X0031660Y0041248D01*
X0031545Y0041139D01*
X0031427Y0041034D01*
X0031306Y0040932D01*
X0031183Y0040832D01*
X0031057Y0040736D01*
X0030929Y0040643D01*
X0030799Y0040553D01*
X0030666Y0040467D01*
X0030531Y0040383D01*
X0030395Y0040304D01*
X0030256Y0040227D01*
X0030115Y0040155D01*
X0029973Y0040085D01*
X0029829Y0040020D01*
X0029683Y0039958D01*
X0029536Y0039900D01*
X0029387Y0039845D01*
X0029237Y0039794D01*
X0029086Y0039747D01*
X0028934Y0039704D01*
X0028781Y0039665D01*
X0028626Y0039629D01*
X0028471Y0039598D01*
X0028315Y0039570D01*
X0028159Y0039546D01*
X0028002Y0039526D01*
X0027844Y0039510D01*
X0027687Y0039498D01*
X0027528Y0039490D01*
X0027370Y0039486D01*
X0027212Y0039486D01*
X0027054Y0039490D01*
X0026895Y0039498D01*
X0026738Y0039510D01*
X0026580Y0039526D01*
X0026423Y0039546D01*
X0026267Y0039570D01*
X0026111Y0039598D01*
X0025956Y0039629D01*
X0025801Y0039665D01*
X0025648Y0039704D01*
X0025496Y0039747D01*
X0025345Y0039794D01*
X0025195Y0039845D01*
X0025046Y0039900D01*
X0024899Y0039958D01*
X0024753Y0040020D01*
X0024609Y0040085D01*
X0024467Y0040155D01*
X0024326Y0040227D01*
X0024187Y0040304D01*
X0024051Y0040383D01*
X0023916Y0040467D01*
X0023783Y0040553D01*
X0023653Y0040643D01*
X0023525Y0040736D01*
X0023399Y0040832D01*
X0023276Y0040932D01*
X0023155Y0041034D01*
X0023037Y0041139D01*
X0022922Y0041248D01*
X0022809Y0041359D01*
X0022699Y0041473D01*
X0022592Y0041590D01*
X0022488Y0041709D01*
X0022387Y0041831D01*
X0022290Y0041956D01*
X0022195Y0042083D01*
X0022104Y0042212D01*
X0022015Y0042343D01*
X0021931Y0042477D01*
X0021849Y0042613D01*
X0021771Y0042750D01*
X0021697Y0042890D01*
X0021626Y0043032D01*
X0021558Y0043175D01*
X0021494Y0043320D01*
X0021434Y0043466D01*
X0021378Y0043614D01*
X0021325Y0043763D01*
X0021276Y0043914D01*
X0021231Y0044066D01*
X0021190Y0044219D01*
X0021152Y0044372D01*
X0021119Y0044527D01*
X0021089Y0044683D01*
X0021063Y0044839D01*
X0021042Y0044996D01*
X0021024Y0045153D01*
X0021010Y0045311D01*
X0021000Y0045469D01*
X0020994Y0045627D01*
X0020992Y0045785D01*
X0020402Y0070785D02*
X0020404Y0070862D01*
X0020410Y0070938D01*
X0020420Y0071014D01*
X0020434Y0071089D01*
X0020451Y0071164D01*
X0020473Y0071237D01*
X0020498Y0071310D01*
X0020528Y0071381D01*
X0020560Y0071450D01*
X0020597Y0071517D01*
X0020636Y0071583D01*
X0020679Y0071646D01*
X0020726Y0071707D01*
X0020775Y0071766D01*
X0020828Y0071822D01*
X0020883Y0071875D01*
X0020941Y0071925D01*
X0021001Y0071972D01*
X0021064Y0072016D01*
X0021129Y0072057D01*
X0021196Y0072094D01*
X0021265Y0072128D01*
X0021335Y0072158D01*
X0021407Y0072184D01*
X0021481Y0072206D01*
X0021555Y0072225D01*
X0021630Y0072240D01*
X0021706Y0072251D01*
X0021782Y0072258D01*
X0021859Y0072261D01*
X0021935Y0072260D01*
X0022012Y0072255D01*
X0022088Y0072246D01*
X0022164Y0072233D01*
X0022238Y0072216D01*
X0022312Y0072196D01*
X0022385Y0072171D01*
X0022456Y0072143D01*
X0022526Y0072111D01*
X0022594Y0072076D01*
X0022660Y0072037D01*
X0022724Y0071995D01*
X0022785Y0071949D01*
X0022845Y0071900D01*
X0022901Y0071849D01*
X0022955Y0071794D01*
X0023006Y0071737D01*
X0023054Y0071677D01*
X0023099Y0071615D01*
X0023140Y0071550D01*
X0023178Y0071484D01*
X0023213Y0071416D01*
X0023243Y0071345D01*
X0023271Y0071274D01*
X0023294Y0071201D01*
X0023314Y0071127D01*
X0023330Y0071052D01*
X0023342Y0070976D01*
X0023350Y0070900D01*
X0023354Y0070823D01*
X0023354Y0070747D01*
X0023350Y0070670D01*
X0023342Y0070594D01*
X0023330Y0070518D01*
X0023314Y0070443D01*
X0023294Y0070369D01*
X0023271Y0070296D01*
X0023243Y0070225D01*
X0023213Y0070154D01*
X0023178Y0070086D01*
X0023140Y0070020D01*
X0023099Y0069955D01*
X0023054Y0069893D01*
X0023006Y0069833D01*
X0022955Y0069776D01*
X0022901Y0069721D01*
X0022845Y0069670D01*
X0022785Y0069621D01*
X0022724Y0069575D01*
X0022660Y0069533D01*
X0022594Y0069494D01*
X0022526Y0069459D01*
X0022456Y0069427D01*
X0022385Y0069399D01*
X0022312Y0069374D01*
X0022238Y0069354D01*
X0022164Y0069337D01*
X0022088Y0069324D01*
X0022012Y0069315D01*
X0021935Y0069310D01*
X0021859Y0069309D01*
X0021782Y0069312D01*
X0021706Y0069319D01*
X0021630Y0069330D01*
X0021555Y0069345D01*
X0021481Y0069364D01*
X0021407Y0069386D01*
X0021335Y0069412D01*
X0021265Y0069442D01*
X0021196Y0069476D01*
X0021129Y0069513D01*
X0021064Y0069554D01*
X0021001Y0069598D01*
X0020941Y0069645D01*
X0020883Y0069695D01*
X0020828Y0069748D01*
X0020775Y0069804D01*
X0020726Y0069863D01*
X0020679Y0069924D01*
X0020636Y0069987D01*
X0020597Y0070053D01*
X0020560Y0070120D01*
X0020528Y0070189D01*
X0020498Y0070260D01*
X0020473Y0070333D01*
X0020451Y0070406D01*
X0020434Y0070481D01*
X0020420Y0070556D01*
X0020410Y0070632D01*
X0020404Y0070708D01*
X0020402Y0070785D01*
X0031229Y0070785D02*
X0031231Y0070862D01*
X0031237Y0070938D01*
X0031247Y0071014D01*
X0031261Y0071089D01*
X0031278Y0071164D01*
X0031300Y0071237D01*
X0031325Y0071310D01*
X0031355Y0071381D01*
X0031387Y0071450D01*
X0031424Y0071517D01*
X0031463Y0071583D01*
X0031506Y0071646D01*
X0031553Y0071707D01*
X0031602Y0071766D01*
X0031655Y0071822D01*
X0031710Y0071875D01*
X0031768Y0071925D01*
X0031828Y0071972D01*
X0031891Y0072016D01*
X0031956Y0072057D01*
X0032023Y0072094D01*
X0032092Y0072128D01*
X0032162Y0072158D01*
X0032234Y0072184D01*
X0032308Y0072206D01*
X0032382Y0072225D01*
X0032457Y0072240D01*
X0032533Y0072251D01*
X0032609Y0072258D01*
X0032686Y0072261D01*
X0032762Y0072260D01*
X0032839Y0072255D01*
X0032915Y0072246D01*
X0032991Y0072233D01*
X0033065Y0072216D01*
X0033139Y0072196D01*
X0033212Y0072171D01*
X0033283Y0072143D01*
X0033353Y0072111D01*
X0033421Y0072076D01*
X0033487Y0072037D01*
X0033551Y0071995D01*
X0033612Y0071949D01*
X0033672Y0071900D01*
X0033728Y0071849D01*
X0033782Y0071794D01*
X0033833Y0071737D01*
X0033881Y0071677D01*
X0033926Y0071615D01*
X0033967Y0071550D01*
X0034005Y0071484D01*
X0034040Y0071416D01*
X0034070Y0071345D01*
X0034098Y0071274D01*
X0034121Y0071201D01*
X0034141Y0071127D01*
X0034157Y0071052D01*
X0034169Y0070976D01*
X0034177Y0070900D01*
X0034181Y0070823D01*
X0034181Y0070747D01*
X0034177Y0070670D01*
X0034169Y0070594D01*
X0034157Y0070518D01*
X0034141Y0070443D01*
X0034121Y0070369D01*
X0034098Y0070296D01*
X0034070Y0070225D01*
X0034040Y0070154D01*
X0034005Y0070086D01*
X0033967Y0070020D01*
X0033926Y0069955D01*
X0033881Y0069893D01*
X0033833Y0069833D01*
X0033782Y0069776D01*
X0033728Y0069721D01*
X0033672Y0069670D01*
X0033612Y0069621D01*
X0033551Y0069575D01*
X0033487Y0069533D01*
X0033421Y0069494D01*
X0033353Y0069459D01*
X0033283Y0069427D01*
X0033212Y0069399D01*
X0033139Y0069374D01*
X0033065Y0069354D01*
X0032991Y0069337D01*
X0032915Y0069324D01*
X0032839Y0069315D01*
X0032762Y0069310D01*
X0032686Y0069309D01*
X0032609Y0069312D01*
X0032533Y0069319D01*
X0032457Y0069330D01*
X0032382Y0069345D01*
X0032308Y0069364D01*
X0032234Y0069386D01*
X0032162Y0069412D01*
X0032092Y0069442D01*
X0032023Y0069476D01*
X0031956Y0069513D01*
X0031891Y0069554D01*
X0031828Y0069598D01*
X0031768Y0069645D01*
X0031710Y0069695D01*
X0031655Y0069748D01*
X0031602Y0069804D01*
X0031553Y0069863D01*
X0031506Y0069924D01*
X0031463Y0069987D01*
X0031424Y0070053D01*
X0031387Y0070120D01*
X0031355Y0070189D01*
X0031325Y0070260D01*
X0031300Y0070333D01*
X0031278Y0070406D01*
X0031261Y0070481D01*
X0031247Y0070556D01*
X0031237Y0070632D01*
X0031231Y0070708D01*
X0031229Y0070785D01*
X0020992Y0175785D02*
X0020994Y0175943D01*
X0021000Y0176101D01*
X0021010Y0176259D01*
X0021024Y0176417D01*
X0021042Y0176574D01*
X0021063Y0176731D01*
X0021089Y0176887D01*
X0021119Y0177043D01*
X0021152Y0177198D01*
X0021190Y0177351D01*
X0021231Y0177504D01*
X0021276Y0177656D01*
X0021325Y0177807D01*
X0021378Y0177956D01*
X0021434Y0178104D01*
X0021494Y0178250D01*
X0021558Y0178395D01*
X0021626Y0178538D01*
X0021697Y0178680D01*
X0021771Y0178820D01*
X0021849Y0178957D01*
X0021931Y0179093D01*
X0022015Y0179227D01*
X0022104Y0179358D01*
X0022195Y0179487D01*
X0022290Y0179614D01*
X0022387Y0179739D01*
X0022488Y0179861D01*
X0022592Y0179980D01*
X0022699Y0180097D01*
X0022809Y0180211D01*
X0022922Y0180322D01*
X0023037Y0180431D01*
X0023155Y0180536D01*
X0023276Y0180638D01*
X0023399Y0180738D01*
X0023525Y0180834D01*
X0023653Y0180927D01*
X0023783Y0181017D01*
X0023916Y0181103D01*
X0024051Y0181187D01*
X0024187Y0181266D01*
X0024326Y0181343D01*
X0024467Y0181415D01*
X0024609Y0181485D01*
X0024753Y0181550D01*
X0024899Y0181612D01*
X0025046Y0181670D01*
X0025195Y0181725D01*
X0025345Y0181776D01*
X0025496Y0181823D01*
X0025648Y0181866D01*
X0025801Y0181905D01*
X0025956Y0181941D01*
X0026111Y0181972D01*
X0026267Y0182000D01*
X0026423Y0182024D01*
X0026580Y0182044D01*
X0026738Y0182060D01*
X0026895Y0182072D01*
X0027054Y0182080D01*
X0027212Y0182084D01*
X0027370Y0182084D01*
X0027528Y0182080D01*
X0027687Y0182072D01*
X0027844Y0182060D01*
X0028002Y0182044D01*
X0028159Y0182024D01*
X0028315Y0182000D01*
X0028471Y0181972D01*
X0028626Y0181941D01*
X0028781Y0181905D01*
X0028934Y0181866D01*
X0029086Y0181823D01*
X0029237Y0181776D01*
X0029387Y0181725D01*
X0029536Y0181670D01*
X0029683Y0181612D01*
X0029829Y0181550D01*
X0029973Y0181485D01*
X0030115Y0181415D01*
X0030256Y0181343D01*
X0030395Y0181266D01*
X0030531Y0181187D01*
X0030666Y0181103D01*
X0030799Y0181017D01*
X0030929Y0180927D01*
X0031057Y0180834D01*
X0031183Y0180738D01*
X0031306Y0180638D01*
X0031427Y0180536D01*
X0031545Y0180431D01*
X0031660Y0180322D01*
X0031773Y0180211D01*
X0031883Y0180097D01*
X0031990Y0179980D01*
X0032094Y0179861D01*
X0032195Y0179739D01*
X0032292Y0179614D01*
X0032387Y0179487D01*
X0032478Y0179358D01*
X0032567Y0179227D01*
X0032651Y0179093D01*
X0032733Y0178957D01*
X0032811Y0178820D01*
X0032885Y0178680D01*
X0032956Y0178538D01*
X0033024Y0178395D01*
X0033088Y0178250D01*
X0033148Y0178104D01*
X0033204Y0177956D01*
X0033257Y0177807D01*
X0033306Y0177656D01*
X0033351Y0177504D01*
X0033392Y0177351D01*
X0033430Y0177198D01*
X0033463Y0177043D01*
X0033493Y0176887D01*
X0033519Y0176731D01*
X0033540Y0176574D01*
X0033558Y0176417D01*
X0033572Y0176259D01*
X0033582Y0176101D01*
X0033588Y0175943D01*
X0033590Y0175785D01*
X0033588Y0175627D01*
X0033582Y0175469D01*
X0033572Y0175311D01*
X0033558Y0175153D01*
X0033540Y0174996D01*
X0033519Y0174839D01*
X0033493Y0174683D01*
X0033463Y0174527D01*
X0033430Y0174372D01*
X0033392Y0174219D01*
X0033351Y0174066D01*
X0033306Y0173914D01*
X0033257Y0173763D01*
X0033204Y0173614D01*
X0033148Y0173466D01*
X0033088Y0173320D01*
X0033024Y0173175D01*
X0032956Y0173032D01*
X0032885Y0172890D01*
X0032811Y0172750D01*
X0032733Y0172613D01*
X0032651Y0172477D01*
X0032567Y0172343D01*
X0032478Y0172212D01*
X0032387Y0172083D01*
X0032292Y0171956D01*
X0032195Y0171831D01*
X0032094Y0171709D01*
X0031990Y0171590D01*
X0031883Y0171473D01*
X0031773Y0171359D01*
X0031660Y0171248D01*
X0031545Y0171139D01*
X0031427Y0171034D01*
X0031306Y0170932D01*
X0031183Y0170832D01*
X0031057Y0170736D01*
X0030929Y0170643D01*
X0030799Y0170553D01*
X0030666Y0170467D01*
X0030531Y0170383D01*
X0030395Y0170304D01*
X0030256Y0170227D01*
X0030115Y0170155D01*
X0029973Y0170085D01*
X0029829Y0170020D01*
X0029683Y0169958D01*
X0029536Y0169900D01*
X0029387Y0169845D01*
X0029237Y0169794D01*
X0029086Y0169747D01*
X0028934Y0169704D01*
X0028781Y0169665D01*
X0028626Y0169629D01*
X0028471Y0169598D01*
X0028315Y0169570D01*
X0028159Y0169546D01*
X0028002Y0169526D01*
X0027844Y0169510D01*
X0027687Y0169498D01*
X0027528Y0169490D01*
X0027370Y0169486D01*
X0027212Y0169486D01*
X0027054Y0169490D01*
X0026895Y0169498D01*
X0026738Y0169510D01*
X0026580Y0169526D01*
X0026423Y0169546D01*
X0026267Y0169570D01*
X0026111Y0169598D01*
X0025956Y0169629D01*
X0025801Y0169665D01*
X0025648Y0169704D01*
X0025496Y0169747D01*
X0025345Y0169794D01*
X0025195Y0169845D01*
X0025046Y0169900D01*
X0024899Y0169958D01*
X0024753Y0170020D01*
X0024609Y0170085D01*
X0024467Y0170155D01*
X0024326Y0170227D01*
X0024187Y0170304D01*
X0024051Y0170383D01*
X0023916Y0170467D01*
X0023783Y0170553D01*
X0023653Y0170643D01*
X0023525Y0170736D01*
X0023399Y0170832D01*
X0023276Y0170932D01*
X0023155Y0171034D01*
X0023037Y0171139D01*
X0022922Y0171248D01*
X0022809Y0171359D01*
X0022699Y0171473D01*
X0022592Y0171590D01*
X0022488Y0171709D01*
X0022387Y0171831D01*
X0022290Y0171956D01*
X0022195Y0172083D01*
X0022104Y0172212D01*
X0022015Y0172343D01*
X0021931Y0172477D01*
X0021849Y0172613D01*
X0021771Y0172750D01*
X0021697Y0172890D01*
X0021626Y0173032D01*
X0021558Y0173175D01*
X0021494Y0173320D01*
X0021434Y0173466D01*
X0021378Y0173614D01*
X0021325Y0173763D01*
X0021276Y0173914D01*
X0021231Y0174066D01*
X0021190Y0174219D01*
X0021152Y0174372D01*
X0021119Y0174527D01*
X0021089Y0174683D01*
X0021063Y0174839D01*
X0021042Y0174996D01*
X0021024Y0175153D01*
X0021010Y0175311D01*
X0021000Y0175469D01*
X0020994Y0175627D01*
X0020992Y0175785D01*
X0185992Y0175785D02*
X0185994Y0175943D01*
X0186000Y0176101D01*
X0186010Y0176259D01*
X0186024Y0176417D01*
X0186042Y0176574D01*
X0186063Y0176731D01*
X0186089Y0176887D01*
X0186119Y0177043D01*
X0186152Y0177198D01*
X0186190Y0177351D01*
X0186231Y0177504D01*
X0186276Y0177656D01*
X0186325Y0177807D01*
X0186378Y0177956D01*
X0186434Y0178104D01*
X0186494Y0178250D01*
X0186558Y0178395D01*
X0186626Y0178538D01*
X0186697Y0178680D01*
X0186771Y0178820D01*
X0186849Y0178957D01*
X0186931Y0179093D01*
X0187015Y0179227D01*
X0187104Y0179358D01*
X0187195Y0179487D01*
X0187290Y0179614D01*
X0187387Y0179739D01*
X0187488Y0179861D01*
X0187592Y0179980D01*
X0187699Y0180097D01*
X0187809Y0180211D01*
X0187922Y0180322D01*
X0188037Y0180431D01*
X0188155Y0180536D01*
X0188276Y0180638D01*
X0188399Y0180738D01*
X0188525Y0180834D01*
X0188653Y0180927D01*
X0188783Y0181017D01*
X0188916Y0181103D01*
X0189051Y0181187D01*
X0189187Y0181266D01*
X0189326Y0181343D01*
X0189467Y0181415D01*
X0189609Y0181485D01*
X0189753Y0181550D01*
X0189899Y0181612D01*
X0190046Y0181670D01*
X0190195Y0181725D01*
X0190345Y0181776D01*
X0190496Y0181823D01*
X0190648Y0181866D01*
X0190801Y0181905D01*
X0190956Y0181941D01*
X0191111Y0181972D01*
X0191267Y0182000D01*
X0191423Y0182024D01*
X0191580Y0182044D01*
X0191738Y0182060D01*
X0191895Y0182072D01*
X0192054Y0182080D01*
X0192212Y0182084D01*
X0192370Y0182084D01*
X0192528Y0182080D01*
X0192687Y0182072D01*
X0192844Y0182060D01*
X0193002Y0182044D01*
X0193159Y0182024D01*
X0193315Y0182000D01*
X0193471Y0181972D01*
X0193626Y0181941D01*
X0193781Y0181905D01*
X0193934Y0181866D01*
X0194086Y0181823D01*
X0194237Y0181776D01*
X0194387Y0181725D01*
X0194536Y0181670D01*
X0194683Y0181612D01*
X0194829Y0181550D01*
X0194973Y0181485D01*
X0195115Y0181415D01*
X0195256Y0181343D01*
X0195395Y0181266D01*
X0195531Y0181187D01*
X0195666Y0181103D01*
X0195799Y0181017D01*
X0195929Y0180927D01*
X0196057Y0180834D01*
X0196183Y0180738D01*
X0196306Y0180638D01*
X0196427Y0180536D01*
X0196545Y0180431D01*
X0196660Y0180322D01*
X0196773Y0180211D01*
X0196883Y0180097D01*
X0196990Y0179980D01*
X0197094Y0179861D01*
X0197195Y0179739D01*
X0197292Y0179614D01*
X0197387Y0179487D01*
X0197478Y0179358D01*
X0197567Y0179227D01*
X0197651Y0179093D01*
X0197733Y0178957D01*
X0197811Y0178820D01*
X0197885Y0178680D01*
X0197956Y0178538D01*
X0198024Y0178395D01*
X0198088Y0178250D01*
X0198148Y0178104D01*
X0198204Y0177956D01*
X0198257Y0177807D01*
X0198306Y0177656D01*
X0198351Y0177504D01*
X0198392Y0177351D01*
X0198430Y0177198D01*
X0198463Y0177043D01*
X0198493Y0176887D01*
X0198519Y0176731D01*
X0198540Y0176574D01*
X0198558Y0176417D01*
X0198572Y0176259D01*
X0198582Y0176101D01*
X0198588Y0175943D01*
X0198590Y0175785D01*
X0198588Y0175627D01*
X0198582Y0175469D01*
X0198572Y0175311D01*
X0198558Y0175153D01*
X0198540Y0174996D01*
X0198519Y0174839D01*
X0198493Y0174683D01*
X0198463Y0174527D01*
X0198430Y0174372D01*
X0198392Y0174219D01*
X0198351Y0174066D01*
X0198306Y0173914D01*
X0198257Y0173763D01*
X0198204Y0173614D01*
X0198148Y0173466D01*
X0198088Y0173320D01*
X0198024Y0173175D01*
X0197956Y0173032D01*
X0197885Y0172890D01*
X0197811Y0172750D01*
X0197733Y0172613D01*
X0197651Y0172477D01*
X0197567Y0172343D01*
X0197478Y0172212D01*
X0197387Y0172083D01*
X0197292Y0171956D01*
X0197195Y0171831D01*
X0197094Y0171709D01*
X0196990Y0171590D01*
X0196883Y0171473D01*
X0196773Y0171359D01*
X0196660Y0171248D01*
X0196545Y0171139D01*
X0196427Y0171034D01*
X0196306Y0170932D01*
X0196183Y0170832D01*
X0196057Y0170736D01*
X0195929Y0170643D01*
X0195799Y0170553D01*
X0195666Y0170467D01*
X0195531Y0170383D01*
X0195395Y0170304D01*
X0195256Y0170227D01*
X0195115Y0170155D01*
X0194973Y0170085D01*
X0194829Y0170020D01*
X0194683Y0169958D01*
X0194536Y0169900D01*
X0194387Y0169845D01*
X0194237Y0169794D01*
X0194086Y0169747D01*
X0193934Y0169704D01*
X0193781Y0169665D01*
X0193626Y0169629D01*
X0193471Y0169598D01*
X0193315Y0169570D01*
X0193159Y0169546D01*
X0193002Y0169526D01*
X0192844Y0169510D01*
X0192687Y0169498D01*
X0192528Y0169490D01*
X0192370Y0169486D01*
X0192212Y0169486D01*
X0192054Y0169490D01*
X0191895Y0169498D01*
X0191738Y0169510D01*
X0191580Y0169526D01*
X0191423Y0169546D01*
X0191267Y0169570D01*
X0191111Y0169598D01*
X0190956Y0169629D01*
X0190801Y0169665D01*
X0190648Y0169704D01*
X0190496Y0169747D01*
X0190345Y0169794D01*
X0190195Y0169845D01*
X0190046Y0169900D01*
X0189899Y0169958D01*
X0189753Y0170020D01*
X0189609Y0170085D01*
X0189467Y0170155D01*
X0189326Y0170227D01*
X0189187Y0170304D01*
X0189051Y0170383D01*
X0188916Y0170467D01*
X0188783Y0170553D01*
X0188653Y0170643D01*
X0188525Y0170736D01*
X0188399Y0170832D01*
X0188276Y0170932D01*
X0188155Y0171034D01*
X0188037Y0171139D01*
X0187922Y0171248D01*
X0187809Y0171359D01*
X0187699Y0171473D01*
X0187592Y0171590D01*
X0187488Y0171709D01*
X0187387Y0171831D01*
X0187290Y0171956D01*
X0187195Y0172083D01*
X0187104Y0172212D01*
X0187015Y0172343D01*
X0186931Y0172477D01*
X0186849Y0172613D01*
X0186771Y0172750D01*
X0186697Y0172890D01*
X0186626Y0173032D01*
X0186558Y0173175D01*
X0186494Y0173320D01*
X0186434Y0173466D01*
X0186378Y0173614D01*
X0186325Y0173763D01*
X0186276Y0173914D01*
X0186231Y0174066D01*
X0186190Y0174219D01*
X0186152Y0174372D01*
X0186119Y0174527D01*
X0186089Y0174683D01*
X0186063Y0174839D01*
X0186042Y0174996D01*
X0186024Y0175153D01*
X0186010Y0175311D01*
X0186000Y0175469D01*
X0185994Y0175627D01*
X0185992Y0175785D01*
X0185992Y0045785D02*
X0185994Y0045943D01*
X0186000Y0046101D01*
X0186010Y0046259D01*
X0186024Y0046417D01*
X0186042Y0046574D01*
X0186063Y0046731D01*
X0186089Y0046887D01*
X0186119Y0047043D01*
X0186152Y0047198D01*
X0186190Y0047351D01*
X0186231Y0047504D01*
X0186276Y0047656D01*
X0186325Y0047807D01*
X0186378Y0047956D01*
X0186434Y0048104D01*
X0186494Y0048250D01*
X0186558Y0048395D01*
X0186626Y0048538D01*
X0186697Y0048680D01*
X0186771Y0048820D01*
X0186849Y0048957D01*
X0186931Y0049093D01*
X0187015Y0049227D01*
X0187104Y0049358D01*
X0187195Y0049487D01*
X0187290Y0049614D01*
X0187387Y0049739D01*
X0187488Y0049861D01*
X0187592Y0049980D01*
X0187699Y0050097D01*
X0187809Y0050211D01*
X0187922Y0050322D01*
X0188037Y0050431D01*
X0188155Y0050536D01*
X0188276Y0050638D01*
X0188399Y0050738D01*
X0188525Y0050834D01*
X0188653Y0050927D01*
X0188783Y0051017D01*
X0188916Y0051103D01*
X0189051Y0051187D01*
X0189187Y0051266D01*
X0189326Y0051343D01*
X0189467Y0051415D01*
X0189609Y0051485D01*
X0189753Y0051550D01*
X0189899Y0051612D01*
X0190046Y0051670D01*
X0190195Y0051725D01*
X0190345Y0051776D01*
X0190496Y0051823D01*
X0190648Y0051866D01*
X0190801Y0051905D01*
X0190956Y0051941D01*
X0191111Y0051972D01*
X0191267Y0052000D01*
X0191423Y0052024D01*
X0191580Y0052044D01*
X0191738Y0052060D01*
X0191895Y0052072D01*
X0192054Y0052080D01*
X0192212Y0052084D01*
X0192370Y0052084D01*
X0192528Y0052080D01*
X0192687Y0052072D01*
X0192844Y0052060D01*
X0193002Y0052044D01*
X0193159Y0052024D01*
X0193315Y0052000D01*
X0193471Y0051972D01*
X0193626Y0051941D01*
X0193781Y0051905D01*
X0193934Y0051866D01*
X0194086Y0051823D01*
X0194237Y0051776D01*
X0194387Y0051725D01*
X0194536Y0051670D01*
X0194683Y0051612D01*
X0194829Y0051550D01*
X0194973Y0051485D01*
X0195115Y0051415D01*
X0195256Y0051343D01*
X0195395Y0051266D01*
X0195531Y0051187D01*
X0195666Y0051103D01*
X0195799Y0051017D01*
X0195929Y0050927D01*
X0196057Y0050834D01*
X0196183Y0050738D01*
X0196306Y0050638D01*
X0196427Y0050536D01*
X0196545Y0050431D01*
X0196660Y0050322D01*
X0196773Y0050211D01*
X0196883Y0050097D01*
X0196990Y0049980D01*
X0197094Y0049861D01*
X0197195Y0049739D01*
X0197292Y0049614D01*
X0197387Y0049487D01*
X0197478Y0049358D01*
X0197567Y0049227D01*
X0197651Y0049093D01*
X0197733Y0048957D01*
X0197811Y0048820D01*
X0197885Y0048680D01*
X0197956Y0048538D01*
X0198024Y0048395D01*
X0198088Y0048250D01*
X0198148Y0048104D01*
X0198204Y0047956D01*
X0198257Y0047807D01*
X0198306Y0047656D01*
X0198351Y0047504D01*
X0198392Y0047351D01*
X0198430Y0047198D01*
X0198463Y0047043D01*
X0198493Y0046887D01*
X0198519Y0046731D01*
X0198540Y0046574D01*
X0198558Y0046417D01*
X0198572Y0046259D01*
X0198582Y0046101D01*
X0198588Y0045943D01*
X0198590Y0045785D01*
X0198588Y0045627D01*
X0198582Y0045469D01*
X0198572Y0045311D01*
X0198558Y0045153D01*
X0198540Y0044996D01*
X0198519Y0044839D01*
X0198493Y0044683D01*
X0198463Y0044527D01*
X0198430Y0044372D01*
X0198392Y0044219D01*
X0198351Y0044066D01*
X0198306Y0043914D01*
X0198257Y0043763D01*
X0198204Y0043614D01*
X0198148Y0043466D01*
X0198088Y0043320D01*
X0198024Y0043175D01*
X0197956Y0043032D01*
X0197885Y0042890D01*
X0197811Y0042750D01*
X0197733Y0042613D01*
X0197651Y0042477D01*
X0197567Y0042343D01*
X0197478Y0042212D01*
X0197387Y0042083D01*
X0197292Y0041956D01*
X0197195Y0041831D01*
X0197094Y0041709D01*
X0196990Y0041590D01*
X0196883Y0041473D01*
X0196773Y0041359D01*
X0196660Y0041248D01*
X0196545Y0041139D01*
X0196427Y0041034D01*
X0196306Y0040932D01*
X0196183Y0040832D01*
X0196057Y0040736D01*
X0195929Y0040643D01*
X0195799Y0040553D01*
X0195666Y0040467D01*
X0195531Y0040383D01*
X0195395Y0040304D01*
X0195256Y0040227D01*
X0195115Y0040155D01*
X0194973Y0040085D01*
X0194829Y0040020D01*
X0194683Y0039958D01*
X0194536Y0039900D01*
X0194387Y0039845D01*
X0194237Y0039794D01*
X0194086Y0039747D01*
X0193934Y0039704D01*
X0193781Y0039665D01*
X0193626Y0039629D01*
X0193471Y0039598D01*
X0193315Y0039570D01*
X0193159Y0039546D01*
X0193002Y0039526D01*
X0192844Y0039510D01*
X0192687Y0039498D01*
X0192528Y0039490D01*
X0192370Y0039486D01*
X0192212Y0039486D01*
X0192054Y0039490D01*
X0191895Y0039498D01*
X0191738Y0039510D01*
X0191580Y0039526D01*
X0191423Y0039546D01*
X0191267Y0039570D01*
X0191111Y0039598D01*
X0190956Y0039629D01*
X0190801Y0039665D01*
X0190648Y0039704D01*
X0190496Y0039747D01*
X0190345Y0039794D01*
X0190195Y0039845D01*
X0190046Y0039900D01*
X0189899Y0039958D01*
X0189753Y0040020D01*
X0189609Y0040085D01*
X0189467Y0040155D01*
X0189326Y0040227D01*
X0189187Y0040304D01*
X0189051Y0040383D01*
X0188916Y0040467D01*
X0188783Y0040553D01*
X0188653Y0040643D01*
X0188525Y0040736D01*
X0188399Y0040832D01*
X0188276Y0040932D01*
X0188155Y0041034D01*
X0188037Y0041139D01*
X0187922Y0041248D01*
X0187809Y0041359D01*
X0187699Y0041473D01*
X0187592Y0041590D01*
X0187488Y0041709D01*
X0187387Y0041831D01*
X0187290Y0041956D01*
X0187195Y0042083D01*
X0187104Y0042212D01*
X0187015Y0042343D01*
X0186931Y0042477D01*
X0186849Y0042613D01*
X0186771Y0042750D01*
X0186697Y0042890D01*
X0186626Y0043032D01*
X0186558Y0043175D01*
X0186494Y0043320D01*
X0186434Y0043466D01*
X0186378Y0043614D01*
X0186325Y0043763D01*
X0186276Y0043914D01*
X0186231Y0044066D01*
X0186190Y0044219D01*
X0186152Y0044372D01*
X0186119Y0044527D01*
X0186089Y0044683D01*
X0186063Y0044839D01*
X0186042Y0044996D01*
X0186024Y0045153D01*
X0186010Y0045311D01*
X0186000Y0045469D01*
X0185994Y0045627D01*
X0185992Y0045785D01*
D11*
X0047291Y0157124D03*
X0047291Y0174447D03*
D12*
X0089791Y0146632D03*
X0089791Y0139939D03*
X0087291Y0129132D03*
X0082291Y0129132D03*
X0077291Y0129132D03*
X0072291Y0129132D03*
X0072291Y0122439D03*
X0077291Y0122439D03*
X0082291Y0122439D03*
X0087291Y0122439D03*
X0087291Y0109132D03*
X0087291Y0102439D03*
X0079791Y0102439D03*
X0079791Y0109132D03*
X0102291Y0079132D03*
X0102291Y0072439D03*
X0102291Y0061632D03*
X0102291Y0054939D03*
X0132291Y0054939D03*
X0132291Y0061632D03*
X0132291Y0072439D03*
X0132291Y0079132D03*
X0139791Y0079132D03*
X0139791Y0072439D03*
X0134791Y0147439D03*
X0134791Y0154132D03*
X0127291Y0172439D03*
X0127291Y0179132D03*
X0092291Y0179132D03*
X0092291Y0172439D03*
X0047291Y0084132D03*
X0047291Y0077439D03*
D13*
X0058945Y0080785D03*
X0065638Y0080785D03*
X0076445Y0068285D03*
X0083138Y0068285D03*
X0083138Y0060785D03*
X0076445Y0060785D03*
X0065638Y0060785D03*
X0058945Y0060785D03*
X0058945Y0095785D03*
X0065638Y0095785D03*
X0055638Y0120785D03*
X0048945Y0120785D03*
X0148945Y0128285D03*
X0155638Y0128285D03*
X0155638Y0135785D03*
X0148945Y0135785D03*
X0148945Y0160785D03*
X0155638Y0160785D03*
X0155638Y0105285D03*
X0148945Y0105285D03*
X0148945Y0097785D03*
X0155638Y0097785D03*
X0155638Y0090285D03*
X0148945Y0090285D03*
X0150445Y0065785D03*
X0150445Y0058285D03*
X0157138Y0058285D03*
X0163945Y0058285D03*
X0170638Y0058285D03*
X0170638Y0065785D03*
X0163945Y0065785D03*
X0157138Y0065785D03*
D14*
X0033118Y0135667D03*
X0033118Y0138226D03*
X0033118Y0140785D03*
X0033118Y0143344D03*
X0033118Y0145903D03*
D15*
X0022291Y0145510D03*
X0022291Y0136061D03*
D16*
X0022291Y0124643D03*
X0022291Y0156927D03*
D17*
X0032921Y0153384D03*
X0032921Y0128187D03*
D18*
X0047291Y0110785D03*
X0047291Y0100785D03*
X0047291Y0090785D03*
X0042291Y0045785D03*
X0052291Y0045785D03*
X0062291Y0045785D03*
X0072291Y0045785D03*
X0074791Y0176785D03*
X0064791Y0176785D03*
D19*
X0051228Y0139722D03*
X0043354Y0139722D03*
X0043354Y0131848D03*
D20*
X0051228Y0132636D03*
D21*
X0100323Y0123187D03*
X0100323Y0119643D03*
X0100323Y0116100D03*
X0100323Y0112557D03*
X0100323Y0109013D03*
X0100323Y0105470D03*
X0100323Y0101927D03*
X0100323Y0098384D03*
X0134260Y0098384D03*
X0134260Y0101927D03*
X0134260Y0105470D03*
X0134260Y0109013D03*
X0134260Y0112557D03*
X0134260Y0116100D03*
X0134260Y0119643D03*
X0134260Y0123187D03*
D22*
X0129693Y0127754D03*
X0126150Y0127754D03*
X0122606Y0127754D03*
X0119063Y0127754D03*
X0115520Y0127754D03*
X0111976Y0127754D03*
X0108433Y0127754D03*
X0104890Y0127754D03*
X0104890Y0093817D03*
X0108433Y0093817D03*
X0111976Y0093817D03*
X0115520Y0093817D03*
X0119063Y0093817D03*
X0122606Y0093817D03*
X0126150Y0093817D03*
X0129693Y0093817D03*
D23*
X0138177Y0095726D03*
X0138177Y0125844D03*
X0096406Y0125844D03*
X0096406Y0095726D03*
D24*
X0096406Y0100155D03*
X0096406Y0103699D03*
X0096406Y0107242D03*
X0096406Y0110785D03*
X0096406Y0114328D03*
X0096406Y0117872D03*
X0096406Y0121415D03*
X0106661Y0131671D03*
X0110205Y0131671D03*
X0113748Y0131671D03*
X0117291Y0131671D03*
X0120835Y0131671D03*
X0124378Y0131671D03*
X0127921Y0131671D03*
X0138177Y0121415D03*
X0138177Y0117872D03*
X0138177Y0114328D03*
X0138177Y0110785D03*
X0138177Y0107242D03*
X0138177Y0103699D03*
X0138177Y0100155D03*
X0127921Y0089899D03*
X0124378Y0089899D03*
X0120835Y0089899D03*
X0117291Y0089899D03*
X0113748Y0089899D03*
X0110205Y0089899D03*
X0106661Y0089899D03*
D25*
X0102232Y0089899D03*
X0132350Y0089899D03*
X0132350Y0131671D03*
X0102232Y0131671D03*
D26*
X0084713Y0078285D03*
X0074870Y0078285D03*
D27*
X0030638Y0081809D03*
X0023945Y0081809D03*
X0023945Y0059762D03*
X0030638Y0059762D03*
D28*
X0102961Y0172045D03*
X0102961Y0179525D03*
X0111622Y0175785D03*
X0137961Y0172045D03*
X0137961Y0179525D03*
X0146622Y0175785D03*
D29*
X0148551Y0152616D03*
X0156031Y0152616D03*
X0152291Y0143954D03*
D30*
X0078197Y0141139D03*
X0076228Y0141139D03*
X0074260Y0141139D03*
X0072291Y0141139D03*
X0070323Y0141139D03*
X0068354Y0141139D03*
X0066386Y0141139D03*
X0066386Y0160431D03*
X0068354Y0160431D03*
X0070323Y0160431D03*
X0072291Y0160431D03*
X0074260Y0160431D03*
X0076228Y0160431D03*
X0078197Y0160431D03*
D31*
X0081937Y0156691D03*
X0081937Y0154722D03*
X0081937Y0152754D03*
X0081937Y0150785D03*
X0081937Y0148817D03*
X0081937Y0146848D03*
X0081937Y0144880D03*
X0062646Y0144880D03*
X0062646Y0146848D03*
X0062646Y0148817D03*
X0062646Y0150785D03*
X0062646Y0152754D03*
X0062646Y0154722D03*
X0062646Y0156691D03*
D32*
X0072291Y0150785D03*
D33*
X0069909Y0109525D03*
X0069909Y0102045D03*
X0059673Y0102045D03*
X0059673Y0105785D03*
X0059673Y0109525D03*
X0057173Y0074525D03*
X0057173Y0067045D03*
X0067409Y0067045D03*
X0067409Y0070785D03*
X0067409Y0074525D03*
X0112173Y0075785D03*
X0112173Y0079525D03*
X0112173Y0072045D03*
X0112173Y0062025D03*
X0112173Y0058285D03*
X0112173Y0054545D03*
X0122409Y0054545D03*
X0122409Y0062025D03*
X0122409Y0072045D03*
X0122409Y0079525D03*
D34*
X0125638Y0146061D03*
X0118945Y0146061D03*
X0118945Y0155510D03*
X0125638Y0155510D03*
D35*
X0125638Y0146061D02*
X0125638Y0136632D01*
X0124791Y0135785D01*
X0120835Y0131671D02*
X0122606Y0129899D01*
X0122606Y0127754D01*
X0125791Y0127395D02*
X0125791Y0124785D01*
X0124791Y0123785D01*
X0128291Y0123785D02*
X0133291Y0123785D01*
X0133890Y0123187D01*
X0134260Y0123187D01*
X0134260Y0116100D02*
X0133945Y0115785D01*
X0127291Y0115785D01*
X0127291Y0112285D02*
X0133988Y0112285D01*
X0134260Y0112557D01*
X0134260Y0109013D02*
X0136406Y0109013D01*
X0138177Y0110785D01*
X0138177Y0103699D02*
X0136406Y0101927D01*
X0134260Y0101927D01*
X0122291Y0098285D02*
X0122291Y0094002D01*
X0122606Y0093817D01*
X0119063Y0093817D02*
X0119063Y0102513D01*
X0115791Y0105785D01*
X0115791Y0115285D01*
X0112291Y0118785D02*
X0114791Y0121285D01*
X0120791Y0121285D01*
X0125791Y0127395D02*
X0126150Y0127754D01*
X0112291Y0118785D02*
X0112291Y0104785D01*
X0115520Y0101557D01*
X0115520Y0093817D01*
X0111976Y0093817D01*
X0110291Y0099285D02*
X0110291Y0112785D01*
X0103433Y0119643D01*
X0100323Y0119643D01*
X0091291Y0126785D02*
X0090291Y0125785D01*
X0079291Y0125785D01*
X0077291Y0127785D01*
X0077291Y0129132D01*
X0074291Y0135785D02*
X0074260Y0136317D01*
X0074260Y0141139D01*
X0072291Y0141139D02*
X0072291Y0137785D01*
X0071791Y0137285D01*
X0071791Y0134285D01*
X0070291Y0132785D01*
X0064291Y0132785D01*
X0059791Y0128285D01*
X0044791Y0128285D01*
X0043354Y0129722D01*
X0043354Y0131848D01*
X0039791Y0135411D01*
X0039791Y0138285D01*
X0037291Y0140785D01*
X0033118Y0140785D01*
X0033118Y0143344D02*
X0039732Y0143344D01*
X0043354Y0139722D01*
X0046291Y0136785D01*
X0062791Y0136785D01*
X0063791Y0135785D01*
X0067291Y0135785D01*
X0066791Y0125785D02*
X0061791Y0120785D01*
X0055638Y0120785D01*
X0052791Y0138785D02*
X0049791Y0138785D01*
X0049791Y0141785D01*
X0045791Y0145785D01*
X0031291Y0145785D01*
X0031291Y0147785D01*
X0036291Y0147785D01*
X0041291Y0152785D01*
X0041291Y0162785D01*
X0052791Y0162785D01*
X0052791Y0138785D01*
X0052791Y0138793D02*
X0049791Y0138793D01*
X0049791Y0139592D02*
X0052791Y0139592D01*
X0052791Y0140390D02*
X0049791Y0140390D01*
X0049791Y0141189D02*
X0052791Y0141189D01*
X0052791Y0141987D02*
X0049589Y0141987D01*
X0048791Y0142786D02*
X0052791Y0142786D01*
X0052791Y0143584D02*
X0047992Y0143584D01*
X0047194Y0144383D02*
X0052791Y0144383D01*
X0052791Y0145181D02*
X0046395Y0145181D01*
X0052791Y0145980D02*
X0031291Y0145980D01*
X0031291Y0146778D02*
X0052791Y0146778D01*
X0052791Y0147577D02*
X0031291Y0147577D01*
X0036881Y0148375D02*
X0052791Y0148375D01*
X0052791Y0149174D02*
X0037680Y0149174D01*
X0038478Y0149972D02*
X0052791Y0149972D01*
X0052791Y0150771D02*
X0039277Y0150771D01*
X0040075Y0151569D02*
X0052791Y0151569D01*
X0052791Y0152368D02*
X0040874Y0152368D01*
X0041291Y0153166D02*
X0052791Y0153166D01*
X0052791Y0153965D02*
X0041291Y0153965D01*
X0041291Y0154763D02*
X0052791Y0154763D01*
X0052791Y0155562D02*
X0041291Y0155562D01*
X0041291Y0156360D02*
X0052791Y0156360D01*
X0052791Y0157159D02*
X0041291Y0157159D01*
X0041291Y0157957D02*
X0052791Y0157957D01*
X0052791Y0158756D02*
X0041291Y0158756D01*
X0041291Y0159554D02*
X0052791Y0159554D01*
X0052791Y0160353D02*
X0041291Y0160353D01*
X0041291Y0161151D02*
X0052791Y0161151D01*
X0052791Y0161950D02*
X0041291Y0161950D01*
X0041291Y0162748D02*
X0052791Y0162748D01*
X0054791Y0161785D02*
X0063291Y0170285D01*
X0083291Y0170285D01*
X0084791Y0168785D01*
X0099701Y0168785D01*
X0102961Y0172045D01*
X0103531Y0172045D01*
X0106291Y0169285D01*
X0124138Y0169285D01*
X0127291Y0172439D01*
X0126898Y0172045D01*
X0124291Y0175785D02*
X0120291Y0171785D01*
X0107791Y0171785D01*
X0107291Y0172285D01*
X0107291Y0175285D01*
X0106791Y0175785D01*
X0095638Y0175785D01*
X0092291Y0172439D01*
X0092138Y0172285D01*
X0085291Y0172285D01*
X0082791Y0168285D02*
X0064291Y0168285D01*
X0056291Y0160285D01*
X0056291Y0149785D01*
X0057291Y0148785D01*
X0062614Y0148785D01*
X0062646Y0148817D01*
X0062646Y0150785D02*
X0058791Y0150785D01*
X0057791Y0151785D01*
X0057791Y0159285D01*
X0064291Y0165785D01*
X0084291Y0165785D01*
X0084791Y0165285D01*
X0157291Y0165285D01*
X0155638Y0160785D02*
X0156031Y0160391D01*
X0156031Y0152616D01*
X0152291Y0143954D02*
X0152291Y0139132D01*
X0155638Y0135785D01*
X0155638Y0128285D01*
X0155291Y0127939D01*
X0155291Y0123785D01*
X0159791Y0118285D02*
X0165291Y0112785D01*
X0165291Y0094285D01*
X0161291Y0090285D01*
X0155638Y0090285D01*
X0155291Y0089939D01*
X0155291Y0082785D01*
X0156291Y0081785D01*
X0156291Y0070285D01*
X0152291Y0070285D02*
X0152291Y0094439D01*
X0155638Y0097785D01*
X0161291Y0097785D01*
X0161291Y0111785D01*
X0158791Y0114285D01*
X0116291Y0078285D02*
X0116291Y0073285D01*
X0115051Y0072045D01*
X0112173Y0072045D01*
X0116291Y0078285D02*
X0115051Y0079525D01*
X0112173Y0079525D01*
X0112173Y0062025D02*
X0115051Y0062025D01*
X0116291Y0060785D01*
X0116291Y0055785D01*
X0115051Y0054545D01*
X0112173Y0054545D01*
X0088791Y0059785D02*
X0085791Y0056785D01*
X0056791Y0056785D01*
X0047291Y0066285D01*
X0047291Y0077439D01*
X0057173Y0074525D02*
X0057173Y0071903D01*
X0062031Y0067045D01*
X0067409Y0067045D01*
X0088791Y0063785D02*
X0088791Y0059785D01*
X0080291Y0045785D02*
X0072291Y0045785D01*
X0080291Y0045785D02*
X0085791Y0040285D01*
X0145791Y0040285D01*
X0156291Y0049785D01*
X0152291Y0041785D02*
X0148291Y0037785D01*
X0066291Y0037785D01*
X0062291Y0041785D01*
X0062291Y0045785D01*
X0096406Y0103699D02*
X0098177Y0105470D01*
X0100323Y0105470D01*
X0091291Y0126785D02*
X0091291Y0133785D01*
X0089791Y0135285D01*
X0089791Y0139939D01*
X0089791Y0146632D02*
X0089575Y0146848D01*
X0081937Y0146848D01*
X0085291Y0162285D02*
X0083791Y0163785D01*
X0064791Y0163785D01*
X0059291Y0158285D01*
X0059291Y0153285D01*
X0059823Y0152754D01*
X0062646Y0152754D01*
X0062646Y0144880D02*
X0055697Y0144880D01*
X0054791Y0145785D01*
X0054791Y0161785D01*
X0082791Y0168285D02*
X0083791Y0167285D01*
X0141291Y0167285D01*
X0142772Y0168765D01*
X0152311Y0168765D01*
X0148945Y0160785D02*
X0143291Y0160785D01*
X0137961Y0172045D02*
X0135031Y0172045D01*
X0131291Y0175785D01*
X0124291Y0175785D01*
X0127291Y0179132D02*
X0137567Y0179132D01*
X0137961Y0179525D01*
X0111291Y0180785D02*
X0111291Y0176116D01*
X0102961Y0179525D02*
X0102567Y0179132D01*
X0092291Y0179132D01*
D36*
X0085291Y0172285D03*
X0085291Y0162285D03*
X0091791Y0156785D03*
X0103291Y0156785D03*
X0111791Y0151785D03*
X0113791Y0137785D03*
X0102291Y0137785D03*
X0108291Y0121785D03*
X0115791Y0115285D03*
X0119791Y0108785D03*
X0127291Y0112285D03*
X0127291Y0115785D03*
X0126291Y0119785D03*
X0124791Y0123785D03*
X0128291Y0123785D03*
X0120791Y0121285D03*
X0124791Y0135785D03*
X0137791Y0135785D03*
X0148791Y0121785D03*
X0155291Y0123785D03*
X0159791Y0118285D03*
X0158791Y0114285D03*
X0155791Y0110285D03*
X0161291Y0097785D03*
X0161291Y0090285D03*
X0162291Y0082785D03*
X0169791Y0082785D03*
X0167291Y0070785D03*
X0156291Y0070285D03*
X0152291Y0070285D03*
X0142791Y0067285D03*
X0136791Y0067285D03*
X0138791Y0055785D03*
X0138291Y0045285D03*
X0144291Y0044285D03*
X0152291Y0041785D03*
X0157791Y0039785D03*
X0156291Y0049785D03*
X0173291Y0047785D03*
X0147291Y0082785D03*
X0139791Y0088285D03*
X0143291Y0093785D03*
X0129791Y0098285D03*
X0130291Y0105285D03*
X0122291Y0098285D03*
X0110291Y0099285D03*
X0106291Y0104285D03*
X0106291Y0110785D03*
X0091791Y0109285D03*
X0091791Y0117785D03*
X0085291Y0135785D03*
X0074291Y0135785D03*
X0067291Y0135785D03*
X0066791Y0125785D03*
X0066791Y0119785D03*
X0060291Y0124785D03*
X0057291Y0132785D03*
X0057291Y0140785D03*
X0050791Y0144285D03*
X0032791Y0153285D03*
X0032791Y0161285D03*
X0041291Y0170285D03*
X0072291Y0150785D03*
X0040791Y0125285D03*
X0032791Y0128285D03*
X0030291Y0120785D03*
X0056291Y0088285D03*
X0052791Y0082285D03*
X0041291Y0083785D03*
X0039291Y0076785D03*
X0051791Y0067785D03*
X0062291Y0071785D03*
X0071791Y0064285D03*
X0088791Y0063785D03*
X0085791Y0047285D03*
X0107291Y0056285D03*
X0117291Y0067285D03*
X0106791Y0085285D03*
X0096791Y0085285D03*
X0092291Y0082785D03*
X0091791Y0096285D03*
X0072291Y0096285D03*
X0069791Y0084785D03*
X0039291Y0059785D03*
X0138291Y0160785D03*
X0143291Y0160785D03*
X0152311Y0168765D03*
X0157291Y0165285D03*
X0165291Y0155285D03*
X0173291Y0169285D03*
X0163291Y0180285D03*
X0163291Y0134285D03*
X0163291Y0123785D03*
X0118791Y0180285D03*
X0111291Y0180785D03*
D37*
X0108666Y0179571D02*
X0107417Y0179571D01*
X0108162Y0179454D02*
X0107417Y0178708D01*
X0107417Y0182198D01*
X0106421Y0183194D01*
X0099501Y0183194D01*
X0098505Y0182198D01*
X0098505Y0181232D01*
X0095960Y0181232D01*
X0095960Y0182001D01*
X0094964Y0182997D01*
X0089619Y0182997D01*
X0088623Y0182001D01*
X0088623Y0176262D01*
X0089100Y0175785D01*
X0088623Y0175308D01*
X0088623Y0174385D01*
X0087279Y0174385D01*
X0086929Y0174736D01*
X0085866Y0175176D01*
X0084716Y0175176D01*
X0083654Y0174736D01*
X0082841Y0173922D01*
X0082401Y0172860D01*
X0082401Y0172385D01*
X0062421Y0172385D01*
X0061191Y0171155D01*
X0056691Y0166655D01*
X0056691Y0171084D01*
X0059493Y0173885D01*
X0061646Y0173885D01*
X0062370Y0173161D01*
X0063941Y0172510D01*
X0065642Y0172510D01*
X0067213Y0173161D01*
X0068415Y0174364D01*
X0069066Y0175935D01*
X0069066Y0177635D01*
X0068415Y0179207D01*
X0067213Y0180409D01*
X0065642Y0181060D01*
X0063941Y0181060D01*
X0062370Y0180409D01*
X0061646Y0179685D01*
X0057714Y0179685D01*
X0056649Y0179244D01*
X0055833Y0178428D01*
X0051352Y0173947D01*
X0047791Y0173947D01*
X0047791Y0174947D01*
X0046791Y0174947D01*
X0046791Y0181852D01*
X0043944Y0181852D01*
X0043563Y0181750D01*
X0043221Y0181552D01*
X0042941Y0181273D01*
X0042744Y0180931D01*
X0042642Y0180550D01*
X0042642Y0174947D01*
X0046791Y0174947D01*
X0046791Y0173947D01*
X0042642Y0173947D01*
X0042642Y0168344D01*
X0042744Y0167962D01*
X0042941Y0167620D01*
X0043221Y0167341D01*
X0043563Y0167143D01*
X0043944Y0167041D01*
X0046791Y0167041D01*
X0046791Y0173946D01*
X0047791Y0173946D01*
X0047791Y0167041D01*
X0050638Y0167041D01*
X0050891Y0167109D01*
X0050891Y0166486D01*
X0049290Y0164885D01*
X0040421Y0164885D01*
X0039191Y0163655D01*
X0039191Y0153655D01*
X0037574Y0152038D01*
X0037574Y0157237D01*
X0036578Y0158233D01*
X0029264Y0158233D01*
X0028269Y0157237D01*
X0028269Y0149530D01*
X0029191Y0148607D01*
X0029191Y0147924D01*
X0028662Y0147395D01*
X0028662Y0136734D01*
X0028862Y0136534D01*
X0028862Y0135667D01*
X0028862Y0134682D01*
X0028964Y0134301D01*
X0029162Y0133959D01*
X0029441Y0133679D01*
X0029783Y0133482D01*
X0030165Y0133380D01*
X0033118Y0133380D01*
X0033118Y0135667D01*
X0028862Y0135667D01*
X0033118Y0135667D01*
X0033118Y0135667D01*
X0033118Y0135667D01*
X0033118Y0133380D01*
X0036071Y0133380D01*
X0036453Y0133482D01*
X0036795Y0133679D01*
X0037074Y0133959D01*
X0037272Y0134301D01*
X0037374Y0134682D01*
X0037374Y0135667D01*
X0037374Y0136534D01*
X0037574Y0136734D01*
X0037574Y0137533D01*
X0037691Y0137415D01*
X0037691Y0134541D01*
X0039883Y0132350D01*
X0039883Y0129569D01*
X0040879Y0128573D01*
X0041533Y0128573D01*
X0042691Y0127415D01*
X0043921Y0126185D01*
X0060661Y0126185D01*
X0065161Y0130685D01*
X0068623Y0130685D01*
X0068623Y0128041D01*
X0068429Y0128236D01*
X0067366Y0128676D01*
X0066216Y0128676D01*
X0065154Y0128236D01*
X0064341Y0127422D01*
X0063901Y0126360D01*
X0063901Y0125864D01*
X0060921Y0122885D01*
X0059503Y0122885D01*
X0059503Y0123458D01*
X0058507Y0124454D01*
X0052768Y0124454D01*
X0052291Y0123977D01*
X0051814Y0124454D01*
X0046075Y0124454D01*
X0045080Y0123458D01*
X0045080Y0118112D01*
X0045091Y0118101D01*
X0045091Y0114501D01*
X0044870Y0114409D01*
X0043667Y0113207D01*
X0043017Y0111635D01*
X0043017Y0109935D01*
X0043667Y0108364D01*
X0044870Y0107161D01*
X0046441Y0106510D01*
X0048142Y0106510D01*
X0049713Y0107161D01*
X0050915Y0108364D01*
X0051566Y0109935D01*
X0051566Y0111635D01*
X0050915Y0113207D01*
X0049713Y0114409D01*
X0049491Y0114501D01*
X0049491Y0117117D01*
X0051814Y0117117D01*
X0052291Y0117594D01*
X0052768Y0117117D01*
X0058507Y0117117D01*
X0059503Y0118112D01*
X0059503Y0118685D01*
X0062661Y0118685D01*
X0066871Y0122895D01*
X0067366Y0122895D01*
X0068429Y0123335D01*
X0068823Y0123729D01*
X0068823Y0122923D01*
X0071807Y0122923D01*
X0071807Y0121954D01*
X0072776Y0121954D01*
X0072776Y0122923D01*
X0076807Y0122923D01*
X0076807Y0121954D01*
X0077776Y0121954D01*
X0077776Y0122923D01*
X0078823Y0122923D01*
X0081807Y0122923D01*
X0081807Y0121954D01*
X0082776Y0121954D01*
X0082776Y0122923D01*
X0085760Y0122923D01*
X0086807Y0122923D01*
X0086807Y0121954D01*
X0087776Y0121954D01*
X0087776Y0122923D01*
X0090760Y0122923D01*
X0090760Y0123685D01*
X0091161Y0123685D01*
X0092391Y0124915D01*
X0093391Y0125915D01*
X0093391Y0134655D01*
X0092161Y0135885D01*
X0091973Y0136073D01*
X0092464Y0136073D01*
X0093460Y0137069D01*
X0093460Y0142808D01*
X0092983Y0143285D01*
X0093460Y0143762D01*
X0093460Y0149501D01*
X0092464Y0150497D01*
X0087119Y0150497D01*
X0086123Y0149501D01*
X0086123Y0148948D01*
X0085704Y0148948D01*
X0085704Y0157985D01*
X0084708Y0158981D01*
X0080487Y0158981D01*
X0080487Y0161685D01*
X0082411Y0161685D01*
X0082841Y0160648D01*
X0083654Y0159835D01*
X0084716Y0159395D01*
X0085866Y0159395D01*
X0086929Y0159835D01*
X0087742Y0160648D01*
X0088182Y0161710D01*
X0088182Y0162860D01*
X0088047Y0163185D01*
X0141603Y0163185D01*
X0140841Y0162422D01*
X0140401Y0161360D01*
X0140401Y0160210D01*
X0140841Y0159148D01*
X0141654Y0158335D01*
X0142716Y0157895D01*
X0143866Y0157895D01*
X0144929Y0158335D01*
X0145080Y0158485D01*
X0145080Y0158112D01*
X0146075Y0157117D01*
X0151814Y0157117D01*
X0152291Y0157594D01*
X0152768Y0157117D01*
X0153931Y0157117D01*
X0153931Y0157072D01*
X0153359Y0157072D01*
X0152363Y0156076D01*
X0152363Y0149156D01*
X0153108Y0148410D01*
X0150905Y0148410D01*
X0151099Y0148462D01*
X0151441Y0148660D01*
X0151720Y0148939D01*
X0151917Y0149281D01*
X0152020Y0149662D01*
X0152020Y0152132D01*
X0149036Y0152132D01*
X0149036Y0153100D01*
X0152020Y0153100D01*
X0152020Y0155569D01*
X0151917Y0155951D01*
X0151720Y0156293D01*
X0151441Y0156572D01*
X0151099Y0156770D01*
X0150717Y0156872D01*
X0149035Y0156872D01*
X0149035Y0153100D01*
X0148067Y0153100D01*
X0148067Y0152132D01*
X0145083Y0152132D01*
X0145083Y0149746D01*
X0139745Y0155084D01*
X0138460Y0156369D01*
X0138460Y0157001D01*
X0137464Y0157997D01*
X0132119Y0157997D01*
X0131931Y0157810D01*
X0129700Y0157810D01*
X0129700Y0159166D01*
X0128704Y0160162D01*
X0122571Y0160162D01*
X0122291Y0159882D01*
X0122011Y0160162D01*
X0115879Y0160162D01*
X0114883Y0159166D01*
X0114883Y0151853D01*
X0115879Y0150857D01*
X0122011Y0150857D01*
X0122291Y0151137D01*
X0122571Y0150857D01*
X0128704Y0150857D01*
X0129700Y0151853D01*
X0129700Y0153210D01*
X0131123Y0153210D01*
X0131123Y0151262D01*
X0131741Y0150644D01*
X0131623Y0150525D01*
X0131425Y0150183D01*
X0131323Y0149802D01*
X0131323Y0147923D01*
X0134307Y0147923D01*
X0134307Y0146954D01*
X0135276Y0146954D01*
X0135276Y0147923D01*
X0138260Y0147923D01*
X0138260Y0149802D01*
X0138164Y0150160D01*
X0140491Y0147832D01*
X0140491Y0129832D01*
X0141839Y0128485D01*
X0144339Y0125985D01*
X0145080Y0125985D01*
X0145080Y0125612D01*
X0146075Y0124617D01*
X0146491Y0124617D01*
X0146491Y0123573D01*
X0146341Y0123422D01*
X0145901Y0122360D01*
X0145901Y0121210D01*
X0146341Y0120148D01*
X0147154Y0119335D01*
X0148216Y0118895D01*
X0149366Y0118895D01*
X0150429Y0119335D01*
X0151242Y0120148D01*
X0151682Y0121210D01*
X0151682Y0122360D01*
X0151242Y0123422D01*
X0151091Y0123573D01*
X0151091Y0124617D01*
X0151814Y0124617D01*
X0152291Y0125094D01*
X0152584Y0124801D01*
X0152401Y0124360D01*
X0152401Y0123210D01*
X0152841Y0122148D01*
X0153654Y0121335D01*
X0154716Y0120895D01*
X0155866Y0120895D01*
X0156929Y0121335D01*
X0157742Y0122148D01*
X0158182Y0123210D01*
X0158182Y0124360D01*
X0158076Y0124617D01*
X0158507Y0124617D01*
X0159503Y0125612D01*
X0159503Y0130958D01*
X0158507Y0131954D01*
X0157738Y0131954D01*
X0157738Y0132117D01*
X0158507Y0132117D01*
X0159503Y0133112D01*
X0159503Y0138458D01*
X0158507Y0139454D01*
X0154939Y0139454D01*
X0154894Y0139499D01*
X0154964Y0139499D01*
X0155960Y0140494D01*
X0155960Y0147414D01*
X0155214Y0148160D01*
X0158704Y0148160D01*
X0159700Y0149156D01*
X0159700Y0156076D01*
X0158704Y0157072D01*
X0158131Y0157072D01*
X0158131Y0157117D01*
X0158507Y0157117D01*
X0159503Y0158112D01*
X0159503Y0163409D01*
X0159742Y0163648D01*
X0160182Y0164710D01*
X0160182Y0165860D01*
X0159742Y0166922D01*
X0158929Y0167736D01*
X0157866Y0168176D01*
X0156716Y0168176D01*
X0155654Y0167736D01*
X0155303Y0167385D01*
X0154868Y0167385D01*
X0155202Y0168190D01*
X0155202Y0169340D01*
X0154762Y0170403D01*
X0153948Y0171216D01*
X0152886Y0171656D01*
X0151736Y0171656D01*
X0150674Y0171216D01*
X0150323Y0170865D01*
X0142417Y0170865D01*
X0142417Y0172862D01*
X0143162Y0172117D01*
X0150082Y0172117D01*
X0151078Y0173112D01*
X0151078Y0173585D01*
X0154880Y0173585D01*
X0170591Y0157874D01*
X0170591Y0094196D01*
X0162071Y0085676D01*
X0161716Y0085676D01*
X0160654Y0085236D01*
X0159841Y0084422D01*
X0159401Y0083360D01*
X0159401Y0082210D01*
X0159841Y0081148D01*
X0160091Y0080897D01*
X0160091Y0071850D01*
X0159158Y0070917D01*
X0158742Y0071922D01*
X0158391Y0072273D01*
X0158391Y0082655D01*
X0157391Y0083655D01*
X0157391Y0086617D01*
X0158507Y0086617D01*
X0159503Y0087612D01*
X0159503Y0087985D01*
X0159654Y0087835D01*
X0160716Y0087395D01*
X0161866Y0087395D01*
X0162929Y0087835D01*
X0163742Y0088648D01*
X0164182Y0089710D01*
X0164182Y0090206D01*
X0166161Y0092185D01*
X0167391Y0093415D01*
X0167391Y0113655D01*
X0162682Y0118364D01*
X0162682Y0118860D01*
X0162242Y0119922D01*
X0161429Y0120736D01*
X0160366Y0121176D01*
X0159216Y0121176D01*
X0158154Y0120736D01*
X0157341Y0119922D01*
X0156901Y0118860D01*
X0156901Y0117710D01*
X0157282Y0116789D01*
X0157154Y0116736D01*
X0156341Y0115922D01*
X0155901Y0114860D01*
X0155901Y0113710D01*
X0156122Y0113176D01*
X0155216Y0113176D01*
X0154154Y0112736D01*
X0153341Y0111922D01*
X0152901Y0110860D01*
X0152901Y0109710D01*
X0153214Y0108954D01*
X0152768Y0108954D01*
X0152150Y0108335D01*
X0152031Y0108454D01*
X0151689Y0108651D01*
X0151308Y0108754D01*
X0149429Y0108754D01*
X0149429Y0105769D01*
X0148461Y0105769D01*
X0148461Y0104801D01*
X0149429Y0104801D01*
X0149429Y0101817D01*
X0151308Y0101817D01*
X0151689Y0101919D01*
X0152031Y0102116D01*
X0152150Y0102235D01*
X0152768Y0101617D01*
X0158507Y0101617D01*
X0159191Y0102301D01*
X0159191Y0100770D01*
X0158507Y0101454D01*
X0152768Y0101454D01*
X0152291Y0100977D01*
X0151814Y0101454D01*
X0146075Y0101454D01*
X0145080Y0100458D01*
X0145080Y0095112D01*
X0146075Y0094117D01*
X0146745Y0094117D01*
X0146745Y0093954D01*
X0146075Y0093954D01*
X0145080Y0092958D01*
X0145080Y0090485D01*
X0141679Y0090485D01*
X0141429Y0090736D01*
X0140366Y0091176D01*
X0139216Y0091176D01*
X0138154Y0090736D01*
X0137341Y0089922D01*
X0136901Y0088860D01*
X0136901Y0087710D01*
X0137291Y0086767D01*
X0137291Y0082997D01*
X0137119Y0082997D01*
X0136153Y0082032D01*
X0135929Y0082032D01*
X0134964Y0082997D01*
X0129619Y0082997D01*
X0129047Y0082425D01*
X0121833Y0082425D01*
X0121549Y0082308D01*
X0119737Y0082308D01*
X0118741Y0081312D01*
X0118741Y0077738D01*
X0119737Y0076743D01*
X0121549Y0076743D01*
X0121833Y0076625D01*
X0128623Y0076625D01*
X0128623Y0076262D01*
X0129241Y0075644D01*
X0129123Y0075525D01*
X0128925Y0075183D01*
X0128823Y0074802D01*
X0128823Y0072923D01*
X0131807Y0072923D01*
X0131807Y0071954D01*
X0132776Y0071954D01*
X0132776Y0072923D01*
X0135760Y0072923D01*
X0135760Y0074802D01*
X0135658Y0075183D01*
X0135460Y0075525D01*
X0135341Y0075644D01*
X0135929Y0076232D01*
X0136153Y0076232D01*
X0136741Y0075644D01*
X0136623Y0075525D01*
X0136425Y0075183D01*
X0136323Y0074802D01*
X0136323Y0072923D01*
X0139307Y0072923D01*
X0139307Y0071954D01*
X0140276Y0071954D01*
X0140276Y0068773D01*
X0140279Y0068773D01*
X0139901Y0067860D01*
X0139901Y0066710D01*
X0140341Y0065648D01*
X0141154Y0064835D01*
X0141901Y0064525D01*
X0135936Y0064525D01*
X0134964Y0065497D01*
X0129619Y0065497D01*
X0128647Y0064525D01*
X0125365Y0064525D01*
X0125082Y0064808D01*
X0119737Y0064808D01*
X0118741Y0063812D01*
X0118741Y0060238D01*
X0119737Y0059243D01*
X0125082Y0059243D01*
X0125365Y0059525D01*
X0128623Y0059525D01*
X0128623Y0058762D01*
X0129241Y0058144D01*
X0129123Y0058025D01*
X0128925Y0057683D01*
X0128823Y0057302D01*
X0128823Y0055423D01*
X0131807Y0055423D01*
X0131807Y0054454D01*
X0128823Y0054454D01*
X0128823Y0052576D01*
X0128925Y0052194D01*
X0129123Y0051852D01*
X0129290Y0051685D01*
X0105293Y0051685D01*
X0105460Y0051852D01*
X0105658Y0052194D01*
X0105760Y0052576D01*
X0105760Y0054454D01*
X0102776Y0054454D01*
X0102776Y0055423D01*
X0105760Y0055423D01*
X0105760Y0057302D01*
X0105658Y0057683D01*
X0105460Y0058025D01*
X0105341Y0058144D01*
X0105960Y0058762D01*
X0105960Y0059132D01*
X0108705Y0059132D01*
X0108705Y0058326D01*
X0112132Y0058326D01*
X0112132Y0058244D01*
X0108705Y0058244D01*
X0108705Y0057005D01*
X0108805Y0056632D01*
X0108505Y0056332D01*
X0108505Y0052758D01*
X0109501Y0051762D01*
X0114846Y0051762D01*
X0115529Y0052445D01*
X0115921Y0052445D01*
X0117161Y0053685D01*
X0118391Y0054915D01*
X0118391Y0061655D01*
X0117151Y0062895D01*
X0115921Y0064125D01*
X0115529Y0064125D01*
X0114846Y0064808D01*
X0109501Y0064808D01*
X0108824Y0064132D01*
X0105960Y0064132D01*
X0105960Y0064501D01*
X0104964Y0065497D01*
X0099619Y0065497D01*
X0098623Y0064501D01*
X0098623Y0064132D01*
X0096191Y0064132D01*
X0096191Y0068862D01*
X0095750Y0069928D01*
X0094934Y0070744D01*
X0093868Y0071185D01*
X0086776Y0071185D01*
X0086395Y0071565D01*
X0087976Y0071565D01*
X0088972Y0072561D01*
X0088972Y0084009D01*
X0087976Y0085005D01*
X0087213Y0085005D01*
X0087213Y0087361D01*
X0086832Y0088280D01*
X0086129Y0088983D01*
X0086129Y0088983D01*
X0083411Y0091701D01*
X0083411Y0091701D01*
X0082707Y0092405D01*
X0081789Y0092785D01*
X0068893Y0092785D01*
X0069003Y0092896D01*
X0069201Y0093238D01*
X0069303Y0093619D01*
X0069303Y0095301D01*
X0066122Y0095301D01*
X0066122Y0096269D01*
X0069303Y0096269D01*
X0069303Y0097951D01*
X0069201Y0098333D01*
X0069003Y0098675D01*
X0068724Y0098954D01*
X0068382Y0099151D01*
X0068001Y0099254D01*
X0066122Y0099254D01*
X0066122Y0096269D01*
X0065154Y0096269D01*
X0065154Y0099254D01*
X0063275Y0099254D01*
X0062893Y0099151D01*
X0062551Y0098954D01*
X0062433Y0098835D01*
X0062006Y0099262D01*
X0062346Y0099262D01*
X0063342Y0100258D01*
X0063342Y0103832D01*
X0063042Y0104132D01*
X0063142Y0104505D01*
X0063142Y0105744D01*
X0059715Y0105744D01*
X0059715Y0105826D01*
X0063142Y0105826D01*
X0063142Y0107065D01*
X0063042Y0107438D01*
X0063342Y0107738D01*
X0063342Y0111312D01*
X0062346Y0112308D01*
X0057001Y0112308D01*
X0056494Y0111802D01*
X0056115Y0111645D01*
X0053875Y0109405D01*
X0053172Y0108701D01*
X0052791Y0107782D01*
X0052791Y0098941D01*
X0053172Y0098023D01*
X0055080Y0096115D01*
X0055080Y0093112D01*
X0056075Y0092117D01*
X0058424Y0092117D01*
X0061672Y0088869D01*
X0062375Y0088166D01*
X0063294Y0087785D01*
X0080256Y0087785D01*
X0082213Y0085828D01*
X0082213Y0085005D01*
X0081449Y0085005D01*
X0080454Y0084009D01*
X0080454Y0077808D01*
X0080238Y0077287D01*
X0080238Y0071923D01*
X0079650Y0071335D01*
X0079531Y0071454D01*
X0079189Y0071651D01*
X0078808Y0071754D01*
X0078321Y0071754D01*
X0079129Y0072561D01*
X0079129Y0084009D01*
X0078133Y0085005D01*
X0071607Y0085005D01*
X0070611Y0084009D01*
X0070611Y0078127D01*
X0069909Y0077425D01*
X0068393Y0077425D01*
X0068724Y0077616D01*
X0069003Y0077896D01*
X0069201Y0078238D01*
X0069303Y0078619D01*
X0069303Y0080301D01*
X0066122Y0080301D01*
X0066122Y0081269D01*
X0069303Y0081269D01*
X0069303Y0082951D01*
X0069201Y0083333D01*
X0069003Y0083675D01*
X0068724Y0083954D01*
X0068382Y0084151D01*
X0068001Y0084254D01*
X0066122Y0084254D01*
X0066122Y0081269D01*
X0065154Y0081269D01*
X0065154Y0084254D01*
X0063275Y0084254D01*
X0062893Y0084151D01*
X0062551Y0083954D01*
X0062433Y0083835D01*
X0061845Y0084423D01*
X0061845Y0086208D01*
X0061403Y0087274D01*
X0057934Y0090744D01*
X0056868Y0091185D01*
X0055714Y0091185D01*
X0054649Y0090744D01*
X0053833Y0089928D01*
X0053391Y0088862D01*
X0053391Y0087708D01*
X0053833Y0086642D01*
X0056045Y0084430D01*
X0056045Y0084423D01*
X0055080Y0083458D01*
X0055080Y0081021D01*
X0054715Y0080656D01*
X0054273Y0079590D01*
X0054273Y0077081D01*
X0053505Y0076312D01*
X0053505Y0072738D01*
X0054501Y0071743D01*
X0055073Y0071743D01*
X0055073Y0071033D01*
X0056279Y0069828D01*
X0054501Y0069828D01*
X0053505Y0068832D01*
X0053505Y0065258D01*
X0054501Y0064262D01*
X0059049Y0064262D01*
X0059429Y0063883D01*
X0059429Y0061269D01*
X0058461Y0061269D01*
X0058461Y0060301D01*
X0056245Y0060301D01*
X0049391Y0067155D01*
X0049391Y0073573D01*
X0049964Y0073573D01*
X0050960Y0074569D01*
X0050960Y0080308D01*
X0050483Y0080785D01*
X0050960Y0081262D01*
X0050960Y0087001D01*
X0050256Y0087705D01*
X0050915Y0088364D01*
X0051566Y0089935D01*
X0051566Y0091635D01*
X0050915Y0093207D01*
X0049713Y0094409D01*
X0048142Y0095060D01*
X0046441Y0095060D01*
X0044870Y0094409D01*
X0043667Y0093207D01*
X0043017Y0091635D01*
X0043017Y0089935D01*
X0043667Y0088364D01*
X0044326Y0087705D01*
X0043623Y0087001D01*
X0043623Y0085541D01*
X0042929Y0086236D01*
X0041866Y0086676D01*
X0040716Y0086676D01*
X0039654Y0086236D01*
X0038841Y0085422D01*
X0038401Y0084360D01*
X0038401Y0084009D01*
X0034306Y0084009D01*
X0034306Y0084875D01*
X0033310Y0085871D01*
X0027965Y0085871D01*
X0027140Y0085046D01*
X0027114Y0085092D01*
X0026834Y0085371D01*
X0026492Y0085569D01*
X0026111Y0085671D01*
X0024429Y0085671D01*
X0024429Y0082293D01*
X0023461Y0082293D01*
X0023461Y0085671D01*
X0021779Y0085671D01*
X0021397Y0085569D01*
X0021055Y0085371D01*
X0020776Y0085092D01*
X0020579Y0084750D01*
X0020476Y0084368D01*
X0020476Y0082293D01*
X0023461Y0082293D01*
X0023461Y0081324D01*
X0024429Y0081324D01*
X0024429Y0077947D01*
X0026111Y0077947D01*
X0026492Y0078049D01*
X0026834Y0078246D01*
X0027114Y0078526D01*
X0027140Y0078571D01*
X0027965Y0077747D01*
X0033310Y0077747D01*
X0034306Y0078742D01*
X0034306Y0079609D01*
X0040226Y0079609D01*
X0041512Y0080895D01*
X0041866Y0080895D01*
X0042929Y0081335D01*
X0043623Y0082029D01*
X0043623Y0081262D01*
X0044100Y0080785D01*
X0043623Y0080308D01*
X0043623Y0074569D01*
X0044619Y0073573D01*
X0045191Y0073573D01*
X0045191Y0065415D01*
X0046421Y0064185D01*
X0053522Y0057085D01*
X0043839Y0057085D01*
X0042491Y0055738D01*
X0039991Y0053238D01*
X0039991Y0049459D01*
X0039870Y0049409D01*
X0038667Y0048207D01*
X0038525Y0047863D01*
X0038192Y0049753D01*
X0036177Y0053241D01*
X0033248Y0055699D01*
X0033310Y0055699D01*
X0034306Y0056695D01*
X0034306Y0062828D01*
X0033310Y0063824D01*
X0027965Y0063824D01*
X0027140Y0062999D01*
X0027114Y0063045D01*
X0026834Y0063324D01*
X0026492Y0063521D01*
X0026111Y0063624D01*
X0024429Y0063624D01*
X0024429Y0060246D01*
X0023461Y0060246D01*
X0023461Y0063624D01*
X0021779Y0063624D01*
X0021397Y0063521D01*
X0021055Y0063324D01*
X0020776Y0063045D01*
X0020579Y0062703D01*
X0020476Y0062321D01*
X0020476Y0060246D01*
X0023461Y0060246D01*
X0023461Y0059277D01*
X0020476Y0059277D01*
X0020476Y0057202D01*
X0020579Y0056820D01*
X0020776Y0056478D01*
X0021055Y0056199D01*
X0021397Y0056002D01*
X0021721Y0055915D01*
X0021491Y0055831D01*
X0018991Y0053733D01*
X0018991Y0069454D01*
X0019185Y0068986D01*
X0020079Y0068092D01*
X0021246Y0067609D01*
X0022510Y0067609D01*
X0023677Y0068092D01*
X0024571Y0068986D01*
X0025054Y0070153D01*
X0025054Y0071417D01*
X0024571Y0072584D01*
X0023677Y0073478D01*
X0022510Y0073961D01*
X0021246Y0073961D01*
X0020079Y0073478D01*
X0019185Y0072584D01*
X0018991Y0072116D01*
X0018991Y0086585D01*
X0039995Y0086585D01*
X0040991Y0087581D01*
X0040991Y0113989D01*
X0039995Y0114985D01*
X0018991Y0114985D01*
X0018991Y0118219D01*
X0026736Y0118219D01*
X0027731Y0119215D01*
X0027731Y0130072D01*
X0026959Y0130844D01*
X0027731Y0131616D01*
X0027731Y0140505D01*
X0027451Y0140785D01*
X0027731Y0141065D01*
X0027731Y0149954D01*
X0026959Y0150726D01*
X0027731Y0151498D01*
X0027731Y0162355D01*
X0026736Y0163351D01*
X0018991Y0163351D01*
X0018991Y0167837D01*
X0021491Y0165739D01*
X0025277Y0164361D01*
X0029306Y0164361D01*
X0033091Y0165739D01*
X0033091Y0165739D01*
X0036177Y0168329D01*
X0038192Y0171818D01*
X0038891Y0175785D01*
X0038192Y0179753D01*
X0036177Y0183241D01*
X0035172Y0184085D01*
X0175791Y0184085D01*
X0175791Y0147891D01*
X0174991Y0147091D01*
X0174991Y0159696D01*
X0157991Y0176696D01*
X0156703Y0177985D01*
X0151078Y0177985D01*
X0151078Y0178458D01*
X0150082Y0179454D01*
X0143162Y0179454D01*
X0142417Y0178708D01*
X0142417Y0182198D01*
X0141421Y0183194D01*
X0134501Y0183194D01*
X0133505Y0182198D01*
X0133505Y0181232D01*
X0130960Y0181232D01*
X0130960Y0182001D01*
X0129964Y0182997D01*
X0124619Y0182997D01*
X0123623Y0182001D01*
X0123623Y0177885D01*
X0123421Y0177885D01*
X0119421Y0173885D01*
X0116078Y0173885D01*
X0116078Y0178458D01*
X0115082Y0179454D01*
X0113869Y0179454D01*
X0114182Y0180210D01*
X0114182Y0181360D01*
X0113742Y0182422D01*
X0112929Y0183236D01*
X0111866Y0183676D01*
X0110716Y0183676D01*
X0109654Y0183236D01*
X0108841Y0182422D01*
X0108401Y0181360D01*
X0108401Y0180210D01*
X0108714Y0179454D01*
X0108162Y0179454D01*
X0108401Y0180569D02*
X0107417Y0180569D01*
X0107417Y0181568D02*
X0108487Y0181568D01*
X0108985Y0182566D02*
X0107048Y0182566D01*
X0110449Y0183565D02*
X0035792Y0183565D01*
X0036177Y0183241D02*
X0036177Y0183241D01*
X0036177Y0183241D01*
X0036567Y0182566D02*
X0089188Y0182566D01*
X0088623Y0181568D02*
X0051335Y0181568D01*
X0051362Y0181552D02*
X0051020Y0181750D01*
X0050638Y0181852D01*
X0047791Y0181852D01*
X0047791Y0174947D01*
X0051941Y0174947D01*
X0051941Y0180550D01*
X0051839Y0180931D01*
X0051641Y0181273D01*
X0051362Y0181552D01*
X0051936Y0180569D02*
X0062756Y0180569D01*
X0066826Y0180569D02*
X0073251Y0180569D01*
X0073227Y0180561D02*
X0072656Y0180270D01*
X0072137Y0179893D01*
X0071683Y0179440D01*
X0071306Y0178921D01*
X0071015Y0178349D01*
X0070817Y0177739D01*
X0070717Y0177106D01*
X0070717Y0177073D01*
X0074504Y0177073D01*
X0074504Y0180860D01*
X0074471Y0180860D01*
X0073837Y0180760D01*
X0073227Y0180561D01*
X0074504Y0180569D02*
X0075079Y0180569D01*
X0075079Y0180860D02*
X0075079Y0177073D01*
X0074504Y0177073D01*
X0074504Y0176498D01*
X0070717Y0176498D01*
X0070717Y0176464D01*
X0070817Y0175831D01*
X0071015Y0175221D01*
X0071306Y0174649D01*
X0071683Y0174131D01*
X0072137Y0173677D01*
X0072656Y0173300D01*
X0073227Y0173009D01*
X0073837Y0172811D01*
X0074471Y0172710D01*
X0074504Y0172710D01*
X0074504Y0176498D01*
X0075079Y0176498D01*
X0075079Y0177073D01*
X0078866Y0177073D01*
X0078866Y0177106D01*
X0078766Y0177739D01*
X0078568Y0178349D01*
X0078276Y0178921D01*
X0077899Y0179440D01*
X0077446Y0179893D01*
X0076927Y0180270D01*
X0076356Y0180561D01*
X0075746Y0180760D01*
X0075112Y0180860D01*
X0075079Y0180860D01*
X0076331Y0180569D02*
X0088623Y0180569D01*
X0088623Y0179571D02*
X0077768Y0179571D01*
X0078454Y0178572D02*
X0088623Y0178572D01*
X0088623Y0177574D02*
X0078792Y0177574D01*
X0078866Y0176498D02*
X0075079Y0176498D01*
X0075079Y0172710D01*
X0075112Y0172710D01*
X0075746Y0172811D01*
X0076356Y0173009D01*
X0076927Y0173300D01*
X0077446Y0173677D01*
X0077899Y0174131D01*
X0078276Y0174649D01*
X0078568Y0175221D01*
X0078766Y0175831D01*
X0078866Y0176464D01*
X0078866Y0176498D01*
X0078683Y0175577D02*
X0088891Y0175577D01*
X0088623Y0176575D02*
X0075079Y0176575D01*
X0074504Y0176575D02*
X0069066Y0176575D01*
X0069066Y0177574D02*
X0070791Y0177574D01*
X0071129Y0178572D02*
X0068678Y0178572D01*
X0068051Y0179571D02*
X0071814Y0179571D01*
X0074504Y0179571D02*
X0075079Y0179571D01*
X0075079Y0178572D02*
X0074504Y0178572D01*
X0074504Y0177574D02*
X0075079Y0177574D01*
X0075079Y0175577D02*
X0074504Y0175577D01*
X0074504Y0174578D02*
X0075079Y0174578D01*
X0075079Y0173580D02*
X0074504Y0173580D01*
X0072271Y0173580D02*
X0067631Y0173580D01*
X0068504Y0174578D02*
X0071358Y0174578D01*
X0070899Y0175577D02*
X0068918Y0175577D01*
X0065813Y0172581D02*
X0082401Y0172581D01*
X0082699Y0173580D02*
X0077312Y0173580D01*
X0078225Y0174578D02*
X0083497Y0174578D01*
X0087086Y0174578D02*
X0088623Y0174578D01*
X0095960Y0181568D02*
X0098505Y0181568D01*
X0098873Y0182566D02*
X0095395Y0182566D01*
X0111291Y0176116D02*
X0111622Y0175785D01*
X0113917Y0179571D02*
X0123623Y0179571D01*
X0123623Y0180569D02*
X0114182Y0180569D01*
X0114096Y0181568D02*
X0123623Y0181568D01*
X0124188Y0182566D02*
X0113598Y0182566D01*
X0112134Y0183565D02*
X0175791Y0183565D01*
X0175791Y0182566D02*
X0142048Y0182566D01*
X0142417Y0181568D02*
X0175791Y0181568D01*
X0175791Y0180569D02*
X0142417Y0180569D01*
X0142417Y0179571D02*
X0175791Y0179571D01*
X0175791Y0178572D02*
X0150963Y0178572D01*
X0151078Y0173580D02*
X0154885Y0173580D01*
X0155884Y0172581D02*
X0150547Y0172581D01*
X0151559Y0171583D02*
X0142417Y0171583D01*
X0142417Y0172581D02*
X0142697Y0172581D01*
X0146622Y0175785D02*
X0155791Y0175785D01*
X0172791Y0158785D01*
X0172791Y0093285D01*
X0162291Y0082785D01*
X0162291Y0070939D01*
X0157138Y0065785D01*
X0157138Y0058285D01*
X0154938Y0061954D02*
X0154268Y0061954D01*
X0153791Y0061477D01*
X0153314Y0061954D01*
X0147575Y0061954D01*
X0146580Y0060958D01*
X0146580Y0055612D01*
X0147548Y0054643D01*
X0144590Y0051685D01*
X0135293Y0051685D01*
X0135460Y0051852D01*
X0135658Y0052194D01*
X0135760Y0052576D01*
X0135760Y0054454D01*
X0132776Y0054454D01*
X0132776Y0055423D01*
X0135760Y0055423D01*
X0135760Y0057302D01*
X0135658Y0057683D01*
X0135460Y0058025D01*
X0135341Y0058144D01*
X0135960Y0058762D01*
X0135960Y0059525D01*
X0144029Y0059525D01*
X0144948Y0059906D01*
X0147548Y0062507D01*
X0147701Y0062419D01*
X0148082Y0062317D01*
X0149961Y0062317D01*
X0149961Y0065301D01*
X0150929Y0065301D01*
X0150929Y0062317D01*
X0152808Y0062317D01*
X0153189Y0062419D01*
X0153531Y0062616D01*
X0153650Y0062735D01*
X0154268Y0062117D01*
X0154938Y0062117D01*
X0154938Y0061954D01*
X0154061Y0061746D02*
X0153522Y0061746D01*
X0150929Y0062745D02*
X0149961Y0062745D01*
X0149961Y0063743D02*
X0150929Y0063743D01*
X0150929Y0064742D02*
X0149961Y0064742D01*
X0147368Y0061746D02*
X0146788Y0061746D01*
X0146580Y0060748D02*
X0145790Y0060748D01*
X0146580Y0059749D02*
X0144570Y0059749D01*
X0146580Y0058751D02*
X0135949Y0058751D01*
X0135618Y0057752D02*
X0146580Y0057752D01*
X0146580Y0056754D02*
X0135760Y0056754D01*
X0135760Y0055755D02*
X0146580Y0055755D01*
X0147435Y0054757D02*
X0132776Y0054757D01*
X0131807Y0054757D02*
X0126078Y0054757D01*
X0126078Y0055755D02*
X0128823Y0055755D01*
X0128823Y0056754D02*
X0125656Y0056754D01*
X0126078Y0056332D02*
X0125082Y0057328D01*
X0119737Y0057328D01*
X0118741Y0056332D01*
X0118741Y0052758D01*
X0119737Y0051762D01*
X0125082Y0051762D01*
X0126078Y0052758D01*
X0126078Y0056332D01*
X0126078Y0053758D02*
X0128823Y0053758D01*
X0128823Y0052760D02*
X0126078Y0052760D01*
X0129214Y0051761D02*
X0105369Y0051761D01*
X0105760Y0052760D02*
X0108505Y0052760D01*
X0108505Y0053758D02*
X0105760Y0053758D01*
X0105760Y0055755D02*
X0108505Y0055755D01*
X0108505Y0054757D02*
X0102776Y0054757D01*
X0101807Y0054757D02*
X0096191Y0054757D01*
X0096191Y0053986D02*
X0098493Y0051685D01*
X0099290Y0051685D01*
X0099123Y0051852D01*
X0098925Y0052194D01*
X0098823Y0052576D01*
X0098823Y0054454D01*
X0101807Y0054454D01*
X0101807Y0055423D01*
X0098823Y0055423D01*
X0098823Y0057302D01*
X0098925Y0057683D01*
X0099123Y0058025D01*
X0099241Y0058144D01*
X0098623Y0058762D01*
X0098623Y0059132D01*
X0096191Y0059132D01*
X0096191Y0053986D01*
X0096419Y0053758D02*
X0098823Y0053758D01*
X0098823Y0052760D02*
X0097418Y0052760D01*
X0098416Y0051761D02*
X0099214Y0051761D01*
X0098823Y0055755D02*
X0096191Y0055755D01*
X0096191Y0056754D02*
X0098823Y0056754D01*
X0098965Y0057752D02*
X0096191Y0057752D01*
X0096191Y0058751D02*
X0098634Y0058751D01*
X0098864Y0064742D02*
X0096191Y0064742D01*
X0096191Y0065740D02*
X0140302Y0065740D01*
X0139901Y0066739D02*
X0096191Y0066739D01*
X0096191Y0067737D02*
X0139901Y0067737D01*
X0140264Y0068736D02*
X0096191Y0068736D01*
X0095830Y0069735D02*
X0098914Y0069735D01*
X0098925Y0069694D02*
X0099123Y0069352D01*
X0099402Y0069073D01*
X0099744Y0068876D01*
X0100125Y0068773D01*
X0101807Y0068773D01*
X0101807Y0071954D01*
X0102776Y0071954D01*
X0102776Y0072923D01*
X0105760Y0072923D01*
X0105760Y0074802D01*
X0105658Y0075183D01*
X0105460Y0075525D01*
X0105341Y0075644D01*
X0105960Y0076262D01*
X0105960Y0076625D01*
X0108705Y0076625D01*
X0108705Y0075826D01*
X0112132Y0075826D01*
X0112132Y0075744D01*
X0108705Y0075744D01*
X0108705Y0074505D01*
X0108805Y0074132D01*
X0108505Y0073832D01*
X0108505Y0070258D01*
X0109501Y0069262D01*
X0114846Y0069262D01*
X0115529Y0069945D01*
X0115921Y0069945D01*
X0117161Y0071185D01*
X0118391Y0072415D01*
X0118391Y0079155D01*
X0117151Y0080395D01*
X0115921Y0081625D01*
X0115529Y0081625D01*
X0114846Y0082308D01*
X0113033Y0082308D01*
X0112750Y0082425D01*
X0105536Y0082425D01*
X0104964Y0082997D01*
X0103181Y0082997D01*
X0098434Y0087744D01*
X0097368Y0088185D01*
X0096214Y0088185D01*
X0095149Y0087744D01*
X0094333Y0086928D01*
X0093891Y0085862D01*
X0093891Y0084708D01*
X0094333Y0083642D01*
X0098623Y0079352D01*
X0098623Y0076262D01*
X0099241Y0075644D01*
X0099123Y0075525D01*
X0098925Y0075183D01*
X0098823Y0074802D01*
X0098823Y0072923D01*
X0101807Y0072923D01*
X0101807Y0071954D01*
X0098823Y0071954D01*
X0098823Y0070076D01*
X0098925Y0069694D01*
X0098823Y0070733D02*
X0094945Y0070733D01*
X0098823Y0071732D02*
X0088142Y0071732D01*
X0088972Y0072730D02*
X0101807Y0072730D01*
X0102776Y0072730D02*
X0108505Y0072730D01*
X0108505Y0071732D02*
X0105760Y0071732D01*
X0105760Y0071954D02*
X0105760Y0070076D01*
X0105658Y0069694D01*
X0105460Y0069352D01*
X0105181Y0069073D01*
X0104839Y0068876D01*
X0104457Y0068773D01*
X0102776Y0068773D01*
X0102776Y0071954D01*
X0105760Y0071954D01*
X0105760Y0070733D02*
X0108505Y0070733D01*
X0109028Y0069735D02*
X0105668Y0069735D01*
X0102776Y0069735D02*
X0101807Y0069735D01*
X0101807Y0070733D02*
X0102776Y0070733D01*
X0102776Y0071732D02*
X0101807Y0071732D01*
X0098823Y0073729D02*
X0088972Y0073729D01*
X0088972Y0074727D02*
X0098823Y0074727D01*
X0099159Y0075726D02*
X0088972Y0075726D01*
X0088972Y0076724D02*
X0098623Y0076724D01*
X0098623Y0077723D02*
X0088972Y0077723D01*
X0088972Y0078721D02*
X0098623Y0078721D01*
X0098256Y0079720D02*
X0088972Y0079720D01*
X0088972Y0080718D02*
X0097257Y0080718D01*
X0096259Y0081717D02*
X0088972Y0081717D01*
X0088972Y0082715D02*
X0095260Y0082715D01*
X0094303Y0083714D02*
X0088972Y0083714D01*
X0088268Y0084712D02*
X0093891Y0084712D01*
X0093891Y0085711D02*
X0087213Y0085711D01*
X0087213Y0086709D02*
X0094242Y0086709D01*
X0095113Y0087708D02*
X0087069Y0087708D01*
X0086406Y0088706D02*
X0098567Y0088706D01*
X0098567Y0088422D02*
X0098567Y0089760D01*
X0102092Y0089760D01*
X0102092Y0090039D01*
X0098567Y0090039D01*
X0098567Y0091376D01*
X0098669Y0091758D01*
X0098867Y0092100D01*
X0099146Y0092379D01*
X0099488Y0092577D01*
X0099869Y0092679D01*
X0102092Y0092679D01*
X0102092Y0090039D01*
X0102372Y0090039D01*
X0102372Y0092679D01*
X0102406Y0092679D01*
X0102406Y0093817D01*
X0102405Y0093817D02*
X0104890Y0093817D01*
X0104890Y0093817D01*
X0104890Y0096970D01*
X0106071Y0096970D01*
X0106453Y0096868D01*
X0106661Y0096748D01*
X0106870Y0096868D01*
X0107251Y0096970D01*
X0108433Y0096970D01*
X0108433Y0093817D01*
X0108433Y0093817D01*
X0108433Y0096970D01*
X0108518Y0096970D01*
X0107841Y0097648D01*
X0107401Y0098710D01*
X0107401Y0099860D01*
X0107841Y0100922D01*
X0108191Y0101273D01*
X0108191Y0102097D01*
X0107929Y0101835D01*
X0106986Y0101444D01*
X0105349Y0099807D01*
X0104430Y0099427D01*
X0103476Y0099427D01*
X0103476Y0098384D01*
X0100323Y0098384D01*
X0100323Y0098383D01*
X0100323Y0095899D01*
X0102174Y0095899D01*
X0102490Y0095984D01*
X0102406Y0095668D01*
X0102405Y0093817D01*
X0102406Y0093817D02*
X0104890Y0093817D01*
X0108433Y0093817D01*
X0108433Y0093817D01*
X0105949Y0093817D01*
X0104890Y0093817D01*
X0104890Y0093817D01*
X0104890Y0096970D01*
X0103708Y0096970D01*
X0103392Y0096885D01*
X0103476Y0097202D01*
X0103476Y0098383D01*
X0100323Y0098383D01*
X0100323Y0098383D01*
X0100323Y0095899D01*
X0099185Y0095899D01*
X0099185Y0095866D01*
X0096545Y0095866D01*
X0096266Y0095866D01*
X0096266Y0097376D01*
X0096266Y0100015D01*
X0096545Y0100015D01*
X0096545Y0095866D01*
X0096545Y0095586D01*
X0096545Y0092061D01*
X0097883Y0092061D01*
X0098264Y0092163D01*
X0098606Y0092360D01*
X0098885Y0092640D01*
X0099083Y0092982D01*
X0099185Y0093363D01*
X0099185Y0095586D01*
X0096545Y0095586D01*
X0096266Y0095586D01*
X0096266Y0092061D01*
X0094928Y0092061D01*
X0094547Y0092163D01*
X0094205Y0092360D01*
X0093926Y0092640D01*
X0093728Y0092982D01*
X0093626Y0093363D01*
X0093626Y0095586D01*
X0096266Y0095586D01*
X0096266Y0095866D01*
X0093626Y0095866D01*
X0093626Y0098089D01*
X0093705Y0098384D01*
X0093626Y0098678D01*
X0093626Y0100015D01*
X0096266Y0100015D01*
X0096266Y0100295D01*
X0096266Y0100919D01*
X0096266Y0103559D01*
X0093626Y0103559D01*
X0093626Y0102221D01*
X0093705Y0101927D01*
X0093626Y0101632D01*
X0093626Y0100295D01*
X0096266Y0100295D01*
X0096545Y0100295D01*
X0096545Y0103559D01*
X0096266Y0103559D01*
X0096266Y0103838D01*
X0093626Y0103838D01*
X0093626Y0105176D01*
X0093705Y0105470D01*
X0093626Y0105765D01*
X0093626Y0107032D01*
X0093429Y0106835D01*
X0092366Y0106395D01*
X0091216Y0106395D01*
X0090960Y0106501D01*
X0090960Y0106262D01*
X0090341Y0105644D01*
X0090460Y0105525D01*
X0090658Y0105183D01*
X0090760Y0104802D01*
X0090760Y0102923D01*
X0087776Y0102923D01*
X0087776Y0101954D01*
X0090760Y0101954D01*
X0090760Y0100076D01*
X0090658Y0099694D01*
X0090460Y0099352D01*
X0090181Y0099073D01*
X0089839Y0098876D01*
X0089457Y0098773D01*
X0087776Y0098773D01*
X0087776Y0101954D01*
X0086807Y0101954D01*
X0086807Y0098773D01*
X0085125Y0098773D01*
X0084744Y0098876D01*
X0084402Y0099073D01*
X0084123Y0099352D01*
X0083925Y0099694D01*
X0083823Y0100076D01*
X0083823Y0101954D01*
X0086807Y0101954D01*
X0086807Y0102923D01*
X0083823Y0102923D01*
X0083823Y0104802D01*
X0083925Y0105183D01*
X0084123Y0105525D01*
X0084241Y0105644D01*
X0083623Y0106262D01*
X0083623Y0106632D01*
X0083460Y0106632D01*
X0083460Y0106262D01*
X0082841Y0105644D01*
X0082960Y0105525D01*
X0083158Y0105183D01*
X0083260Y0104802D01*
X0083260Y0102923D01*
X0080276Y0102923D01*
X0080276Y0101954D01*
X0083260Y0101954D01*
X0083260Y0100076D01*
X0083158Y0099694D01*
X0082960Y0099352D01*
X0082681Y0099073D01*
X0082339Y0098876D01*
X0081957Y0098773D01*
X0080276Y0098773D01*
X0080276Y0101954D01*
X0079307Y0101954D01*
X0079307Y0098773D01*
X0077625Y0098773D01*
X0077244Y0098876D01*
X0076902Y0099073D01*
X0076623Y0099352D01*
X0076425Y0099694D01*
X0076323Y0100076D01*
X0076323Y0101954D01*
X0079307Y0101954D01*
X0079307Y0102923D01*
X0076323Y0102923D01*
X0076323Y0104802D01*
X0076425Y0105183D01*
X0076623Y0105525D01*
X0076741Y0105644D01*
X0076123Y0106262D01*
X0076123Y0107025D01*
X0072865Y0107025D01*
X0072582Y0106743D01*
X0067237Y0106743D01*
X0066241Y0107738D01*
X0066241Y0111312D01*
X0067237Y0112308D01*
X0072582Y0112308D01*
X0072865Y0112025D01*
X0076147Y0112025D01*
X0077119Y0112997D01*
X0082464Y0112997D01*
X0083460Y0112001D01*
X0083460Y0111632D01*
X0083623Y0111632D01*
X0083623Y0112001D01*
X0084619Y0112997D01*
X0089964Y0112997D01*
X0090912Y0112049D01*
X0091216Y0112176D01*
X0092366Y0112176D01*
X0093429Y0111736D01*
X0093626Y0111538D01*
X0093626Y0112262D01*
X0093705Y0112557D01*
X0093626Y0112851D01*
X0093626Y0114189D01*
X0096266Y0114189D01*
X0096266Y0114468D01*
X0093626Y0114468D01*
X0093626Y0115805D01*
X0093705Y0116100D01*
X0093626Y0116395D01*
X0093626Y0117732D01*
X0096266Y0117732D01*
X0096545Y0117732D01*
X0096545Y0114468D01*
X0096266Y0114468D01*
X0096266Y0117108D01*
X0096266Y0117732D01*
X0096266Y0118012D01*
X0096266Y0120651D01*
X0096266Y0121275D01*
X0096545Y0121275D01*
X0096545Y0118012D01*
X0096266Y0118012D01*
X0093626Y0118012D01*
X0093626Y0119349D01*
X0093705Y0119643D01*
X0093626Y0119938D01*
X0093626Y0121275D01*
X0096266Y0121275D01*
X0096266Y0121555D01*
X0096266Y0124195D01*
X0096266Y0125704D01*
X0096545Y0125704D01*
X0096545Y0121555D01*
X0096266Y0121555D01*
X0093626Y0121555D01*
X0093626Y0122892D01*
X0093705Y0123187D01*
X0093626Y0123481D01*
X0093626Y0125704D01*
X0096266Y0125704D01*
X0096266Y0125984D01*
X0096266Y0129510D01*
X0094928Y0129510D01*
X0094547Y0129407D01*
X0094205Y0129210D01*
X0093926Y0128931D01*
X0093728Y0128589D01*
X0093626Y0128207D01*
X0093626Y0125984D01*
X0096266Y0125984D01*
X0096545Y0125984D01*
X0096545Y0129510D01*
X0097883Y0129510D01*
X0098264Y0129407D01*
X0098606Y0129210D01*
X0098885Y0128931D01*
X0099083Y0128589D01*
X0099185Y0128207D01*
X0099185Y0125984D01*
X0096545Y0125984D01*
X0096545Y0125704D01*
X0099185Y0125704D01*
X0099185Y0125671D01*
X0100323Y0125671D01*
X0100323Y0123187D01*
X0100323Y0123187D01*
X0103476Y0123187D01*
X0103476Y0124368D01*
X0103468Y0124400D01*
X0106578Y0124400D01*
X0106661Y0124483D01*
X0106745Y0124400D01*
X0110121Y0124400D01*
X0110421Y0124700D01*
X0110795Y0124600D01*
X0111976Y0124600D01*
X0111976Y0127753D01*
X0111976Y0127753D01*
X0111976Y0124600D01*
X0113158Y0124600D01*
X0113531Y0124700D01*
X0113831Y0124400D01*
X0117208Y0124400D01*
X0117291Y0124483D01*
X0117375Y0124400D01*
X0120751Y0124400D01*
X0121051Y0124700D01*
X0121425Y0124600D01*
X0122000Y0124600D01*
X0121901Y0124360D01*
X0121901Y0123954D01*
X0121366Y0124176D01*
X0120216Y0124176D01*
X0119154Y0123736D01*
X0118803Y0123385D01*
X0113921Y0123385D01*
X0112691Y0122155D01*
X0110191Y0119655D01*
X0110191Y0115855D01*
X0105533Y0120513D01*
X0104303Y0121743D01*
X0103406Y0121743D01*
X0103476Y0122005D01*
X0103476Y0123187D01*
X0100323Y0123187D01*
X0100323Y0123187D01*
X0100323Y0125671D01*
X0102174Y0125671D01*
X0102206Y0125662D01*
X0102206Y0130111D01*
X0102372Y0130278D01*
X0102372Y0131531D01*
X0102092Y0131531D01*
X0098567Y0131531D01*
X0098567Y0130194D01*
X0098669Y0129812D01*
X0098867Y0129470D01*
X0099146Y0129191D01*
X0099488Y0128994D01*
X0099869Y0128891D01*
X0102092Y0128891D01*
X0102092Y0131531D01*
X0102092Y0131811D01*
X0098567Y0131811D01*
X0098567Y0133148D01*
X0098669Y0133529D01*
X0098867Y0133871D01*
X0099146Y0134151D01*
X0099488Y0134348D01*
X0099869Y0134450D01*
X0102092Y0134450D01*
X0102092Y0131811D01*
X0102372Y0131811D01*
X0102372Y0134450D01*
X0104595Y0134450D01*
X0104890Y0134372D01*
X0105184Y0134450D01*
X0106522Y0134450D01*
X0106522Y0131811D01*
X0106801Y0131811D01*
X0106801Y0134450D01*
X0108138Y0134450D01*
X0108433Y0134372D01*
X0108728Y0134450D01*
X0110065Y0134450D01*
X0110065Y0131811D01*
X0110344Y0131811D01*
X0110344Y0134450D01*
X0111682Y0134450D01*
X0111976Y0134372D01*
X0112271Y0134450D01*
X0113608Y0134450D01*
X0113608Y0131811D01*
X0113888Y0131811D01*
X0113888Y0134450D01*
X0115225Y0134450D01*
X0115520Y0134372D01*
X0115814Y0134450D01*
X0117152Y0134450D01*
X0117152Y0131811D01*
X0117431Y0131811D01*
X0117431Y0134450D01*
X0118768Y0134450D01*
X0119063Y0134372D01*
X0119358Y0134450D01*
X0120695Y0134450D01*
X0120695Y0131811D01*
X0120974Y0131811D01*
X0120974Y0134450D01*
X0122215Y0134450D01*
X0121901Y0135210D01*
X0121901Y0136360D01*
X0122341Y0137422D01*
X0123154Y0138236D01*
X0123538Y0138395D01*
X0123538Y0141408D01*
X0122571Y0141408D01*
X0122129Y0141850D01*
X0121886Y0141710D01*
X0121505Y0141608D01*
X0119445Y0141608D01*
X0119445Y0145561D01*
X0118445Y0145561D01*
X0115083Y0145561D01*
X0115083Y0142910D01*
X0115185Y0142529D01*
X0115382Y0142187D01*
X0115662Y0141908D01*
X0116004Y0141710D01*
X0116385Y0141608D01*
X0118445Y0141608D01*
X0118445Y0145561D01*
X0118445Y0146561D01*
X0118445Y0150513D01*
X0116385Y0150513D01*
X0116004Y0150411D01*
X0115662Y0150214D01*
X0115382Y0149934D01*
X0115185Y0149592D01*
X0115083Y0149211D01*
X0115083Y0146561D01*
X0118445Y0146561D01*
X0119445Y0146561D01*
X0119445Y0150513D01*
X0121505Y0150513D01*
X0121886Y0150411D01*
X0122129Y0150271D01*
X0122571Y0150713D01*
X0128704Y0150713D01*
X0129700Y0149718D01*
X0129700Y0142404D01*
X0128704Y0141408D01*
X0127738Y0141408D01*
X0127738Y0135762D01*
X0127682Y0135706D01*
X0127682Y0135210D01*
X0127367Y0134450D01*
X0127781Y0134450D01*
X0127781Y0131811D01*
X0127781Y0131531D01*
X0124518Y0131531D01*
X0124518Y0131811D01*
X0125142Y0131811D01*
X0127781Y0131811D01*
X0128061Y0131811D01*
X0128061Y0134450D01*
X0129398Y0134450D01*
X0129693Y0134372D01*
X0129988Y0134450D01*
X0132211Y0134450D01*
X0132211Y0131811D01*
X0132490Y0131811D01*
X0132490Y0134450D01*
X0134713Y0134450D01*
X0135095Y0134348D01*
X0135437Y0134151D01*
X0135716Y0133871D01*
X0135914Y0133529D01*
X0136016Y0133148D01*
X0136016Y0131811D01*
X0132490Y0131811D01*
X0132490Y0131531D01*
X0132490Y0128891D01*
X0134713Y0128891D01*
X0135095Y0128994D01*
X0135437Y0129191D01*
X0135716Y0129470D01*
X0135914Y0129812D01*
X0136016Y0130194D01*
X0136016Y0131531D01*
X0132490Y0131531D01*
X0132211Y0131531D01*
X0132211Y0128891D01*
X0132177Y0128891D01*
X0132177Y0127754D01*
X0129693Y0127754D01*
X0129693Y0127754D01*
X0132177Y0127754D01*
X0132177Y0125903D01*
X0132172Y0125885D01*
X0134161Y0125885D01*
X0134175Y0125871D01*
X0136618Y0125871D01*
X0136784Y0125704D01*
X0138037Y0125704D01*
X0138037Y0125984D01*
X0135398Y0125984D01*
X0135398Y0128207D01*
X0135500Y0128589D01*
X0135697Y0128931D01*
X0135977Y0129210D01*
X0136319Y0129407D01*
X0136700Y0129510D01*
X0138037Y0129510D01*
X0138037Y0125984D01*
X0138317Y0125984D01*
X0140957Y0125984D01*
X0140957Y0128207D01*
X0140854Y0128589D01*
X0140657Y0128931D01*
X0140378Y0129210D01*
X0140036Y0129407D01*
X0139654Y0129510D01*
X0138317Y0129510D01*
X0138317Y0125984D01*
X0138317Y0125704D01*
X0138317Y0122179D01*
X0138317Y0121555D01*
X0138037Y0121555D01*
X0138037Y0125704D01*
X0138317Y0125704D01*
X0140957Y0125704D01*
X0140957Y0123481D01*
X0140878Y0123187D01*
X0140957Y0122892D01*
X0140957Y0121555D01*
X0138317Y0121555D01*
X0138317Y0121275D01*
X0138317Y0118636D01*
X0138317Y0118012D01*
X0138037Y0118012D01*
X0138037Y0121275D01*
X0138317Y0121275D01*
X0140957Y0121275D01*
X0140957Y0119938D01*
X0140878Y0119643D01*
X0140957Y0119349D01*
X0140957Y0118012D01*
X0138317Y0118012D01*
X0138317Y0117732D01*
X0140957Y0117732D01*
X0140957Y0116395D01*
X0140878Y0116100D01*
X0140957Y0115805D01*
X0140957Y0114468D01*
X0138317Y0114468D01*
X0138317Y0114189D01*
X0140957Y0114189D01*
X0140957Y0112851D01*
X0140878Y0112557D01*
X0140957Y0112262D01*
X0140957Y0110925D01*
X0138317Y0110925D01*
X0138037Y0110925D01*
X0138037Y0114189D01*
X0138317Y0114189D01*
X0138317Y0111549D01*
X0138317Y0110925D01*
X0138317Y0110645D01*
X0138317Y0110021D01*
X0138317Y0107382D01*
X0138037Y0107382D01*
X0138037Y0110645D01*
X0138317Y0110645D01*
X0140957Y0110645D01*
X0140957Y0109308D01*
X0140878Y0109013D01*
X0140957Y0108719D01*
X0140957Y0107382D01*
X0138317Y0107382D01*
X0138317Y0107102D01*
X0140957Y0107102D01*
X0140957Y0105765D01*
X0140878Y0105470D01*
X0140957Y0105176D01*
X0140957Y0103838D01*
X0138317Y0103838D01*
X0138317Y0103559D01*
X0140957Y0103559D01*
X0140957Y0102221D01*
X0140878Y0101927D01*
X0140957Y0101632D01*
X0140957Y0100295D01*
X0138317Y0100295D01*
X0138317Y0100015D01*
X0138317Y0097376D01*
X0138317Y0095866D01*
X0138037Y0095866D01*
X0138037Y0095586D01*
X0135398Y0095586D01*
X0135398Y0093363D01*
X0135500Y0092982D01*
X0135697Y0092640D01*
X0135977Y0092360D01*
X0136319Y0092163D01*
X0136700Y0092061D01*
X0138037Y0092061D01*
X0138037Y0095586D01*
X0138317Y0095586D01*
X0138317Y0092061D01*
X0139654Y0092061D01*
X0140036Y0092163D01*
X0140378Y0092360D01*
X0140657Y0092640D01*
X0140854Y0092982D01*
X0140957Y0093363D01*
X0140957Y0095586D01*
X0138317Y0095586D01*
X0138317Y0095866D01*
X0140957Y0095866D01*
X0140957Y0098089D01*
X0140878Y0098384D01*
X0140957Y0098678D01*
X0140957Y0100015D01*
X0138317Y0100015D01*
X0138037Y0100015D01*
X0138037Y0095866D01*
X0136784Y0095866D01*
X0136618Y0095699D01*
X0132377Y0095699D01*
X0132377Y0091459D01*
X0132211Y0091292D01*
X0132211Y0090039D01*
X0132490Y0090039D01*
X0132490Y0092679D01*
X0134713Y0092679D01*
X0135095Y0092577D01*
X0135437Y0092379D01*
X0135716Y0092100D01*
X0135914Y0091758D01*
X0136016Y0091376D01*
X0136016Y0090039D01*
X0132490Y0090039D01*
X0132490Y0089760D01*
X0136016Y0089760D01*
X0136016Y0088422D01*
X0135914Y0088041D01*
X0135716Y0087699D01*
X0135437Y0087419D01*
X0135095Y0087222D01*
X0134713Y0087120D01*
X0132490Y0087120D01*
X0132490Y0089759D01*
X0132211Y0089759D01*
X0132211Y0087120D01*
X0129988Y0087120D01*
X0129693Y0087199D01*
X0129398Y0087120D01*
X0128061Y0087120D01*
X0128061Y0089759D01*
X0127781Y0089759D01*
X0127781Y0087120D01*
X0126444Y0087120D01*
X0126150Y0087199D01*
X0125855Y0087120D01*
X0124518Y0087120D01*
X0124518Y0089759D01*
X0124238Y0089759D01*
X0124238Y0087120D01*
X0122901Y0087120D01*
X0122606Y0087199D01*
X0122312Y0087120D01*
X0120974Y0087120D01*
X0120974Y0089759D01*
X0120695Y0089759D01*
X0120695Y0087120D01*
X0119358Y0087120D01*
X0119063Y0087199D01*
X0118768Y0087120D01*
X0117431Y0087120D01*
X0117431Y0089759D01*
X0117152Y0089759D01*
X0117152Y0087120D01*
X0115814Y0087120D01*
X0115520Y0087199D01*
X0115225Y0087120D01*
X0113888Y0087120D01*
X0113888Y0089759D01*
X0113608Y0089759D01*
X0113608Y0087120D01*
X0112271Y0087120D01*
X0111976Y0087199D01*
X0111682Y0087120D01*
X0110344Y0087120D01*
X0110344Y0089759D01*
X0110065Y0089759D01*
X0110065Y0087120D01*
X0108728Y0087120D01*
X0108433Y0087199D01*
X0108138Y0087120D01*
X0106801Y0087120D01*
X0106801Y0089759D01*
X0106522Y0089759D01*
X0106522Y0087120D01*
X0105184Y0087120D01*
X0104890Y0087199D01*
X0104595Y0087120D01*
X0102372Y0087120D01*
X0102372Y0089759D01*
X0102092Y0089759D01*
X0102092Y0087120D01*
X0099869Y0087120D01*
X0099488Y0087222D01*
X0099146Y0087419D01*
X0098867Y0087699D01*
X0098669Y0088041D01*
X0098567Y0088422D01*
X0098470Y0087708D02*
X0098861Y0087708D01*
X0099468Y0086709D02*
X0137291Y0086709D01*
X0137291Y0085711D02*
X0100467Y0085711D01*
X0101465Y0084712D02*
X0137291Y0084712D01*
X0137291Y0083714D02*
X0102464Y0083714D01*
X0105246Y0082715D02*
X0129337Y0082715D01*
X0128061Y0087708D02*
X0127781Y0087708D01*
X0127781Y0088706D02*
X0128061Y0088706D01*
X0128061Y0089705D02*
X0127781Y0089705D01*
X0127781Y0089760D02*
X0125142Y0089760D01*
X0124518Y0089760D01*
X0124518Y0090039D01*
X0127781Y0090039D01*
X0127781Y0089760D01*
X0128061Y0089760D02*
X0128061Y0090039D01*
X0132211Y0090039D01*
X0132211Y0089760D01*
X0128685Y0089760D01*
X0128061Y0089760D01*
X0124518Y0089705D02*
X0124238Y0089705D01*
X0124238Y0089760D02*
X0123614Y0089760D01*
X0120974Y0089760D01*
X0120974Y0090039D01*
X0124238Y0090039D01*
X0124238Y0089760D01*
X0124238Y0088706D02*
X0124518Y0088706D01*
X0124518Y0087708D02*
X0124238Y0087708D01*
X0120974Y0087708D02*
X0120695Y0087708D01*
X0120695Y0088706D02*
X0120974Y0088706D01*
X0120974Y0089705D02*
X0120695Y0089705D01*
X0120695Y0089760D02*
X0120071Y0089760D01*
X0117431Y0089760D01*
X0117431Y0090039D01*
X0120695Y0090039D01*
X0120695Y0089760D01*
X0117431Y0089705D02*
X0117152Y0089705D01*
X0117151Y0089760D02*
X0114512Y0089760D01*
X0113888Y0089760D01*
X0113888Y0090039D01*
X0117151Y0090039D01*
X0117151Y0089760D01*
X0117152Y0088706D02*
X0117431Y0088706D01*
X0117431Y0087708D02*
X0117152Y0087708D01*
X0113888Y0087708D02*
X0113608Y0087708D01*
X0113608Y0088706D02*
X0113888Y0088706D01*
X0113888Y0089705D02*
X0113608Y0089705D01*
X0113608Y0089760D02*
X0110969Y0089760D01*
X0110345Y0089760D01*
X0110345Y0090039D01*
X0113608Y0090039D01*
X0113608Y0089760D01*
X0110344Y0089705D02*
X0110065Y0089705D01*
X0110065Y0089760D02*
X0107425Y0089760D01*
X0106801Y0089760D01*
X0106801Y0090039D01*
X0110065Y0090039D01*
X0110065Y0089760D01*
X0110065Y0088706D02*
X0110344Y0088706D01*
X0110344Y0087708D02*
X0110065Y0087708D01*
X0106801Y0087708D02*
X0106522Y0087708D01*
X0106522Y0088706D02*
X0106801Y0088706D01*
X0106801Y0089705D02*
X0106522Y0089705D01*
X0106522Y0089760D02*
X0103882Y0089760D01*
X0102372Y0089760D01*
X0102372Y0090039D01*
X0106522Y0090039D01*
X0106522Y0089760D01*
X0102372Y0089705D02*
X0102092Y0089705D01*
X0102092Y0090703D02*
X0102372Y0090703D01*
X0102372Y0091702D02*
X0102092Y0091702D01*
X0102406Y0092700D02*
X0098920Y0092700D01*
X0098654Y0091702D02*
X0083410Y0091702D01*
X0084409Y0090703D02*
X0098567Y0090703D01*
X0098567Y0089705D02*
X0085407Y0089705D01*
X0081993Y0092700D02*
X0093891Y0092700D01*
X0093626Y0093699D02*
X0069303Y0093699D01*
X0069303Y0094697D02*
X0093626Y0094697D01*
X0093626Y0096694D02*
X0069303Y0096694D01*
X0069303Y0097693D02*
X0093626Y0097693D01*
X0093626Y0098691D02*
X0068987Y0098691D01*
X0067237Y0099262D02*
X0066241Y0100258D01*
X0066241Y0103832D01*
X0067237Y0104828D01*
X0072582Y0104828D01*
X0073578Y0103832D01*
X0073578Y0100258D01*
X0072582Y0099262D01*
X0067237Y0099262D01*
X0066809Y0099690D02*
X0062773Y0099690D01*
X0063342Y0100688D02*
X0066241Y0100688D01*
X0066241Y0101687D02*
X0063342Y0101687D01*
X0063342Y0102685D02*
X0066241Y0102685D01*
X0066241Y0103684D02*
X0063342Y0103684D01*
X0062791Y0104285D02*
X0062791Y0107285D01*
X0061791Y0106285D01*
X0058291Y0106285D01*
X0058291Y0105285D01*
X0061791Y0105285D01*
X0062791Y0104285D01*
X0062791Y0104682D02*
X0062394Y0104682D01*
X0063142Y0104682D02*
X0067092Y0104682D01*
X0066301Y0107678D02*
X0063281Y0107678D01*
X0063342Y0108676D02*
X0066241Y0108676D01*
X0066241Y0109675D02*
X0063342Y0109675D01*
X0063342Y0110673D02*
X0066241Y0110673D01*
X0066601Y0111672D02*
X0062982Y0111672D01*
X0063142Y0106679D02*
X0076123Y0106679D01*
X0076704Y0105681D02*
X0063142Y0105681D01*
X0062791Y0105681D02*
X0058291Y0105681D01*
X0062186Y0106679D02*
X0062791Y0106679D01*
X0056181Y0111672D02*
X0051551Y0111672D01*
X0051566Y0110673D02*
X0055144Y0110673D01*
X0054146Y0109675D02*
X0051458Y0109675D01*
X0051045Y0108676D02*
X0053162Y0108676D01*
X0052791Y0107678D02*
X0050230Y0107678D01*
X0048550Y0106679D02*
X0052791Y0106679D01*
X0052791Y0105681D02*
X0040991Y0105681D01*
X0040991Y0106679D02*
X0046033Y0106679D01*
X0046337Y0104760D02*
X0045727Y0104561D01*
X0045156Y0104270D01*
X0044637Y0103893D01*
X0044183Y0103440D01*
X0043806Y0102921D01*
X0043515Y0102349D01*
X0043317Y0101739D01*
X0043217Y0101106D01*
X0043217Y0101073D01*
X0047004Y0101073D01*
X0047004Y0104860D01*
X0046971Y0104860D01*
X0046337Y0104760D01*
X0046100Y0104682D02*
X0040991Y0104682D01*
X0040991Y0103684D02*
X0044427Y0103684D01*
X0043686Y0102685D02*
X0040991Y0102685D01*
X0040991Y0101687D02*
X0043309Y0101687D01*
X0043217Y0100498D02*
X0043217Y0100464D01*
X0043317Y0099831D01*
X0043515Y0099221D01*
X0043806Y0098649D01*
X0044183Y0098131D01*
X0044637Y0097677D01*
X0045156Y0097300D01*
X0045727Y0097009D01*
X0046337Y0096811D01*
X0046971Y0096710D01*
X0047004Y0096710D01*
X0047004Y0100498D01*
X0043217Y0100498D01*
X0043363Y0099690D02*
X0040991Y0099690D01*
X0040991Y0100688D02*
X0047004Y0100688D01*
X0047004Y0100498D02*
X0047004Y0101073D01*
X0047579Y0101073D01*
X0047579Y0104860D01*
X0047612Y0104860D01*
X0048246Y0104760D01*
X0048856Y0104561D01*
X0049427Y0104270D01*
X0049946Y0103893D01*
X0050399Y0103440D01*
X0050776Y0102921D01*
X0051068Y0102349D01*
X0051266Y0101739D01*
X0051366Y0101106D01*
X0051366Y0101073D01*
X0047579Y0101073D01*
X0047579Y0100498D01*
X0051366Y0100498D01*
X0051366Y0100464D01*
X0051266Y0099831D01*
X0051068Y0099221D01*
X0050776Y0098649D01*
X0050399Y0098131D01*
X0049946Y0097677D01*
X0049427Y0097300D01*
X0048856Y0097009D01*
X0048246Y0096811D01*
X0047612Y0096710D01*
X0047579Y0096710D01*
X0047579Y0100498D01*
X0047004Y0100498D01*
X0047579Y0100688D02*
X0052791Y0100688D01*
X0052791Y0099690D02*
X0051220Y0099690D01*
X0050798Y0098691D02*
X0052895Y0098691D01*
X0053502Y0097693D02*
X0049962Y0097693D01*
X0047579Y0097693D02*
X0047004Y0097693D01*
X0047004Y0098691D02*
X0047579Y0098691D01*
X0047579Y0099690D02*
X0047004Y0099690D01*
X0047004Y0101687D02*
X0047579Y0101687D01*
X0047579Y0102685D02*
X0047004Y0102685D01*
X0047004Y0103684D02*
X0047579Y0103684D01*
X0047579Y0104682D02*
X0047004Y0104682D01*
X0048483Y0104682D02*
X0052791Y0104682D01*
X0052791Y0103684D02*
X0050155Y0103684D01*
X0050896Y0102685D02*
X0052791Y0102685D01*
X0052791Y0101687D02*
X0051274Y0101687D01*
X0054500Y0096694D02*
X0040991Y0096694D01*
X0040991Y0095696D02*
X0055080Y0095696D01*
X0055080Y0094697D02*
X0049017Y0094697D01*
X0050423Y0093699D02*
X0055080Y0093699D01*
X0055492Y0092700D02*
X0051125Y0092700D01*
X0051539Y0091702D02*
X0058839Y0091702D01*
X0057974Y0090703D02*
X0059838Y0090703D01*
X0058973Y0089705D02*
X0060836Y0089705D01*
X0059971Y0088706D02*
X0061835Y0088706D01*
X0060970Y0087708D02*
X0080333Y0087708D01*
X0081332Y0086709D02*
X0061637Y0086709D01*
X0061845Y0085711D02*
X0082213Y0085711D01*
X0081157Y0084712D02*
X0078426Y0084712D01*
X0079129Y0083714D02*
X0080454Y0083714D01*
X0080454Y0082715D02*
X0079129Y0082715D01*
X0079129Y0081717D02*
X0080454Y0081717D01*
X0080454Y0080718D02*
X0079129Y0080718D01*
X0079129Y0079720D02*
X0080454Y0079720D01*
X0080454Y0078721D02*
X0079129Y0078721D01*
X0079129Y0077723D02*
X0080418Y0077723D01*
X0080238Y0076724D02*
X0079129Y0076724D01*
X0079129Y0075726D02*
X0080238Y0075726D01*
X0080238Y0074727D02*
X0079129Y0074727D01*
X0079129Y0073729D02*
X0080238Y0073729D01*
X0080238Y0072730D02*
X0079129Y0072730D01*
X0078890Y0071732D02*
X0080046Y0071732D01*
X0083138Y0068285D02*
X0083138Y0060785D01*
X0080938Y0064454D02*
X0080268Y0064454D01*
X0079791Y0063977D01*
X0079314Y0064454D01*
X0073575Y0064454D01*
X0072580Y0063458D01*
X0072580Y0062985D01*
X0069503Y0062985D01*
X0069503Y0063458D01*
X0068699Y0064262D01*
X0070082Y0064262D01*
X0071078Y0065258D01*
X0071078Y0068832D01*
X0070778Y0069132D01*
X0070878Y0069505D01*
X0070878Y0070744D01*
X0067451Y0070744D01*
X0067451Y0070826D01*
X0070878Y0070826D01*
X0070878Y0071625D01*
X0071547Y0071625D01*
X0071607Y0071565D01*
X0073552Y0071565D01*
X0073359Y0071454D01*
X0073079Y0071175D01*
X0072882Y0070833D01*
X0072780Y0070451D01*
X0072780Y0068769D01*
X0075961Y0068769D01*
X0075961Y0067801D01*
X0076929Y0067801D01*
X0076929Y0064817D01*
X0078808Y0064817D01*
X0079189Y0064919D01*
X0079531Y0065116D01*
X0079650Y0065235D01*
X0080268Y0064617D01*
X0080938Y0064617D01*
X0080938Y0064454D01*
X0080143Y0064742D02*
X0070562Y0064742D01*
X0071078Y0065740D02*
X0072881Y0065740D01*
X0072882Y0065738D02*
X0073079Y0065396D01*
X0073359Y0065116D01*
X0073701Y0064919D01*
X0074082Y0064817D01*
X0075961Y0064817D01*
X0075961Y0067801D01*
X0072780Y0067801D01*
X0072780Y0066119D01*
X0072882Y0065738D01*
X0072780Y0066739D02*
X0071078Y0066739D01*
X0071078Y0067737D02*
X0072780Y0067737D01*
X0071078Y0068736D02*
X0075961Y0068736D01*
X0075961Y0067737D02*
X0076929Y0067737D01*
X0076929Y0066739D02*
X0075961Y0066739D01*
X0075961Y0065740D02*
X0076929Y0065740D01*
X0072865Y0063743D02*
X0069217Y0063743D01*
X0065638Y0060785D02*
X0059378Y0067045D01*
X0057173Y0067045D01*
X0055374Y0070733D02*
X0049391Y0070733D01*
X0049391Y0069735D02*
X0054407Y0069735D01*
X0053505Y0068736D02*
X0049391Y0068736D01*
X0049391Y0067737D02*
X0053505Y0067737D01*
X0053505Y0066739D02*
X0049807Y0066739D01*
X0050806Y0065740D02*
X0053505Y0065740D01*
X0054021Y0064742D02*
X0051804Y0064742D01*
X0052803Y0063743D02*
X0055648Y0063743D01*
X0055579Y0063675D02*
X0055382Y0063333D01*
X0055280Y0062951D01*
X0055280Y0061269D01*
X0058461Y0061269D01*
X0058461Y0064254D01*
X0056582Y0064254D01*
X0056201Y0064151D01*
X0055859Y0063954D01*
X0055579Y0063675D01*
X0055280Y0062745D02*
X0053801Y0062745D01*
X0054800Y0061746D02*
X0055280Y0061746D01*
X0055798Y0060748D02*
X0058461Y0060748D01*
X0058461Y0061746D02*
X0059429Y0061746D01*
X0059429Y0062745D02*
X0058461Y0062745D01*
X0058461Y0063743D02*
X0059429Y0063743D01*
X0062901Y0069145D02*
X0060075Y0071972D01*
X0060842Y0072738D01*
X0060842Y0076312D01*
X0060073Y0077081D01*
X0060073Y0077117D01*
X0061814Y0077117D01*
X0062433Y0077735D01*
X0062551Y0077616D01*
X0062893Y0077419D01*
X0063275Y0077317D01*
X0065154Y0077317D01*
X0065154Y0080301D01*
X0066122Y0080301D01*
X0066122Y0077317D01*
X0066570Y0077317D01*
X0066549Y0077308D01*
X0064737Y0077308D01*
X0063741Y0076312D01*
X0063741Y0072738D01*
X0064041Y0072438D01*
X0063941Y0072065D01*
X0063941Y0070826D01*
X0067368Y0070826D01*
X0067368Y0070744D01*
X0063941Y0070744D01*
X0063941Y0069505D01*
X0064037Y0069145D01*
X0062901Y0069145D01*
X0062312Y0069735D02*
X0063941Y0069735D01*
X0063941Y0070733D02*
X0061313Y0070733D01*
X0060315Y0071732D02*
X0063941Y0071732D01*
X0063749Y0072730D02*
X0060833Y0072730D01*
X0060842Y0073729D02*
X0063741Y0073729D01*
X0063741Y0074727D02*
X0060842Y0074727D01*
X0060842Y0075726D02*
X0063741Y0075726D01*
X0064153Y0076724D02*
X0060430Y0076724D01*
X0062420Y0077723D02*
X0062445Y0077723D01*
X0065154Y0077723D02*
X0066122Y0077723D01*
X0066122Y0078721D02*
X0065154Y0078721D01*
X0065154Y0079720D02*
X0066122Y0079720D01*
X0066122Y0080718D02*
X0070611Y0080718D01*
X0070611Y0079720D02*
X0069303Y0079720D01*
X0069303Y0078721D02*
X0070611Y0078721D01*
X0070206Y0077723D02*
X0068830Y0077723D01*
X0069303Y0081717D02*
X0070611Y0081717D01*
X0070611Y0082715D02*
X0069303Y0082715D01*
X0068964Y0083714D02*
X0070611Y0083714D01*
X0071314Y0084712D02*
X0061845Y0084712D01*
X0065154Y0083714D02*
X0066122Y0083714D01*
X0066122Y0082715D02*
X0065154Y0082715D01*
X0065154Y0081717D02*
X0066122Y0081717D01*
X0055763Y0084712D02*
X0050960Y0084712D01*
X0050960Y0083714D02*
X0055335Y0083714D01*
X0055080Y0082715D02*
X0050960Y0082715D01*
X0050960Y0081717D02*
X0055080Y0081717D01*
X0054777Y0080718D02*
X0050550Y0080718D01*
X0050960Y0079720D02*
X0054327Y0079720D01*
X0054273Y0078721D02*
X0050960Y0078721D01*
X0050960Y0077723D02*
X0054273Y0077723D01*
X0053917Y0076724D02*
X0050960Y0076724D01*
X0050960Y0075726D02*
X0053505Y0075726D01*
X0053505Y0074727D02*
X0050960Y0074727D01*
X0050119Y0073729D02*
X0053505Y0073729D01*
X0053513Y0072730D02*
X0049391Y0072730D01*
X0049391Y0071732D02*
X0055073Y0071732D01*
X0046863Y0063743D02*
X0033391Y0063743D01*
X0034306Y0062745D02*
X0047862Y0062745D01*
X0048860Y0061746D02*
X0034306Y0061746D01*
X0034306Y0060748D02*
X0049859Y0060748D01*
X0050857Y0059749D02*
X0034306Y0059749D01*
X0034306Y0058751D02*
X0051856Y0058751D01*
X0052854Y0057752D02*
X0034306Y0057752D01*
X0034306Y0056754D02*
X0043507Y0056754D01*
X0042509Y0055755D02*
X0033367Y0055755D01*
X0034371Y0054757D02*
X0041510Y0054757D01*
X0040512Y0053758D02*
X0035561Y0053758D01*
X0036177Y0053241D02*
X0036177Y0053241D01*
X0036177Y0053241D01*
X0036456Y0052760D02*
X0039991Y0052760D01*
X0039991Y0051761D02*
X0037032Y0051761D01*
X0037609Y0050763D02*
X0039991Y0050763D01*
X0039991Y0049764D02*
X0038185Y0049764D01*
X0038192Y0049753D02*
X0038192Y0049753D01*
X0038366Y0048766D02*
X0039227Y0048766D01*
X0038525Y0043707D02*
X0038667Y0043364D01*
X0039870Y0042161D01*
X0041441Y0041510D01*
X0043142Y0041510D01*
X0044713Y0042161D01*
X0045915Y0043364D01*
X0046566Y0044935D01*
X0046566Y0046635D01*
X0045915Y0048207D01*
X0044713Y0049409D01*
X0044591Y0049459D01*
X0044591Y0051332D01*
X0045744Y0052485D01*
X0084339Y0052485D01*
X0092491Y0044332D01*
X0093839Y0042985D01*
X0136503Y0042985D01*
X0136654Y0042835D01*
X0137716Y0042395D01*
X0138866Y0042395D01*
X0139929Y0042835D01*
X0140742Y0043648D01*
X0141182Y0044710D01*
X0141182Y0045860D01*
X0141171Y0045885D01*
X0146368Y0045885D01*
X0147434Y0046327D01*
X0151493Y0050385D01*
X0153411Y0050385D01*
X0153401Y0050360D01*
X0153401Y0050002D01*
X0144982Y0042385D01*
X0086661Y0042385D01*
X0082391Y0046655D01*
X0081161Y0047885D01*
X0076048Y0047885D01*
X0075915Y0048207D01*
X0074713Y0049409D01*
X0073142Y0050060D01*
X0071441Y0050060D01*
X0069870Y0049409D01*
X0068667Y0048207D01*
X0068017Y0046635D01*
X0068017Y0044935D01*
X0068667Y0043364D01*
X0069870Y0042161D01*
X0071441Y0041510D01*
X0073142Y0041510D01*
X0074713Y0042161D01*
X0075915Y0043364D01*
X0076048Y0043685D01*
X0079421Y0043685D01*
X0083222Y0039885D01*
X0067161Y0039885D01*
X0064799Y0042247D01*
X0065915Y0043364D01*
X0066566Y0044935D01*
X0066566Y0046635D01*
X0065915Y0048207D01*
X0064713Y0049409D01*
X0063142Y0050060D01*
X0061441Y0050060D01*
X0059870Y0049409D01*
X0058667Y0048207D01*
X0058017Y0046635D01*
X0058017Y0044935D01*
X0058667Y0043364D01*
X0059870Y0042161D01*
X0060191Y0042028D01*
X0060191Y0040915D01*
X0063622Y0037485D01*
X0035172Y0037485D01*
X0036177Y0038329D01*
X0038192Y0041818D01*
X0038525Y0043707D01*
X0038360Y0042775D02*
X0039256Y0042775D01*
X0038192Y0041818D02*
X0038192Y0041818D01*
X0038168Y0041776D02*
X0040799Y0041776D01*
X0043784Y0041776D02*
X0051555Y0041776D01*
X0051337Y0041811D02*
X0051971Y0041710D01*
X0052004Y0041710D01*
X0052004Y0045498D01*
X0048217Y0045498D01*
X0048217Y0045464D01*
X0048317Y0044831D01*
X0048515Y0044221D01*
X0048806Y0043649D01*
X0049183Y0043131D01*
X0049637Y0042677D01*
X0050156Y0042300D01*
X0050727Y0042009D01*
X0051337Y0041811D01*
X0052004Y0041776D02*
X0052579Y0041776D01*
X0052579Y0041710D02*
X0052612Y0041710D01*
X0053246Y0041811D01*
X0053856Y0042009D01*
X0054427Y0042300D01*
X0054946Y0042677D01*
X0055399Y0043131D01*
X0055776Y0043649D01*
X0056068Y0044221D01*
X0056266Y0044831D01*
X0056366Y0045464D01*
X0056366Y0045498D01*
X0052579Y0045498D01*
X0052579Y0046073D01*
X0052004Y0046073D01*
X0052004Y0049860D01*
X0051971Y0049860D01*
X0051337Y0049760D01*
X0050727Y0049561D01*
X0050156Y0049270D01*
X0049637Y0048893D01*
X0049183Y0048440D01*
X0048806Y0047921D01*
X0048515Y0047349D01*
X0048317Y0046739D01*
X0048217Y0046106D01*
X0048217Y0046073D01*
X0052004Y0046073D01*
X0052004Y0045498D01*
X0052579Y0045498D01*
X0052579Y0041710D01*
X0053028Y0041776D02*
X0060191Y0041776D01*
X0060329Y0040778D02*
X0037591Y0040778D01*
X0037015Y0039779D02*
X0061327Y0039779D01*
X0062326Y0038781D02*
X0036438Y0038781D01*
X0036177Y0038329D02*
X0036177Y0038329D01*
X0035526Y0037782D02*
X0063324Y0037782D01*
X0066269Y0040778D02*
X0082329Y0040778D01*
X0081330Y0041776D02*
X0073784Y0041776D01*
X0075326Y0042775D02*
X0080332Y0042775D01*
X0083276Y0045770D02*
X0091054Y0045770D01*
X0092052Y0044772D02*
X0084275Y0044772D01*
X0085273Y0043773D02*
X0093051Y0043773D01*
X0090055Y0046769D02*
X0082278Y0046769D01*
X0081279Y0047767D02*
X0089057Y0047767D01*
X0088058Y0048766D02*
X0075356Y0048766D01*
X0073855Y0049764D02*
X0087059Y0049764D01*
X0086061Y0050763D02*
X0044591Y0050763D01*
X0044591Y0049764D02*
X0051367Y0049764D01*
X0052004Y0049764D02*
X0052579Y0049764D01*
X0052579Y0049860D02*
X0052579Y0046073D01*
X0056366Y0046073D01*
X0056366Y0046106D01*
X0056266Y0046739D01*
X0056068Y0047349D01*
X0055776Y0047921D01*
X0055399Y0048440D01*
X0054946Y0048893D01*
X0054427Y0049270D01*
X0053856Y0049561D01*
X0053246Y0049760D01*
X0052612Y0049860D01*
X0052579Y0049860D01*
X0053216Y0049764D02*
X0060727Y0049764D01*
X0059227Y0048766D02*
X0055073Y0048766D01*
X0055855Y0047767D02*
X0058485Y0047767D01*
X0058072Y0046769D02*
X0056256Y0046769D01*
X0056247Y0044772D02*
X0058084Y0044772D01*
X0058017Y0045770D02*
X0052579Y0045770D01*
X0052004Y0045770D02*
X0046566Y0045770D01*
X0046511Y0046769D02*
X0048326Y0046769D01*
X0048728Y0047767D02*
X0046097Y0047767D01*
X0045356Y0048766D02*
X0049509Y0048766D01*
X0052004Y0048766D02*
X0052579Y0048766D01*
X0052579Y0047767D02*
X0052004Y0047767D01*
X0052004Y0046769D02*
X0052579Y0046769D01*
X0052579Y0044772D02*
X0052004Y0044772D01*
X0052004Y0043773D02*
X0052579Y0043773D01*
X0052579Y0042775D02*
X0052004Y0042775D01*
X0049539Y0042775D02*
X0045326Y0042775D01*
X0046085Y0043773D02*
X0048743Y0043773D01*
X0048336Y0044772D02*
X0046499Y0044772D01*
X0045020Y0051761D02*
X0085062Y0051761D01*
X0086272Y0042775D02*
X0136799Y0042775D01*
X0139784Y0042775D02*
X0145413Y0042775D01*
X0146517Y0043773D02*
X0140794Y0043773D01*
X0141182Y0044772D02*
X0147620Y0044772D01*
X0148724Y0045770D02*
X0141182Y0045770D01*
X0144666Y0051761D02*
X0135369Y0051761D01*
X0135760Y0052760D02*
X0145665Y0052760D01*
X0146663Y0053758D02*
X0135760Y0053758D01*
X0128965Y0057752D02*
X0118391Y0057752D01*
X0118391Y0056754D02*
X0119163Y0056754D01*
X0118741Y0055755D02*
X0118391Y0055755D01*
X0118233Y0054757D02*
X0118741Y0054757D01*
X0118741Y0053758D02*
X0117234Y0053758D01*
X0116236Y0052760D02*
X0118741Y0052760D01*
X0118391Y0058751D02*
X0128634Y0058751D01*
X0128864Y0064742D02*
X0125148Y0064742D01*
X0125082Y0069262D02*
X0126078Y0070258D01*
X0126078Y0073832D01*
X0125082Y0074828D01*
X0119737Y0074828D01*
X0118741Y0073832D01*
X0118741Y0070258D01*
X0119737Y0069262D01*
X0125082Y0069262D01*
X0125554Y0069735D02*
X0128914Y0069735D01*
X0128925Y0069694D02*
X0129123Y0069352D01*
X0129402Y0069073D01*
X0129744Y0068876D01*
X0130125Y0068773D01*
X0131807Y0068773D01*
X0131807Y0071954D01*
X0128823Y0071954D01*
X0128823Y0070076D01*
X0128925Y0069694D01*
X0128823Y0070733D02*
X0126078Y0070733D01*
X0126078Y0071732D02*
X0128823Y0071732D01*
X0128823Y0073729D02*
X0126078Y0073729D01*
X0126078Y0072730D02*
X0131807Y0072730D01*
X0132776Y0072730D02*
X0139307Y0072730D01*
X0139307Y0071954D02*
X0136323Y0071954D01*
X0136323Y0070076D01*
X0136425Y0069694D01*
X0136623Y0069352D01*
X0136902Y0069073D01*
X0137244Y0068876D01*
X0137625Y0068773D01*
X0139307Y0068773D01*
X0139307Y0071954D01*
X0139307Y0071732D02*
X0140276Y0071732D01*
X0140276Y0070733D02*
X0139307Y0070733D01*
X0139307Y0069735D02*
X0140276Y0069735D01*
X0136414Y0069735D02*
X0135668Y0069735D01*
X0135658Y0069694D02*
X0135760Y0070076D01*
X0135760Y0071954D01*
X0132776Y0071954D01*
X0132776Y0068773D01*
X0134457Y0068773D01*
X0134839Y0068876D01*
X0135181Y0069073D01*
X0135460Y0069352D01*
X0135658Y0069694D01*
X0135760Y0070733D02*
X0136323Y0070733D01*
X0136323Y0071732D02*
X0135760Y0071732D01*
X0135760Y0073729D02*
X0136323Y0073729D01*
X0136323Y0074727D02*
X0135760Y0074727D01*
X0135423Y0075726D02*
X0136659Y0075726D01*
X0132776Y0071732D02*
X0131807Y0071732D01*
X0131807Y0070733D02*
X0132776Y0070733D01*
X0132776Y0069735D02*
X0131807Y0069735D01*
X0128823Y0074727D02*
X0125183Y0074727D01*
X0129159Y0075726D02*
X0118391Y0075726D01*
X0118391Y0076724D02*
X0121594Y0076724D01*
X0119636Y0074727D02*
X0118391Y0074727D01*
X0118391Y0073729D02*
X0118741Y0073729D01*
X0118741Y0072730D02*
X0118391Y0072730D01*
X0118741Y0071732D02*
X0117708Y0071732D01*
X0116709Y0070733D02*
X0118741Y0070733D01*
X0119265Y0069735D02*
X0115318Y0069735D01*
X0114912Y0064742D02*
X0119671Y0064742D01*
X0118741Y0063743D02*
X0116303Y0063743D01*
X0117301Y0062745D02*
X0118741Y0062745D01*
X0118741Y0061746D02*
X0118300Y0061746D01*
X0118391Y0060748D02*
X0118741Y0060748D01*
X0118391Y0059749D02*
X0119230Y0059749D01*
X0108705Y0058751D02*
X0105949Y0058751D01*
X0105618Y0057752D02*
X0108705Y0057752D01*
X0108772Y0056754D02*
X0105760Y0056754D01*
X0105719Y0064742D02*
X0109435Y0064742D01*
X0108505Y0073729D02*
X0105760Y0073729D01*
X0105760Y0074727D02*
X0108705Y0074727D01*
X0108705Y0075726D02*
X0105423Y0075726D01*
X0115437Y0081717D02*
X0119145Y0081717D01*
X0118741Y0080718D02*
X0116828Y0080718D01*
X0117827Y0079720D02*
X0118741Y0079720D01*
X0118741Y0078721D02*
X0118391Y0078721D01*
X0118391Y0077723D02*
X0118757Y0077723D01*
X0132211Y0087708D02*
X0132490Y0087708D01*
X0132490Y0088706D02*
X0132211Y0088706D01*
X0132211Y0089705D02*
X0132490Y0089705D01*
X0132490Y0090703D02*
X0132211Y0090703D01*
X0132377Y0091702D02*
X0132490Y0091702D01*
X0132377Y0092700D02*
X0135662Y0092700D01*
X0135398Y0093699D02*
X0132377Y0093699D01*
X0132377Y0094697D02*
X0135398Y0094697D01*
X0138037Y0094697D02*
X0138317Y0094697D01*
X0138317Y0093699D02*
X0138037Y0093699D01*
X0138037Y0092700D02*
X0138317Y0092700D01*
X0138122Y0090703D02*
X0136016Y0090703D01*
X0136016Y0089705D02*
X0137251Y0089705D01*
X0136901Y0088706D02*
X0136016Y0088706D01*
X0135721Y0087708D02*
X0136902Y0087708D01*
X0139791Y0088285D02*
X0146791Y0088285D01*
X0148945Y0090285D01*
X0148945Y0097785D01*
X0145080Y0097693D02*
X0140957Y0097693D01*
X0140957Y0098691D02*
X0145080Y0098691D01*
X0145080Y0099690D02*
X0140957Y0099690D01*
X0140957Y0100688D02*
X0145310Y0100688D01*
X0146201Y0101919D02*
X0146582Y0101817D01*
X0148461Y0101817D01*
X0148461Y0104801D01*
X0145280Y0104801D01*
X0145280Y0103119D01*
X0145382Y0102738D01*
X0145579Y0102396D01*
X0145859Y0102116D01*
X0146201Y0101919D01*
X0145412Y0102685D02*
X0140957Y0102685D01*
X0140942Y0101687D02*
X0152698Y0101687D01*
X0149429Y0102685D02*
X0148461Y0102685D01*
X0148461Y0103684D02*
X0149429Y0103684D01*
X0149429Y0104682D02*
X0148461Y0104682D01*
X0148461Y0105681D02*
X0140934Y0105681D01*
X0140957Y0106679D02*
X0145280Y0106679D01*
X0145280Y0107451D02*
X0145280Y0105769D01*
X0148461Y0105769D01*
X0148461Y0108754D01*
X0146582Y0108754D01*
X0146201Y0108651D01*
X0145859Y0108454D01*
X0145579Y0108175D01*
X0145382Y0107833D01*
X0145280Y0107451D01*
X0145340Y0107678D02*
X0140957Y0107678D01*
X0140957Y0108676D02*
X0146294Y0108676D01*
X0148461Y0108676D02*
X0149429Y0108676D01*
X0149429Y0107678D02*
X0148461Y0107678D01*
X0148461Y0106679D02*
X0149429Y0106679D01*
X0151596Y0108676D02*
X0152491Y0108676D01*
X0152915Y0109675D02*
X0140957Y0109675D01*
X0140957Y0111672D02*
X0153237Y0111672D01*
X0152901Y0110673D02*
X0138317Y0110673D01*
X0138317Y0109675D02*
X0138037Y0109675D01*
X0138037Y0108676D02*
X0138317Y0108676D01*
X0138317Y0107678D02*
X0138037Y0107678D01*
X0138037Y0107102D02*
X0138317Y0107102D01*
X0138317Y0104462D01*
X0138317Y0103838D01*
X0138037Y0103838D01*
X0138037Y0107102D01*
X0138037Y0106679D02*
X0138317Y0106679D01*
X0138317Y0105681D02*
X0138037Y0105681D01*
X0138037Y0104682D02*
X0138317Y0104682D01*
X0138317Y0103684D02*
X0145280Y0103684D01*
X0145280Y0104682D02*
X0140957Y0104682D01*
X0138317Y0103559D02*
X0138317Y0100919D01*
X0138317Y0100295D01*
X0138037Y0100295D01*
X0138037Y0103559D01*
X0138317Y0103559D01*
X0138317Y0102685D02*
X0138037Y0102685D01*
X0138037Y0101687D02*
X0138317Y0101687D01*
X0138317Y0100688D02*
X0138037Y0100688D01*
X0138037Y0099690D02*
X0138317Y0099690D01*
X0138317Y0098691D02*
X0138037Y0098691D01*
X0138037Y0097693D02*
X0138317Y0097693D01*
X0138317Y0096694D02*
X0138037Y0096694D01*
X0138037Y0095696D02*
X0132377Y0095696D01*
X0127207Y0096970D02*
X0126150Y0096970D01*
X0126150Y0093817D01*
X0126150Y0093817D01*
X0126150Y0096970D01*
X0124968Y0096970D01*
X0124864Y0096942D01*
X0125182Y0097710D01*
X0125182Y0098860D01*
X0124742Y0099922D01*
X0123929Y0100736D01*
X0122866Y0101176D01*
X0121716Y0101176D01*
X0121163Y0100946D01*
X0121163Y0103383D01*
X0117891Y0106655D01*
X0117891Y0113297D01*
X0118242Y0113648D01*
X0118682Y0114710D01*
X0118682Y0115860D01*
X0118242Y0116922D01*
X0117429Y0117736D01*
X0116366Y0118176D01*
X0115216Y0118176D01*
X0114391Y0117834D01*
X0114391Y0117915D01*
X0115661Y0119185D01*
X0118803Y0119185D01*
X0119154Y0118835D01*
X0120216Y0118395D01*
X0121366Y0118395D01*
X0121847Y0118594D01*
X0121491Y0118238D01*
X0121491Y0103332D01*
X0122839Y0101985D01*
X0126901Y0097923D01*
X0126901Y0097710D01*
X0127207Y0096970D01*
X0126908Y0097693D02*
X0125175Y0097693D01*
X0125182Y0098691D02*
X0126132Y0098691D01*
X0125134Y0099690D02*
X0124838Y0099690D01*
X0124135Y0100688D02*
X0123976Y0100688D01*
X0123137Y0101687D02*
X0121163Y0101687D01*
X0121163Y0102685D02*
X0122138Y0102685D01*
X0121491Y0103684D02*
X0120862Y0103684D01*
X0121491Y0104682D02*
X0119864Y0104682D01*
X0118865Y0105681D02*
X0121491Y0105681D01*
X0121491Y0106679D02*
X0117891Y0106679D01*
X0117891Y0107678D02*
X0121491Y0107678D01*
X0121491Y0108676D02*
X0117891Y0108676D01*
X0117891Y0109675D02*
X0121491Y0109675D01*
X0121491Y0110673D02*
X0117891Y0110673D01*
X0117891Y0111672D02*
X0121491Y0111672D01*
X0121491Y0112670D02*
X0117891Y0112670D01*
X0118251Y0113669D02*
X0121491Y0113669D01*
X0121491Y0114668D02*
X0118664Y0114668D01*
X0118682Y0115666D02*
X0121491Y0115666D01*
X0121491Y0116665D02*
X0118349Y0116665D01*
X0117501Y0117663D02*
X0121491Y0117663D01*
X0119572Y0118662D02*
X0115138Y0118662D01*
X0112193Y0121657D02*
X0104389Y0121657D01*
X0103476Y0122656D02*
X0113192Y0122656D01*
X0113354Y0124653D02*
X0113579Y0124653D01*
X0111976Y0124653D02*
X0111976Y0124653D01*
X0111976Y0125651D02*
X0111976Y0125651D01*
X0111976Y0126650D02*
X0111976Y0126650D01*
X0111976Y0127648D02*
X0111976Y0127648D01*
X0110345Y0131531D02*
X0110345Y0131811D01*
X0112984Y0131811D01*
X0113608Y0131811D01*
X0113608Y0131531D01*
X0110345Y0131531D01*
X0110345Y0131642D02*
X0113608Y0131642D01*
X0113888Y0131642D02*
X0117151Y0131642D01*
X0117151Y0131531D02*
X0117151Y0131811D01*
X0116528Y0131811D01*
X0113888Y0131811D01*
X0113888Y0131531D01*
X0117151Y0131531D01*
X0117431Y0131531D02*
X0117431Y0131811D01*
X0120071Y0131811D01*
X0120695Y0131811D01*
X0120695Y0131531D01*
X0117431Y0131531D01*
X0117431Y0131642D02*
X0120695Y0131642D01*
X0120974Y0131642D02*
X0124238Y0131642D01*
X0124238Y0131531D02*
X0124238Y0131811D01*
X0123614Y0131811D01*
X0120974Y0131811D01*
X0120974Y0131531D01*
X0124238Y0131531D01*
X0124518Y0131642D02*
X0127781Y0131642D01*
X0128061Y0131642D02*
X0132211Y0131642D01*
X0132211Y0131531D02*
X0132211Y0131811D01*
X0130701Y0131811D01*
X0128061Y0131811D01*
X0128061Y0131531D01*
X0132211Y0131531D01*
X0132490Y0131642D02*
X0140491Y0131642D01*
X0140491Y0130644D02*
X0136016Y0130644D01*
X0135817Y0129645D02*
X0140679Y0129645D01*
X0140821Y0128647D02*
X0141677Y0128647D01*
X0140957Y0127648D02*
X0142676Y0127648D01*
X0143674Y0126650D02*
X0140957Y0126650D01*
X0140957Y0125651D02*
X0145080Y0125651D01*
X0146039Y0124653D02*
X0140957Y0124653D01*
X0140957Y0123654D02*
X0146491Y0123654D01*
X0146023Y0122656D02*
X0140957Y0122656D01*
X0140957Y0121657D02*
X0145901Y0121657D01*
X0146129Y0120659D02*
X0140957Y0120659D01*
X0140882Y0119660D02*
X0146829Y0119660D01*
X0150754Y0119660D02*
X0157232Y0119660D01*
X0156901Y0118662D02*
X0140957Y0118662D01*
X0140957Y0117663D02*
X0156920Y0117663D01*
X0157083Y0116665D02*
X0140957Y0116665D01*
X0140957Y0115666D02*
X0156235Y0115666D01*
X0155901Y0114668D02*
X0140957Y0114668D01*
X0140957Y0113669D02*
X0155918Y0113669D01*
X0154089Y0112670D02*
X0140908Y0112670D01*
X0138317Y0112670D02*
X0138037Y0112670D01*
X0138037Y0111672D02*
X0138317Y0111672D01*
X0138317Y0113669D02*
X0138037Y0113669D01*
X0138037Y0114468D02*
X0138037Y0117732D01*
X0138317Y0117732D01*
X0138317Y0115092D01*
X0138317Y0114468D01*
X0138037Y0114468D01*
X0138037Y0114668D02*
X0138317Y0114668D01*
X0138317Y0115666D02*
X0138037Y0115666D01*
X0138037Y0116665D02*
X0138317Y0116665D01*
X0138317Y0117663D02*
X0138037Y0117663D01*
X0138037Y0118662D02*
X0138317Y0118662D01*
X0138317Y0119660D02*
X0138037Y0119660D01*
X0138037Y0120659D02*
X0138317Y0120659D01*
X0138317Y0121657D02*
X0138037Y0121657D01*
X0138037Y0122656D02*
X0138317Y0122656D01*
X0138317Y0123654D02*
X0138037Y0123654D01*
X0138037Y0124653D02*
X0138317Y0124653D01*
X0138317Y0125651D02*
X0138037Y0125651D01*
X0138037Y0126650D02*
X0138317Y0126650D01*
X0138317Y0127648D02*
X0138037Y0127648D01*
X0138037Y0128647D02*
X0138317Y0128647D01*
X0135533Y0128647D02*
X0132177Y0128647D01*
X0132211Y0129645D02*
X0132490Y0129645D01*
X0132490Y0130644D02*
X0132211Y0130644D01*
X0132211Y0132641D02*
X0132490Y0132641D01*
X0132490Y0133639D02*
X0132211Y0133639D01*
X0135850Y0133639D02*
X0140491Y0133639D01*
X0140491Y0132641D02*
X0136016Y0132641D01*
X0140491Y0134638D02*
X0127445Y0134638D01*
X0127682Y0135636D02*
X0140491Y0135636D01*
X0140491Y0136635D02*
X0127738Y0136635D01*
X0127738Y0137633D02*
X0140491Y0137633D01*
X0140491Y0138632D02*
X0127738Y0138632D01*
X0127738Y0139630D02*
X0140491Y0139630D01*
X0140491Y0140629D02*
X0127738Y0140629D01*
X0128924Y0141627D02*
X0140491Y0141627D01*
X0140491Y0142626D02*
X0129700Y0142626D01*
X0129700Y0143624D02*
X0140491Y0143624D01*
X0140491Y0144623D02*
X0138116Y0144623D01*
X0138158Y0144694D02*
X0138260Y0145076D01*
X0138260Y0146954D01*
X0135276Y0146954D01*
X0135276Y0143773D01*
X0136957Y0143773D01*
X0137339Y0143876D01*
X0137681Y0144073D01*
X0137960Y0144352D01*
X0138158Y0144694D01*
X0138260Y0145621D02*
X0140491Y0145621D01*
X0140491Y0146620D02*
X0138260Y0146620D01*
X0138260Y0148617D02*
X0139707Y0148617D01*
X0140491Y0147618D02*
X0135276Y0147618D01*
X0134307Y0147618D02*
X0129700Y0147618D01*
X0129700Y0146620D02*
X0131323Y0146620D01*
X0131323Y0146954D02*
X0131323Y0145076D01*
X0131425Y0144694D01*
X0131623Y0144352D01*
X0131902Y0144073D01*
X0132244Y0143876D01*
X0132625Y0143773D01*
X0134307Y0143773D01*
X0134307Y0146954D01*
X0131323Y0146954D01*
X0131323Y0145621D02*
X0129700Y0145621D01*
X0129700Y0144623D02*
X0131466Y0144623D01*
X0134307Y0144623D02*
X0135276Y0144623D01*
X0135276Y0145621D02*
X0134307Y0145621D01*
X0134307Y0146620D02*
X0135276Y0146620D01*
X0138260Y0149615D02*
X0138708Y0149615D01*
X0142218Y0152611D02*
X0148067Y0152611D01*
X0148067Y0152131D02*
X0149035Y0152131D01*
X0149035Y0148360D01*
X0149568Y0148360D01*
X0148623Y0147414D01*
X0148623Y0140494D01*
X0149619Y0139499D01*
X0150191Y0139499D01*
X0150191Y0139254D01*
X0149429Y0139254D01*
X0149429Y0136269D01*
X0148461Y0136269D01*
X0148461Y0135301D01*
X0149429Y0135301D01*
X0149429Y0132317D01*
X0151308Y0132317D01*
X0151689Y0132419D01*
X0152031Y0132616D01*
X0152150Y0132735D01*
X0152768Y0132117D01*
X0153538Y0132117D01*
X0153538Y0131954D01*
X0152768Y0131954D01*
X0152291Y0131477D01*
X0151814Y0131954D01*
X0146075Y0131954D01*
X0145475Y0131354D01*
X0145091Y0131738D01*
X0145091Y0149630D01*
X0145185Y0149281D01*
X0145382Y0148939D01*
X0145662Y0148660D01*
X0146004Y0148462D01*
X0146385Y0148360D01*
X0148067Y0148360D01*
X0148067Y0152131D01*
X0148067Y0151612D02*
X0149035Y0151612D01*
X0149035Y0150614D02*
X0148067Y0150614D01*
X0148067Y0149615D02*
X0149035Y0149615D01*
X0149035Y0148617D02*
X0148067Y0148617D01*
X0148827Y0147618D02*
X0145091Y0147618D01*
X0145091Y0146620D02*
X0148623Y0146620D01*
X0148623Y0145621D02*
X0145091Y0145621D01*
X0145091Y0144623D02*
X0148623Y0144623D01*
X0148623Y0143624D02*
X0145091Y0143624D01*
X0145091Y0142626D02*
X0148623Y0142626D01*
X0148623Y0141627D02*
X0145091Y0141627D01*
X0145091Y0140629D02*
X0148623Y0140629D01*
X0149487Y0139630D02*
X0145091Y0139630D01*
X0145091Y0138632D02*
X0145555Y0138632D01*
X0145579Y0138675D02*
X0145382Y0138333D01*
X0145280Y0137951D01*
X0145280Y0136269D01*
X0148461Y0136269D01*
X0148461Y0139254D01*
X0146582Y0139254D01*
X0146201Y0139151D01*
X0145859Y0138954D01*
X0145579Y0138675D01*
X0145280Y0137633D02*
X0145091Y0137633D01*
X0145091Y0136635D02*
X0145280Y0136635D01*
X0145091Y0135636D02*
X0148461Y0135636D01*
X0148461Y0135301D02*
X0145280Y0135301D01*
X0145280Y0133619D01*
X0145382Y0133238D01*
X0145579Y0132896D01*
X0145859Y0132616D01*
X0146201Y0132419D01*
X0146582Y0132317D01*
X0148461Y0132317D01*
X0148461Y0135301D01*
X0148461Y0134638D02*
X0149429Y0134638D01*
X0149429Y0133639D02*
X0148461Y0133639D01*
X0148461Y0132641D02*
X0149429Y0132641D01*
X0152056Y0132641D02*
X0152244Y0132641D01*
X0152126Y0131642D02*
X0152457Y0131642D01*
X0149429Y0136635D02*
X0148461Y0136635D01*
X0148461Y0137633D02*
X0149429Y0137633D01*
X0149429Y0138632D02*
X0148461Y0138632D01*
X0145280Y0134638D02*
X0145091Y0134638D01*
X0145091Y0133639D02*
X0145280Y0133639D01*
X0145091Y0132641D02*
X0145834Y0132641D01*
X0145764Y0131642D02*
X0145187Y0131642D01*
X0151850Y0124653D02*
X0152522Y0124653D01*
X0152401Y0123654D02*
X0151091Y0123654D01*
X0151559Y0122656D02*
X0152630Y0122656D01*
X0153331Y0121657D02*
X0151682Y0121657D01*
X0151453Y0120659D02*
X0158077Y0120659D01*
X0157251Y0121657D02*
X0170591Y0121657D01*
X0170591Y0120659D02*
X0161506Y0120659D01*
X0162351Y0119660D02*
X0170591Y0119660D01*
X0170591Y0118662D02*
X0162682Y0118662D01*
X0163383Y0117663D02*
X0170591Y0117663D01*
X0170591Y0116665D02*
X0164382Y0116665D01*
X0165380Y0115666D02*
X0170591Y0115666D01*
X0170591Y0114668D02*
X0166379Y0114668D01*
X0167377Y0113669D02*
X0170591Y0113669D01*
X0170591Y0112670D02*
X0167391Y0112670D01*
X0167391Y0111672D02*
X0170591Y0111672D01*
X0170591Y0110673D02*
X0167391Y0110673D01*
X0167391Y0109675D02*
X0170591Y0109675D01*
X0170591Y0108676D02*
X0167391Y0108676D01*
X0167391Y0107678D02*
X0170591Y0107678D01*
X0170591Y0106679D02*
X0167391Y0106679D01*
X0167391Y0105681D02*
X0170591Y0105681D01*
X0170591Y0104682D02*
X0167391Y0104682D01*
X0167391Y0103684D02*
X0170591Y0103684D01*
X0170591Y0102685D02*
X0167391Y0102685D01*
X0167391Y0101687D02*
X0170591Y0101687D01*
X0170591Y0100688D02*
X0167391Y0100688D01*
X0167391Y0099690D02*
X0170591Y0099690D01*
X0170591Y0098691D02*
X0167391Y0098691D01*
X0167391Y0097693D02*
X0170591Y0097693D01*
X0170591Y0096694D02*
X0167391Y0096694D01*
X0167391Y0095696D02*
X0170591Y0095696D01*
X0170591Y0094697D02*
X0167391Y0094697D01*
X0167391Y0093699D02*
X0170094Y0093699D01*
X0169095Y0092700D02*
X0166676Y0092700D01*
X0165678Y0091702D02*
X0168097Y0091702D01*
X0167098Y0090703D02*
X0164679Y0090703D01*
X0164180Y0089705D02*
X0166100Y0089705D01*
X0165101Y0088706D02*
X0163766Y0088706D01*
X0164103Y0087708D02*
X0162622Y0087708D01*
X0163104Y0086709D02*
X0158600Y0086709D01*
X0159503Y0087708D02*
X0159960Y0087708D01*
X0162106Y0085711D02*
X0157391Y0085711D01*
X0157391Y0084712D02*
X0160131Y0084712D01*
X0159547Y0083714D02*
X0157391Y0083714D01*
X0158331Y0082715D02*
X0159401Y0082715D01*
X0159605Y0081717D02*
X0158391Y0081717D01*
X0158391Y0080718D02*
X0160091Y0080718D01*
X0160091Y0079720D02*
X0158391Y0079720D01*
X0158391Y0078721D02*
X0160091Y0078721D01*
X0160091Y0077723D02*
X0158391Y0077723D01*
X0158391Y0076724D02*
X0160091Y0076724D01*
X0160091Y0075726D02*
X0158391Y0075726D01*
X0158391Y0074727D02*
X0160091Y0074727D01*
X0160091Y0073729D02*
X0158391Y0073729D01*
X0158391Y0072730D02*
X0160091Y0072730D01*
X0159973Y0071732D02*
X0158821Y0071732D01*
X0164491Y0072086D02*
X0164491Y0080897D01*
X0164742Y0081148D01*
X0165182Y0082210D01*
X0165182Y0082564D01*
X0174822Y0092205D01*
X0174822Y0074535D01*
X0175791Y0073566D01*
X0175791Y0037485D01*
X0150961Y0037485D01*
X0152371Y0038895D01*
X0152866Y0038895D01*
X0153929Y0039335D01*
X0154742Y0040148D01*
X0155182Y0041210D01*
X0155182Y0042360D01*
X0154742Y0043422D01*
X0153929Y0044236D01*
X0153489Y0044418D01*
X0156227Y0046895D01*
X0156866Y0046895D01*
X0157929Y0047335D01*
X0158742Y0048148D01*
X0159182Y0049210D01*
X0159182Y0050360D01*
X0159171Y0050385D01*
X0160868Y0050385D01*
X0161934Y0050827D01*
X0162750Y0051642D01*
X0165724Y0054617D01*
X0166814Y0054617D01*
X0167433Y0055235D01*
X0167551Y0055116D01*
X0167893Y0054919D01*
X0168275Y0054817D01*
X0170154Y0054817D01*
X0170154Y0057801D01*
X0171122Y0057801D01*
X0171122Y0058769D01*
X0174303Y0058769D01*
X0174303Y0060451D01*
X0174201Y0060833D01*
X0174003Y0061175D01*
X0173724Y0061454D01*
X0173382Y0061651D01*
X0173001Y0061754D01*
X0171122Y0061754D01*
X0171122Y0058769D01*
X0170154Y0058769D01*
X0170154Y0061754D01*
X0168275Y0061754D01*
X0167893Y0061651D01*
X0167551Y0061454D01*
X0167433Y0061335D01*
X0166845Y0061923D01*
X0166845Y0062147D01*
X0167433Y0062735D01*
X0167551Y0062616D01*
X0167893Y0062419D01*
X0168275Y0062317D01*
X0170154Y0062317D01*
X0170154Y0065301D01*
X0171122Y0065301D01*
X0171122Y0066269D01*
X0174303Y0066269D01*
X0174303Y0067951D01*
X0174201Y0068333D01*
X0174003Y0068675D01*
X0173724Y0068954D01*
X0173382Y0069151D01*
X0173001Y0069254D01*
X0171122Y0069254D01*
X0171122Y0066269D01*
X0170154Y0066269D01*
X0170154Y0069254D01*
X0169796Y0069254D01*
X0170191Y0070208D01*
X0170191Y0071362D01*
X0169750Y0072428D01*
X0168934Y0073244D01*
X0167868Y0073685D01*
X0166714Y0073685D01*
X0165649Y0073244D01*
X0164491Y0072086D01*
X0164491Y0072730D02*
X0165135Y0072730D01*
X0164491Y0073729D02*
X0175629Y0073729D01*
X0175791Y0072730D02*
X0169448Y0072730D01*
X0170038Y0071732D02*
X0175791Y0071732D01*
X0175791Y0070733D02*
X0170191Y0070733D01*
X0169995Y0069735D02*
X0175791Y0069735D01*
X0175791Y0068736D02*
X0173942Y0068736D01*
X0174303Y0067737D02*
X0175791Y0067737D01*
X0175791Y0066739D02*
X0174303Y0066739D01*
X0174303Y0065301D02*
X0171122Y0065301D01*
X0171122Y0062317D01*
X0173001Y0062317D01*
X0173382Y0062419D01*
X0173724Y0062616D01*
X0174003Y0062896D01*
X0174201Y0063238D01*
X0174303Y0063619D01*
X0174303Y0065301D01*
X0174303Y0064742D02*
X0175791Y0064742D01*
X0175791Y0065740D02*
X0171122Y0065740D01*
X0171122Y0064742D02*
X0170154Y0064742D01*
X0170154Y0063743D02*
X0171122Y0063743D01*
X0171122Y0062745D02*
X0170154Y0062745D01*
X0170154Y0061746D02*
X0171122Y0061746D01*
X0171122Y0060748D02*
X0170154Y0060748D01*
X0170154Y0059749D02*
X0171122Y0059749D01*
X0171122Y0058751D02*
X0175791Y0058751D01*
X0175791Y0059749D02*
X0174303Y0059749D01*
X0174224Y0060748D02*
X0175791Y0060748D01*
X0175791Y0061746D02*
X0173027Y0061746D01*
X0173853Y0062745D02*
X0175791Y0062745D01*
X0175791Y0063743D02*
X0174303Y0063743D01*
X0171122Y0066739D02*
X0170154Y0066739D01*
X0170154Y0067737D02*
X0171122Y0067737D01*
X0171122Y0068736D02*
X0170154Y0068736D01*
X0168248Y0061746D02*
X0167022Y0061746D01*
X0170154Y0057752D02*
X0171122Y0057752D01*
X0171122Y0057801D02*
X0171122Y0054817D01*
X0173001Y0054817D01*
X0173382Y0054919D01*
X0173724Y0055116D01*
X0174003Y0055396D01*
X0174201Y0055738D01*
X0174303Y0056119D01*
X0174303Y0057801D01*
X0171122Y0057801D01*
X0171122Y0056754D02*
X0170154Y0056754D01*
X0170154Y0055755D02*
X0171122Y0055755D01*
X0174206Y0055755D02*
X0175791Y0055755D01*
X0175791Y0054757D02*
X0166955Y0054757D01*
X0164866Y0053758D02*
X0175791Y0053758D01*
X0175791Y0052760D02*
X0163867Y0052760D01*
X0162869Y0051761D02*
X0175791Y0051761D01*
X0175791Y0050763D02*
X0161780Y0050763D01*
X0159182Y0049764D02*
X0175791Y0049764D01*
X0175791Y0048766D02*
X0158998Y0048766D01*
X0158361Y0047767D02*
X0175791Y0047767D01*
X0175791Y0046769D02*
X0156087Y0046769D01*
X0154984Y0045770D02*
X0175791Y0045770D01*
X0175791Y0044772D02*
X0153880Y0044772D01*
X0154391Y0043773D02*
X0175791Y0043773D01*
X0175791Y0042775D02*
X0155010Y0042775D01*
X0155182Y0041776D02*
X0175791Y0041776D01*
X0175791Y0040778D02*
X0155003Y0040778D01*
X0154373Y0039779D02*
X0175791Y0039779D01*
X0175791Y0038781D02*
X0152257Y0038781D01*
X0151258Y0037782D02*
X0175791Y0037782D01*
X0175791Y0056754D02*
X0174303Y0056754D01*
X0174303Y0057752D02*
X0175791Y0057752D01*
X0174822Y0074727D02*
X0164491Y0074727D01*
X0164491Y0075726D02*
X0174822Y0075726D01*
X0174822Y0076724D02*
X0164491Y0076724D01*
X0164491Y0077723D02*
X0174822Y0077723D01*
X0174822Y0078721D02*
X0164491Y0078721D01*
X0164491Y0079720D02*
X0174822Y0079720D01*
X0174822Y0080718D02*
X0164491Y0080718D01*
X0164977Y0081717D02*
X0174822Y0081717D01*
X0174822Y0082715D02*
X0165333Y0082715D01*
X0166331Y0083714D02*
X0174822Y0083714D01*
X0174822Y0084712D02*
X0167330Y0084712D01*
X0168328Y0085711D02*
X0174822Y0085711D01*
X0174822Y0086709D02*
X0169327Y0086709D01*
X0170325Y0087708D02*
X0174822Y0087708D01*
X0174822Y0088706D02*
X0171324Y0088706D01*
X0172322Y0089705D02*
X0174822Y0089705D01*
X0174822Y0090703D02*
X0173321Y0090703D01*
X0174319Y0091702D02*
X0174822Y0091702D01*
X0159191Y0101687D02*
X0158578Y0101687D01*
X0145080Y0096694D02*
X0140957Y0096694D01*
X0140957Y0094697D02*
X0145495Y0094697D01*
X0145821Y0093699D02*
X0140957Y0093699D01*
X0140692Y0092700D02*
X0145080Y0092700D01*
X0145080Y0091702D02*
X0135929Y0091702D01*
X0138317Y0095696D02*
X0145080Y0095696D01*
X0145080Y0090703D02*
X0141461Y0090703D01*
X0136837Y0082715D02*
X0135246Y0082715D01*
X0126150Y0094697D02*
X0126150Y0094697D01*
X0126150Y0095696D02*
X0126150Y0095696D01*
X0126150Y0096694D02*
X0126150Y0096694D01*
X0130153Y0101176D02*
X0126091Y0105238D01*
X0126091Y0109653D01*
X0126716Y0109395D01*
X0127866Y0109395D01*
X0128929Y0109835D01*
X0129279Y0110185D01*
X0131106Y0110185D01*
X0131106Y0109014D01*
X0134260Y0109014D01*
X0134260Y0109013D01*
X0131106Y0109013D01*
X0131106Y0108076D01*
X0130866Y0108176D01*
X0129716Y0108176D01*
X0128654Y0107736D01*
X0127841Y0106922D01*
X0127401Y0105860D01*
X0127401Y0104710D01*
X0127841Y0103648D01*
X0128654Y0102835D01*
X0129716Y0102395D01*
X0130866Y0102395D01*
X0131106Y0102494D01*
X0131106Y0101927D01*
X0134260Y0101927D01*
X0134260Y0101927D01*
X0131106Y0101927D01*
X0131106Y0100869D01*
X0130366Y0101176D01*
X0130153Y0101176D01*
X0129642Y0101687D02*
X0131106Y0101687D01*
X0129014Y0102685D02*
X0128644Y0102685D01*
X0127826Y0103684D02*
X0127645Y0103684D01*
X0127412Y0104682D02*
X0126647Y0104682D01*
X0126091Y0105681D02*
X0127401Y0105681D01*
X0127740Y0106679D02*
X0126091Y0106679D01*
X0126091Y0107678D02*
X0128596Y0107678D01*
X0128543Y0109675D02*
X0131106Y0109675D01*
X0131106Y0108676D02*
X0126091Y0108676D01*
X0119072Y0123654D02*
X0103476Y0123654D01*
X0100323Y0123654D02*
X0100323Y0123654D01*
X0100323Y0124653D02*
X0100323Y0124653D01*
X0100323Y0125651D02*
X0100323Y0125651D01*
X0099185Y0126650D02*
X0102206Y0126650D01*
X0102206Y0127648D02*
X0099185Y0127648D01*
X0099049Y0128647D02*
X0102206Y0128647D01*
X0102206Y0129645D02*
X0102092Y0129645D01*
X0102092Y0130644D02*
X0102372Y0130644D01*
X0102372Y0131531D02*
X0102372Y0131811D01*
X0105898Y0131811D01*
X0106522Y0131811D01*
X0106522Y0131531D01*
X0102372Y0131531D01*
X0102372Y0131642D02*
X0106522Y0131642D01*
X0106801Y0131642D02*
X0110065Y0131642D01*
X0110065Y0131531D02*
X0110065Y0131811D01*
X0109441Y0131811D01*
X0106801Y0131811D01*
X0106801Y0131531D01*
X0110065Y0131531D01*
X0110065Y0132641D02*
X0110344Y0132641D01*
X0110344Y0133639D02*
X0110065Y0133639D01*
X0113608Y0133639D02*
X0113888Y0133639D01*
X0113888Y0132641D02*
X0113608Y0132641D01*
X0117152Y0132641D02*
X0117431Y0132641D01*
X0117431Y0133639D02*
X0117152Y0133639D01*
X0120695Y0133639D02*
X0120974Y0133639D01*
X0120974Y0132641D02*
X0120695Y0132641D01*
X0122138Y0134638D02*
X0093391Y0134638D01*
X0093391Y0133639D02*
X0098733Y0133639D01*
X0098567Y0132641D02*
X0093391Y0132641D01*
X0093391Y0131642D02*
X0102092Y0131642D01*
X0102092Y0132641D02*
X0102372Y0132641D01*
X0102372Y0133639D02*
X0102092Y0133639D01*
X0106522Y0133639D02*
X0106801Y0133639D01*
X0106801Y0132641D02*
X0106522Y0132641D01*
X0098567Y0130644D02*
X0093391Y0130644D01*
X0093391Y0129645D02*
X0098766Y0129645D01*
X0096545Y0128647D02*
X0096266Y0128647D01*
X0096266Y0127648D02*
X0096545Y0127648D01*
X0096545Y0126650D02*
X0096266Y0126650D01*
X0096266Y0125651D02*
X0096545Y0125651D01*
X0096545Y0124653D02*
X0096266Y0124653D01*
X0096266Y0123654D02*
X0096545Y0123654D01*
X0096545Y0122656D02*
X0096266Y0122656D01*
X0096266Y0121657D02*
X0096545Y0121657D01*
X0096545Y0120659D02*
X0096266Y0120659D01*
X0096266Y0119660D02*
X0096545Y0119660D01*
X0096545Y0118662D02*
X0096266Y0118662D01*
X0096266Y0117663D02*
X0096545Y0117663D01*
X0096545Y0116665D02*
X0096266Y0116665D01*
X0096266Y0115666D02*
X0096545Y0115666D01*
X0096545Y0114668D02*
X0096266Y0114668D01*
X0096266Y0114189D02*
X0096545Y0114189D01*
X0096545Y0110925D01*
X0096266Y0110925D01*
X0096266Y0113565D01*
X0096266Y0114189D01*
X0096266Y0113669D02*
X0096545Y0113669D01*
X0096545Y0112670D02*
X0096266Y0112670D01*
X0096266Y0111672D02*
X0096545Y0111672D01*
X0096545Y0110645D02*
X0096545Y0107382D01*
X0096266Y0107382D01*
X0096266Y0110021D01*
X0096266Y0110645D01*
X0096545Y0110645D01*
X0096545Y0109675D02*
X0096266Y0109675D01*
X0096266Y0108676D02*
X0096545Y0108676D01*
X0096545Y0107678D02*
X0096266Y0107678D01*
X0096266Y0107102D02*
X0096545Y0107102D01*
X0096545Y0103838D01*
X0096266Y0103838D01*
X0096266Y0106478D01*
X0096266Y0107102D01*
X0096266Y0106679D02*
X0096545Y0106679D01*
X0096545Y0105681D02*
X0096266Y0105681D01*
X0096266Y0104682D02*
X0096545Y0104682D01*
X0096266Y0103684D02*
X0090760Y0103684D01*
X0090760Y0104682D02*
X0093626Y0104682D01*
X0093648Y0105681D02*
X0090379Y0105681D01*
X0093054Y0106679D02*
X0093626Y0106679D01*
X0093626Y0102685D02*
X0087776Y0102685D01*
X0086807Y0102685D02*
X0080276Y0102685D01*
X0079307Y0102685D02*
X0073578Y0102685D01*
X0073578Y0101687D02*
X0076323Y0101687D01*
X0076323Y0100688D02*
X0073578Y0100688D01*
X0073010Y0099690D02*
X0076428Y0099690D01*
X0079307Y0099690D02*
X0080276Y0099690D01*
X0080276Y0100688D02*
X0079307Y0100688D01*
X0079307Y0101687D02*
X0080276Y0101687D01*
X0083260Y0101687D02*
X0083823Y0101687D01*
X0083823Y0100688D02*
X0083260Y0100688D01*
X0083155Y0099690D02*
X0083928Y0099690D01*
X0086807Y0099690D02*
X0087776Y0099690D01*
X0087776Y0100688D02*
X0086807Y0100688D01*
X0086807Y0101687D02*
X0087776Y0101687D01*
X0090760Y0101687D02*
X0093641Y0101687D01*
X0093626Y0100688D02*
X0090760Y0100688D01*
X0090655Y0099690D02*
X0093626Y0099690D01*
X0096266Y0099690D02*
X0096545Y0099690D01*
X0096545Y0100688D02*
X0096266Y0100688D01*
X0096266Y0101687D02*
X0096545Y0101687D01*
X0096545Y0102685D02*
X0096266Y0102685D01*
X0096266Y0098691D02*
X0096545Y0098691D01*
X0096545Y0097693D02*
X0096266Y0097693D01*
X0096266Y0096694D02*
X0096545Y0096694D01*
X0096545Y0095696D02*
X0102413Y0095696D01*
X0102406Y0094697D02*
X0099185Y0094697D01*
X0099185Y0093699D02*
X0102406Y0093699D01*
X0104890Y0093817D02*
X0104890Y0093817D01*
X0104890Y0094697D02*
X0104890Y0094697D01*
X0104890Y0095696D02*
X0104890Y0095696D01*
X0104890Y0096694D02*
X0104890Y0096694D01*
X0103476Y0097693D02*
X0107822Y0097693D01*
X0107409Y0098691D02*
X0103476Y0098691D01*
X0105065Y0099690D02*
X0107401Y0099690D01*
X0107744Y0100688D02*
X0106230Y0100688D01*
X0107572Y0101687D02*
X0108191Y0101687D01*
X0108191Y0106473D02*
X0107929Y0106736D01*
X0106866Y0107176D01*
X0105716Y0107176D01*
X0104654Y0106736D01*
X0103841Y0105922D01*
X0103476Y0105043D01*
X0103476Y0105470D01*
X0100323Y0105470D01*
X0100323Y0105470D01*
X0103476Y0105470D01*
X0103476Y0106652D01*
X0103376Y0107025D01*
X0103676Y0107325D01*
X0103676Y0110702D01*
X0103593Y0110785D01*
X0103676Y0110868D01*
X0103676Y0114245D01*
X0103593Y0114328D01*
X0103676Y0114412D01*
X0103676Y0116430D01*
X0108191Y0111915D01*
X0108191Y0106473D01*
X0108191Y0106679D02*
X0107985Y0106679D01*
X0108191Y0107678D02*
X0103676Y0107678D01*
X0103676Y0108676D02*
X0108191Y0108676D01*
X0108191Y0109675D02*
X0103676Y0109675D01*
X0103676Y0110673D02*
X0108191Y0110673D01*
X0108191Y0111672D02*
X0103676Y0111672D01*
X0103676Y0112670D02*
X0107436Y0112670D01*
X0106438Y0113669D02*
X0103676Y0113669D01*
X0103676Y0114668D02*
X0105439Y0114668D01*
X0104441Y0115666D02*
X0103676Y0115666D01*
X0107385Y0118662D02*
X0110191Y0118662D01*
X0110196Y0119660D02*
X0106386Y0119660D01*
X0105388Y0120659D02*
X0111195Y0120659D01*
X0110191Y0117663D02*
X0108383Y0117663D01*
X0109382Y0116665D02*
X0110191Y0116665D01*
X0110374Y0124653D02*
X0110599Y0124653D01*
X0121004Y0124653D02*
X0121228Y0124653D01*
X0127781Y0132641D02*
X0128061Y0132641D01*
X0128061Y0133639D02*
X0127781Y0133639D01*
X0122552Y0137633D02*
X0093460Y0137633D01*
X0093460Y0138632D02*
X0123538Y0138632D01*
X0123538Y0139630D02*
X0093460Y0139630D01*
X0093460Y0140629D02*
X0123538Y0140629D01*
X0122352Y0141627D02*
X0121577Y0141627D01*
X0119445Y0141627D02*
X0118445Y0141627D01*
X0118445Y0142626D02*
X0119445Y0142626D01*
X0119445Y0143624D02*
X0118445Y0143624D01*
X0118445Y0144623D02*
X0119445Y0144623D01*
X0118445Y0145621D02*
X0093460Y0145621D01*
X0093460Y0144623D02*
X0115083Y0144623D01*
X0115083Y0143624D02*
X0093322Y0143624D01*
X0093460Y0142626D02*
X0115159Y0142626D01*
X0116313Y0141627D02*
X0093460Y0141627D01*
X0093460Y0146620D02*
X0115083Y0146620D01*
X0115083Y0147618D02*
X0093460Y0147618D01*
X0093460Y0148617D02*
X0115083Y0148617D01*
X0115198Y0149615D02*
X0093346Y0149615D01*
X0086237Y0149615D02*
X0085704Y0149615D01*
X0085704Y0150614D02*
X0122472Y0150614D01*
X0119445Y0149615D02*
X0118445Y0149615D01*
X0118445Y0148617D02*
X0119445Y0148617D01*
X0119445Y0147618D02*
X0118445Y0147618D01*
X0118445Y0146620D02*
X0119445Y0146620D01*
X0115123Y0151612D02*
X0085704Y0151612D01*
X0085704Y0152611D02*
X0114883Y0152611D01*
X0114883Y0153609D02*
X0085704Y0153609D01*
X0085704Y0154608D02*
X0114883Y0154608D01*
X0114883Y0155606D02*
X0085704Y0155606D01*
X0085704Y0156605D02*
X0114883Y0156605D01*
X0114883Y0157604D02*
X0085704Y0157604D01*
X0085087Y0158602D02*
X0114883Y0158602D01*
X0115317Y0159601D02*
X0086364Y0159601D01*
X0087693Y0160599D02*
X0140401Y0160599D01*
X0140499Y0161598D02*
X0088135Y0161598D01*
X0088182Y0162596D02*
X0141014Y0162596D01*
X0140653Y0159601D02*
X0129266Y0159601D01*
X0129700Y0158602D02*
X0141387Y0158602D01*
X0139223Y0155606D02*
X0145093Y0155606D01*
X0145083Y0155569D02*
X0145083Y0153100D01*
X0148067Y0153100D01*
X0148067Y0156872D01*
X0146385Y0156872D01*
X0146004Y0156770D01*
X0145662Y0156572D01*
X0145382Y0156293D01*
X0145185Y0155951D01*
X0145083Y0155569D01*
X0145083Y0154608D02*
X0140221Y0154608D01*
X0141220Y0153609D02*
X0145083Y0153609D01*
X0145083Y0151612D02*
X0143217Y0151612D01*
X0144215Y0150614D02*
X0145083Y0150614D01*
X0145091Y0149615D02*
X0145095Y0149615D01*
X0145091Y0148617D02*
X0145736Y0148617D01*
X0149036Y0152611D02*
X0152363Y0152611D01*
X0152363Y0153609D02*
X0152020Y0153609D01*
X0152020Y0154608D02*
X0152363Y0154608D01*
X0152363Y0155606D02*
X0152010Y0155606D01*
X0151384Y0156605D02*
X0152892Y0156605D01*
X0149035Y0156605D02*
X0148067Y0156605D01*
X0148067Y0155606D02*
X0149035Y0155606D01*
X0149035Y0154608D02*
X0148067Y0154608D01*
X0148067Y0153609D02*
X0149035Y0153609D01*
X0152020Y0151612D02*
X0152363Y0151612D01*
X0152363Y0150614D02*
X0152020Y0150614D01*
X0152007Y0149615D02*
X0152363Y0149615D01*
X0152902Y0148617D02*
X0151367Y0148617D01*
X0155756Y0147618D02*
X0170591Y0147618D01*
X0170591Y0146620D02*
X0155960Y0146620D01*
X0155960Y0145621D02*
X0170591Y0145621D01*
X0170591Y0144623D02*
X0155960Y0144623D01*
X0155960Y0143624D02*
X0170591Y0143624D01*
X0170591Y0142626D02*
X0155960Y0142626D01*
X0155960Y0141627D02*
X0170591Y0141627D01*
X0170591Y0140629D02*
X0155960Y0140629D01*
X0155096Y0139630D02*
X0170591Y0139630D01*
X0170591Y0138632D02*
X0159329Y0138632D01*
X0159503Y0137633D02*
X0170591Y0137633D01*
X0170591Y0136635D02*
X0159503Y0136635D01*
X0159503Y0135636D02*
X0170591Y0135636D01*
X0170591Y0134638D02*
X0159503Y0134638D01*
X0159503Y0133639D02*
X0170591Y0133639D01*
X0170591Y0132641D02*
X0159031Y0132641D01*
X0158819Y0131642D02*
X0170591Y0131642D01*
X0170591Y0130644D02*
X0159503Y0130644D01*
X0159503Y0129645D02*
X0170591Y0129645D01*
X0170591Y0128647D02*
X0159503Y0128647D01*
X0159503Y0127648D02*
X0170591Y0127648D01*
X0170591Y0126650D02*
X0159503Y0126650D01*
X0159503Y0125651D02*
X0170591Y0125651D01*
X0170591Y0124653D02*
X0158543Y0124653D01*
X0158182Y0123654D02*
X0170591Y0123654D01*
X0170591Y0122656D02*
X0157952Y0122656D01*
X0135398Y0126650D02*
X0132177Y0126650D01*
X0132177Y0127648D02*
X0135398Y0127648D01*
X0121901Y0135636D02*
X0092410Y0135636D01*
X0093025Y0136635D02*
X0122015Y0136635D01*
X0129700Y0148617D02*
X0131323Y0148617D01*
X0131323Y0149615D02*
X0129700Y0149615D01*
X0128804Y0150614D02*
X0131711Y0150614D01*
X0131123Y0151612D02*
X0129460Y0151612D01*
X0129700Y0152611D02*
X0131123Y0152611D01*
X0138460Y0156605D02*
X0145719Y0156605D01*
X0145588Y0157604D02*
X0137857Y0157604D01*
X0153063Y0171583D02*
X0156883Y0171583D01*
X0157881Y0170584D02*
X0154580Y0170584D01*
X0155100Y0169586D02*
X0158880Y0169586D01*
X0159878Y0168587D02*
X0155202Y0168587D01*
X0154952Y0167589D02*
X0155507Y0167589D01*
X0159076Y0167589D02*
X0160877Y0167589D01*
X0159880Y0166590D02*
X0161875Y0166590D01*
X0162874Y0165592D02*
X0160182Y0165592D01*
X0160133Y0164593D02*
X0163872Y0164593D01*
X0164871Y0163595D02*
X0159689Y0163595D01*
X0159503Y0162596D02*
X0165869Y0162596D01*
X0166868Y0161598D02*
X0159503Y0161598D01*
X0159503Y0160599D02*
X0167866Y0160599D01*
X0168865Y0159601D02*
X0159503Y0159601D01*
X0159503Y0158602D02*
X0169863Y0158602D01*
X0170591Y0157604D02*
X0158994Y0157604D01*
X0159171Y0156605D02*
X0170591Y0156605D01*
X0170591Y0155606D02*
X0159700Y0155606D01*
X0159700Y0154608D02*
X0170591Y0154608D01*
X0170591Y0153609D02*
X0159700Y0153609D01*
X0159700Y0152611D02*
X0170591Y0152611D01*
X0170591Y0151612D02*
X0159700Y0151612D01*
X0159700Y0150614D02*
X0170591Y0150614D01*
X0170591Y0149615D02*
X0159700Y0149615D01*
X0159161Y0148617D02*
X0170591Y0148617D01*
X0174991Y0148617D02*
X0175791Y0148617D01*
X0175791Y0149615D02*
X0174991Y0149615D01*
X0174991Y0150614D02*
X0175791Y0150614D01*
X0175791Y0151612D02*
X0174991Y0151612D01*
X0174991Y0152611D02*
X0175791Y0152611D01*
X0175791Y0153609D02*
X0174991Y0153609D01*
X0174991Y0154608D02*
X0175791Y0154608D01*
X0175791Y0155606D02*
X0174991Y0155606D01*
X0174991Y0156605D02*
X0175791Y0156605D01*
X0175791Y0157604D02*
X0174991Y0157604D01*
X0174991Y0158602D02*
X0175791Y0158602D01*
X0175791Y0159601D02*
X0174991Y0159601D01*
X0175791Y0160599D02*
X0174089Y0160599D01*
X0173090Y0161598D02*
X0175791Y0161598D01*
X0175791Y0162596D02*
X0172092Y0162596D01*
X0171093Y0163595D02*
X0175791Y0163595D01*
X0175791Y0164593D02*
X0170095Y0164593D01*
X0169096Y0165592D02*
X0175791Y0165592D01*
X0175791Y0166590D02*
X0168098Y0166590D01*
X0167099Y0167589D02*
X0175791Y0167589D01*
X0175791Y0168587D02*
X0166101Y0168587D01*
X0165102Y0169586D02*
X0175791Y0169586D01*
X0175791Y0170584D02*
X0164104Y0170584D01*
X0163105Y0171583D02*
X0175791Y0171583D01*
X0175791Y0172581D02*
X0162107Y0172581D01*
X0161108Y0173580D02*
X0175791Y0173580D01*
X0175791Y0174578D02*
X0160110Y0174578D01*
X0159111Y0175577D02*
X0175791Y0175577D01*
X0175791Y0176575D02*
X0158113Y0176575D01*
X0157991Y0176696D02*
X0157991Y0176696D01*
X0157114Y0177574D02*
X0175791Y0177574D01*
X0175518Y0147618D02*
X0174991Y0147618D01*
X0133505Y0181568D02*
X0130960Y0181568D01*
X0130395Y0182566D02*
X0133873Y0182566D01*
X0123623Y0178572D02*
X0115963Y0178572D01*
X0116078Y0177574D02*
X0123110Y0177574D01*
X0122112Y0176575D02*
X0116078Y0176575D01*
X0116078Y0175577D02*
X0121113Y0175577D01*
X0120115Y0174578D02*
X0116078Y0174578D01*
X0084219Y0159601D02*
X0080487Y0159601D01*
X0080487Y0160599D02*
X0082890Y0160599D01*
X0082447Y0161598D02*
X0080487Y0161598D01*
X0072791Y0156664D02*
X0072791Y0151285D01*
X0071791Y0151285D01*
X0071791Y0150285D01*
X0066413Y0150285D01*
X0066413Y0151285D01*
X0071791Y0151285D01*
X0071791Y0156664D01*
X0072791Y0156664D01*
X0072791Y0156605D02*
X0071791Y0156605D01*
X0071791Y0155606D02*
X0072791Y0155606D01*
X0072791Y0154608D02*
X0071791Y0154608D01*
X0071791Y0153609D02*
X0072791Y0153609D01*
X0072791Y0152611D02*
X0071791Y0152611D01*
X0071791Y0151612D02*
X0072791Y0151612D01*
X0072791Y0151285D02*
X0078170Y0151285D01*
X0078170Y0150285D01*
X0072791Y0150285D01*
X0072791Y0144906D01*
X0071791Y0144906D01*
X0071791Y0150285D01*
X0072791Y0150285D01*
X0072791Y0151285D01*
X0072791Y0150614D02*
X0078170Y0150614D01*
X0081937Y0144880D02*
X0081937Y0141431D01*
X0081791Y0141285D01*
X0078343Y0141285D01*
X0078197Y0141139D01*
X0076228Y0141139D02*
X0076228Y0137848D01*
X0077291Y0136785D01*
X0077291Y0129132D01*
X0076807Y0122656D02*
X0072776Y0122656D01*
X0072776Y0121954D02*
X0075760Y0121954D01*
X0076807Y0121954D01*
X0076807Y0118773D01*
X0075125Y0118773D01*
X0074791Y0118863D01*
X0074457Y0118773D01*
X0072776Y0118773D01*
X0072776Y0121954D01*
X0072776Y0121657D02*
X0071807Y0121657D01*
X0071807Y0121954D02*
X0071807Y0118773D01*
X0070125Y0118773D01*
X0069744Y0118876D01*
X0069402Y0119073D01*
X0069123Y0119352D01*
X0068925Y0119694D01*
X0068823Y0120076D01*
X0068823Y0121954D01*
X0071807Y0121954D01*
X0071807Y0122656D02*
X0066632Y0122656D01*
X0065633Y0121657D02*
X0068823Y0121657D01*
X0068823Y0120659D02*
X0064635Y0120659D01*
X0063636Y0119660D02*
X0068945Y0119660D01*
X0071807Y0119660D02*
X0072776Y0119660D01*
X0072776Y0120659D02*
X0071807Y0120659D01*
X0068823Y0123654D02*
X0068748Y0123654D01*
X0068623Y0128647D02*
X0067436Y0128647D01*
X0066146Y0128647D02*
X0063123Y0128647D01*
X0064121Y0129645D02*
X0068623Y0129645D01*
X0068623Y0130644D02*
X0065120Y0130644D01*
X0064567Y0127648D02*
X0062124Y0127648D01*
X0061126Y0126650D02*
X0064021Y0126650D01*
X0063688Y0125651D02*
X0037574Y0125651D01*
X0037574Y0124653D02*
X0062689Y0124653D01*
X0061690Y0123654D02*
X0059307Y0123654D01*
X0059503Y0118662D02*
X0093626Y0118662D01*
X0093626Y0117663D02*
X0059054Y0117663D01*
X0051137Y0112670D02*
X0076792Y0112670D01*
X0082790Y0112670D02*
X0084292Y0112670D01*
X0083623Y0111672D02*
X0083460Y0111672D01*
X0082879Y0105681D02*
X0084204Y0105681D01*
X0083823Y0104682D02*
X0083260Y0104682D01*
X0083260Y0103684D02*
X0083823Y0103684D01*
X0076323Y0103684D02*
X0073578Y0103684D01*
X0072727Y0104682D02*
X0076323Y0104682D01*
X0066122Y0098691D02*
X0065154Y0098691D01*
X0065154Y0097693D02*
X0066122Y0097693D01*
X0066122Y0096694D02*
X0065154Y0096694D01*
X0066122Y0095696D02*
X0096266Y0095696D01*
X0096266Y0094697D02*
X0096545Y0094697D01*
X0096545Y0093699D02*
X0096266Y0093699D01*
X0096266Y0092700D02*
X0096545Y0092700D01*
X0100323Y0096694D02*
X0100323Y0096694D01*
X0100323Y0097693D02*
X0100323Y0097693D01*
X0103476Y0105681D02*
X0103741Y0105681D01*
X0103469Y0106679D02*
X0104598Y0106679D01*
X0108433Y0096694D02*
X0108433Y0096694D01*
X0108433Y0095696D02*
X0108433Y0095696D01*
X0108433Y0094697D02*
X0108433Y0094697D01*
X0102372Y0088706D02*
X0102092Y0088706D01*
X0102092Y0087708D02*
X0102372Y0087708D01*
X0093626Y0111672D02*
X0093492Y0111672D01*
X0093674Y0112670D02*
X0090290Y0112670D01*
X0093626Y0113669D02*
X0050453Y0113669D01*
X0049491Y0114668D02*
X0093626Y0114668D01*
X0093626Y0115666D02*
X0049491Y0115666D01*
X0049491Y0116665D02*
X0093626Y0116665D01*
X0093700Y0119660D02*
X0090638Y0119660D01*
X0090658Y0119694D02*
X0090760Y0120076D01*
X0090760Y0121954D01*
X0087776Y0121954D01*
X0087776Y0118773D01*
X0089457Y0118773D01*
X0089839Y0118876D01*
X0090181Y0119073D01*
X0090460Y0119352D01*
X0090658Y0119694D01*
X0090760Y0120659D02*
X0093626Y0120659D01*
X0093626Y0121657D02*
X0090760Y0121657D01*
X0090760Y0123654D02*
X0093626Y0123654D01*
X0093626Y0122656D02*
X0087776Y0122656D01*
X0086807Y0122656D02*
X0082776Y0122656D01*
X0082776Y0121954D02*
X0086807Y0121954D01*
X0086807Y0118773D01*
X0085125Y0118773D01*
X0084791Y0118863D01*
X0084457Y0118773D01*
X0082776Y0118773D01*
X0082776Y0121954D01*
X0082776Y0121657D02*
X0081807Y0121657D01*
X0081807Y0121954D02*
X0081807Y0118773D01*
X0080125Y0118773D01*
X0079791Y0118863D01*
X0079457Y0118773D01*
X0077776Y0118773D01*
X0077776Y0121954D01*
X0081807Y0121954D01*
X0081807Y0122656D02*
X0077776Y0122656D01*
X0077776Y0121657D02*
X0076807Y0121657D01*
X0076807Y0120659D02*
X0077776Y0120659D01*
X0077776Y0119660D02*
X0076807Y0119660D01*
X0081807Y0119660D02*
X0082776Y0119660D01*
X0082776Y0120659D02*
X0081807Y0120659D01*
X0086807Y0120659D02*
X0087776Y0120659D01*
X0087776Y0121657D02*
X0086807Y0121657D01*
X0086807Y0119660D02*
X0087776Y0119660D01*
X0092129Y0124653D02*
X0093626Y0124653D01*
X0093626Y0125651D02*
X0093127Y0125651D01*
X0093391Y0126650D02*
X0093626Y0126650D01*
X0093626Y0127648D02*
X0093391Y0127648D01*
X0093391Y0128647D02*
X0093762Y0128647D01*
X0072791Y0145621D02*
X0071791Y0145621D01*
X0071791Y0146620D02*
X0072791Y0146620D01*
X0072791Y0147618D02*
X0071791Y0147618D01*
X0071791Y0148617D02*
X0072791Y0148617D01*
X0072791Y0149615D02*
X0071791Y0149615D01*
X0071791Y0150614D02*
X0066413Y0150614D01*
X0070323Y0148817D02*
X0072291Y0150785D01*
X0070323Y0148817D02*
X0070323Y0141139D01*
X0064095Y0141627D02*
X0054891Y0141627D01*
X0054891Y0140629D02*
X0064095Y0140629D01*
X0064095Y0139630D02*
X0054891Y0139630D01*
X0054891Y0138885D02*
X0054891Y0142780D01*
X0056567Y0142780D01*
X0059684Y0142780D01*
X0059875Y0142589D01*
X0064095Y0142589D01*
X0064095Y0138451D01*
X0063661Y0138885D01*
X0054891Y0138885D01*
X0054891Y0142626D02*
X0059838Y0142626D01*
X0063915Y0138632D02*
X0064095Y0138632D01*
X0061921Y0134685D02*
X0062571Y0134035D01*
X0062191Y0133655D01*
X0058921Y0130385D01*
X0054500Y0130385D01*
X0054500Y0132250D01*
X0051614Y0132250D01*
X0051614Y0133021D01*
X0054500Y0133021D01*
X0054500Y0134685D01*
X0061921Y0134685D01*
X0061969Y0134638D02*
X0054500Y0134638D01*
X0054500Y0133639D02*
X0062176Y0133639D01*
X0061177Y0132641D02*
X0051614Y0132641D01*
X0050842Y0132641D02*
X0046826Y0132641D01*
X0046826Y0133639D02*
X0047957Y0133639D01*
X0047957Y0133021D02*
X0047957Y0134685D01*
X0046268Y0134685D01*
X0046826Y0134127D01*
X0046826Y0130385D01*
X0047957Y0130385D01*
X0047957Y0132250D01*
X0050842Y0132250D01*
X0050842Y0133021D01*
X0047957Y0133021D01*
X0047957Y0131642D02*
X0046826Y0131642D01*
X0046826Y0130644D02*
X0047957Y0130644D01*
X0047957Y0134638D02*
X0046315Y0134638D01*
X0039592Y0132641D02*
X0036974Y0132641D01*
X0036578Y0133036D02*
X0037574Y0132040D01*
X0037574Y0124333D01*
X0036578Y0123337D01*
X0029264Y0123337D01*
X0028269Y0124333D01*
X0028269Y0132040D01*
X0029264Y0133036D01*
X0036578Y0133036D01*
X0036726Y0133639D02*
X0038593Y0133639D01*
X0037691Y0134638D02*
X0037362Y0134638D01*
X0037374Y0135636D02*
X0037691Y0135636D01*
X0037374Y0135667D02*
X0033118Y0135667D01*
X0037374Y0135667D01*
X0037474Y0136635D02*
X0037691Y0136635D01*
X0033118Y0135667D02*
X0033118Y0135667D01*
X0033118Y0135636D02*
X0033118Y0135636D01*
X0033118Y0134638D02*
X0033118Y0134638D01*
X0033118Y0133639D02*
X0033118Y0133639D01*
X0029511Y0133639D02*
X0027731Y0133639D01*
X0027731Y0132641D02*
X0028869Y0132641D01*
X0028269Y0131642D02*
X0027731Y0131642D01*
X0028269Y0130644D02*
X0027160Y0130644D01*
X0027731Y0129645D02*
X0028269Y0129645D01*
X0028269Y0128647D02*
X0027731Y0128647D01*
X0027731Y0127648D02*
X0028269Y0127648D01*
X0028269Y0126650D02*
X0027731Y0126650D01*
X0027731Y0125651D02*
X0028269Y0125651D01*
X0028269Y0124653D02*
X0027731Y0124653D01*
X0027731Y0123654D02*
X0028947Y0123654D01*
X0027731Y0122656D02*
X0045080Y0122656D01*
X0045080Y0121657D02*
X0027731Y0121657D01*
X0027731Y0120659D02*
X0045080Y0120659D01*
X0045080Y0119660D02*
X0027731Y0119660D01*
X0027178Y0118662D02*
X0045080Y0118662D01*
X0045091Y0117663D02*
X0018991Y0117663D01*
X0018991Y0116665D02*
X0045091Y0116665D01*
X0045091Y0115666D02*
X0018991Y0115666D01*
X0036895Y0123654D02*
X0045276Y0123654D01*
X0043457Y0126650D02*
X0037574Y0126650D01*
X0037574Y0127648D02*
X0042458Y0127648D01*
X0040805Y0128647D02*
X0037574Y0128647D01*
X0037574Y0129645D02*
X0039883Y0129645D01*
X0039883Y0130644D02*
X0037574Y0130644D01*
X0037574Y0131642D02*
X0039883Y0131642D01*
X0028874Y0134638D02*
X0027731Y0134638D01*
X0027731Y0135636D02*
X0028862Y0135636D01*
X0028762Y0136635D02*
X0027731Y0136635D01*
X0027731Y0137633D02*
X0028662Y0137633D01*
X0028662Y0138632D02*
X0027731Y0138632D01*
X0027731Y0139630D02*
X0028662Y0139630D01*
X0028662Y0140629D02*
X0027608Y0140629D01*
X0027731Y0141627D02*
X0028662Y0141627D01*
X0028662Y0142626D02*
X0027731Y0142626D01*
X0027731Y0143624D02*
X0028662Y0143624D01*
X0028662Y0144623D02*
X0027731Y0144623D01*
X0027731Y0145621D02*
X0028662Y0145621D01*
X0028662Y0146620D02*
X0027731Y0146620D01*
X0027731Y0147618D02*
X0028886Y0147618D01*
X0029181Y0148617D02*
X0027731Y0148617D01*
X0027731Y0149615D02*
X0028269Y0149615D01*
X0028269Y0150614D02*
X0027071Y0150614D01*
X0027731Y0151612D02*
X0028269Y0151612D01*
X0028269Y0152611D02*
X0027731Y0152611D01*
X0027731Y0153609D02*
X0028269Y0153609D01*
X0028269Y0154608D02*
X0027731Y0154608D01*
X0027731Y0155606D02*
X0028269Y0155606D01*
X0028269Y0156605D02*
X0027731Y0156605D01*
X0027731Y0157604D02*
X0028635Y0157604D01*
X0027731Y0158602D02*
X0039191Y0158602D01*
X0039191Y0157604D02*
X0037208Y0157604D01*
X0037574Y0156605D02*
X0039191Y0156605D01*
X0039191Y0155606D02*
X0037574Y0155606D01*
X0037574Y0154608D02*
X0039191Y0154608D01*
X0039146Y0153609D02*
X0037574Y0153609D01*
X0037574Y0152611D02*
X0038147Y0152611D01*
X0039191Y0159601D02*
X0027731Y0159601D01*
X0027731Y0160599D02*
X0039191Y0160599D01*
X0039191Y0161598D02*
X0027731Y0161598D01*
X0027491Y0162596D02*
X0039191Y0162596D01*
X0039191Y0163595D02*
X0018991Y0163595D01*
X0018991Y0164593D02*
X0024640Y0164593D01*
X0021897Y0165592D02*
X0018991Y0165592D01*
X0018991Y0166590D02*
X0020477Y0166590D01*
X0021491Y0165739D02*
X0021491Y0165739D01*
X0019287Y0167589D02*
X0018991Y0167589D01*
X0029942Y0164593D02*
X0040129Y0164593D01*
X0042973Y0167589D02*
X0035295Y0167589D01*
X0036177Y0168329D02*
X0036177Y0168329D01*
X0036327Y0168587D02*
X0042642Y0168587D01*
X0042642Y0169586D02*
X0036903Y0169586D01*
X0037480Y0170584D02*
X0042642Y0170584D01*
X0042642Y0171583D02*
X0038056Y0171583D01*
X0038192Y0171818D02*
X0038192Y0171818D01*
X0038326Y0172581D02*
X0042642Y0172581D01*
X0042642Y0173580D02*
X0038502Y0173580D01*
X0038679Y0174578D02*
X0046791Y0174578D01*
X0046791Y0173580D02*
X0047791Y0173580D01*
X0047791Y0174578D02*
X0051983Y0174578D01*
X0051941Y0175577D02*
X0052982Y0175577D01*
X0053980Y0176575D02*
X0051941Y0176575D01*
X0051941Y0177574D02*
X0054979Y0177574D01*
X0055977Y0178572D02*
X0051941Y0178572D01*
X0051941Y0179571D02*
X0057438Y0179571D01*
X0059187Y0173580D02*
X0061951Y0173580D01*
X0061619Y0171583D02*
X0057190Y0171583D01*
X0056691Y0170584D02*
X0060621Y0170584D01*
X0059622Y0169586D02*
X0056691Y0169586D01*
X0056691Y0168587D02*
X0058624Y0168587D01*
X0057625Y0167589D02*
X0056691Y0167589D01*
X0058189Y0172581D02*
X0063770Y0172581D01*
X0050891Y0166590D02*
X0034105Y0166590D01*
X0032686Y0165592D02*
X0049997Y0165592D01*
X0047791Y0167589D02*
X0046791Y0167589D01*
X0046791Y0168587D02*
X0047791Y0168587D01*
X0047791Y0169586D02*
X0046791Y0169586D01*
X0046791Y0170584D02*
X0047791Y0170584D01*
X0047791Y0171583D02*
X0046791Y0171583D01*
X0046791Y0172581D02*
X0047791Y0172581D01*
X0047791Y0175577D02*
X0046791Y0175577D01*
X0046791Y0176575D02*
X0047791Y0176575D01*
X0047791Y0177574D02*
X0046791Y0177574D01*
X0046791Y0178572D02*
X0047791Y0178572D01*
X0047791Y0179571D02*
X0046791Y0179571D01*
X0046791Y0180569D02*
X0047791Y0180569D01*
X0047791Y0181568D02*
X0046791Y0181568D01*
X0043247Y0181568D02*
X0037144Y0181568D01*
X0037720Y0180569D02*
X0042647Y0180569D01*
X0042642Y0179571D02*
X0038224Y0179571D01*
X0038192Y0179753D02*
X0038192Y0179753D01*
X0038400Y0178572D02*
X0042642Y0178572D01*
X0042642Y0177574D02*
X0038576Y0177574D01*
X0038752Y0176575D02*
X0042642Y0176575D01*
X0042642Y0175577D02*
X0038855Y0175577D01*
X0054500Y0131642D02*
X0060179Y0131642D01*
X0059180Y0130644D02*
X0054500Y0130644D01*
X0048945Y0120785D02*
X0047291Y0119132D01*
X0047291Y0110785D01*
X0043017Y0110673D02*
X0040991Y0110673D01*
X0040991Y0109675D02*
X0043124Y0109675D01*
X0043538Y0108676D02*
X0040991Y0108676D01*
X0040991Y0107678D02*
X0044353Y0107678D01*
X0043032Y0111672D02*
X0040991Y0111672D01*
X0040991Y0112670D02*
X0043445Y0112670D01*
X0044130Y0113669D02*
X0040991Y0113669D01*
X0040313Y0114668D02*
X0045091Y0114668D01*
X0043785Y0098691D02*
X0040991Y0098691D01*
X0040991Y0097693D02*
X0044621Y0097693D01*
X0045566Y0094697D02*
X0040991Y0094697D01*
X0040991Y0093699D02*
X0044160Y0093699D01*
X0043458Y0092700D02*
X0040991Y0092700D01*
X0040991Y0091702D02*
X0043044Y0091702D01*
X0043017Y0090703D02*
X0040991Y0090703D01*
X0040991Y0089705D02*
X0043112Y0089705D01*
X0043525Y0088706D02*
X0040991Y0088706D01*
X0040991Y0087708D02*
X0044323Y0087708D01*
X0043623Y0086709D02*
X0040120Y0086709D01*
X0039129Y0085711D02*
X0033471Y0085711D01*
X0034306Y0084712D02*
X0038547Y0084712D01*
X0041291Y0083785D02*
X0039315Y0081809D01*
X0030638Y0081809D01*
X0034285Y0078721D02*
X0043623Y0078721D01*
X0043623Y0077723D02*
X0018991Y0077723D01*
X0018991Y0078721D02*
X0020663Y0078721D01*
X0020579Y0078868D02*
X0020776Y0078526D01*
X0021055Y0078246D01*
X0021397Y0078049D01*
X0021779Y0077947D01*
X0023461Y0077947D01*
X0023461Y0081324D01*
X0020476Y0081324D01*
X0020476Y0079249D01*
X0020579Y0078868D01*
X0020476Y0079720D02*
X0018991Y0079720D01*
X0018991Y0080718D02*
X0020476Y0080718D01*
X0018991Y0081717D02*
X0023461Y0081717D01*
X0023461Y0082715D02*
X0024429Y0082715D01*
X0024429Y0083714D02*
X0023461Y0083714D01*
X0023461Y0084712D02*
X0024429Y0084712D01*
X0020568Y0084712D02*
X0018991Y0084712D01*
X0018991Y0083714D02*
X0020476Y0083714D01*
X0020476Y0082715D02*
X0018991Y0082715D01*
X0018991Y0085711D02*
X0027805Y0085711D01*
X0024429Y0080718D02*
X0023461Y0080718D01*
X0023461Y0079720D02*
X0024429Y0079720D01*
X0024429Y0078721D02*
X0023461Y0078721D01*
X0018991Y0076724D02*
X0043623Y0076724D01*
X0043623Y0075726D02*
X0018991Y0075726D01*
X0018991Y0074727D02*
X0043623Y0074727D01*
X0044463Y0073729D02*
X0033899Y0073729D01*
X0033337Y0073961D02*
X0032073Y0073961D01*
X0030905Y0073478D01*
X0030012Y0072584D01*
X0029528Y0071417D01*
X0029528Y0070153D01*
X0030012Y0068986D01*
X0030905Y0068092D01*
X0032073Y0067609D01*
X0033337Y0067609D01*
X0034504Y0068092D01*
X0035398Y0068986D01*
X0035881Y0070153D01*
X0035881Y0071417D01*
X0035398Y0072584D01*
X0034504Y0073478D01*
X0033337Y0073961D01*
X0031511Y0073729D02*
X0023072Y0073729D01*
X0024425Y0072730D02*
X0030158Y0072730D01*
X0029659Y0071732D02*
X0024924Y0071732D01*
X0025054Y0070733D02*
X0029528Y0070733D01*
X0029702Y0069735D02*
X0024881Y0069735D01*
X0024321Y0068736D02*
X0030262Y0068736D01*
X0031762Y0067737D02*
X0022821Y0067737D01*
X0020935Y0067737D02*
X0018991Y0067737D01*
X0018991Y0066739D02*
X0045191Y0066739D01*
X0045191Y0067737D02*
X0033647Y0067737D01*
X0035148Y0068736D02*
X0045191Y0068736D01*
X0045191Y0069735D02*
X0035708Y0069735D01*
X0035881Y0070733D02*
X0045191Y0070733D01*
X0045191Y0071732D02*
X0035751Y0071732D01*
X0035252Y0072730D02*
X0045191Y0072730D01*
X0045191Y0065740D02*
X0018991Y0065740D01*
X0018991Y0064742D02*
X0045865Y0064742D01*
X0043623Y0079720D02*
X0040337Y0079720D01*
X0041336Y0080718D02*
X0044033Y0080718D01*
X0043623Y0081717D02*
X0043311Y0081717D01*
X0043454Y0085711D02*
X0043623Y0085711D01*
X0047291Y0084132D02*
X0047291Y0090785D01*
X0050259Y0087708D02*
X0053392Y0087708D01*
X0053391Y0088706D02*
X0051057Y0088706D01*
X0051471Y0089705D02*
X0053740Y0089705D01*
X0054608Y0090703D02*
X0051566Y0090703D01*
X0050960Y0086709D02*
X0053805Y0086709D01*
X0054765Y0085711D02*
X0050960Y0085711D01*
X0070878Y0070733D02*
X0072855Y0070733D01*
X0072780Y0069735D02*
X0070878Y0069735D01*
X0065638Y0060785D02*
X0076445Y0060785D01*
X0070727Y0049764D02*
X0063855Y0049764D01*
X0065356Y0048766D02*
X0069227Y0048766D01*
X0068485Y0047767D02*
X0066097Y0047767D01*
X0066511Y0046769D02*
X0068072Y0046769D01*
X0068017Y0045770D02*
X0066566Y0045770D01*
X0066499Y0044772D02*
X0068084Y0044772D01*
X0068498Y0043773D02*
X0066085Y0043773D01*
X0065326Y0042775D02*
X0069256Y0042775D01*
X0070799Y0041776D02*
X0065270Y0041776D01*
X0059256Y0042775D02*
X0055044Y0042775D01*
X0055839Y0043773D02*
X0058498Y0043773D01*
X0027885Y0063743D02*
X0018991Y0063743D01*
X0018991Y0062745D02*
X0020603Y0062745D01*
X0020476Y0061746D02*
X0018991Y0061746D01*
X0018991Y0060748D02*
X0020476Y0060748D01*
X0018991Y0059749D02*
X0023461Y0059749D01*
X0023461Y0060748D02*
X0024429Y0060748D01*
X0024429Y0061746D02*
X0023461Y0061746D01*
X0023461Y0062745D02*
X0024429Y0062745D01*
X0020476Y0058751D02*
X0018991Y0058751D01*
X0018991Y0057752D02*
X0020476Y0057752D01*
X0020617Y0056754D02*
X0018991Y0056754D01*
X0018991Y0055755D02*
X0021401Y0055755D01*
X0021491Y0055831D02*
X0021491Y0055831D01*
X0020211Y0054757D02*
X0018991Y0054757D01*
X0018991Y0053758D02*
X0019021Y0053758D01*
X0018991Y0068736D02*
X0019435Y0068736D01*
X0019331Y0072730D02*
X0018991Y0072730D01*
X0018991Y0073729D02*
X0020684Y0073729D01*
X0135719Y0064742D02*
X0141378Y0064742D01*
X0150291Y0058132D02*
X0150445Y0058285D01*
X0150291Y0058132D02*
X0150291Y0053285D01*
X0150872Y0049764D02*
X0153138Y0049764D01*
X0152035Y0048766D02*
X0149873Y0048766D01*
X0148875Y0047767D02*
X0150931Y0047767D01*
X0149827Y0046769D02*
X0147876Y0046769D01*
D38*
X0143531Y0062025D02*
X0146291Y0064785D01*
X0146291Y0068285D01*
X0147291Y0069285D01*
X0147291Y0082785D01*
X0139791Y0079132D02*
X0139791Y0088285D01*
X0129791Y0093915D02*
X0129791Y0098285D01*
X0129791Y0093915D02*
X0129693Y0093817D01*
X0106291Y0104285D02*
X0103933Y0101927D01*
X0100323Y0101927D01*
X0091791Y0109285D02*
X0087445Y0109285D01*
X0087291Y0109132D01*
X0079791Y0109132D01*
X0079398Y0109525D01*
X0069909Y0109525D01*
X0059673Y0109525D02*
X0057531Y0109525D01*
X0055291Y0107285D01*
X0055291Y0101785D01*
X0055291Y0099439D01*
X0058945Y0095785D01*
X0058945Y0095132D01*
X0063791Y0090285D01*
X0081291Y0090285D01*
X0084713Y0086864D01*
X0084713Y0078285D01*
X0094138Y0061632D02*
X0093291Y0060785D01*
X0094138Y0061632D02*
X0102291Y0061632D01*
X0111780Y0061632D01*
X0112173Y0062025D01*
X0122409Y0062025D02*
X0131898Y0062025D01*
X0143531Y0062025D01*
X0132291Y0061632D02*
X0131898Y0062025D01*
X0087291Y0129132D02*
X0082291Y0129132D01*
X0082291Y0140785D01*
X0081791Y0141285D01*
X0085291Y0135785D02*
X0087291Y0133785D01*
X0087291Y0129132D01*
X0077291Y0129132D02*
X0072291Y0129132D01*
D39*
X0047291Y0157124D02*
X0047291Y0158785D01*
X0053791Y0165285D01*
X0053791Y0172285D01*
X0058291Y0176785D01*
X0064791Y0176785D01*
X0056291Y0088285D02*
X0058945Y0085632D01*
X0058945Y0080785D01*
X0057173Y0079013D01*
X0057173Y0074525D01*
X0067409Y0074525D02*
X0071110Y0074525D01*
X0074870Y0078285D01*
X0083138Y0076710D02*
X0084713Y0078285D01*
X0083138Y0076710D02*
X0083138Y0068285D01*
X0093291Y0068285D01*
X0093291Y0060785D01*
X0093291Y0052785D01*
X0097291Y0048785D01*
X0145791Y0048785D01*
X0150291Y0053285D01*
X0160291Y0053285D01*
X0163791Y0056785D01*
X0163791Y0058132D01*
X0163945Y0058285D01*
X0163945Y0065785D01*
X0163945Y0067439D01*
X0167291Y0070785D01*
X0139791Y0079132D02*
X0132291Y0079132D01*
X0131898Y0079525D01*
X0122409Y0079525D01*
X0112173Y0079525D02*
X0102685Y0079525D01*
X0102291Y0079132D01*
X0102291Y0079785D01*
X0096791Y0085285D01*
D40*
X0123791Y0104285D02*
X0123791Y0117285D01*
X0126291Y0119785D01*
X0134118Y0119785D01*
X0134260Y0119643D01*
X0145291Y0128285D02*
X0142791Y0130785D01*
X0142791Y0148785D01*
X0137445Y0154132D01*
X0134791Y0154132D01*
X0133413Y0155510D01*
X0125638Y0155510D01*
X0118945Y0155510D01*
X0145291Y0128285D02*
X0148945Y0128285D01*
X0148791Y0128132D01*
X0148791Y0121785D01*
X0155791Y0110285D02*
X0155791Y0105439D01*
X0155638Y0105285D01*
X0134260Y0105470D02*
X0134075Y0105285D01*
X0130291Y0105285D01*
X0123791Y0104285D02*
X0129791Y0098285D01*
X0139791Y0079132D02*
X0142445Y0079132D01*
X0143791Y0077785D01*
X0143791Y0068285D01*
X0142791Y0067285D01*
X0138291Y0045285D02*
X0094791Y0045285D01*
X0085291Y0054785D01*
X0044791Y0054785D01*
X0042291Y0052285D01*
X0042291Y0045785D01*
X0055291Y0101785D02*
X0055551Y0102045D01*
X0059673Y0102045D01*
M02*
